<svg style="position: absolute; width: 0; height: 0;" width="0" height="0" version="1.1" xmlns="http://www.w3.org/2000/svg" xmlns:xlink="http://www.w3.org/1999/xlink">
<defs>
<symbol id="icon-lock" viewBox="0 0 21 32">
<title>lock</title>
<path class="path1" d="M5.728 13.728h9.12v-3.456q0-1.888-1.344-3.232t-3.232-1.312-3.232 1.312-1.312 3.232v3.456zM20.576 15.424v10.304q0 0.704-0.512 1.184t-1.216 0.512h-17.12q-0.736 0-1.216-0.512t-0.512-1.184v-10.304q0-0.704 0.512-1.216t1.216-0.48h0.544v-3.456q0-3.264 2.368-5.632t5.632-2.368 5.664 2.368 2.336 5.632v3.456h0.576q0.736 0 1.216 0.48t0.512 1.216z"></path>
</symbol>
<symbol id="icon-unlocked" viewBox="0 0 30 32">
<title>unlocked</title>
<path class="path1" d="M29.728 10.272v4.576q0 0.48-0.352 0.8t-0.8 0.352h-1.152q-0.448 0-0.8-0.352t-0.352-0.8v-4.576q0-1.888-1.312-3.232t-3.232-1.312-3.232 1.312-1.344 3.232v3.456h1.696q0.736 0 1.216 0.48t0.512 1.216v10.304q0 0.704-0.512 1.184t-1.216 0.512h-17.12q-0.736 0-1.216-0.512t-0.512-1.184v-10.304q0-0.704 0.512-1.216t1.216-0.48h12v-3.456q0-3.296 2.336-5.632t5.664-2.368 5.632 2.368 2.368 5.632z"></path>
</symbol>
<symbol id="icon-unlock" viewBox="0 0 21 32">
<title>unlock</title>
<path class="path1" d="M18.848 13.728q0.736 0 1.216 0.48t0.512 1.216v10.304q0 0.704-0.512 1.184t-1.216 0.512h-17.12q-0.736 0-1.216-0.512t-0.512-1.184v-10.304q0-0.704 0.512-1.216t1.216-0.48h0.544v-5.728q0-3.296 2.368-5.664t5.632-2.336 5.664 2.336 2.336 5.664q0 0.48-0.32 0.8t-0.8 0.352h-1.152q-0.448 0-0.8-0.352t-0.352-0.8q0-1.888-1.344-3.232t-3.232-1.344-3.232 1.344-1.312 3.232v5.728h13.12z"></path>
</symbol>
<symbol id="icon-enlightened" viewBox="0 0 32 32">
<title>enlightened</title>
<path class="path1" d="M13.344 11.456c0.768-0.64 1.728-1.12 2.784-1.088 1.024-0.032 1.952 0.512 2.752 1.152-0.288 0.864-0.832 1.632-1.152 2.464-0.064 0.032-0.128 0.096-0.192 0.128-0.96-0.032-1.952 0-2.944 0-0.352-0.8-0.736-1.6-1.12-2.4-0.064-0.096-0.096-0.16-0.128-0.256zM11.008 16.992c0.032-1.76 0.64-3.488 1.696-4.896 0.32 0.832 0.832 1.6 1.12 2.432-0.096 0.384-0.256 0.768-0.384 1.12-0.16 0.448-0.352 0.896-0.512 1.344-0.64 0-1.28 0-1.92 0zM18.56 14.24c0.256-0.576 0.928-1.92 0.96-2.016 0.448 0.608 0.8 1.28 1.056 1.984 0.032 0.096 0.064 0.192 0.128 0.32 0.288 0.8 0.352 1.632 0.448 2.464-0.512 0-1.024 0-1.536 0-0.352-0.8-0.768-1.536-1.12-2.336-0.064-0.128 0-0.288 0.064-0.416zM14.592 14.976c1.024-0.032 2.048-0.064 3.072 0 0.352 0.672 0.672 1.376 1.024 2.048 0.096 0.192 0.256 0.416 0.128 0.608-0.512 0.8-1.056 1.632-1.536 2.464-0.768 0-1.504 0-2.24 0-0.224-0.416-1.184-2.112-1.376-2.496 0.096-0.512 0.352-0.928 0.512-1.408 0.032-0.128 0.416-1.152 0.416-1.216zM11.008 17.856c0.608 0 1.216 0 1.792 0 0.448 0.832 0.992 1.664 1.376 2.528-0.352 0.64-0.704 1.28-1.088 1.888-1.024-1.28-1.856-2.784-2.080-4.416zM18.048 20.48c0.512-0.896 1.12-1.728 1.6-2.624 0.48-0.032 0.992 0 1.472 0-0.064 0.576-0.224 1.12-0.416 1.664-0.384 0.928-0.896 1.824-1.504 2.656-0.352-0.576-0.736-1.152-1.152-1.696zM14.88 20.928c0.8 0.032 1.632 0 2.464 0.032 0.416 0.672 0.928 1.28 1.28 1.952-0.672 0.672-1.408 1.472-2.4 1.568-1.024-0.096-1.824-0.832-2.528-1.504 0.416-0.672 0.768-1.344 1.184-2.048zM14.208 0.128c2.528-0.288 5.152 0.032 7.552 0.96 3.264 1.248 6.080 3.616 7.872 6.592 1.76 2.848 2.56 6.272 2.272 9.6-0.224 2.912-1.28 5.728-3.008 8.096-1.76 2.368-4.16 4.288-6.912 5.376-2.976 1.216-6.368 1.472-9.504 0.768-3.456-0.768-6.624-2.752-8.864-5.504-1.92-2.304-3.136-5.216-3.456-8.192-0.416-3.392 0.288-6.912 2.016-9.856 1.76-3.008 4.48-5.44 7.712-6.752 1.376-0.576 2.816-0.928 4.32-1.088zM16.256 25.696h0.032c0.096 0 0.224-0.032 0.352-0.032 0 0 0.032 0 0.064 0l0.032-0.032c0 0 0.032 0 0.032 0v0h0.032c0.096-0.032 0.224-0.064 0.352-0.096h0.032c0.032 0 0.064-0.032 0.096-0.032 0.064-0.032 0.16-0.064 0.224-0.096 0.096-0.064 0.224-0.128 0.32-0.192h0.064v-0.032c0.032 0 0.064 0 0.064-0.032 0.032 0 0.032-0.032 0.064-0.032 0.032-0.032 0.096-0.064 0.128-0.096h0.032c0.032-0.032 0.096-0.096 0.16-0.128l0.032-0.032h0.032c0.192-0.192 0.416-0.352 0.608-0.544 0.064-0.064 0.128-0.128 0.192-0.224 0.064-0.032 0.096-0.064 0.128-0.096 0.032-0.064 0.096-0.096 0.16-0.16 0-0.032 0.032-0.032 0.032-0.064 0.032-0.032 0.096-0.096 0.128-0.128l0.064-0.064c0.128-0.16 0.224-0.288 0.352-0.416v-0.032h0.032c0-0.032 0.032-0.064 0.032-0.064 0-0.032 0.032-0.064 0.064-0.064v-0.032l0.032-0.032c0 0 0-0.032 0.032-0.032v-0.032c0.064-0.096 0.128-0.192 0.192-0.288 0-0.032 0.064-0.064 0.064-0.096 0.032-0.032 0.064-0.064 0.096-0.096 0.064 0.192 0.128 0.352 0.16 0.544 0.032 0.032 0.032 0.064 0.064 0.096 0.032 0.096 0.064 0.192 0.096 0.288 0 0.032 0.032 0.064 0.032 0.064 0 0.064 0.032 0.096 0.032 0.128 0.032 0.032 0.032 0.032 0.032 0.064 0.032 0.064 0.064 0.096 0.064 0.16l0.032 0.032c0.032 0.064 0.064 0.128 0.096 0.192 0 0.032 0.032 0.064 0.032 0.064 0.032 0.032 0.032 0.064 0.032 0.096 0.032 0.032 0.064 0.064 0.064 0.096l0.032 0.032c0.064 0.096 0.096 0.16 0.16 0.256v0l0.032 0.032c0.032 0.032 0.064 0.096 0.096 0.128s0.032 0.064 0.064 0.096c0.128 0.128 0.256 0.256 0.384 0.352 0.032 0 0.032 0 0.032 0 0.032 0.032 0.032 0.032 0.064 0.064v0 0c0.032 0 0.032 0 0.032 0v0l0.032 0.032c0 0 0 0 0.032 0 0.032 0.032 0.064 0.032 0.096 0.064v0 0c0.032 0 0.032 0 0.064 0v0.032c0.032 0 0.032 0 0.064 0s0.032 0 0.064 0c0 0 0 0 0 0.032 0.032 0 0.032 0 0.064 0 0 0 0 0 0 0 0.032 0 0.064 0 0.096 0s0.064 0 0.096 0h0.032c0.032 0 0.064 0 0.096 0 0 0 0 0 0.032 0s0.064 0 0.096 0c0.064-0.032 0.096-0.032 0.128-0.032l0.032-0.032c0.032 0 0.064 0 0.128-0.032 0.192-0.064 0.352-0.16 0.512-0.288 0.032-0.032 0.064-0.064 0.096-0.096 0-0.032 0.032-0.064 0.064-0.096v0c0.032-0.032 0.032-0.064 0.064-0.064 0-0.032 0-0.032 0-0.064 0.032 0 0.032-0.032 0.032-0.032 0.032-0.064 0.064-0.096 0.064-0.128 0.032-0.128 0.064-0.224 0.064-0.352 0 0 0-0.032 0-0.032s0-0.032 0-0.032v-0.064c0 0 0-0.032 0-0.064s0-0.032 0-0.064c-0.032-0.096-0.032-0.192-0.064-0.256-0.032-0.096-0.064-0.192-0.096-0.288 0-0.032-0.032-0.064-0.032-0.096-0.032-0.032-0.032-0.064-0.032-0.096l-0.032-0.032c-0.192-0.384-0.448-0.768-0.704-1.12-0.064-0.064-0.128-0.16-0.192-0.224-0.032-0.064-0.096-0.096-0.128-0.16-0.032-0.032-0.096-0.096-0.128-0.16h-0.032l-0.032-0.032c-0.128-0.192-0.288-0.384-0.48-0.544-0.032-0.032-0.064-0.064-0.096-0.096v-0.032h-0.032c-0.128-0.128-0.288-0.288-0.448-0.416 0 0-0.032-0.032-0.064-0.032 0.064-0.128 0.128-0.256 0.16-0.352 0.032-0.064 0.032-0.096 0.064-0.128 0-0.064 0.032-0.128 0.064-0.224 0-0.032 0.032-0.064 0.032-0.096 0.096-0.288 0.16-0.608 0.224-0.896 0.032-0.032 0.032-0.064 0.032-0.096 0-0.064 0.032-0.128 0.032-0.16 0-0.096 0.032-0.16 0.032-0.224v0c0.032-0.416 0.064-0.832 0.032-1.248 0-0.032 0-0.096 0-0.128v-0.032c-0.064-1.088-0.352-2.144-0.704-3.168l-0.064-0.096c-0.064-0.16-0.128-0.32-0.192-0.48-0.064-0.128-0.096-0.224-0.16-0.32-0.032-0.032-0.064-0.096-0.064-0.128-0.096-0.16-0.192-0.32-0.32-0.48 0-0.032-0.032-0.032-0.032-0.064 0 0-0.032-0.032-0.032-0.032v0l-0.032-0.032c-0.032-0.064-0.064-0.096-0.096-0.16 0.064 0.064 0.128 0.096 0.192 0.128 0 0.032 0.032 0.032 0.064 0.064 0.192 0.064 0.384 0.16 0.576 0.224 0.032 0.032 0.096 0.064 0.16 0.096 0.096 0.032 0.192 0.096 0.288 0.128 0.16 0.096 0.352 0.16 0.512 0.224 0.416 0.192 0.8 0.384 1.216 0.544 0.032 0 0.064 0.032 0.096 0.032 0.16 0.064 0.352 0.128 0.544 0.192 0 0 0.032 0.032 0.064 0.032h0.032l0.032 0.032c0.064 0 0.128 0.032 0.16 0.032 0.096 0.032 0.192 0.064 0.256 0.096 0.16 0.032 0.288 0.096 0.448 0.128 0.032 0 0.064 0 0.096 0.032 0.064 0 0.096 0 0.16 0.032v0h0.032c0.064 0 0.16 0.032 0.256 0.032 0 0 0 0 0.032 0 0.064 0 0.16 0 0.224 0 0 0 0-0.032 0-0.032 0.032-0.064 0.032-0.128 0-0.192 0-0.096 0-0.16 0-0.224-0.032-0.032-0.032-0.096-0.064-0.16s-0.064-0.16-0.096-0.224c-0.032-0.064-0.064-0.096-0.096-0.16 0 0-0.032-0.032-0.032-0.032v0c-0.032-0.032-0.032-0.064-0.064-0.096-0.032-0.064-0.064-0.096-0.096-0.128l-0.032-0.096v-0.032c-0.096-0.096-0.16-0.192-0.224-0.288-0.096-0.128-0.224-0.224-0.32-0.352-0.064-0.096-0.128-0.16-0.192-0.256-0.032-0.032-0.096-0.064-0.128-0.128-0.032-0.032-0.064-0.064-0.128-0.128s-0.16-0.16-0.224-0.256c-0.064-0.032-0.096-0.096-0.16-0.16-0.032 0-0.032-0.032-0.064-0.064-0.064-0.032-0.096-0.096-0.16-0.128-0.064-0.064-0.096-0.096-0.16-0.16-0.032-0.032-0.064-0.064-0.096-0.096v0l-0.064-0.064c-0.192-0.16-0.384-0.32-0.576-0.448-0.064-0.064-0.16-0.128-0.256-0.192v0l-0.032-0.032c-0.16-0.096-0.32-0.224-0.48-0.32-0.032-0.032-0.096-0.064-0.128-0.096v0c-0.096-0.032-0.192-0.096-0.256-0.128-0.032 0-0.064-0.032-0.096-0.032h-0.032v-0.032h-0.032c-0.032-0.032-0.096-0.032-0.128-0.064-0.064 0-0.096-0.032-0.128-0.032s-0.032 0-0.064 0c0-0.032-0.032-0.032-0.064-0.032-0.128-0.032-0.224-0.064-0.32-0.064v-0.032h-0.032c-0.032 0-0.096 0-0.16 0 0 0-0.032 0-0.032 0-0.032 0-0.064-0.032-0.064-0.032-0.224 0-0.448 0-0.672 0.032-0.032 0.032-0.096 0.032-0.128 0.032l-0.032 0.032c-0.064 0-0.096 0-0.16 0.032v0c-0.128 0.032-0.256 0.096-0.384 0.16v0c0 0-0.032 0.032-0.064 0.032 0 0 0 0.032-0.032 0.032v0h-0.032c0 0 0 0 0 0.032-0.128 0.064-0.256 0.192-0.352 0.32l-0.032 0.032c-0.032 0.032-0.032 0.032-0.064 0.064s-0.064 0.064-0.128 0.128c0 0 0 0 0 0-0.032 0.032-0.064 0.064-0.096 0.064v0.032c0-0.032-0.032-0.032-0.032-0.032-0.096-0.032-0.192-0.096-0.32-0.128-0.032-0.032-0.096-0.064-0.128-0.096-0.064 0-0.128-0.032-0.16-0.064h-0.032c-0.128-0.032-0.224-0.096-0.352-0.128 0 0 0-0.032 0-0.064l0.032-0.064v-0.064c0-0.064 0-0.16 0.032-0.224 0-0.064 0-0.128 0-0.192 0.032-0.16 0.064-0.352 0.064-0.512 0-0.064 0-0.096 0-0.16s0-0.128 0-0.16c0-0.16 0-0.32 0-0.48 0-0.064 0-0.128 0-0.192-0.032-0.064-0.032-0.128-0.032-0.192 0-0.032 0-0.032 0-0.064-0.032-0.096-0.064-0.224-0.096-0.32 0-0.064-0.032-0.096-0.032-0.16 0 0-0.032-0.032-0.032-0.032 0-0.064-0.032-0.096-0.064-0.16 0-0.032 0-0.032-0.032-0.064 0-0.032-0.032-0.064-0.032-0.096-0.032-0.032-0.032-0.064-0.064-0.096v-0.032l-0.032-0.032v-0.032c-0.064-0.096-0.096-0.192-0.16-0.288-0.032-0.064-0.096-0.16-0.128-0.224l-0.032-0.032c-0.032-0.032-0.064-0.096-0.096-0.128-0.032-0.064-0.064-0.096-0.064-0.128-0.064-0.096-0.128-0.192-0.192-0.288l-0.032-0.064c-0.064-0.032-0.096-0.096-0.128-0.16-0.032 0-0.032-0.032-0.064-0.064 0-0.032-0.032-0.032-0.032-0.064-0.032-0.032-0.064-0.064-0.096-0.096 0 0 0 0-0.032-0.032s-0.064-0.064-0.128-0.096v0 0c-0.032-0.032-0.096-0.032-0.128-0.032h-0.032c0 0 0 0-0.032 0s-0.096 0-0.128 0.032v0c-0.032 0-0.032 0-0.032 0.032-0.064 0.032-0.128 0.096-0.16 0.16h-0.032v0.032c-0.032 0-0.032 0.032-0.064 0.032-0.032 0.064-0.064 0.096-0.096 0.16-0.192 0.224-0.352 0.48-0.48 0.736-0.032 0.064-0.064 0.096-0.096 0.16-0.064 0.096-0.096 0.16-0.16 0.256-0.032 0.096-0.096 0.192-0.128 0.288-0.032 0.032-0.032 0.064-0.064 0.096 0 0.032 0 0.064-0.032 0.064 0 0.032 0 0.064-0.032 0.096 0 0.032-0.032 0.096-0.032 0.128-0.032 0.032-0.032 0.032-0.032 0.064s-0.032 0.064-0.032 0.096c-0.032 0.16-0.064 0.32-0.096 0.512 0 0.064 0 0.096 0 0.16-0.032 0.256-0.032 0.544 0 0.8 0.032 0.16 0.032 0.32 0.064 0.48 0 0.096 0.032 0.224 0.032 0.32 0.032 0.096 0.032 0.192 0.064 0.288 0 0.032 0 0.064 0 0.128-0.192 0.064-0.352 0.128-0.544 0.192-0.032 0.032-0.064 0.032-0.096 0.064-0.096 0.032-0.192 0.096-0.288 0.16-0.064 0.032-0.16 0.096-0.224 0.128l-0.064 0.064c-0.064-0.096-0.096-0.192-0.16-0.288-0.032-0.032-0.032-0.032-0.032-0.064-0.032 0-0.032-0.032-0.032-0.032h-0.032v-0.032c-0.032-0.032-0.032-0.032-0.064-0.064v0 0c0-0.032-0.032-0.032-0.064-0.064 0 0-0.032-0.032-0.032-0.032-0.096-0.096-0.224-0.192-0.32-0.256-0.192-0.128-0.384-0.224-0.608-0.288-0.032 0-0.064-0.032-0.096-0.032v0c-0.096 0-0.16-0.032-0.224-0.032-0.032 0-0.032 0-0.064 0s-0.096-0.032-0.128-0.032c-0.032 0-0.064 0-0.096 0 0 0-0.032 0-0.032 0h-0.032c0 0-0.032 0-0.064 0 0 0-0.032 0-0.032 0h-0.032c0 0-0.032 0-0.032 0h-0.032c0 0 0 0-0.032 0s-0.032 0-0.064 0h-0.032v0.032c-0.032 0-0.096 0-0.128 0 0 0 0 0-0.032 0v0c-0.032 0-0.064 0.032-0.128 0.032v0 0c-0.064 0.032-0.16 0.032-0.224 0.064v0h-0.032c-0.096 0.032-0.16 0.064-0.256 0.096-0.032 0.032-0.096 0.064-0.128 0.064s-0.032 0.032-0.064 0.032c-0.064 0.032-0.128 0.064-0.192 0.096s-0.16 0.096-0.224 0.128c-0.064 0.032-0.16 0.096-0.224 0.128l-0.064 0.032c0 0.032-0.032 0.032-0.064 0.064-0.064 0.032-0.16 0.096-0.224 0.16-0.192 0.128-0.352 0.256-0.512 0.384l-0.032 0.064c-0.064 0.032-0.096 0.064-0.16 0.128-0.192 0.16-0.384 0.32-0.544 0.48-0.096 0.096-0.192 0.192-0.288 0.288-0.032 0.032-0.096 0.096-0.128 0.16-0.032 0.032-0.064 0.064-0.096 0.064v0.032l-0.032 0.032c-0.192 0.192-0.352 0.384-0.512 0.576-0.064 0.064-0.128 0.16-0.192 0.256-0.064 0.064-0.096 0.128-0.16 0.224-0.032 0-0.032 0.032-0.064 0.064-0.032 0.064-0.064 0.096-0.096 0.16-0.064 0.096-0.096 0.16-0.128 0.224-0.032 0-0.032 0.032-0.032 0.064-0.032 0-0.032 0.032-0.064 0.064-0.032 0.064-0.064 0.16-0.096 0.256v0 0c-0.032 0.096-0.064 0.192-0.064 0.288 0 0 0 0.032 0 0.032 0 0.032 0 0.064 0 0.096 0 0 0 0.032 0 0.064s0 0.032 0 0.064c0 0 0.032 0 0.032 0s0 0 0.032 0 0.096 0 0.16 0c0.032 0 0.032 0 0.064 0v0c0.096 0 0.224-0.032 0.32-0.064v0c0.16-0.032 0.288-0.064 0.448-0.096 0.032-0.032 0.032-0.032 0.064-0.032 0.128-0.032 0.224-0.064 0.352-0.096l0.032-0.032c0.064 0 0.128-0.032 0.192-0.064h0.064l0.032-0.032c0.064 0 0.16-0.032 0.256-0.064 0.128-0.064 0.256-0.096 0.352-0.16 0.064 0 0.096-0.032 0.16-0.032l0.032-0.032c0.064-0.032 0.096-0.032 0.16-0.064v0 0c0.288-0.128 0.544-0.224 0.8-0.352l0.032-0.032c0.064 0 0.128-0.032 0.192-0.064 0.256-0.128 0.544-0.256 0.8-0.384l0.128-0.032c0.096-0.064 0.16-0.096 0.256-0.128 0.064-0.032 0.128-0.064 0.224-0.096 0.16-0.064 0.32-0.16 0.48-0.224h0.064l0.032-0.032c0.064-0.032 0.096-0.032 0.128-0.064v0.032c-0.032 0.032-0.096 0.064-0.128 0.096 0 0.032-0.032 0.032-0.032 0.064s-0.032 0.032-0.032 0.064-0.064 0.064-0.096 0.096c-0.032 0.064-0.096 0.128-0.128 0.224-0.032 0.032-0.064 0.096-0.096 0.128-0.096 0.16-0.192 0.32-0.256 0.448-0.032 0.064-0.064 0.128-0.096 0.192l-0.032 0.064-0.064 0.096c0 0.032-0.032 0.064-0.032 0.128 0 0-0.032 0.032-0.032 0.032-0.032 0.096-0.064 0.192-0.096 0.256-0.032 0.128-0.096 0.224-0.128 0.352-0.032 0.096-0.064 0.192-0.096 0.256v0.064c0 0-0.032 0.032-0.032 0.064s-0.032 0.064-0.032 0.096c0 0.032 0 0.064-0.032 0.096 0 0.064-0.032 0.16-0.064 0.256v0 0c-0.032 0.128-0.064 0.256-0.064 0.352-0.032 0.096-0.064 0.192-0.064 0.288-0.032 0.032-0.032 0.064-0.032 0.096 0 0.096-0.032 0.192-0.032 0.288v0.032h-0.032c0 0.192-0.032 0.384-0.064 0.576-0.032 0.288-0.032 0.544-0.032 0.832 0 0.064 0 0.16 0 0.256 0 0.032 0 0.096 0 0.16 0 0.032 0 0.064 0 0.128 0 0.128 0.032 0.288 0.032 0.416 0 0.032 0 0.064 0.032 0.096 0 0.16 0.032 0.352 0.096 0.544 0.064 0.384 0.192 0.736 0.352 1.12v0.032c0 0.032 0.032 0.064 0.032 0.064 0.032 0.096 0.064 0.16 0.096 0.256 0 0 0.032 0 0.032 0.032-0.352 0.32-0.704 0.672-1.056 1.024v0.032c-0.032 0.032-0.064 0.064-0.096 0.096-0.128 0.128-0.224 0.256-0.32 0.384 0 0-0.032 0.032-0.032 0.032-0.032 0.032-0.064 0.064-0.064 0.096-0.032 0.032-0.032 0.032-0.064 0.064s-0.064 0.096-0.096 0.128c-0.032 0.032-0.032 0.064-0.064 0.096l-0.032 0.032c0 0.032-0.032 0.032-0.032 0.064-0.16 0.192-0.256 0.384-0.384 0.608v0 0c-0.032 0.032-0.032 0.064-0.032 0.064-0.032 0.032-0.032 0.032-0.032 0.064 0 0 0 0-0.032 0.032v0.032c-0.032 0.032-0.032 0.096-0.064 0.16-0.032 0.032-0.032 0.064-0.032 0.096-0.064 0.128-0.096 0.256-0.128 0.384 0 0.096 0 0.16-0.032 0.224 0 0 0 0.032 0 0.032 0 0.032 0 0.064 0 0.096 0 0.096 0.032 0.224 0.064 0.32 0.032 0.064 0.064 0.128 0.096 0.192 0 0 0 0.032 0.032 0.032 0 0.032 0 0.032 0.032 0.064 0 0 0 0 0.032 0.032s0.064 0.064 0.096 0.128c0.032 0.032 0.064 0.064 0.096 0.064v0.032h0.032c0 0.032 0.032 0.032 0.064 0.064 0 0 0.032 0 0.032 0.032h0.032c0 0 0 0.032 0.032 0.032 0 0 0 0 0.032 0 0.032 0.032 0.064 0.064 0.128 0.064 0.128 0.096 0.288 0.128 0.48 0.16 0 0 0.032 0 0.032 0 0.064 0 0.096 0 0.16 0 0 0 0.032 0 0.064 0 0.064 0 0.128 0 0.192-0.032h0.032c0.032 0 0.032 0 0.064-0.032 0.032 0 0.032 0 0.064 0 0.064-0.032 0.128-0.064 0.192-0.096v0c0.032-0.032 0.032-0.032 0.064-0.032 0.032-0.032 0.064-0.064 0.096-0.096 0.032 0 0.064-0.032 0.064-0.032 0.064-0.064 0.096-0.096 0.16-0.128 0-0.032 0.032-0.064 0.064-0.064v-0.032h0.032c0.032-0.064 0.064-0.096 0.096-0.16 0 0 0.032 0 0.032-0.032 0.032-0.032 0.064-0.096 0.096-0.128 0.064-0.064 0.096-0.128 0.128-0.192s0.096-0.128 0.128-0.224c0.032-0.064 0.096-0.16 0.128-0.256 0.032-0.064 0.064-0.128 0.096-0.224 0.064-0.128 0.096-0.256 0.16-0.384v-0.032l0.032-0.032c0.032-0.16 0.096-0.288 0.128-0.448 0.032-0.096 0.064-0.224 0.096-0.32 0-0.032 0.032-0.032 0.032-0.064v0.032c0.032 0 0.032 0.032 0.032 0.032 0.032 0.032 0.032 0.064 0.064 0.096 0 0.032 0.032 0.064 0.064 0.064 0.032 0.064 0.064 0.096 0.096 0.16v0 0c0.224 0.288 0.448 0.544 0.672 0.832 0 0 0.128 0.128 0.128 0.128 0.384 0.416 0.8 0.768 1.248 1.12 0.032 0.032 0.064 0.032 0.096 0.064s0.064 0.064 0.096 0.064l0.032 0.032c0.032 0.032 0.064 0.064 0.128 0.096 0.096 0.064 0.224 0.128 0.352 0.192 0.032 0.032 0.064 0.032 0.096 0.064l0.032 0.032h0.032c0.064 0.032 0.096 0.064 0.16 0.064 0.032 0.032 0.064 0.032 0.064 0.032 0.032 0.032 0.064 0.032 0.064 0.032 0.064 0.032 0.128 0.064 0.192 0.096 0.064 0 0.128 0.032 0.16 0.032h0.032c0.032 0.032 0.064 0.032 0.096 0.032 0.032 0.032 0.096 0.032 0.128 0.032h0.032c0.064 0.032 0.128 0.032 0.192 0.032h0.032c0.064 0 0.096 0.032 0.16 0.032 0.032 0 0.064 0 0.064 0 0.032 0 0.032 0 0.032 0h0.032c0.032 0 0.064 0 0.064 0h0.032z"></path>
</symbol>
<symbol id="icon-burned" viewBox="0 0 32 32">
<title>burned</title>
<path class="path1" d="M11.936 0.512c1.856-0.48 3.776-0.576 5.664-0.416 2.88 0.256 5.696 1.344 8 3.104 2.368 1.728 4.192 4.16 5.28 6.88 0.64 1.504 0.928 3.104 1.12 4.704v2.016c-0.16 3.168-1.28 6.272-3.2 8.8-2.24 2.944-5.504 5.056-9.12 5.888-3.296 0.768-6.848 0.512-9.984-0.864-4.608-1.952-8.192-6.208-9.28-11.104-0.256-1.088-0.384-2.24-0.416-3.36v-0.416c0.064-3.168 1.024-6.272 2.848-8.864 2.144-3.104 5.44-5.408 9.088-6.368zM15.488 4.576c-0.448 0.704-0.96 1.376-1.12 2.176-0.096 0.832-0.032 1.664 0.096 2.464-0.416 0.16-0.832 0.384-1.216 0.608-0.288-0.448-0.64-0.864-1.12-1.024-0.736-0.224-1.536-0.192-2.208 0.16-1.376 0.704-2.528 1.792-3.488 3.008-0.352 0.512-0.8 0.992-0.736 1.632 0.192 0 0.384 0.032 0.544 0 1.856-0.416 3.52-1.376 5.28-2.080-1.024 1.408-1.6 3.136-1.696 4.896-0.192 1.28 0.128 2.56 0.608 3.712-0.864 0.8-1.728 1.664-2.272 2.752-0.224 0.448-0.384 0.992-0.192 1.504 0.192 0.48 0.736 0.704 1.216 0.8 0.448 0.032 0.896-0.192 1.184-0.512 0.608-0.704 0.96-1.6 1.184-2.496 0.768 0.992 1.6 1.984 2.656 2.656 0.672 0.448 1.504 0.768 2.336 0.704 1.184-0.16 2.144-0.96 2.912-1.792 0.48-0.448 0.8-1.024 1.216-1.472 0.32 0.928 0.64 1.984 1.472 2.624 0.64 0.576 1.664 0.256 2.080-0.448 0.256-0.576 0.064-1.28-0.256-1.792-0.576-0.928-1.312-1.696-2.080-2.432-0.16-0.128 0-0.288 0.032-0.448 0.288-0.768 0.48-1.568 0.544-2.4 0-2.016-0.512-4.064-1.664-5.728 1.536 0.736 3.104 1.504 4.768 1.92 0.224 0.064 0.416 0.064 0.64 0.032 0-0.256 0-0.512-0.16-0.736-0.448-0.8-1.088-1.536-1.728-2.176-0.8-0.768-1.664-1.472-2.688-1.888-1.024-0.352-2.336-0.096-2.88 0.896-0.352-0.192-0.736-0.352-1.088-0.512 0.16-0.768 0.16-1.568 0.096-2.368-0.096-0.576-0.448-1.12-0.768-1.632-0.224-0.352-0.448-0.768-0.8-1.056-0.32-0.16-0.544 0.256-0.704 0.448zM15.2 10.304c0.992-0.256 2.112-0.064 2.976 0.512 1.44 0.896 2.336 2.496 2.752 4.096 0.256 1.12 0.416 2.272 0.16 3.392-0.416 1.536-1.216 2.976-2.208 4.192-0.64 0.704-1.312 1.44-2.24 1.728-0.576 0.192-1.184-0.096-1.664-0.384-0.832-0.544-1.536-1.312-2.144-2.080-0.736-1.024-1.376-2.144-1.664-3.392-0.224-0.832-0.16-1.728-0.032-2.56 0.224-1.6 0.896-3.168 2.048-4.32 0.576-0.544 1.248-0.992 2.016-1.184zM15.68 11.84c0.608 0.768 0.896 1.888 0.448 2.816-0.416 0.864-1.44 1.152-2.080 1.824-0.64 0.832-0.704 2.048-0.192 2.944 0.352 0.608 0.992 1.024 1.632 1.248 0.736 0.288 1.536 0.128 2.24-0.16 0.64-0.256 0.928-0.992 0.96-1.632 0.032-0.864-0.256-1.728-0.576-2.496-0.128-0.224-0.16-0.512-0.384-0.64 0.064 0.704 0.224 1.536-0.256 2.144-0.192 0.288-0.608 0.288-0.8 0-0.352-0.384-0.576-1.056-0.192-1.504 0.448-0.48 1.056-0.864 1.248-1.536 0.128-0.576 0.128-1.28-0.288-1.76-0.48-0.576-1.056-1.088-1.76-1.248zM14.432 18.976c-0.32-0.512-0.192-1.152 0-1.696 0.032 0.768 0.256 1.568 0.8 2.144 0.256 0.256 0.576 0.416 0.864 0.608-0.64-0.128-1.344-0.448-1.664-1.056z"></path>
</symbol>
<symbol id="icon-apprentice" viewBox="0 0 32 32">
<title>apprentice</title>
<path class="path1" d="M13.696 0.192c2.528-0.384 5.12-0.16 7.52 0.672 3.040 1.056 5.76 3.072 7.68 5.664 1.6 2.208 2.656 4.832 2.944 7.552 0.416 3.328-0.256 6.816-1.952 9.728-1.696 3.040-4.384 5.472-7.584 6.816-3.232 1.408-6.944 1.664-10.368 0.768s-6.496-2.976-8.64-5.792c-1.856-2.4-2.976-5.376-3.2-8.416-0.256-3.52 0.64-7.104 2.592-10.016 2.464-3.744 6.56-6.368 11.008-6.976zM11.072 7.36c-1.248 1.312-2.048 2.976-2.528 4.704-0.512 2.016-0.544 4.128-0.16 6.176 0.448 2.080 1.408 4.128 2.944 5.632 1.056 1.056 2.432 1.856 3.936 2.016 1.664 0.256 3.392-0.32 4.704-1.312 1.92-1.472 3.136-3.712 3.68-6.016 0.672-3.104 0.32-6.496-1.216-9.312-0.704-1.152-1.6-2.272-2.72-3.040s-2.464-1.184-3.808-1.152c-1.856 0.032-3.584 0.96-4.832 2.304zM11.488 10.208c0.96-1.504 2.656-2.432 4.384-2.784-1.248 0.768-2.304 1.824-3.136 3.040-0.928 1.44-1.568 3.008-2.080 4.608l-0.128 0.096c-0.16-1.696 0-3.52 0.96-4.96z"></path>
</symbol>
<symbol id="icon-guru" viewBox="0 0 32 32">
<title>guru</title>
<path class="path1" d="M15.936 0h0.096c2.048 0.032 4.064 0.384 5.952 1.184 3.168 1.28 5.92 3.648 7.68 6.592 1.888 3.136 2.624 6.912 2.112 10.528-0.416 2.944-1.696 5.76-3.616 8.032-2.336 2.784-5.632 4.736-9.184 5.408-0.704 0.128-1.44 0.192-2.176 0.256h-1.696c-1.312-0.096-2.624-0.32-3.872-0.704-2.432-0.768-4.704-2.112-6.496-3.936-2.4-2.368-4.032-5.536-4.512-8.896-0.576-3.584 0.128-7.392 1.984-10.528 1.696-2.912 4.32-5.28 7.456-6.624 1.952-0.864 4.128-1.28 6.272-1.312zM15.328 25.952c0.736 0.096 1.504 0.064 2.24-0.128 0.16-0.032 0.288-0.096 0.448-0.128 0.064-0.032 0.128-0.032 0.192-0.064 0.096-0.032 0.192-0.064 0.256-0.128 0.032 0 0.032 0 0.064 0 0.288-0.128 0.544-0.288 0.832-0.448l0.032-0.032h0.032c0.064-0.064 0.128-0.096 0.192-0.16 0.128-0.064 0.256-0.16 0.384-0.256 0.064-0.032 0.096-0.096 0.16-0.128 0.608-0.48 1.12-1.056 1.6-1.696l0.032-0.032c0.224-0.32 0.448-0.672 0.64-1.024 0.032-0.064 0.096-0.16 0.128-0.256 0.032-0.032 0.064-0.096 0.064-0.128 0.096-0.16 0.16-0.352 0.256-0.544 0.128-0.288 0.224-0.576 0.352-0.864 0.256-0.736 0.448-1.504 0.544-2.272l0.032-0.064c0-0.064 0-0.128 0-0.192 0.032-0.064 0.032-0.128 0.032-0.192s0-0.096 0-0.128c0.032-0.064 0.032-0.096 0.032-0.128v0c0-0.032 0-0.064 0-0.096 0 0 0-0.032 0-0.064 0.032-0.064 0.032-0.16 0.064-0.256 0-0.032 0-0.032 0-0.032 0-0.032 0-0.064 0-0.064v-0.032c-0.032-0.032-0.032-0.064-0.032-0.096v0c0-0.032-0.032-0.032-0.032-0.064-0.032-0.032-0.064-0.096-0.096-0.128-0.032 0-0.032-0.032-0.064-0.032v-0.032l-0.032-0.032c-0.16-0.16-0.32-0.288-0.48-0.448-0.032-0.032-0.064-0.064-0.128-0.128 0 0-0.032-0.032-0.064-0.064 0 0-0.032-0.032-0.064-0.064l-0.192-0.128-0.128 0.128c-0.224 0.256-0.48 0.48-0.704 0.736-0.288 0.288-0.544 0.576-0.832 0.864-0.096 0.096-0.16 0.192-0.256 0.288 0 0 0 0-0.032 0v0.032c-0.032 0.032-0.032 0.064-0.064 0.096s-0.064 0.032-0.096 0.064v0 0c0 0.032-0.032 0.032-0.032 0.032-0.032 0.032-0.032 0.032-0.032 0.032h-0.032c-0.032-0.032-0.032-0.064-0.064-0.096-0.032 0-0.032-0.032-0.064-0.064-0.224-0.288-0.48-0.544-0.704-0.832-0.032-0.032-0.032-0.064-0.064-0.096 0 0-0.032-0.032-0.032-0.032l-0.032-0.032c-0.128-0.128-0.256-0.288-0.384-0.48-0.064-0.064-0.128-0.128-0.16-0.192-0.032-0.032-0.064-0.032-0.064-0.064l-0.064-0.064c-0.032-0.032-0.064-0.096-0.128-0.128v-0.032h-0.032c0 0-0.032-0.032-0.032-0.064h-0.032c0-0.032-0.032-0.032-0.032-0.064-0.032 0-0.064-0.032-0.096-0.064 0 0-0.032-0.032-0.032-0.032l-0.032-0.032-0.064 0.096c-0.128 0.096-0.256 0.224-0.384 0.352-0.032 0.064-0.096 0.096-0.16 0.16-0.16 0.128-0.288 0.288-0.448 0.416-0.16 0.16-0.32 0.32-0.448 0.448l-0.16 0.16c-0.192 0.16-0.384 0.32-0.544 0.512-0.096 0.096-0.192 0.16-0.288 0.256l-0.064 0.064c0.032-0.032 0.064-0.096 0.096-0.16 0.032-0.032 0.032-0.064 0.064-0.064 0.064-0.096 0.096-0.192 0.16-0.288 0.096-0.16 0.192-0.352 0.288-0.512s0.192-0.288 0.288-0.448c0.16-0.256 0.288-0.512 0.416-0.768l0.16-0.256 0.064-0.096c0.128-0.256 0.288-0.512 0.448-0.8 0.128-0.192 0.256-0.384 0.384-0.576 0.16 0.192 0.32 0.384 0.512 0.576 0.192 0.224 0.384 0.416 0.576 0.64l0.416 0.48c0.096 0.096 0.192 0.224 0.288 0.32v0c0.032 0.032 0.064 0.064 0.096 0.096 0.064 0.064 0.128 0.128 0.16 0.192 0.032 0.032 0.064 0.064 0.064 0.064l0.032 0.032c0 0 0.032 0.032 0.032 0.032s0 0 0.032 0.032v0 0c0.032 0.032 0.032 0.032 0.064 0.064 0.032 0 0.032 0 0.032 0.032 0.032 0 0.032 0 0.064 0.032 0 0 0 0 0.032 0l0.064-0.064 0.032-0.064c0.128-0.16 0.288-0.352 0.416-0.544 0.192-0.224 0.352-0.448 0.544-0.672 0.32-0.384 0.64-0.8 0.992-1.184 0-0.032 0.032-0.064 0.064-0.096 0.096 0.16 0.224 0.32 0.352 0.448l0.096 0.096c0.064 0.096 0.16 0.16 0.224 0.256 0 0 0 0.032 0 0.032s0.032 0 0.032 0.032c0 0 0.032 0.032 0.032 0.032 0.032 0.032 0.032 0.064 0.064 0.064 0.032 0.032 0.032 0.032 0.064 0.064 0 0 0 0.032 0.032 0.032v0 0c0 0 0.032 0.032 0.032 0.032 0.032 0 0.032 0.032 0.032 0.032 0.032 0 0.064 0 0.064 0 0.032 0.032 0.032 0.032 0.064 0.032v0c0 0 0.032 0 0.032 0 0-0.128-0.032-0.224-0.032-0.32 0-0.064 0-0.128-0.032-0.192v-0.096c0-0.032 0-0.064 0-0.096-0.032-0.352-0.096-0.672-0.16-1.024 0-0.032-0.032-0.096-0.032-0.128 0-0.064-0.032-0.128-0.032-0.192-0.064-0.32-0.16-0.608-0.256-0.928-0.064-0.32-0.16-0.608-0.288-0.896-0.064-0.192-0.128-0.384-0.224-0.576-0.064-0.128-0.128-0.288-0.192-0.416-0.032-0.064-0.064-0.096-0.096-0.16-0.128-0.288-0.288-0.544-0.448-0.832-0.064-0.064-0.096-0.16-0.16-0.224-0.064-0.096-0.096-0.16-0.16-0.256-0.192-0.256-0.384-0.512-0.608-0.768-0.032-0.032-0.064-0.096-0.128-0.128-0.224-0.256-0.48-0.512-0.768-0.736v-0.032l-0.032-0.032c-0.128-0.096-0.256-0.192-0.384-0.288l-0.064-0.032c-0.16-0.16-0.352-0.256-0.544-0.384-0.064-0.032-0.128-0.064-0.192-0.096-0.096-0.064-0.224-0.128-0.384-0.224 0 0-0.032 0-0.064-0.032h-0.032l-0.032-0.032c-0.032 0-0.096-0.032-0.16-0.064 0 0-0.032 0-0.064-0.032-0.032 0-0.064 0-0.096-0.032-0.224-0.064-0.448-0.128-0.672-0.192l-0.032-0.032h-0.096c-0.032-0.032-0.064-0.032-0.128-0.032v0l-0.032-0.032c-0.032 0-0.064 0-0.096 0h-0.032l-0.032-0.032c-0.064 0-0.128 0-0.224-0.032v0h-0.032c-0.128-0.032-0.224-0.032-0.352-0.032-0.064 0-0.128-0.032-0.192-0.032h-0.032c-0.064 0-0.16 0-0.224 0-0.032 0-0.064 0-0.096 0h-0.032c0 0-0.032 0-0.032 0v0c-0.128 0-0.256 0-0.384 0.032-0.032 0-0.064 0-0.096 0v0 0c-0.096 0-0.192 0.032-0.288 0.032-0.064 0-0.16 0.032-0.224 0.032-0.192 0.032-0.352 0.064-0.512 0.128-0.096 0.032-0.192 0.032-0.288 0.064 0 0-0.032 0.032-0.064 0.032-0.096 0.032-0.16 0.064-0.256 0.096-0.032 0-0.032 0-0.064 0-0.128 0.064-0.224 0.096-0.352 0.128l-0.032 0.032c-0.256 0.128-0.512 0.256-0.736 0.416-0.128 0.096-0.288 0.192-0.416 0.288s-0.256 0.16-0.352 0.288h-0.032l-0.032 0.032c-0.192 0.16-0.352 0.32-0.512 0.48-0.064 0.064-0.16 0.128-0.224 0.192s-0.096 0.128-0.16 0.192c-0.064 0.096-0.128 0.16-0.192 0.224-0.096 0.096-0.192 0.224-0.256 0.32v0c-0.096 0.128-0.192 0.224-0.288 0.352s-0.16 0.256-0.256 0.416c-0.064 0.064-0.096 0.16-0.16 0.224v0.032l-0.032 0.032c0 0 0 0.032-0.032 0.032l-0.032 0.032c-0.064 0.128-0.128 0.256-0.192 0.384s-0.096 0.224-0.16 0.352c-0.064 0.16-0.16 0.352-0.224 0.512-0.032 0.032-0.032 0.096-0.064 0.128 0 0.032 0 0.032-0.032 0.064-0.032 0.16-0.096 0.288-0.16 0.416v0.032c-0.064 0.224-0.16 0.48-0.224 0.704 0 0.064-0.032 0.096-0.032 0.128-0.096 0.32-0.16 0.608-0.224 0.896-0.032 0.224-0.064 0.448-0.096 0.704h-0.032v0.064c0 0.064 0 0.096 0 0.16-0.032 0.096-0.032 0.192-0.064 0.288 0 0.064 0 0.16 0 0.224-0.032 0.064-0.032 0.128-0.032 0.192 0 0.096 0 0.192-0.032 0.288 0 0.032 0 0.064 0 0.096 0 0.096 0 0.16 0 0.224 0 0.096 0 0.192 0 0.288 0 0.064 0 0.096 0 0.16 0 0.352 0 0.704 0.032 1.056 0 0.096 0 0.224 0.032 0.32 0 0.064 0 0.16 0.032 0.224v0.032c0 0.064 0 0.128 0 0.16v0.064l0.032 0.032c0.032 0.352 0.096 0.672 0.16 0.992v0.064l0.032 0.064c0.032 0.128 0.032 0.224 0.064 0.352 0.032 0.096 0.064 0.192 0.096 0.256 0 0.096 0.032 0.16 0.064 0.224 0 0.096 0.032 0.192 0.064 0.288v0.032l0.032 0.032c0.032 0.128 0.096 0.288 0.128 0.416l0.032 0.032v0.032c0.032 0.064 0.064 0.128 0.064 0.192l0.032 0.064c0.064 0.192 0.16 0.384 0.224 0.544 0.032 0.064 0.064 0.128 0.096 0.192 0.064 0.128 0.128 0.256 0.192 0.384 0.032 0.032 0.032 0.064 0.064 0.096v0.032c0.096 0.192 0.224 0.352 0.32 0.544 0.064 0.064 0.096 0.16 0.16 0.224 0.064 0.096 0.128 0.192 0.192 0.288 0.032 0.064 0.064 0.128 0.128 0.16v0.032c0.032 0.032 0.064 0.064 0.096 0.128 0.032 0 0.032 0.032 0.064 0.064v0.032h0.032c0.032 0.064 0.096 0.128 0.128 0.192 0.064 0.064 0.128 0.16 0.192 0.224 0.032 0 0.032 0.032 0.032 0.032l0.032 0.032c0.032 0.032 0.064 0.064 0.096 0.096 0.032 0.064 0.096 0.096 0.128 0.128s0.064 0.064 0.096 0.096c0.064 0.096 0.16 0.16 0.256 0.256 0.064 0.032 0.096 0.096 0.16 0.128 0.032 0.032 0.064 0.064 0.096 0.064v0.032l0.032 0.032c0.032 0.032 0.064 0.032 0.096 0.064 0.064 0.032 0.096 0.064 0.128 0.096s0.064 0.064 0.096 0.096c0.096 0.032 0.192 0.096 0.288 0.16 0 0.032 0.032 0.032 0.064 0.064 0.064 0.032 0.096 0.064 0.128 0.096 0.064 0.032 0.128 0.064 0.16 0.096 0.064 0 0.096 0.032 0.128 0.064 0.096 0.064 0.192 0.096 0.288 0.16l0.032 0.032c0.032 0 0.064 0.032 0.096 0.032 0 0 0.032 0.032 0.032 0.032h0.032c0.032 0 0.032 0.032 0.032 0.032h0.064c0.032 0.032 0.064 0.032 0.096 0.064h0.032c0.128 0.064 0.256 0.096 0.384 0.128l0.032 0.032h0.032c0 0 0.032 0 0.032 0.032 0.064 0 0.128 0.032 0.192 0.032l0.064 0.032c0 0 0 0 0.032 0h0.032c0.096 0.032 0.192 0.064 0.288 0.064 0.16 0.032 0.32 0.064 0.48 0.096 0.064 0 0.096 0 0.16 0z"></path>
</symbol>
<symbol id="icon-master" viewBox="0 0 32 32">
<title>master</title>
<path class="path1" d="M14.304 0.096c2.016-0.192 4.096-0.032 6.048 0.512 3.712 1.024 6.976 3.456 9.056 6.656 1.664 2.56 2.56 5.6 2.56 8.64 0.032 2.976-0.8 5.952-2.368 8.448-1.6 2.592-3.936 4.672-6.656 5.984-2.88 1.408-6.208 1.888-9.376 1.376-3.488-0.512-6.784-2.272-9.184-4.832-2.24-2.368-3.712-5.44-4.16-8.672-0.512-3.584 0.224-7.328 2.112-10.432 2.496-4.256 7.072-7.2 11.968-7.68zM16.224 28.064c0.224 0 0.416 0 0.608-0.032 1.568-0.128 2.976-0.928 4.096-1.984 1.024-0.992 1.792-2.208 2.336-3.52 0.8-1.984 1.024-4.16 0.864-6.272-0.032-0.096-0.064-0.16-0.096-0.256-0.64 0.896-1.376 1.696-2.112 2.528l-0.064 0.224c-0.96-0.96-1.888-1.92-2.848-2.816-0.864 0.928-1.76 1.856-2.624 2.784-0.928-0.896-1.984-1.728-2.944-2.624-0.096-0.096-0.288-0.128-0.352-0.032-0.768 0.928-1.568 1.76-2.304 2.688-0.64-0.608-1.376-1.088-2.048-1.664-0.128-0.064-0.288-0.288-0.384-0.128-0.096 2.016 0.224 4.032 1.024 5.888 0.864 1.984 2.368 3.808 4.384 4.704 0.192 0.064 0.352 0.128 0.512 0.192 0.64 0.192 1.28 0.32 1.92 0.32h0.032zM10.784 17.664c0 0.032 0 0.032 0 0.032l0.032-0.032c0.192-0.192 0.352-0.352 0.48-0.544 0.032 0 0.032-0.032 0.032-0.032 0.032-0.032 0.032-0.064 0.064-0.096v0h-0.096c-0.064 0-0.192 0-0.256 0 0-0.224 0.032-0.48 0.064-0.704v-0.064c0-0.032 0-0.032 0.032-0.064 0-0.064 0-0.128 0-0.192 0.032-0.064 0.032-0.16 0.064-0.256 0-0.032 0-0.096 0.032-0.128 0-0.064 0-0.096 0.032-0.16 0.032-0.16 0.064-0.32 0.096-0.48 0.128-0.416 0.256-0.8 0.416-1.184 0.064-0.224 0.16-0.384 0.256-0.576v-0.032l0.064-0.064c0.032-0.128 0.096-0.224 0.16-0.352v0l0.032-0.032c0.064-0.096 0.096-0.16 0.16-0.256 0 0 0-0.032 0.032-0.064s0.064-0.096 0.096-0.128c0-0.032 0.032-0.064 0.032-0.064 0.032-0.032 0.032-0.064 0.064-0.064v0c0-0.032 0.032-0.064 0.064-0.096s0.032-0.096 0.064-0.128c0.064 0.128 0.128 0.256 0.16 0.384 0.032 0.064 0.064 0.128 0.096 0.192 0.064 0.128 0.128 0.288 0.192 0.416 0.064 0.096 0.096 0.16 0.128 0.256 0.032 0.064 0.064 0.128 0.096 0.16v0.032c0.032 0.064 0.064 0.16 0.096 0.224l0.032 0.032c0.032 0.096 0.064 0.16 0.128 0.256 0.032 0.064 0.032 0.096 0.064 0.16 0.064 0.128 0.128 0.256 0.16 0.384 0 0.032 0 0.032 0 0.032 0 0.064 0 0.096 0 0.16-0.032 0-0.032 0.032-0.032 0.032s0 0.032 0 0.032v0 0.032c-0.032 0.032-0.064 0.096-0.064 0.16-0.032 0.096-0.096 0.192-0.128 0.256 0 0.064-0.032 0.128-0.064 0.192v0c0.064 0.032 0.096 0.064 0.128 0.096 0.064 0.064 0.128 0.128 0.192 0.192 0.032 0.032 0.064 0.032 0.064 0.064 0.032 0 0.032 0.032 0.032 0.032 0.032 0 0.064 0.032 0.064 0.032l0.032 0.032c0 0 0 0 0 0h0.032c0 0 0 0.032 0.032 0.032 0 0 0 0 0 0 0.032 0 0.064 0.032 0.064 0.032 0.032 0 0.032 0 0.032 0.032 0.032 0 0.032 0 0.032 0 0.032 0 0.032 0 0.032 0s0.032 0 0.032-0.032c0 0 0-0.032 0-0.032 0-0.032 0-0.064 0.032-0.096 0-0.032 0-0.064 0-0.064 0.032-0.064 0.032-0.096 0.032-0.128 0.032-0.064 0.064-0.16 0.096-0.224 0.064-0.16 0.128-0.352 0.192-0.512h0.096c0.032 0 0.064 0 0.096 0 0.32 0 0.672 0 0.992 0 0.256 0 0.512 0 0.768 0h0.288c0.32 0 0.608 0 0.896 0 0 0.032 0 0.064 0.032 0.064 0 0.032 0.032 0.064 0.032 0.096 0.064 0.192 0.16 0.352 0.224 0.512 0.032 0.032 0.032 0.096 0.032 0.128 0.032 0 0.096 0 0.128-0.032 0.032 0 0.064 0 0.096 0 0.032-0.032 0.064-0.096 0.128-0.16v0-0.032c0.032-0.032 0.064-0.064 0.096-0.064 0-0.032 0-0.032 0.032-0.032 0.064-0.064 0.096-0.128 0.192-0.16v0-0.032c0 0 0.032 0 0.032 0s0 0 0-0.032v0 0c-0.032-0.096-0.096-0.192-0.128-0.288-0.032-0.032-0.032-0.064-0.032-0.096-0.032-0.032-0.032-0.032-0.032-0.032 0-0.032-0.032-0.096-0.032-0.128 0 0 0-0.032 0-0.064-0.032 0-0.032-0.032 0-0.032 0-0.064 0-0.096 0-0.128h0.032c0-0.032 0-0.032 0-0.032 0-0.032 0-0.032 0.032-0.032 0.096-0.192 0.16-0.352 0.256-0.512 0.064-0.128 0.096-0.224 0.16-0.32 0.064-0.16 0.16-0.288 0.224-0.448 0.128-0.288 0.256-0.544 0.416-0.832 0.032 0.064 0.064 0.128 0.096 0.224 0.064 0.064 0.128 0.16 0.16 0.256 0.064 0.064 0.096 0.128 0.128 0.16v0.032c0.064 0.064 0.096 0.128 0.128 0.192 0.032 0.032 0.032 0.064 0.064 0.096 0 0.032 0.032 0.064 0.064 0.128v0c0.032 0.032 0.032 0.064 0.064 0.096 0 0 0 0.032 0 0.032 0.032 0.032 0.032 0.064 0.032 0.064 0 0.032 0.032 0.032 0.032 0.064 0.032 0.096 0.096 0.192 0.128 0.288 0.032 0.064 0.032 0.128 0.064 0.16 0.064 0.16 0.128 0.32 0.16 0.448 0.032 0.032 0.032 0.096 0.032 0.128 0.032 0.032 0.032 0.064 0.064 0.128 0.032 0.128 0.064 0.256 0.096 0.384 0.128 0.512 0.224 1.024 0.288 1.536 0 0.128 0.032 0.224 0.032 0.32 0 0.064 0 0.128 0 0.192-0.064 0-0.224 0-0.32 0 0.032 0.032 0.032 0.064 0.064 0.064v0 0.032c0.032 0 0.032 0.032 0.064 0.032 0 0.032 0.032 0.064 0.064 0.096l0.032 0.032c0.128 0.128 0.256 0.256 0.384 0.416 0 0 0 0 0 0.032 0.032-0.032 0.064-0.064 0.096-0.064 0.032-0.064 0.096-0.096 0.128-0.16h0.032c0-0.032 0.032-0.032 0.032-0.064 0.032 0 0.032-0.032 0.032-0.032 0.032 0 0.032-0.032 0.032-0.032 0.096-0.128 0.192-0.256 0.288-0.352 0.032-0.032 0.064-0.096 0.096-0.128l0.064-0.064c0.032-0.032 0.064-0.064 0.096-0.096 0-0.032 0.032-0.032 0.032-0.032s0-0.032 0-0.032 0-0.032 0-0.064c0-0.096 0-0.224 0-0.32 0-0.032 0-0.064 0-0.096-0.032-0.16-0.032-0.32-0.064-0.48 0-0.096-0.032-0.16-0.032-0.256 0-0.032 0-0.064-0.032-0.096 0-0.032 0-0.064 0-0.096 0-0.064-0.032-0.128-0.032-0.192-0.064-0.32-0.16-0.64-0.256-0.96-0.032-0.064-0.032-0.128-0.064-0.192 0-0.064-0.032-0.096-0.032-0.16-0.064-0.16-0.128-0.32-0.192-0.448-0.032-0.096-0.096-0.192-0.128-0.288-0.096-0.224-0.192-0.416-0.288-0.64-0.032-0.032-0.064-0.064-0.064-0.096-0.032-0.064-0.064-0.096-0.096-0.128-0.032-0.064-0.064-0.16-0.128-0.224-0.064-0.096-0.096-0.192-0.192-0.288 0-0.032-0.032-0.064-0.064-0.096 0.032 0.032 0.064 0.032 0.064 0.032l0.032 0.032c0.096 0.064 0.224 0.128 0.352 0.16l0.032 0.032h0.032c0.16 0.064 0.32 0.128 0.448 0.224 0.032 0 0.064 0 0.096 0.032 0 0 0.576 0.288 0.64 0.32 0.384 0.128 0.768 0.32 1.184 0.48 0.16 0.064 0.352 0.16 0.544 0.224 0.128 0.064 0.256 0.096 0.416 0.16 0.064 0 0.128 0.032 0.224 0.064v0h0.032c0.032 0 0.032 0.032 0.064 0.032 0.064 0 0.128 0.032 0.16 0.032l0.064 0.032c0.16 0.032 0.32 0.096 0.448 0.128 0.096 0.032 0.192 0.032 0.288 0.064 0.064 0 0.128 0 0.192 0l0.032 0.032c0.032 0 0.064 0 0.096 0h0.032c0.032 0 0.064-0.032 0.096-0.032 0.032-0.032 0.032-0.064 0.032-0.096 0-0.064-0.032-0.16-0.032-0.224 0 0 0-0.032 0-0.032s0-0.032 0-0.032c-0.032-0.096-0.064-0.192-0.096-0.256-0.032-0.096-0.064-0.16-0.128-0.256 0-0.032-0.032-0.096-0.064-0.128-0.032-0.064-0.064-0.096-0.096-0.16-0.032-0.032-0.064-0.064-0.064-0.096-0.128-0.16-0.256-0.32-0.352-0.448-0.032-0.032-0.032-0.064-0.064-0.096l-0.032-0.032v-0.032c-0.032-0.032-0.032-0.064-0.064-0.096v0c-0.096-0.096-0.16-0.192-0.256-0.288-0.032-0.032-0.064-0.064-0.096-0.096-0.256-0.256-0.48-0.512-0.736-0.736v0l-0.032-0.032c-0.128-0.128-0.224-0.256-0.352-0.352-0.064-0.064-0.128-0.096-0.16-0.128l-0.032-0.032c-0.032-0.032-0.032-0.032-0.064-0.064l-0.064-0.032c-0.096-0.096-0.224-0.192-0.32-0.256-0.064-0.064-0.096-0.096-0.128-0.128-0.064-0.032-0.128-0.064-0.192-0.096 0-0.032-0.032-0.032-0.032-0.064-0.064-0.032-0.096-0.064-0.16-0.096-0.032 0-0.064-0.032-0.096-0.032v-0.032h-0.032c-0.064-0.032-0.096-0.064-0.16-0.096-0.128-0.096-0.288-0.16-0.448-0.256-0.064-0.032-0.096-0.032-0.128-0.064-0.064-0.032-0.128-0.064-0.192-0.064 0-0.032-0.032-0.032-0.032-0.032-0.064-0.032-0.096-0.032-0.128-0.032l-0.032-0.032c-0.032 0-0.096 0-0.128 0v-0.032c-0.256-0.032-0.48-0.064-0.736-0.064 0 0-0.032 0.032-0.032 0.032h-0.032c-0.064 0-0.16 0-0.224 0h-0.032c-0.096 0.032-0.16 0.032-0.256 0.064-0.064 0-0.128 0.032-0.16 0.032s-0.032 0-0.064 0.032c-0.032 0-0.096 0-0.128 0.032-0.032 0-0.032 0-0.032 0-0.096 0.064-0.16 0.096-0.256 0.16-0.128 0.064-0.256 0.16-0.352 0.256v0l-0.064 0.064c0 0-0.032 0.032-0.064 0.064-0.096 0.096-0.16 0.224-0.192 0.352l-0.032 0.032c-0.064-0.032-0.096-0.064-0.16-0.096-0.192-0.128-0.384-0.192-0.544-0.288h-0.064c-0.032-0.032-0.064-0.032-0.096-0.064h-0.032l-0.032-0.032c-0.064 0-0.128-0.032-0.192-0.064 0.032-0.128 0.032-0.224 0.064-0.352 0-0.064 0-0.128 0.032-0.192 0-0.032 0-0.096 0-0.128 0-0.064 0-0.096 0.032-0.16v-0.032c0 0 0-0.032 0-0.032 0-0.096 0-0.224 0-0.32 0.032-0.192 0.032-0.384 0.032-0.576-0.032-0.032-0.032-0.064-0.032-0.064 0-0.032 0-0.064 0-0.096 0-0.064 0-0.16 0-0.256 0 0 0 0 0 0 0-0.096 0-0.16-0.032-0.224 0-0.032 0-0.064 0-0.096-0.032-0.032-0.032-0.032-0.032-0.064-0.032-0.16-0.096-0.288-0.16-0.448 0 0 0 0 0-0.032-0.128-0.288-0.32-0.576-0.448-0.864 0 0-0.032-0.032-0.032-0.064-0.128-0.128-0.224-0.32-0.32-0.48-0.064-0.064-0.096-0.096-0.128-0.16-0.032-0.032-0.032-0.064-0.064-0.096s-0.064-0.096-0.128-0.128v0c-0.096-0.16-0.224-0.352-0.416-0.384 0 0-0.032 0-0.032 0-0.032 0-0.064 0-0.096 0v0.032c-0.032 0-0.032 0-0.064 0.032 0 0-0.032 0-0.032 0 0 0.032 0 0.032-0.032 0.032-0.032 0.032-0.032 0.032-0.064 0.064s-0.064 0.064-0.096 0.096c0 0-0.032 0.032-0.032 0.032 0 0.032-0.032 0.032-0.032 0.032 0 0.032-0.032 0.032-0.032 0.064v0c-0.224 0.288-0.416 0.576-0.576 0.864-0.032 0.064-0.096 0.128-0.128 0.192-0.032 0.096-0.096 0.192-0.16 0.288-0.032 0.128-0.096 0.224-0.16 0.352 0 0.032-0.032 0.064-0.064 0.096 0 0.032 0 0.064-0.032 0.096v0.032c-0.032 0.096-0.064 0.192-0.096 0.288-0.032 0.064-0.032 0.16-0.032 0.224s-0.032 0.16-0.032 0.224c0 0.032 0 0.064 0 0.128 0 0 0 0.032 0 0.064-0.032 0.32 0 0.64 0 0.96 0.032 0.064 0.032 0.096 0.032 0.16 0 0.032 0 0.064 0 0.064 0 0.032 0 0.064 0 0.096s0.032 0.064 0.032 0.096c0 0.032 0 0.096 0 0.16 0.032 0.16 0.064 0.352 0.096 0.512-0.096 0.032-0.192 0.064-0.288 0.128-0.096 0.032-0.224 0.096-0.352 0.128-0.032 0.032-0.096 0.064-0.16 0.096v0 0c-0.032 0.032-0.096 0.032-0.128 0.064v0c-0.032 0.032-0.032 0.032-0.064 0.032 0 0.032-0.032 0.032-0.032 0.032-0.032 0-0.032 0.032-0.032 0.032h-0.032c-0.032 0.032-0.032 0.032-0.064 0.064 0 0-0.032 0-0.032 0.032h-0.032c-0.032 0.032-0.032 0.032-0.064 0.064v0c-0.032-0.064-0.064-0.128-0.096-0.224 0 0 0 0-0.032-0.032 0-0.032-0.032-0.096-0.064-0.128 0-0.032-0.032-0.032-0.032-0.064-0.032-0.032-0.032-0.032-0.064-0.064 0-0.032-0.032-0.032-0.032-0.064-0.064-0.032-0.096-0.096-0.16-0.128v0-0.032c-0.032 0-0.064-0.032-0.096-0.064v0l-0.032-0.032c0 0-0.032 0-0.032-0.032h-0.032c-0.032-0.032-0.032-0.032-0.064-0.032-0.064-0.064-0.16-0.096-0.224-0.128-0.032-0.032-0.064-0.032-0.096-0.032-0.096-0.064-0.224-0.096-0.352-0.128 0 0-0.032 0-0.064 0v-0.032c-0.064 0-0.128 0-0.192-0.032-0.032 0-0.032 0-0.032 0-0.032 0-0.064 0-0.096 0-0.064 0-0.128-0.032-0.224-0.032 0 0 0 0-0.032 0 0 0-0.032 0-0.032 0-0.032 0-0.032 0-0.064 0h-0.064c-0.128 0-0.288 0.032-0.416 0.032h-0.032c-0.032 0.032-0.032 0.032-0.064 0.032h-0.032c-0.128 0.064-0.288 0.096-0.416 0.16 0 0.032-0.032 0.032-0.064 0.032-0.16 0.064-0.32 0.16-0.448 0.224-0.096 0.064-0.16 0.096-0.256 0.128 0 0.032 0 0.032-0.032 0.032-0.032 0.032-0.064 0.032-0.096 0.064s-0.064 0.032-0.096 0.064c-0.032 0.032-0.064 0.032-0.096 0.064-0.064 0.064-0.16 0.096-0.224 0.16l-0.032 0.032c-0.096 0.064-0.16 0.128-0.256 0.192l-0.032 0.032h-0.032c-0.064 0.064-0.128 0.128-0.192 0.192-0.064 0.032-0.096 0.096-0.16 0.128-0.32 0.288-0.608 0.576-0.928 0.896v0c-0.096 0.128-0.224 0.224-0.32 0.32l-0.032 0.032v0.032c-0.16 0.16-0.288 0.32-0.416 0.512-0.064 0.064-0.096 0.096-0.128 0.16-0.032 0.032-0.032 0.064-0.064 0.064v0.032h-0.032c0 0.032 0 0.064-0.032 0.064 0 0.032-0.032 0.064-0.032 0.064-0.032 0.032-0.064 0.064-0.096 0.128 0 0-0.032 0.032-0.032 0.064-0.032 0.064-0.096 0.128-0.128 0.192l-0.032 0.032v0.032l-0.032 0.032c0 0-0.032 0.032-0.032 0.064v0 0.032c-0.064 0.064-0.096 0.128-0.128 0.224 0 0.032 0 0.064-0.032 0.096 0 0.032 0 0.064 0 0.096s0 0.032 0 0.064c-0.032 0.064 0 0.16 0 0.224v0l0.032 0.032c0 0 0 0 0 0 0 0.032 0 0.032 0 0.064h0.032c0 0.032 0 0.032 0 0.032 0.032 0 0.096 0 0.128 0h0.032c0.224-0.064 0.448-0.096 0.672-0.16 0.032 0 0.064 0 0.064 0 0.128-0.032 0.224-0.064 0.352-0.096 0.064-0.032 0.128-0.064 0.192-0.064 0.16-0.064 0.288-0.096 0.448-0.16 0.384-0.128 0.736-0.288 1.12-0.448l0.064-0.032c0.128-0.064 0.256-0.096 0.352-0.16 0.256-0.128 0.512-0.224 0.768-0.352 0.064-0.032 0.096-0.032 0.16-0.064 0.256-0.128 0.512-0.224 0.768-0.352 0.128-0.064 0.288-0.128 0.448-0.192 0.128-0.064 0.288-0.128 0.448-0.224l-0.032 0.032c-0.032 0.032-0.032 0.032-0.064 0.064-0.064 0.064-0.096 0.128-0.16 0.192-0.064 0.096-0.128 0.192-0.192 0.288h-0.032c-0.032 0.064-0.064 0.128-0.096 0.192s-0.096 0.128-0.128 0.192c-0.032 0.096-0.096 0.224-0.16 0.32-0.032 0.096-0.096 0.192-0.16 0.288 0 0.064-0.032 0.096-0.032 0.128-0.032 0.032-0.032 0.064-0.064 0.096-0.096 0.288-0.192 0.544-0.288 0.832-0.064 0.224-0.128 0.448-0.192 0.672-0.064 0.16-0.096 0.352-0.128 0.512v0.032l-0.032 0.064v0.032c0 0.128-0.032 0.224-0.064 0.352-0.032 0.32-0.064 0.64-0.096 0.96v0.064c0 0.096 0 0.16 0 0.256 0.032 0.032 0.064 0.064 0.096 0.096s0.064 0.032 0.064 0.064c0.064 0.064 0.128 0.096 0.192 0.16 0.128 0.064 0.224 0.16 0.352 0.256v0l0.032 0.032h0.032c0 0.032 0.032 0.032 0.032 0.032 0.032 0.032 0.064 0.064 0.096 0.096 0 0 0.032 0.032 0.032 0.032s0.032 0.032 0.032 0.032h0.032zM13.44 11.168c0.832-0.64 1.824-1.152 2.88-1.12 1.088 0 2.048 0.544 2.848 1.248-0.16 0.352-0.32 0.704-0.512 1.056-0.224 0.512-0.544 0.992-0.736 1.536-1.056 0.032-2.080 0-3.136 0.032-0.448-0.928-0.896-1.824-1.344-2.752z"></path>
</symbol>
<symbol id="icon-help" viewBox="0 0 27 32">
<title>help</title>
<path class="path1" d="M16 24.576v-3.424q0-0.256-0.16-0.416t-0.416-0.16h-3.424q-0.256 0-0.416 0.16t-0.16 0.416v3.424q0 0.256 0.16 0.416t0.416 0.16h3.424q0.256 0 0.416-0.16t0.16-0.416zM20.576 12.576q0-1.568-0.992-2.912t-2.464-2.080-3.040-0.736q-4.352 0-6.624 3.808-0.288 0.448 0.128 0.768l2.368 1.76q0.128 0.128 0.32 0.128 0.288 0 0.448-0.224 0.96-1.216 1.536-1.632 0.608-0.448 1.536-0.448 0.864 0 1.536 0.48t0.672 1.056q0 0.672-0.352 1.088t-1.216 0.8q-1.12 0.512-2.080 1.536t-0.928 2.24v0.64q0 0.256 0.16 0.416t0.416 0.16h3.424q0.256 0 0.416-0.16t0.16-0.416q0-0.32 0.384-0.864t0.96-0.896q0.576-0.32 0.896-0.512t0.8-0.608 0.8-0.864 0.512-1.088 0.224-1.44zM27.424 16q0 3.744-1.824 6.88t-4.992 4.992-6.88 1.856-6.912-1.856-4.96-4.992-1.856-6.88 1.856-6.88 4.96-4.992 6.912-1.856 6.88 1.856 4.992 4.992 1.824 6.88z"></path>
</symbol>
<symbol id="icon-home" viewBox="0 0 30 32">
<title>home</title>
<path class="path1" d="M25.152 17.728v8.544q0 0.48-0.352 0.832t-0.8 0.32h-6.848v-6.848h-4.576v6.848h-6.848q-0.48 0-0.8-0.32t-0.352-0.832v-8.544q0-0.032 0-0.064t0-0.064l10.272-8.448 10.272 8.448q0.032 0.032 0.032 0.128zM29.12 16.48l-1.088 1.312q-0.16 0.16-0.384 0.192h-0.064q-0.224 0-0.384-0.096l-12.352-10.304-12.352 10.304q-0.224 0.128-0.416 0.096-0.224-0.032-0.384-0.192l-1.12-1.312q-0.128-0.192-0.096-0.416t0.192-0.384l12.832-10.688q0.576-0.48 1.344-0.48t1.376 0.48l4.352 3.648v-3.488q0-0.256 0.16-0.416t0.416-0.16h3.424q0.256 0 0.416 0.16t0.16 0.416v7.264l3.904 3.264q0.16 0.128 0.192 0.384t-0.128 0.416z"></path>
</symbol>
<symbol id="icon-downarrow" viewBox="0 0 32 32">
<title>downarrow</title>
<path class="path1" d="M30.048 14.432l-13.248 13.216q-0.32 0.352-0.8 0.352t-0.8-0.352l-13.248-13.216q-0.352-0.352-0.352-0.832t0.352-0.8l2.944-2.944q0.352-0.352 0.832-0.352t0.8 0.352l9.472 9.472 9.472-9.472q0.352-0.352 0.8-0.352t0.832 0.352l2.944 2.944q0.352 0.352 0.352 0.8t-0.352 0.832z"></path>
</symbol>
<symbol id="icon-leftarrow" viewBox="0 0 23 32">
<title>leftarrow</title>
<path class="path1" d="M20.896 5.376l-9.472 9.472 9.472 9.504q0.352 0.32 0.352 0.8t-0.352 0.8l-2.944 2.976q-0.352 0.32-0.8 0.32t-0.8-0.32l-13.248-13.28q-0.352-0.32-0.352-0.8t0.352-0.8l13.248-13.248q0.32-0.32 0.8-0.32t0.8 0.32l2.944 2.976q0.352 0.32 0.352 0.8t-0.352 0.8z"></path>
</symbol>
<symbol id="icon-rightarrow" viewBox="0 0 23 32">
<title>rightarrow</title>
<path class="path1" d="M19.776 15.648l-13.248 13.28q-0.352 0.32-0.8 0.32t-0.832-0.32l-2.944-2.976q-0.352-0.352-0.352-0.8t0.352-0.8l9.472-9.504-9.472-9.472q-0.352-0.352-0.352-0.8t0.352-0.8l2.944-2.976q0.352-0.32 0.832-0.32t0.8 0.32l13.248 13.248q0.32 0.352 0.32 0.8t-0.32 0.8z"></path>
</symbol>
<symbol id="icon-uparrow" viewBox="0 0 32 32">
<title>uparrow</title>
<path class="path1" d="M30.048 23.776l-2.944 2.944q-0.352 0.32-0.832 0.32t-0.8-0.32l-9.472-9.504-9.472 9.504q-0.352 0.32-0.8 0.32t-0.832-0.32l-2.944-2.944q-0.352-0.352-0.352-0.832t0.352-0.8l13.248-13.248q0.352-0.32 0.8-0.32t0.8 0.32l13.248 13.248q0.352 0.352 0.352 0.8t-0.352 0.832z"></path>
</symbol>
<symbol id="icon-refresh" viewBox="0 0 27 32">
<title>refresh</title>
<path class="path1" d="M26.976 18.848q0 0.096 0 0.128-1.152 4.8-4.8 7.776t-8.544 2.976q-2.592 0-5.024-0.992t-4.352-2.816l-2.304 2.304q-0.352 0.352-0.8 0.352t-0.8-0.352-0.352-0.8v-8q0-0.448 0.352-0.8t0.8-0.352h8q0.448 0 0.8 0.352t0.32 0.8-0.32 0.8l-2.464 2.464q1.28 1.184 2.88 1.824t3.36 0.64q2.368 0 4.448-1.184t3.328-3.168q0.192-0.32 0.928-2.112 0.16-0.416 0.544-0.416h3.424q0.256 0 0.416 0.192t0.16 0.384zM27.424 4.576v8q0 0.448-0.32 0.8t-0.832 0.352h-8q-0.448 0-0.8-0.352t-0.32-0.8 0.32-0.8l2.464-2.464q-2.624-2.464-6.208-2.464-2.4 0-4.48 1.184t-3.328 3.168q-0.192 0.32-0.928 2.112-0.16 0.416-0.544 0.416h-3.552q-0.224 0-0.416-0.192t-0.16-0.384v-0.128q1.152-4.8 4.832-7.776t8.576-2.976q2.592 0 5.056 0.992t4.384 2.816l2.304-2.304q0.352-0.352 0.8-0.352t0.832 0.352 0.32 0.8z"></path>
</symbol>
<symbol id="icon-attention" viewBox="0 0 27 32">
<title>attention</title>
<path class="path1" d="M13.728 2.272q3.712 0 6.88 1.856t4.992 4.992 1.824 6.88-1.824 6.88-4.992 4.992-6.88 1.856-6.912-1.856-4.96-4.992-1.856-6.88 1.856-6.88 4.96-4.992 6.912-1.856zM16 24.544v-3.392q0-0.256-0.16-0.416t-0.384-0.16h-3.424q-0.256 0-0.416 0.16t-0.192 0.416v3.392q0 0.256 0.192 0.416t0.416 0.192h3.424q0.224 0 0.384-0.192t0.16-0.416zM15.968 18.4l0.32-11.072q0-0.224-0.192-0.32-0.16-0.16-0.416-0.16h-3.936q-0.256 0-0.416 0.16-0.192 0.096-0.192 0.32l0.32 11.072q0 0.192 0.16 0.32t0.448 0.128h3.296q0.256 0 0.416-0.128t0.192-0.32z"></path>
</symbol>
<symbol id="icon-thumbsup" viewBox="0 0 30 32">
<title>thumbsup</title>
<path class="path1" d="M4.576 24q0-0.48-0.352-0.8t-0.8-0.352q-0.48 0-0.8 0.352t-0.352 0.8q0 0.48 0.352 0.8t0.8 0.352q0.48 0 0.8-0.352t0.352-0.8zM7.424 14.848v11.424q0 0.48-0.32 0.8t-0.832 0.352h-5.12q-0.48 0-0.8-0.352t-0.352-0.8v-11.424q0-0.448 0.352-0.8t0.8-0.32h5.12q0.48 0 0.832 0.32t0.32 0.8zM28.576 14.848q0 1.536-0.992 2.656 0.288 0.8 0.288 1.376 0.032 1.344-0.768 2.432 0.288 1.024 0 2.112-0.288 0.992-0.992 1.664 0.16 2.016-0.864 3.232-1.152 1.376-3.52 1.408h-2.304q-1.184 0-2.56-0.288t-2.176-0.512-2.144-0.704q-2.208-0.768-2.816-0.8-0.48 0-0.832-0.352t-0.32-0.8v-11.424q0-0.448 0.32-0.8t0.768-0.352q0.416-0.032 1.344-1.056t1.824-2.144q1.216-1.568 1.792-2.144 0.32-0.32 0.544-0.864t0.32-0.864 0.256-1.088q0.128-0.704 0.224-1.088t0.352-0.928 0.576-0.896q0.352-0.352 0.832-0.352 0.8 0 1.472 0.192t1.056 0.48 0.704 0.704 0.448 0.832 0.224 0.864 0.064 0.832 0.032 0.672q0 0.672-0.192 1.376t-0.32 1.056-0.512 0.992q-0.032 0.128-0.16 0.32t-0.192 0.416-0.16 0.416h4.96q1.376 0 2.4 1.024t1.024 2.4z"></path>
</symbol>
<symbol id="icon-thumbsdown" viewBox="0 0 30 32">
<title>thumbsdown</title>
<path class="path1" d="M4.576 10.272q0 0.48-0.352 0.832t-0.8 0.32q-0.48 0-0.8-0.32t-0.352-0.832q0-0.48 0.352-0.8t0.8-0.32q0.48 0 0.8 0.32t0.352 0.8zM7.424 19.424v-11.424q0-0.48-0.32-0.8t-0.832-0.352h-5.12q-0.48 0-0.8 0.352t-0.352 0.8v11.424q0 0.48 0.352 0.8t0.8 0.352h5.12q0.48 0 0.832-0.352t0.32-0.8zM27.584 16.768q0.992 1.088 0.992 2.656-0.032 1.408-1.024 2.4t-2.4 1.024h-4.96q0.064 0.256 0.16 0.448t0.192 0.384 0.16 0.32q0.32 0.672 0.48 1.024t0.352 1.024 0.192 1.376q0 0.448-0.032 0.704t-0.064 0.8-0.224 0.896-0.448 0.8-0.704 0.736-1.056 0.448-1.472 0.192q-0.48 0-0.832-0.352t-0.576-0.864-0.352-0.928-0.224-1.12q-0.16-0.736-0.256-1.056t-0.32-0.864-0.544-0.864q-0.576-0.608-1.792-2.144-0.896-1.152-1.824-2.176t-1.344-1.056q-0.448-0.032-0.768-0.352t-0.32-0.768v-11.456q0-0.48 0.32-0.8t0.832-0.352q0.608 0 2.816-0.768 1.376-0.48 2.144-0.704t2.176-0.512 2.56-0.288h2.304q2.368 0.032 3.52 1.376 1.024 1.248 0.864 3.232 0.704 0.672 0.992 1.696 0.288 1.088 0 2.080 0.8 1.088 0.768 2.464 0 0.544-0.288 1.344z"></path>
</symbol>
<symbol id="icon-link" viewBox="0 0 30 32">
<title>link</title>
<path class="path1" d="M25.984 21.728q0-0.736-0.48-1.216l-3.712-3.712q-0.512-0.512-1.216-0.512-0.768 0-1.28 0.576 0.032 0.032 0.32 0.32t0.384 0.384 0.288 0.352 0.224 0.448 0.064 0.48q0 0.736-0.512 1.216t-1.216 0.512q-0.256 0-0.48-0.064t-0.448-0.224-0.352-0.288-0.384-0.384-0.32-0.32q-0.608 0.544-0.608 1.28t0.512 1.216l3.68 3.712q0.48 0.48 1.216 0.48 0.704 0 1.216-0.48l2.624-2.592q0.48-0.512 0.48-1.184zM13.44 9.12q0-0.704-0.48-1.216l-3.68-3.68q-0.512-0.512-1.216-0.512t-1.216 0.48l-2.624 2.624q-0.512 0.48-0.512 1.184t0.512 1.216l3.712 3.712q0.48 0.48 1.216 0.48t1.28-0.544q-0.064-0.064-0.352-0.352t-0.384-0.384-0.256-0.32-0.224-0.448-0.064-0.512q0-0.704 0.48-1.216t1.216-0.48q0.288 0 0.512 0.064t0.448 0.224 0.32 0.256 0.384 0.384 0.352 0.352q0.576-0.544 0.576-1.312zM29.44 21.728q0 2.144-1.536 3.616l-2.624 2.592q-1.472 1.504-3.616 1.504-2.176 0-3.648-1.536l-3.68-3.68q-1.472-1.504-1.472-3.648 0-2.176 1.568-3.712l-1.568-1.568q-1.536 1.568-3.712 1.568-2.144 0-3.648-1.504l-3.712-3.712q-1.504-1.504-1.504-3.648t1.504-3.616l2.624-2.624q1.504-1.472 3.648-1.472t3.648 1.504l3.648 3.712q1.504 1.472 1.504 3.616 0 2.208-1.568 3.744l1.568 1.568q1.536-1.568 3.712-1.568 2.144 0 3.648 1.504l3.712 3.712q1.504 1.504 1.504 3.648z"></path>
</symbol>
<symbol id="icon-inbox" viewBox="0 0 27 32">
<title>inbox</title>
<path class="path1" d="M18.272 17.152h5.632q0-0.064-0.032-0.16t-0.064-0.128l-3.776-8.864h-12.64l-3.776 8.864q-0.032 0.032-0.064 0.128t-0.032 0.16h5.632l1.696 3.424h5.728zM27.424 17.664v8.608q0 0.48-0.32 0.832t-0.832 0.32h-25.12q-0.48 0-0.8-0.32t-0.352-0.832v-8.608q0-1.088 0.448-2.176l4.256-9.856q0.16-0.448 0.64-0.768t0.928-0.288h14.88q0.448 0 0.928 0.288t0.64 0.768l4.256 9.856q0.448 1.088 0.448 2.176z"></path>
</symbol>
<symbol id="icon-twitter" viewBox="0 0 30 32">
<title>twitter</title>
<path class="path1" d="M28.928 7.296q-1.184 1.728-2.88 2.976 0 0.256 0 0.736 0 2.336-0.672 4.64t-2.048 4.448-3.296 3.744-4.608 2.624-5.792 0.96q-4.832 0-8.832-2.592 0.608 0.064 1.376 0.064 4.032 0 7.168-2.464-1.888-0.032-3.36-1.152t-2.048-2.848q0.608 0.096 1.088 0.096 0.768 0 1.536-0.192-2.016-0.416-3.328-1.984t-1.312-3.68v-0.064q1.216 0.672 2.624 0.736-1.184-0.8-1.888-2.048t-0.704-2.752q0-1.568 0.8-2.912 2.176 2.656 5.248 4.256t6.656 1.76q-0.16-0.672-0.16-1.312 0-2.4 1.696-4.064t4.064-1.696q2.528 0 4.224 1.824 1.952-0.384 3.648-1.408-0.64 2.048-2.528 3.2 1.664-0.192 3.328-0.896z"></path>
</symbol>
<symbol id="icon-ok" viewBox="0 0 32 32">
<title>ok</title>
<path class="path1" d="M29.824 10.112q0 0.704-0.48 1.216l-15.36 15.36q-0.512 0.48-1.216 0.48t-1.216-0.48l-8.896-8.896q-0.48-0.512-0.48-1.216t0.48-1.216l2.432-2.432q0.512-0.512 1.216-0.512t1.216 0.512l5.248 5.28 11.712-11.744q0.512-0.512 1.216-0.512t1.216 0.512l2.432 2.432q0.48 0.512 0.48 1.216z"></path>
</symbol>
<symbol id="icon-cancel" viewBox="0 0 25 32">
<title>cancel</title>
<path class="path1" d="M23.168 23.616q0 0.704-0.48 1.216l-2.432 2.432q-0.512 0.48-1.216 0.48t-1.216-0.48l-5.248-5.28-5.248 5.28q-0.512 0.48-1.216 0.48t-1.216-0.48l-2.432-2.432q-0.512-0.512-0.512-1.216t0.512-1.216l5.248-5.248-5.248-5.248q-0.512-0.512-0.512-1.216t0.512-1.216l2.432-2.432q0.512-0.512 1.216-0.512t1.216 0.512l5.248 5.248 5.248-5.248q0.512-0.512 1.216-0.512t1.216 0.512l2.432 2.432q0.48 0.48 0.48 1.216t-0.48 1.216l-5.248 5.248 5.248 5.248q0.48 0.48 0.48 1.216z"></path>
</symbol>
<symbol id="icon-plus" viewBox="0 0 25 32">
<title>plus</title>
<path class="path1" d="M25.152 13.152v3.424q0 0.704-0.512 1.216t-1.216 0.48h-7.424v7.456q0 0.704-0.512 1.184t-1.216 0.512h-3.424q-0.704 0-1.216-0.512t-0.48-1.184v-7.456h-7.424q-0.736 0-1.216-0.48t-0.512-1.216v-3.424q0-0.736 0.512-1.216t1.216-0.512h7.424v-7.424q0-0.704 0.48-1.216t1.216-0.512h3.424q0.736 0 1.216 0.512t0.512 1.216v7.424h7.424q0.704 0 1.216 0.512t0.512 1.216z"></path>
</symbol>
<symbol id="icon-minus" viewBox="0 0 25 32">
<title>minus</title>
<path class="path1" d="M25.152 13.152v3.424q0 0.704-0.512 1.216t-1.216 0.48h-21.696q-0.736 0-1.216-0.48t-0.512-1.216v-3.424q0-0.736 0.512-1.216t1.216-0.512h21.696q0.704 0 1.216 0.512t0.512 1.216z"></path>
</symbol>
<symbol id="icon-edit" viewBox="0 0 27 32">
<title>edit</title>
<path class="path1" d="M6.496 27.424l1.6-1.632-4.192-4.192-1.632 1.632v1.92h2.304v2.272h1.92zM15.808 10.848q0-0.384-0.384-0.384-0.16 0-0.288 0.128l-9.696 9.664q-0.128 0.128-0.128 0.32 0 0.384 0.416 0.384 0.16 0 0.288-0.128l9.696-9.664q0.096-0.128 0.096-0.32zM14.848 7.424l7.424 7.424-14.848 14.88h-7.424v-7.456zM27.040 9.152q0 0.928-0.64 1.6l-2.976 2.976-7.424-7.456 2.976-2.944q0.64-0.672 1.6-0.672 0.928 0 1.632 0.672l4.192 4.192q0.64 0.704 0.64 1.632z"></path>
</symbol>
<symbol id="icon-spin" viewBox="0 0 32 32">
<title>spin</title>
<path class="path1" d="M15.936 0c-3.648 0-7.296 1.248-10.24 3.712v0c5.536-4.48 13.696-4.16 18.816 0.992 4.288 4.288 5.248 10.624 2.848 15.84-0.32 0.928-0.16 1.6 0.384 2.176 0.672 0.64 1.952 0.736 2.688 0 0.096-0.096 0.384-0.48 0.48-0.768 2.272-5.76 1.056-12.576-3.584-17.248-3.168-3.136-7.296-4.704-11.392-4.704zM2.848 8.768c-0.448 0-0.928 0.16-1.248 0.512-0.096 0.096-0.416 0.48-0.48 0.768-2.272 5.76-1.088 12.576 3.584 17.248 5.92 5.92 15.328 6.24 21.632 0.992v0c-5.536 4.48-13.696 4.16-18.848-0.992-4.288-4.288-5.216-10.656-2.848-15.84 0.352-0.928 0.192-1.6-0.384-2.176-0.352-0.352-0.864-0.544-1.408-0.512z"></path>
</symbol>
</defs>
</svg>
