<?xml version="1.0" encoding="utf-8"?>
<!-- Generator: Adobe Illustrator 19.2.1, SVG Export Plug-In . SVG Version: 6.00 Build 0)  -->
<svg version="1.1" id="Laag_1" xmlns="http://www.w3.org/2000/svg" xmlns:xlink="http://www.w3.org/1999/xlink" x="0px" y="0px"
   viewBox="0 0 550 500" style="enable-background:new 0 0 550 500;" xml:space="preserve">
<style type="text/css">
  .st0{fill:#30C0F9;}
  .st1{clip-path:url(#SVGID_2_);}
  .st2{fill:#BB8B5A;}
  .st3{fill:#BCBCBC;}
  .st4{fill:#D1D1D1;}
  .st5{fill:#9B704C;}
  .st6{fill:#C9C9C9;}
  .st7{fill:#755130;}
  .st8{fill:none;stroke:#6D6D6D;stroke-miterlimit:10;}
  .st9{fill:#D1D1D1;stroke:#6D6D6D;stroke-miterlimit:10;}
  .st10{fill:#7D7D7D;}
  .st11{fill:none;stroke:#566D05;stroke-miterlimit:10;}
  .st12{fill:#A7CC0D;}
  .st13{fill:#FFFFFF;}
  .st14{fill:#566D05;}
  .st15{opacity:0.75;}
  .st16{fill:#343534;}
  .st17{fill:#697D21;}
</style>
<circle class="st0" cx="246.7" cy="250.5" r="243.2"/>
<g>
  <defs>
    <circle id="SVGID_1_" cx="246.7" cy="250.9" r="243.2"/>
  </defs>
  <clipPath id="SVGID_2_">
    <use xlink:href="#SVGID_1_"  style="overflow:visible;"/>
  </clipPath>
  <g class="st1">
    <path class="st2" d="M252.9,386.1c0,0,1.3,26.9,18.2,29.8c17,2.9,36.4,7.5,39.8,26.9c3.4,19.4-4,24.7-4,24.7l-7.1,4.2l-13.6,7
      l-12.8-1.6l-23.9-7.6c0,0,180,60.7,166.3,64.1c-13.7,3.4-27.8,2.8-27.8,2.8s-18.6,2.4-16.1,9.2s7.5,18.6-7.4,11
      c-14.9-7.6-74.6-34.1-74.6-34.1s-56.1-8.2-65.3-7.8c-9.1,0.4-33.8-14.9-33.8-14.9l-25.4-20l-13.4-42.4l15-45.1l9.9-12.1
      C177.1,380.1,222.6,423.5,252.9,386.1z"/>
    <path class="st2" d="M-20.1,446l-57.9-15.9l-7.7-20.3l29.2-7l6.6-23.6l-15.8-22.5l-63.7-48.3l-37.5-59.9l-38-2.7l2.1-18.3
      l61.8-52.4l32.9-19.3l80.1-17.5l98.9,20.4l48.3,32.6l-12.3,24.1l-16.3,18.7l-20.9,32.5l-3,3.4l-11.8-14.3L26.6,225l-17.8-9.9
      l-18.1-3.2l-6.3,11.2c0,0-9.6,19-30.1,14.2c-20.5-4.8-50.5-13.3-39.5,4.9s61.9,81.9,61.9,81.9l68.8,98.1l46.6,51.6
      c0,0,27.9,10.3-6.3,6.1c-34.3-4.2-89.2-15.6-89.2-15.6S-21.1,453.8-20.1,446z"/>
    <path class="st3" d="M-149.6,182.1c0,0-66,6.8-129,3.2c-63-3.6-90.7-7.6-122.9-22.4c-32.2-14.7-70.9-31.2-89.3-37.1
      c-18.3-5.9-44-11.2-64.8-13.4c-20.8-2.2-42.4-2.8-81.8-17.7S-686,76.7-686,76.7s14.6,32.3,30.6,45.4s28.2,22,60.5,28.2
      c32.3,6.2,97.1,44.3,97.1,44.3l91,61.7l23.6-9.2c0,0,3.7-24.3,35.4-27.1c12.4-4.7,20.5-2.6,20.5-2.6l2.5-5.9c0,0-1.9-9.3,16.6,2.1
      c18.5,11.5,50.6,35.1,50.6,35.1l27.5,27.4l4.1-3.4l-0.7-12.9c0,0,6.3-7.6,12.1-11.1c5.8-3.5,5-5.8,5-5.8S-175.9,194.2-149.6,182.1
      z"/>
    <path class="st4" d="M-174.7,332.5l10.2-10.9l-0.6-10.9l22.2,32.4l29.1,34.9c0,0,22,39.1,45.4,38.3s32.4-5.8,32-17.8
      c-0.4-12-9.7-35.4-43.7-65.7s-43.4-39.6-43.4-39.6l-23.4-32l-9.9-15.1l-22.2-15.9c0,0-6.9-7.7-18.4,4.1s-24.2,18.3-24.2,18.3
      s-4.9-1-7.3,21.7c-1.2,1.7-3.3-0.7-3.3-0.7l-22.5-22.8l-39.3-29.1c0,0-31-25.7-35.7-5.7c0,0-4.7-2.1-21.4,4.7
      c-9.8,0.8-21.9-1.1-35.9,28.3c-15.9,5.8-55.2,20.4-70.3,46.7c-15.1,26.4,3.8,14.4,3.8,14.4s26.5-7.6,33-0.6c6.5,7,3,13.1,3,13.1
      s4.4,17.3,16.6-6.2c-2.8,16.4-7.6,89.1,15.1,72.3c18.8-8.6,33.8-23.6,33.8-23.6s14.9-20.2,14.4-39.5c-0.5-19.4-0.1-21.6-0.1-21.6
      l38.8,23.3c0,0,18.1,11.1,41.4,10.8c-9.1,16.8-19.3,38.5-18.2,58c8.7-3.9,23.3-11.1,30.1,7.9c6.9,19,7.7,42.4,17.2,15.5
      c9.5-26.9,27.9-58.3,27.9-58.3l6-12.4l15.3-11L-174.7,332.5z"/>
    <path class="st5" d="M-209.8,242.9c0,0,23.7-41.9,92.8-83.2c0.6-2.7,56.7-22.3,107.4-23.2c35.9,4.6,38.4,3.4,38.4,3.4
      s48.5-7,103.7,27.6c-15.2,16.1-21.8,28.9-21.8,28.9S86.8,175,67.5,166.6c9.5,11.6,17.1,21.7,17.1,21.7s-48-36.5-97.9-36.6
      s-136.2,17.3-190,86.1c-4.2,3.7-4.2,3.7-4.2,3.7"/>
    <path class="st6" d="M78.5,462.4c0,0-25.4,7.8-49.5-1.7s-51.1-19-51.1-19L-47,436l-16.6-1.7c0,0-15.6-6.6-13.5-19.8
      c-20.3-14.4-58.5-62.5-58.5-62.5l-31.3-46.1c0,0,6.1,11.5-1.7,19.5c-7.9,8-16.2,18.2-21.8,20.4s-10.5,12.6-10.5,12.6l14.6,28
      c0,0,12.9,11.7,24.5,5c2.8,8.5,5.3,18.1,36.8,11c10.3,13.5,33.1,34.6,66.8,38.7c15.6,6.6,30.3,15.3,30.3,15.3S-9.3,467.5,6,473.5
      S59.6,488,59.6,488s26,5.9,36.1-7.3C79.8,464.4,78.5,462.4,78.5,462.4z"/>
    <path class="st7" d="M179.5,382.4c0,0,1.3,0.8,3.7,2.3c2.4,1.6,5.9,3.8,10.2,6.9c8.5,6.3,20.6,15.6,32.9,29.4
      c6.1,6.9,12.3,14.8,17.3,24.3c1.2,2.3,2.4,4.7,3.6,7.1c1.1,2.5,2.3,5,3.4,7.5c2.2,5.1,4.3,10.3,6.2,15.7
      c3.9,10.8,7.5,22,10.4,33.7c2.9,11.7,5.6,23.5,6.9,36c0.1,1.6,0.3,3.1,0.2,4.9c0,1.8-0.1,3.3-0.2,4.7c-0.2,2.9-0.2,5.9-0.3,9
      c0,1.5-0.1,3.1-0.2,4.7c-0.1,0.8-0.2,1.7-0.4,2.7c-0.1,0.2-0.1,0.5-0.3,0.9c-0.1,0.3-0.3,0.7-0.6,1.2c-0.1,0.2-0.4,0.6-0.7,0.8
      c-0.2,0.1-0.3,0.3-0.5,0.4c-0.2,0.1-0.5,0.3-0.8,0.4c-0.6,0.2-1.2,0.3-1.7,0.3c-0.5,0-1.2-0.2-1.4-0.3c-0.6-0.3-1.1-0.6-1.3-0.8
      c-0.3-0.3-0.6-0.5-0.7-0.7c-0.4-0.5-0.7-0.8-0.9-1.2c-0.5-0.8-0.9-1.5-1.3-2.2c-0.8-1.4-1.5-2.8-2.1-4.2l-1.9-4
      c-0.6-1.3-1.2-2.7-1.9-3.9c-1.3-2.5-2.7-5-4.1-7.5c-2.9-5-5.9-9.8-9-14.5c-6.2-9.4-12.4-18.4-18.5-26.8c-3-4.2-6-8.3-8.8-12.2
      c-2.8-3.6-6.4-6.9-9.5-10c-6.5-6.4-12.6-12-17.2-18.1c-0.5-0.8-1.1-1.5-1.6-2.6c-0.4-0.9-0.6-1.7-0.9-2.3
      c-0.7-1.3-1.9-2.2-3.2-2.9c-2.7-1.4-5.6-2.1-8.1-2.7c-5.1-1.1-9.3-1.8-12.1-2.3c-2.8-0.5-4.3-0.7-4.3-0.7s1.5,0.1,4.3,0.3
      c2.8,0.3,7,0.5,12.3,1.3c2.6,0.5,5.6,0.9,8.7,2.3c1.5,0.7,3.2,1.8,4.3,3.5c0.6,0.9,0.8,1.8,1.2,2.5c0.2,0.6,0.9,1.3,1.4,2
      c4.7,5.3,11.2,10.7,17.9,16.8c3.4,3.1,7,6,10.4,10c3,3.9,6.2,7.9,9.4,12c6.4,8.3,13,17.1,19.4,26.5c3.2,4.7,6.4,9.6,9.5,14.6
      c1.5,2.5,3,5.1,4.5,7.9c0.8,1.4,1.3,2.7,2,4l1.9,4.1c0.6,1.3,1.3,2.6,1.9,3.8c0.3,0.6,0.7,1.2,1,1.6c0.2,0.2,0.3,0.5,0.4,0.5
      c0.1,0.1,0.1,0.1,0.1,0.1c0,0.1-0.1-0.1-0.4-0.2c0,0-0.5-0.2-0.8-0.2c-0.3,0-0.7,0-1.1,0.2c-0.2,0.1-0.4,0.2-0.5,0.3
      c-0.1,0.1-0.2,0.1-0.3,0.2c-0.2,0.1-0.4,0.4-0.4,0.4c-0.1,0.1-0.1,0.3-0.1,0.2c0,0,0-0.1,0-0.2c0.1-0.4,0.2-1,0.2-1.7
      c0.1-1.3,0.2-2.8,0.2-4.3c0.1-3,0.1-6,0.2-9.1c0.1-1.6,0.2-3.1,0.2-4.4c0.1-1.3-0.2-2.8-0.2-4.2c-1.1-11.7-3.7-23.5-6.5-34.9
      c-2.9-11.5-6-22.7-9.7-33.3c-1.8-5.3-3.8-10.5-5.7-15.5c-1-2.5-2.1-4.9-3.1-7.3c-1.1-2.4-2.2-4.8-3.3-7.2c-4.5-9-10.1-17-15.7-24
      c-11.4-13.9-22.6-24.1-30.7-30.9C184.4,385.9,179.5,382.4,179.5,382.4z"/>
    <polygon class="st6" points="-337.8,305.7 -338.6,278.1 -338.4,262 -324.1,262.9 -317.5,266.5 -301.6,274.6 -286.6,287.1
      -251.2,319 -258.9,337 -270.8,337.1 -285.2,333.9     "/>
    <path class="st8" d="M-154.9,182.8c0,0-177.4,15.4-244.3-17.7s-120.7-52.1-166.9-53.7C-612.2,109.8-687.8,75-687.8,75
      s25.4,56.9,69.7,68.8c65,17.4,99.2,32.9,204.5,107.9c81.2,57.8,119.5,85.8,154.5,86.3"/>
    <path class="st5" d="M32,223.3c0,0-10.4-12.9-19.5-15.4s-22.1-2.9-25.2-1.2s-8.1,0.6-8.4,13c-0.3,12.4-13.4,18.2-22.6,13.5
      c-9.2-4.7-23.1-11.6-31.2-8.1c-8.1,3.4-22.4,9.6-12.9,24s36.1,42,36.1,42l26.2,40.5l25.3,42.1l33.8,42.1l34.9,39.5
      c0,0,22.5,17.1,27.1,25.4s19.4,38,19.4,38l44.4,59.6l21.7,23.8l46.2,23.1l-5.3-18.1l-50.9-96.6c0,0-8.4-22.7-7.3-33.2
      c1-10.6-3.7-14.9-3.7-14.9s-4.3-12.2,9.7-28c14-15.8,14.6-27,13.6-30.1c-1.1-3.1-6-12-6-12s3.1-20.3-21.1-40.6
      c-19-9.6-38.3-23.2-38.3-23.2l-24.9-22.1l-13.9-17.6l-13.5-14.1L50,254.2l-8.1-13L32,223.3z"/>
    <path class="st8" d="M-384.8,247.4c0,0-28.1,6.1-54.9,31.7s-32.4,36.4-15.1,32c17.3-4.4,32.9-11.3,37.6,7.2
      c-1,7.7,4.8,20.2,14.1,0.1"/>
    <path class="st9" d="M-347.2,221.1c0,0,3.1,23.3,16,29.4c-8.2,6.8-8.9,18.6-8.2,26.1c0.7,7.5,5.1,60.6-3.4,74.1
      c-8.5,13.6-29.3,34.8-39.1,38.4s-19.3,8.5-20.7-17.9S-401.4,211.7-347.2,221.1z"/>
    <g>
      <g>
        <g>
          <path class="st10" d="M-391.3,377c0,0,0.6-2,1.8-5.5c0.3-0.9,0.6-1.9,1-2.9c0.4-1.1,0.7-2.2,1.1-3.5c0.7-2.5,1.6-5.4,2.5-8.6
            c3.5-12.8,7.7-30.8,11.5-50.8c3.8-20,6.8-38.2,8.8-51.3c2-13.2,3.1-21.4,3.1-21.4s-0.7,8.2-2.3,21.5c-1.6,13.2-4.2,31.5-8,51.5
            c-3.8,20-8.3,37.9-12.2,50.7c-1,3.2-2,6-2.8,8.6c-0.4,1.3-0.8,2.4-1.2,3.5c-0.4,1.1-0.8,2-1.1,2.9
            C-390.6,375-391.3,377-391.3,377z"/>
        </g>
      </g>
    </g>
    <path class="st8" d="M-345.3,354.4c0,0,1.2,35.7-1.5,62.3c-2.7,26.7-7.6,86.3-7.6,86.3s-0.4,13-8.2-1.7s-36-75.7-34-110"/>
    <path class="st8" d="M-464.7,309.7c0,0-31.9,30.8-45.8,71c-14,40.2-15.4,47.3-15.4,47.3s-4.7,28.5,17.2-6.6s35.8-49.9,50-61.1
      c14.2-11.2,40.6-23.4,43.1-33.1"/>
    <g>
      <g>
        <g>
          <path class="st10" d="M-323.4,243c0,0,0.2-0.1,0.5-0.3c0.3-0.2,0.8-0.5,1.4-0.9c1.2-0.8,2.9-2.1,4.3-4.2c0.7-1,1.2-2.3,1.5-3.7
            c0.3-1.4,0.2-3-0.2-4.6c-0.4-1.6-1.1-3.2-2-4.7c-0.5-0.8-1-1.5-1.6-2.2c0,0-0.1-0.1-0.1-0.1l-0.1-0.1l-0.1-0.1l-0.2-0.3
            c-0.1-0.2-0.2-0.4-0.3-0.6c-0.3-0.4-0.5-0.8-0.8-1.1c-1.2-1.4-2.7-2.4-4.4-2.9c-1.7-0.5-3.4-0.7-5.1-0.6
            c-3.3,0.1-6.3,0.9-8.8,1.6c-2.5,0.8-4.4,1.5-5.7,2.1c-1.3,0.6-2,0.9-2,0.9s0.7-0.4,1.9-1.1c1.3-0.7,3.2-1.7,5.6-2.6
            c2.4-0.9,5.4-1.9,9-2.2c1.8-0.1,3.7,0,5.6,0.5c1.9,0.5,3.8,1.7,5.1,3.3c0.4,0.4,0.6,0.8,0.9,1.3c0.1,0.2,0.3,0.5,0.4,0.7
            l0.3,0.5c0.6,0.8,1.2,1.6,1.7,2.4c1,1.7,1.7,3.4,2,5.2c0.4,1.8,0.4,3.5,0,5.1c-0.4,1.6-1.1,2.9-1.9,4c-1.6,2.1-3.5,3.3-4.8,4
            c-0.6,0.4-1.1,0.6-1.5,0.8C-323.2,243-323.4,243-323.4,243z"/>
        </g>
      </g>
    </g>
    <g>
      <g>
        <g>
          <path class="st10" d="M-338.5,262.8c0,0,0.6,0.1,1.8,0.2c0.6,0,1.3,0.1,2.1,0.2c0.8,0,1.7,0.1,2.7,0.2c2,0,4.4,0.1,7-0.3
            c1.3-0.2,2.6-0.5,4-0.9c1.3-0.5,2.6-1.1,3.6-2.1c1-1,1.7-2.2,2.1-3.5c0.4-1.3,0.5-2.6,0.5-3.9c-0.1-2.6-0.7-4.9-1.4-6.8
            c-0.6-1.9-1.3-3.4-1.7-4.4c-0.5-1-0.8-1.6-0.8-1.6s0.4,0.5,1,1.5c0.6,1,1.4,2.4,2.2,4.3c0.8,1.9,1.6,4.2,1.9,7
            c0.1,1.4,0.1,2.9-0.3,4.4c-0.4,1.5-1.3,3-2.5,4.2c-1.2,1.2-2.7,1.8-4.2,2.3c-1.5,0.4-2.9,0.7-4.3,0.8c-2.7,0.3-5.2,0-7.2-0.2
            c-1-0.2-1.9-0.3-2.7-0.4c-0.8-0.1-1.5-0.3-2-0.4C-337.9,262.9-338.5,262.8-338.5,262.8z"/>
        </g>
      </g>
    </g>
    <path class="st8" d="M-230.1,277c-16.2-26-69.8-57.5-82.7-65.8c-12.9-8.3-16,4.4-16,4.4"/>
    <g>
      <g>
        <g>
          <path class="st10" d="M-319.2,266.7c0,0,1.1,0.4,3.1,1.2c0.5,0.2,1.1,0.4,1.7,0.7c0.6,0.2,1.3,0.5,2,0.8
            c1.4,0.7,2.9,1.4,4.7,2.3c6.8,3.6,15.8,9.4,24.9,16.9c9.1,7.5,16.6,15,21.9,20.6c5.3,5.6,8.3,9.3,8.3,9.3s-3.3-3.4-8.8-8.8
            c-5.5-5.3-13.3-12.5-22.3-20c-9-7.5-17.7-13.5-24.3-17.4c-1.7-0.9-3.2-1.8-4.5-2.5c-0.7-0.4-1.3-0.7-1.9-0.9
            c-0.6-0.3-1.1-0.5-1.6-0.8C-318.2,267.2-319.2,266.7-319.2,266.7z"/>
        </g>
      </g>
    </g>
    <path class="st7" d="M-212.9,245.6c0,0,0.7-1.1,2-3.3c1.3-2.1,3.3-5.2,6-9c2.7-3.8,6.1-8.4,10.2-13.4c4.1-5.1,8.9-10.7,14.6-16.4
      c2.7-2.9,5.8-5.8,8.9-8.8c1.6-1.5,3.2-3,4.8-4.5c1.7-1.4,3.5-2.9,5.2-4.4c1.8-1.5,3.6-3,5.4-4.5c1.9-1.4,3.8-2.9,5.8-4.3
      c1.9-1.5,3.9-2.9,5.9-4.4c2-1.4,4.2-2.7,6.3-4.1c2.1-1.4,4.3-2.8,6.4-4.1c2.2-1.4,4.5-2.5,6.8-3.8c2.3-1.3,4.6-2.5,6.9-3.8
      c2.3-1.3,4.8-2.2,7.2-3.4c4.9-2.1,9.7-4.6,14.8-6.2l7.6-2.7l3.8-1.4l3.9-1.1c5.3-1.3,10.4-2.8,15.8-3.9c5.2-0.9,10.4-1.8,15.6-2.7
      c5.3-0.6,10.6-1.1,15.8-1.6c5.2-0.3,10.3-0.4,15.4-0.6c5.1,0,10,0.2,14.9,0.4c4.9,0.4,9.6,0.9,14.2,1.4c4.6,0.7,9,1.4,13.3,2.2
      c4.2,1,8.4,1.9,12.3,2.9c7.8,2.1,14.8,4.5,20.8,7c3,1.3,5.8,2.4,8.4,3.7c2.6,1.2,4.9,2.3,6.9,3.5c4.2,2.1,7.2,4.2,9.3,5.6
      c2.1,1.4,3.1,2.2,3.1,2.2s-4.6-2.8-13.1-6.5c-2.1-1-4.5-1.9-7.1-2.9c-2.6-1-5.5-2-8.5-2.9c-6.1-2-13.2-3.7-20.9-5.4
      c-3.9-0.8-7.9-1.4-12.1-2.1c-4.2-0.5-8.6-1-13.1-1.5c-4.5-0.2-9.1-0.6-13.9-0.8c-4.7,0.1-9.6-0.1-14.5,0
      c-4.9,0.3-9.9,0.5-14.9,0.9c-5,0.6-10,1.2-15.1,1.8c-5.1,0.9-10.3,1.9-15.5,2.8c-4.9,1-10,2.6-15.1,3.8l-3.8,1l-3.7,1.3l-7.4,2.6
      c-5,1.5-9.6,3.9-14.4,5.9c-4.8,1.9-9.3,4.4-13.7,6.7c-2.2,1.2-4.5,2.3-6.6,3.5c-2.1,1.3-4.2,2.6-6.3,3.9c-2.1,1.3-4.2,2.5-6.2,3.8
      c-2,1.4-4,2.7-5.9,4.1c-2,1.3-3.9,2.7-5.8,4c-1.8,1.4-3.6,2.8-5.4,4.2c-1.8,1.4-3.6,2.7-5.3,4.1c-1.7,1.4-3.3,2.8-5,4.2
      c-3.3,2.7-6.4,5.4-9.3,8.1c-2.9,2.7-5.7,5.3-8.2,7.8c-2.6,2.5-5.1,4.9-7.2,7.3c-4.5,4.7-8.2,8.9-11.2,12.4c-3,3.6-5.3,6.4-6.8,8.4
      C-212.1,244.5-212.9,245.6-212.9,245.6z"/>
    <g>
      <path class="st7" d="M130.9,168.6C79.8,132.6,28.5,142,28,142.1l-0.8-3.9c0.5-0.1,53.4-9.9,106,27.1L130.9,168.6z"/>
    </g>
    <path class="st8" d="M-272.7,370.8c0,0,30.8-72.4,35.8-82.7c5-10.3,10.9-22.7,18.5-9.8c7.5,12.9,15.3,16.7,20.6,15.6
      c5.3-1.2,26.3-3.7,28.8,8.8c2.5,12.4,8.3,17.6-5.7,30.6c-14,13-19.6,12.4-24.6,23.3c-5.1,10.9-19.5,36.8-23.3,44.5
      c-3.9,7.7-12.1,45.1-18.4,23.4c-6.3-21.7-6-44.9-36.3-27.3C-277.1,386.9-272.7,370.8-272.7,370.8z"/>
    <path class="st7" d="M177.3,392.8c0,0,0.3-1.8,0-5.1c-0.2-3.3-1.1-8.1-3.6-13.7c-2.5-5.6-7-11.7-13.7-16.9
      c-3.4-2.5-7.2-5-11.4-7.5c-4.1-2.6-8.4-5.3-12.9-8.1c-9-5.7-18.9-11.8-28.8-19.1c-5-3.7-10-7.6-14.7-12.2
      c-2.4-2.3-4.7-4.8-6.8-7.3c-2.1-2.5-4.2-5.1-6.3-7.7c-8.4-10.4-16.7-21.5-25.3-32.3c-1.1-1.3-2.2-2.7-3.3-3.9
      c-0.6-0.6-1.1-1.3-1.7-1.8l-1.9-1.9c-2.8-3.2-4.5-6.1-6.5-9.2c-3.8-6.1-7.3-12.3-10.9-18.3c-1.8-2.9-3.7-6.1-5.6-8.2
      c-0.7-0.6-2.1-1.7-3.5-2.5c-1.4-0.8-2.9-1.6-4.4-2.2c-6.1-2.7-12.8-4.5-19.2-5.1c-3.2-0.3-6.4-0.2-9.1,0.6c-2.7,0.8-4.5,2.2-5,4.4
      c-0.1,0.6-0.3,1.2-0.3,1.8l0,2.5l-0.1,2.6c-0.2,1.1-0.4,2.1-0.6,3.2c-1.1,4.1-4,7.7-7.6,9.6c-3.6,1.9-7.3,2.5-10.9,2.6
      c-3.6,0.1-7.1-0.4-10.5-1.4c-1.7-0.6-3.3-1-5.2-2.3c-1.5-1-2.5-1.8-3.8-2.5c-2.5-1.5-5.1-2.6-7.8-3.3c-5.4-1.4-10.8-0.7-15.5,1.8
      c-1.1,0.6-2.3,1.4-3.3,2c-1.1,0.9-2.3,1.7-3,2.5c-1.7,1.7-3.1,3.7-3.5,5.9c-1,4.4,1.3,9,3.8,12.9c2.6,3.9,5.5,7.5,8.3,10.8
      c5.6,6.6,10.7,12.1,14.9,16.7c8.4,9.2,13.2,14.4,13.2,14.4s-5.2-4.8-14.1-13.5c-4.4-4.4-9.8-9.6-15.8-15.9
      c-3-3.2-6.1-6.6-9.1-10.6c-1.5-2-2.9-4.2-3.9-6.8c-1-2.6-1.6-5.6-1-8.7c0.6-3.1,2.3-5.8,4.4-8.1c1.1-1.2,2.2-2.1,3.3-3
      c1.3-1,2.5-1.8,3.9-2.6c5.4-3.2,12.4-4.3,18.9-2.8c3.3,0.7,6.4,2,9.3,3.7c1.4,0.8,3,1.9,4.1,2.6c0.8,0.5,2.3,1,3.6,1.4
      c5.5,1.4,12.2,1.6,16.9-1c2.3-1.3,3.8-3.3,4.5-5.8c0.1-0.6,0.2-1.2,0.4-1.8l0-2.5l0-2.6c0-1,0.2-2.2,0.4-3.2
      c0.5-2.2,1.8-4.4,3.6-5.9c1.7-1.6,3.8-2.5,5.7-3.2c4-1.1,7.8-1.2,11.6-0.9c7.5,0.6,14.6,2.6,21.4,5.5c1.7,0.7,3.4,1.6,5.1,2.5
      c0.8,0.5,1.7,1,2.5,1.6c0.8,0.6,1.6,1.2,2.6,2.2c2.8,3.2,4.5,6.2,6.4,9.3c3.7,6.2,7.1,12.4,10.8,18.3c1.8,2.9,3.8,6,5.6,8.1
      l1.8,1.9c0.7,0.7,1.3,1.4,1.9,2.1c1.2,1.4,2.3,2.8,3.4,4.2c8.8,11.1,16.7,22.3,24.8,32.7c2,2.6,4.1,5.2,6.1,7.7
      c2,2.5,4.1,4.8,6.2,7c4.4,4.4,9.1,8.4,13.8,12.2c9.5,7.4,19.1,13.9,27.8,19.9c8.8,6.1,16.9,11.3,23.8,17
      c6.6,5.9,11,12.5,13.3,18.4c2.3,5.9,2.7,10.9,2.7,14.2C177.7,391,177.3,392.8,177.3,392.8z"/>
    <path class="st8" d="M-238.1,431.2c0,0-7.2,56.9-3.1,75.3c4.1,18.4,0.1,18.7-6.6,10c-6.7-8.7-16.9-30.7-20.2-42.1
      s-16.4-41.4-9.6-77.3"/>
    <path class="st8" d="M-227.2,273.7c0,0-2.9-13.6,3.9-19c6.8-5.4,18.6-13.2,21-16.6c2.4-3.5,17-19.2,28.6,1.4
      c11.6,20.5,21.5,44.1,6.8,66"/>
    <path class="st8" d="M-178.2,231.6c0,0,22.9,12.7,26.8,21.4c3.9,8.7,9.7,16.2,14.2,21.6c4.5,5.5,21.7,29.4,32.5,37.3
      s56.6,49.7,62.8,63.9s10.2,27.6-2.8,35.7s-29.1,9.3-44.9-4.7s-37-43.3-50.1-59.6c-13.1-16.3-25.6-38.1-25.6-38.1"/>
    <path class="st7" d="M-67.4,252.2c0,0,1,2.8,3.1,8c2.1,5.2,5.3,12.8,9.8,22.2c2.3,4.7,5,9.8,8.4,15.1c3.4,5.2,7.6,10.7,11.8,16.7
      c8.4,12,18,25.4,27.6,40.8c2.4,3.8,4.9,8,6.9,12.1c1.1,2.1,2.4,3.8,3.7,5.6c1.4,1.9,2.8,3.8,4.3,5.7c5.9,7.6,12.2,15.3,18.8,23.2
      c6.6,7.9,13.5,15.9,20.6,23.9c7.2,8,14.5,16.3,22.3,24l2.9,2.7c0.5,0.5,0.9,0.7,1.3,1.1l0.6,0.5c0.2,0.1,0,0.1,0.5,0.4l0.4,0.3
      l1.8,1.2l1.9,1.5c1.3,1,2.3,2,3.5,3c4.4,4.1,8.3,8.5,12.1,13c3.8,4.6,7.4,9.3,10.8,14.4c1.7,2.5,3.3,5.2,4.7,8
      c0.7,1.5,1.4,2.9,2,4.5l0.8,2.2l0.4,1l0.3,0.7c1,2,2.5,4.7,4,7.1c1.5,2.5,3.1,4.9,4.7,7.4c3.2,4.9,6.6,9.8,10,14.6
      c6.9,9.7,14,19.2,21.4,28.5c7.4,9.3,14.9,18.6,22.9,27.1c4,4.2,8.2,8.4,12.4,11.5c1,0.7,2,1.3,2.8,1.7l4.1,1.7
      c2.9,1.2,5.6,2.5,8.3,3.8c5.4,2.7,10.7,5.6,15.9,8.8c1.2,0.8,2.6,1.7,3.8,2.5c0.4,0.3,0.8,0.5,1.1,0.6c0.2,0.2,0.4-0.1-1.1,0.2
      c-0.9,0.3-1.8,0.9-2.2,1.8c-0.1,0.2-0.2,0.4-0.2,0.6c0,0.2,0,0.4,0,0.3c0-0.1,0,0,0-0.2l-0.1-0.6c-0.2-1-0.6-2.2-1.1-3.4
      c-0.4-1.2-1.1-2.5-1.6-3.7l-1.9-3.9c-1.3-2.6-2.5-5.1-3.8-7.6c-2.6-5.1-5.1-10.2-7.6-15.2c-10.1-20.1-19.8-39.6-28.6-58.3
      c-4.4-9.4-8.7-18.4-12.2-27.8l-0.6-1.8l-0.5-2.2c-0.4-1.6-0.4-2.6-0.5-3.9c-0.2-2.5-0.3-4.9-0.4-7.2c-0.2-4.6-0.3-9.3-1.2-13
      c-0.2-0.9-0.5-1.7-0.8-2.1c-0.5-0.8-0.6-0.9-1-1.8c-0.4-0.7-0.6-1.3-0.8-1.9c-0.9-2.3-1.4-4.7-1.7-7c-0.6-4.6-0.3-9.3,1.2-13.6
      c0.8-2.1,1.8-4.2,3.3-6c0.6-0.9,1.5-1.7,2.3-2.5l2.1-2c2.5-2.5,4.8-5.5,6.7-8.5c3.9-5.9,6.6-12.1,7.9-18.1
      c1.1-5.9,0.5-11.8-2.9-15.5c-1.5-1.9-3.6-3.5-5.2-5.2c-1.7-1.7-3.2-3.3-4.5-4.8c-2.7-3.1-4.9-5.8-6.6-8c-3.4-4.5-5-7.1-5-7.1
      s1.7,2.5,5.4,6.7c1.9,2.1,4.2,4.7,7.1,7.5c1.5,1.4,3,2.9,4.8,4.5c0.9,0.8,1.8,1.6,2.7,2.4c1,0.8,1.9,1.6,2.9,2.7
      c1.1,0.9,1.7,2.3,2.5,3.5c0.6,1.3,1.2,2.8,1.5,4.3c0.7,3,0.6,6.2,0.2,9.5c-1.1,6.5-3.6,13.2-7.5,19.6c-1.9,3.3-4,6.4-6.9,9.6
      l-2.1,2.1c-0.6,0.7-1.2,1.2-1.6,2c-1.1,1.4-1.7,3-2.3,4.7c-1,3.5-1.1,7.4-0.5,11.3c0.3,1.9,0.8,3.9,1.6,5.6
      c0.2,0.5,0.4,0.9,0.5,1.1c0,0.2,0.6,0.9,0.7,1.1c1,1.4,1.5,2.7,1.9,4c1.3,5,1.4,9.6,1.9,14.3c0.4,4.7,0.4,9.4,2.2,13
      c3.5,8.6,8.1,17.7,12.6,26.8c9.2,18.4,19.4,37.6,29.8,57.5c2.6,5,5.2,10,7.8,15.1c1.3,2.6,2.6,5.1,4,7.7l1.9,3.9
      c0.7,1.5,1.3,2.8,1.9,4.3c0.6,1.5,1.2,3,1.6,4.9l0.3,1.5c0.1,0.5,0.1,1.3,0.1,2c0,0.3,0,0.8-0.2,1.4c-0.1,0.6-0.3,1.1-0.5,1.6
      c-0.8,1.5-2.2,2.7-3.9,3.1c-2.9,0.6-4.2-0.1-5.3-0.5c-1.1-0.4-1.9-0.9-2.8-1.5c-1.3-0.9-2.3-1.5-3.6-2.3c-4.8-3-9.9-5.7-15-8.2
      c-2.6-1.2-5.2-2.5-7.8-3.6l-4.1-1.7c-1.9-0.8-3.4-1.8-4.8-2.8c-5.4-4-9.7-8.3-13.9-12.7c-8.4-8.9-16.1-18.2-23.6-27.7
      c-7.5-9.5-14.6-19.2-21.6-29.1c-3.5-4.9-6.9-9.9-10.1-15c-1.6-2.5-3.3-5.1-4.8-7.7c-1.6-2.7-3-5.1-4.6-8.4l-0.6-1.3l-0.4-1l-0.7-2
      c-0.4-1.1-1-2.3-1.5-3.5c-1.2-2.4-2.6-4.8-4.1-7.1c-3-4.7-6.4-9.3-9.9-13.7c-3.5-4.4-7.3-8.6-11.2-12.4c-1-0.9-2-1.9-2.9-2.7
      l-1.4-1.2l-1.7-1.2l-0.4-0.3c0.2,0.1-0.2-0.2-0.3-0.3l-1-0.8c-0.6-0.5-1.4-1.1-1.9-1.6l-3.2-3.1C47.6,439.4,34,422.5,21,406.4
      c-6.4-8.1-12.7-16-18.4-23.9c-1.4-2-2.8-4-4.2-6c-1.4-2.2-2.9-4.4-3.9-6.4c-2-4.4-4.1-8.1-6.4-12c-9.1-15.4-17.9-29.3-25.7-41.7
      c-3.9-6.2-7.7-11.8-11-17.3c-3.2-5.6-5.6-10.9-7.7-15.7c-4.2-9.7-6.8-17.5-8.5-22.9C-66.6,255.1-67.4,252.2-67.4,252.2z"/>
    <g>
      <g>
        <g>
          <path class="st10" d="M-199.7,360.4c0,0,0.6,1.3,1.6,3.6c1.1,2.3,2.6,5.7,4.8,9.6c2.2,3.9,5,8.6,9.3,12.7
            c2.1,2,4.7,3.8,7.7,4.8c3,1,6.3,1,9.7,0.5c1.7-0.2,3.4-0.5,5.1-0.8c0.8-0.1,1.7-0.2,2.5-0.3c0.9-0.1,1.7-0.1,2.4-0.2
            c3.2-0.4,6.2-1.2,9-2.2c5.7-1.9,10.6-4,14.8-5.9c4.1-1.9,7.4-3.5,9.7-4.6c2.3-1.2,3.5-1.8,3.5-1.8s-1.2,0.7-3.4,2
            c-2.2,1.3-5.4,3-9.5,5.1c-4.1,2-9,4.4-14.7,6.4c-2.8,1-5.9,1.9-9.3,2.4c-0.8,0.1-1.7,0.2-2.5,0.3c-0.8,0.1-1.6,0.2-2.5,0.3
            c-1.7,0.3-3.3,0.6-5.1,0.8c-3.5,0.5-7.1,0.5-10.3-0.6c-3.3-1.1-6-3.1-8.1-5.3c-4.3-4.4-7-9.3-9-13.3c-2.1-4.1-3.4-7.5-4.4-9.9
            C-199.2,361.7-199.7,360.4-199.7,360.4z"/>
        </g>
      </g>
    </g>
    <g>
      <g>
        <g>
          <path class="st10" d="M-162.7,392.4c0,0,0.1,0.2,0.2,0.6c0.1,0.2,0.2,0.5,0.3,0.8c0.1,0.1,0.1,0.3,0.2,0.5
            c0.1,0.2,0.2,0.3,0.3,0.5c0.7,1.5,2.2,3.5,4.6,5.2c2.4,1.7,5.7,2.9,9.6,3.5c3.8,0.6,8.2,0.4,12.6-0.2c4.5-0.6,8.5-1.9,12-3.7
            c3.5-1.8,6.3-3.9,8.6-5.8c2.3-1.9,3.9-3.7,5-4.9c1.1-1.2,1.7-2,1.7-2s-0.5,0.8-1.5,2.1c-1,1.3-2.5,3.2-4.7,5.3
            c-2.2,2.1-5,4.4-8.5,6.4c-0.4,0.2-0.9,0.5-1.3,0.7c-0.5,0.2-0.9,0.4-1.4,0.7c-0.9,0.5-2,0.8-3,1.2c-1,0.4-2.1,0.6-3.2,0.9
            c-1.1,0.2-2.2,0.5-3.4,0.6c-4.6,0.7-9.1,0.7-13,0c-4-0.7-7.4-2.2-9.8-4.1c-2.4-1.9-3.7-4.1-4.3-5.7c-0.1-0.2-0.2-0.4-0.2-0.5
            c-0.1-0.2-0.1-0.3-0.1-0.5c-0.1-0.3-0.2-0.6-0.2-0.8C-162.6,392.6-162.7,392.4-162.7,392.4z"/>
        </g>
      </g>
    </g>
    <path class="st8" d="M-46.4,369.9c0,0,12.1-9.4,33.6,4.7"/>
    <g>
      <g>
        <g>
          <path class="st10" d="M-77.3,415.6c0,0-0.1,0.4-0.2,1.2c-0.2,0.8-0.2,1.9,0,3.4c0.2,1.5,0.8,3.2,1.9,5c1.1,1.7,2.8,3.4,5,4.9
            c2.2,1.5,4.8,2.7,7.8,3.5c0.7,0.2,1.5,0.3,2.3,0.5c0.8,0.1,1.5,0.2,2.4,0.2c1.7,0.1,3.4,0.2,5.2,0.4c7,0.9,14.5,3.1,22.3,5.2
            c3.8,1,7.7,1,11.3,0c3.6-1,6.8-2.8,9.6-4.8c2.8-2,5.4-4.2,7.7-6.2c2.3-2.1,4.5-4,6.4-5.8c1.9-1.8,3.6-3.5,5-5.1
            c1.3-1.6,2.4-3.1,3-4.4c0.6-1.3,0.8-2.5,0.7-3.3c-0.1-0.4-0.2-0.7-0.3-0.8c-0.1-0.2-0.2-0.2-0.2-0.2s0.1,0.1,0.2,0.2
            c0.1,0.2,0.3,0.4,0.4,0.8c0.2,0.8,0.1,2-0.5,3.4c-0.6,1.4-1.5,3-2.8,4.6c-1.3,1.7-3,3.4-4.9,5.3c-1.9,1.9-4,3.9-6.3,6
            c-2.3,2.1-4.8,4.4-7.7,6.5c-2.9,2.1-6.2,4-10,5.1c-3.8,1.1-8,1.1-12.1,0.1c-7.9-2.1-15.2-4.4-22.1-5.4
            c-1.7-0.3-3.4-0.4-5.1-0.5c-0.8,0-1.7-0.1-2.5-0.3c-0.8-0.2-1.6-0.3-2.4-0.6c-3.1-0.9-5.7-2.3-7.9-3.8c-2.2-1.6-3.9-3.4-5-5.3
            c-1.1-1.9-1.6-3.7-1.7-5.2c-0.1-1.5,0-2.7,0.2-3.4C-77.4,416-77.3,415.6-77.3,415.6z"/>
        </g>
      </g>
    </g>
    <path class="st8" d="M-125.3,403.5c0,0,12.9,17.4,27.8,24.4c15,7.1,32.4,10.6,47.2,16s35.3,23.7,51.9,28.8s73.9,26.6,91.9,10.5"/>
    <path class="st8" d="M52.8,488.4c0,0-28.5,36.6-37.9,43.8s-17.9,9.9-9.7-5.4c8.3-15.3,21.5-46.6,21.5-46.6"/>
    <path class="st11" d="M291.3,369.3c0,0-34.4,12.5-42.2,21.1c-7.1,7.9-10.8,10-31.2,21.7"/>
    <path class="st7" d="M252.6,387.9c0,0,0.7,2.6,2.5,7c0.9,2.2,2,4.8,3.6,7.6c1.6,2.8,3.6,5.8,6.4,8.2c1.4,1.2,3,2,4.7,2.5
      c1.6,0.3,4,0.4,6.4,0.6c4.8,0.5,9.9,1.2,15,3.2c5.1,1.9,10.2,5.1,14.1,9.6c1,1.1,1.9,2.3,2.7,3.5l2.3,3.4c1.5,2.3,3.1,4.6,4.4,7.2
      c1.3,2.6,2.6,5.5,3,8.8c0.4,3.3-0.2,6.8-1.6,9.7c-1.3,2.9-3.2,5.2-5.1,7.3c-1.7,1.9-3.8,3.9-5.8,5.7c-4.1,3.6-9,6.2-14,7.4
      c-5,1.2-9.7,1-13.9,0.3c-2.1-0.4-4.1-0.7-5.9-1.3c-1.8-0.5-3.6-1.1-5.1-1.7c-3.2-1.1-5.8-2.5-8-3.5c-2.1-1.1-3.7-2.1-4.9-2.7
      c-1.1-0.6-1.7-1-1.7-1s2.6,0.9,7.1,2.4c2.3,0.6,5,1.5,8.2,2.2c1.6,0.4,3.3,0.7,5.1,1c1.8,0.3,3.7,0.5,5.6,0.6
      c3.9,0.2,8.1-0.1,12.1-1.4c4.1-1.3,7.8-3.7,11.3-6.9c1.7-1.7,3.3-3.4,5-5.4c1.5-1.9,3-3.8,3.8-5.8c0.9-2,1.2-4,0.9-6.1
      c-0.3-2.1-1.2-4.3-2.4-6.5c-1.1-2.2-2.6-4.4-4-6.7l-2.2-3.3c-0.7-1-1.4-2-2.2-2.9c-3.1-3.6-7-6.5-11.3-8.3
      c-4.3-1.8-8.9-3-13.4-3.7c-2.2-0.4-4.3-0.5-7.1-1.3c-2.5-0.9-4.5-2.3-6.1-4c-3.2-3.2-4.9-6.8-6.1-9.9c-1.3-3.1-2-6-2.5-8.3
      c-0.6-2.3-0.8-4.2-1-5.5C252.6,388.6,252.6,387.9,252.6,387.9z"/>
    <g>
      <g>
        <g>
          <path class="st10" d="M518.7,408.2c0,0,0.1-0.3,0.2-0.7c0.2-0.5,0.4-1.1,0.6-2c0.4-1.7,0.8-4,1.2-6.6c0.7-5.2,1.1-9.6,1.1-9.6
            s0.3,1.1,0.5,2.8c0.2,1.8,0.3,4.2,0,6.9c-0.3,2.7-1.1,5.1-1.9,6.7c-0.4,0.8-0.8,1.4-1.1,1.8
            C518.9,407.9,518.7,408.2,518.7,408.2z"/>
        </g>
      </g>
    </g>
    <g>
      <g>
        <g>
          <path class="st10" d="M472.2,407.1c0,0,0.2-0.5,0.6-1.4c0.4-0.9,0.9-2.2,1.8-3.8c1.6-3.1,4.2-7.3,7.9-11.3
            c3.7-4,7.6-7,10.7-8.8c3-1.8,5.1-2.5,5.1-2.5s-1.9,1.1-4.7,3.2c-2.8,2.1-6.4,5.3-10,9.1c-3.6,3.9-6.5,7.8-8.4,10.7
            c-1,1.4-1.7,2.7-2.2,3.5C472.5,406.6,472.2,407.1,472.2,407.1z"/>
        </g>
      </g>
    </g>
    <g>
      <g>
        <g>
          <path class="st10" d="M475.9,438.5c0,0-0.4,3.8-0.7,9.9c-0.3,6.1-0.5,14.5-0.3,23.8c0.1,4.7,0.1,9.1,0.7,13
            c0.6,3.9,1.9,7.4,4.1,9.4c1.1,1,2.3,1.5,3.5,1.7c1.2,0.2,2.2,0.1,3,0c0.8-0.1,1.5-0.3,1.9-0.5c0.4-0.2,0.6-0.3,0.6-0.3
            s-0.2,0.1-0.6,0.3c-0.4,0.2-1,0.5-1.9,0.7c-0.8,0.2-1.9,0.4-3.2,0.3c-0.6-0.1-1.3-0.2-2-0.5c-0.7-0.3-1.3-0.6-2-1.2
            c-1.3-1-2.3-2.5-3.1-4.1c-0.8-1.7-1.4-3.6-1.8-5.6c-0.4-2-0.6-4.2-0.8-6.4c-0.1-2.2-0.2-4.5-0.2-6.8
            c-0.2-9.4,0.4-17.8,1.1-23.9C475.2,442.2,475.9,438.5,475.9,438.5z"/>
        </g>
      </g>
    </g>
    <g>
      <g>
        <g>
          <path class="st10" d="M490.1,452.4c0,0,0-1,0-2.8c0-0.9,0-2,0-3.2c0.1-1.3,0.2-2.7,0.4-4.3c0.7-6.3,2.7-15,6.3-24.1
            c3.7-9,8.2-16.7,11.6-22c3.5-5.3,6-8.3,6-8.3s-2.2,3.3-5.4,8.7c-3.1,5.5-7.3,13.2-10.9,22.2c-3.6,8.9-5.9,17.4-7,23.6
            c-0.2,1.6-0.5,3-0.7,4.2c-0.1,1.3-0.2,2.3-0.3,3.2C490.1,451.4,490.1,452.4,490.1,452.4z"/>
        </g>
      </g>
    </g>
    <path class="st8" d="M476.6,575.6c0,0-7.9-31.6,2.2-55.8c10.1-24.3,16.9-36.5,36.7-46c19.8-9.5,80.1-21.7,92.9,7.2
      c12.7,29,26.7,76.9,4,129.2c-22.7,52.3-58.1,104.5-102.8,119.1c-44.7,14.6-59.2,10.8-59.2,10.8s-26.1-9.6-1.2-18.9
      s65.9-68,68.6-93.8"/>
    <g>
      <g>
        <g>
          <path class="st10" d="M503.6,506.2c0,0-0.4,0.3-1.2,0.9c-0.7,0.7-1.8,1.7-3,3.2c-2.4,3.1-5.1,8.2-7.5,15.1
            c-2.4,6.9-4.6,15.7-6.5,26c-0.5,2.6-0.9,5.2-1.3,8c-0.2,1.4-0.3,2.8-0.6,4.2c-0.2,1.4-0.7,2.9-1.3,4.2
            c-1.2,2.8-2.8,5.4-4.7,7.9c-1.8,2.5-3.9,5-6,7.5c-4.3,5-9,10-13.9,15.3c-2.4,2.7-5,5.2-7.2,8.2c-2.2,3-4.2,6.2-5.9,9.7
            c-3.4,6.9-5.9,14.5-7.8,22.5c-1.9,8-3.3,16.3-4.2,25c-0.9,8.6-1.4,17.5-1.5,26.6c0,4.5,0,9.1,0.2,13.7c0.1,2.3,0.4,4.6,0.8,6.8
            c0.2,1.1,0.5,2.2,1,3.2c0.2,0.5,0.5,0.9,0.8,1.2c0.3,0.3,0.7,0.4,1.1,0.3c0.8-0.1,1.7-0.9,2.5-1.8c0.7-0.8,1.4-1.8,2.1-2.8
            c1.3-2,2.4-4.1,3.4-6.2c1-2.2,2-4.4,2.9-6.6l0.6-1.7c0.2-0.6,0.4-1.1,0.7-1.7c0.3-0.6,0.5-1.2,0.7-1.7l0.9-1.6
            c4.7-8.7,10.6-16.7,16.7-24.7c3.1-4,6.2-7.9,9.5-11.6c3.3-3.7,6.6-7.4,10.2-10.7c0.9-0.9,1.8-1.6,2.8-2.4
            c0.9-0.8,1.9-1.5,2.9-2.3c2-1.5,4.1-2.7,6.2-3.9c4.2-2.4,8.4-4.6,12.5-6.9c8.2-4.6,16.3-9.3,23-15.4c3.3-3,6.2-6.5,7.9-10.5
            c0.8-2,1.6-4.2,2.5-6.2c0.9-2,2-4,3-5.9c4.4-7.6,10-14.1,15.3-20.4c2.6-3.2,5.2-6.3,7.6-9.5c1.3-1.6,2.3-3.2,3.4-4.8
            c0.4-0.9,0.9-1.7,1.3-2.6c0.4-0.9,0.7-1.8,1-2.7c1.1-3.6,1.3-7.4,0.2-10.9c-1.1-3.5-3-6.6-5.6-9.1c-1.2-1.2-2.6-2.3-4.1-3.2
            c-0.7-0.4-1.6-0.8-2.3-1.3c-0.4-0.3-0.7-0.5-1.1-0.8l-1-0.9c-2.6-2.4-4.6-5.1-6.5-7.8c-3.7-5.5-6.5-11.2-8.8-16.6
            c-0.3-0.7-0.6-1.4-0.8-2c-0.4-0.6-0.9-1.2-1.3-1.7c-0.4-0.6-0.9-1.1-1.4-1.6c-0.5-0.5-0.9-1.1-1.4-1.5c-2-2-4.2-3.5-6.5-4.7
            c-4.6-2.3-9.6-2.9-14-2.5c-4.4,0.3-8.4,1.5-11.9,2.7c-6.9,2.6-11.8,5.6-15,7.7c-3.2,2.1-4.8,3.5-4.8,3.5s1.6-1.3,4.8-3.5
            c3.2-2.1,8.1-5.3,15-7.9c3.4-1.3,7.4-2.5,11.9-2.9c4.5-0.4,9.5,0.1,14.3,2.4c2.3,1.2,4.6,2.7,6.6,4.7c0.5,0.5,1,1,1.5,1.5
            c0.5,0.5,1,1.1,1.4,1.7c0.4,0.6,0.9,1.2,1.3,1.8c0.4,0.8,0.6,1.4,0.9,2.1c2.4,5.4,5.2,11,8.8,16.4c1.9,2.7,3.9,5.4,6.4,7.6
            l1,0.8c0.3,0.3,0.7,0.5,1,0.7c0.7,0.5,1.4,0.8,2.3,1.3c1.6,0.9,3,2,4.3,3.3c2.6,2.5,4.7,5.8,5.9,9.4c1.2,3.7,1,7.7-0.2,11.5
            c-0.4,0.9-0.6,1.9-1.1,2.8c-0.5,0.9-0.9,1.8-1.4,2.7c-1.1,1.7-2.2,3.4-3.5,4.9c-2.4,3.2-5,6.3-7.6,9.5
            c-5.2,6.4-10.8,12.8-15.1,20.3c-1.1,1.9-2.1,3.8-3,5.8c-0.9,2-1.6,4-2.5,6.1c-1.8,4.2-4.9,7.8-8.2,11
            c-6.8,6.2-14.9,11-23.2,15.6c-4.1,2.3-8.3,4.6-12.5,7c-2.1,1.2-4.2,2.4-6.1,3.8c-1,0.7-1.9,1.4-2.8,2.2
            c-0.9,0.8-1.9,1.5-2.7,2.4c-3.6,3.3-6.9,6.9-10.1,10.6c-3.3,3.7-6.4,7.6-9.5,11.5c-6.1,7.9-11.9,16-16.6,24.5
            c-1.2,2.1-2,4.3-2.9,6.6c-0.9,2.3-1.9,4.5-2.9,6.7c-1,2.2-2.2,4.3-3.5,6.4c-0.7,1-1.4,2-2.2,3c-0.4,0.5-0.9,0.9-1.4,1.3
            c-0.5,0.4-1.1,0.8-1.9,0.9c-0.8,0.2-1.7-0.1-2.2-0.7c-0.6-0.5-0.9-1.1-1.2-1.7c-0.6-1.2-0.9-2.3-1.1-3.5
            c-0.5-2.4-0.7-4.7-0.8-7c-0.3-4.7-0.2-9.3-0.2-13.8c0.1-9.1,0.6-18.1,1.6-26.7c1-8.7,2.4-17.1,4.4-25.1c2-8,4.5-15.7,8-22.7
            c1.7-3.5,3.7-6.8,6-9.8c2.3-3,4.9-5.6,7.3-8.2c4.9-5.2,9.7-10.2,14-15.2c2.2-2.5,4.2-4.9,6.1-7.4c1.8-2.5,3.5-5.1,4.7-7.8
            c0.6-1.3,1-2.7,1.3-4.1c0.3-1.4,0.4-2.8,0.6-4.2c0.4-2.8,0.9-5.4,1.3-8c1.9-10.3,4.2-19,6.7-26c2.5-6.9,5.2-12,7.6-15.1
            c1.2-1.6,2.3-2.5,3-3.2C503.2,506.5,503.6,506.2,503.6,506.2z"/>
        </g>
      </g>
    </g>
    <g>
      <g>
        <g>
          <path class="st10" d="M545.1,638.9c0,0-0.3-0.2-0.9-0.7c-0.6-0.5-1.3-1.3-2-2.4c-1.5-2.2-2.7-5.8-3.2-9.9
            c-0.5-4-0.2-7.7,0.1-10.3c0.3-2.6,0.7-4.2,0.7-4.2s0,1.6,0.1,4.2c0.1,2.6,0.2,6.2,0.7,10.1c0.5,3.9,1.3,7.4,2.4,9.7
            c0.5,1.2,1.1,2,1.6,2.6C544.9,638.6,545.1,638.9,545.1,638.9z"/>
        </g>
      </g>
    </g>
    <g>
      <g>
        <g>
          <path class="st10" d="M460.6,731.1c0,0,1.5-0.5,4.2-1.5c1.4-0.5,3-1.2,4.9-1.9c1.9-0.9,4-1.7,6.4-2.9
            c4.7-2.2,10.1-5.2,15.9-8.8c5.8-3.6,11.9-8,18.2-12.8c12.5-9.7,22.9-19.5,30.2-26.9c7.3-7.4,11.5-12.2,11.5-12.2
            s-3.9,5.1-10.9,12.8c-7,7.6-17.3,17.8-29.8,27.5c-6.3,4.9-12.5,9.1-18.4,12.7c-5.9,3.5-11.4,6.3-16.2,8.4
            c-2.4,1.1-4.6,1.9-6.5,2.7c-1.9,0.7-3.6,1.3-5,1.7C462.2,730.7,460.6,731.1,460.6,731.1z"/>
        </g>
      </g>
    </g>
    <path class="st8" d="M372.5,558.8c0,0,23.2,0.8,27.5-3.4c7,3.1,17.1,3.5,17.1,3.5s0.7,54.5,12.5,71.4c-1.9,17.5-3.3,41-3.3,41
      s-0.2,13.6,6.2-5.5"/>
    <path class="st8" d="M455.2,598.9c0,0-8.5-43.2-12.7-51.7S431,532.9,420,532.3"/>
  </g>
</g>
<path class="st12" d="M63,268.1c0,0,5.1-30.6,29.7-47.3c11.3-23.5,30.3-70,89.2-88.4c3.6-6.3,2.4-11.8,19.7-13
  c17.3-1.1,30.9,1.1,53.2-10.2c3.5-5.7,4.2-20.3,43.2-7.5c12.5-3.9,27.4-4.9,27.4-4.9s1.4-12.6,13.9-10.6c12.5,2,31.6,5.9,39,18.6
  c7.4,12.7,9.9,23.2,9.9,23.2l20.7,7.8l23.9,6.7c0,0,9.6-37.9,49.3-25.6c6.3,3.6,18.1,6.1,24.9,1.6c6.8-4.5,35.9,22.1,35.9,22.1
  s6.2,24.2-4.8,28.9c-8,1.9-8,1.9-8,1.9l6.4,8.9c0,0,3.8,4.3-6.1,9.9s-19,9.6-36.4,28.3c-17.4,18.7-37.2,26.9-37.2,26.9
  s-19.9,8.2-34.3,18.2c-14.4,9.9-32.3,17.4-44.5,19.6c-18.7,10.8-28.2,14.1-34.7,34.5c-6.5,20.4-14.7,42.7-36.4,48.3
  c-21.7,5.5-40.6,14.5-40.6,14.5s-8.3,5.9-17.6,14s-32.1,16.4-32.1,16.4l-35.3-27.6l-4.9-3.4c0,0-3.3-16.9-15.7-25.3
  c-12.3-8.4-60.6-41.8-60.6-41.8L81.4,293L63,268.1z"/>
<g>
  <path class="st13" d="M317.7,129.7l-12.4-5.4l-8-6.4l-16.9-1.2l-17.7,2l-3.8,7.6c0,0-5.8,12.8,8.6,17s19.7,5.2,19.7,5.2l14.4-5.6
    L317.7,129.7z"/>
  <path class="st14" d="M317.7,129.7l-12.5-5.3l0,0l0,0l-8-6.3l0.2,0.1l-16.9-1.1l0.1,0l-17.7,2l0.4-0.3l-2.8,5.7l-0.7,1.4
    c-0.3,0.5-0.4,0.9-0.6,1.4c-0.3,1-0.5,2-0.7,3c-0.1,1-0.1,2,0,3c0.1,0.5,0.1,1,0.3,1.5c0.1,0.5,0.3,1,0.5,1.4l0.3,0.7
    c0.1,0.2,0.3,0.4,0.4,0.6c0.3,0.4,0.5,0.8,0.9,1.2c0.4,0.3,0.7,0.8,1.1,1l1.2,0.9c0.4,0.3,0.9,0.5,1.4,0.7l0.7,0.4l0.7,0.3
    c1,0.4,1.9,0.7,3,1l6.1,1.7c2,0.6,4.1,1.1,6.1,1.6c2,0.5,4.1,1.1,6.2,1.5l-0.2,0l14.5-5.5l-0.1,0L317.7,129.7z M317.7,129.7
    l-15.9,13.2l0,0l0,0l-14.4,5.7l-0.1,0l-0.1,0c-2.1-0.4-4.2-0.9-6.2-1.4c-2.1-0.5-4.1-1.1-6.2-1.6l-6.1-1.7c-1-0.3-2-0.6-3.1-1
    l-0.8-0.3l-0.7-0.4c-0.5-0.3-1-0.5-1.4-0.8l-1.3-1c-0.5-0.3-0.8-0.8-1.2-1.1c-0.4-0.4-0.7-0.8-1-1.3c-0.1-0.2-0.3-0.4-0.5-0.7
    l-0.4-0.8c-0.3-0.5-0.4-1-0.6-1.6c-0.2-0.5-0.2-1.1-0.3-1.6c-0.2-1.1-0.1-2.2,0-3.3c0.1-1.1,0.4-2.2,0.7-3.2
    c0.2-0.5,0.4-1.1,0.6-1.5l0.7-1.4l2.9-5.7l0.1-0.2l0.2,0l17.7-1.9l0,0l0,0l16.9,1.4l0.1,0l0.1,0.1l7.9,6.4l0,0L317.7,129.7z"/>
</g>
<g>
  <path class="st14" d="M64.4,268.1l-4.9-1.1c5.7-24.3,20.8-39.4,30.1-48.6c11.6-24.2,31.6-56.8,60.8-75.3c17.8-11.3,30.6-12,31.1-12
    l0.2,5l-0.1-2.5l0.1,2.5c-0.1,0-12.3,0.7-29,11.5c-28.2,18-47.5,49.9-58.8,73.4l-0.2,0.4l-0.3,0.3C84.6,230.4,69.8,245,64.4,268.1z
    "/>
</g>
<g class="st15">
  <path class="st14" d="M154.1,249.5c0,0,0,1.3,0.1,3.6c0.1,2.2,0.4,5.4,1,9.1c0.3,1.9,0.8,3.8,1.4,5.8c0.6,2,1.4,4,2.6,5.9
    c0.5,1,1.2,1.8,1.9,2.6c0.8,0.8,1.4,1.4,2.4,2.3c1.9,1.7,3.8,3.4,5.8,5c3.8,3.5,7.6,6.9,11.1,10.3c3.5,3.3,6.6,6.5,9.3,9.4
    c5.3,5.6,8.6,9.7,8.6,9.7s-4.4-2.8-10.6-7.4c-3.1-2.3-6.6-5.1-10.4-8.2c-3.7-3-7.6-6.4-11.5-9.8c-1.9-1.7-3.8-3.5-5.7-5.2
    c-0.9-0.8-2-2-2.9-3c-0.8-1.2-1.6-2.3-2.1-3.5c-1.3-2.4-1.8-4.8-2.3-7.1c-0.4-2.3-0.6-4.5-0.6-6.5c0-4,0.5-7.2,0.9-9.5
    C153.7,250.8,154.1,249.5,154.1,249.5z"/>
</g>
<path class="st14" d="M373.8,286.5c0,0-2.8,1.5-7.1,4.7c-4.3,3.2-10.4,8.1-15.1,15.4c-0.5,0.9-1,1.9-1.6,2.9c-0.4,1-0.9,2-1.3,3.1
  c-0.3,1.1-0.7,2.2-1,3.3c-0.3,1.3-0.7,2.5-1,3.8c-1.5,5.4-3.2,10.9-5.7,16.4c-2.5,5.5-5.4,11.2-9.4,16.5c-4,5.2-8.9,10.2-15,13.8
  c-1.5,0.8-3.2,1.6-4.8,2.4l-5,1.7l-5.2,1l-4.4,0.7c-5.6,1.2-11.4,2.4-17,3.9c-5.6,1.5-11,3-16.1,4.4c-5.1,1.5-10,2.8-14.4,4.1
  c-8.9,2.6-16.4,4.7-21.7,6.1c-5.3,1.4-8.3,2.2-8.3,2.2s2.7-1.6,7.6-4.1c4.9-2.5,11.9-6,20.4-9.8c4.3-1.9,9-3.9,14-5.9
  c5-2,10.3-4,16-5.8c5.6-1.8,11.5-3.7,17.9-5l4.7-0.9l3.9-0.9l3.7-1.4l3.6-1.8c4.7-2.7,8.8-6.6,12.3-11c3.5-4.5,6.5-9.3,9.1-14.3
  c2.5-5,4.7-10,6.6-14.8c0.5-1.3,0.9-2.5,1.4-3.7c0.5-1.3,1.1-2.7,1.7-3.9c0.7-1.2,1.4-2.4,2.1-3.5c0.8-1.1,1.5-2.1,2.3-3.1
  c3.2-3.9,6.8-6.7,10-8.9c3.3-2.2,6.3-3.7,8.8-4.9c2.5-1.2,4.6-1.8,6-2.3C373,286.7,373.8,286.5,373.8,286.5z"/>
<path class="st14" d="M180,147.4c0,0-0.4-1.4-0.7-3.9c-0.3-2.5-0.6-6.2,0.2-10.6c0.4-2.2,1.1-4.7,2.4-7.1c1.3-2.5,3.5-4.9,6.5-6.4
  c0.8-0.3,1.5-0.7,2.3-0.9l2.5-0.5c1.7-0.3,2.8-0.3,4.3-0.4c2.8-0.1,5.6-0.3,8.5-0.4c2.8-0.1,5.6-0.2,8.4-0.3c2.7-0.2,5.4-0.2,8-0.4
  c5.2-0.4,9.9-0.9,13.9-1.9c2.1-0.5,3.9-1,5.6-1.4c1.7-0.4,3.2-0.7,4.4-1c2.5-0.5,3.9-0.7,3.9-0.7s-1.2,0.8-3.4,2
  c-1.1,0.6-2.4,1.4-4,2.2c-1.6,0.8-3.2,1.7-5.3,2.6c-4,1.9-9.1,3.3-14.5,4.2c-2.7,0.4-5.5,0.8-8.3,1c-2.8,0.2-5.7,0.4-8.5,0.5
  c-2.8,0.1-5.6,0.1-8.4,0.2c-1.3,0.1-2.9,0-4,0.1l-1.6,0.1c-0.5,0.1-0.9,0.3-1.4,0.4c-1.8,0.7-3.5,1.9-4.7,3.6
  c-1.2,1.7-2.2,3.5-2.9,5.4c-1.5,3.7-2.2,7.2-2.7,9.6C180.2,146,180,147.4,180,147.4z"/>
<path class="st14" d="M237.4,132.3c2.3-3.7,4.8-7.2,7.8-10.5c0.8-0.8,1.5-1.6,2.7-2.4l0.2-0.1c-0.2,0.1,0-0.1,0-0.1l0.3-0.2
  c0.2-0.2,0.2-0.2,0.3-0.3c0.2-0.3,0.4-0.6,0.6-1c0.4-0.7,0.7-1.6,0.9-2.5c0.1-0.4,0.2-0.9,0.3-1.4c0.1-0.4,0.2-1,0.2-1.3l0,0.4
  c0-0.9,0-1.6,0.1-2.4c0.1-0.8,0.2-1.5,0.4-2.2c0.3-1.5,0.8-3,1.6-4.4c0.7-1.4,1.7-2.7,3-3.9c1.2-1.2,2.7-2,4.2-2.7
  c1.1-0.5,2.6-1.1,3.9-1.5c1.3-0.4,2.6-0.8,4-1.2c1.3-0.4,2.7-0.7,4-0.9c1.4-0.3,2.7-0.5,4.2-0.6l-2.1,1c1.1-0.9,1.2-0.7,1.6-1
  c0.3-0.1,0.6-0.2,0.9-0.2c0.5-0.1,1-0.1,1.4-0.2c0.8,0,1.6,0,2.3,0.1c1.4,0.2,2.6,0.4,3.9,0.8c2.4,0.7,4.7,1.4,6.9,2.4
  c2.2,0.9,4.3,2,6.4,3c1.1,0.6,2.1,1.1,3.1,1.6l3.1,1.8c4.1,2.4,7.9,5,11.6,7.9c3.6,2.9,7.2,6,10.2,9.5c-8-4.8-16.1-9-24.3-12.7
  l-6.2-2.7c-2.1-0.9-4.2-1.7-6.3-2.4c-2.1-0.7-4.2-1.5-6.2-1.9c-1-0.3-2-0.4-2.9-0.5c-0.4,0-0.9-0.1-1.2,0c-0.2,0-0.3,0-0.3,0
  c0,0,0,0,0,0c0.2-0.1,0,0.2,0.9-0.6l-2.1,1c-1.1,0.1-2.4,0.3-3.6,0.5c-1.2,0.2-2.4,0.5-3.6,0.7c-1.2,0.3-2.4,0.6-3.6,1
  c-1.2,0.4-2.2,0.7-3.5,1.2c-1.8,0.7-3.3,1.8-4.4,3.6c-0.5,0.9-1,1.8-1.4,2.9c-0.2,0.5-0.3,1.1-0.4,1.6c-0.1,0.5-0.2,1.2-0.3,1.5
  l0,0.4c-0.1,0.7-0.3,1.2-0.5,1.8c-0.2,0.6-0.4,1.2-0.6,1.7c-0.5,1.1-1.1,2.2-1.9,3.3c-0.4,0.5-0.9,1-1.4,1.5
  c-0.3,0.2-0.7,0.6-0.9,0.7l-0.8,0.4c-0.7,0.3-1.6,1-2.4,1.6C244,126.6,240.8,129.5,237.4,132.3z"/>
<path class="st14" d="M298.7,102c0,0,2.3-2.5,6.7-4.7c2.2-1.2,4.9-2.2,8.1-2.8c1.6-0.3,3.3-0.5,5-0.5c1.5,0,3.2,0,4.8,0.1
  c6.5,0.5,13.1,2.4,17.4,5.4c2.1,1.4,3.7,3,4.5,4.2c0.5,0.6,0.7,1.2,0.9,1.5c0.2,0.3,0.3,0.5,0.3,0.5s-0.7-0.4-2-1
  c-1.2-0.6-3.1-1.1-5.2-1.7c-4.4-1-10.2-1.7-16.3-2.1c-1.5-0.1-3-0.2-4.5-0.3c-1.4-0.1-2.7-0.1-4.1-0.1c-2.7,0.1-5.3,0.3-7.6,0.6
  C301.9,101.6,298.7,102,298.7,102z"/>
<path class="st14" d="M324.6,95.9c0,0,0.1-1.4,0.9-3.8c0.5-1.2,1.1-2.6,2.3-4.1c1.2-1.4,3-3,5.5-3.6c1.2-0.3,2.7-0.4,3.7-0.4
  c1.2,0,2.4,0,3.6,0.1c2.4,0.1,5,0.3,7.6,0.7c2.6,0.4,5.3,0.8,8.1,1.5c0.7,0.2,1.4,0.4,2.2,0.7c0.4,0.1,0.8,0.3,1.2,0.5l0.9,0.4
  c1.2,0.5,2.6,1.1,3.8,1.8c2.6,1.3,5.1,2.8,7.4,4.5c2.4,1.6,4.5,3.7,6.4,5.8c1.9,2.1,3.4,4.7,4.3,7c1,2.2,1.7,4.4,2.4,6.4
  c2.6,8,3,13.7,3,13.7s-2.6-5-6.6-12.1c-1-1.8-2.1-3.7-3.3-5.7c-1.2-1.9-2.5-3.5-4.2-5.2c-1.7-1.6-3.7-3-5.8-4.5
  c-2.1-1.4-4.4-2.7-6.8-3.8c-1.2-0.6-2.3-1.2-3.6-1.8l-0.9-0.4c-0.2-0.1-0.4-0.2-0.7-0.3c-0.5-0.2-1.1-0.4-1.7-0.6
  c-2.4-0.7-4.9-1.4-7.4-2c-2.5-0.5-4.8-1.1-7.1-1.5c-1.1-0.2-2.2-0.4-3.3-0.6c-1.2-0.2-1.9-0.3-2.8-0.3c-3.3,0.1-5.9,2.6-7.3,4.4
  C325.2,94.6,324.6,95.9,324.6,95.9z"/>
<path class="st14" d="M365.4,122c0,0,4.5,0.5,11,2c3.3,0.7,7,1.6,11,2.7c4,1.1,8.2,2.3,12.4,3.6c4.2,1.3,8.3,2.7,12.2,4.1
  c3.9,1.3,7.5,2.7,10.6,3.8c3.1,1.1,5.7,2.2,7.5,2.9c1.8,0.7,2.9,1.2,2.9,1.2s-1.1,0.1-3.1,0.2c-2,0.1-4.8,0-8.2-0.4
  c-3.4-0.3-7.2-0.9-11.3-1.8c-2-0.5-4.2-0.9-6.3-1.5c-2.1-0.6-4.2-1.2-6.4-1.9c-4.2-1.3-8.4-2.9-12.2-4.5c-3.8-1.6-7.4-3.2-10.3-4.8
  C369.1,124.7,365.4,122,365.4,122z"/>
<path class="st14" d="M349.2,200.9c0,0-1.8,0.5-5.1,1.5c-3.3,0.9-8.2,2.3-14.6,3.7c-6.3,1.4-14,2.9-23,4c-9,1-19.3,2-30.6-0.3
  c-1.4-0.4-2.8-0.8-4.3-1.2c-1.4-0.5-2.8-1.3-4.2-1.9c-2.8-1.5-5-3.1-7.6-5c-2.5-1.9-4.9-4-7-6.3c-1.1-1.1-2.1-2.2-3.2-3.1
  c-1-0.8-2.1-1.5-3.3-2c-2.5-1-5.6-1.5-8.7-1.9c-3.1-0.4-6.4-0.8-9.6-0.8c-3.4-0.2-6.4,0-9.8,0.1c-3.3,0.2-6.7,0.5-10.1,0.9
  c-13.5,1.6-27.5,4.4-41.4,7.9c-3.5,0.9-7,1.8-10.4,2.9c-1.7,0.5-3.4,1.1-5,1.7c-0.8,0.3-1.7,0.6-2.2,0.9l-0.5,0.2l-0.1,0.1
  c0.1-0.1-0.4,0.2,0.2-0.1l-0.3,0.2c-0.4,0.3-0.9,0.6-0.7,0.6c-0.2,0.2-0.7,1.2-0.5,2.4c0.1,1.3,0.6,2.7,1.2,4.1
  c0.7,1.4,1.5,2.8,2.5,3.9l1.8,2c0.6,0.8,1.4,1.8,1.9,2.5c4.3,6.3,8.1,12.6,12,18.9c1.9,3.2,3.8,6.3,5.6,9.5l1.4,2.5
  c0.4,0.7,0.8,1.4,1.3,2.1c0.9,1.4,1.9,2.8,3,4.2c8.5,10.8,21,18,34,18.1c6.3,0,13.3-1.1,19.9-1.7c6.6-0.7,13-1.4,19.2-2.3
  c12.4-1.8,23.8-4.9,34.3-8.3c21.1-6.8,39.1-11.3,51.7-14c6.3-1.3,11.4-2.1,14.8-2.5c3.4-0.4,5.3-0.6,5.3-0.6s-1.8,0.4-5.2,1
  c-3.4,0.7-8.3,1.9-14.6,3.5c-12.5,3.2-30,8.9-50.8,16.4c-10.4,3.8-22.1,7.5-34.8,9.6c-6.3,1.1-12.8,2-19.4,2.9
  c-6.7,0.8-13.1,2-20.7,2.1c-7.4,0-14.9-1.9-21.6-5.4c-6.8-3.5-12.7-8.6-17.5-14.6c-1.2-1.5-2.3-3.1-3.4-4.7
  c-0.5-0.8-1.1-1.7-1.6-2.6l-1.3-2.2c-1.9-3.1-3.8-6.3-5.6-9.4c-3.8-6.2-7.7-12.6-11.8-18.4c-0.5-0.8-0.9-1.2-1.4-1.9l-0.8-0.9
  c-0.4-0.4-0.8-0.8-1.1-1.3c-1.4-1.7-2.5-3.5-3.4-5.4c-0.9-1.9-1.6-4-1.8-6.5c-0.2-2.4,0.2-5.3,2.6-7.8c0.7-0.8,1-0.9,1.4-1.2
  l0.3-0.2c0.6-0.4,0.3-0.2,0.5-0.3l0.2-0.1l0.8-0.4c1.1-0.6,1.9-0.8,2.9-1.2c1.8-0.7,3.6-1.2,5.4-1.8c3.6-1.1,7.1-2,10.7-2.9
  c14.2-3.5,28.5-6,42.4-7.5c3.5-0.3,7-0.6,10.4-0.7c3.4-0.1,7.1-0.2,10.4,0.1c3.5,0.2,6.7,0.6,10,1.1c3.3,0.6,6.6,1.1,10,2.6
  c1.7,0.7,3.3,1.8,4.6,3c1.3,1.2,2.4,2.4,3.4,3.5c2,2.2,4.2,4.2,6.4,6c1.2,0.9,2.2,1.8,3.4,2.6c1.2,0.8,2.3,1.8,3.5,2.3
  c1.2,0.6,2.3,1.3,3.5,1.8c1.3,0.4,2.5,0.8,3.8,1.2c5.1,1.3,10.3,1.8,15.3,1.9c2.5,0.1,4.9,0.1,7.3,0c2.4,0,4.7-0.2,6.9-0.3
  c8.9-0.6,16.7-1.7,23-2.8C342,202.6,349.2,200.9,349.2,200.9z"/>
<path class="st14" d="M527.3,171.6c0,0,0.8,0.4,2.3,1.2c1.4,0.9,3.6,2.1,5.7,4.7c1,1.3,2.1,2.9,2.2,5.2c0.1,2.3-1.3,4.5-3.1,6.1
  c-3.5,3-7.5,5.7-11.9,8.8c-4.4,3.1-9.2,6.3-13.7,10.1c-1.1,1-2.2,1.9-3.2,3c-0.4,0.5-1,1-1.3,1.6l-1.4,1.9c-2.2,2.8-4.6,5.1-7,7.5
  c-4.9,4.7-10.2,9.4-15.9,13.7c-5.8,4.3-11.8,8.4-18.7,11.6c-3.6,1.6-7.2,2.4-10.1,3.7c-3.2,1.3-6.3,2.7-9.3,4.3
  c-6.1,3.2-11.9,6.6-17.4,10.3c-2.7,1.9-5.4,3.7-8.1,5.5c-2.7,1.9-5.8,3.5-8.6,4.8c-5.7,2.6-11.3,4.5-16.5,6
  c-5.2,1.6-10,2.6-14.4,3.4c-4.3,0.7-8.1,1.3-11.2,1.5c-3.1,0.3-5.6,0.3-7.3,0.3c-1.7,0-2.6,0-2.6,0s3.6-0.4,9.7-1.6
  c6.1-1.2,14.7-3.6,24.6-7.4c4.9-1.9,10.2-4.2,15.5-6.9c2.7-1.4,5.1-2.9,7.6-4.8c2.6-2,5.2-3.9,8-5.9c5.5-3.9,11.4-7.8,17.8-11.2
  c3.2-1.7,6.5-3.3,9.9-4.7c3.6-1.5,7-2.4,9.9-3.7c6.1-2.7,12-6.6,17.5-10.6c5.5-4.1,10.9-8.3,15.7-12.8c2.4-2.2,4.8-4.5,6.7-6.6
  l1.6-1.9c0.6-0.7,1.2-1.3,1.8-1.9c1.2-1.2,2.5-2.2,3.8-3.2c5.1-3.8,10.2-6.7,14.8-9.4c4.6-2.7,9-5.1,12.4-7.4
  c1.6-1.1,2.7-2.6,2.8-4.1c0.1-1.6-0.6-3.1-1.4-4.3c-1.7-2.5-3.6-4.1-4.8-5.2C528.1,172.1,527.3,171.6,527.3,171.6z"/>
<path class="st14" d="M461.9,140.9c0,0,1.8-0.5,4.4-0.1c0.7,0.1,1.4,0.3,2.2,0.6c0.8,0.3,1.6,0.7,2.4,1.6c0.8,0.8,1.6,2.5,1.2,4.1
  c-0.3,1.6-1.2,2.5-1.9,3.3c-1.5,1.4-3.2,2.2-4.7,2.8c-1.5,0.5-3,0.9-4.3,1c-2.5,0.4-4.3,0-4.3,0s0.3-0.3,0.9-0.9
  c0.6-0.5,1.4-1.2,2.4-1.9c1-0.8,2.1-1.5,3.3-2.4c1.1-0.8,2.4-1.7,3.2-2.4c0.4-0.4,0.6-0.7,0.6-0.7c0,0,0.2,0.2,0.1-0.2
  c-0.3-0.7-1.3-1.6-2.2-2.4C463.3,142.1,461.9,140.9,461.9,140.9z"/>
<ellipse transform="matrix(0.115 -0.9934 0.9934 0.115 117.8426 391.1123)" class="st16" cx="278.4" cy="129.4" rx="12.7" ry="6.1"/>
<g class="st15">
  <path class="st14" d="M251.4,168.2c0,0-1.8,0.4-4.9,0.8c-3.1,0.3-7.6,0.7-13.1,0.2c-2.7-0.2-5.7-0.6-8.8-1.4
    c-1.5-0.4-3.1-0.9-4.7-1.6c-1.5-0.6-3-1.3-4.5-1.8c-3-1.2-6.1-1.9-9.3-2.2c-3.2-0.3-6.5,0.1-9.9,0.8c-3.4,0.6-7.1,1.3-10.6,1.8
    c-3.5,0.5-6.9,0.9-10.1,1.3c-6.5,1-12.6,2.1-17.6,3.5c-2.5,0.7-4.8,1.5-6.8,2.2c-2,0.8-3.7,1.5-5,2.3c-1.4,0.7-2.4,1.3-3.1,1.8
    c-0.7,0.4-1.1,0.7-1.1,0.7s0.3-0.3,0.9-0.9c0.6-0.6,1.4-1.5,2.7-2.4c1.2-1,2.8-2.1,4.8-3.2c1-0.5,2-1.1,3.1-1.7
    c1.1-0.5,2.3-1,3.6-1.6c2.5-1,5.3-2,8.3-2.8c3-0.9,6.2-1.6,9.5-2.3c3.3-0.6,6.7-1.3,10.2-1.8c3.5-0.5,6.7-1.2,10.4-1.9
    c3.6-0.7,7.5-1,11.3-0.6c3.8,0.4,7.3,1.6,10.6,3c3.3,1.4,5.8,3,8.6,3.9c2.8,1,5.5,1.6,8.1,2.2c5.1,1,9.6,1.4,12.7,1.7
    C249.6,168.1,251.4,168.2,251.4,168.2z"/>
</g>
<path class="st14" d="M324.1,130.9c0,0-2.4-0.3-6.5-1.1c-2-0.4-4.5-0.9-7.3-1.8c-1.4-0.4-2.9-0.9-4.5-1.9c-1.5-0.9-2.8-2.2-4.1-3.2
  c-2.6-2.2-5.8-3.4-9.6-3.9c-3.8-0.4-8.2-0.5-12.5-0.6c-4.3,0-8.8,0.2-12.7,1.4c-2.1,0.7-3.1,1.5-4.1,3.1c-1,1.7-1.7,3.7-2.1,5.7
  c-0.8,4.1-0.1,8.5,2.6,10.6c0.7,0.5,1.3,0.9,2.5,1.5c1,0.5,2,1,3,1.4c2,0.9,4,1.6,6.1,2.2c4.1,1.2,8.1,1.9,11.9,1.8
  c3.8-0.1,7.3-1.1,10.2-2.6c6.1-3.4,11-6.8,14.2-9.3c3.3-2.5,5.1-4,5.1-4s-1.5,1.9-4.4,4.8c-3,2.9-7.3,7-13.4,11.1
  c-3.2,2.1-7.2,3.6-11.5,3.9c-4.3,0.4-8.9-0.1-13.4-1.3c-2.2-0.6-4.5-1.3-6.7-2.2c-2.3-1-4.2-1.5-6.8-3.4c-2.4-1.9-3.8-4.6-4.4-7.3
  c-0.6-2.7-0.6-5.5-0.1-8.1c0.5-2.6,1.4-5.1,2.9-7.5c0.4-0.6,0.8-1.1,1.3-1.8c0.6-0.6,1.3-1.3,1.7-1.5c1.4-1,2.5-1.4,3.8-1.8
  c5.1-1.6,9.9-1.4,14.4-1.2c4.6,0.2,8.7,0.6,13,1.3c4.2,0.7,8.3,2.7,11,5.4c1.4,1.3,2.4,2.5,3.6,3.4c1.1,0.9,2.5,1.5,3.8,2.1
  c2.6,1.1,5,2,6.9,2.6C321.9,130.2,324.1,130.9,324.1,130.9z"/>
<g class="st15">
  <path class="st17" d="M82.7,270.8c0,0,0-0.6,0-1.5c0-1,0-2.4,0.3-4.2c0.4-3.5,1.7-8.3,4.1-13.1c2.4-4.8,5.4-8.6,7.8-11.2
    c2.4-2.6,4.1-4,4.1-4s-2.8,8.4-7.3,17.5c-2.3,4.6-4.6,8.6-6.2,11.6C83.8,268.8,82.7,270.8,82.7,270.8z"/>
</g>
<path class="st14" d="M429.7,151.9c0.8-6,2.6-11.9,5.3-17.3c1.4-2.7,3-5.3,4.9-7.7c0.9-1.2,2-2.4,3.1-3.5c1-1.2,2.3-2.1,3.4-3.1
  c1.2-0.9,2.5-1.8,3.8-2.7c1.3-0.7,2.5-1.6,4-2.2c1.4-0.7,2.9-1.3,4.4-1.8c1.5-0.6,3-0.9,4.6-1.3c1.6-0.3,3.1-0.5,4.7-0.6
  c1.6,0,3.2,0,4.8,0.2c1.6,0.2,3.2,0.6,4.7,1.1c1.6,0.5,3,1.1,4.6,2.1L482,115c3.2,1.6,6.8,2.9,10.3,3.4c1.8,0.3,3.5,0.3,5.1,0
  c1.5-0.2,3.2-1,5.3-1.6c2-0.6,4.2-1,6.5-0.9c2.3,0.1,4.5,0.7,6.5,1.5c4,1.6,7.3,4,10.5,6c3.3,2.1,6.7,4.2,9.9,6.7
  c3.2,2.6,6.3,5.6,8.5,9.6c1,2,1.9,4.1,2.4,6.2c0.5,2.1,0.7,4.1,1,6.1c0.4,4.1,0.5,8.4-1,12.9c-0.8,2.2-2.1,4.5-4.1,6.2
  c-2,1.7-4.5,2.7-6.9,3c-2.4,0.4-4.7,0.2-6.5,0.1l-5.8-0.3c-7.8-0.4-15.4-0.6-23.1-0.6c-7.7,0.1-15.4,0.5-22.9,1.3
  c-7.2,1-14.4,3.2-21.2,6.5c-6.9,3.1-13.4,7.3-21.3,10.2c-7.9,2.6-15.6,3.8-23.4,5c-7.8,1.1-15.6,2-23.4,2.5
  c-3.9,0.3-7.9,0.4-11.8,0.5c-2,0-4,0-6-0.1l-5.9-0.5c-7.2-0.3-14.8,1.3-22.1,3.6c-7.3,2.3-14.8,5-22.6,6.3
  c-15.6,2.8-31.6,1.8-46.7-1.9c7.7,1.3,15.4,1.9,23.2,1.8c7.7-0.1,15.4-0.9,22.9-2.7c7.5-1.8,14.6-4.6,22-7.2
  c7.5-2.6,15.2-4.7,23.6-4.6l5.8,0.3c1.9,0,3.8,0,5.7-0.1c3.8-0.1,7.7-0.4,11.5-0.8c7.7-0.8,15.3-1.7,22.9-2.9
  c7.5-1.3,15.3-2.7,22.1-5.1c6.7-2.6,13.4-6.8,20.6-10.2c7.2-3.5,15-6.1,23.2-7.2c7.9-1,15.8-1.3,23.7-1.4c7.9-0.1,15.7,0.3,23.5,0.7
  l5.8,0.3c2.1,0.1,3.6,0.2,5.1,0c3-0.5,4.9-2,6-4.9c1.1-2.9,1.2-6.6,0.9-10.2c-0.2-1.8-0.4-3.7-0.8-5.4c-0.3-1.6-0.9-3.2-1.7-4.7
  c-3.1-6-9.7-10.2-16.1-14.5c-3.3-2.2-6.3-4.4-9.5-5.8c-3.2-1.5-6.2-1.7-9.8-0.7c-1.7,0.4-3.5,1.2-5.9,1.5c-2.3,0.3-4.4,0.1-6.5-0.3
  c-4.2-0.8-7.9-2.3-11.6-4.3l-0.1,0l-0.1-0.1c-0.9-0.6-2.3-1.3-3.5-1.7c-1.3-0.5-2.7-0.8-4-1.1c-1.4-0.2-2.8-0.3-4.2-0.4
  c-1.4,0-2.8,0.1-4.2,0.3c-1.4,0.2-2.8,0.5-4.2,0.9c-1.4,0.4-2.7,0.9-4.1,1.4c-1.3,0.5-2.7,1.3-4,1.9c-1.2,0.7-2.5,1.5-3.7,2.3
  c-1.1,0.9-2.4,1.7-3.4,2.8c-1.1,1-2.1,2-3.1,3.1c-2,2.2-3.7,4.6-5.2,7.2C433.2,140.4,430.9,146,429.7,151.9z"/>
<path class="st14" d="M287.7,371.6c0,0-4.5,2.4-11.1,6c-3.3,1.8-7.1,4-11,6.5c-1.9,1.2-3.9,2.6-5.8,4.1c-1.9,1.4-3.7,3-5.3,4.7
  l-2.7,2.7c-1,0.9-2,1.9-3,2.7c-2,1.7-4.1,3.1-6.2,4.4c-4.2,2.6-8.3,4.5-11.8,5.9c-3.5,1.5-6.5,2.6-8.5,3.4c-2.1,0.8-3.2,1.3-3.2,1.3
  s0.9-0.9,2.7-2.2c1.8-1.3,4.5-3.1,7.7-5.1c3.2-2,6.9-4.4,10.6-7.1c1.8-1.4,3.7-2.9,5.5-4.4c0.9-0.8,1.7-1.6,2.6-2.4l2.6-2.7
  c1.9-2,3.9-3.7,6.1-5.2c2.1-1.6,4.3-2.8,6.4-4c4.3-2.3,8.5-4,12.1-5.3C282.6,372.3,287.7,371.6,287.7,371.6z"/>
<path class="st7" d="M177,380.3c-0.8-4-2.4-8.8-5.4-13.7c-3-4.9-7.4-9.8-13.1-14c-5.6-4.1-11.8-8.3-18.3-12.8
  c-6.5-4.5-13.4-9.2-20.4-14.1c-7-5-14-10.3-20.6-16.3c-3.3-3-6.3-6.2-9.2-9.6c-2.9-3.6-5.7-7.1-8.5-10.8
  c-5.6-7.3-11.2-14.6-16.7-21.7c-2.8-3.6-5.5-7.2-8.5-10.6c-0.7-0.9-1.5-1.7-2.3-2.6c-0.4-0.4-0.8-0.8-1.2-1.3l-1.1-1.1
  c-0.8-0.8-1.3-1.5-1.9-2.3c-0.6-0.8-1.2-1.7-1.8-2.5c-4.7-7-8.8-14.3-13.1-21c-2.2-3.4-4.1-6.6-6.8-9.7c-1.6-1.6-3.2-2.5-4.9-3.5
  c-1.6-0.9-3.3-1.7-4.9-2.4c-3.8-1.6-7.4-2.7-11-3.5L7,209.3c3.3,1,6.7,2.2,10.1,3.7c3,1.4,6.3,3.2,8.4,5.4c2.2,2.7,4.1,6.1,6.1,9.4
  c3.9,6.8,7.7,14.2,12.5,21.6c0.6,0.9,1.3,1.8,1.9,2.8c0.7,0.9,1.5,2,2.3,2.7l1.2,1.2c0.3,0.4,0.7,0.7,1,1.1c0.7,0.8,1.4,1.6,2.1,2.4
  c2.8,3.4,5.5,6.9,8.2,10.5c5.5,7.2,11,14.6,16.6,21.9c2.8,3.6,5.8,7.3,8.7,10.8c3.1,3.6,6.3,7,9.8,10.1c6.9,6.2,14.2,11.4,21.3,16.4
  c14.3,9.8,28.3,17.8,39.6,25.5c5.5,3.8,10,8.2,13.1,12.7c3.2,4.5,5,9,6,12.8c1,3.8,1.3,7,1.4,9.1c0.1,2.2-0.1,3.3-0.1,3.3
  s0.3-1.1,0.4-3.3C177.8,387.5,177.9,384.3,177,380.3z"/>
</svg>
