<?xml version="1.0" standalone="no"?>
<!DOCTYPE svg PUBLIC "-//W3C//DTD SVG 1.1//EN" "http://www.w3.org/Graphics/SVG/1.1/DTD/svg11.dtd" >
<svg xmlns="http://www.w3.org/2000/svg">
<metadata>
Created by FontPrep 20130207 at Fri Mar 13 21:31:29 2015
 By Jonathan Cousins
Font data copyright Google 2013
</metadata>
<defs>
<font id="4aed4ca534b5d2d1972aff9faf389dfb" horiz-adv-x='1024' >
  <font-face 
    font-family="RobotoSlab-Thin"
    font-weight="250"
    font-stretch="normal"
    units-per-em="2048"
    panose-1="0 0 0 0 0 0 0 0 0 0"
    ascent="1638"
    descent="-410"
    x-height="1082"
    cap-height="1456"
    bbox="-770 -555 2638 2146"
    underline-thickness="100"
    underline-position="-100"
    unicode-range="U+0002-FFFD"
  />
<missing-glyph horiz-adv-x="490" 
 />
    <glyph glyph-name="fi" unicode="fi" horiz-adv-x="1183" 
d="M96 54h163v973h-188v55h188v158q0 163 85.5 252t233.5 89t272 -57l-8 -52q-66 29 -121.5 42t-137.5 13q-126 0 -198 -76t-72 -211v-158h626v-1028h163v-54h-380v54h163v973h-572v-973h163v-54h-380v54z" />
    <glyph glyph-name="uniFB02" unicode="fl" horiz-adv-x="1303" 
d="M650 1581q188 0 346 -74h5v-1453h163v-54h-380v54h163v1419q-136 54 -304 54q-330 0 -330 -307v-138h304v-55h-304v-973h163v-54h-380v54h163v973h-170v55h170v138q0 172 101.5 266.5t289.5 94.5z" />
    <glyph glyph-name=".notdef" horiz-adv-x="490" 
 />
    <glyph glyph-name=".null" horiz-adv-x="0" 
 />
    <glyph glyph-name="nonmarkingreturn" unicode="&#xd;" horiz-adv-x="490" 
 />
    <glyph glyph-name="uni0009" horiz-adv-x="0" 
 />
    <glyph glyph-name="uni0009" horiz-adv-x="0" 
 />
    <glyph glyph-name="uni0002" horiz-adv-x="0" 
 />
    <glyph glyph-name="space" unicode=" " horiz-adv-x="490" 
 />
    <glyph glyph-name="exclam" unicode="!" horiz-adv-x="437" 
d="M238 0h-95v134h95v-134zM217 478h-54v978h54v-978z" />
    <glyph glyph-name="quotedbl" unicode="&#x22;" horiz-adv-x="665" 
d="M353 1560h54v-167l-10 -271h-50l6 268v170zM171 1560h55v-167l-10 -271h-50l5 268v170z" />
    <glyph glyph-name="numbersign" unicode="#" horiz-adv-x="1246" 
d="M400 462h363l96 524h-365zM63 410v52h281l95 524h-300v54h310l75 416h56l-76 -416h365l76 416h56l-76 -416h254v-54h-264l-96 -524h285v-52h-294l-75 -410h-56l75 410h-364l-74 -410h-56l74 410h-271z" />
    <glyph glyph-name="dollar" unicode="$" horiz-adv-x="1086" 
d="M903 345q0 129 -79 204.5t-292 152.5q-215 71 -311.5 155.5t-96.5 248.5t104.5 263.5t281.5 106.5v187h55v-187q181 -10 281.5 -120.5t97.5 -303.5l-2 -5h-47q0 166 -95 271.5t-267 105.5t-263.5 -91.5t-91.5 -221.5t73.5 -207t297.5 -150q210 -73 309 -158t99 -248
t-104 -260.5t-277 -107.5v-188h-55v187q-189 6 -316 108t-122 316l2 6h46q0 -199 121.5 -288t287.5 -89t264.5 92t98.5 221z" />
    <glyph glyph-name="percent" unicode="%" horiz-adv-x="1457" 
d="M439 131l-45 31l711 1138l45 -31zM888 279q0 -101 56 -173t160 -72t160.5 72t56.5 173v78q0 106 -56 175.5t-160 69.5t-160.5 -70t-56.5 -175v-78zM833 357q0 125 75.5 212.5t195.5 87.5t196 -87t76 -213v-78q0 -126 -75.5 -213t-195.5 -87t-196 87t-76 213v78zM132 1099
q0 -100 56.5 -172t160.5 -72t160 72t56 172v77q0 100 -56.5 173t-159.5 73t-160 -73.5t-57 -172.5v-77zM77 1176q0 126 75.5 213.5t195.5 87.5t196 -87.5t76 -213.5v-77q0 -126 -75.5 -212.5t-195.5 -86.5t-196 86.5t-76 212.5v77z" />
    <glyph glyph-name="ampersand" unicode="&#x26;" horiz-adv-x="1253" 
d="M276 1184q0 -180 145 -350l209 166q116 97 116 203t-56 163t-170 57t-179 -72.5t-65 -166.5zM508 33q110 0 211 47.5t177 135.5l-449 509q-8 8 -15.5 17t-18.5 22l-52 -41q-137 -118 -185 -205.5t-48 -165.5q0 -134 98 -226.5t282 -92.5zM1098 632q0 -234 -133 -416
l185 -211l-2 -5h-60l-157 177q-11 -11 -12 -13q-90 -89 -188.5 -137t-222.5 -48q-202 0 -318 100.5t-116 272.5q0 114 67.5 211t188.5 199l51 41q-82 103 -121 188t-39 176q0 149 81.5 229.5t218.5 80.5t209 -72t72 -173t-38.5 -159.5t-108.5 -114.5l-202 -161l475 -540
q115 162 115 375h55z" />
    <glyph glyph-name="quotesingle" unicode="'" horiz-adv-x="421" 
d="M181 1560h55v-169l-20 -269h-50l15 267v171z" />
    <glyph glyph-name="parenleft" unicode="(" horiz-adv-x="615" 
d="M114 586q0 338 120.5 632.5t290.5 397.5h6l16 -36q-153 -101 -266 -387.5t-113 -602.5v-26q0 -317 113 -603.5t266 -387.5l-16 -36h-6q-172 105 -291.5 390.5t-119.5 638.5v20z" />
    <glyph glyph-name="parenright" unicode=")" horiz-adv-x="608" 
d="M444 566q0 -353 -120 -638.5t-291 -390.5h-6l-16 36q152 101 265.5 387.5t113.5 603.5v26q0 316 -113.5 602.5t-265.5 387.5l16 36h6q169 -103 290 -397.5t121 -632.5v-20z" />
    <glyph glyph-name="asterisk" unicode="*" horiz-adv-x="948" 
d="M429 1017l-363 124l18 54l362 -133l1 394h56l-7 -395l352 143l20 -53l-360 -137l249 -317l-47 -33l-242 322l-228 -325l-45 32z" />
    <glyph glyph-name="plus" unicode="+" horiz-adv-x="1145" 
d="M590 702h481v-53h-481v-503h-55v503h-462v53h462v504h55v-504z" />
    <glyph glyph-name="comma" unicode="," horiz-adv-x="383" 
d="M235 27q0 -168 -106 -282l-37 32q46 61 67.5 117.5t21.5 130.5v134h54v-132z" />
    <glyph glyph-name="hyphen" unicode="-" horiz-adv-x="789" 
d="M624 599h-470v54h470v-54z" />
    <glyph glyph-name="period" unicode="." horiz-adv-x="444" 
d="M231 0h-86v130h86v-130z" />
    <glyph glyph-name="slash" unicode="/" horiz-adv-x="776" 
d="M59 -125h-59l608 1581h59z" />
    <glyph glyph-name="zero" unicode="0" horiz-adv-x="1150" 
d="M954 882q0 254 -100 397.5t-290 143.5t-289.5 -143.5t-99.5 -397.5v-306q0 -252 100.5 -397.5t290.5 -145.5t289 145t99 398v306zM1008 574q0 -285 -115.5 -440t-326.5 -155t-328 155.5t-117 439.5v308q0 284 116 439.5t327 155.5t327.5 -155.5t116.5 -439.5v-308z" />
    <glyph glyph-name="one" unicode="1" horiz-adv-x="821" 
d="M108 54h293v1352l-338 -76v50l392 84v-1410h293v-54h-640v54z" />
    <glyph glyph-name="two" unicode="2" horiz-adv-x="1104" 
d="M106 0v54l477 550q136 157 198.5 271t62.5 211q0 159 -88 248t-262 89t-272 -105t-98 -272h-46l-2 6q-5 177 111.5 301t304.5 124t297.5 -102.5t109.5 -288.5q0 -121 -78.5 -247t-221.5 -293l-417 -487l2 -5h739v239h54v-293h-871z" />
    <glyph glyph-name="three" unicode="3" horiz-adv-x="1098" 
d="M383 771h111q183 0 288 91t105 231t-90.5 235t-259.5 95t-276 -95t-107 -253h-46l-2 6q-5 177 118.5 286.5t308.5 109.5t296.5 -106.5t111.5 -288.5q0 -115 -72.5 -206t-195.5 -131q142 -35 221 -127t79 -232q0 -190 -121.5 -298.5t-309.5 -108.5t-330 109.5t-137 310.5
l2 6h46q0 -162 118.5 -267t298.5 -105t279.5 92.5t99.5 259.5t-114.5 248.5t-310.5 81.5h-111v56z" />
    <glyph glyph-name="four" unicode="4" horiz-adv-x="1170" 
d="M769 451v929l-6 2l-78 -129l-538 -802h622zM823 451h252v-54h-252v-343h163v-54h-380v54h163v343h-706v30l695 1029h65v-1005z" />
    <glyph glyph-name="five" unicode="5" horiz-adv-x="1061" 
d="M834 1265v138h-597l-61 -618q63 63 137.5 95t234.5 36t272.5 -119.5t112.5 -339.5t-105 -347t-325 -131q-177 0 -294 100.5t-112 297.5l2 6h47q0 -172 96 -261t276 -89q360 0 360 429q0 184 -90 290t-252 106t-253.5 -53.5t-131.5 -158.5l-41 16l78 794h700v-191h-54z
" />
    <glyph glyph-name="six" unicode="6" horiz-adv-x="1107" 
d="M175 556v-3q0 -248 103.5 -384.5t273.5 -136.5t275 126t105 315t-96 309.5t-264 120.5t-282 -102.5t-114 -244.5h-1zM574 1477q164 0 285 -70l-21 -51q-66 38 -122.5 52.5t-141.5 14.5q-175 0 -287 -134.5t-112 -407.5v-175q47 109 150.5 180t239.5 71q197 0 309 -136
t112 -352t-122 -353t-312 -137t-310.5 150t-120.5 423v328q0 292 128 444.5t325 152.5z" />
    <glyph glyph-name="seven" unicode="7" horiz-adv-x="1104" 
d="M130 1402v-239h-54v293h930v-54q-215 -250 -365.5 -570.5t-195.5 -740.5l-6 -91h-54l6 91q83 759 550 1311h-811z" />
    <glyph glyph-name="eight" unicode="8" horiz-adv-x="1123" 
d="M924 1090q0 144 -107 238.5t-265 94.5t-261.5 -90.5t-103.5 -238.5t103.5 -235t263.5 -87t265 87t105 231zM965 371q0 157 -117.5 252t-293.5 95t-292 -95t-116 -253t115 -247.5t293 -89.5t294.5 90.5t116.5 247.5zM978 1086q0 -122 -74.5 -213t-195.5 -128
q139 -38 225.5 -136t86.5 -230q0 -192 -130.5 -296t-334.5 -104t-333.5 104t-129.5 296q0 133 84.5 231t224.5 135q-122 37 -195 127.5t-73 213.5q0 184 118.5 287.5t302.5 103.5t304 -104t120 -287z" />
    <glyph glyph-name="nine" unicode="9" horiz-adv-x="1125" 
d="M503 521q157 0 257 85.5t140 204.5v111q0 256 -102 378.5t-272 122.5t-275 -139.5t-105 -321.5t100 -311.5t257 -129.5zM900 578v123q-56 -109 -158.5 -171t-229.5 -62q-188 0 -308 143.5t-120 352.5t123 361t318 152t316 -136t121 -418v-343q0 -299 -124 -450t-337 -151
q-152 0 -313 63l16 57q146 -66 297 -66q188 0 293.5 138t105.5 407z" />
    <glyph glyph-name="colon" unicode=":" horiz-adv-x="364" 
d="M204 0h-86v130h86v-130zM204 949h-86v130h86v-130z" />
    <glyph glyph-name="semicolon" unicode=";" horiz-adv-x="364" 
d="M211 952h-86v130h86v-130zM219 27q0 -168 -106 -282l-37 32q46 61 68 117t21 131v134h54v-132z" />
    <glyph glyph-name="less" unicode="&#x3c;" horiz-adv-x="1027" 
d="M252 577l-119 -37v-6l119 -36l661 -303v-59l-837 379v50l837 378v-58z" />
    <glyph glyph-name="equal" unicode="=" horiz-adv-x="1127" 
d="M981 436h-834v54h834v-54zM981 843h-834v54h834v-54z" />
    <glyph glyph-name="greater" unicode="&#x3e;" horiz-adv-x="1052" 
d="M125 886v58l836 -378v-50l-836 -379v59l660 307l118 36v6l-118 37z" />
    <glyph glyph-name="question" unicode="?" horiz-adv-x="901" 
d="M440 0h-82v106h82v-106zM714 1114q0 144 -78 227t-220 83t-220.5 -84.5t-81.5 -223.5h-46l-3 6q-2 170 96.5 262.5t258.5 92.5t254 -101t94 -254t-62.5 -255t-190.5 -217q-69 -53 -84 -101.5t-15 -148.5h-54q1 117 20.5 165.5t122.5 145.5t156 178t53 225z" />
    <glyph glyph-name="at" unicode="@" horiz-adv-x="1799" 
d="M960 913q-133 0 -239 -126.5t-132 -370.5q-19 -167 32 -275t161 -108t196 66.5t144 245.5l42 486q-71 82 -204 82zM972 968q83 0 135 -27.5t115 -82.5l-49 -565q-11 -152 36.5 -205.5t107.5 -53.5q158 0 248.5 134.5t101.5 354.5q20 396 -154 613.5t-559 217.5
q-336 0 -564.5 -239.5t-248.5 -629.5t174.5 -636.5t551.5 -246.5q87 0 177.5 22t152.5 58l24 -46q-62 -40 -164 -64.5t-194 -24.5q-380 0 -587.5 249.5t-189.5 679.5t256 682.5t628 252.5t580.5 -234t173.5 -654q-10 -219 -114 -381.5t-296 -162.5q-83 0 -135 61t-61 169
q-111 -230 -332 -230q-136 0 -203 119t-48 318q23 250 144 401t293 151z" />
    <glyph glyph-name="A" unicode="A" 
d="M383 489h672l-305 820l-28 82h-6l-27 -82zM55 54h107l524 1402h66l525 -1402h107v-54h-309v54h143l-143 381h-712l-142 -381h143v-54h-309v54z" />
    <glyph glyph-name="B" unicode="B" horiz-adv-x="1303" 
d="M637 773q401 1 401 315t-421 314h-329v-629h349zM288 719v-665h421q184 0 290 91t106 239t-101.5 241.5t-284.5 93.5h-431zM617 1456q226 0 351 -93t125 -280q0 -130 -67 -219t-189 -111q136 -18 229 -119t93 -233q0 -191 -123.5 -296t-326.5 -105h-638v54h163v1348h-163
v54h546z" />
    <glyph glyph-name="C" unicode="C" horiz-adv-x="1373" 
d="M1256 992h-55v234q-67 90 -179 143.5t-255 53.5q-259 0 -421 -189t-162 -495v-20q0 -307 161 -496.5t412 -189.5q144 0 261 53.5t183 143.5v234h55v-254q-73 -107 -206 -169t-293 -62q-277 0 -452 205.5t-175 534.5v18q0 330 176 535t461 205q158 0 286.5 -62t202.5 -169
v-254z" />
    <glyph glyph-name="D" unicode="D" horiz-adv-x="1386" 
d="M288 1402v-1348h349q227 0 387 166t160 419v181q0 250 -160 416t-387 166h-349zM637 1456q251 0 426 -180t175 -459v-178q0 -280 -175 -459.5t-426 -179.5h-566v54h163v1348h-163v54h566z" />
    <glyph glyph-name="E" unicode="E" horiz-adv-x="1270" 
d="M71 0v54h163v1348h-163v54h1049v-293h-54v239h-778v-616h630v-54h-630v-678h778v239h54v-293h-1049z" />
    <glyph glyph-name="F" unicode="F" horiz-adv-x="1246" 
d="M71 54h163v1348h-163v54h1065v-293h-54v239h-794v-630h646v-56h-646v-662h163v-54h-380v54z" />
    <glyph glyph-name="G" unicode="G" horiz-adv-x="1449" 
d="M184 760v-40q0 -305 155.5 -496t411.5 -191q161 0 281.5 47t161.5 101v384h-315v55h369v-464q-46 -64 -176.5 -120.5t-320.5 -56.5q-277 0 -449 205.5t-172 535.5v38q0 319 173 519t451 200q166 0 294.5 -57.5t204.5 -163.5v-244h-54l1 224q-145 187 -446 187
q-257 0 -413.5 -185t-156.5 -478z" />
    <glyph glyph-name="H" unicode="H" horiz-adv-x="1506" 
d="M71 1402v54h380v-54h-163v-653h930v653h-163v54h380v-54h-163v-1348h163v-54h-380v54h163v641h-930v-641h163v-54h-380v54h163v1348h-163z" />
    <glyph glyph-name="I" unicode="I" horiz-adv-x="598" 
d="M109 1402v54h380v-54h-163v-1348h163v-54h-380v54h163v1348h-163z" />
    <glyph glyph-name="J" unicode="J" horiz-adv-x="1137" 
d="M1043 1402h-163v-980q0 -203 -114.5 -323t-304.5 -120t-305 106t-110 310l2 6h46q0 -178 97 -273t265 -95t269 105t101 284v980h-163v54h380v-54z" />
    <glyph glyph-name="K" unicode="K" horiz-adv-x="1388" 
d="M71 54h163v1348h-163v54h380v-54h-163v-638h238l565 633l-2 5h-168v54h361v-54h-115l-596 -672l639 -676h118v-54h-361v54h163l3 6l-622 651h-223v-657h163v-54h-380v54z" />
    <glyph glyph-name="L" unicode="L" horiz-adv-x="1161" 
d="M71 0v54h163v1348h-163v54h381v-54h-163v-1348h693v239h54v-293h-965z" />
    <glyph glyph-name="M" unicode="M" horiz-adv-x="1824" 
d="M288 54h163v-54h-380v54h163v1348h-163v54h240l596 -1370h6l598 1370h242v-54h-163v-1348h163v-54h-380v54h163v1307l-6 2l-598 -1363h-43l-595 1356l-6 -2v-1300z" />
    <glyph glyph-name="N" unicode="N" horiz-adv-x="1517" 
d="M1446 1456v-54h-163v-1402h-54l-934 1356l-6 -2v-1300h163v-54h-381v54h163v1348h-163v54h218l934 -1353l6 2v1297h-163v54h380z" />
    <glyph glyph-name="O" unicode="O" horiz-adv-x="1488" 
d="M1294 739q0 309 -152 496.5t-404 187.5t-402.5 -187.5t-150.5 -496.5v-20q0 -311 151 -498.5t404 -187.5t403.5 187.5t150.5 498.5v20zM1348 719q0 -336 -168 -538t-440 -202t-441 202.5t-169 537.5v18q0 335 168 537.5t440 202.5t441 -202.5t169 -537.5v-18z" />
    <glyph glyph-name="P" unicode="P" horiz-adv-x="1255" 
d="M288 679h351q207 0 311.5 103t104.5 259t-104 258.5t-312 102.5h-351v-723zM639 1456q226 0 348 -113.5t122 -302.5t-121.5 -302t-348.5 -113h-351v-571h163v-54h-380v54h163v1348h-163v54h568z" />
    <glyph glyph-name="Q" unicode="Q" horiz-adv-x="1478" 
d="M1294 739q0 309 -152 496.5t-404 187.5t-402.5 -187.5t-150.5 -496.5v-20q0 -311 151 -498.5t404 -187.5t403.5 187.5t150.5 498.5v20zM130 719v18q0 335 168 537.5t440 202.5t441 -202.5t169 -537.5v-18q0 -232 -83.5 -404.5t-231.5 -258.5l310 -221l-39 -38l-325 231
q-108 -49 -239 -49q-272 0 -441 202.5t-169 537.5z" />
    <glyph glyph-name="R" unicode="R" horiz-adv-x="1364" 
d="M288 737h350q223 0 328.5 93.5t105.5 245.5t-106.5 238.5t-317.5 86.5h-360v-664zM1126 224q0 -170 117 -170h51v-54h-51q-97 0 -134 65.5t-37 160.5v143q0 148 -101.5 231t-289.5 83h-393v-630h163v-54h-380v54h163v1348h-163v54h577q230 0 354 -99.5t124 -290.5
q0 -123 -78.5 -223.5t-214.5 -130.5q157 -27 225 -115t68 -225v-147z" />
    <glyph glyph-name="S" unicode="S" horiz-adv-x="1198" 
d="M597 1477q338 0 480 -226v-229h-54v204q-130 197 -426 197q-198 0 -313.5 -88.5t-115.5 -212.5t95.5 -206t341.5 -146t369.5 -156t123.5 -264t-141 -271.5t-353 -99.5q-146 0 -280.5 54.5t-223.5 170.5v240h54v-217q78 -102 199 -148t251 -46q192 0 315.5 88.5
t123.5 226.5t-100.5 220t-348.5 150t-364 153t-116 249t136 260.5t347 96.5z" />
    <glyph glyph-name="T" unicode="T" horiz-adv-x="1277" 
d="M1194 1456v-293h-54v239h-476v-1348h163v-54h-380v54h163v1348h-476v-239h-54v293h1114z" />
    <glyph glyph-name="U" unicode="U" horiz-adv-x="1441" 
d="M440 1456v-54h-163v-933q0 -205 123.5 -320.5t319.5 -115.5t320 115.5t124 320.5v933h-163v54h380v-54h-163v-933q0 -238 -138 -364t-360 -126t-359.5 126.5t-137.5 363.5v933h-163v54h380z" />
    <glyph glyph-name="V" unicode="V" horiz-adv-x="1442" 
d="M366 1402h-143l469 -1260l26 -79h6l26 79l469 1260h-143v54h309v-54h-107l-524 -1402h-66l-524 1402h-107v54h309v-54z" />
    <glyph glyph-name="W" unicode="W" horiz-adv-x="1960" 
d="M367 1402h-150l269 -1072l63 -229h6l63 229l364 1126h60l362 -1126l62 -229h6l65 229l266 1072h-149v54h309v-54h-101l-358 -1402h-61l-381 1214l-48 145h-6l-430 -1359h-61l-359 1402h-101v54h310v-54z" />
    <glyph glyph-name="X" unicode="X" horiz-adv-x="1391" 
d="M63 54h115l486 689l-466 659h-115v54h338v-54h-156l432 -617l433 617h-155v54h337v-54h-115l-465 -659l486 -689h115v-54h-337v54h155l-454 647l-453 -647h155v-54h-336v54z" />
    <glyph glyph-name="Y" unicode="Y" horiz-adv-x="1429" 
d="M371 1402h-131l449 -755l26 -50l27 50l451 755h-131v54h316v-54h-120l-514 -849v-499h163v-54h-381v54h163v499l-515 849h-119v54h316v-54z" />
    <glyph glyph-name="Z" unicode="Z" horiz-adv-x="1220" 
d="M1074 54v239h54v-293h-1036v44l929 1359h-835v-240h-54v293h964v-38l-930 -1364h908z" />
    <glyph glyph-name="bracketleft" unicode="[" horiz-adv-x="527" 
d="M440 1610h-229v-1868h229v-54h-283v1976h283v-54z" />
    <glyph glyph-name="backslash" unicode="\" horiz-adv-x="784" 
d="M36 1456h58l608 -1581h-58z" />
    <glyph glyph-name="bracketright" unicode="]" horiz-adv-x="505" 
d="M23 1664h283v-1976h-283v54h228v1868h-228v54z" />
    <glyph glyph-name="asciicircum" unicode="^" horiz-adv-x="828" 
d="M130 729h-59l299 727h52l299 -727h-61l-222 543l-40 114h-6l-43 -114z" />
    <glyph glyph-name="underscore" unicode="_" horiz-adv-x="1134" 
d="M965 -54h-846v54h846v-54z" />
    <glyph glyph-name="grave" unicode="`" horiz-adv-x="546" 
d="M395 1215l-2 -5h-75l-234 261l2 5h89z" />
    <glyph glyph-name="a" unicode="a" horiz-adv-x="1132" 
d="M443 32q137 0 250 69t170 191v257h-266q-199 0 -319 -77.5t-120 -189.5t74 -181t211 -69zM863 183v16q-62 -97 -173.5 -158.5t-261.5 -61.5t-237 81.5t-87 220.5t133 231t357 92h269v158q0 135 -86.5 210.5t-243.5 75.5q-210 0 -345 -109l-1 -173h-54l1 206
q77 57 181.5 93.5t217.5 36.5q174 0 279 -88t105 -254v-542q0 -89 15 -164h130v-54h-177q-22 120 -22 183z" />
    <glyph glyph-name="b" unicode="b" horiz-adv-x="1088" 
d="M928 542q0 225 -90 365.5t-254 140.5t-251 -80.5t-124 -197.5v-496q39 -110 132 -175.5t251 -65.5t247 132t89 356v21zM576 1102q191 0 299.5 -151.5t108.5 -408.5v-21q0 -250 -108 -396t-298 -146q-129 0 -223.5 52.5t-147.5 141.5l-7 -173h-45v1506h-163v54h217v-675
q116 217 367 217z" />
    <glyph glyph-name="c" unicode="c" horiz-adv-x="1086" 
d="M556 1048q-202 0 -300 -136t-98 -350v-42q0 -216 98 -351.5t290 -135.5q137 0 242 75t105 225h46l2 -6q4 -159 -116.5 -253.5t-278.5 -94.5q-207 0 -324.5 149t-117.5 392v42q0 242 117 391t323 149q122 0 226 -50.5t167 -136.5v-232h-54v212q-125 153 -327 153z" />
    <glyph glyph-name="d" unicode="d" horiz-adv-x="1205" 
d="M160 521q0 -224 88.5 -356t260.5 -132q141 0 234.5 64t135.5 171v507q-39 116 -126 194.5t-251 78.5t-253 -140.5t-89 -365.5v-21zM512 1102q249 0 367 -219v623h-163v54h217v-1506h163v-54h-215l-2 173q-53 -89 -147 -141.5t-222 -52.5q-191 0 -298.5 146t-107.5 396v21
q0 257 108 408.5t300 151.5z" />
    <glyph glyph-name="e" unicode="e" horiz-adv-x="1104" 
d="M562 1048q-160 0 -267 -117.5t-121 -293.5l3 -6h746v33q0 165 -100.5 274.5t-260.5 109.5zM112 500v64q0 233 130 385.5t317 152.5t302.5 -120t115.5 -322v-83h-811v-77q0 -196 115 -331.5t285 -135.5q226 0 342 132l29 -42q-130 -144 -371 -144q-185 0 -319.5 149.5
t-134.5 371.5z" />
    <glyph glyph-name="f" unicode="f" horiz-adv-x="722" 
d="M561 1527q-108 0 -169 -71t-61 -196v-178h286v-55h-286v-973h163v-54h-380v54h163v973h-188v55h188v178q0 153 74.5 237t208.5 84q71 0 128 -17l-8 -52q-60 15 -119 15z" />
    <glyph glyph-name="g" unicode="g" horiz-adv-x="1140" 
d="M167 521q0 -224 89 -356t247 -132q295 0 383 243v491q-38 119 -123.5 200t-250.5 81t-255 -140.5t-90 -365.5v-21zM540 -384q163 0 254.5 106.5t91.5 291.5v157q-54 -88 -147.5 -140t-220.5 -52q-191 0 -298.5 146t-107.5 396v21q0 257 108 408.5t300 151.5
q128 0 220.5 -59t146.5 -161l8 200h46v-1068q0 -208 -109.5 -329.5t-293.5 -121.5t-320 62l16 54q143 -63 306 -63z" />
    <glyph glyph-name="h" unicode="h" horiz-adv-x="1278" 
d="M663 1102q344 0 344 -444v-604h163v-54h-381v54h163v606q0 213 -78.5 300.5t-209.5 87.5q-175 0 -268 -104.5t-117 -267.5v-622h163v-54h-380v54h163v1452h-163v54h217v-706q50 118 147 183t237 65z" />
    <glyph glyph-name="i" unicode="i" horiz-adv-x="609" 
d="M306 1422h-54v138h54v-138zM89 54h163v974h-163v54h217v-1028h163v-54h-380v54z" />
    <glyph glyph-name="j" unicode="j" horiz-adv-x="555" 
d="M378 1426h-54v134h54v-134zM99 -383q110 0 170.5 77t60.5 217v1117h-163v54h217v-1171q0 -167 -75 -257.5t-210 -90.5q-52 0 -112 20l13 52q54 -18 99 -18z" />
    <glyph glyph-name="k" unicode="k" horiz-adv-x="1152" 
d="M62 1506v54h217v-953h127l430 415l-2 6h-119v54h321v-54h-122l-447 -439l489 -535h117v-54h-320v54h126l2 5l-454 494h-148v-499h163v-54h-380v54h163v1452h-163z" />
    <glyph glyph-name="l" unicode="l" horiz-adv-x="581" 
d="M82 1506v54h217v-1506h163v-54h-380v54h163v1452h-163z" />
    <glyph glyph-name="m" unicode="m" horiz-adv-x="1980" 
d="M1037 54h163v-54h-381v54h163v565q0 236 -84 332.5t-238 96.5t-241.5 -98.5t-111.5 -255.5v-640h163v-54h-381v54h163v974h-163v54h210l7 -223q49 115 141 179t224 64q283 0 348 -292q43 138 140.5 215.5t243.5 77.5q365 0 365 -485v-563h163v-54h-381v54h163v565
q0 235 -84 332t-240 97t-244 -103.5t-110 -267.5l2 -63v-561z" />
    <glyph glyph-name="n" unicode="n" horiz-adv-x="1320" 
d="M680 1102q177 0 265.5 -111.5t88.5 -353.5v-583h163v-54h-380v54h163v585q0 225 -80.5 317t-218.5 92q-175 0 -264 -104.5t-111 -267.5v-622h163v-54h-380v54h163v974h-163v54h209l7 -223q103 243 375 243z" />
    <glyph glyph-name="o" unicode="o" horiz-adv-x="1155" 
d="M158 520q0 -204 114 -345.5t306 -141.5t305.5 142t113.5 345v42q0 199 -115.5 342.5t-305.5 143.5t-304 -143.5t-114 -342.5v-42zM104 562q0 238 132 389t342 151t341.5 -151t131.5 -389v-42q0 -239 -131.5 -390t-341.5 -151t-342 151t-132 390v42z" />
    <glyph glyph-name="p" unicode="p" horiz-adv-x="1161" 
d="M1002 542q0 225 -90.5 365.5t-254.5 140.5t-251 -79t-124 -194v-506q40 -108 134 -172t236 -64q171 0 260.5 132t89.5 356v21zM65 -362h163v1390h-163v54h205l11 -194q54 100 147 157t221 57q191 0 299.5 -151.5t108.5 -408.5v-21q0 -250 -108 -396t-298 -146
q-127 0 -221.5 51t-147.5 138v-530h163v-54h-380v54z" />
    <glyph glyph-name="q" unicode="q" horiz-adv-x="1136" 
d="M160 521q0 -224 88.5 -356t260.5 -132q143 0 236.5 65.5t133.5 175.5v494q-38 115 -126 197.5t-251 82.5t-252.5 -140.5t-89.5 -365.5v-21zM512 1102q249 0 367 -216l5 196h49v-1444h163v-54h-380v54h163v532q-54 -88 -148 -139.5t-221 -51.5q-191 0 -298.5 146
t-107.5 396v21q0 257 108 408.5t300 151.5z" />
    <glyph glyph-name="r" unicode="r" horiz-adv-x="803" 
d="M659 1102q38 0 76 -11l-6 -48l-70 6q-145 0 -235.5 -93.5t-117.5 -246.5v-655h163v-54h-380v54h163v974h-163v54h207l10 -188v-37q45 116 134 180.5t219 64.5z" />
    <glyph glyph-name="s" unicode="s" horiz-adv-x="1009" 
d="M813 262q0 198 -330 270q-191 40 -278.5 106.5t-87.5 186.5t98 198.5t264 78.5q116 0 214.5 -40t158.5 -107v-202h-54v175q-108 120 -319 120q-152 0 -230 -65t-78 -151t66.5 -146t254.5 -104t281.5 -116t93.5 -200t-104 -207.5t-276 -79.5q-241 0 -384 143v193h54v-163
q111 -119 330 -119q150 0 238 70t88 159z" />
    <glyph glyph-name="t" unicode="t" horiz-adv-x="719" 
d="M473 -21q-95 0 -151.5 71t-56.5 229v748h-200v55h200v292h55v-292h266v-55h-266v-748q0 -133 45 -189.5t105 -56.5t140 9l10 -49q-52 -14 -147 -14z" />
    <glyph glyph-name="u" unicode="u" horiz-adv-x="1222" 
d="M241 463q-1 -430 315 -430q154 0 244.5 83t115.5 220v692h-163v54h218v-1028h163v-54h-208l-8 194q-106 -215 -375 -215q-167 0 -261.5 118.5t-94.5 367.5v563h-143v54h197v-619z" />
    <glyph glyph-name="v" unicode="v" horiz-adv-x="1165" 
d="M370 1028h-142l313 -799l51 -146h6l52 146l312 799h-142v54h318v-54h-118l-400 -1027l1 -1h-52l-399 1028h-118v54h318v-54z" />
    <glyph glyph-name="w" unicode="w" horiz-adv-x="1687" 
d="M374 1028h-148l206 -715l56 -222l6 -1l314 992h55l312 -992l6 1l58 222l204 715h-147v54h323v-54h-113l-299 -1028h-54l-267 813l-48 183h-6l-52 -183l-263 -813h-54l-299 1028h-112v54h322v-54z" />
    <glyph glyph-name="x" unicode="x" horiz-adv-x="1192" 
d="M82 54h126l361 501l-341 473h-126v54h318v-54h-124l307 -426l306 426h-124v54h318v-54h-126l-341 -473l361 -501h126v-54h-317v54h124l-328 454l-327 -454h124v-54h-317v54z" />
    <glyph glyph-name="y" unicode="y" horiz-adv-x="1185" 
d="M283 -384q92 0 143.5 54t91.5 160l65 176l-410 1022h-118v54h319v-54h-142l335 -832l40 -108h6l359 940h-142v54h320v-54h-118l-460 -1208q-44 -114 -102.5 -185.5t-186.5 -71.5q-46 0 -76 11l9 51q33 -9 67 -9z" />
    <glyph glyph-name="z" unicode="z" horiz-adv-x="1077" 
d="M120 0v44l711 983h-656v-238h-54v293h783v-48l-711 -980h716v239h54v-293h-843z" />
    <glyph glyph-name="braceleft" unicode="{" horiz-adv-x="693" 
d="M367 20q0 -318 285 -415l-20 -46q-173 55 -246 173t-73 288v245q0 278 -250 278v66q250 0 250 276v247q0 171 73 290.5t246 174.5l15 -45q-143 -46 -211.5 -155.5t-68.5 -264.5v-247q0 -120 -52 -202t-159 -107q107 -26 159 -109t52 -202v-245z" />
    <glyph glyph-name="bar" unicode="|" horiz-adv-x="405" 
d="M204 -270h-54v1726h54v-1726z" />
    <glyph glyph-name="braceright" unicode="}" horiz-adv-x="692" 
d="M311 20v245q0 119 51.5 202t159.5 109q-108 25 -159.5 107t-51.5 202v247q0 155 -68.5 264.5t-210.5 155.5l14 45q172 -55 245.5 -174.5t73.5 -290.5v-247q0 -276 250 -276v-66q-128 0 -189 -73.5t-61 -204.5v-245q0 -171 -73 -288.5t-246 -172.5l-19 46q284 97 284 415z
" />
    <glyph glyph-name="asciitilde" unicode="~" horiz-adv-x="1368" 
d="M965 443q-100 0 -171.5 38t-151.5 109t-139 100.5t-134 29.5t-132 -68t-57 -190l-59 12q0 128 73.5 214t173.5 86t173 -39t153 -111t138 -100t132 -28t132.5 70.5t58.5 186.5l61 -13q0 -121 -75.5 -209t-175.5 -88z" />
    <glyph glyph-name="nonbreakingspace" unicode="&#xa0;" horiz-adv-x="490" 
 />
    <glyph glyph-name="exclamdown" unicode="&#xa1;" horiz-adv-x="435" 
d="M237 918h-95v164h95v-164zM216 -374h-54v978h54v-978z" />
    <glyph glyph-name="cent" unicode="&#xa2;" horiz-adv-x="1063" 
d="M593 1048q-202 0 -300 -136t-98 -350v-42q0 -216 98 -351.5t290 -135.5q137 0 242 75t105 225h46l2 -6q4 -146 -99 -238t-248 -107v-227h-55v224q-205 3 -320 151.5t-115 389.5v42q0 240 115.5 388.5t319.5 151.5v216h55v-218q106 -10 196 -59.5t147 -125.5v-232h-54v212
q-125 153 -327 153z" />
    <glyph glyph-name="sterling" unicode="&#xa3;" horiz-adv-x="1151" 
d="M132 0v54h10q89 16 133 145.5t44 266.5l-8 201h-243v54h241l-11 319q0 204 101 320.5t273 116.5t253 -102t78 -280l-2 -5h-47q0 176 -74 254.5t-216 78.5t-227 -100t-85 -283l11 -319h478v-54h-476l8 -201q0 -125 -36 -235.5t-102 -176.5h755v239h54v-293h-912z" />
    <glyph glyph-name="currency" unicode="&#xa4;" horiz-adv-x="1461" 
d="M184 608q0 -238 159 -406.5t381 -168.5t381.5 168.5t159.5 406.5t-159.5 405.5t-381.5 167.5t-381 -167.5t-159 -405.5zM129 613q0 242 154 419l-189 193l40 39l188 -192q168 162 401 162t405 -164l191 195l41 -40l-193 -196q152 -179 152 -417t-141 -413l182 -186
l-41 -40l-180 183q-172 -176 -414 -176q-243 0 -415 174l-176 -180l-40 39l179 182q-144 176 -144 418z" />
    <glyph glyph-name="yen" unicode="&#xa5;" horiz-adv-x="1381" 
d="M1320 1402h-121l-455 -726h424v-55h-452v-240h452v-55h-452v-272h163v-54h-380v54h163v272h-450v55h450v240h-450v55h421l-453 726h-121v54h315v-54h-129l418 -664l24 -51h5l24 51l417 664h-129v54h316v-54z" />
    <glyph glyph-name="brokenbar" unicode="&#xa6;" horiz-adv-x="432" 
d="M204 698h-54v758h54v-758zM150 -270v752h54v-752h-54z" />
    <glyph glyph-name="section" unicode="&#xa7;" horiz-adv-x="1197" 
d="M144 539q0 -116 88 -181.5t361 -142.5l69 -19q161 1 254 67t93 177t-95.5 182.5t-354.5 143.5q-60 12 -108 30q-152 -7 -229.5 -74t-77.5 -183zM1063 431q0 -105 -82 -176t-222 -91q131 -50 195.5 -122t64.5 -191q0 -161 -121.5 -253.5t-327.5 -92.5t-345.5 102.5
t-134.5 323.5l2 5l46 2q0 -199 127 -289t308 -90t286 80.5t105 204.5t-80.5 193t-307.5 129q-245 58 -365.5 142.5t-120.5 242.5q0 108 76 179t211 92q-122 48 -182 120.5t-60 187.5q0 157 123 252t333 95t329 -111.5t115 -313.5l-2 -6h-46q0 162 -106.5 269.5t-298.5 107.5
t-292.5 -81.5t-100.5 -207.5t79.5 -194.5t316.5 -135.5q252 -64 365 -140.5t113 -232.5z" />
    <glyph glyph-name="dieresis" unicode="&#xa8;" horiz-adv-x="956" 
d="M289 1338h-137v118h137v-118zM758 1338h-136v118h136v-118z" />
    <glyph glyph-name="copyright" unicode="&#xa9;" horiz-adv-x="1596" 
d="M92 728q0 316 207 532t503 216t503 -216t207 -532t-207.5 -532.5t-502.5 -216.5t-502.5 216.5t-207.5 532.5zM148 728q0 -290 191.5 -492t461.5 -202t462.5 202t192.5 492t-192 491.5t-462 201.5t-462 -201.5t-192 -491.5zM795 337q246 0 246 259h44l3 -6
q3 -150 -75.5 -229t-220.5 -79t-229.5 107t-87.5 280v119q0 172 88.5 279.5t229.5 107.5t220 -79.5t76 -227.5l-3 -6h-44q0 129 -64 194.5t-185 65.5t-192 -95t-71 -238v-120q0 -145 70.5 -238.5t194.5 -93.5z" />
    <glyph glyph-name="ordfeminine" unicode="&#xaa;" horiz-adv-x="860" 
d="M350 747q94 0 169.5 47.5t95.5 105.5v177h-219q-113 0 -174.5 -44.5t-61.5 -118.5t48 -120.5t142 -46.5zM615 1202q1 221 -207 221q-106 0 -167.5 -47t-61.5 -138l-46 5l-2 6q-5 98 74.5 163t202.5 65t192.5 -71.5t69.5 -204.5v-314q0 -99 26 -181h-58q-20 56 -22 120
q-92 -134 -276 -134q-104 0 -169 61t-65 165t74 159.5t215 55.5h220v69z" />
    <glyph glyph-name="guillemotleft" unicode="&#xab;" horiz-adv-x="905" 
d="M176 525l294 -379h-70l-295 370v19l295 370h70zM463 525l294 -379h-70l-295 370v19l295 370h70z" />
    <glyph glyph-name="logicalnot" unicode="&#xac;" horiz-adv-x="1104" 
d="M914 396h-54v304h-739v53h793v-357z" />
    <glyph glyph-name="uni00AD" unicode="&#xad;" horiz-adv-x="789" 
d="M624 599h-470v54h470v-54z" />
    <glyph glyph-name="registered" unicode="&#xae;" horiz-adv-x="1595" 
d="M625 744h205q91 0 152 48t61 140t-52.5 135.5t-181.5 43.5h-184v-367zM1021 460v54q0 94 -42 134t-142 40h-212v-372h-55v850h239q289 0 289 -240q0 -145 -153 -206q132 -41 132 -205v-56q0 -85 17 -127v-16h-59q-14 29 -14 144zM147 728q0 -290 192 -492t462 -202
t462.5 202t192.5 492t-192 491.5t-462 201.5t-462.5 -201.5t-192.5 -491.5zM92 728q0 316 207 532t503 216t503 -216t207 -532t-207 -532.5t-503 -216.5t-503 216.5t-207 532.5z" />
    <glyph glyph-name="macron" unicode="&#xaf;" horiz-adv-x="986" 
d="M781 1403h-627v53h627v-53z" />
    <glyph glyph-name="macron" unicode="&#x2c9;" horiz-adv-x="986" 
d="M781 1403h-627v53h627v-53z" />
    <glyph glyph-name="degree" unicode="&#xb0;" horiz-adv-x="739" 
d="M179 1237q0 -79 51.5 -130t128.5 -51t127 51t50 131t-50 132t-127 52t-128.5 -53t-51.5 -132zM124 1236q0 99 69 170t165 71t165 -71t69 -170t-69 -167.5t-165 -68.5t-165 68.5t-69 167.5z" />
    <glyph glyph-name="plusminus" unicode="&#xb1;" horiz-adv-x="1104" 
d="M1066 88h-835v54h835v-54zM572 805h419v-54h-419v-462h-54v462h-443v54h443v462h54v-462z" />
    <glyph glyph-name="twosuperior" unicode="&#xb2;" horiz-adv-x="807" 
d="M657 667h-551v55l327 300q83 80 114.5 131t31.5 115t-48 110t-148 46t-156 -51t-56 -131h-48l-3 6q-5 95 68.5 163t193.5 68t186.5 -57.5t66.5 -167.5q0 -70 -49.5 -136.5t-140.5 -154.5l-265 -235l2 -6h475v-55z" />
    <glyph glyph-name="threesuperior" unicode="&#xb3;" horiz-adv-x="831" 
d="M597 881q0 166 -221 166h-114v56h114q208 0 208 157q0 73 -52.5 118t-150.5 45t-159 -45.5t-61 -119.5h-46l-2 6q-6 94 71 154t195 60t189 -57.5t71 -163.5q0 -61 -36 -109t-101 -72q151 -43 151 -193q0 -107 -77.5 -167.5t-196.5 -60.5t-202 58.5t-78 168.5l2 6h48
q0 -78 62.5 -128t166.5 -50t161.5 45.5t57.5 125.5z" />
    <glyph glyph-name="acute" unicode="&#xb4;" horiz-adv-x="553" 
d="M320 1478h78l2 -5l-231 -261h-67l-2 5z" />
    <glyph glyph-name="mu" unicode="&#xb5;" horiz-adv-x="1282" 
d="M281 -416h-52v1444h-163v54h215v-642q0 -223 85 -315t221 -92q184 0 268 93t102 263v639h-163v54h217v-577h2q0 -23 -2 -67v-384h163v-54h-204l-11 205q-100 -226 -363 -226q-227 0 -315 192v-587z" />
    <glyph glyph-name="paragraph" unicode="&#xb6;" horiz-adv-x="1044" 
d="M570 520q-234 0 -363 129.5t-129 337.5t129.5 338.5t362.5 130.5h342v-54h-163v-1348h163v-54h-380v54h163v466h-125z" />
    <glyph glyph-name="periodcentered" unicode="&#xb7;" horiz-adv-x="480" 
d="M277 624h-118v152h118v-152z" />
    <glyph glyph-name="cedilla" unicode="&#xb8;" horiz-adv-x="470" 
d="M415 -246q0 -86 -79 -137.5t-226 -51.5l-7 49q104 0 180.5 36t76.5 102t-45.5 91.5t-163.5 35.5l25 121h53l-11 -76q91 -7 144 -45.5t53 -124.5z" />
    <glyph glyph-name="onesuperior" unicode="&#xb9;" horiz-adv-x="471" 
d="M308 665h-54v747l-166 -14v56l220 23v-812z" />
    <glyph glyph-name="ordmasculine" unicode="&#xba;" horiz-adv-x="904" 
d="M175 1025q0 -125 63 -202.5t186 -77.5t188 78.5t65 201.5v117q0 122 -64.5 201.5t-186.5 79.5t-186.5 -79.5t-64.5 -201.5v-117zM121 1142q0 148 82 241.5t222 93.5t222.5 -93.5t82.5 -241.5v-117q0 -149 -82 -241.5t-222 -92.5t-222.5 92.5t-82.5 241.5v117z" />
    <glyph glyph-name="guillemotright" unicode="&#xbb;" horiz-adv-x="897" 
d="M175 940l294 -380v-19l-294 -370h-70l293 379l-293 390h70zM465 940l294 -380v-19l-294 -370h-70l293 379l-293 390h70z" />
    <glyph glyph-name="onequarter" unicode="&#xbc;" horiz-adv-x="1533" 
d="M370 664h-54v747l-166 -14v56l220 23v-812zM338 139l-45 31l711 1138l45 -31zM1190 241v481l-6 2l-36 -60l-317 -423h359zM1245 241h176v-55h-176v-186h-55v186h-442v36l435 579h62v-560z" />
    <glyph glyph-name="onehalf" unicode="&#xbd;" horiz-adv-x="1447" 
d="M350 139l-45 31l711 1138l45 -31zM370 664h-54v747l-166 -14v56l220 23v-812zM1438 0h-551v55l327 300q82 80 114 131q32 52 32 116t-48 110t-148 45q-100 0 -156 -51t-56 -131h-48l-3 6q-5 95 69 163t194 68t186 -58t66 -167q0 -71 -50 -137t-140 -154l-265 -235l2 -6
h475v-55z" />
    <glyph glyph-name="threequarters" unicode="&#xbe;" horiz-adv-x="1653" 
d="M565 139l-45 31l711 1138l45 -31zM1415 241v481l-6 2l-36 -60l-317 -423h359zM1470 241h176v-55h-176v-186h-55v186h-442v36l435 579h62v-560zM629 882q0 166 -221 166h-114v56h114q208 0 208 157q0 73 -52 118t-151 45q-98 0 -159 -46t-61 -119h-46l-2 6q-6 94 71 154
t195 60q118 1 189 -57t71 -164q0 -61 -36 -109t-101 -72q151 -43 151 -193q1 -108 -77 -168t-197 -60t-202 58t-78 169l2 6h48q1 -78 63 -128t166 -50q104 -1 161 45q58 46 58 126z" />
    <glyph glyph-name="questiondown" unicode="&#xbf;" horiz-adv-x="839" 
d="M386 1083h82v-106h-82v106zM112 -32q0 -143 78 -226t220 -83t220 84.5t82 223.5h46l3 -6q1 -170 -97 -262.5t-258 -92.5t-254 101t-94 253t62 254.5t191 218.5q68 52 83.5 100.5t15.5 149.5h54q-2 -118 -21.5 -166.5t-122.5 -145.5t-155.5 -178.5t-52.5 -224.5z" />
    <glyph glyph-name="Agrave" unicode="&#xc0;" 
d="M383 489h672l-305 820l-28 82h-6l-27 -82zM55 54h107l524 1402h66l525 -1402h107v-54h-309v54h143l-143 381h-712l-142 -381h143v-54h-309v54zM764 1577l-2 -5h-75l-234 261l2 5h89z" />
    <glyph glyph-name="Aacute" unicode="&#xc1;" 
d="M383 489h672l-305 820l-28 82h-6l-27 -82zM55 54h107l524 1402h66l525 -1402h107v-54h-309v54h143l-143 381h-712l-142 -381h143v-54h-309v54zM869 1811h78l2 -5l-231 -261h-67l-2 5z" />
    <glyph glyph-name="Acircumflex" unicode="&#xc2;" 
d="M383 489h672l-305 820l-28 82h-6l-27 -82zM55 54h107l524 1402h66l525 -1402h107v-54h-309v54h143l-143 381h-712l-142 -381h143v-54h-309v54zM970 1599h-70l-185 186l-183 -186h-66v17l210 206h80l214 -210v-13z" />
    <glyph glyph-name="Atilde" unicode="&#xc3;" 
d="M383 489h672l-305 820l-28 82h-6l-27 -82zM55 54h107l524 1402h66l525 -1402h107v-54h-309v54h143l-143 381h-712l-142 -381h143v-54h-309v54zM886 1613q-75 1 -153 63q-77 62 -131 62t-88 -37t-35 -98l-55 10q0 79 50 129t124 50t155 -62t133 -62t86 40q36 40 36 101
l55 -10q0 -82 -51 -134t-126 -52z" />
    <glyph glyph-name="Adieresis" unicode="&#xc4;" 
d="M383 489h672l-305 820l-28 82h-6l-27 -82zM55 54h107l524 1402h66l525 -1402h107v-54h-309v54h143l-143 381h-712l-142 -381h143v-54h-309v54zM553 1671h-137v118h137v-118zM1022 1671h-136v118h136v-118z" />
    <glyph glyph-name="Aring" unicode="&#xc5;" 
d="M383 489h672l-305 820l-28 82h-6l-27 -82zM55 54h107l524 1402h66l525 -1402h107v-54h-309v54h143l-143 381h-712l-142 -381h143v-54h-309v54zM635 1746q0 -34 23 -58q24 -22 56 -22t54 22t22 57t-22 59t-54 23q-32 1 -56 -23q-23 -24 -23 -58zM578 1744q0 56 40 98
t95 42t95 -41t39 -98q0 -57 -39 -96q-38 -39 -94 -39t-96 39t-40 95z" />
    <glyph glyph-name="AE" unicode="&#xc6;" horiz-adv-x="2026" 
d="M490 478h594l-39 924l-5 1l-57 -105zM51 54h119l849 1402h776v-293h-54v239h-642l26 -616h588v-54h-586l28 -678h647v239h54v-293h-915v54h160l-15 371h-628l-223 -371h131v-54h-315v54z" />
    <glyph glyph-name="Ccedilla" unicode="&#xc7;" horiz-adv-x="1373" 
d="M1256 992h-55v234q-67 90 -179 144t-255 53q-259 0 -421 -189t-162 -495v-20q0 -307 161 -497t412 -189q144 -1 261 53t183 144v234h55v-254q-73 -107 -198 -165t-261 -65l-8 -56q91 -8 144 -46t53 -124t-79 -138t-226 -51l-7 49q104 0 180 36t77 102t-45 92
q-46 25 -164 35l21 100q-267 5 -440 208t-173 532v18q0 330 176 535t461 205q159 0 287 -62t202 -169v-254z" />
    <glyph glyph-name="Egrave" unicode="&#xc8;" horiz-adv-x="1270" 
d="M71 0v54h163v1348h-163v54h1049v-293h-54v239h-778v-616h630v-54h-630v-678h778v239h54v-293h-1049zM669 1579l-2 -5h-75l-234 261l2 5h89z" />
    <glyph glyph-name="Eacute" unicode="&#xc9;" horiz-adv-x="1270" 
d="M71 0v54h163v1348h-163v54h1049v-293h-54v239h-778v-616h630v-54h-630v-678h778v239h54v-293h-1049zM774 1813h78l2 -5l-231 -261h-67l-2 5z" />
    <glyph glyph-name="Ecircumflex" unicode="&#xca;" horiz-adv-x="1270" 
d="M71 0v54h163v1348h-163v54h1049v-293h-54v239h-778v-616h630v-54h-630v-678h778v239h54v-293h-1049zM875 1601h-70l-185 186l-183 -186h-66v17l210 206h80l214 -210v-13z" />
    <glyph glyph-name="Edieresis" unicode="&#xcb;" horiz-adv-x="1270" 
d="M71 0v54h163v1348h-163v54h1049v-293h-54v239h-778v-616h630v-54h-630v-678h778v239h54v-293h-1049zM458 1673h-137v118h137v-118zM927 1673h-136v118h136v-118z" />
    <glyph glyph-name="Igrave" unicode="&#xcc;" horiz-adv-x="598" 
d="M109 1402v54h380v-54h-163v-1348h163v-54h-380v54h163v1348h-163zM358 1579l-2 -5h-75l-234 261l2 5h89z" />
    <glyph glyph-name="Iacute" unicode="&#xcd;" horiz-adv-x="598" 
d="M109 1402v54h380v-54h-163v-1348h163v-54h-380v54h163v1348h-163zM462 1813h78l2 -5l-231 -261h-67l-2 5z" />
    <glyph glyph-name="Icircumflex" unicode="&#xce;" horiz-adv-x="598" 
d="M109 1402v54h380v-54h-163v-1348h163v-54h-380v54h163v1348h-163zM564 1601h-70l-185 186l-183 -186h-66v17l210 206h80l214 -210v-13z" />
    <glyph glyph-name="Idieresis" unicode="&#xcf;" horiz-adv-x="598" 
d="M109 1402v54h380v-54h-163v-1348h163v-54h-380v54h163v1348h-163zM147 1673h-137v118h137v-118zM616 1673h-136v118h136v-118z" />
    <glyph glyph-name="Eth" unicode="&#xd0;" horiz-adv-x="1416" 
d="M723 713h-405v-659h349q227 0 387 166t160 419v181q0 250 -160 416t-387 166h-349v-635h405v-54zM667 1456q251 0 426 -180t175 -459v-178q0 -280 -175 -459.5t-426 -179.5h-566v54h163v659h-128v54h128v635h-163v54h566z" />
    <glyph glyph-name="Ntilde" unicode="&#xd1;" horiz-adv-x="1517" 
d="M1446 1456v-54h-163v-1402h-54l-934 1356l-6 -2v-1300h163v-54h-381v54h163v1348h-163v54h218l934 -1353l6 2v1297h-163v54h380zM898 1615q-75 1 -153 63q-77 62 -131 62t-88 -37t-35 -98l-55 10q0 79 50 129t124 50t155 -62t133 -62t86 40q36 40 36 101l55 -10
q0 -82 -51 -134t-126 -52z" />
    <glyph glyph-name="Ograve" unicode="&#xd2;" horiz-adv-x="1488" 
d="M1294 739q0 309 -152 497t-404 187q-252 1 -402 -187t-151 -497v-20q0 -311 151 -499t404 -187q254 -1 404 187t150 499v20zM1348 719q0 -336 -168 -538t-440 -202q-272 1 -441 203t-169 537v18q0 335 168 537t440 203q272 -1 440 -203q170 -202 170 -537v-18zM787 1600
l-2 -5h-75l-234 261l2 5h89z" />
    <glyph glyph-name="Oacute" unicode="&#xd3;" horiz-adv-x="1488" 
d="M1294 739q0 309 -152 497t-404 187q-252 1 -402 -187t-151 -497v-20q0 -311 151 -499t404 -187q254 -1 404 187t150 499v20zM1348 719q0 -336 -168 -538t-440 -202q-272 1 -441 203t-169 537v18q0 335 168 537t440 203q272 -1 440 -203q170 -202 170 -537v-18zM892 1834
h78l2 -5l-231 -261h-67l-2 5z" />
    <glyph glyph-name="Ocircumflex" unicode="&#xd4;" horiz-adv-x="1488" 
d="M1294 739q0 309 -152 497t-404 187q-252 1 -402 -187t-151 -497v-20q0 -311 151 -499t404 -187q254 -1 404 187t150 499v20zM1348 719q0 -336 -168 -538t-440 -202q-272 1 -441 203t-169 537v18q0 335 168 537t440 203q272 -1 440 -203q170 -202 170 -537v-18zM993 1622
h-70l-185 186l-183 -186h-66v17l210 206h80l214 -210v-13z" />
    <glyph glyph-name="Otilde" unicode="&#xd5;" horiz-adv-x="1488" 
d="M1294 739q0 309 -152 497t-404 187q-252 1 -402 -187t-151 -497v-20q0 -311 151 -499t404 -187q254 -1 404 187t150 499v20zM1348 719q0 -336 -168 -538t-440 -202q-272 1 -441 203t-169 537v18q0 335 168 537t440 203q272 -1 440 -203q170 -202 170 -537v-18zM909 1636
q-75 0 -153 62t-132 63q-54 0 -88 -37t-34 -98l-55 10q0 80 50 130t124 49q74 0 155 -62q80 -62 132 -62q52 -1 88 39t35 102l55 -10q0 -82 -51 -134t-126 -52z" />
    <glyph glyph-name="Odieresis" unicode="&#xd6;" horiz-adv-x="1488" 
d="M1294 739q0 309 -152 497t-404 187q-252 1 -402 -187t-151 -497v-20q0 -311 151 -499t404 -187q254 -1 404 187t150 499v20zM1348 719q0 -336 -168 -538t-440 -202q-272 1 -441 203t-169 537v18q0 335 168 537t440 203q272 -1 440 -203q170 -202 170 -537v-18zM576 1694
h-137v118h137v-118zM1045 1694h-136v118h136v-118z" />
    <glyph glyph-name="multiply" unicode="&#xd7;" horiz-adv-x="1044" 
d="M79 289l384 393l-357 364l39 39l356 -364l357 364l39 -39l-357 -364l385 -393l-39 -37l-384 391l-384 -391z" />
    <glyph glyph-name="Oslash" unicode="&#xd8;" horiz-adv-x="1411" 
d="M1284 719v20q0 340 -176 520l-6 1l-706 -1111q138 -116 334 -116q253 0 403.5 187.5t150.5 498.5zM728 1423q-252 0 -402.5 -187.5t-150.5 -496.5v-20q0 -346 178 -524l6 -1l705 1111q-141 118 -336 118zM1338 737v-18q0 -336 -168.5 -538t-439.5 -202q-214 0 -363 125
l-113 -179h-66l137 217q-205 203 -205 577v18q0 335 168 537.5t440 202.5q209 0 365 -127l92 145h66l-116 -183q203 -209 203 -575z" />
    <glyph glyph-name="Ugrave" unicode="&#xd9;" horiz-adv-x="1441" 
d="M440 1456v-54h-163v-933q0 -205 124 -321q123 -116 319 -115q196 -1 320 115t124 321v933h-163v54h380v-54h-163v-933q0 -238 -138 -364t-360 -126q-222 1 -360 127t-137 363v933h-163v54h380zM777 1567l-2 -5h-75l-234 261l2 5h89z" />
    <glyph glyph-name="Uacute" unicode="&#xda;" horiz-adv-x="1441" 
d="M440 1456v-54h-163v-933q0 -205 124 -321q123 -116 319 -115q196 -1 320 115t124 321v933h-163v54h380v-54h-163v-933q0 -238 -138 -364t-360 -126q-222 1 -360 127t-137 363v933h-163v54h380zM882 1801h78l2 -5l-231 -261h-67l-2 5z" />
    <glyph glyph-name="Ucircumflex" unicode="&#xdb;" horiz-adv-x="1441" 
d="M440 1456v-54h-163v-933q0 -205 124 -321q123 -116 319 -115q196 -1 320 115t124 321v933h-163v54h380v-54h-163v-933q0 -238 -138 -364t-360 -126q-222 1 -360 127t-137 363v933h-163v54h380zM983 1589h-70l-185 186l-183 -186h-66v17l210 206h80l214 -210v-13z" />
    <glyph glyph-name="Udieresis" unicode="&#xdc;" horiz-adv-x="1441" 
d="M440 1456v-54h-163v-933q0 -205 124 -321q123 -116 319 -115q196 -1 320 115t124 321v933h-163v54h380v-54h-163v-933q0 -238 -138 -364t-360 -126q-222 1 -360 127t-137 363v933h-163v54h380zM566 1661h-137v118h137v-118zM1035 1661h-136v118h136v-118z" />
    <glyph glyph-name="Yacute" unicode="&#xdd;" horiz-adv-x="1429" 
d="M371 1402h-131l449 -755l26 -50l27 50l451 755h-131v54h316v-54h-120l-514 -849v-499h163v-54h-381v54h163v499l-515 849h-119v54h316v-54zM878 1802h78l2 -5l-231 -261h-67l-2 5z" />
    <glyph glyph-name="Thorn" unicode="&#xde;" horiz-adv-x="1240" 
d="M287 1089v-701h371q195 0 295.5 104t100.5 246t-100 246.5t-296 104.5h-371zM70 54h163v1348h-163v54h380v-54h-163v-259h371q212 0 331 -112.5t119 -292.5t-119 -292t-331 -112h-371v-280h163v-54h-380v54z" />
    <glyph glyph-name="germandbls" unicode="&#xdf;" horiz-adv-x="1243" 
d="M272 0h-217v54h163v1028q0 188 89 290t250 102q123 0 207.5 -73t84.5 -185t-59.5 -215t-59.5 -197t193 -235t193 -287t-114 -224.5t-253 -78.5q-87 0 -179.5 26t-132.5 63l25 49q42 -34 122.5 -59.5t156.5 -25.5q140 0 230.5 71.5t90.5 183.5t-193 251t-193 264
q0 105 56.5 212.5t56.5 195.5t-67.5 149t-154.5 61q-134 0 -214.5 -87.5t-80.5 -250.5v-1082z" />
    <glyph glyph-name="agrave" unicode="&#xe0;" horiz-adv-x="1132" 
d="M443 32q137 0 250 69t170 191v257h-266q-199 1 -319 -77t-120 -190t74 -182q74 -68 211 -68zM863 183v16q-61 -97 -173 -159t-262 -61q-150 -1 -238 81q-86 82 -86 221t133 231t357 92h269v158q-1 134 -87 210t-243 76q-210 0 -345 -109l-1 -173h-54l1 206q78 58 182 94
t217 36q174 0 279 -88t105 -254v-542q0 -89 15 -164h130v-54h-177q-22 120 -22 183zM584 1259l-2 -5h-75l-234 261l2 5h89z" />
    <glyph glyph-name="aacute" unicode="&#xe1;" horiz-adv-x="1132" 
d="M443 32q137 0 250 69t170 191v257h-266q-199 1 -319 -77t-120 -190t74 -182q74 -68 211 -68zM863 183v16q-61 -97 -173 -159t-262 -61q-150 -1 -238 81q-86 82 -86 221t133 231t357 92h269v158q-1 134 -87 210t-243 76q-210 0 -345 -109l-1 -173h-54l1 206q78 58 182 94
t217 36q174 0 279 -88t105 -254v-542q0 -89 15 -164h130v-54h-177q-22 120 -22 183zM689 1493h78l2 -5l-231 -261h-67l-2 5z" />
    <glyph glyph-name="acircumflex" unicode="&#xe2;" horiz-adv-x="1132" 
d="M443 32q137 0 250 69t170 191v257h-266q-199 1 -319 -77t-120 -190t74 -182q74 -68 211 -68zM863 183v16q-61 -97 -173 -159t-262 -61q-150 -1 -238 81q-86 82 -86 221t133 231t357 92h269v158q-1 134 -87 210t-243 76q-210 0 -345 -109l-1 -173h-54l1 206q78 58 182 94
t217 36q174 0 279 -88t105 -254v-542q0 -89 15 -164h130v-54h-177q-22 120 -22 183zM790 1281h-70l-185 186l-183 -186h-66v17l210 206h80l214 -210v-13z" />
    <glyph glyph-name="atilde" unicode="&#xe3;" horiz-adv-x="1132" 
d="M443 32q137 0 250 69t170 191v257h-266q-199 1 -319 -77t-120 -190t74 -182q74 -68 211 -68zM863 183v16q-61 -97 -173 -159t-262 -61q-150 -1 -238 81q-86 82 -86 221t133 231t357 92h269v158q-1 134 -87 210t-243 76q-210 0 -345 -109l-1 -173h-54l1 206q78 58 182 94
t217 36q174 0 279 -88t105 -254v-542q0 -89 15 -164h130v-54h-177q-22 120 -22 183zM706 1295q-75 1 -153 63q-77 62 -131 62t-88 -37t-35 -98l-55 10q0 79 50 129t124 50t155 -62t133 -62t86 40q36 40 36 101l55 -10q0 -82 -51 -134t-126 -52z" />
    <glyph glyph-name="adieresis" unicode="&#xe4;" horiz-adv-x="1132" 
d="M443 32q137 0 250 69t170 191v257h-266q-199 1 -319 -77t-120 -190t74 -182q74 -68 211 -68zM863 183v16q-61 -97 -173 -159t-262 -61q-150 -1 -238 81q-86 82 -86 221t133 231t357 92h269v158q-1 134 -87 210t-243 76q-210 0 -345 -109l-1 -173h-54l1 206q78 58 182 94
t217 36q174 0 279 -88t105 -254v-542q0 -89 15 -164h130v-54h-177q-22 120 -22 183zM373 1353h-137v118h137v-118zM842 1353h-136v118h136v-118z" />
    <glyph glyph-name="aring" unicode="&#xe5;" horiz-adv-x="1132" 
d="M443 32q137 0 250 69t170 191v257h-266q-199 1 -319 -77t-120 -190t74 -182q74 -68 211 -68zM863 183v16q-61 -97 -173 -159t-262 -61q-150 -1 -238 81q-86 82 -86 221t133 231t357 92h269v158q-1 134 -87 210t-243 76q-210 0 -345 -109l-1 -173h-54l1 206q78 58 182 94
t217 36q174 0 279 -88t105 -254v-542q0 -89 15 -164h130v-54h-177q-22 120 -22 183zM455 1428q0 -34 23 -58q24 -22 56 -22t54 22t22 57t-22 59t-54 23q-32 1 -56 -23q-23 -24 -23 -58zM398 1426q0 56 40 98t95 42t95 -41t39 -98q0 -57 -39 -96q-38 -39 -94 -39t-96 39
t-40 95z" />
    <glyph glyph-name="ae" unicode="&#xe6;" horiz-adv-x="1779" 
d="M1261 1048q-163 0 -264.5 -116.5t-114.5 -294.5l2 -5h723v32q0 168 -91.5 276t-254.5 108zM444 31q137 0 244 65.5t129 128.5v350h-288q-185 0 -281 -84t-96 -206t77.5 -188t214.5 -66zM817 720q0 328 -300 328q-154 0 -246.5 -78t-92.5 -199l-45 6l-2 6
q-5 138 103.5 228.5t268.5 90.5q314 0 361 -288q53 133 157 210.5t236 77.5q188 0 296 -118.5t108 -323.5v-83h-787v-77q0 -208 99 -337.5t301 -129.5t330 131l30 -42q-65 -66 -148.5 -104.5t-219.5 -38.5t-238.5 66t-155.5 185v-12h1q-44 -95 -153 -167t-273 -72t-257 82
t-93 231t111.5 243.5t318.5 94.5h290v90z" />
    <glyph glyph-name="ccedilla" unicode="&#xe7;" horiz-adv-x="1086" 
d="M556 1048q-202 0 -300 -136t-98 -350v-42q0 -216 98 -352t290 -135q137 0 242 75t105 225h46l2 -6q3 -159 -117 -253q-101 -79 -228 -93l-10 -66q91 -7 144 -45t53 -125q0 -85 -79 -137t-226 -52l-7 49q105 0 181 36q76 37 76 103t-46 91t-163 35l23 109q-204 2 -321 150
t-117 391v42q0 242 117 391t323 149q122 0 226 -50t167 -137v-232h-54v212q-125 153 -327 153z" />
    <glyph glyph-name="egrave" unicode="&#xe8;" horiz-adv-x="1104" 
d="M562 1048q-160 0 -267 -118t-121 -293l3 -6h746v33q0 164 -100 274q-101 110 -261 110zM112 500v64q0 234 130 386t317 152t303 -120t115 -322v-83h-811v-77q0 -196 115 -332t285 -135q226 0 342 132l29 -42q-130 -144 -371 -144q-186 -1 -320 149t-134 372zM617 1258
l-2 -5h-75l-234 261l2 5h89z" />
    <glyph glyph-name="eacute" unicode="&#xe9;" horiz-adv-x="1104" 
d="M562 1048q-160 0 -267 -118t-121 -293l3 -6h746v33q0 164 -100 274q-101 110 -261 110zM112 500v64q0 234 130 386t317 152t303 -120t115 -322v-83h-811v-77q0 -196 115 -332t285 -135q226 0 342 132l29 -42q-130 -144 -371 -144q-186 -1 -320 149t-134 372zM722 1492h78
l2 -5l-231 -261h-67l-2 5z" />
    <glyph glyph-name="ecircumflex" unicode="&#xea;" horiz-adv-x="1104" 
d="M562 1048q-160 0 -267 -118t-121 -293l3 -6h746v33q0 164 -100 274q-101 110 -261 110zM112 500v64q0 234 130 386t317 152t303 -120t115 -322v-83h-811v-77q0 -196 115 -332t285 -135q226 0 342 132l29 -42q-130 -144 -371 -144q-186 -1 -320 149t-134 372zM823 1280
h-70l-185 186l-183 -186h-66v17l210 206h80l214 -210v-13z" />
    <glyph glyph-name="edieresis" unicode="&#xeb;" horiz-adv-x="1104" 
d="M562 1048q-160 0 -267 -118t-121 -293l3 -6h746v33q0 164 -100 274q-101 110 -261 110zM112 500v64q0 234 130 386t317 152t303 -120t115 -322v-83h-811v-77q0 -196 115 -332t285 -135q226 0 342 132l29 -42q-130 -144 -371 -144q-186 -1 -320 149t-134 372zM406 1352
h-137v118h137v-118zM875 1352h-136v118h136v-118z" />
    <glyph glyph-name="igrave" unicode="&#xec;" horiz-adv-x="608" 
d="M90 1028v54h217v-1028h163v-54h-380v54h163v974h-163zM335 1236l-2 -5h-75l-234 261l2 5h89z" />
    <glyph glyph-name="iacute" unicode="&#xed;" horiz-adv-x="608" 
d="M90 1028v54h217v-1028h163v-54h-380v54h163v974h-163zM439 1471h78l2 -5l-231 -261h-67l-2 5z" />
    <glyph glyph-name="icircumflex" unicode="&#xee;" horiz-adv-x="608" 
d="M90 1028v54h217v-1028h163v-54h-380v54h163v974h-163zM541 1258h-70l-185 186l-183 -186h-66v17l210 206h80l214 -210v-13z" />
    <glyph glyph-name="idieresis" unicode="&#xef;" horiz-adv-x="608" 
d="M90 1028v54h217v-1028h163v-54h-380v54h163v974h-163zM124 1331h-137v118h137v-118zM593 1331h-136v118h136v-118z" />
    <glyph glyph-name="eth" unicode="&#xf0;" horiz-adv-x="1170" 
d="M546 895q-208 0 -310.5 -124.5t-102.5 -306.5t109.5 -304.5t291.5 -122.5t295 139.5t113 358.5v82l-1 59q-40 92 -138.5 155.5t-256.5 63.5zM996 615v-80q0 -245 -131.5 -400.5t-330.5 -155.5t-327.5 134.5t-128.5 332.5q0 241 123.5 374t344.5 133q125 0 226.5 -46.5
t153.5 -127.5l5 4q-30 311 -221 499l-338 -193l-28 48l323 185q-94 77 -234 145l20 50q159 -77 264 -166l280 160l29 -48l-266 -152q120 -122 178 -290.5t58 -405.5z" />
    <glyph glyph-name="ntilde" unicode="&#xf1;" horiz-adv-x="1320" 
d="M680 1102q178 0 266 -112t88 -353v-583h163v-54h-380v54h163v585q0 225 -80 317t-219 92q-175 0 -264 -104t-111 -268v-622h163v-54h-380v54h163v974h-163v54h209l7 -223q103 243 375 243zM809 1293q-75 1 -153 63t-132 62t-88 -37t-34 -98l-55 10q0 79 50 129t124 50
t155 -62q80 -62 132 -62t88 40t35 101l55 -10q0 -82 -51 -134t-126 -52z" />
    <glyph glyph-name="ograve" unicode="&#xf2;" horiz-adv-x="1155" 
d="M158 520q0 -204 114 -346t306 -141q192 0 305 142q114 142 114 345v42q0 198 -115 342q-116 144 -306 144t-304 -144t-114 -342v-42zM104 562q0 238 132 389t342 151t342 -151t131 -389v-42q1 -239 -131 -390t-342 -151t-342 151t-132 390v42zM632 1257l-2 -5h-75
l-234 261l2 5h89z" />
    <glyph glyph-name="oacute" unicode="&#xf3;" horiz-adv-x="1155" 
d="M158 520q0 -204 114 -346t306 -141q192 0 305 142q114 142 114 345v42q0 198 -115 342q-116 144 -306 144t-304 -144t-114 -342v-42zM104 562q0 238 132 389t342 151t342 -151t131 -389v-42q1 -239 -131 -390t-342 -151t-342 151t-132 390v42zM737 1491h78l2 -5
l-231 -261h-67l-2 5z" />
    <glyph glyph-name="ocircumflex" unicode="&#xf4;" horiz-adv-x="1155" 
d="M158 520q0 -204 114 -346t306 -141q192 0 305 142q114 142 114 345v42q0 198 -115 342q-116 144 -306 144t-304 -144t-114 -342v-42zM104 562q0 238 132 389t342 151t342 -151t131 -389v-42q1 -239 -131 -390t-342 -151t-342 151t-132 390v42zM838 1279h-70l-185 186
l-183 -186h-66v17l210 206h80l214 -210v-13z" />
    <glyph glyph-name="otilde" unicode="&#xf5;" horiz-adv-x="1155" 
d="M158 520q0 -204 114 -346t306 -141q192 0 305 142q114 142 114 345v42q0 198 -115 342q-116 144 -306 144t-304 -144t-114 -342v-42zM104 562q0 238 132 389t342 151t342 -151t131 -389v-42q1 -239 -131 -390t-342 -151t-342 151t-132 390v42zM754 1293q-75 1 -153 63
q-77 62 -131 62t-88 -37t-35 -98l-55 10q0 79 50 129t124 50t155 -62t133 -62t86 40q36 40 36 101l55 -10q0 -82 -51 -134t-126 -52z" />
    <glyph glyph-name="odieresis" unicode="&#xf6;" horiz-adv-x="1155" 
d="M158 520q0 -204 114 -346t306 -141q192 0 305 142q114 142 114 345v42q0 198 -115 342q-116 144 -306 144t-304 -144t-114 -342v-42zM104 562q0 238 132 389t342 151t342 -151t131 -389v-42q1 -239 -131 -390t-342 -151t-342 151t-132 390v42zM421 1351h-137v118h137
v-118zM890 1351h-136v118h136v-118z" />
    <glyph glyph-name="divide" unicode="&#xf7;" horiz-adv-x="1148" 
d="M632 241h-96v122h96v-122zM632 1020h-96v122h96v-122zM1072 686h-998v52h998v-52z" />
    <glyph glyph-name="oslash" unicode="&#xf8;" horiz-adv-x="1155" 
d="M579 33q190 0 304 142t114 345v42q0 114 -41 215.5t-113 164.5l-6 1l-456 -860q84 -50 198 -50zM158 562v-42q0 -126 45 -232.5t128 -167.5h6l458 864q-100 64 -218 64q-191 0 -305 -143.5t-114 -342.5zM579 -21q-124 0 -224 55l-95 -179h-63l111 209
q-97 70 -150.5 188.5t-53.5 267.5v42q0 238 131.5 389t341.5 151q136 0 245 -68l98 185h63l-116 -218q87 -73 135.5 -186t48.5 -253v-42q0 -239 -131.5 -390t-340.5 -151z" />
    <glyph glyph-name="ugrave" unicode="&#xf9;" horiz-adv-x="1222" 
d="M241 463q-1 -430 315 -430q154 0 244 83t116 220v692h-163v54h218v-1028h163v-54h-208l-8 194q-106 -215 -375 -215q-167 1 -261 119t-95 367v563h-143v54h197v-619zM586 1236l-2 -5h-75l-234 261l2 5h89z" />
    <glyph glyph-name="uacute" unicode="&#xfa;" horiz-adv-x="1222" 
d="M241 463q-1 -430 315 -430q154 0 244 83t116 220v692h-163v54h218v-1028h163v-54h-208l-8 194q-106 -215 -375 -215q-167 1 -261 119t-95 367v563h-143v54h197v-619zM691 1471h78l2 -5l-231 -261h-67l-2 5z" />
    <glyph glyph-name="ucircumflex" unicode="&#xfb;" horiz-adv-x="1222" 
d="M241 463q-1 -430 315 -430q154 0 244 83t116 220v692h-163v54h218v-1028h163v-54h-208l-8 194q-106 -215 -375 -215q-167 1 -261 119t-95 367v563h-143v54h197v-619zM792 1258h-70l-185 186l-183 -186h-66v17l210 206h80l214 -210v-13z" />
    <glyph glyph-name="udieresis" unicode="&#xfc;" horiz-adv-x="1222" 
d="M241 463q-1 -430 315 -430q154 0 244 83t116 220v692h-163v54h218v-1028h163v-54h-208l-8 194q-106 -215 -375 -215q-167 1 -261 119t-95 367v563h-143v54h197v-619zM375 1331h-137v118h137v-118zM844 1331h-136v118h136v-118z" />
    <glyph glyph-name="yacute" unicode="&#xfd;" horiz-adv-x="1185" 
d="M283 -384q91 0 143 54t92 160l65 176l-410 1022h-118v54h319v-54h-142l335 -832l40 -108h6l359 940h-142v54h320v-54h-118l-460 -1208q-44 -114 -102 -186t-187 -71q-46 0 -76 11l9 51q33 -9 67 -9zM764 1471h78l2 -5l-231 -261h-67l-2 5z" />
    <glyph glyph-name="thorn" unicode="&#xfe;" horiz-adv-x="1121" 
d="M1002 542q0 225 -90.5 365.5t-254.5 140.5t-251 -79t-124 -194v-506q40 -108 134 -172t236 -64q171 0 260.5 132t89.5 356v21zM65 -362h163v1868h-163v54h217v-671q54 99 147 156t220 57q191 0 299.5 -151.5t108.5 -408.5v-21q0 -250 -108 -396t-298 -146
q-127 0 -221.5 51t-147.5 138v-530h163v-54h-380v54z" />
    <glyph glyph-name="ydieresis" unicode="&#xff;" horiz-adv-x="1185" 
d="M283 -384q91 0 143 54t92 160l65 176l-410 1022h-118v54h319v-54h-142l335 -832l40 -108h6l359 940h-142v54h320v-54h-118l-460 -1208q-44 -114 -102 -186t-187 -71q-46 0 -76 11l9 51q33 -9 67 -9zM448 1331h-137v118h137v-118zM917 1331h-136v118h136v-118z" />
    <glyph glyph-name="Amacron" unicode="&#x100;" 
d="M383 489h672l-305 820l-28 82h-6l-27 -82zM55 54h107l524 1402h66l525 -1402h107v-54h-309v54h143l-143 381h-712l-142 -381h143v-54h-309v54zM1040 1731h-627v53h627v-53z" />
    <glyph glyph-name="amacron" unicode="&#x101;" horiz-adv-x="1132" 
d="M443 32q137 0 250 69t170 191v257h-266q-199 1 -319 -77t-120 -190t74 -182q74 -68 211 -68zM863 183v16q-61 -97 -173 -159t-262 -61q-150 -1 -238 81q-86 82 -86 221t133 231t357 92h269v158q-1 134 -87 210t-243 76q-210 0 -345 -109l-1 -173h-54l1 206q78 58 182 94
t217 36q174 0 279 -88t105 -254v-542q0 -89 15 -164h130v-54h-177q-22 120 -22 183zM860 1413h-627v53h627v-53z" />
    <glyph glyph-name="Abreve" unicode="&#x102;" 
d="M383 489h672l-305 820l-28 82h-6l-27 -82zM55 54h107l524 1402h66l525 -1402h107v-54h-309v54h143l-143 381h-712l-142 -381h143v-54h-309v54zM714 1554q-128 0 -204 68q-74 68 -69 174l2 6h46q0 -86 54 -139q55 -53 169 -53t170 54t56 138h46l2 -6q4 -106 -70 -174
t-202 -68z" />
    <glyph glyph-name="abreve" unicode="&#x103;" horiz-adv-x="1132" 
d="M443 32q137 0 250 69t170 191v257h-266q-199 1 -319 -77t-120 -190t74 -182q74 -68 211 -68zM863 183v16q-61 -97 -173 -159t-262 -61q-150 -1 -238 81q-86 82 -86 221t133 231t357 92h269v158q-1 134 -87 210t-243 76q-210 0 -345 -109l-1 -173h-54l1 206q78 58 182 94
t217 36q174 0 279 -88t105 -254v-542q0 -89 15 -164h130v-54h-177q-22 120 -22 183zM534 1236q-128 0 -204 68q-74 68 -69 174l2 6h46q0 -86 54 -139q55 -53 169 -53t170 54t56 138h46l2 -6q4 -106 -70 -174t-202 -68z" />
    <glyph glyph-name="Aogonek" unicode="&#x104;" 
d="M383 489h672l-305 820l-28 82h-6l-27 -82zM1182 -223q0 103 128 223h-235v54h143l-143 381h-712l-142 -381h143v-54h-309v54h107l524 1402h66l525 -1402h107v-54q-76 -68 -112 -116t-36 -89t16 -69t69 -29q53 0 109 38l16 -48q-59 -44 -123 -44q-65 -1 -103 35t-38 99z
" />
    <glyph glyph-name="aogonek" unicode="&#x105;" horiz-adv-x="1132" 
d="M443 32q137 0 250 69t170 191v257h-266q-199 1 -319 -77t-120 -190t74 -182q74 -68 211 -68zM863 183v16q-61 -97 -173 -159t-262 -61q-150 -1 -238 81q-86 82 -86 221t133 231t357 92h269v158q-1 134 -87 210t-243 76q-210 0 -345 -109l-1 -173h-54l1 206q78 58 182 94
t217 36q174 0 279 -88t105 -254v-542q0 -89 15 -164h130v-54q-76 -68 -112 -116t-36 -89t16 -69t69 -29q53 0 109 38l16 -48q-59 -44 -123 -44q-65 -1 -103 35t-38 99q0 103 128 223h-103q-22 120 -22 183z" />
    <glyph glyph-name="Cacute" unicode="&#x106;" horiz-adv-x="1373" 
d="M1256 992h-55v234q-67 90 -179 144t-255 53q-259 0 -421 -189t-162 -495v-20q0 -307 161 -497t412 -189q144 -1 261 53t183 144v234h55v-254q-73 -107 -206 -169t-293 -62q-277 -1 -452 205t-175 535v18q0 330 176 535t461 205q159 0 287 -62t202 -169v-254zM911 1834h78
l2 -5l-231 -261h-67l-2 5z" />
    <glyph glyph-name="cacute" unicode="&#x107;" horiz-adv-x="1086" 
d="M556 1048q-202 0 -300 -136t-98 -350v-42q0 -216 98 -352t290 -135q137 0 242 75t105 225h46l2 -6q3 -159 -117 -253t-278 -95q-206 0 -324 149t-118 392v42q0 242 117 391t323 149q122 0 226 -50t167 -137v-232h-54v212q-125 153 -327 153zM702 1491h78l2 -5l-231 -261
h-67l-2 5z" />
    <glyph glyph-name="Ccircumflex" unicode="&#x108;" horiz-adv-x="1373" 
d="M1256 992h-55v234q-67 90 -179 144t-255 53q-259 0 -421 -189t-162 -495v-20q0 -307 161 -497t412 -189q144 -1 261 53t183 144v234h55v-254q-73 -107 -206 -169t-293 -62q-277 -1 -452 205t-175 535v18q0 330 176 535t461 205q159 0 287 -62t202 -169v-254zM1012 1622
h-70l-185 186l-183 -186h-66v17l210 206h80l214 -210v-13z" />
    <glyph glyph-name="ccircumflex" unicode="&#x109;" horiz-adv-x="1086" 
d="M556 1048q-202 0 -300 -136t-98 -350v-42q0 -216 98 -352t290 -135q137 0 242 75t105 225h46l2 -6q3 -159 -117 -253t-278 -95q-206 0 -324 149t-118 392v42q0 242 117 391t323 149q122 0 226 -50t167 -137v-232h-54v212q-125 153 -327 153zM803 1279h-70l-185 186
l-183 -186h-66v17l210 206h80l214 -210v-13z" />
    <glyph glyph-name="uni010A" unicode="&#x10a;" horiz-adv-x="1373" 
d="M1256 992h-55v234q-67 90 -179 144t-255 53q-259 0 -421 -189t-162 -495v-20q0 -307 161 -497t412 -189q144 -1 261 53t183 144v234h55v-254q-73 -107 -206 -169t-293 -62q-277 -1 -452 205t-175 535v18q0 330 176 535t461 205q159 0 287 -62t202 -169v-254zM805 1659
h-95v138h95v-138z" />
    <glyph glyph-name="uni010B" unicode="&#x10b;" horiz-adv-x="1086" 
d="M556 1048q-202 0 -300 -136t-98 -350v-42q0 -216 98 -352t290 -135q137 0 242 75t105 225h46l2 -6q3 -159 -117 -253t-278 -95q-206 0 -324 149t-118 392v42q0 242 117 391t323 149q122 0 226 -50t167 -137v-232h-54v212q-125 153 -327 153zM596 1317h-95v138h95v-138z
" />
    <glyph glyph-name="Ccaron" unicode="&#x10c;" horiz-adv-x="1373" 
d="M1256 992h-55v234q-67 90 -179 144t-255 53q-259 0 -421 -189t-162 -495v-20q0 -307 161 -497t412 -189q144 -1 261 53t183 144v234h55v-254q-73 -107 -206 -169t-293 -62q-277 -1 -452 205t-175 535v18q0 330 176 535t461 205q159 0 287 -62t202 -169v-254zM1007 1820
v-16l-212 -207h-79l-214 209v14h71l183 -187l184 187h67z" />
    <glyph glyph-name="ccaron" unicode="&#x10d;" horiz-adv-x="1086" 
d="M556 1048q-202 0 -300 -136t-98 -350v-42q0 -216 98 -352t290 -135q137 0 242 75t105 225h46l2 -6q3 -159 -117 -253t-278 -95q-206 0 -324 149t-118 392v42q0 242 117 391t323 149q122 0 226 -50t167 -137v-232h-54v212q-125 153 -327 153zM798 1477v-16l-212 -207h-79
l-214 209v14h71l183 -187l184 187h67z" />
    <glyph glyph-name="Dcaron" unicode="&#x10e;" horiz-adv-x="1386" 
d="M288 1402v-1348h349q227 0 387 166t160 419v181q0 250 -160 416t-387 166h-349zM637 1456q251 0 426 -180t175 -459v-178q0 -279 -175 -459t-426 -180h-566v54h163v1348h-163v54h566zM841 1799v-16l-212 -207h-79l-214 209v14h71l183 -187l184 187h67z" />
    <glyph glyph-name="dcaron" unicode="&#x10f;" horiz-adv-x="1355" 
d="M160 521q0 -224 88 -356t261 -132q141 0 235 64t135 171v507q-39 117 -126 195t-251 78t-252 -140q-90 -140 -90 -366v-21zM512 1102q249 0 367 -219v623h-163v54h217v-1506h163v-54h-215l-2 173q-53 -89 -147 -141t-222 -53q-190 0 -298 146t-108 396v21q0 256 108 408
t300 152zM1152 1459v99h54v-97q0 -143 -86 -242l-37 32q69 100 69 208z" />
    <glyph glyph-name="Dcroat" unicode="&#x110;" horiz-adv-x="1416" 
d="M723 713h-405v-659h349q227 0 387 166t160 419v181q0 250 -160 416t-387 166h-349v-635h405v-54zM667 1456q251 0 426 -180t175 -459v-178q0 -280 -175 -459.5t-426 -179.5h-566v54h163v659h-128v54h128v635h-163v54h566z" />
    <glyph glyph-name="dcroat" unicode="&#x111;" horiz-adv-x="1235" 
d="M160 521q0 -224 88.5 -356t260.5 -132q141 0 234.5 64t135.5 171v507q-39 116 -126 194.5t-251 78.5t-253 -140.5t-89 -365.5v-21zM512 1102q249 0 367 -219v368h-309v54h309v201h-163v54h217v-255h224v-54h-224v-1197h163v-54h-215l-2 173q-53 -89 -147 -141.5
t-222 -52.5q-191 0 -298.5 146t-107.5 396v21q0 257 108 408.5t300 151.5z" />
    <glyph glyph-name="Emacron" unicode="&#x112;" horiz-adv-x="1270" 
d="M71 0v54h163v1348h-163v54h1049v-293h-54v239h-778v-616h630v-54h-630v-678h778v239h54v-293h-1049zM945 1733h-627v53h627v-53z" />
    <glyph glyph-name="emacron" unicode="&#x113;" horiz-adv-x="1104" 
d="M562 1048q-160 0 -267 -118t-121 -293l3 -6h746v33q0 164 -100 274q-101 110 -261 110zM112 500v64q0 234 130 386t317 152t303 -120t115 -322v-83h-811v-77q0 -196 115 -332t285 -135q226 0 342 132l29 -42q-130 -144 -371 -144q-186 -1 -320 149t-134 372zM893 1412
h-627v53h627v-53z" />
    <glyph glyph-name="Ebreve" unicode="&#x114;" horiz-adv-x="1270" 
d="M71 0v54h163v1348h-163v54h1049v-293h-54v239h-778v-616h630v-54h-630v-678h778v239h54v-293h-1049zM618 1556q-128 0 -202 68t-70 174l2 6h46q0 -86 54 -139t168 -53t171 54q56 54 56 138h46l2 -6q4 -106 -70 -174q-75 -68 -203 -68z" />
    <glyph glyph-name="ebreve" unicode="&#x115;" horiz-adv-x="1104" 
d="M562 1048q-160 0 -267 -118t-121 -293l3 -6h746v33q0 164 -100 274q-101 110 -261 110zM112 500v64q0 234 130 386t317 152t303 -120t115 -322v-83h-811v-77q0 -196 115 -332t285 -135q226 0 342 132l29 -42q-130 -144 -371 -144q-186 -1 -320 149t-134 372zM566 1235
q-128 -1 -202 67t-70 175l2 6h46q0 -86 54 -139t168 -53t171 54q56 54 56 138h46l2 -6q4 -107 -70 -175q-75 -68 -203 -67z" />
    <glyph glyph-name="Edotaccent" unicode="&#x116;" horiz-adv-x="1270" 
d="M71 0v54h163v1348h-163v54h1049v-293h-54v239h-778v-616h630v-54h-630v-678h778v239h54v-293h-1049zM668 1638h-95v138h95v-138z" />
    <glyph glyph-name="edotaccent" unicode="&#x117;" horiz-adv-x="1104" 
d="M562 1048q-160 0 -267 -118t-121 -293l3 -6h746v33q0 164 -100 274q-101 110 -261 110zM112 500v64q0 234 130 386t317 152t303 -120t115 -322v-83h-811v-77q0 -196 115 -332t285 -135q226 0 342 132l29 -42q-130 -144 -371 -144q-186 -1 -320 149t-134 372zM616 1318
h-95v138h95v-138z" />
    <glyph glyph-name="Eogonek" unicode="&#x118;" horiz-adv-x="1270" 
d="M464 -223q0 103 128 223h-521v54h163v1348h-163v54h1049v-293h-54v239h-778v-616h630v-54h-630v-678h778v239h54v-293h-454q-76 -68 -112 -116t-36 -89t16 -69t69 -29q53 0 109 38l16 -48q-59 -44 -123 -44q-65 -1 -103 35t-38 99z" />
    <glyph glyph-name="eogonek" unicode="&#x119;" horiz-adv-x="1104" 
d="M562 1048q-160 0 -267 -118t-121 -293l3 -6h746v33q0 164 -100 274q-101 110 -261 110zM771 -299q-65 -1 -103 35t-38 104t65 151q-60 -12 -129 -12q-186 -1 -320 149t-134 372v64q0 234 130 386t317 152t303 -120t115 -322v-83h-811v-77q0 -196 115 -332t285 -135
q118 0 199 32q7 7 15 13l8 -3q69 32 120 90l29 -42q-61 -67 -146 -104q-45 -44 -76 -84q-31 -41 -31 -82t16 -69t69 -29q53 0 109 38l16 -48q-59 -44 -123 -44z" />
    <glyph glyph-name="Ecaron" unicode="&#x11a;" horiz-adv-x="1270" 
d="M71 0v54h163v1348h-163v54h1049v-293h-54v239h-778v-616h630v-54h-630v-678h778v239h54v-293h-1049zM870 1799v-16l-212 -207h-79l-214 209v14h71l183 -187l184 187h67z" />
    <glyph glyph-name="ecaron" unicode="&#x11b;" horiz-adv-x="1104" 
d="M562 1048q-160 0 -267 -118t-121 -293l3 -6h746v33q0 164 -100 274q-101 110 -261 110zM112 500v64q0 234 130 386t317 152t303 -120t115 -322v-83h-811v-77q0 -196 115 -332t285 -135q226 0 342 132l29 -42q-130 -144 -371 -144q-186 -1 -320 149t-134 372zM818 1478
v-16l-212 -207h-79l-214 209v14h71l183 -187l184 187h67z" />
    <glyph glyph-name="Gcircumflex" unicode="&#x11c;" horiz-adv-x="1449" 
d="M184 760v-40q0 -305 156 -496t411 -191q161 0 281 47t162 101v384h-315v55h369v-464q-46 -64 -176 -120t-321 -57q-277 -1 -449 205t-172 536v38q0 319 173 519t451 200q166 1 294 -57t205 -164v-244h-54l1 224q-145 187 -446 187q-258 0 -414 -185t-156 -478zM936 1622
h-70l-185 186l-183 -186h-66v17l210 206h80l214 -210v-13z" />
    <glyph glyph-name="gcircumflex" unicode="&#x11d;" horiz-adv-x="1140" 
d="M167 521q0 -224 89 -356t247 -132q295 0 383 243v491q-38 119 -124 200t-250 81q-165 0 -255 -140t-90 -366v-21zM540 -384q162 0 254 106t92 292v157q-54 -88 -148 -140t-220 -52q-190 0 -298 146t-108 396v21q0 256 108 408t300 152q128 0 220 -59t147 -161l8 200h46
v-1068q1 -208 -109 -330t-294 -121q-184 0 -320 62l16 54q143 -63 306 -63zM823 1279h-70l-185 186l-183 -186h-66v17l210 206h80l214 -210v-13z" />
    <glyph glyph-name="Gbreve" unicode="&#x11e;" horiz-adv-x="1449" 
d="M184 760v-40q0 -305 156 -496t411 -191q161 0 281 47t162 101v384h-315v55h369v-464q-46 -64 -176 -120t-321 -57q-277 -1 -449 205t-172 536v38q0 319 173 519t451 200q166 1 294 -57t205 -164v-244h-54l1 224q-145 187 -446 187q-258 0 -414 -185t-156 -478zM680 1577
q-128 -1 -204 67q-74 68 -69 175l2 6h46q0 -86 54 -139q55 -53 169 -53t170 54t56 138h46l2 -6q4 -107 -70 -175t-202 -67z" />
    <glyph glyph-name="gbreve" unicode="&#x11f;" horiz-adv-x="1140" 
d="M167 521q0 -224 89 -356t247 -132q295 0 383 243v491q-38 119 -124 200t-250 81q-165 0 -255 -140t-90 -366v-21zM540 -384q162 0 254 106t92 292v157q-54 -88 -148 -140t-220 -52q-190 0 -298 146t-108 396v21q0 256 108 408t300 152q128 0 220 -59t147 -161l8 200h46
v-1068q1 -208 -109 -330t-294 -121q-184 0 -320 62l16 54q143 -63 306 -63zM566 1234q-128 0 -202 68t-70 174l2 6h46q0 -86 54 -139t168 -53t171 54q56 54 56 138h46l2 -6q4 -106 -70 -174q-75 -68 -203 -68z" />
    <glyph glyph-name="uni0120" unicode="&#x120;" horiz-adv-x="1449" 
d="M184 760v-40q0 -305 156 -496t411 -191q161 0 281 47t162 101v384h-315v55h369v-464q-46 -64 -176 -120t-321 -57q-277 -1 -449 205t-172 536v38q0 319 173 519t451 200q166 1 294 -57t205 -164v-244h-54l1 224q-145 187 -446 187q-258 0 -414 -185t-156 -478zM729 1659
h-95v138h95v-138z" />
    <glyph glyph-name="uni0121" unicode="&#x121;" horiz-adv-x="1140" 
d="M167 521q0 -224 89 -356t247 -132q295 0 383 243v491q-38 119 -124 200t-250 81q-165 0 -255 -140t-90 -366v-21zM540 -384q162 0 254 106t92 292v157q-54 -88 -148 -140t-220 -52q-190 0 -298 146t-108 396v21q0 256 108 408t300 152q128 0 220 -59t147 -161l8 200h46
v-1068q1 -208 -109 -330t-294 -121q-184 0 -320 62l16 54q143 -63 306 -63zM616 1317h-95v138h95v-138z" />
    <glyph glyph-name="Gcommaaccent" unicode="&#x122;" horiz-adv-x="1449" 
d="M184 760v-40q0 -305 156 -496t411 -191q161 0 281 47t162 101v384h-315v55h369v-464q-46 -64 -176 -120t-321 -57q-277 -1 -449 205t-172 536v38q0 319 173 519t451 200q166 1 294 -57t205 -164v-244h-54l1 224q-145 187 -446 187q-258 0 -414 -185t-156 -478zM674 -257
v99h54v-97q0 -143 -86 -242l-37 32q69 100 69 208z" />
    <glyph glyph-name="gcommaaccent" unicode="&#x123;" horiz-adv-x="1140" 
d="M167 521q0 -224 89 -356t247 -132q295 0 383 243v491q-38 119 -124 200t-250 81q-165 0 -255 -140t-90 -366v-21zM540 -384q162 0 254 106t92 292v157q-54 -88 -148 -140t-220 -52q-190 0 -298 146t-108 396v21q0 256 108 408t300 152q128 0 220 -59t147 -161l8 200h46
v-1068q1 -208 -109 -330t-294 -121q-184 0 -320 62l16 54q143 -63 306 -63zM598 1274h-54v128l59 188h50l-55 -184v-132z" />
    <glyph glyph-name="Hcircumflex" unicode="&#x124;" horiz-adv-x="1506" 
d="M71 1402v54h380v-54h-163v-653h930v653h-163v54h380v-54h-163v-1348h163v-54h-380v54h163v641h-930v-641h163v-54h-380v54h163v1348h-163zM972 1601h-70l-185 186l-183 -186h-66v17l210 206h80l214 -210v-13z" />
    <glyph glyph-name="hcircumflex" unicode="&#x125;" horiz-adv-x="1278" 
d="M663 1102q344 0 344 -444v-604h163v-54h-381v54h163v606q0 212 -78 300t-210 88q-175 0 -268 -104t-117 -268v-622h163v-54h-380v54h163v1452h-163v54h217v-706q50 118 147 183t237 65zM652 1600h-70l-185 186l-183 -186h-66v17l210 206h80l214 -210v-13z" />
    <glyph glyph-name="Hbar" unicode="&#x126;" horiz-adv-x="1451" 
d="M262 749h930v279h-930v-279zM1409 1456v-54h-163v-321h135v-53h-135v-974h163v-54h-380v54h163v641h-930v-641h163v-54h-380v54h163v974h-159v53h159v321h-163v54h380v-54h-163v-321h930v321h-163v54h380z" />
    <glyph glyph-name="hbar" unicode="&#x127;" horiz-adv-x="1308" 
d="M693 1102q344 0 344 -444v-604h163v-54h-381v54h163v606q0 213 -78.5 300.5t-209.5 87.5q-175 0 -268 -104.5t-117 -267.5v-622h163v-54h-380v54h163v1205h-148v54h148v193h-163v54h217v-247h385v-54h-385v-405q50 118 147 183t237 65z" />
    <glyph glyph-name="Itilde" unicode="&#x128;" horiz-adv-x="598" 
d="M109 1402v54h380v-54h-163v-1348h163v-54h-380v54h163v1348h-163zM480 1615q-75 1 -153 63q-77 62 -131 62t-88 -37t-35 -98l-55 10q0 79 50 129t124 50t155 -62t133 -62t86 40q36 40 36 101l55 -10q0 -82 -51 -134t-126 -52z" />
    <glyph glyph-name="itilde" unicode="&#x129;" horiz-adv-x="608" 
d="M90 1028v54h217v-1028h163v-54h-380v54h163v974h-163zM457 1273q-75 1 -153 63t-132 62t-88 -37t-34 -98l-55 10q0 79 50 129t124 50t155 -62q80 -62 132 -62t88 40t35 101l55 -10q0 -82 -51 -134t-126 -52z" />
    <glyph glyph-name="Imacron" unicode="&#x12a;" horiz-adv-x="598" 
d="M109 1402v54h380v-54h-163v-1348h163v-54h-380v54h163v1348h-163zM634 1733h-627v53h627v-53z" />
    <glyph glyph-name="imacron" unicode="&#x12b;" horiz-adv-x="608" 
d="M90 1028v54h217v-1028h163v-54h-380v54h163v974h-163zM611 1391h-627v53h627v-53z" />
    <glyph glyph-name="Ibreve" unicode="&#x12c;" horiz-adv-x="598" 
d="M109 1402v54h380v-54h-163v-1348h163v-54h-380v54h163v1348h-163zM308 1556q-128 0 -204 68q-74 68 -69 174l2 6h46q0 -86 54 -139q55 -53 169 -53t170 54t56 138h46l2 -6q4 -106 -70 -174t-202 -68z" />
    <glyph glyph-name="ibreve" unicode="&#x12d;" horiz-adv-x="608" 
d="M90 1028v54h217v-1028h163v-54h-380v54h163v974h-163zM284 1213q-128 -1 -202 67t-70 175l2 6h46q0 -86 54 -139t168 -53t171 54q56 54 56 138h46l2 -6q4 -107 -70 -175q-75 -68 -203 -67z" />
    <glyph glyph-name="Iogonek" unicode="&#x12e;" horiz-adv-x="598" 
d="M287 -223q0 103 128 223h-306v54h163v1348h-163v54h380v-54h-163v-1348h163v-54q-76 -68 -112 -116t-36 -89t16 -69t69 -29q53 0 109 38l16 -48q-59 -44 -123 -44q-64 -1 -102 35t-39 99z" />
    <glyph glyph-name="iogonek" unicode="&#x12f;" horiz-adv-x="609" 
d="M306 1422h-54v138h54v-138zM267 -223q0 103 128 223h-306v54h163v974h-163v54h217v-1028h163v-54q-76 -68 -112 -116t-36 -89t16 -69t69 -29q53 0 109 38l16 -48q-59 -44 -123 -44q-64 -1 -102 35t-39 99z" />
    <glyph glyph-name="Idotaccent" unicode="&#x130;" horiz-adv-x="598" 
d="M109 1402v54h380v-54h-163v-1348h163v-54h-380v54h163v1348h-163zM356 1638h-95v138h95v-138z" />
    <glyph glyph-name="dotlessi" unicode="&#x131;" horiz-adv-x="608" 
d="M90 1028v54h217v-1028h163v-54h-380v54h163v974h-163z" />
    <glyph glyph-name="IJ" unicode="&#x132;" horiz-adv-x="1735" 
d="M109 1402v54h380v-54h-163v-1348h163v-54h-380v54h163v1348h-163zM1641 1402h-163v-980q0 -203 -114 -323t-305 -120q-190 0 -305 106t-110 310l2 6h46q0 -178 97 -273t265 -95t269 105t101 284v980h-163v54h380v-54z" />
    <glyph glyph-name="ij" unicode="&#x133;" horiz-adv-x="1164" 
d="M306 1422h-54v138h54v-138zM89 54h163v974h-163v54h217v-1028h163v-54h-380v54zM987 1426h-54v134h54v-134zM708 -383q110 0 170 77t61 217v1117h-163v54h217v-1171q0 -167 -75 -257t-210 -91q-52 0 -112 20l13 52q54 -18 99 -18z" />
    <glyph glyph-name="Jcircumflex" unicode="&#x134;" horiz-adv-x="1137" 
d="M1043 1402h-163v-980q0 -203 -114 -323t-305 -120q-190 0 -305 106t-110 310l2 6h46q0 -178 97 -273t265 -95t269 105t101 284v980h-163v54h380v-54zM1139 1571h-70l-185 186l-183 -186h-66v17l210 206h80l214 -210v-13z" />
    <glyph glyph-name="jcircumflex" unicode="&#x135;" horiz-adv-x="563" 
d="M108 -383q110 1 170 77t61 217v1117h-163v54h217v-1171q0 -167 -75 -257t-210 -91q-52 0 -112 20l13 52q54 -18 99 -18zM623 1239h-70l-185 186l-183 -186h-66v17l210 206h80l214 -210v-13z" />
    <glyph glyph-name="Kcommaaccent" unicode="&#x136;" horiz-adv-x="1388" 
d="M71 54h163v1348h-163v54h380v-54h-163v-638h238l565 633l-2 5h-168v54h361v-54h-115l-596 -672l639 -676h118v-54h-361v54h163l3 6l-622 651h-223v-657h163v-54h-380v54zM606 -261v99h54v-97q0 -143 -86 -242l-37 32q69 100 69 208z" />
    <glyph glyph-name="kcommaaccent" unicode="&#x137;" horiz-adv-x="1152" 
d="M62 1506v54h217v-953h127l430 415l-2 6h-119v54h321v-54h-122l-447 -439l489 -535h117v-54h-320v54h126l2 5l-454 494h-148v-499h163v-54h-380v54h163v1452h-163zM504 -247v99h54v-97q0 -143 -86 -242l-37 32q69 100 69 208z" />
    <glyph glyph-name="kgreenlandic" unicode="&#x138;" horiz-adv-x="1155" 
d="M62 54h163v973h-163v54h217v-474h127l430 415l-2 6h-119v54h321v-54h-122l-447 -439l489 -535h117v-54h-137l-509 553h-148v-499h163v-54h-380v54z" />
    <glyph glyph-name="Lacute" unicode="&#x139;" horiz-adv-x="1161" 
d="M71 0v54h163v1348h-163v54h381v-54h-163v-1348h693v239h54v-293h-965zM412 1750h78l2 -5l-231 -261h-67l-2 5z" />
    <glyph glyph-name="lacute" unicode="&#x13a;" horiz-adv-x="581" 
d="M82 1506v54h217v-1506h163v-54h-380v54h163v1452h-163zM428 1874h78l2 -5l-231 -261h-67l-2 5z" />
    <glyph glyph-name="Lcommaaccent" unicode="&#x13b;" horiz-adv-x="1161" 
d="M71 0v54h163v1348h-163v54h381v-54h-163v-1348h693v239h54v-293h-965zM593 -247v99h54v-97q0 -143 -86 -242l-37 32q69 100 69 208z" />
    <glyph glyph-name="lcommaaccent" unicode="&#x13c;" horiz-adv-x="581" 
d="M82 1506v54h217v-1506h163v-54h-380v54h163v1452h-163zM238 -247v99h54v-97q0 -143 -86 -242l-37 32q69 100 69 208z" />
    <glyph glyph-name="Lcaron" unicode="&#x13d;" horiz-adv-x="1161" 
d="M71 0v54h163v1348h-163v54h381v-54h-163v-1348h693v239h54v-293h-965zM596 1356v99h54v-97q0 -143 -86 -242l-37 32q69 100 69 208z" />
    <glyph glyph-name="lcaron" unicode="&#x13e;" horiz-adv-x="731" 
d="M82 1506v54h217v-1506h163v-54h-380v54h163v1452h-163zM465 1459v99h54v-97q0 -143 -86 -242l-37 32q69 100 69 208z" />
    <glyph glyph-name="Ldot" unicode="&#x13f;" horiz-adv-x="1161" 
d="M71 0v54h163v1348h-163v54h381v-54h-163v-1348h693v239h54v-293h-965zM696 687h-95v138h95v-138z" />
    <glyph glyph-name="ldot" unicode="&#x140;" horiz-adv-x="801" 
d="M82 1506v54h217v-1506h163v-54h-380v54h163v1452h-163zM512 726h-95v138h95v-138z" />
    <glyph glyph-name="Lslash" unicode="&#x141;" horiz-adv-x="1161" 
d="M452 1402h-163v-626l364 116v-57l-364 -116v-665h693v239h54v-293h-965v54h163v648l-171 -54v57l171 54v643h-163v54h381v-54z" />
    <glyph glyph-name="lslash" unicode="&#x142;" horiz-adv-x="524" 
d="M279 54h163v-54h-380v54h163v706l-188 -76v59l188 76v687h-163v54h217v-719l218 89v-59l-218 -89v-728z" />
    <glyph glyph-name="Nacute" unicode="&#x143;" horiz-adv-x="1517" 
d="M1446 1456v-54h-163v-1402h-54l-934 1356l-6 -2v-1300h163v-54h-381v54h163v1348h-163v54h218l934 -1353l6 2v1297h-163v54h380zM881 1813h78l2 -5l-231 -261h-67l-2 5z" />
    <glyph glyph-name="nacute" unicode="&#x144;" horiz-adv-x="1320" 
d="M680 1102q178 0 266 -112t88 -353v-583h163v-54h-380v54h163v585q0 225 -80 317t-219 92q-175 0 -264 -104t-111 -268v-622h163v-54h-380v54h163v974h-163v54h209l7 -223q103 243 375 243zM792 1491h78l2 -5l-231 -261h-67l-2 5z" />
    <glyph glyph-name="Ncommaaccent" unicode="&#x145;" horiz-adv-x="1517" 
d="M1446 1456v-54h-163v-1402h-54l-934 1356l-6 -2v-1300h163v-54h-381v54h163v1348h-163v54h218l934 -1353l6 2v1297h-163v54h380zM694 -247v99h54v-97q0 -143 -86 -242l-37 32q69 100 69 208z" />
    <glyph glyph-name="ncommaaccent" unicode="&#x146;" horiz-adv-x="1320" 
d="M680 1102q178 0 266 -112t88 -353v-583h163v-54h-380v54h163v585q0 225 -80 317t-219 92q-175 0 -264 -104t-111 -268v-622h163v-54h-380v54h163v974h-163v54h209l7 -223q103 243 375 243zM607 -247v99h54v-97q0 -143 -86 -242l-37 32q69 100 69 208z" />
    <glyph glyph-name="Ncaron" unicode="&#x147;" horiz-adv-x="1517" 
d="M1446 1456v-54h-163v-1402h-54l-934 1356l-6 -2v-1300h163v-54h-381v54h163v1348h-163v54h218l934 -1353l6 2v1297h-163v54h380zM977 1799v-16l-212 -207h-79l-214 209v14h71l183 -187l184 187h67z" />
    <glyph glyph-name="ncaron" unicode="&#x148;" horiz-adv-x="1320" 
d="M680 1102q178 0 266 -112t88 -353v-583h163v-54h-380v54h163v585q0 225 -80 317t-219 92q-175 0 -264 -104t-111 -268v-622h163v-54h-380v54h163v974h-163v54h209l7 -223q103 243 375 243zM888 1477v-16l-212 -207h-79l-214 209v14h71l183 -187l184 187h67z" />
    <glyph glyph-name="napostrophe" unicode="&#x149;" horiz-adv-x="1320" 
d="M680 1102q178 0 266 -112t88 -353v-583h163v-54h-380v54h163v585q0 225 -80 317t-219 92q-175 0 -264 -104t-111 -268v-622h163v-54h-380v54h163v974h-163v54h209l7 -223q103 243 375 243zM107 1456v99h54v-97q0 -143 -86 -242l-37 32q69 100 69 208z" />
    <glyph glyph-name="Eng" unicode="&#x14a;" horiz-adv-x="1537" 
d="M998 -383q110 0 170.5 77t60.5 217v89l-936 1356l-6 -2v-1300h163v-54h-380v54h163v1348h-163v54h217l936 -1355l6 2v1299h-163v54h380v-54h-163v-1491q0 -167 -75.5 -257.5t-209.5 -90.5q-52 0 -112 20l13 52q46 -18 99 -18z" />
    <glyph glyph-name="eng" unicode="&#x14b;" horiz-adv-x="1225" 
d="M752 -384q110 0 170.5 77.5t60.5 217.5v728q0 225 -80.5 317t-236.5 92t-246 -103t-113 -265v-626h163v-54h-380v54h163v974h-163v54h211l6 -224q103 244 376 244q177 0 265.5 -111.5t88.5 -353.5v-726q0 -167 -75.5 -257.5t-209.5 -90.5q-63 0 -133 20l13 52
q57 -19 120 -19z" />
    <glyph glyph-name="Omacron" unicode="&#x14c;" horiz-adv-x="1488" 
d="M1294 739q0 309 -152 497t-404 187q-252 1 -402 -187t-151 -497v-20q0 -311 151 -499t404 -187q254 -1 404 187t150 499v20zM1348 719q0 -336 -168 -538t-440 -202q-272 1 -441 203t-169 537v18q0 335 168 537t440 203q272 -1 440 -203q170 -202 170 -537v-18zM1063 1754
h-627v53h627v-53z" />
    <glyph glyph-name="omacron" unicode="&#x14d;" horiz-adv-x="1155" 
d="M158 520q0 -204 114 -346t306 -141q192 0 305 142q114 142 114 345v42q0 198 -115 342q-116 144 -306 144t-304 -144t-114 -342v-42zM104 562q0 238 132 389t342 151t342 -151t131 -389v-42q1 -239 -131 -390t-342 -151t-342 151t-132 390v42zM908 1411h-627v53h627v-53z
" />
    <glyph glyph-name="Obreve" unicode="&#x14e;" horiz-adv-x="1488" 
d="M1294 739q0 309 -152 497t-404 187q-252 1 -402 -187t-151 -497v-20q0 -311 151 -499t404 -187q254 -1 404 187t150 499v20zM1348 719q0 -336 -168 -538t-440 -202q-272 1 -441 203t-169 537v18q0 335 168 537t440 203q272 -1 440 -203q170 -202 170 -537v-18zM736 1577
q-128 -1 -202 67t-70 175l2 6h46q0 -86 54 -139t168 -53t171 54q56 54 56 138h46l2 -6q4 -107 -70 -175q-75 -68 -203 -67z" />
    <glyph glyph-name="obreve" unicode="&#x14f;" horiz-adv-x="1155" 
d="M158 520q0 -204 114 -346t306 -141q192 0 305 142q114 142 114 345v42q0 198 -115 342q-116 144 -306 144t-304 -144t-114 -342v-42zM104 562q0 238 132 389t342 151t342 -151t131 -389v-42q1 -239 -131 -390t-342 -151t-342 151t-132 390v42zM582 1234q-128 0 -204 68
q-74 68 -69 174l2 6h46q0 -86 54 -139q55 -53 169 -53t170 54t56 138h46l2 -6q4 -106 -70 -174t-202 -68z" />
    <glyph glyph-name="Ohungarumlaut" unicode="&#x150;" horiz-adv-x="1488" 
d="M1294 739q0 309 -152 497t-404 187q-252 1 -402 -187t-151 -497v-20q0 -311 151 -499t404 -187q254 -1 404 187t150 499v20zM1348 719q0 -336 -168 -538t-440 -202q-272 1 -441 203t-169 537v18q0 335 168 537t440 203q272 -1 440 -203q170 -202 170 -537v-18zM751 1888
h68l3 -6l-248 -260h-62l-2 5zM1021 1888h72l2 -6l-292 -260h-65l-2 6z" />
    <glyph glyph-name="ohungarumlaut" unicode="&#x151;" horiz-adv-x="1155" 
d="M158 520q0 -204 114 -346t306 -141q192 0 305 142q114 142 114 345v42q0 198 -115 342q-116 144 -306 144t-304 -144t-114 -342v-42zM104 562q0 238 132 389t342 151t342 -151t131 -389v-42q1 -239 -131 -390t-342 -151t-342 151t-132 390v42zM596 1545h68l3 -6
l-248 -260h-62l-2 5zM866 1545h72l2 -6l-292 -260h-65l-2 6z" />
    <glyph glyph-name="OE" unicode="&#x152;" horiz-adv-x="1973" 
d="M631 1423q-211 0 -337 -149t-126 -392v-306q0 -240 127.5 -391.5t337.5 -151.5q96 0 153 3v18h163v1348h-163v18q-114 3 -155 3zM114 576v304q0 265 143 431t374 166q124 0 332 -21h872v-293h-54v239h-778v-616h630v-54h-630v-678h778v239h54v-293h-872
q-216 -21 -330 -21q-231 0 -375 166t-144 431z" />
    <glyph glyph-name="oe" unicode="&#x153;" horiz-adv-x="1932" 
d="M1452 1048q-160 0 -267 -117.5t-121 -293.5l3 -6h746v33q0 165 -100.5 274.5t-260.5 109.5zM158 520q0 -204 114 -345.5t306 -141.5t305.5 142t113.5 345v42q0 199 -115.5 342.5t-305.5 143.5t-304 -143.5t-114 -342.5v-42zM579 -21q-211 0 -343 151t-132 390v42
q0 238 131.5 389t341.5 151q165 0 284.5 -96t165.5 -259q45 161 161 258t282 97t281.5 -120t115.5 -322v-83h-811v-77q0 -196 115 -331.5t285 -135.5q226 0 342 132l29 -42q-130 -144 -371 -144q-146 0 -265 97t-165 255q-47 -163 -165.5 -257.5t-281.5 -94.5z" />
    <glyph glyph-name="Racute" unicode="&#x154;" horiz-adv-x="1364" 
d="M288 737h350q222 0 328 94q106 93 106 245t-106 238t-318 87h-360v-664zM1126 224q0 -170 117 -170h51v-54h-51q-97 0 -134 66t-37 160v143q0 148 -102 231t-289 83h-393v-630h163v-54h-380v54h163v1348h-163v54h577q230 1 354 -99t124 -291q0 -123 -78 -223t-215 -131
q157 -27 225 -115t68 -225v-147zM761 1813h78l2 -5l-231 -261h-67l-2 5z" />
    <glyph glyph-name="racute" unicode="&#x155;" horiz-adv-x="803" 
d="M659 1102q38 0 76 -11l-6 -48l-70 6q-145 1 -235 -93t-118 -247v-655h163v-54h-380v54h163v974h-163v54h207l10 -188v-37q45 117 134 181t219 64zM568 1491h78l2 -5l-231 -261h-67l-2 5z" />
    <glyph glyph-name="Rcommaaccent" unicode="&#x156;" horiz-adv-x="1364" 
d="M288 737h350q222 0 328 94q106 93 106 245t-106 238t-318 87h-360v-664zM1126 224q0 -170 117 -170h51v-54h-51q-97 0 -134 66t-37 160v143q0 148 -102 231t-289 83h-393v-630h163v-54h-380v54h163v1348h-163v54h577q230 1 354 -99t124 -291q0 -123 -78 -223t-215 -131
q157 -27 225 -115t68 -225v-147zM574 -247v99h54v-97q0 -143 -86 -242l-37 32q69 100 69 208z" />
    <glyph glyph-name="rcommaaccent" unicode="&#x157;" horiz-adv-x="803" 
d="M659 1102q38 0 76 -11l-6 -48l-70 6q-145 1 -235 -93t-118 -247v-655h163v-54h-380v54h163v974h-163v54h207l10 -188v-37q45 117 134 181t219 64zM243 -238v99h54v-97q0 -143 -86 -242l-37 32q69 100 69 208z" />
    <glyph glyph-name="Rcaron" unicode="&#x158;" horiz-adv-x="1364" 
d="M288 737h350q222 0 328 94q106 93 106 245t-106 238t-318 87h-360v-664zM1126 224q0 -170 117 -170h51v-54h-51q-97 0 -134 66t-37 160v143q0 148 -102 231t-289 83h-393v-630h163v-54h-380v54h163v1348h-163v54h577q230 1 354 -99t124 -291q0 -123 -78 -223t-215 -131
q157 -27 225 -115t68 -225v-147zM857 1799v-16l-212 -207h-79l-214 209v14h71l183 -187l184 187h67z" />
    <glyph glyph-name="rcaron" unicode="&#x159;" horiz-adv-x="803" 
d="M659 1102q38 0 76 -11l-6 -48l-70 6q-145 1 -235 -93t-118 -247v-655h163v-54h-380v54h163v974h-163v54h207l10 -188v-37q45 117 134 181t219 64zM664 1477v-16l-212 -207h-79l-214 209v14h71l183 -187l184 187h67z" />
    <glyph glyph-name="Sacute" unicode="&#x15a;" horiz-adv-x="1198" 
d="M597 1477q338 0 480 -226v-229h-54v204q-130 197 -426 197q-197 -1 -313 -89t-116 -212t96 -206t341 -146t369 -156t124 -264t-141 -272t-353 -99q-146 1 -280 55t-224 170v240h54v-217q78 -102 199 -148t251 -46q192 0 316 88q124 89 123 227t-101 220t-348 150
t-364 152q-116 86 -116 250t136 260q136 97 347 97zM777 1834h78l2 -5l-231 -261h-67l-2 5z" />
    <glyph glyph-name="sacute" unicode="&#x15b;" horiz-adv-x="1009" 
d="M813 262q0 198 -330 270q-191 40 -279 106t-87 187q0 121 98 199t264 78q117 0 215 -40t158 -107v-202h-54v175q-108 120 -319 120q-152 0 -230 -66t-78 -150q0 -86 66 -146q67 -60 255 -104t282 -116t93 -200q0 -128 -104 -208q-104 -79 -276 -79q-241 0 -384 143v193
h54v-163q111 -119 330 -119q150 0 238 70t88 159zM663 1491h78l2 -5l-231 -261h-67l-2 5z" />
    <glyph glyph-name="Scircumflex" unicode="&#x15c;" horiz-adv-x="1198" 
d="M597 1477q338 0 480 -226v-229h-54v204q-130 197 -426 197q-197 -1 -313 -89t-116 -212t96 -206t341 -146t369 -156t124 -264t-141 -272t-353 -99q-146 1 -280 55t-224 170v240h54v-217q78 -102 199 -148t251 -46q192 0 316 88q124 89 123 227t-101 220t-348 150
t-364 152q-116 86 -116 250t136 260q136 97 347 97zM878 1622h-70l-185 186l-183 -186h-66v17l210 206h80l214 -210v-13z" />
    <glyph glyph-name="scircumflex" unicode="&#x15d;" horiz-adv-x="1009" 
d="M813 262q0 198 -330 270q-191 40 -279 106t-87 187q0 121 98 199t264 78q117 0 215 -40t158 -107v-202h-54v175q-108 120 -319 120q-152 0 -230 -66t-78 -150q0 -86 66 -146q67 -60 255 -104t282 -116t93 -200q0 -128 -104 -208q-104 -79 -276 -79q-241 0 -384 143v193
h54v-163q111 -119 330 -119q150 0 238 70t88 159zM764 1279h-70l-185 186l-183 -186h-66v17l210 206h80l214 -210v-13z" />
    <glyph glyph-name="Scedilla" unicode="&#x15e;" horiz-adv-x="1198" 
d="M597 1477q338 0 480 -226v-229h-54v204q-130 197 -426 197q-197 -1 -313 -89t-116 -212t96 -206t341 -146t369 -156t124 -264t-141 -272q-118 -83 -286 -96l-10 -67q91 -7 144 -45t53 -125q0 -85 -79 -137t-226 -52l-7 49q104 0 180 36q76 37 77 103t-45 91t-164 35
l23 109h-13q-146 1 -280 55t-224 170v240h54v-217q78 -102 199 -148t251 -46q192 0 316 88q124 89 123 227t-101 220t-348 150t-364 152q-116 86 -116 250t136 260q136 97 347 97z" />
    <glyph glyph-name="scedilla" unicode="&#x15f;" horiz-adv-x="1009" 
d="M813 262q0 198 -330 270q-191 40 -279 106t-87 187q0 121 98 199t264 78q117 0 215 -40t158 -107v-202h-54v175q-108 120 -319 120q-152 0 -230 -66t-78 -150q0 -86 66 -146q67 -60 255 -104t282 -116t93 -200q0 -128 -96 -202q-96 -73 -235 -83l-9 -61q91 -8 144 -46
t53 -124t-79 -138t-226 -51l-7 49q104 0 180 36t77 102t-45 92q-46 25 -164 35l21 104q-237 2 -378 143v193h54v-163q111 -119 330 -119q150 0 238 70t88 159z" />
    <glyph glyph-name="Scaron" unicode="&#x160;" horiz-adv-x="1198" 
d="M597 1477q338 0 480 -226v-229h-54v204q-130 197 -426 197q-197 -1 -313 -89t-116 -212t96 -206t341 -146t369 -156t124 -264t-141 -272t-353 -99q-146 1 -280 55t-224 170v240h54v-217q78 -102 199 -148t251 -46q192 0 316 88q124 89 123 227t-101 220t-348 150
t-364 152q-116 86 -116 250t136 260q136 97 347 97zM873 1820v-16l-212 -207h-79l-214 209v14h71l183 -187l184 187h67z" />
    <glyph glyph-name="scaron" unicode="&#x161;" horiz-adv-x="1009" 
d="M813 262q0 198 -330 270q-191 40 -279 106t-87 187q0 121 98 199t264 78q117 0 215 -40t158 -107v-202h-54v175q-108 120 -319 120q-152 0 -230 -66t-78 -150q0 -86 66 -146q67 -60 255 -104t282 -116t93 -200q0 -128 -104 -208q-104 -79 -276 -79q-241 0 -384 143v193
h54v-163q111 -119 330 -119q150 0 238 70t88 159zM759 1477v-16l-212 -207h-79l-214 209v14h71l183 -187l184 187h67z" />
    <glyph glyph-name="uni0162" unicode="&#x162;" horiz-adv-x="1277" 
d="M1194 1456v-293h-54v239h-476v-1348h163v-54h-147l-11 -76q91 -8 144 -46t53 -124t-79 -138t-226 -51l-7 49q104 0 180 36t77 102t-45 92q-46 25 -164 35l25 121h-180v54h163v1348h-476v-239h-54v293h1114z" />
    <glyph glyph-name="uni0163" unicode="&#x163;" horiz-adv-x="719" 
d="M265 279v748h-200v55h200v292h55v-292h266v-55h-266v-748q0 -133 45 -189t105 -57q60 0 140 9l10 -49q-48 -13 -116 -14l-8 -55q91 -8 144 -46t53 -124t-79 -138t-226 -51l-7 49q105 0 181 36t76 102t-46 92q-46 25 -163 35l21 102q-185 24 -185 298z" />
    <glyph glyph-name="Tcaron" unicode="&#x164;" horiz-adv-x="1277" 
d="M1194 1456v-293h-54v239h-476v-1348h163v-54h-380v54h163v1348h-476v-239h-54v293h1114zM900 1791v-16l-212 -207h-79l-214 209v14h71l183 -187l184 187h67z" />
    <glyph glyph-name="tcaron" unicode="&#x165;" horiz-adv-x="759" 
d="M473 -21q-95 0 -151 71t-57 229v748h-200v55h200v292h55v-292h266v-55h-266v-748q0 -133 45 -189t105 -57q60 0 140 9l10 -49q-52 -14 -147 -14zM478 1440v99h54v-97q0 -143 -86 -242l-37 32q69 100 69 208z" />
    <glyph glyph-name="Tbar" unicode="&#x166;" horiz-adv-x="1277" 
d="M1194 1456v-293h-54v239h-476v-501h304v-54h-304v-793h163v-54h-380v54h163v793h-229v54h229v501h-476v-239h-54v293h1114z" />
    <glyph glyph-name="tbar" unicode="&#x167;" horiz-adv-x="719" 
d="M473 -21q-95 0 -151.5 71t-56.5 229v355h-178v54h178v339h-200v55h200v292h55v-292h266v-55h-266v-339h354v-54h-354v-355q0 -133 45 -189.5t105 -56.5t140 9l10 -49q-52 -14 -147 -14z" />
    <glyph glyph-name="Utilde" unicode="&#x168;" horiz-adv-x="1441" 
d="M440 1456v-54h-163v-933q0 -205 124 -321q123 -116 319 -115q196 -1 320 115t124 321v933h-163v54h380v-54h-163v-933q0 -238 -138 -364t-360 -126q-222 1 -360 127t-137 363v933h-163v54h380zM899 1603q-75 1 -153 63t-132 62t-88 -37t-34 -98l-55 10q0 79 50 129
t124 50t155 -62q80 -62 132 -62t88 40t35 101l55 -10q0 -82 -51 -134t-126 -52z" />
    <glyph glyph-name="utilde" unicode="&#x169;" horiz-adv-x="1222" 
d="M241 463q-1 -430 315 -430q154 0 244 83t116 220v692h-163v54h218v-1028h163v-54h-208l-8 194q-106 -215 -375 -215q-167 1 -261 119t-95 367v563h-143v54h197v-619zM708 1273q-75 1 -153 63q-77 62 -131 62t-88 -37t-35 -98l-55 10q0 79 50 129t124 50t155 -62t133 -62
t86 40q36 40 36 101l55 -10q0 -82 -51 -134t-126 -52z" />
    <glyph glyph-name="Umacron" unicode="&#x16a;" horiz-adv-x="1441" 
d="M440 1456v-54h-163v-933q0 -205 124 -321q123 -116 319 -115q196 -1 320 115t124 321v933h-163v54h380v-54h-163v-933q0 -238 -138 -364t-360 -126q-222 1 -360 127t-137 363v933h-163v54h380zM1053 1721h-627v53h627v-53z" />
    <glyph glyph-name="umacron" unicode="&#x16b;" horiz-adv-x="1222" 
d="M241 463q-1 -430 315 -430q154 0 244 83t116 220v692h-163v54h218v-1028h163v-54h-208l-8 194q-106 -215 -375 -215q-167 1 -261 119t-95 367v563h-143v54h197v-619zM862 1391h-627v53h627v-53z" />
    <glyph glyph-name="Ubreve" unicode="&#x16c;" horiz-adv-x="1441" 
d="M440 1456v-54h-163v-933q0 -205 124 -321q123 -116 319 -115q196 -1 320 115t124 321v933h-163v54h380v-54h-163v-933q0 -238 -138 -364t-360 -126q-222 1 -360 127t-137 363v933h-163v54h380zM726 1544q-128 0 -202 68t-70 174l2 6h46q0 -86 54 -139t168 -53t171 54
q56 54 56 138h46l2 -6q4 -106 -70 -174q-75 -68 -203 -68z" />
    <glyph glyph-name="ubreve" unicode="&#x16d;" horiz-adv-x="1222" 
d="M241 463q-1 -430 315 -430q154 0 244 83t116 220v692h-163v54h218v-1028h163v-54h-208l-8 194q-106 -215 -375 -215q-167 1 -261 119t-95 367v563h-143v54h197v-619zM536 1213q-128 -1 -204 67q-74 68 -69 175l2 6h46q0 -86 54 -139q55 -53 169 -53t170 54t56 138h46
l2 -6q4 -107 -70 -175t-202 -67z" />
    <glyph glyph-name="Uring" unicode="&#x16e;" horiz-adv-x="1441" 
d="M440 1456v-54h-163v-933q0 -205 124 -321q123 -116 319 -115q196 -1 320 115t124 321v933h-163v54h380v-54h-163v-933q0 -238 -138 -364t-360 -126q-222 1 -360 127t-137 363v933h-163v54h380zM648 1736q0 -34 23 -58q23 -22 55 -22t55 22q22 22 22 57t-22 59
q-23 24 -55 23q-32 1 -55 -23t-23 -58zM591 1734q0 56 40 98t95 42q54 0 94 -41t40 -98t-39 -96t-95 -39t-95 39q-40 39 -40 95z" />
    <glyph glyph-name="uring" unicode="&#x16f;" horiz-adv-x="1222" 
d="M241 463q-1 -430 315 -430q154 0 244 83t116 220v692h-163v54h218v-1028h163v-54h-208l-8 194q-106 -215 -375 -215q-167 1 -261 119t-95 367v563h-143v54h197v-619zM457 1404q0 -34 23 -56q24 -22 56 -23q32 0 54 22t22 57q0 34 -22 58t-54 24t-56 -24q-23 -24 -23 -58z
M400 1404q0 56 40 98t95 41q55 0 95 -41t39 -98q0 -57 -39 -96q-38 -39 -94 -39t-96 39q-40 40 -40 96z" />
    <glyph glyph-name="Uhungarumlaut" unicode="&#x170;" horiz-adv-x="1441" 
d="M440 1456v-54h-163v-933q0 -205 124 -321q123 -116 319 -115q196 -1 320 115t124 321v933h-163v54h380v-54h-163v-933q0 -238 -138 -364t-360 -126q-222 1 -360 127t-137 363v933h-163v54h380zM741 1855h68l3 -6l-248 -260h-62l-2 5zM1011 1855h72l2 -6l-292 -260h-65
l-2 6z" />
    <glyph glyph-name="uhungarumlaut" unicode="&#x171;" horiz-adv-x="1222" 
d="M241 463q-1 -430 315 -430q154 0 244 83t116 220v692h-163v54h218v-1028h163v-54h-208l-8 194q-106 -215 -375 -215q-167 1 -261 119t-95 367v563h-143v54h197v-619zM550 1524h68l3 -6l-248 -260h-62l-2 5zM820 1524h72l2 -6l-292 -260h-65l-2 6z" />
    <glyph glyph-name="Uogonek" unicode="&#x172;" horiz-adv-x="1441" 
d="M560 -223q0 94 108 204q-187 13 -316 132t-129 356v933h-163v54h380v-54h-163v-933q0 -205 124 -321q123 -116 319 -115q196 -1 320 115t124 321v933h-163v54h380v-54h-163v-933q0 -238 -135 -361t-343 -129q-59 -56 -93 -99q-33 -44 -33 -85t16 -69t69 -29q53 0 109 38
l16 -48q-59 -44 -123 -44q-65 -1 -103 35t-38 99z" />
    <glyph glyph-name="uogonek" unicode="&#x173;" horiz-adv-x="1222" 
d="M241 463q-1 -430 315 -430q154 0 244 83t116 220v692h-163v54h218v-1028h163v-54q-76 -68 -112 -116t-36 -89t16 -69t69 -29q53 0 109 38l16 -48q-59 -44 -123 -44q-65 -1 -103 35t-38 99q0 103 128 223h-134l-8 194q-106 -215 -375 -215q-167 1 -261 119t-95 367v563
h-143v54h197v-619z" />
    <glyph glyph-name="Wcircumflex" unicode="&#x174;" horiz-adv-x="1960" 
d="M367 1402h-150l269 -1072l63 -229h6l63 229l364 1126h60l362 -1126l62 -229h6l65 229l266 1072h-149v54h309v-54h-101l-358 -1402h-61l-381 1214l-48 145h-6l-430 -1359h-61l-359 1402h-101v54h310v-54zM1273 1601h-70l-185 186l-183 -186h-66v17l210 206h80l214 -210
v-13z" />
    <glyph glyph-name="wcircumflex" unicode="&#x175;" horiz-adv-x="1687" 
d="M374 1028h-148l206 -715l56 -222l6 -1l314 992h55l312 -992l6 1l58 222l204 715h-147v54h323v-54h-113l-299 -1028h-54l-267 813l-48 183h-6l-52 -183l-263 -813h-54l-299 1028h-112v54h322v-54zM1085 1258h-70l-185 186l-183 -186h-66v17l210 206h80l214 -210v-13z" />
    <glyph glyph-name="Ycircumflex" unicode="&#x176;" horiz-adv-x="1429" 
d="M371 1402h-131l449 -755l26 -50l27 50l451 755h-131v54h316v-54h-120l-514 -849v-499h163v-54h-381v54h163v499l-515 849h-119v54h316v-54zM979 1590h-70l-185 186l-183 -186h-66v17l210 206h80l214 -210v-13z" />
    <glyph glyph-name="ycircumflex" unicode="&#x177;" horiz-adv-x="1185" 
d="M283 -384q91 0 143 54t92 160l65 176l-410 1022h-118v54h319v-54h-142l335 -832l40 -108h6l359 940h-142v54h320v-54h-118l-460 -1208q-44 -114 -102 -186t-187 -71q-46 0 -76 11l9 51q33 -9 67 -9zM865 1258h-70l-185 186l-183 -186h-66v17l210 206h80l214 -210v-13z
" />
    <glyph glyph-name="Ydieresis" unicode="&#x178;" horiz-adv-x="1429" 
d="M371 1402h-131l449 -755l26 -50l27 50l451 755h-131v54h316v-54h-120l-514 -849v-499h163v-54h-381v54h163v499l-515 849h-119v54h316v-54zM562 1662h-137v118h137v-118zM1031 1662h-136v118h136v-118z" />
    <glyph glyph-name="Zacute" unicode="&#x179;" horiz-adv-x="1220" 
d="M1074 54v239h54v-293h-1036v44l929 1359h-835v-240h-54v293h964v-38l-930 -1364h908zM764 1813h78l2 -5l-231 -261h-67l-2 5z" />
    <glyph glyph-name="zacute" unicode="&#x17a;" horiz-adv-x="1077" 
d="M120 0v44l711 983h-656v-238h-54v293h783v-48l-711 -980h716v239h54v-293h-843zM679 1471h78l2 -5l-231 -261h-67l-2 5z" />
    <glyph glyph-name="Zdotaccent" unicode="&#x17b;" horiz-adv-x="1220" 
d="M1074 54v239h54v-293h-1036v44l929 1359h-835v-240h-54v293h964v-38l-930 -1364h908zM658 1638h-95v138h95v-138z" />
    <glyph glyph-name="zdotaccent" unicode="&#x17c;" horiz-adv-x="1077" 
d="M120 0v44l711 983h-656v-238h-54v293h783v-48l-711 -980h716v239h54v-293h-843zM573 1296h-95v138h95v-138z" />
    <glyph glyph-name="Zcaron" unicode="&#x17d;" horiz-adv-x="1220" 
d="M1074 54v239h54v-293h-1036v44l929 1359h-835v-240h-54v293h964v-38l-930 -1364h908zM860 1799v-16l-212 -207h-79l-214 209v14h71l183 -187l184 187h67z" />
    <glyph glyph-name="zcaron" unicode="&#x17e;" horiz-adv-x="1077" 
d="M120 0v44l711 983h-656v-238h-54v293h783v-48l-711 -980h716v239h54v-293h-843zM775 1457v-16l-212 -207h-79l-214 209v14h71l183 -187l184 187h67z" />
    <glyph glyph-name="longs" unicode="&#x17f;" horiz-adv-x="699" 
d="M274 1260v-1206h163v-54h-380v54h163v1206q0 154 74 237.5t208 83.5q73 0 128 -17l-8 -52q-56 15 -119 15q-108 0 -168.5 -70.5t-60.5 -196.5z" />
    <glyph glyph-name="florin" unicode="&#x192;" horiz-adv-x="780" 
d="M624 1527q-108 0 -169 -71t-61 -196v-178h286v-55h-286v-1116q0 -167 -75 -257.5t-210 -90.5q-52 0 -112 20l13 52q54 -18 99 -18q110 0 170.5 76.5t60.5 217.5v1116h-188v55h188v178q0 153 74.5 237t208.5 84q71 0 128 -17l-8 -52q-60 15 -119 15z" />
    <glyph glyph-name="Ohorn" unicode="&#x1a0;" horiz-adv-x="1453" 
d="M1284 739q0 309 -152 496.5t-404 187.5t-402.5 -187.5t-150.5 -496.5v-20q0 -311 151 -498.5t404 -187.5t403.5 187.5t150.5 498.5v20zM1338 737v-18q0 -336 -168 -538t-440 -202t-441 202.5t-169 537.5v18q0 335 168 537.5t440 202.5q146 0 266.5 -62t202.5 -177
q142 2 195 75t53 228h54q0 -169 -62.5 -257t-206.5 -99q108 -189 108 -448z" />
    <glyph glyph-name="ohorn" unicode="&#x1a1;" horiz-adv-x="1241" 
d="M158 520q0 -204 114 -345.5t306 -141.5t305.5 142t113.5 345v42q0 199 -115.5 342.5t-305.5 143.5t-304 -143.5t-114 -342.5v-42zM1051 562v-42q0 -239 -131.5 -390t-341.5 -151t-342 151t-132 390v42q0 238 131.5 389t339.5 151t343 -149q116 4 156.5 62.5t40.5 180.5
h55q0 -136 -49 -208.5t-164 -85.5q94 -144 94 -340z" />
    <glyph glyph-name="Uhorn" unicode="&#x1af;" horiz-adv-x="1509" 
d="M1218 1456v-198l6 -2q128 1 177 73t49 222h47l3 -5q3 -170 -63 -257.5t-219 -94.5v-725q0 -238 -138 -364t-360 -126t-359.5 126.5t-137.5 363.5v933h-163v54h380v-54h-163v-933q0 -205 123.5 -320.5t319.5 -115.5t320 115.5t124 320.5v933h-163v54h217z" />
    <glyph glyph-name="uhorn" unicode="&#x1b0;" horiz-adv-x="1319" 
d="M269 463q-1 -430 315 -430q154 0 244.5 83t115.5 220v692h-163v54h218v-138l6 -2q115 -2 155.5 55.5t40.5 181.5h48l2 -5q3 -144 -54.5 -217t-197.5 -76v-827h163v-54h-208l-8 194q-106 -215 -375 -215q-167 0 -261.5 118.5t-94.5 367.5v563h-143v54h197v-619z" />
    <glyph glyph-name="uni01F0" unicode="&#x1f0;" horiz-adv-x="563" 
d="M108 -383q110 1 170 77t61 217v1117h-163v54h217v-1171q0 -167 -75 -257t-210 -91q-52 0 -112 20l13 52q54 -18 99 -18zM618 1437v-16l-212 -207h-79l-214 209v14h71l183 -187l184 187h67z" />
    <glyph glyph-name="Aringacute" unicode="&#x1fa;" 
d="M383 489h672l-305 820l-28 82h-6l-27 -82zM55 54h107l507 1356q-30 10 -62 41q-32 32 -32 90q1 58 41 100t97 42t97 -42t41 -100q-1 -58 -41 -98q-20 -19 -42 -29l509 -1360h107v-54h-309v54h143l-143 381h-712l-142 -381h143v-54h-309v54zM626 1542q0 -38 21 -60
q21 -21 43 -26h48q21 6 41 26q21 22 21 60t-25 64t-61 26t-62 -26t-26 -64zM859 1928h72l3 -6l-179 -185h-59l-2 5z" />
    <glyph glyph-name="aringacute" unicode="&#x1fb;" horiz-adv-x="1132" 
d="M443 32q137 0 250 69t170 191v257h-266q-199 1 -319 -77t-120 -190t74 -182q74 -68 211 -68zM863 183v16q-61 -97 -173 -159t-262 -61q-150 -1 -238 81q-86 82 -86 221t133 231t357 92h269v158q-1 134 -87 210t-243 76q-210 0 -345 -109l-1 -173h-54l1 206
q149 111 339 127q-19 10 -37 27q-40 40 -41 98q1 58 41 100t97 42t97 -42t41 -100q-1 -58 -41 -98q-17 -17 -37 -27q133 -13 219 -85q105 -88 105 -254v-542q0 -89 15 -164h130v-54h-177q-22 120 -22 183zM446 1224q0 -38 26 -63t62 -25t61 25t25 63t-25 65q-25 26 -61 26
t-62 -26q-26 -27 -26 -65zM679 1611h72l3 -6l-179 -185h-59l-2 5z" />
    <glyph glyph-name="AEacute" unicode="&#x1fc;" horiz-adv-x="2026" 
d="M490 478h594l-39 924l-5 1l-57 -105zM51 54h119l849 1402h776v-293h-54v239h-642l26 -616h588v-54h-586l28 -678h647v239h54v-293h-915v54h160l-15 371h-628l-223 -371h131v-54h-315v54zM1230 1813h78l2 -5l-231 -261h-67l-2 5z" />
    <glyph glyph-name="aeacute" unicode="&#x1fd;" horiz-adv-x="1779" 
d="M1261 1048q-163 0 -265 -116t-114 -295l2 -5h723v32q1 168 -91 276t-255 108zM444 31q137 -1 244 65t129 129v350h-288q-185 0 -281 -84t-96 -206t78 -188t214 -66zM817 720q0 328 -300 328q-155 0 -247 -78t-92 -199l-45 6l-2 6q-5 139 103 229t269 90q314 0 361 -288
q53 132 157 210t236 78q188 0 296 -118t108 -324v-83h-787v-77q0 -208 99 -338t301 -129q202 0 330 131l30 -42q-64 -66 -148 -104t-220 -39q-136 0 -239 66q-102 66 -155 185v-12h1q-44 -95 -153 -167t-273 -72t-257 82t-93 231q-1 150 111 244t319 94h290v90zM1014 1492
h78l2 -5l-231 -261h-67l-2 5z" />
    <glyph glyph-name="Oslashacute" unicode="&#x1fe;" horiz-adv-x="1411" 
d="M1284 719v20q0 340 -176 520l-6 1l-706 -1111q138 -116 334 -116q254 -1 404 187t150 499zM728 1423q-252 1 -402 -187t-151 -497v-20q0 -346 178 -524l6 -1l705 1111q-141 118 -336 118zM1338 737v-18q0 -336 -168 -538t-440 -202q-214 0 -363 125l-113 -179h-66
l137 217q-205 203 -205 577v18q0 335 168 537t440 203q209 0 365 -127l92 145h66l-116 -183q203 -209 203 -575zM867 1875h78l2 -5l-231 -261h-67l-2 5z" />
    <glyph glyph-name="oslashacute" unicode="&#x1ff;" horiz-adv-x="1155" 
d="M579 33q190 0 304 142t114 345v42q0 114 -41 216t-113 164l-6 1l-456 -860q84 -50 198 -50zM158 562v-42q0 -126 45 -232t128 -168h6l458 864q-100 64 -218 64q-191 0 -305 -144t-114 -342zM579 -21q-124 0 -224 55l-95 -179h-63l111 209q-96 70 -150 188t-54 268v42
q0 238 132 389t341 151q136 0 245 -68l98 185h63l-116 -218q87 -73 135 -186t49 -253v-42q1 -239 -131 -390t-341 -151zM735 1490h78l2 -5l-231 -261h-67l-2 5z" />
    <glyph glyph-name="uni0218" unicode="&#x218;" horiz-adv-x="1198" 
d="M597 1477q338 0 480 -226v-229h-54v204q-130 197 -426 197q-197 -1 -313 -89t-116 -212t96 -206t341 -146t369 -156t124 -264t-141 -272t-353 -99q-146 1 -280 55t-224 170v240h54v-217q78 -102 199 -148t251 -46q192 0 316 88q124 89 123 227t-101 220t-348 150
t-364 152q-116 86 -116 250t136 260q136 97 347 97zM590 -267v99h54v-97q0 -143 -86 -242l-37 32q69 100 69 208z" />
    <glyph glyph-name="uni0219" unicode="&#x219;" horiz-adv-x="1009" 
d="M813 262q0 198 -330 270q-191 40 -279 106t-87 187q0 121 98 199t264 78q117 0 215 -40t158 -107v-202h-54v175q-108 120 -319 120q-152 0 -230 -66t-78 -150q0 -86 66 -146q67 -60 255 -104t282 -116t93 -200q0 -128 -104 -208q-104 -79 -276 -79q-241 0 -384 143v193
h54v-163q111 -119 330 -119q150 0 238 70t88 159zM456 -262v99h54v-97q0 -143 -86 -242l-37 32q69 100 69 208z" />
    <glyph glyph-name="uni021A" unicode="&#x21a;" horiz-adv-x="1277" 
d="M1194 1456v-293h-54v239h-476v-1348h163v-54h-380v54h163v1348h-476v-239h-54v293h1114zM598 -257v99h54v-97q0 -143 -86 -242l-37 32q69 100 69 208z" />
    <glyph glyph-name="uni021B" unicode="&#x21b;" horiz-adv-x="719" 
d="M473 -21q-95 0 -151 71t-57 229v748h-200v55h200v292h55v-292h266v-55h-266v-748q0 -133 45 -189t105 -57q60 0 140 9l10 -49q-52 -14 -147 -14zM425 -257v99h54v-97q0 -143 -86 -242l-37 32q69 100 69 208z" />
    <glyph glyph-name="uni0237" unicode="&#x237;" horiz-adv-x="563" 
d="M108 -383q110 0 170.5 76.5t60.5 217.5v1117h-163v54h217v-1171q0 -167 -75 -257.5t-210 -90.5q-52 0 -112 20l13 52q54 -18 99 -18z" />
    <glyph glyph-name="schwa" unicode="&#x259;" horiz-adv-x="1032" 
d="M500 33q160 0 267 117t122 294l-3 6h-745v-33q0 -166 99.5 -275t259.5 -109zM498 1102q184 0 319 -150t135 -371v-64q0 -234 -130.5 -386t-317.5 -152t-302 119.5t-115 322.5v83h810l1 13v64q0 195 -115.5 331t-284.5 136q-226 0 -342 -132l-29 42q130 144 371 144z" />
    <glyph glyph-name="uni02BC" unicode="&#x2bc;" horiz-adv-x="320" 
d="M220 1393q0 -170 -106 -282l-37 32q45 61 67 117t22 131v169h54v-167z" />
    <glyph glyph-name="circumflex" unicode="&#x2c6;" horiz-adv-x="779" 
d="M608 1252h-70l-185 186l-183 -186h-66v17l210 206h80l214 -210v-13z" />
    <glyph glyph-name="caron" unicode="&#x2c7;" horiz-adv-x="754" 
d="M595 1475v-16l-212 -207h-79l-214 209v14h71l183 -187l184 187h67z" />
    <glyph glyph-name="breve" unicode="&#x2d8;" horiz-adv-x="819" 
d="M398 1208q-128 0 -203 67.5t-70 174.5l2 6h46q0 -86 54.5 -139t168.5 -53t170 54t56 138h46l2 -6q4 -107 -70 -174.5t-202 -67.5z" />
    <glyph glyph-name="dotaccent" unicode="&#x2d9;" horiz-adv-x="474" 
d="M247 1318h-95v138h95v-138z" />
    <glyph glyph-name="ring" unicode="&#x2da;" horiz-adv-x="623" 
d="M195 1338q0 -34 23.5 -56.5t55.5 -22.5t54 22t22 57t-22 58.5t-54 23.5t-55.5 -24t-23.5 -58zM138 1338q0 56 40 97.5t95 41.5t94.5 -41t39.5 -98t-38.5 -96t-94.5 -39t-96 39.5t-40 95.5z" />
    <glyph glyph-name="ogonek" unicode="&#x2db;" horiz-adv-x="413" 
d="M195 -357q-64 0 -102.5 35.5t-38.5 97.5q0 114 150 244l52 -20q-76 -69 -112 -116.5t-36 -88.5t16 -69.5t69 -28.5t109 38l16 -48q-59 -44 -123 -44z" />
    <glyph glyph-name="tilde" unicode="&#x2dc;" horiz-adv-x="923" 
d="M589 1286q-75 0 -153 62.5t-132 62.5t-88 -37t-34 -98l-55 10q0 80 50 129.5t124 49.5t154.5 -62t132.5 -62t87.5 39.5t35.5 101.5l55 -10q0 -82 -51 -134t-126 -52z" />
    <glyph glyph-name="hungarumlaut" unicode="&#x2dd;" horiz-adv-x="866" 
d="M350 1518h68l3 -6l-248 -260h-62l-2 5zM620 1518h72l2 -6l-292 -260h-65l-2 6z" />
    <glyph glyph-name="uni02F3" unicode="&#x2f3;" horiz-adv-x="429" 
d="M130 -238q0 -27 23 -49t55 -22t54.5 21.5t22.5 49.5t-22.5 49.5t-54.5 21.5t-55 -22t-23 -49zM72 -238q0 50 41 89.5t95 39.5t94 -39.5t40 -89.5t-40 -88.5t-94 -38.5t-95 38.5t-41 88.5z" />
    <glyph glyph-name="gravecomb" unicode="&#x300;" horiz-adv-x="476" 
d="M315 1218h-66l-162 291h75z" />
    <glyph glyph-name="acutecomb" unicode="&#x301;" horiz-adv-x="466" 
d="M271 1511h67l-159 -291h-61z" />
    <glyph glyph-name="tildecomb" unicode="&#x303;" horiz-adv-x="0" 
d="M-308 1286q-75 0 -153 62q-77 62 -131 63q-54 0 -88 -37t-35 -98l-55 10q0 80 50 130t124 49q74 0 155 -62t133 -62q52 -1 86 39q36 40 36 102l55 -10q0 -82 -51 -134t-126 -52z" />
    <glyph glyph-name="hook" unicode="&#x309;" horiz-adv-x="565" 
d="M427 1440q0 -146 -197 -159v-54h-48v99q100 8 144.5 33.5t44.5 81.5t-70.5 82.5t-165.5 26.5l7 49q126 0 205.5 -43t79.5 -116z" />
    <glyph glyph-name="uni030F" unicode="&#x30f;" horiz-adv-x="866" 
d="M671 1257l-2 -5h-62l-248 260l3 6h68zM445 1258l-2 -6h-65l-292 260l2 6h72z" />
    <glyph glyph-name="dotbelow" unicode="&#x323;" horiz-adv-x="333" 
d="M212 -295h-95v138h95v-138z" />
    <glyph glyph-name="tonos" unicode="&#x384;" horiz-adv-x="462" 
d="M229 1578h106l-146 -273h-53z" />
    <glyph glyph-name="dieresistonos" unicode="&#x385;" horiz-adv-x="964" 
d="M452 1657h137l-118 -240h-42zM278 1348h-127v108h127v-108zM757 1348h-126v108h126v-108z" />
    <glyph glyph-name="Alphatonos" unicode="&#x386;" 
d="M383 489h672l-305 820l-28 82h-6l-27 -82zM55 54h107l524 1402h66l525 -1402h107v-54h-309v54h143l-143 381h-712l-142 -381h143v-54h-309v54zM192 1577h106l-146 -273h-53z" />
    <glyph glyph-name="anoteleia" unicode="&#x387;" horiz-adv-x="472" 
d="M277 624h-118v152h118v-152z" />
    <glyph glyph-name="Epsilontonos" unicode="&#x388;" horiz-adv-x="1370" 
d="M171 0v54h163v1348h-163v54h1049v-293h-54v239h-778v-616h630v-54h-630v-678h778v239h54v-293h-1049zM21 1579h106l-146 -273h-53z" />
    <glyph glyph-name="Etatonos" unicode="&#x389;" horiz-adv-x="1606" 
d="M171 1402v54h380v-54h-163v-653h930v653h-163v54h380v-54h-163v-1348h163v-54h-380v54h163v641h-930v-641h163v-54h-380v54h163v1348h-163zM-6 1579h106l-146 -273h-53z" />
    <glyph glyph-name="Iotatonos" unicode="&#x38a;" horiz-adv-x="698" 
d="M209 1402v54h380v-54h-163v-1348h163v-54h-380v54h163v1348h-163zM22 1578h106l-146 -273h-53z" />
    <glyph glyph-name="Omicrontonos" unicode="&#x38c;" horiz-adv-x="1508" 
d="M1314 739q0 309 -152 497t-404 187q-252 1 -402 -187t-151 -497v-20q0 -311 151 -499t404 -187q254 -1 404 187t150 499v20zM1368 719q0 -336 -168 -538t-440 -202q-272 1 -441 203t-169 537v18q0 335 168 537t440 203q272 -1 440 -203q170 -202 170 -537v-18zM100 1577
h106l-146 -273h-53z" />
    <glyph glyph-name="Upsilontonos" unicode="&#x38e;" horiz-adv-x="1529" 
d="M471 1402h-131l449 -755l26 -50l27 50l451 755h-131v54h316v-54h-120l-514 -849v-499h163v-54h-381v54h163v499l-515 849h-119v54h316v-54zM-61 1577h106l-146 -273h-53z" />
    <glyph glyph-name="Omegatonos" unicode="&#x38f;" horiz-adv-x="1356" 
d="M1192 772v39q0 262 -145 437t-381 175t-378 -175q-144 -175 -144 -437v-39q0 -277 130 -448t295 -246v-78h-435v54h362q-166 91 -286 272t-120 446v37q0 285 161 477t415 191q254 0 418 -192q162 -192 162 -476v-37q0 -264 -120 -444t-284 -274h365v-54h-434v78
q163 74 291 246t128 448zM134 1577h106l-146 -273h-53z" />
    <glyph glyph-name="iotadieresistonos" unicode="&#x390;" horiz-adv-x="594" 
d="M190 279v749h-163v54h218v-803q0 -135 48 -191t137 -55q39 0 107 9l9 -50q-45 -13 -113 -13q-127 -1 -185 69t-58 231zM234 1588h137l-118 -240h-42zM60 1279h-127v108h127v-108zM539 1279h-126v108h126v-108z" />
    <glyph glyph-name="Alpha" unicode="&#x391;" 
d="M383 489h672l-305 820l-28 82h-6l-27 -82zM55 54h107l524 1402h66l525 -1402h107v-54h-309v54h143l-143 381h-712l-142 -381h143v-54h-309v54z" />
    <glyph glyph-name="Beta" unicode="&#x392;" horiz-adv-x="1303" 
d="M637 773q401 1 401 315t-421 314h-329v-629h349zM288 719v-665h421q184 0 290 91t106 239q1 148 -101 242q-102 93 -285 93h-431zM617 1456q226 0 351 -93t125 -280q0 -130 -67 -219t-189 -111q136 -18 229 -119t93 -233q1 -191 -123 -296t-327 -105h-638v54h163v1348
h-163v54h546z" />
    <glyph glyph-name="Gamma" unicode="&#x393;" horiz-adv-x="1203" 
d="M77 54h163v1348h-163v54h1025v-293h-54v239h-754v-1348h163v-54h-380v54z" />
    <glyph glyph-name="Delta" unicode="&#x394;" horiz-adv-x="1404" 
d="M113 54h1133l-537 1271l-27 72h-6l-27 -72zM647 1456h65l617 -1456h-1298z" />
    <glyph glyph-name="Delta" unicode="&#x2206;" horiz-adv-x="1404" 
d="M113 54h1133l-537 1271l-27 72h-6l-27 -72zM647 1456h65l617 -1456h-1298z" />
    <glyph glyph-name="Epsilon" unicode="&#x395;" horiz-adv-x="1270" 
d="M71 0v54h163v1348h-163v54h1049v-293h-54v239h-778v-616h630v-54h-630v-678h778v239h54v-293h-1049z" />
    <glyph glyph-name="Zeta" unicode="&#x396;" horiz-adv-x="1220" 
d="M1074 54v239h54v-293h-1036v44l929 1359h-835v-240h-54v293h964v-38l-930 -1364h908z" />
    <glyph glyph-name="Eta" unicode="&#x397;" horiz-adv-x="1506" 
d="M71 1402v54h380v-54h-163v-653h930v653h-163v54h380v-54h-163v-1348h163v-54h-380v54h163v641h-930v-641h163v-54h-380v54h163v1348h-163z" />
    <glyph glyph-name="Theta" unicode="&#x398;" horiz-adv-x="1372" 
d="M1284 739q0 309 -152 496.5t-404 187.5t-402.5 -187.5t-150.5 -496.5v-20q0 -311 151 -498.5t404 -187.5t403.5 187.5t150.5 498.5v20zM1338 719q0 -336 -168 -538t-440 -202t-441 202.5t-169 537.5v18q0 335 168 537.5t440 202.5t441 -202.5t169 -537.5v-18zM971 691
h-591v53h591v-53z" />
    <glyph glyph-name="Iota" unicode="&#x399;" horiz-adv-x="598" 
d="M109 1402v54h380v-54h-163v-1348h163v-54h-380v54h163v1348h-163z" />
    <glyph glyph-name="Kappa" unicode="&#x39a;" horiz-adv-x="1388" 
d="M71 54h163v1348h-163v54h380v-54h-163v-638h238l565 633l-2 5h-168v54h361v-54h-115l-596 -672l639 -676h118v-54h-361v54h163l3 6l-622 651h-223v-657h163v-54h-380v54z" />
    <glyph glyph-name="Lambda" unicode="&#x39b;" horiz-adv-x="1435" 
d="M52 54h107l514 1402h65l515 -1402h107v-54h-309v54h143l-459 1250l-27 84h-6l-27 -84l-457 -1250h143v-54h-309v54z" />
    <glyph glyph-name="Mu" unicode="&#x39c;" horiz-adv-x="1824" 
d="M288 54h163v-54h-380v54h163v1348h-163v54h240l596 -1370h6l598 1370h242v-54h-163v-1348h163v-54h-380v54h163v1307l-6 2l-598 -1363h-43l-595 1356l-6 -2v-1300z" />
    <glyph glyph-name="Nu" unicode="&#x39d;" horiz-adv-x="1517" 
d="M1446 1456v-54h-163v-1402h-54l-934 1356l-6 -2v-1300h163v-54h-381v54h163v1348h-163v54h218l934 -1353l6 2v1297h-163v54h380z" />
    <glyph glyph-name="Xi" unicode="&#x39e;" horiz-adv-x="1208" 
d="M301 741h601v-54h-601v54zM1079 1163h-54v240h-857v-240h-54v293h965v-293zM93 293h54v-239h917v239h54v-293h-1025v293z" />
    <glyph glyph-name="Omicron" unicode="&#x39f;" horiz-adv-x="1488" 
d="M1294 739q0 309 -152 497t-404 187q-252 1 -402 -187t-151 -497v-20q0 -311 151 -499t404 -187q254 -1 404 187t150 499v20zM1348 719q0 -336 -168 -538t-440 -202q-272 1 -441 203t-169 537v18q0 335 168 537t440 203q272 -1 440 -203q170 -202 170 -537v-18z" />
    <glyph glyph-name="Pi" unicode="&#x3a0;" horiz-adv-x="1548" 
d="M77 54h163v1348h-163v54h1364v-54h-163v-1348h163v-54h-380v54h163v1348h-930v-1348h163v-54h-380v54z" />
    <glyph glyph-name="Rho" unicode="&#x3a1;" horiz-adv-x="1255" 
d="M288 679h351q207 0 311 103t105 259q0 157 -104 259t-312 102h-351v-723zM639 1456q226 0 348 -114t122 -302q1 -189 -121 -302t-349 -113h-351v-571h163v-54h-380v54h163v1348h-163v54h568z" />
    <glyph glyph-name="Sigma" unicode="&#x3a3;" horiz-adv-x="1167" 
d="M79 0v44l547 743l-547 625v44h37l2 -3v3h893v-293h-54v240h-788l-2 -5l511 -583v-47l-523 -714h862v239h54v-293h-992z" />
    <glyph glyph-name="Tau" unicode="&#x3a4;" horiz-adv-x="1277" 
d="M1194 1456v-293h-54v239h-476v-1348h163v-54h-380v54h163v1348h-476v-239h-54v293h1114z" />
    <glyph glyph-name="Upsilon" unicode="&#x3a5;" horiz-adv-x="1429" 
d="M371 1402h-131l449 -755l26 -50l27 50l451 755h-131v54h316v-54h-120l-514 -849v-499h163v-54h-381v54h163v499l-515 849h-119v54h316v-54z" />
    <glyph glyph-name="Phi" unicode="&#x3a6;" horiz-adv-x="1448" 
d="M134 735q0 -205 147 -337.5t395 -129.5l5 2v935l-5 2q-246 2 -394 -132.5t-148 -339.5zM1286 738q0 206 -149 339t-396 130l-5 -2v-935l5 -2q247 -4 396 130t149 340zM79 736q0 224 164 376t438 154v136h-163v54h381v-54h-163v-136q274 -1 439.5 -152t165.5 -376
t-165.5 -377t-439.5 -152v-155h163v-54h-381v54h163v155q-275 1 -438.5 152t-163.5 375z" />
    <glyph glyph-name="Chi" unicode="&#x3a7;" horiz-adv-x="1391" 
d="M63 54h115l486 689l-466 659h-115v54h338v-54h-156l432 -617l433 617h-155v54h337v-54h-115l-465 -659l486 -689h115v-54h-337v54h155l-454 647l-453 -647h155v-54h-336v54z" />
    <glyph glyph-name="Psi" unicode="&#x3a8;" horiz-adv-x="1620" 
d="M966 1456v-54h-163v-923l6 -3q207 0 340 128.5t133 341.5v510h217v-54h-163v-456q0 -245 -147.5 -385.5t-385.5 -144.5v-362h163v-54h-381v54h163v362q-238 6 -384 146t-146 384v456h-163v54h218v-510q0 -211 131 -339t338 -130l6 2v923h-163v54h381z" />
    <glyph glyph-name="Omega" unicode="&#x3a9;" horiz-adv-x="1336" 
d="M1172 772v39q0 262 -145 437t-381 175t-379 -175t-143 -437v-39q0 -277 130.5 -448t294.5 -246v-78h-435v54h362q-166 91 -286 272t-120 446v37q0 285 161 476.5t415 191.5t417 -192t163 -476v-37q0 -264 -120 -444.5t-284 -273.5h365v-54h-434v78q162 75 290.5 246.5
t128.5 447.5z" />
    <glyph glyph-name="Omega" unicode="&#x2126;" horiz-adv-x="1336" 
d="M1172 772v39q0 262 -145 437t-381 175t-379 -175t-143 -437v-39q0 -277 130.5 -448t294.5 -246v-78h-435v54h362q-166 91 -286 272t-120 446v37q0 285 161 476.5t415 191.5t417 -192t163 -476v-37q0 -264 -120 -444.5t-284 -273.5h365v-54h-434v78q162 75 290.5 246.5
t128.5 447.5z" />
    <glyph glyph-name="Iotadieresis" unicode="&#x3aa;" horiz-adv-x="598" 
d="M109 1402v54h380v-54h-163v-1348h163v-54h-380v54h163v1348h-163zM147 1673h-137v118h137v-118zM616 1673h-136v118h136v-118z" />
    <glyph glyph-name="Upsilondieresis" unicode="&#x3ab;" horiz-adv-x="1429" 
d="M371 1402h-131l449 -755l26 -50l27 50l451 755h-131v54h316v-54h-120l-514 -849v-499h163v-54h-381v54h163v499l-515 849h-119v54h316v-54zM562 1662h-137v118h137v-118zM1031 1662h-136v118h136v-118z" />
    <glyph glyph-name="alphatonos" unicode="&#x3ac;" horiz-adv-x="1201" 
d="M160 521q0 -224 88 -356t249 -132q160 1 252 85t129 225v351q-36 142 -126 248t-252 106q-160 0 -250 -140t-90 -366v-21zM1058 -21q-86 -1 -130 55t-49 183q-51 -109 -145 -173t-224 -65q-190 0 -298 146t-108 396v21q0 256 108 408t300 152q130 0 222 -70t144 -195v17
l6 228h48v-827q0 -223 123 -223q22 0 65 10l11 -49q-30 -14 -73 -14zM603 1522h106l-146 -273h-53z" />
    <glyph glyph-name="epsilontonos" unicode="&#x3ad;" horiz-adv-x="1089" 
d="M542 525q-383 1 -383 -235q0 -120 99 -186t277 -66t287 74t109 189h45l2 -6q5 -150 -127 -231t-319 -81t-307 82t-120 225q0 210 249 264q-110 31 -170 97t-60 151q0 142 111 219t297 77t310 -82q123 -82 118 -211l-2 -6h-44q0 109 -108 177t-278 68t-259 -66t-89 -173
q0 -225 362 -225h165v-55h-165zM600 1521h106l-146 -273h-53z" />
    <glyph glyph-name="etatonos" unicode="&#x3ae;" horiz-adv-x="1199" 
d="M148 1038q-64 0 -132 -33l-20 46q74 41 149 41t105 -31t30 -105v-97q103 243 376 243q178 0 266 -112t88 -353v-1053h-54v1055q0 225 -80 317t-236 92t-247 -103q-90 -103 -113 -265v-680h-55l1 955q0 83 -78 83zM676 1522h106l-146 -273h-53z" />
    <glyph glyph-name="iotatonos" unicode="&#x3af;" horiz-adv-x="594" 
d="M190 279v749h-163v54h218v-803q0 -135 48 -191t137 -55q39 0 107 9l9 -50q-45 -13 -113 -13q-127 -1 -185 69t-58 231zM285 1501h106l-146 -273h-53z" />
    <glyph glyph-name="upsilondieresistonos" unicode="&#x3b0;" horiz-adv-x="1168" 
d="M145 1097q78 0 108 -31t30 -105v-576q0 -182 75 -267t205 -85q186 0 280 141t94 346q0 279 -112 562h66q47 -138 73 -258t26 -301q0 -244 -112 -394t-313 -150q-158 -1 -247 99t-89 309v573q0 83 -78 83q-64 0 -132 -33l-20 46q68 41 146 41zM513 1588h137l-118 -240h-42
zM339 1279h-127v108h127v-108zM818 1279h-126v108h126v-108z" />
    <glyph glyph-name="alpha" unicode="&#x3b1;" horiz-adv-x="1201" 
d="M160 521q0 -224 88.5 -356t248.5 -132t252 84.5t129 225.5v351q-36 142 -126.5 248t-251.5 106t-250.5 -140.5t-89.5 -365.5v-21zM1058 -21q-87 0 -130.5 55.5t-48.5 182.5q-52 -109 -145.5 -173.5t-223.5 -64.5q-191 0 -298.5 146t-107.5 396v21q0 257 108 408.5
t300 151.5q130 0 221.5 -70.5t144.5 -194.5v17l6 228h48v-827q0 -223 123 -223q22 0 65 10l11 -49q-30 -14 -73 -14z" />
    <glyph glyph-name="beta" unicode="&#x3b2;" horiz-adv-x="1146" 
d="M529 791q341 0 341 317q0 129 -86.5 222t-239.5 93t-249 -105t-96 -264v-810q39 -95 146 -153t239 -58q189 0 289.5 91.5t100.5 257.5t-105 259.5t-300 93.5h-143v56h103zM145 1054q0 182 113 302.5t282 120.5t276.5 -104.5t107.5 -269.5q0 -113 -56 -202t-158 -131
q156 -33 237.5 -136.5t81.5 -248.5q0 -191 -122 -298.5t-323 -107.5q-109 0 -217 43.5t-168 125.5v-561h-54v697q-2 22 -2 34l2 1v735z" />
    <glyph glyph-name="gamma" unicode="&#x3b3;" horiz-adv-x="1084" 
d="M84 1091q60 0 106 -42t81 -145l237 -675l48 -146h6l52 146l312 799h-142v54h308v-54h-108l-398 -1023v-420h-54v415l-305 879q-37 105 -71 135t-83 30t-84 -22l-19 41q54 28 114 28z" />
    <glyph glyph-name="delta" unicode="&#x3b4;" horiz-adv-x="1121" 
d="M141 500q0 -195 113.5 -331t305.5 -136t306 136t114 331v42q0 178 -120 303t-277 152q-201 0 -321.5 -135.5t-120.5 -319.5v-42zM215 1309q0 107 100 180.5t266 73.5t294 -77l-18 -49q-82 39 -139 55.5t-167 16.5t-196 -52.5t-86 -146.5t73 -154t266 -102t309.5 -188.5
t116.5 -323.5v-42q0 -230 -131.5 -375.5t-341.5 -145.5t-342 145.5t-132 375.5v42q0 205 113.5 336t257.5 151v11q-243 91 -243 269z" />
    <glyph glyph-name="epsilon" unicode="&#x3b5;" horiz-adv-x="1089" 
d="M542 525q-383 1 -383 -235q0 -120 99 -186t277 -66t287 73.5t109 189.5h45l2 -6q5 -150 -127 -231t-319 -81t-307 82t-120 225q0 210 249 264q-111 31 -170.5 97t-59.5 151q0 142 111 219t297 77t309.5 -81.5t118.5 -211.5l-2 -6h-44q0 110 -108 177.5t-278 67.5
t-259 -65.5t-89 -232t362 -166.5h165v-55h-165z" />
    <glyph glyph-name="zeta" unicode="&#x3b6;" horiz-adv-x="954" 
d="M887 1456v-37l-442 -579q-124 -158 -171.5 -277t-47.5 -222t81 -163.5t265 -106.5l89 -24q111 -28 160.5 -69t49.5 -121t-51 -153t-104 -96l-37 31q47 23 93 88t46 129t-38.5 90t-125.5 48l-90 24q-209 52 -300 126t-91 192t51.5 245.5t183.5 297.5l398 524h-768v53h849z
" />
    <glyph glyph-name="eta" unicode="&#x3b7;" horiz-adv-x="1199" 
d="M148 1038q-64 0 -132 -33l-20 46q74 41 149 41t105 -31t30 -105v-97q103 243 376 243q177 0 265.5 -111.5t88.5 -353.5v-1053h-54v1055q0 225 -80 317t-236 92t-246.5 -103t-113.5 -265v-680h-55l1 955q0 83 -78 83z" />
    <glyph glyph-name="theta" unicode="&#x3b8;" horiz-adv-x="1143" 
d="M961 695h-779v-119q0 -252 100 -397.5t290 -145.5t289.5 145t99.5 398v119zM182 749h779v133q0 254 -100 397.5t-290 143.5t-289.5 -143.5t-99.5 -397.5v-133zM1015 574q0 -285 -115.5 -440t-326.5 -155t-328 155.5t-117 439.5v308q0 284 116 439.5t327 155.5
t327.5 -155.5t116.5 -439.5v-308z" />
    <glyph glyph-name="iota" unicode="&#x3b9;" horiz-adv-x="594" 
d="M190 279v749h-163v54h218v-803q0 -135 48 -190.5t137 -55.5q39 0 107 9l9 -50q-45 -13 -113 -13q-126 0 -184.5 69.5t-58.5 230.5z" />
    <glyph glyph-name="kappa" unicode="&#x3ba;" horiz-adv-x="1155" 
d="M62 54h163v973h-163v54h217v-474h127l430 415l-2 6h-119v54h321v-54h-122l-447 -439l489 -535h117v-54h-137l-509 553h-148v-499h163v-54h-380v54z" />
    <glyph glyph-name="lambda" unicode="&#x3bb;" horiz-adv-x="1135" 
d="M1003 -6q-93 0 -137.5 68.5t-89.5 189.5l-264 726l-6 15h-6l-41 -106l-365 -887h-59l441 1075l-65 177q-32 105 -74 158.5t-119 53.5q-27 0 -48 -6l-9 50q20 10 56 10q110 0 160.5 -72t87.5 -186l361 -982q42 -111 81.5 -170.5t95.5 -59.5q29 0 48 7l9 -51
q-23 -10 -57 -10z" />
    <glyph glyph-name="uni03BC" unicode="&#x3bc;" horiz-adv-x="1282" 
d="M281 -416h-52v1444h-163v54h215v-642q0 -223 85 -315t221 -92q184 0 268 93t102 263v639h-163v54h217v-577h2q0 -23 -2 -67v-384h163v-54h-204l-11 205q-100 -226 -363 -226q-227 0 -315 192v-587z" />
    <glyph glyph-name="nu" unicode="&#x3bd;" horiz-adv-x="1165" 
d="M370 1028h-142l313 -799l51 -146h6l52 146l312 799h-142v54h318v-54h-118l-400 -1027l1 -1h-52l-399 1028h-118v54h318v-54z" />
    <glyph glyph-name="xi" unicode="&#x3be;" horiz-adv-x="1006" 
d="M692 1422q-210 0 -314 -75t-104 -265.5t403 -190.5h122v-56h-122q-212 0 -348.5 -96.5t-136.5 -279.5t115 -273t338 -148l42 -10q114 -27 168.5 -68.5t54.5 -113.5t-51 -131t-101 -85l-33 33q46 28 89 76t43 104t-41.5 83t-135.5 49l-42 10q-236 60 -368.5 164
t-132.5 300q0 160 91.5 265.5t251.5 146.5q-126 34 -193.5 109.5t-67.5 173.5q0 161 126.5 246t348.5 85q122 0 235 -49l-6 -50q-115 46 -231 46z" />
    <glyph glyph-name="omicron" unicode="&#x3bf;" horiz-adv-x="1155" 
d="M158 520q0 -204 114 -346t306 -141q192 0 305 142q114 142 114 345v42q0 198 -115 342q-116 144 -306 144t-304 -144t-114 -342v-42zM104 562q0 238 132 389t342 151t342 -151t131 -389v-42q1 -239 -131 -390t-342 -151t-342 151t-132 390v42z" />
    <glyph glyph-name="pi" unicode="&#x3c0;" horiz-adv-x="1266" 
d="M850 279v748h-556v-1027h-54v1027h-165v55h1028v-55h-198v-748q0 -135 48 -190.5t137 -55.5q39 0 107 9l9 -50q-45 -13 -113 -13q-126 0 -184.5 69.5t-58.5 230.5z" />
    <glyph glyph-name="rho" unicode="&#x3c1;" horiz-adv-x="1116" 
d="M907 542q0 225 -90.5 365.5t-270.5 140.5t-268.5 -128t-88.5 -305v-351q41 -106 134 -168.5t234 -62.5q171 0 260.5 132t89.5 356v21zM962 521q0 -250 -108 -396t-298 -146q-126 0 -220 50.5t-147 136.5v-582h-54v716q-1 1 -1 2v3l1 315v16q0 221 117.5 343.5
t305.5 122.5t296 -151.5t108 -408.5v-21z" />
    <glyph glyph-name="sigma1" unicode="&#x3c2;" horiz-adv-x="1089" 
d="M573 1102q166 0 278.5 -98.5t108.5 -277.5l-2 -6h-46q0 159 -98 243.5t-241 84.5q-191 0 -293 -137t-102 -349v-42q0 -197 115 -317.5t322 -166.5q126 -28 172 -71t46 -116t-48 -141t-91 -87l-35 32q40 20 80 72.5t40 115.5t-35.5 91.5t-140.5 51.5q-226 49 -353.5 179
t-127.5 357v42q0 240 122 390t329 150z" />
    <glyph glyph-name="sigma" unicode="&#x3c3;" horiz-adv-x="1237" 
d="M159 520q0 -204 113.5 -345.5t305.5 -141.5t306 142t114 345v42q0 191 -114.5 328t-305.5 137h-1q-191 -1 -304.5 -138t-113.5 -327v-42zM1135 1027h-345q123 -63 192.5 -183.5t69.5 -279.5v-43q0 -240 -131 -391t-341 -151t-342.5 151t-132.5 390v42q0 227 131 373
t341 147h558v-55z" />
    <glyph glyph-name="tau" unicode="&#x3c4;" horiz-adv-x="1035" 
d="M714 -21q-126 0 -184.5 69.5t-58.5 230.5v748h-409v55h907v-55h-443v-748q0 -135 48 -190.5t137 -55.5q31 0 118 13l9 -49q-58 -18 -124 -18zM829 46q16 2 0 1v-1z" />
    <glyph glyph-name="upsilon" unicode="&#x3c5;" horiz-adv-x="1168" 
d="M145 1097q78 0 108 -31t30 -105v-576q0 -182 75 -267t205 -85q186 0 280 141t94 346q0 279 -112 562h66q48 -138 73.5 -258.5t25.5 -300.5q0 -244 -111.5 -394t-313.5 -150q-158 0 -247 99.5t-89 308.5v573q0 83 -78 83q-64 0 -132 -33l-20 46q68 41 146 41z" />
    <glyph glyph-name="phi" unicode="&#x3c6;" horiz-adv-x="1414" 
d="M1153 540q0 202 -100 345t-253 143q-50 0 -85 -37.5t-35 -97.5v-852l6 -2q221 2 344 150.5t123 350.5zM113 546q0 183 74 322.5t189 214.5l25 -44q-106 -65 -170.5 -201.5t-64.5 -293.5q0 -216 104 -357t350 -147l6 2v851q0 90 53.5 139.5t120.5 49.5q176 0 291 -151
t115 -385t-138.5 -396t-387.5 -170v-459h-54v459q-262 10 -387.5 161t-125.5 405z" />
    <glyph glyph-name="chi" unicode="&#x3c7;" horiz-adv-x="1192" 
d="M82 54h126l361 501l-341 473h-126v54l158 -1l343 -479l306 426h-124v54h318v-54h-126l-341 -473l361 -501h126v-54l-157 1l-364 507l-327 -454h124v-54h-317v54z" />
    <glyph glyph-name="psi" unicode="&#x3c8;" horiz-adv-x="1524" 
d="M154 1099q78 0 108 -31t30 -105v-375q-1 -274 115 -409t320 -138l6 2v1038h54v-1039l6 -2q252 2 359.5 156t107.5 397t-152 489h67q67 -126 103 -230.5t36 -261.5q0 -277 -129.5 -440t-397.5 -170v-395h-54v395q-236 10 -366 159t-129 451v372q0 83 -78 83
q-64 0 -132 -33l-20 46q68 41 146 41z" />
    <glyph glyph-name="omega" unicode="&#x3c9;" horiz-adv-x="1655" 
d="M169 500q0 -195 79.5 -331t225.5 -136t227.5 110t81.5 342v285h55v-285q0 -232 81 -342t227 -110t226 136t80 331q0 287 -152 582h66q68 -150 103.5 -272t35.5 -332t-97 -354.5t-269 -144.5q-257 0 -329 272q-74 -272 -329 -272q-173 0 -269 145t-96 355t35.5 333
t103.5 270h66q-152 -289 -152 -582z" />
    <glyph glyph-name="iotadieresis" unicode="&#x3ca;" horiz-adv-x="594" 
d="M190 279v749h-163v54h218v-803q0 -135 48 -191t137 -55q39 0 107 9l9 -50q-45 -13 -113 -13q-127 -1 -185 69t-58 231zM76 1331h-137v118h137v-118zM545 1331h-136v118h136v-118z" />
    <glyph glyph-name="upsilondieresis" unicode="&#x3cb;" horiz-adv-x="1168" 
d="M145 1097q78 0 108 -31t30 -105v-576q0 -182 75 -267t205 -85q186 0 280 141t94 346q0 279 -112 562h66q47 -138 73 -258t26 -301q0 -244 -112 -394t-313 -150q-158 -1 -247 99t-89 309v573q0 83 -78 83q-64 0 -132 -33l-20 46q68 41 146 41zM355 1331h-137v118h137v-118
zM824 1331h-136v118h136v-118z" />
    <glyph glyph-name="omicrontonos" unicode="&#x3cc;" horiz-adv-x="1155" 
d="M158 520q0 -204 114 -346t306 -141q192 0 305 142q114 142 114 345v42q0 198 -115 342q-116 144 -306 144t-304 -144t-114 -342v-42zM104 562q0 238 132 389t342 151t342 -151t131 -389v-42q1 -239 -131 -390t-342 -151t-342 151t-132 390v42zM631 1522h106l-146 -273
h-53z" />
    <glyph glyph-name="upsilontonos" unicode="&#x3cd;" horiz-adv-x="1168" 
d="M145 1097q78 0 108 -31t30 -105v-576q0 -182 75 -267t205 -85q186 0 280 141t94 346q0 279 -112 562h66q47 -138 73 -258t26 -301q0 -244 -112 -394t-313 -150q-158 -1 -247 99t-89 309v573q0 83 -78 83q-64 0 -132 -33l-20 46q68 41 146 41zM565 1501h106l-146 -273h-53
z" />
    <glyph glyph-name="omegatonos" unicode="&#x3ce;" horiz-adv-x="1655" 
d="M169 500q-1 -195 79 -331t226 -136t228 110t81 342v285h55v-285q0 -232 81 -342t227 -110t226 136t80 331q0 287 -152 582h66q68 -150 104 -272t35 -332q0 -210 -97 -354q-97 -145 -269 -145q-257 0 -329 272q-74 -272 -329 -272q-173 0 -269 145t-96 355t36 333t103 270
h66q-152 -289 -152 -582zM858 1501h106l-146 -273h-53z" />
    <glyph glyph-name="uni03D1" unicode="&#x3d1;" horiz-adv-x="1288" 
d="M583 1034q0 -165 118 -275t325 -114l5 2v451q0 159 -57.5 242t-163.5 83t-166.5 -82t-60.5 -243v-64zM601 33q202 0 316 121t114 357v74q-226 8 -364 133.5t-138 317.5v62q0 172 77.5 275.5t203.5 103.5t200.5 -101t74.5 -278v-587q0 -256 -133.5 -394t-353.5 -138
t-348.5 144t-128.5 388v741l54 2v-743q0 -222 112 -350t314 -128z" />
    <glyph glyph-name="uni03D2" unicode="&#x3d2;" horiz-adv-x="1279" 
d="M173 1467q72 0 132 -52t112 -176l199 -443l50 -124h6l51 124l198 443q52 124 112 176t132 52t121 -28l-23 -41q-38 22 -91 22q-52 0 -102.5 -39.5t-104.5 -165.5l-266 -598v-617h-55v623l-271 592q-57 126 -106 165.5t-103 39.5t-89 -22l-23 41q49 28 121 28z" />
    <glyph glyph-name="uni03D6" unicode="&#x3d6;" horiz-adv-x="1700" 
d="M1210 33q144 0 223.5 136t79.5 331q0 259 -125 528h-1032q-125 -265 -125 -528q0 -195 79.5 -331t225.5 -136t227 110t81 342v287h56v-285l-1 -34q5 -215 86 -317.5t225 -102.5zM178 503q0 165 30 284t84 241h-187v55h1545v-55h-198q53 -120 83.5 -239.5t30.5 -285.5
q0 -235 -96 -379.5t-269 -144.5q-257 0 -329 270q-74 -270 -329 -270q-173 0 -269 145t-96 379z" />
    <glyph glyph-name="uni0400" unicode="&#x400;" horiz-adv-x="1270" 
d="M71 0v54h163v1348h-163v54h1049v-293h-54v239h-778v-616h630v-54h-630v-678h778v239h54v-293h-1049zM669 1579l-2 -5h-75l-234 261l2 5h89z" />
    <glyph glyph-name="uni0401" unicode="&#x401;" horiz-adv-x="1270" 
d="M71 0v54h163v1348h-163v54h1049v-293h-54v239h-778v-616h630v-54h-630v-678h778v239h54v-293h-1049zM458 1673h-137v118h137v-118zM927 1673h-136v118h136v-118z" />
    <glyph glyph-name="uni0402" unicode="&#x402;" horiz-adv-x="1545" 
d="M959 880q220 0 350 -111t130 -354q0 -158 -116.5 -291t-338.5 -130l-5 2v44q190 0 298 112t108 263q0 210 -117 311t-309 101q-87 0 -169.5 -24t-201.5 -69v-680h163v-54h-380v54h163v1348h-396v-239h-54v293h1114v-293h-54v239h-556v-615q227 93 371 93z" />
    <glyph glyph-name="uni0403" unicode="&#x403;" horiz-adv-x="1203" 
d="M77 54h163v1348h-163v54h1025v-293h-54v239h-754v-1348h163v-54h-380v54zM765 1813h78l2 -5l-231 -261h-67l-2 5z" />
    <glyph glyph-name="uni0404" unicode="&#x404;" horiz-adv-x="1266" 
d="M1244 993h-55v234q-67 90 -179 143.5t-255 53.5q-253 0 -414 -180.5t-164 -472.5l2 -5h633v-54h-633l-2 -5q-2 -301 158 -487t410 -186q144 0 261 53.5t183 143.5v234h55v-254q-73 -107 -206 -169t-293 -62q-277 0 -452 205.5t-175 534.5v18q0 330 176 535t461 205
q158 0 286.5 -62t202.5 -169v-254z" />
    <glyph glyph-name="uni0405" unicode="&#x405;" horiz-adv-x="1198" 
d="M597 1477q338 0 480 -226v-229h-54v204q-130 197 -426 197q-198 0 -313.5 -88.5t-115.5 -212.5t95.5 -206t341.5 -146t369.5 -156t123.5 -264t-141 -271.5t-353 -99.5q-146 0 -280.5 54.5t-223.5 170.5v240h54v-217q78 -102 199 -148t251 -46q192 0 315.5 88.5
t123.5 226.5t-100.5 220t-348.5 150t-364 153t-116 249t136 260.5t347 96.5z" />
    <glyph glyph-name="uni0406" unicode="&#x406;" horiz-adv-x="598" 
d="M109 1402v54h380v-54h-163v-1348h163v-54h-380v54h163v1348h-163z" />
    <glyph glyph-name="uni0407" unicode="&#x407;" horiz-adv-x="598" 
d="M109 1402v54h380v-54h-163v-1348h163v-54h-380v54h163v1348h-163zM147 1673h-137v118h137v-118zM616 1673h-136v118h136v-118z" />
    <glyph glyph-name="uni0408" unicode="&#x408;" horiz-adv-x="1137" 
d="M1043 1402h-163v-980q0 -203 -114 -323t-305 -120q-190 0 -305 106t-110 310l2 6h46q0 -178 97 -273t265 -95t269 105t101 284v980h-163v54h380v-54z" />
    <glyph glyph-name="uni0409" unicode="&#x409;" horiz-adv-x="2187" 
d="M1239 754v-700h369q208 0 313 100.5t105 248.5t-105.5 249.5t-312.5 101.5h-369zM1402 1402h-163v-594h369q227 0 349.5 -112t122.5 -292t-123 -292t-349 -112h-423v1402h-609l-38 -580q-31 -472 -117 -647t-329 -175h-32v54h35q198 0 278.5 153t110.5 615l38 580h-159
v54h1039v-54z" />
    <glyph glyph-name="uni040A" unicode="&#x40a;" horiz-adv-x="2233" 
d="M1278 756v-703h369q208 0 313 101.5t105 249.5t-105.5 250t-312.5 102h-369zM77 54h163v1348h-163v54h380v-54h-163v-654h930v654h-163v54h380v-54h-163v-592h369q227 0 349.5 -112t122.5 -293t-123 -293t-349 -112h-586v54h163v640h-930v-640h163v-54h-380v54z" />
    <glyph glyph-name="uni040B" unicode="&#x40b;" horiz-adv-x="1722" 
d="M1025 764q-200 0 -420 -63v-647h163v-54h-380v54h163v1348h-416v-239h-54v293h1114v-293h-54v239h-536v-647q228 63 409 63q238 0 358.5 -105t120.5 -342v-317h163v-54h-380v54h163v317q0 205 -107 299t-307 94z" />
    <glyph glyph-name="uni040C" unicode="&#x40c;" horiz-adv-x="1388" 
d="M71 54h163v1348h-163v54h380v-54h-163v-638h238l565 633l-2 5h-168v54h361v-54h-115l-596 -672l639 -676h118v-54h-361v54h163l3 6l-622 651h-223v-657h163v-54h-380v54zM793 1760h78l2 -5l-231 -261h-67l-2 5z" />
    <glyph glyph-name="uni040D" unicode="&#x40d;" horiz-adv-x="1552" 
d="M457 1456v-54h-163v-1122l6 -2l935 987v137h-163v54h380v-54h-163v-1348h163v-54h-380v54h163v1126l-6 2l-935 -988v-140h163v-54h-380v54h163v1348h-163v54h380zM786 1579l-2 -5h-75l-234 261l2 5h89z" />
    <glyph glyph-name="uni040E" unicode="&#x40e;" horiz-adv-x="1431" 
d="M371 33q100 -1 167 61t122 172l64 128l-573 1008h-118v54h317v-54h-132l538 -945l469 945h-136v54h316v-54h-114l-572 -1145q-62 -120 -137 -199t-216 -79q-56 0 -87 13l15 51q26 -10 77 -10zM738 1556q-128 0 -202 68t-70 174l2 6h46q0 -86 54 -139t168 -53t171 54
q56 54 56 138h46l2 -6q4 -106 -70 -174q-75 -68 -203 -68z" />
    <glyph glyph-name="uni040F" unicode="&#x40f;" horiz-adv-x="1547" 
d="M1441 1402h-163v-1348h163v-54h-651v-349h-54v349h-659v54h163v1348h-163v54h380v-54h-163v-1348h930v1348h-163v54h380v-54z" />
    <glyph glyph-name="uni0410" unicode="&#x410;" 
d="M383 489h672l-305 820l-28 82h-6l-27 -82zM55 54h107l524 1402h66l525 -1402h107v-54h-309v54h143l-143 381h-712l-142 -381h143v-54h-309v54z" />
    <glyph glyph-name="uni0411" unicode="&#x411;" horiz-adv-x="1280" 
d="M656 54q209 0 312.5 96t103.5 243t-104 244t-312 97h-369v-680h369zM1095 1163h-54v239h-754v-614h369q227 0 349 -107t122 -287t-122 -287t-349 -107h-586v54h163v1348h-163v54h1025v-293z" />
    <glyph glyph-name="uni0412" unicode="&#x412;" horiz-adv-x="1303" 
d="M637 773q401 1 401 315t-421 314h-329v-629h349zM288 719v-665h421q184 0 290 91t106 239q1 148 -101 242q-102 93 -285 93h-431zM617 1456q226 0 351 -93t125 -280q0 -130 -67 -219t-189 -111q136 -18 229 -119t93 -233q1 -191 -123 -296t-327 -105h-638v54h163v1348
h-163v54h546z" />
    <glyph glyph-name="uni0413" unicode="&#x413;" horiz-adv-x="1203" 
d="M77 54h163v1348h-163v54h1025v-293h-54v239h-754v-1348h163v-54h-380v54z" />
    <glyph glyph-name="uni0414" unicode="&#x414;" horiz-adv-x="1523" 
d="M1141 54v1348h-635l-18 -411q-20 -333 -105 -581t-183 -356h941zM1315 -349h-55v349h-1151v-349h-54v403h76q85 80 182 306.5t121 630.5l18 411h-160v54h1066v-54h-163v-1348h120v-403z" />
    <glyph glyph-name="uni0415" unicode="&#x415;" horiz-adv-x="1270" 
d="M71 0v54h163v1348h-163v54h1049v-293h-54v239h-778v-616h630v-54h-630v-678h778v239h54v-293h-1049z" />
    <glyph glyph-name="uni0416" unicode="&#x416;" horiz-adv-x="2020" 
d="M1934 54v-54h-322v54h112l3 5l-530 661h-171v-666h163v-54h-380v54h163v666h-173l-530 -661l3 -5h113v-54h-322v54h130l553 689l-417 545q-61 79 -98.5 102t-80.5 23t-71 -18l-24 46q39 26 93 26q53 0 102.5 -27.5t118.5 -116.5l422 -550h181v629h-163v54h380v-54h-163
v-629h184l422 550q68 89 117.5 116.5t102.5 27.5t94 -26l-24 -46q-29 18 -72 18t-80.5 -23t-97.5 -102l-420 -548l551 -686h131z" />
    <glyph glyph-name="uni0417" unicode="&#x417;" horiz-adv-x="1211" 
d="M567 771q444 1 444 317q0 152 -110 243.5t-329 91.5q-144 0 -256 -53.5t-178 -143.5v-214h-55v234q73 107 201.5 169t287.5 62q229 0 361 -102t132 -292q0 -118 -75.5 -208.5t-215.5 -129.5q314 -68 314 -359q0 -190 -143.5 -298.5t-358.5 -108.5t-365 109t-145 310l2 6
h46q0 -163 125 -267t333 -104t330 92.5t122 261.5t-117 248.5t-350 79.5h-184v56h184z" />
    <glyph glyph-name="uni0418" unicode="&#x418;" horiz-adv-x="1552" 
d="M457 1456v-54h-163v-1122l6 -2l935 987v137h-163v54h380v-54h-163v-1348h163v-54h-380v54h163v1126l-6 2l-935 -988v-140h163v-54h-380v54h163v1348h-163v54h380z" />
    <glyph glyph-name="uni0419" unicode="&#x419;" horiz-adv-x="1552" 
d="M457 1456v-54h-163v-1122l6 -2l935 987v137h-163v54h380v-54h-163v-1348h163v-54h-380v54h163v1126l-6 2l-935 -988v-140h163v-54h-380v54h163v1348h-163v54h380zM736 1556q-128 0 -204 68q-74 68 -69 174l2 6h46q0 -86 54 -139q55 -53 169 -53t170 54t56 138h46l2 -6
q4 -106 -70 -174t-202 -68z" />
    <glyph glyph-name="uni041A" unicode="&#x41a;" horiz-adv-x="1378" 
d="M1328 54v-54h-361v54h163l3 6l-621 650h-224v-656h163v-54h-380v54h163v1348h-163v54h380v-54h-163v-639h234l432 560q68 89 117.5 116.5t102.5 27.5t94 -26l-24 -46q-29 18 -72 18t-80.5 -23t-97.5 -102l-427 -554l643 -680h118z" />
    <glyph glyph-name="uni041B" unicode="&#x41b;" horiz-adv-x="1503" 
d="M89 0h-32v54h35q157 0 221 152.5t88 615.5l38 580h-159v54h1139v-54h-163v-1348h163v-54h-380v54h163v1348h-709l-38 -580q-24 -472 -95 -647t-271 -175z" />
    <glyph glyph-name="uni041C" unicode="&#x41c;" horiz-adv-x="1824" 
d="M288 54h163v-54h-380v54h163v1348h-163v54h240l596 -1370h6l598 1370h242v-54h-163v-1348h163v-54h-380v54h163v1307l-6 2l-598 -1363h-43l-595 1356l-6 -2v-1300z" />
    <glyph glyph-name="uni041D" unicode="&#x41d;" horiz-adv-x="1506" 
d="M71 1402v54h380v-54h-163v-653h930v653h-163v54h380v-54h-163v-1348h163v-54h-380v54h163v641h-930v-641h163v-54h-380v54h163v1348h-163z" />
    <glyph glyph-name="uni041E" unicode="&#x41e;" horiz-adv-x="1488" 
d="M1294 739q0 309 -152 497t-404 187q-252 1 -402 -187t-151 -497v-20q0 -311 151 -499t404 -187q254 -1 404 187t150 499v20zM1348 719q0 -336 -168 -538t-440 -202q-272 1 -441 203t-169 537v18q0 335 168 537t440 203q272 -1 440 -203q170 -202 170 -537v-18z" />
    <glyph glyph-name="uni041F" unicode="&#x41f;" horiz-adv-x="1548" 
d="M77 54h163v1348h-163v54h1364v-54h-163v-1348h163v-54h-380v54h163v1348h-930v-1348h163v-54h-380v54z" />
    <glyph glyph-name="uni0420" unicode="&#x420;" horiz-adv-x="1255" 
d="M288 679h351q207 0 311 103t105 259q0 157 -104 259t-312 102h-351v-723zM639 1456q226 0 348 -114t122 -302q1 -189 -121 -302t-349 -113h-351v-571h163v-54h-380v54h163v1348h-163v54h568z" />
    <glyph glyph-name="uni0421" unicode="&#x421;" horiz-adv-x="1373" 
d="M1256 992h-55v234q-67 90 -179 144t-255 53q-259 0 -421 -189t-162 -495v-20q0 -307 161 -497t412 -189q144 -1 261 53t183 144v234h55v-254q-73 -107 -206 -169t-293 -62q-277 -1 -452 205t-175 535v18q0 330 176 535t461 205q159 0 287 -62t202 -169v-254z" />
    <glyph glyph-name="uni0422" unicode="&#x422;" horiz-adv-x="1277" 
d="M1194 1456v-293h-54v239h-476v-1348h163v-54h-380v54h163v1348h-476v-239h-54v293h1114z" />
    <glyph glyph-name="uni0423" unicode="&#x423;" horiz-adv-x="1431" 
d="M371 33q100 0 167 61.5t122 171.5l64 128l-573 1008h-118v54h317v-54h-132l538 -945l469 945h-136v54h316v-54h-114l-572 -1145q-62 -120 -137 -199t-216 -79q-56 0 -87 13l15 51q26 -10 77 -10z" />
    <glyph glyph-name="uni0424" unicode="&#x424;" horiz-adv-x="1462" 
d="M677 1252q-252 0 -402 -147t-150 -370t149.5 -367.5t402.5 -144.5h25v1029h-25zM757 1252v-1029h30q251 0 400.5 145.5t149.5 369.5t-150 369t-400 145h-30zM677 169q-277 0 -442 162.5t-165 404.5t165.5 406t441.5 164h25v156h-163v54h381v-54h-163v-156h28
q275 0 441 -163t166 -405t-166 -405.5t-441 -163.5h-28v-175h163v-54h-381v54h163v175h-25z" />
    <glyph glyph-name="uni0425" unicode="&#x425;" horiz-adv-x="1391" 
d="M63 54h115l486 689l-466 659h-115v54h338v-54h-156l432 -617l433 617h-155v54h337v-54h-115l-465 -659l486 -689h115v-54h-337v54h155l-454 647l-453 -647h155v-54h-336v54z" />
    <glyph glyph-name="uni0426" unicode="&#x426;" horiz-adv-x="1566" 
d="M1441 1456v-54h-163v-1348h133v-405h-54v351h-1280v54h163v1348h-163v54h380v-54h-163v-1348h930v1348h-163v54h380z" />
    <glyph glyph-name="uni0427" unicode="&#x427;" horiz-adv-x="1461" 
d="M693 712q204 0 410 60v630h-163v54h380v-54h-163v-1348h163v-54h-380v54h163v665q-219 -61 -402 -61q-239 0 -359 104.5t-120 342.5v297h-163v54h380v-54h-163v-297q0 -206 106.5 -299.5t310.5 -93.5z" />
    <glyph glyph-name="uni0428" unicode="&#x428;" horiz-adv-x="2000" 
d="M77 54h163v1348h-163v54h381v-54h-163v-1348h663v1348h-163v54h381v-54h-163v-1348h663v1348h-163v54h380v-54h-163v-1348h163v-54h-1816v54z" />
    <glyph glyph-name="uni0429" unicode="&#x429;" horiz-adv-x="2007" 
d="M1893 1456v-54h-163v-1348h166v-405h-54v351h-1765v54h163v1348h-163v54h381v-54h-163v-1348h663v1348h-163v54h381v-54h-163v-1348h663v1348h-163v54h380z" />
    <glyph glyph-name="uni042A" unicode="&#x42a;" horiz-adv-x="1594" 
d="M665 734v-680h369q209 0 312.5 96t103.5 243t-104 244t-312 97h-369zM828 1402h-163v-614h369q227 0 349 -107t122 -287t-122 -287t-349 -107h-586v54h163v1348h-480v-239h-54v293h751v-54z" />
    <glyph glyph-name="uni042B" unicode="&#x42b;" horiz-adv-x="1648" 
d="M450 1456v-54h-163v-614h369q227 0 349 -107t122 -287t-122 -287t-349 -107h-586v54h163v1348h-163v54h380zM1223 54h163v1348h-163v54h380v-54h-163v-1348h163v-54h-380v54zM287 734v-680h369q209 0 312.5 96t103.5 243t-104 244t-312 97h-369z" />
    <glyph glyph-name="uni042C" unicode="&#x42c;" horiz-adv-x="1289" 
d="M450 1456v-54h-163v-614h369q227 0 349 -107t122 -287t-122 -287t-349 -107h-586v54h163v1348h-163v54h380zM287 734v-680h369q209 0 312.5 96t103.5 243t-104 244t-312 97h-369z" />
    <glyph glyph-name="uni042D" unicode="&#x42d;" horiz-adv-x="1277" 
d="M584 1477q282 0 449.5 -204t167.5 -536v-18q0 -332 -166.5 -536t-440.5 -204q-161 0 -294 62t-205 169v254h55v-234q65 -90 182 -143.5t262 -53.5q248 0 400.5 188t152.5 498v11h-636v54h628l2 5q-9 286 -160 460t-397 174q-144 0 -256 -53.5t-178 -143.5v-234h-55v254
q73 107 201.5 169t287.5 62z" />
    <glyph glyph-name="uni042E" unicode="&#x42e;" horiz-adv-x="1896" 
d="M66 1402v54h380v-54h-163v-655h295v-54h-295v-639h163v-54h-380v54h163v1348h-163zM1768 739q0 309 -152 496.5t-404 187.5t-402.5 -187.5t-150.5 -496.5v-20q0 -311 151 -498.5t404 -187.5t403.5 187.5t150.5 498.5v20zM1822 719q0 -336 -168 -538t-440 -202t-441 202.5
t-169 537.5v18q0 335 168 537.5t440 202.5t441 -202.5t169 -537.5v-18z" />
    <glyph glyph-name="uni042F" unicode="&#x42f;" horiz-adv-x="1363" 
d="M142 46q44 0 84 35.5t79 129.5l186 443l-7 10q-289 85 -289 364q0 207 125 317.5t349 110.5h589v-54h-163v-1348h163v-54h-381v54h163v585h-506l-189 -463q-74 -184 -210 -184q-50 0 -86 26l24 46q25 -18 69 -18zM249 1044q0 -166 91 -256t250 -94h450v708h-371
q-207 0 -313.5 -96t-106.5 -262z" />
    <glyph glyph-name="uni0430" unicode="&#x430;" horiz-adv-x="1132" 
d="M443 32q137 0 250 69t170 191v257h-266q-199 1 -319 -77t-120 -190t74 -182q74 -68 211 -68zM863 183v16q-61 -97 -173 -159t-262 -61q-150 -1 -238 81q-86 82 -86 221t133 231t357 92h269v158q-1 134 -87 210t-243 76q-210 0 -345 -109l-1 -173h-54l1 206q78 58 182 94
t217 36q174 0 279 -88t105 -254v-542q0 -89 15 -164h130v-54h-177q-22 120 -22 183z" />
    <glyph glyph-name="uni0431" unicode="&#x431;" horiz-adv-x="1158" 
d="M579 948q-191 0 -305 -125.5t-114 -300.5v-42q0 -187 114 -317t306 -130t305.5 130.5t113.5 316.5v42q0 176 -114.5 301t-305.5 125zM579 1002q211 0 343 -134.5t132 -345.5v-42q0 -221 -132 -361t-342 -140t-342 140t-132 361v172q0 308 127.5 499.5t350.5 218.5
q176 25 242 68t66 115h44l2 -6q10 -194 -339 -231q-178 -17 -291.5 -161t-131.5 -370l3 -5q49 102 155 162t245 60z" />
    <glyph glyph-name="uni0432" unicode="&#x432;" horiz-adv-x="1231" 
d="M984 801q0 226 -352 226h-318v-452h338q332 0 332 226zM314 521v-467h387q155 0 243 62t88 170t-90 171.5t-241 63.5h-387zM632 1082q193 0 299.5 -70t106.5 -210q0 -91 -56 -158t-157 -89q111 -12 185.5 -87.5t74.5 -174.5q0 -142 -104.5 -217.5t-279.5 -75.5h-604v54
h163v974h-163v54h535z" />
    <glyph glyph-name="uni0433" unicode="&#x433;" horiz-adv-x="1030" 
d="M235 1028h-163v54h813v-192h-54v137h-542v-973h163v-54h-380v54h163v974z" />
    <glyph glyph-name="uni0434" unicode="&#x434;" horiz-adv-x="1255" 
d="M895 54v974h-476l-17 -322q-12 -429 -197 -652h690zM205 1028v54h907v-54h-163v-974h86v-372h-54v318h-871v-318h-44v372h72q92 124 147.5 251.5t62.5 400.5l17 322h-160z" />
    <glyph glyph-name="uni0435" unicode="&#x435;" horiz-adv-x="1104" 
d="M562 1048q-160 0 -267 -118t-121 -293l3 -6h746v33q0 164 -100 274q-101 110 -261 110zM112 500v64q0 234 130 386t317 152t303 -120t115 -322v-83h-811v-77q0 -196 115 -332t285 -135q226 0 342 132l29 -42q-130 -144 -371 -144q-186 -1 -320 149t-134 372z" />
    <glyph glyph-name="uni0436" unicode="&#x436;" horiz-adv-x="1801" 
d="M1616 1039q-42 0 -79 -23.5t-100 -101.5l-287 -357l467 -503h137v-54h-158l-500 529h-156v-475h163v-54h-380v54h163v475h-154l-499 -529h-158v54h137l469 506l-285 354q-63 78 -100 101.5t-80 23.5t-70 -18l-24 46q39 26 92 26q52 0 101 -28t121 -116l297 -367h153v446
h-163v54h380v-54h-163v-446h160l297 367q71 88 120 116t101 28t93 -26l-24 -46q-29 18 -71 18z" />
    <glyph glyph-name="uni0437" unicode="&#x437;" horiz-adv-x="1030" 
d="M893 290q0 -144 -111 -225.5t-282 -81.5t-293.5 81.5t-117.5 230.5l2 6h46q0 -114 100.5 -188.5t260.5 -74.5t250 65.5t90 186.5t-87 178t-265 57h-145v55h145q333 0 333 167t-80.5 232t-233.5 65t-251.5 -68t-98.5 -177h-46l-2 6q-6 129 108.5 211t284.5 82t272 -76.5
t102 -219.5q0 -85 -54.5 -151t-155.5 -97q229 -54 229 -264z" />
    <glyph glyph-name="uni0438" unicode="&#x438;" horiz-adv-x="1352" 
d="M477 1082v-54h-163v-922l6 -2l663 978h218v-54h-163v-974h163v-54h-381v54h163v922l-6 2l-663 -978h-217v54h163v974h-163v54h380z" />
    <glyph glyph-name="uni0439" unicode="&#x439;" horiz-adv-x="1352" 
d="M477 1082v-54h-163v-922l6 -2l663 978h218v-54h-163v-974h163v-54h-381v54h163v922l-6 2l-663 -978h-217v54h163v974h-163v54h380zM668 1213q-128 -1 -204 67q-74 68 -69 175l2 6h46q0 -86 54 -139q55 -53 169 -53t170 54t56 138h46l2 -6q4 -107 -70 -175t-202 -67z" />
    <glyph glyph-name="uni043A" unicode="&#x43a;" horiz-adv-x="1230" 
d="M1039 1039q-42 0 -79 -23.5t-100 -101.5l-290 -361l472 -499h138v-54h-168l-499 529h-198v-475h163v-54h-381v54h163v974h-163v54h381v-54h-163v-446h208l297 367q71 88 120 116t101 28t93 -26l-24 -46q-29 18 -71 18z" />
    <glyph glyph-name="uni043B" unicode="&#x43b;" horiz-adv-x="1277" 
d="M757 54h163v973h-536v-437q0 -318 -65 -454t-218 -136h-32v53h35q114 0 170 117t56 420v438h-163v54h971v-54h-163v-974h163v-54h-381v54z" />
    <glyph glyph-name="uni043C" unicode="&#x43c;" horiz-adv-x="1684" 
d="M1546 1082v-54h-163v-974h163v-54h-381v54h163v911l-6 1l-475 -966h-42l-485 990l-6 -1v-935h163v-54h-380v54h163v974h-163v54h237l492 -1000l492 1000h228z" />
    <glyph glyph-name="uni043D" unicode="&#x43d;" horiz-adv-x="1351" 
d="M97 1028v54h380v-54h-163v-445h669v445h-163v54h381v-54h-163v-974h163v-54h-381v54h163v475h-669v-475h163v-54h-380v54h163v974h-163z" />
    <glyph glyph-name="uni043E" unicode="&#x43e;" horiz-adv-x="1155" 
d="M158 520q0 -204 114 -346t306 -141q192 0 305 142q114 142 114 345v42q0 198 -115 342q-116 144 -306 144t-304 -144t-114 -342v-42zM104 562q0 238 132 389t342 151t342 -151t131 -389v-42q1 -239 -131 -390t-342 -151t-342 151t-132 390v42z" />
    <glyph glyph-name="uni043F" unicode="&#x43f;" horiz-adv-x="1352" 
d="M97 54h163v974h-163v54h1104v-54h-163v-974h163v-54h-381v54h163v973h-669v-973h163v-54h-380v54z" />
    <glyph glyph-name="uni0440" unicode="&#x440;" horiz-adv-x="1161" 
d="M1002 542q0 226 -90 366t-255 140q-164 0 -251 -79t-124 -194v-506q40 -108 134 -172t236 -64q170 0 260 132t90 356v21zM65 -362h163v1390h-163v54h205l11 -194q54 100 147 157t221 57q191 0 299 -152t109 -408v-21q0 -250 -108 -396t-298 -146q-127 0 -221 51t-148 138
v-530h163v-54h-380v54z" />
    <glyph glyph-name="uni0441" unicode="&#x441;" horiz-adv-x="1086" 
d="M556 1048q-202 0 -300 -136t-98 -350v-42q0 -216 98 -351.5t290 -135.5q137 0 242 75t105 225h46l2 -6q4 -159 -116.5 -253.5t-278.5 -94.5q-207 0 -324.5 149t-117.5 392v42q0 242 117 391t323 149q122 0 226 -50.5t167 -136.5v-232h-54v212q-125 153 -327 153z" />
    <glyph glyph-name="uni0442" unicode="&#x442;" horiz-adv-x="1083" 
d="M972 1082v-293h-54v238h-371v-973h163v-54h-380v54h163v973h-349v-238h-54v293h882z" />
    <glyph glyph-name="uni0443" unicode="&#x443;" horiz-adv-x="1185" 
d="M283 -384q91 0 143 54t92 160l65 176l-410 1022h-118v54h319v-54h-142l335 -832l40 -108h6l359 940h-142v54h320v-54h-118l-460 -1208q-44 -114 -102 -186t-187 -71q-46 0 -76 11l9 51q33 -9 67 -9z" />
    <glyph glyph-name="uni0444" unicode="&#x444;" horiz-adv-x="1450" 
d="M1277 521v21q0 225 -85.5 365.5t-240.5 140.5t-212 -83v-864q81 -68 207 -68q162 0 246.5 132t84.5 356zM470 1048q-154 0 -238.5 -140.5t-84.5 -365.5v-21q0 -224 83.5 -356t245.5 -132q123 0 209 69v861q-61 85 -215 85zM943 1102q181 0 284.5 -151.5t103.5 -408.5v-21
q0 -250 -103 -396t-283 -146q-123 0 -206 62v-403h163v-54h-380v54h163v403q-87 -62 -208 -62q-181 0 -283.5 146t-102.5 396v21q0 257 103 408.5t285 151.5q123 0 206 -67v471h-163v54h217v-524q77 66 204 66z" />
    <glyph glyph-name="uni0445" unicode="&#x445;" horiz-adv-x="1192" 
d="M82 54h126l361 501l-341 473h-126v54h318v-54h-124l307 -426l306 426h-124v54h318v-54h-126l-341 -473l361 -501h126v-54h-317v54h124l-328 454l-327 -454h124v-54h-317v54z" />
    <glyph glyph-name="uni0446" unicode="&#x446;" horiz-adv-x="1318" 
d="M1132 -321h-54v321h-1008v54h163v974h-163v54h380v-54h-163v-974h669v974h-163v54h381v-54h-163v-974h121v-375z" />
    <glyph glyph-name="uni0447" unicode="&#x447;" horiz-adv-x="1319" 
d="M445 1082v-54h-163v-180q0 -205 80 -278.5t275 -73.5q79 3 169.5 25.5t145.5 51.5v455h-163v54h380v-54h-163v-974h163v-54h-380v54h163v468q-66 -33 -156 -56.5t-159 -23.5q-221 0 -315 84.5t-94 321.5v180h-163v54h380z" />
    <glyph glyph-name="uni0448" unicode="&#x448;" horiz-adv-x="1843" 
d="M97 1028v54h380v-54h-163v-974h567v1028h55v-1028h558v974h-163v54h380v-54h-163v-974h163v-54h-1614v54h163v974h-163z" />
    <glyph glyph-name="uni0449" unicode="&#x449;" horiz-adv-x="1844" 
d="M1711 1082v-54h-163v-974h163v-375h-54v321h-1560v54h163v974h-163v54h380v-54h-163v-974h567v1028h55v-1028h558v974h-163v54h380z" />
    <glyph glyph-name="uni044A" unicode="&#x44a;" horiz-adv-x="1407" 
d="M542 616v-562h345q166 0 249.5 80t83.5 200t-84 201t-249 81h-345zM705 1082v-54h-163v-358h345q182 0 284.5 -93.5t102.5 -242.5t-102.5 -241.5t-284.5 -92.5h-562v54h163v974h-344v-239h-54v293h615z" />
    <glyph glyph-name="uni044B" unicode="&#x44b;" horiz-adv-x="1535" 
d="M477 1082v-54h-163v-358h345q182 0 284.5 -93.5t102.5 -242.5t-102.5 -241.5t-284.5 -92.5h-562v54h163v974h-163v54h380zM1126 54h163v974h-163v54h217v-1028h163v-54h-380v54zM314 616v-562h345q166 0 249.5 80t83.5 200t-84 201t-249 81h-345z" />
    <glyph glyph-name="uni044C" unicode="&#x44c;" horiz-adv-x="1174" 
d="M477 1082v-54h-163v-358h345q182 0 284.5 -93.5t102.5 -242.5t-102.5 -241.5t-284.5 -92.5h-562v54h163v974h-163v54h380zM314 616v-562h345q166 0 249.5 80t83.5 200t-84 201t-249 81h-345z" />
    <glyph glyph-name="uni044D" unicode="&#x44d;" horiz-adv-x="1067" 
d="M522 1048q-202 0 -324 -153v-212h-54v232q62 86 166 136.5t227 50.5q205 0 322.5 -149t117.5 -391v-42q0 -243 -118 -392t-324 -149q-159 0 -279.5 94.5t-115.5 253.5l2 6h46q0 -150 104.5 -225t242.5 -75q190 0 288 134t96 344l-3 5h-571v54h571l3 5q0 206 -97.5 339.5
t-299.5 133.5z" />
    <glyph glyph-name="uni044E" unicode="&#x44e;" horiz-adv-x="1708" 
d="M664 520q0 -204 114 -345.5t306 -141.5t305.5 142t113.5 345v42q0 199 -115.5 342.5t-305.5 143.5t-304 -143.5t-114 -342.5v-42zM90 54h163v974h-163v54h217v-525h303v5q0 238 132 389t342 151t341.5 -151t131.5 -389v-42q0 -239 -131.5 -390t-339.5 -151t-339.5 146
t-136.5 378h-303v-449h163v-54h-380v54z" />
    <glyph glyph-name="uni044F" unicode="&#x44f;" horiz-adv-x="1252" 
d="M226 766q0 -112 67 -186.5t202 -74.5h388v522h-346q-157 0 -234 -74.5t-77 -186.5zM720 54h163v396h-396l-271 -450h-151v54h119l241 401q-121 19 -187 103t-66 216t96 220t269 88h563v-54h-163v-974h163v-54h-380v54z" />
    <glyph glyph-name="uni0450" unicode="&#x450;" horiz-adv-x="1104" 
d="M562 1048q-160 0 -267 -118t-121 -293l3 -6h746v33q0 164 -100 274q-101 110 -261 110zM112 500v64q0 234 130 386t317 152t303 -120t115 -322v-83h-811v-77q0 -196 115 -332t285 -135q226 0 342 132l29 -42q-130 -144 -371 -144q-186 -1 -320 149t-134 372zM617 1258
l-2 -5h-75l-234 261l2 5h89z" />
    <glyph glyph-name="uni0451" unicode="&#x451;" horiz-adv-x="1104" 
d="M562 1048q-160 0 -267 -118t-121 -293l3 -6h746v33q0 164 -100 274q-101 110 -261 110zM112 500v64q0 234 130 386t317 152t303 -120t115 -322v-83h-811v-77q0 -196 115 -332t285 -135q226 0 342 132l29 -42q-130 -144 -371 -144q-186 -1 -320 149t-134 372zM406 1352
h-137v118h137v-118zM875 1352h-136v118h136v-118z" />
    <glyph glyph-name="uni0452" unicode="&#x452;" horiz-adv-x="1200" 
d="M721 -383q110 0 170.5 76.5t60.5 217.5v749q0 213 -78.5 300.5t-209.5 87.5q-175 0 -268 -104.5t-117 -267.5v-622h163v-54h-380v54h163v1197h-218v54h218v201h-163v54h217v-255h275v-54h-275v-397q50 118 147 183t237 65q344 0 344 -444v-747q0 -167 -75.5 -257.5
t-210.5 -90.5q-62 0 -132 20l13 52q60 -18 119 -18z" />
    <glyph glyph-name="uni0453" unicode="&#x453;" horiz-adv-x="1030" 
d="M235 1028h-163v54h813v-192h-54v137h-542v-973h163v-54h-380v54h163v974zM665 1471h78l2 -5l-231 -261h-67l-2 5z" />
    <glyph glyph-name="uni0454" unicode="&#x454;" horiz-adv-x="1086" 
d="M572 1048q-202 0 -299.5 -133.5t-95.5 -339.5l3 -5h553v-54h-553l-3 -5q-3 -210 95 -344t289 -134q137 0 242 75t105 225h46l2 -6q4 -159 -116.5 -253.5t-278.5 -94.5q-207 0 -324.5 149t-117.5 392v42q0 242 117 391t323 149q122 0 226 -50.5t167 -136.5v-232h-54v212
q-124 153 -326 153z" />
    <glyph glyph-name="uni0455" unicode="&#x455;" horiz-adv-x="1009" 
d="M813 262q0 198 -330 270q-191 40 -279 106t-87 187q0 121 98 199t264 78q117 0 215 -40t158 -107v-202h-54v175q-108 120 -319 120q-152 0 -230 -66t-78 -150q0 -86 66 -146q67 -60 255 -104t282 -116t93 -200q0 -128 -104 -208q-104 -79 -276 -79q-241 0 -384 143v193
h54v-163q111 -119 330 -119q150 0 238 70t88 159z" />
    <glyph glyph-name="uni0456" unicode="&#x456;" horiz-adv-x="609" 
d="M306 1422h-54v138h54v-138zM89 54h163v974h-163v54h217v-1028h163v-54h-380v54z" />
    <glyph glyph-name="uni0457" unicode="&#x457;" horiz-adv-x="608" 
d="M90 1028v54h217v-1028h163v-54h-380v54h163v974h-163zM124 1331h-137v118h137v-118zM593 1331h-136v118h136v-118z" />
    <glyph glyph-name="uni0458" unicode="&#x458;" horiz-adv-x="555" 
d="M378 1426h-54v134h54v-134zM99 -383q111 0 171 77t60 217v1117h-163v54h217v-1171q0 -167 -75 -257t-210 -91q-52 0 -112 20l13 52q54 -18 99 -18z" />
    <glyph glyph-name="uni0459" unicode="&#x459;" horiz-adv-x="1794" 
d="M981 576v-522h345q166 0 249.5 75t83.5 185t-84 186t-249 76h-345zM1144 1082v-54h-163v-398h345q182 0 284.5 -88t102.5 -228t-102.5 -227t-284.5 -87h-563v54h163v973h-546v-437q0 -318 -65 -454t-218 -136h-32v54h35q114 0 170 116.5t56 419.5v438h-163v54h981z" />
    <glyph glyph-name="uni045A" unicode="&#x45a;" horiz-adv-x="1877" 
d="M1038 576v-522h345q166 0 249.5 75t83.5 185t-84 186t-249 76h-345zM97 1028v54h380v-54h-163v-396h669v396h-163v54h381v-54h-163v-398h345q182 0 284.5 -88t102.5 -228t-102.5 -227t-284.5 -87h-563v54h163v524h-669v-524h163v-54h-380v54h163v974h-163z" />
    <glyph glyph-name="uni045B" unicode="&#x45b;" horiz-adv-x="1278" 
d="M663 1102q344 0 344 -444v-604h163v-54h-381v54h163v606q0 213 -78.5 300.5t-209.5 87.5q-175 0 -268 -104.5t-117 -267.5v-622h163v-54h-380v54h163v1226h-208v54h208v172h-163v54h217v-226h325v-54h-325v-426q50 118 147 183t237 65z" />
    <glyph glyph-name="uni045C" unicode="&#x45c;" horiz-adv-x="1230" 
d="M1039 1039q-42 1 -79 -23t-100 -102l-290 -361l472 -499h138v-54h-168l-499 529h-198v-475h163v-54h-381v54h163v974h-163v54h381v-54h-163v-446h208l297 367q71 88 120 116t101 28t93 -26l-24 -46q-29 18 -71 18zM746 1470h78l2 -5l-231 -261h-67l-2 5z" />
    <glyph glyph-name="uni045D" unicode="&#x45d;" horiz-adv-x="1352" 
d="M477 1082v-54h-163v-922l6 -2l663 978h218v-54h-163v-974h163v-54h-381v54h163v922l-6 2l-663 -978h-217v54h163v974h-163v54h380zM718 1236l-2 -5h-75l-234 261l2 5h89z" />
    <glyph glyph-name="uni045E" unicode="&#x45e;" horiz-adv-x="1185" 
d="M283 -384q91 0 143 54t92 160l65 176l-410 1022h-118v54h319v-54h-142l335 -832l40 -108h6l359 940h-142v54h320v-54h-118l-460 -1208q-44 -114 -102 -186t-187 -71q-46 0 -76 11l9 51q33 -9 67 -9zM608 1213q-128 -1 -202 67t-70 175l2 6h46q0 -86 54 -139t168 -53
t171 54q56 54 56 138h46l2 -6q4 -107 -70 -175q-75 -68 -203 -67z" />
    <glyph glyph-name="uni045F" unicode="&#x45f;" horiz-adv-x="1353" 
d="M681 -350h-54v350h-529v54h163v974h-163v54h380v-54h-163v-974h669v974h-163v54h381v-54h-163v-974h163v-54h-521v-350z" />
    <glyph glyph-name="uni0460" unicode="&#x460;" horiz-adv-x="1751" 
d="M1600 1456v-1027q0 -219 -104 -334.5t-273 -115.5q-127 0 -219.5 65t-131.5 192q-40 -127 -132 -192t-218 -65q-170 0 -274 115.5t-104 334.5v1027h54v-1027q0 -187 90 -291.5t233 -104.5t233.5 104.5t90.5 291.5v1027h54v-1027q0 -187 89.5 -291.5t233.5 -104.5
t234 104.5t90 291.5v1027h54z" />
    <glyph glyph-name="uni0461" unicode="&#x461;" horiz-adv-x="1631" 
d="M1526 1082v-673q0 -209 -98.5 -319.5t-258.5 -110.5q-119 0 -206 61t-125 180q-39 -119 -126 -180t-204 -61q-161 0 -259.5 110.5t-98.5 319.5v673h54v-673q0 -178 84 -277t219 -99t219.5 99t84.5 277v673h54v-673q0 -177 84.5 -276.5t218.5 -99.5t219 99t85 277v673h54z
" />
    <glyph glyph-name="uni0462" unicode="&#x462;" horiz-adv-x="1289" 
d="M450 1456v-54h-163v-228h303v-54h-303v-332h369q227 0 349 -107t122 -287t-122 -287t-349 -107h-586v54h163v1066h-230v54h230v228h-163v54h380zM287 734v-680h369q209 0 312.5 96t103.5 243t-104 244t-312 97h-369z" />
    <glyph glyph-name="uni0463" unicode="&#x463;" horiz-adv-x="1080" 
d="M235 616v-562h345q166 0 249.5 80t83.5 200t-84 201t-249 81h-345zM235 1136h329v-54h-329v-412h345q182 0 284.5 -93.5t102.5 -242.5t-102.5 -241.5t-284.5 -92.5h-562v54h163v1028h-204v54h204v372h-163v54h217v-426z" />
    <glyph glyph-name="uni0464" unicode="&#x464;" horiz-adv-x="1748" 
d="M585 720v20h-301v-686h163v-54h-380v54h163v1348h-163v54h380v-54h-163v-608h302q15 307 189 495.5t447 188.5q158 0 286.5 -62t202.5 -169v-254h-55v234q-67 90 -179 143.5t-255 53.5q-247 0 -406.5 -172.5t-170.5 -452.5l2 -5h546v-54h-554v-20q0 -307 161 -496.5
t412 -189.5q144 0 261 53.5t183 143.5v234h55v-254q-73 -107 -206 -169t-293 -62q-277 0 -452 205.5t-175 534.5z" />
    <glyph glyph-name="uni0465" unicode="&#x465;" horiz-adv-x="1540" 
d="M1172 588v-54h-572v-14q0 -216 98 -351.5t290 -135.5q137 0 242 75t105 225h46l2 -6q4 -159 -116.5 -253.5t-278.5 -94.5q-207 0 -324.5 149t-117.5 392v14h-241v-480h163v-54h-380v54h163v974h-163v54h217v-494h241q6 232 122.5 373t317.5 141q122 0 226 -50.5
t167 -136.5v-232h-54v212q-125 153 -324 153q-200 0 -297 -127.5t-99 -327.5l2 -5h565z" />
    <glyph glyph-name="uni0466" unicode="&#x466;" horiz-adv-x="1434" 
d="M408 562h616l-277 742l-28 85h-6l-27 -85zM52 54h107l524 1402h66l525 -1402h107v-54h-309v54h142l-170 454h-307v-508h-54v508h-295l-170 -454h143v-54h-309v54z" />
    <glyph glyph-name="uni0467" unicode="&#x467;" horiz-adv-x="1268" 
d="M404 449h463l-177 404l-51 146h-6l-52 -146zM667 395v-395h-54v395h-233l-172 -395h-146v54h110l438 1026v2h52l438 -1028h110v-54h-145l-174 395h-224z" />
    <glyph glyph-name="uni0468" unicode="&#x468;" horiz-adv-x="1992" 
d="M937 562h616l-277 742l-28 85h-6l-27 -85zM465 1456v-54h-163v-840h575l335 894h66l525 -1402h107v-54h-309v54h142l-170 454h-307v-508h-54v508h-295l-170 -454h143v-54h-309v54h107l169 454h-555v-454h163v-54h-380v54h163v1348h-163v54h380z" />
    <glyph glyph-name="uni0469" unicode="&#x469;" horiz-adv-x="1716" 
d="M851 449h463l-177 404l-51 146h-6l-52 -146zM312 449h475l270 631v2h52l438 -1028h110v-54h-145l-174 395h-224v-395h-54v395h-233l-172 -395h-146v54h110l145 341h-452v-341h163v-54h-380v54h163v974h-163v54h217v-633z" />
    <glyph glyph-name="uni046A" unicode="&#x46a;" horiz-adv-x="1804" 
d="M1277 1402h-864l406 -619l21 -34h11zM656 54h163v641h-194q-184 0 -268 -70t-84 -236v-335h163v-54h-381v54h163v335q0 188 104.5 274t302.5 86h161l-437 653h-123v54h1240v-54h-123l-438 -653h165q198 0 302 -86t104 -274v-335h163v-54h-380v54h163v335q0 166 -84 236
t-268 70h-197v-641h163v-54h-380v54z" />
    <glyph glyph-name="uni046B" unicode="&#x46b;" horiz-adv-x="1588" 
d="M1090 1027h-677l322 -431l5 -11h22l6 12zM630 530q-185 0 -269 -70t-84 -235v-225h-218v54h163v171q0 189 104.5 274.5t303.5 85.5h47l-330 443h-127v54h1063v-54h-127l-330 -443h44q198 0 302.5 -86t104.5 -274v-171h163v-54h-217v225q0 165 -84.5 235t-268.5 70h-85
l-7 -10v-466h163v-54h-380v54h163v467l-6 9h-88z" />
    <glyph glyph-name="uni046C" unicode="&#x46c;" horiz-adv-x="2372" 
d="M1802 1402h-864l406 -619l21 -34h11zM743 389q0 221 151 306h-611v-641h163v-54h-380v54h163v1348h-163v54h380v-54h-163v-653h1028l-437 653h-123v54h1240v-54h-123l-438 -653h165q198 0 302 -86t104 -274v-335h163v-54h-380v54h163v335q0 166 -84 236t-268 70h-197
v-641h163v-54h-380v54h163v641h-194q-184 0 -268 -70t-84 -236v-335h163v-54h-381v54h163v335z" />
    <glyph glyph-name="uni046D" unicode="&#x46d;" horiz-adv-x="2050" 
d="M1496 1027h-677l322 -431l5 -11h22l6 12zM628 225q0 218 148 305h-469v-476h321v171zM626 1028v54h1063v-54h-127l-330 -443h44q198 0 302.5 -86t104.5 -274v-171h163v-54h-217v225q0 165 -84.5 235t-268.5 70h-85l-7 -10v-466h163v-54h-380v54h163v467l-6 9h-88
q-185 0 -269 -70t-84 -235v-225h-593v54h163v974h-163v54h217v-497h665v-2l64 2h47l-330 443h-127z" />
    <glyph glyph-name="uni046E" unicode="&#x46e;" horiz-adv-x="1029" 
d="M731 1866v-16l-212 -207h-79l-214 209v14h71l183 -187l184 187h67zM312 1q-194 0 -194 -137q0 -66 59 -119t121 -71l-15 -52q-75 21 -146.5 88.5t-71.5 151.5t59.5 138t187.5 54h82q214 0 343.5 88t129.5 251q0 322 -465 322h-123v56h123q227 0 334.5 82.5t107.5 230.5
t-94.5 238t-297.5 90t-325 -153v-212h-54v232q62 86 166 136.5t227 50.5q200 0 316.5 -101t116.5 -282q0 -117 -75.5 -208t-213.5 -130q312 -68 312 -359q0 -178 -152 -282t-376 -103h-82z" />
    <glyph glyph-name="uni046F" unicode="&#x46f;" horiz-adv-x="940" 
d="M696 1549v-16l-212 -207h-79l-214 209v14h71l183 -187l184 187h67zM347 1q-194 0 -194 -137q0 -66 59 -119t122 -71l-16 -52q-74 21 -146 88.5t-72 151.5t60 138t187 54h41q186 0 298.5 66t112.5 183t-101 171.5t-303 54.5h-122v56h122q381 0 381 232q0 95 -84 153
t-263 58t-289 -133v-142h-54v162q56 77 149 122t204 45q182 0 287.5 -69.5t105.5 -199.5q0 -85 -59.5 -153t-168.5 -101q250 -56 250 -255q0 -139 -134.5 -221.5t-331.5 -81.5h-41z" />
    <glyph glyph-name="uni0470" unicode="&#x470;" horiz-adv-x="1620" 
d="M966 1456v-54h-163v-923l6 -3q207 0 340 128t133 342v510h217v-54h-163v-456q0 -246 -148 -386t-385 -144v-362h163v-54h-381v54h163v362q-238 6 -384 146t-146 384v456h-163v54h218v-510q0 -211 131 -339t338 -130l6 2v923h-163v54h381z" />
    <glyph glyph-name="uni0471" unicode="&#x471;" horiz-adv-x="1524" 
d="M154 1099q78 0 108 -31t30 -105v-375q-1 -274 115 -409t320 -138l6 2v1038h54v-1039l6 -2q251 2 359 156t108 397t-152 489h67q67 -126 103 -230t36 -262q0 -277 -130 -440t-397 -170v-395h-54v395q-236 10 -366 159t-129 451v372q0 83 -78 83q-64 0 -132 -33l-20 46
q68 41 146 41z" />
    <glyph glyph-name="uni0472" unicode="&#x472;" horiz-adv-x="1372" 
d="M730 33q249 0 398 181.5t151 481.5l-3 5h-1094l-2 -5q1 -300 151 -481.5t399 -181.5zM728 1423q-249 0 -398.5 -182t-150.5 -481l3 -5h1094l2 5q0 298 -150.5 480.5t-399.5 182.5zM1338 719q0 -336 -168 -538t-440 -202t-441 202.5t-169 537.5v18q0 335 168 537.5
t440 202.5t441 -202.5t169 -537.5v-18z" />
    <glyph glyph-name="uni0473" unicode="&#x473;" horiz-adv-x="1176" 
d="M578 33q190 0 302.5 139t111.5 336l-2 5h-825l-2 -5q-2 -197 111.5 -336t303.5 -139zM576 1048q-190 0 -303 -141t-110 -335l2 -5h825l2 5q2 193 -112 334.5t-304 141.5zM104 562q0 238 132 389t342 151t341.5 -151t131.5 -389v-42q0 -239 -131.5 -390t-341.5 -151
t-342 151t-132 390v42z" />
    <glyph glyph-name="uni0474" unicode="&#x474;" horiz-adv-x="1387" 
d="M366 1402h-146l425 -1337h6l378 1163q41 135 111.5 191.5t179.5 56.5h9l-1 -47h-10q-80 0 -141 -41.5t-104 -183.5l-392 -1204h-65l-455 1402h-104v54h309v-54z" />
    <glyph glyph-name="uni0475" unicode="&#x475;" horiz-adv-x="1199" 
d="M530 0v1l-359 1027h-106v54h308v-54h-145l325 -946l6 -1l53 148l217 645q42 124 101 175.5t131 51.5t123 -28l-23 -41q-38 22 -93 22t-103.5 -38t-91.5 -167l-291 -849h-52z" />
    <glyph glyph-name="uni0476" unicode="&#x476;" horiz-adv-x="1387" 
d="M366 1402h-146l425 -1337h6l378 1163q41 136 111 192t180 56h9l-1 -47h-10q-80 1 -141 -41t-104 -184l-392 -1204h-65l-455 1402h-104v54h309v-54zM810 1535l-2 -5h-62l-248 260l3 6h68zM584 1536l-2 -6h-65l-292 260l2 6h72z" />
    <glyph glyph-name="uni0477" unicode="&#x477;" horiz-adv-x="1199" 
d="M530 0v1l-359 1027h-106v54h308v-54h-145l325 -946l6 -1l53 148l217 645q42 124 101 176t131 51q72 0 123 -28l-23 -41q-38 22 -93 22q-56 0 -104 -38t-91 -167l-291 -849h-52zM715 1240l-2 -5h-62l-248 260l3 6h68zM489 1241l-2 -6h-65l-292 260l2 6h72z" />
    <glyph glyph-name="uni0478" unicode="&#x478;" horiz-adv-x="2673" 
d="M1294 739q0 309 -152 497t-404 187q-252 1 -402 -187t-151 -497v-20q0 -311 151 -499t404 -187q254 -1 404 187t150 499v20zM1348 719q0 -336 -168 -538t-440 -202q-272 1 -441 203t-169 537v18q0 335 168 537t440 203q272 -1 440 -203q170 -202 170 -537v-18zM1771 -384
q91 0 143 54t92 160l65 176l-410 1022h-118v54h319v-54h-142l335 -832l40 -108h6l359 940h-142v54h320v-54h-118l-460 -1208q-44 -114 -102 -186t-187 -71q-46 0 -76 11l9 51q33 -9 67 -9z" />
    <glyph glyph-name="uni0479" unicode="&#x479;" horiz-adv-x="2340" 
d="M158 520q0 -204 114 -346t306 -141q192 0 305 142q114 142 114 345v42q0 198 -115 342q-116 144 -306 144t-304 -144t-114 -342v-42zM104 562q0 238 132 389t342 151t342 -151t131 -389v-42q1 -239 -131 -390t-342 -151t-342 151t-132 390v42zM1438 -384q92 0 144 54
t91 160l65 176l-410 1022h-118v54h319v-54h-142l335 -832l40 -108h6l359 940h-142v54h320v-54h-118l-460 -1208q-45 -114 -103 -186t-186 -71q-46 0 -76 11l9 51q33 -9 67 -9z" />
    <glyph glyph-name="uni047A" unicode="&#x47a;" horiz-adv-x="1453" 
d="M1284 739q0 309 -146 490t-375 193v-131h-54v132q-239 -7 -386 -191q-148 -184 -148 -493v-20q0 -311 148 -495t386 -191v130h54v-129q230 12 375 193q146 181 146 492v20zM1338 719q0 -336 -163 -532t-412 -207v-124h-54v123q-258 8 -423 206q-166 199 -166 534v18
q0 335 165 534t424 206v121h54v-122q247 -12 411 -208t164 -531v-18z" />
    <glyph glyph-name="uni047B" unicode="&#x47b;" horiz-adv-x="1156" 
d="M158 520q0 -204 104 -334t254 -149v124h54v-128h9q190 0 304 142t114 345v42q0 199 -115 342.5t-305 143.5h-7v-138h-54v134q-149 -20 -253 -151q-105 -132 -105 -331v-42zM104 562q0 238 122 378t290 159v118h54v-115h7q211 0 342.5 -151t131.5 -389v-42
q0 -239 -131.5 -390t-340.5 -151h-9v-125h-54v129q-168 20 -290 159t-122 378v42z" />
    <glyph glyph-name="uni047C" unicode="&#x47c;" horiz-adv-x="1733" 
d="M840 1635h97v-142l-125 -151l-36 28l64 126v139zM1335 1617v-44h-17q-126 0 -247 93.5t-203 93.5t-129 -53.5t-47 -129.5v-18h-55v26q0 96 63.5 162t161.5 66t224.5 -98t234.5 -98h14zM1592 1004v-575q0 -219 -104.5 -334.5t-273.5 -115.5q-127 0 -219 65t-131 192
q-40 -127 -132 -192t-218 -65q-170 0 -274 115.5t-104 334.5v575q0 218 103.5 333t268.5 110l6 -2v-45q-144 0 -234 -105t-90 -291v-575q0 -187 90 -291.5t233 -104.5t233.5 104.5t90.5 291.5v510h54v-510q0 -187 90 -291.5t233 -104.5t233.5 104.5t90.5 291.5v575
q0 186 -90.5 291t-233.5 105v45l6 2q164 5 268 -110t104 -333z" />
    <glyph glyph-name="uni047D" unicode="&#x47d;" horiz-adv-x="1558" 
d="M768 1335h97v-142l-125 -151l-36 28l64 126v139zM1263 1317v-44h-17q-126 0 -247 93.5t-203 93.5t-129 -53.5t-47 -129.5v-18h-55v26q0 96 63.5 162t161.5 66t224.5 -98t234.5 -98h14zM1490 667v-258q0 -209 -99 -319.5t-259 -110.5q-119 0 -205.5 61t-124.5 180
q-39 -119 -126 -180t-204 -61q-161 0 -259.5 110.5t-98.5 319.5v258q0 208 97.5 318t254.5 105l6 -2v-45q-136 0 -220 -99.5t-84 -276.5v-258q0 -178 84 -277t219 -99t219.5 99t84.5 277v254h54v-254q0 -178 84 -277t219 -99t219.5 99t84.5 277v258q0 177 -84.5 276.5
t-219.5 99.5v45l6 2q156 5 254 -105t98 -318z" />
    <glyph glyph-name="uni047E" unicode="&#x47e;" horiz-adv-x="1750" 
d="M1546 1456h54v-1027q0 -219 -104 -334.5t-273 -115.5q-127 0 -219.5 65t-131.5 192q-40 -127 -132 -192t-218 -65q-170 0 -274 115.5t-104 334.5v1027h54v-1027q0 -187 90 -291.5t233 -104.5t233.5 104.5t90.5 291.5v1027h54v-1027q0 -187 89.5 -291.5t233.5 -104.5
t234 104.5t90 291.5v1027zM563 1705v56h699l2 -56h-332v-103h-54v103h-315z" />
    <glyph glyph-name="uni047F" unicode="&#x47f;" horiz-adv-x="1589" 
d="M1472 1082h54v-673q0 -209 -98.5 -319.5t-258.5 -110.5q-119 0 -206 61t-125 180q-39 -119 -126 -180t-204 -61q-161 0 -259.5 110.5t-98.5 319.5v673h54v-673q0 -178 84 -277t219 -99t219.5 99t84.5 277v673h54v-673q0 -177 84.5 -276.5t218.5 -99.5t219 99t85 277v673z
M849 1400v-133h-54v133h-317l3 56h699l2 -56h-333z" />
    <glyph glyph-name="uni0480" unicode="&#x480;" horiz-adv-x="1241" 
d="M687 -351h-55v330q-236 4 -377 179.5t-141 460.5v218q0 286 144 463t378 177t373 -119t135 -340l-2 -6h-46q0 197 -122 304t-334 107t-342 -161t-130 -423v-220q0 -265 130 -425.5t343 -160.5h46v-384z" />
    <glyph glyph-name="uni0481" unicode="&#x481;" horiz-adv-x="1037" 
d="M603 -351h-54v330q-205 3 -325 152.5t-120 388.5v42q0 240 122 390t329 150q166 0 278.5 -98.5t108.5 -277.5l-2 -6h-46q0 159 -97.5 243.5t-241.5 84.5q-191 0 -293 -137t-102 -349v-42q0 -212 100 -348.5t289 -138.5h54v-384z" />
    <glyph glyph-name="uni0482" unicode="&#x482;" horiz-adv-x="1096" 
d="M437 419l289 -172l-39 -68l-291 170l-191 -349h-102l225 398l-289 171l38 68l293 -171l235 420l-290 171l40 70l291 -171l218 386h99l-251 -435l293 -171l-43 -67l-288 170z" />
    <glyph glyph-name="uni0483" unicode="&#x483;" horiz-adv-x="925" 
d="M214 1362v-121h-58v173h481v108h55v-160h-478z" />
    <glyph glyph-name="uni0484" unicode="&#x484;" horiz-adv-x="1014" 
d="M151 1361q107 0 233 98t224 98t162.5 -66t64.5 -162v-26h-55v18q0 76 -47 129.5t-129 53.5t-203.5 -93.5t-246.5 -93.5h-17v44h14z" />
    <glyph glyph-name="uni0485" unicode="&#x485;" horiz-adv-x="458" 
d="M126 1642h97v-139l64 -126l-36 -28l-125 151v142z" />
    <glyph glyph-name="uni0486" unicode="&#x486;" horiz-adv-x="453" 
d="M190 1642h97v-142l-125 -151l-36 28l64 126v139z" />
    <glyph glyph-name="uni0488" unicode="&#x488;" horiz-adv-x="2033" 
d="M419 156q96 0 153 -51.5t53 -130.5l-2 -6h-105q0 44 -24 72.5t-74 28.5t-73.5 -29t-23.5 -72h-106l-2 6q-5 78 51.5 130t152.5 52zM253 675q96 0 152.5 -51.5t52.5 -130.5l-2 -6h-104q0 44 -24 72.5t-74 28.5t-74 -29t-24 -72h-105l-2 6q-5 78 51.5 130t152.5 52z
M430 1178q96 0 152.5 -51.5t52.5 -130.5l-2 -6h-104q0 43 -24.5 72t-74.5 29t-73.5 -29t-23.5 -72h-106l-2 6q-5 79 52 130.5t153 51.5zM1006 -128q96 0 153 -51t53 -131l-2 -6h-104q0 44 -24.5 72.5t-74.5 28.5t-73.5 -28.5t-23.5 -72.5h-105l-2 6q-5 80 51 131t152 51z
M1583 156q96 0 152.5 -51.5t52.5 -130.5l-2 -6h-104q0 44 -24 72.5t-74 28.5t-74 -29t-24 -72h-105l-2 6q-5 78 51.5 130t152.5 52zM1780 675q96 0 152.5 -51.5t52.5 -130.5l-2 -6h-104q0 44 -24.5 72.5t-74.5 28.5t-73.5 -29t-23.5 -72h-105l-2 6q-5 78 51.5 130t152.5 52z
M1593 1178q96 0 153 -51.5t53 -130.5l-2 -6h-105q0 44 -24 72.5t-74 28.5t-73.5 -29t-23.5 -72h-106l-2 6q-5 78 51.5 130t152.5 52zM1002 1455q96 0 152.5 -51.5t52.5 -130.5l-2 -6h-104q0 43 -24.5 72t-74.5 29t-73.5 -29t-23.5 -72h-105l-2 6q-5 79 51.5 130.5
t152.5 51.5z" />
    <glyph glyph-name="uni0489" unicode="&#x489;" horiz-adv-x="1965" 
d="M1457 161l17 -2l149 -325l-66 -71l-197 299zM495 860l-17 2l-148 326l65 69l198 -299zM635 21l-2 -17l-320 -153l-69 69l294 200zM1319 1002l2 16l321 153l68 -68q-37 -23 -294 -200zM395 433l-13 -12l-333 124v98l346 -71v-139zM1559 631l13 12l333 -124v-98l-346 71
v139zM881 1126l-12 14l122 338h96l-70 -352h-136zM1076 -60l11 -14l-122 -339h-96l70 353h137z" />
    <glyph glyph-name="uni048A" unicode="&#x48a;" horiz-adv-x="1552" 
d="M457 1456v-54h-163v-1122l6 -2l935 987v137h-163v54h380v-54h-163v-1348h162v81h54v-132q0 -168 -106 -282l-37 32q89 118 89 247h-379v54h163v1126l-6 2l-935 -988v-140h163v-54h-380v54h163v1348h-163v54h380zM736 1556q-128 0 -204 68q-74 68 -69 174l2 6h46
q0 -86 54 -139q55 -53 169 -53t170 54t56 138h46l2 -6q4 -106 -70 -174t-202 -68z" />
    <glyph glyph-name="uni048B" unicode="&#x48b;" horiz-adv-x="1352" 
d="M477 1082v-54h-163v-922l6 -2l663 978h218v-54h-163v-974h162v81h54v-132q0 -168 -106 -282l-37 32q89 118 89 247h-380v54h163v922l-6 2l-663 -978h-217v54h163v974h-163v54h380zM668 1213q-128 -1 -204 67q-74 68 -69 175l2 6h46q0 -86 54 -139q55 -53 169 -53t170 54
t56 138h46l2 -6q4 -107 -70 -175t-202 -67z" />
    <glyph glyph-name="uni048C" unicode="&#x48c;" horiz-adv-x="1289" 
d="M450 1456v-54h-163v-228h303v-54h-303v-332h369q227 0 349 -107t122 -287t-122 -287t-349 -107h-586v54h163v1066h-230v54h230v228h-163v54h380zM287 734v-680h369q209 0 312.5 96t103.5 243t-104 244t-312 97h-369z" />
    <glyph glyph-name="uni048D" unicode="&#x48d;" horiz-adv-x="1080" 
d="M235 616v-562h345q166 0 249.5 80t83.5 200t-84 201t-249 81h-345zM235 1456h329v-54h-329v-732h345q182 0 284.5 -93.5t102.5 -242.5t-102.5 -241.5t-284.5 -92.5h-562v54h163v1348h-204v54h204v112h-163v54h217v-166z" />
    <glyph glyph-name="uni048E" unicode="&#x48e;" horiz-adv-x="1271" 
d="M1048 1027q0 170 -104 272.5t-312 102.5h-351v-723h351q142 0 235 48l-112 132l41 35l118 -138q134 101 134 271zM1102 1027q0 -202 -152 -314l147 -172l-41 -35l-152 178q-109 -59 -272 -59h-351v-571h163v-54h-380v54h163v1348h-163v54h568q226 0 348 -113.5
t122 -315.5z" />
    <glyph glyph-name="uni048F" unicode="&#x48f;" horiz-adv-x="1234" 
d="M1002 521v21q0 225 -90.5 365.5t-254.5 140.5t-251 -79t-124 -194v-506q40 -108 134 -172t236 -64q89 0 155 35l-131 182l45 32l132 -183q149 123 149 422zM1057 521q0 -324 -173 -465l86 -119l-44 -33l-87 121q-81 -46 -198 -46t-211.5 51t-147.5 138v-530h163v-54h-380
v54h163v1390h-163v54h205l11 -194q54 100 147 157t221 57q191 0 299.5 -151.5t108.5 -408.5v-21z" />
    <glyph glyph-name="uni0490" unicode="&#x490;" horiz-adv-x="1192" 
d="M1057 1828h54v-427h-54v1h-763v-1348h163v-54h-380v54h163v1348h-163v54h980v372z" />
    <glyph glyph-name="uni0491" unicode="&#x491;" horiz-adv-x="1028" 
d="M831 1082v372h54v-427h-596v-973h163v-54h-380v54h163v974h-163v54h759z" />
    <glyph glyph-name="uni0492" unicode="&#x492;" horiz-adv-x="1203" 
d="M716 731h-422v-677h163v-54h-380v54h163v677h-111v54h111v617h-163v54h1025v-293h-54v239h-754v-617h422v-54z" />
    <glyph glyph-name="uni0493" unicode="&#x493;" horiz-adv-x="1030" 
d="M235 558h-200v54h200v416h-163v54h823v-192h-54v137h-552v-415h333v-54h-333v-504h163v-54h-380v54h163v504z" />
    <glyph glyph-name="uni0494" unicode="&#x494;" horiz-adv-x="1203" 
d="M77 54h163v1348h-163v54h1025v-293h-54v239h-754v-579h227q256 0 408 -134.5t152 -430.5q0 -196 -111.5 -364.5t-322.5 -164.5l-6 2v42q180 0 283 147t103 338q0 260 -139 386t-367 126h-227v-716h163v-54h-380v54z" />
    <glyph glyph-name="uni0495" unicode="&#x495;" horiz-adv-x="1083" 
d="M885 890h-54v137h-542v-421h178q238 0 379 -106.5t141 -338.5q3 -127 -83.5 -252.5t-280.5 -163.5l-16 42q173 35 247.5 142t78.5 232q6 199 -124 295.5t-342 96.5h-178v-499h163v-54h-380v54h163v974h-163v54h813v-192z" />
    <glyph glyph-name="uni0496" unicode="&#x496;" horiz-adv-x="2020" 
d="M1934 54v-406h-54v352h-268v54h112l3 5l-530 661h-171v-666h163v-54h-380v54h163v666h-173l-530 -661l3 -5h113v-54h-322v54h130l553 689l-417 545q-61 79 -99 102t-80 23q-43 0 -71 -18l-24 46q39 26 93 26q52 1 102 -27t119 -117l422 -550h181v629h-163v54h380v-54
h-163v-629h184l422 550q68 89 118 117t102 27q53 0 94 -26l-24 -46q-29 18 -72 18q-42 0 -80 -23t-98 -102l-420 -548l551 -686h131z" />
    <glyph glyph-name="uni0497" unicode="&#x497;" horiz-adv-x="1801" 
d="M1616 1039q-42 1 -79 -23t-100 -102l-287 -357l467 -503h138v-406h-54v352h-105l-500 529h-156v-475h163v-54h-380v54h163v475h-154l-499 -529h-158v54h137l469 506l-285 354q-63 78 -100 102t-80 23q-43 0 -70 -18l-24 46q39 26 92 26q52 0 101 -28t121 -116l297 -367
h153v446h-163v54h380v-54h-163v-446h160l297 367q71 88 120 116t101 28t93 -26l-24 -46q-29 18 -71 18z" />
    <glyph glyph-name="uni0498" unicode="&#x498;" horiz-adv-x="1211" 
d="M567 771q444 1 444 317q0 152 -110 244t-329 91q-144 1 -256 -53t-178 -144v-214h-55v234q73 107 201 169t288 62q229 0 361 -102t132 -292q1 -119 -75 -209t-216 -129q314 -68 314 -359q0 -190 -140 -296t-355 -111v-331h-54v332q-180 8 -324 113q-144 104 -139 305l2 6
h46q0 -163 120 -263t295 -107v20h54v-21q204 4 322 95q119 90 119 259t-117 249t-350 79h-184v56h184z" />
    <glyph glyph-name="uni0499" unicode="&#x499;" horiz-adv-x="1030" 
d="M893 290q0 -144 -104 -221t-257 -85v-345h-54v344q-153 3 -274 83q-120 80 -115 229l2 6h46q0 -114 99 -187t242 -76v7h54v-6q139 7 222 69q84 61 84 182t-87 178t-265 57h-145v55h145q333 0 333 225q-1 109 -81 174t-233 65t-251 -68t-99 -177h-46l-2 6q-5 129 109 211
t284 82t272 -76t102 -220q0 -85 -54 -151t-156 -97q229 -54 229 -264z" />
    <glyph glyph-name="uni049A" unicode="&#x49a;" horiz-adv-x="1388" 
d="M71 54h163v1348h-163v54h380v-54h-163v-638h238l565 633l-2 5h-168v54h361v-54h-115l-596 -672l639 -676h118v-406h-54v352h-307v54h163l3 6l-622 651h-223v-657h163v-54h-380v54z" />
    <glyph glyph-name="uni049B" unicode="&#x49b;" horiz-adv-x="1230" 
d="M1039 1039q-42 1 -79 -23t-100 -102l-290 -361l472 -499h138v-406h-54v352h-114l-499 529h-198v-475h163v-54h-381v54h163v974h-163v54h381v-54h-163v-446h208l297 367q71 88 120 116t101 28t93 -26l-24 -46q-29 18 -71 18z" />
    <glyph glyph-name="uni049C" unicode="&#x49c;" horiz-adv-x="1432" 
d="M1317 54v-54h-158l-529 720h-103v-323h-55v323h-185v-666h163v-54h-380v54h163v1348h-163v54h380v-54h-163v-629h185v308h55v-308h100l382 550q68 89 117.5 116.5t102.5 27.5t94 -26l-24 -46q-29 18 -72 18t-80.5 -23t-97.5 -102l-374 -537l515 -697h127z" />
    <glyph glyph-name="uni049D" unicode="&#x49d;" horiz-adv-x="1296" 
d="M1183 54v-54h-159l-388 529h-101v-279h-55v279h-172v-475h163v-54h-381v54h163v974h-163v54h381v-54h-163v-446h172v268h55v-268h86l257 367q63 90 113.5 117t104.5 27t96 -26l-24 -46q-29 18 -73 18t-82.5 -23t-94.5 -102l-242 -345l389 -515h118z" />
    <glyph glyph-name="uni049E" unicode="&#x49e;" horiz-adv-x="1408" 
d="M91 54h163v1104h-231v54h231v190h-163v54h380v-54h-163v-190h302v-54h-302v-394h238l565 633l-2 5h-168v54h361v-54h-115l-596 -672l639 -676h118v-54h-361v54h163l3 6l-622 651h-223v-657h163v-54h-380v54z" />
    <glyph glyph-name="uni049F" unicode="&#x49f;" horiz-adv-x="1172" 
d="M109 1264v54h136v188h-163v54h217v-242h397v-54h-397v-657h127l430 415l-2 6h-119v54h321v-54h-122l-447 -439l489 -535h117v-54h-320v54h126l2 5l-454 494h-148v-499h163v-54h-380v54h163v1210h-136z" />
    <glyph glyph-name="uni04A0" unicode="&#x4a0;" horiz-adv-x="1786" 
d="M1723 54v-54h-361v54h163l3 6l-621 650h-224v-656h163v-54h-380v54h163v1348h-518v-239h-54v293h789v-54h-163v-639h234l432 560q68 89 117.5 116.5t102.5 27.5t94 -26l-24 -46q-29 18 -72 18t-80.5 -23t-97.5 -102l-427 -554l643 -680h118z" />
    <glyph glyph-name="uni04A1" unicode="&#x4a1;" horiz-adv-x="1566" 
d="M1438 54v-54h-168l-499 529h-198v-475h163v-54h-381v54h163v974h-382v-239h-54v293h654v-54h-163v-446h208l297 367q71 88 120 116t101 28t93 -26l-24 -46q-29 18 -71 18t-79 -23.5t-100 -101.5l-290 -361l472 -499h138z" />
    <glyph glyph-name="uni04A2" unicode="&#x4a2;" horiz-adv-x="1506" 
d="M71 1402v54h380v-54h-163v-653h930v653h-163v54h380v-54h-163v-1348h163v-406h-54v352h-326v54h163v641h-930v-641h163v-54h-380v54h163v1348h-163z" />
    <glyph glyph-name="uni04A3" unicode="&#x4a3;" horiz-adv-x="1351" 
d="M97 1028v54h380v-54h-163v-445h669v445h-163v54h381v-54h-163v-974h163v-406h-54v352h-327v54h163v475h-669v-475h163v-54h-380v54h163v974h-163z" />
    <glyph glyph-name="uni04A4" unicode="&#x4a4;" horiz-adv-x="2067" 
d="M446 1456v-54h-163v-653h930v653h-163v54h1001v-293h-54v239h-730v-1348h163v-54h-380v54h163v641h-930v-641h163v-54h-380v54h163v1348h-163v54h380z" />
    <glyph glyph-name="uni04A5" unicode="&#x4a5;" horiz-adv-x="1505" 
d="M477 1082v-54h-163v-445h669v444h-7l-1 1h-155v54h661v-293h-54v238h-389v-973h163v-54h-381v54h163v475h-669v-475h163v-54h-380v54h163v974h-163v54h380z" />
    <glyph glyph-name="uni04A6" unicode="&#x4a6;" horiz-adv-x="2079" 
d="M56 1402v54h1364v-54h-163v-564h217q256 0 408 -134.5t152 -430.5q0 -196 -111.5 -364.5t-322.5 -164.5l-6 2v42q180 0 283 147t103 338q0 260 -139 386t-367 126h-217v-731h163v-54h-380v54h163v1348h-930v-1348h163v-54h-380v54h163v1348h-163z" />
    <glyph glyph-name="uni04A7" unicode="&#x4a7;" horiz-adv-x="1742" 
d="M1201 1028h-163v-422h111q238 0 379 -106.5t141 -338.5q3 -127 -83.5 -252.5t-280.5 -163.5l-16 42q173 35 247.5 142t78.5 232q6 199 -124 295.5t-342 96.5h-111v-499h163v-54h-381v54h163v973h-669v-973h163v-54h-380v54h163v974h-163v54h1104v-54z" />
    <glyph glyph-name="uni04A8" unicode="&#x4a8;" horiz-adv-x="1529" 
d="M670 695q0 -194 92 -349.5t265 -238.5q145 81 224 236t79 352v185q0 237 -89.5 383t-244.5 146t-240.5 -147t-85.5 -382v-185zM1398 31v-53q-200 0 -362 71q-138 -70 -316 -70q-288 0 -451 207.5t-163 530.5v142q0 272 124.5 444t324.5 167l6 -2l3 -45
q-181 0 -292 -163.5t-111 -398.5v-144q0 -295 153 -489.5t406 -194.5q138 0 252 48q-169 93 -263 255t-94 361v182q0 266 102.5 425t277.5 159t282 -160t107 -424v-184q0 -207 -77 -365.5t-216 -248.5q136 -50 307 -50z" />
    <glyph glyph-name="uni04A9" unicode="&#x4a9;" horiz-adv-x="1243" 
d="M1025 532v105q0 172 -66.5 291t-173.5 119t-168.5 -110t-61.5 -280v-112q0 -152 70.5 -267.5t198.5 -176.5q96 63 148.5 176.5t52.5 254.5zM1110 42v-54q-159 0 -283 54q-104 -63 -243 -63q-210 0 -341 157.5t-131 396.5v94q0 205 91 338.5t235 128.5l6 -2v-44
q-112 0 -195 -121.5t-83 -297.5v-96q0 -217 112.5 -358.5t305.5 -141.5q102 0 184 37q-128 71 -197.5 194.5t-69.5 282.5v108q0 197 79 321.5t208 124.5t210 -133.5t81 -333.5v-102q0 -143 -52.5 -261.5t-145.5 -192.5q104 -36 229 -36z" />
    <glyph glyph-name="uni04AA" unicode="&#x4aa;" horiz-adv-x="1373" 
d="M1256 992h-55v234q-67 90 -179 144t-255 53q-259 0 -421 -189t-162 -495v-20q0 -307 156 -490t384 -195v20h54v-21q132 4 244 55q113 52 179 142v234h55v-254q-73 -107 -202 -167t-276 -64v-331h-54v332q-255 12 -424 211q-170 199 -170 528v18q0 330 176 535t461 205
q159 0 287 -62t202 -169v-254z" />
    <glyph glyph-name="uni04AB" unicode="&#x4ab;" horiz-adv-x="1086" 
d="M556 1048q-202 0 -300 -136t-98 -350v-42q0 -216 95 -347t268 -139v10h54v-10q119 7 219 78q99 71 99 221h46l2 -6q4 -159 -111 -249t-255 -98v-342h-54v342q-189 9 -303 153t-114 387v42q0 242 117 391t323 149q122 0 226 -50t167 -137v-232h-54v212q-125 153 -327 153z
" />
    <glyph glyph-name="uni04AC" unicode="&#x4ac;" horiz-adv-x="1277" 
d="M1194 1456v-293h-54v239h-476v-1348h163v-406h-54v352h-326v54h163v1348h-476v-239h-54v293h1114z" />
    <glyph glyph-name="uni04AD" unicode="&#x4ad;" horiz-adv-x="1083" 
d="M972 1082v-293h-54v238h-371v-973h163v-406h-54v352h-326v54h163v973h-349v-238h-54v293h882z" />
    <glyph glyph-name="uni04AE" unicode="&#x4ae;" horiz-adv-x="1429" 
d="M371 1402h-131l449 -755l26 -50l27 50l451 755h-131v54h316v-54h-120l-514 -849v-499h163v-54h-381v54h163v499l-515 849h-119v54h316v-54z" />
    <glyph glyph-name="uni04AF" unicode="&#x4af;" horiz-adv-x="1084" 
d="M84 1091q60 0 106 -42t81 -145l237 -675l48 -146h6l52 146l312 799h-142v54h308v-54h-108l-398 -1023v-420h-54v415l-305 879q-37 105 -71 135t-83 30t-84 -22l-19 41q54 28 114 28z" />
    <glyph glyph-name="uni04B0" unicode="&#x4b0;" horiz-adv-x="1429" 
d="M371 1402h-131l449 -755l19 -35h15l470 790h-131v54h316v-54h-120l-479 -790h274v-54h-307l-2 -5v-499h163v-54h-381v54h163v499l-3 5h-220v54h187l-479 790h-119v54h316v-54z" />
    <glyph glyph-name="uni04B1" unicode="&#x4b1;" horiz-adv-x="1084" 
d="M84 1091q60 0 106 -42t81 -145l237 -675l48 -145h6l52 145l312 799h-142v54h308v-54h-108l-377 -968h286v-54h-307v-421h-54v415l-2 6h-224v54h205l-284 819q-37 105 -71 135t-83 30t-84 -22l-19 41q54 28 114 28z" />
    <glyph glyph-name="uni04B2" unicode="&#x4b2;" horiz-adv-x="1391" 
d="M63 54h115l486 689l-466 659h-115v54h338v-54h-156l432 -617l433 617h-155v54h337v-54h-115l-465 -659l486 -689h115v-406h-54v352h-283v54h155l-454 647l-453 -647h155v-54h-336v54z" />
    <glyph glyph-name="uni04B3" unicode="&#x4b3;" horiz-adv-x="1192" 
d="M82 54h126l361 501l-341 473h-126v54h318v-54h-124l307 -426l306 426h-124v54h318v-54h-126l-341 -473l361 -501h126v-406h-54v352h-263v54h124l-328 454l-327 -454h124v-54h-317v54z" />
    <glyph glyph-name="uni04B4" unicode="&#x4b4;" horiz-adv-x="1806" 
d="M1021 1162h-54v239h-417v-1347h930v1348h-163v54h380v-54h-163v-1348h133v-405h-54v351h-1280v54h163v1347h-365v-239h-54v293h256v1h380v-1h308v-293z" />
    <glyph glyph-name="uni04B5" unicode="&#x4b5;" horiz-adv-x="1457" 
d="M838 1082v-293h-54v239h-316v-974h659v1028h218v-54h-163v-974h121v-375h-54v321h-998v54h163v974h-310v-239h-54v293h788z" />
    <glyph glyph-name="uni04B6" unicode="&#x4b6;" horiz-adv-x="1461" 
d="M693 712q204 0 410 60v630h-163v54h380v-54h-163v-1348h163v-406h-54v352h-326v54h163v665q-219 -61 -402 -61q-239 0 -359 104t-120 343v297h-163v54h380v-54h-163v-297q0 -205 106 -299t311 -94z" />
    <glyph glyph-name="uni04B7" unicode="&#x4b7;" horiz-adv-x="1319" 
d="M445 1082v-54h-163v-180q0 -204 80 -278t275 -74q79 4 169 26t146 51v455h-163v54h380v-54h-163v-974h163v-406h-54v352h-326v54h163v468q-66 -32 -156 -56t-159 -24q-221 0 -315 84t-94 322v180h-163v54h380z" />
    <glyph glyph-name="uni04B8" unicode="&#x4b8;" horiz-adv-x="1461" 
d="M1103 1402h-163v54h380v-54h-163v-1348h163v-54h-380v54h163v665q-214 -60 -393 -61v-257h-55v258q-205 9 -319 109q-114 99 -114 337v297h-163v54h380v-54h-163v-297q0 -206 101 -294t278 -98v370h55v-371q192 1 393 60v630z" />
    <glyph glyph-name="uni04B9" unicode="&#x4b9;" horiz-adv-x="1316" 
d="M500 1082v-54h-163v-180q0 -204 80 -278q62 -57 192 -70v249h56v-253q86 -2 186.5 23t155.5 54v455h-163v54h380v-54h-163v-974h163v-54h-380v54h163v468q-66 -33 -156 -56.5t-131 -23.5h-55v-249h-56v252q-157 13 -232 81q-94 84 -94 322v180h-163v54h380z" />
    <glyph glyph-name="uni04BA" unicode="&#x4ba;" horiz-adv-x="1328" 
d="M656 744q-201 0 -412 -60v-630h163v-54h-380v54h163v1348h-163v54h380v-54h-163v-665q224 61 402 61q238 0 358.5 -105t120.5 -342v-297h163v-54h-380v54h163v297q0 205 -107 299t-308 94z" />
    <glyph glyph-name="uni04BB" unicode="&#x4bb;" horiz-adv-x="1278" 
d="M663 1102q344 0 344 -444v-604h163v-54h-381v54h163v606q0 212 -78 300t-210 88q-175 0 -268 -104t-117 -268v-622h163v-54h-380v54h163v1452h-163v54h217v-706q50 118 147 183t237 65z" />
    <glyph glyph-name="uni04BC" unicode="&#x4bc;" horiz-adv-x="1525" 
d="M413 818h962v51q0 239 -129.5 395t-351.5 156t-351.5 -157t-129.5 -392v-53zM937 31q262 0 435 154l30 -43q-84 -76 -191 -120.5t-275 -44.5q-274 0 -425.5 160t-151.5 422v204q-143 10 -220.5 89t-73.5 216l3 6h47q0 -115 61 -180t177 -70l6 2v45q0 264 150.5 434
t388.5 170t384.5 -165t146.5 -444v-103h-1016v-204q0 -234 131 -381t393 -147z" />
    <glyph glyph-name="uni04BD" unicode="&#x4bd;" horiz-adv-x="1260" 
d="M702 1048q-160 0 -267 -117.5t-121 -293.5l3 -6h746v33q0 165 -100.5 274.5t-260.5 109.5zM252 500v82q-93 9 -143 78.5t-50 191.5h55q0 -200 142 -216q20 206 146 336t305 130t294.5 -120t115.5 -322v-83h-811v-77q0 -196 115 -331.5t285 -135.5q226 0 342 132l29 -42
q-130 -144 -371 -144q-185 0 -319.5 149.5t-134.5 371.5z" />
    <glyph glyph-name="uni04BE" unicode="&#x4be;" horiz-adv-x="1525" 
d="M413 818h962v51q1 239 -129 395t-352 156t-352 -157t-129 -392v-53zM937 31q262 0 435 154l30 -43q-84 -76 -191 -120t-275 -45h-22v-373h-54v376q-220 20 -350 157q-152 160 -151 422v204q-143 10 -221 89t-73 216l3 6h47q0 -115 61 -180t177 -70l6 2v45q1 264 151 434
t388 170t384 -165t147 -444v-103h-1016v-204q0 -234 131 -381t393 -147z" />
    <glyph glyph-name="uni04BF" unicode="&#x4bf;" horiz-adv-x="1260" 
d="M702 1048q-160 0 -267 -118t-121 -293l3 -6h746v33q0 164 -100 274q-101 110 -261 110zM718 -352h-54v333q-159 15 -285 156q-127 141 -127 363v82q-93 8 -143 78t-50 192h55q0 -200 142 -216q20 206 146 336t305 130t295 -120t115 -322v-83h-811v-77q0 -196 108 -323
t250 -142v19h54v-21q217 3 330 132l29 -42q-127 -141 -359 -144v-331z" />
    <glyph glyph-name="uni04C0" unicode="&#x4c0;" horiz-adv-x="598" 
d="M109 1402v54h380v-54h-163v-1348h163v-54h-380v54h163v1348h-163z" />
    <glyph glyph-name="uni04C1" unicode="&#x4c1;" horiz-adv-x="2020" 
d="M1934 54v-54h-322v54h112l3 5l-530 661h-171v-666h163v-54h-380v54h163v666h-173l-530 -661l3 -5h113v-54h-322v54h130l553 689l-417 545q-61 79 -99 102t-80 23q-43 0 -71 -18l-24 46q39 26 93 26q52 1 102 -27t119 -117l422 -550h181v629h-163v54h380v-54h-163v-629
h184l422 550q68 89 118 117t102 27q53 0 94 -26l-24 -46q-29 18 -72 18q-42 0 -80 -23t-98 -102l-420 -548l551 -686h131zM998 1556q-128 0 -204 68q-74 68 -69 174l2 6h46q0 -86 54 -139q55 -53 169 -53t170 54t56 138h46l2 -6q4 -106 -70 -174t-202 -68z" />
    <glyph glyph-name="uni04C2" unicode="&#x4c2;" horiz-adv-x="1801" 
d="M1616 1039q-42 1 -79 -23t-100 -102l-287 -357l467 -503h137v-54h-158l-500 529h-156v-475h163v-54h-380v54h163v475h-154l-499 -529h-158v54h137l469 506l-285 354q-63 78 -100 102t-80 23q-43 0 -70 -18l-24 46q39 26 92 26q52 0 101 -28t121 -116l297 -367h153v446
h-163v54h380v-54h-163v-446h160l297 367q71 88 120 116t101 28t93 -26l-24 -46q-29 18 -71 18zM910 1213q-128 -1 -204 67q-74 68 -69 175l2 6h46q0 -86 54 -139q55 -53 169 -53t170 54t56 138h46l2 -6q4 -107 -70 -175t-202 -67z" />
    <glyph glyph-name="uni04C3" unicode="&#x4c3;" horiz-adv-x="1373" 
d="M70 1402v54h380v-54h-163v-628h218l578 682h158v-54h-133l-525 -623l2 -5h57q256 0 408 -134.5t152 -430.5q0 -196 -111.5 -364.5t-322.5 -164.5l-6 2v42q180 0 283 147t103 338q0 260 -139 386t-367 126h-355v-667h163v-54h-380v54h163v1348h-163z" />
    <glyph glyph-name="uni04C4" unicode="&#x4c4;" horiz-adv-x="1250" 
d="M90 1028v54h381v-54h-163v-444h180l457 498h165v-54h-137l-410 -445q218 -10 346.5 -118t128.5 -329q3 -126 -83.5 -252t-280.5 -164l-17 42q173 35 248 142t79 232q6 200 -124 297t-342 97h-4l-1 -1h-205v-475h163v-54h-381v54h163v974h-163z" />
    <glyph glyph-name="uni04C5" unicode="&#x4c5;" horiz-adv-x="1503" 
d="M89 0h-32v54h35q157 0 221 152t88 616l38 580h-159v54h1139v-54h-163v-1348h162v81h54v-132q0 -168 -106 -282l-37 32q89 118 89 247h-379v54h163v1348h-709l-38 -580q-24 -472 -95 -647t-271 -175z" />
    <glyph glyph-name="uni04C6" unicode="&#x4c6;" horiz-adv-x="1277" 
d="M757 54h163v973h-536v-437q0 -318 -65 -454t-218 -136h-32v53h35q114 0 170 117t56 420v438h-163v54h971v-54h-163v-974h162v81h54v-132q0 -168 -106 -282l-37 32q89 118 89 247h-380v54z" />
    <glyph glyph-name="uni04C7" unicode="&#x4c7;" horiz-adv-x="1535" 
d="M1224 -89v784h-930v-641h163v-54h-380v54h163v1348h-163v54h380v-54h-163v-653h930v653h-163v54h380v-54h-163v-1491q0 -167 -75 -257.5t-209 -90.5q-53 0 -113 20l14 52q51 -18 99 -18q109 0 169.5 77t60.5 217z" />
    <glyph glyph-name="uni04C8" unicode="&#x4c8;" horiz-adv-x="1325" 
d="M745 -383q110 0 170.5 76.5t60.5 217.5v618h-669v-475h163v-54h-380v54h163v974h-163v54h380v-54h-163v-445h669v445h-163v54h381v-54h-163v-1117q0 -167 -75.5 -257.5t-210.5 -90.5q-52 0 -112 20l13 52q51 -18 99 -18z" />
    <glyph glyph-name="uni04C9" unicode="&#x4c9;" horiz-adv-x="1506" 
d="M71 1402v54h380v-54h-163v-653h930v653h-163v54h380v-54h-163v-1348h162v81h54v-132q0 -168 -106 -282l-37 32q89 118 89 247h-379v54h163v641h-930v-641h163v-54h-380v54h163v1348h-163z" />
    <glyph glyph-name="uni04CA" unicode="&#x4ca;" horiz-adv-x="1351" 
d="M97 1028v54h380v-54h-163v-445h669v445h-163v54h381v-54h-163v-974h162v81h54v-132q0 -168 -106 -282l-37 32q89 118 89 247h-380v54h163v475h-669v-475h163v-54h-380v54h163v974h-163z" />
    <glyph glyph-name="uni04CB" unicode="&#x4cb;" horiz-adv-x="1461" 
d="M693 712q204 0 410 60v630h-163v54h380v-54h-163v-1348h163v-54h-326v-352h-54v406h163v665q-219 -61 -402 -61q-239 0 -359 104t-120 343v297h-163v54h380v-54h-163v-297q0 -205 106 -299t311 -94z" />
    <glyph glyph-name="uni04CC" unicode="&#x4cc;" horiz-adv-x="1319" 
d="M445 1082v-54h-163v-180q0 -204 80 -278t275 -74q79 4 169 26t146 51v455h-163v54h380v-54h-163v-974h163v-54h-326v-352h-54v406h163v468q-66 -32 -156 -56t-159 -24q-221 0 -315 84t-94 322v180h-163v54h380z" />
    <glyph glyph-name="uni04CD" unicode="&#x4cd;" horiz-adv-x="1824" 
d="M288 54h163v-54h-380v54h163v1348h-163v54h240l596 -1370h6l598 1370h242v-54h-163v-1348h162v81h54v-132q0 -168 -106 -282l-37 32q89 118 89 247h-379v54h163v1307l-6 2l-598 -1363h-43l-595 1356l-6 -2v-1300z" />
    <glyph glyph-name="uni04CE" unicode="&#x4ce;" horiz-adv-x="1684" 
d="M1546 1082v-54h-163v-974h162v81h54v-132q0 -168 -106 -282l-37 32q89 118 89 247h-380v54h163v911l-6 1l-475 -966h-42l-485 990l-6 -1v-935h163v-54h-380v54h163v974h-163v54h237l492 -1000l492 1000h228z" />
    <glyph glyph-name="uni04CF" unicode="&#x4cf;" horiz-adv-x="598" 
d="M109 1402v54h380v-54h-163v-1348h163v-54h-380v54h163v1348h-163z" />
    <glyph glyph-name="uni04D0" unicode="&#x4d0;" 
d="M383 489h672l-305 820l-28 82h-6l-27 -82zM55 54h107l524 1402h66l525 -1402h107v-54h-309v54h143l-143 381h-712l-142 -381h143v-54h-309v54zM714 1554q-128 0 -204 68q-74 68 -69 174l2 6h46q0 -86 54 -139q55 -53 169 -53t170 54t56 138h46l2 -6q4 -106 -70 -174
t-202 -68z" />
    <glyph glyph-name="uni04D1" unicode="&#x4d1;" horiz-adv-x="1132" 
d="M443 32q137 0 250 69t170 191v257h-266q-199 1 -319 -77t-120 -190t74 -182q74 -68 211 -68zM863 183v16q-61 -97 -173 -159t-262 -61q-150 -1 -238 81q-86 82 -86 221t133 231t357 92h269v158q-1 134 -87 210t-243 76q-210 0 -345 -109l-1 -173h-54l1 206q78 58 182 94
t217 36q174 0 279 -88t105 -254v-542q0 -89 15 -164h130v-54h-177q-22 120 -22 183zM534 1236q-128 0 -204 68q-74 68 -69 174l2 6h46q0 -86 54 -139q55 -53 169 -53t170 54t56 138h46l2 -6q4 -106 -70 -174t-202 -68z" />
    <glyph glyph-name="uni04D2" unicode="&#x4d2;" 
d="M383 489h672l-305 820l-28 82h-6l-27 -82zM55 54h107l524 1402h66l525 -1402h107v-54h-309v54h143l-143 381h-712l-142 -381h143v-54h-309v54zM553 1671h-137v118h137v-118zM1022 1671h-136v118h136v-118z" />
    <glyph glyph-name="uni04D3" unicode="&#x4d3;" horiz-adv-x="1132" 
d="M443 32q137 0 250 69t170 191v257h-266q-199 1 -319 -77t-120 -190t74 -182q74 -68 211 -68zM863 183v16q-61 -97 -173 -159t-262 -61q-150 -1 -238 81q-86 82 -86 221t133 231t357 92h269v158q-1 134 -87 210t-243 76q-210 0 -345 -109l-1 -173h-54l1 206q78 58 182 94
t217 36q174 0 279 -88t105 -254v-542q0 -89 15 -164h130v-54h-177q-22 120 -22 183zM373 1353h-137v118h137v-118zM842 1353h-136v118h136v-118z" />
    <glyph glyph-name="uni04D4" unicode="&#x4d4;" horiz-adv-x="2026" 
d="M490 478h594l-39 924l-5 1l-57 -105zM51 54h119l849 1402h776v-293h-54v239h-642l26 -616h588v-54h-586l28 -678h647v239h54v-293h-915v54h160l-15 371h-628l-223 -371h131v-54h-315v54z" />
    <glyph glyph-name="uni04D5" unicode="&#x4d5;" horiz-adv-x="1779" 
d="M1261 1048q-163 0 -265 -116t-114 -295l2 -5h723v32q1 168 -91 276t-255 108zM444 31q137 -1 244 65t129 129v350h-288q-185 0 -281 -84t-96 -206t78 -188t214 -66zM817 720q0 328 -300 328q-155 0 -247 -78t-92 -199l-45 6l-2 6q-5 139 103 229t269 90q314 0 361 -288
q53 132 157 210t236 78q188 0 296 -118t108 -324v-83h-787v-77q0 -208 99 -338t301 -129q202 0 330 131l30 -42q-64 -66 -148 -104t-220 -39q-136 0 -239 66q-102 66 -155 185v-12h1q-44 -95 -153 -167t-273 -72t-257 82t-93 231q-1 150 111 244t319 94h290v90z" />
    <glyph glyph-name="uni04D6" unicode="&#x4d6;" horiz-adv-x="1270" 
d="M71 0v54h163v1348h-163v54h1049v-293h-54v239h-778v-616h630v-54h-630v-678h778v239h54v-293h-1049zM618 1556q-128 0 -202 68t-70 174l2 6h46q0 -86 54 -139t168 -53t171 54q56 54 56 138h46l2 -6q4 -106 -70 -174q-75 -68 -203 -68z" />
    <glyph glyph-name="uni04D7" unicode="&#x4d7;" horiz-adv-x="1104" 
d="M562 1048q-160 0 -267 -118t-121 -293l3 -6h746v33q0 164 -100 274q-101 110 -261 110zM112 500v64q0 234 130 386t317 152t303 -120t115 -322v-83h-811v-77q0 -196 115 -332t285 -135q226 0 342 132l29 -42q-130 -144 -371 -144q-186 -1 -320 149t-134 372zM566 1235
q-128 -1 -202 67t-70 175l2 6h46q0 -86 54 -139t168 -53t171 54q56 54 56 138h46l2 -6q4 -107 -70 -175q-75 -68 -203 -67z" />
    <glyph glyph-name="uni04D8" unicode="&#x4d8;" horiz-adv-x="1388" 
d="M666 33q244 0 384.5 177t139.5 441l-2 5h-1056v-72q0 -239 145 -395t389 -156zM649 1423q-273 0 -454 -154l-30 43q88 75 198.5 120t286.5 45q284 0 441.5 -176.5t157.5 -465.5v-172q0 -301 -162.5 -492.5t-422.5 -191.5t-423 164.5t-163 444.5v123h1117v124
q0 260 -136.5 424t-409.5 164z" />
    <glyph glyph-name="uni04D9" unicode="&#x4d9;" horiz-adv-x="1032" 
d="M500 33q160 0 268 117q106 117 121 294l-3 6h-745v-33q-1 -166 99 -275t260 -109zM498 1102q184 0 319 -150t135 -371v-64q0 -234 -130 -386t-318 -152q-187 -1 -302 119t-115 323v83h810l1 13v64q0 195 -116 331t-284 136q-226 0 -342 -132l-29 42q130 144 371 144z" />
    <glyph glyph-name="uni04DA" unicode="&#x4da;" horiz-adv-x="1388" 
d="M666 33q244 0 385 177q140 177 139 441l-2 5h-1056v-72q0 -239 145 -395t389 -156zM649 1423q-273 0 -454 -154l-30 43q89 75 199 120t286 45q284 -1 442 -177t157 -465v-172q-1 -301 -163 -493t-422 -191t-424 165q-162 164 -162 444v123h1117v124q-1 260 -137 424
t-409 164zM532 1627h-137v118h137v-118zM1001 1627h-136v118h136v-118z" />
    <glyph glyph-name="uni04DB" unicode="&#x4db;" horiz-adv-x="1032" 
d="M500 33q160 0 268 117q106 117 121 294l-3 6h-745v-33q-1 -166 99 -275t260 -109zM498 1102q184 0 319 -150t135 -371v-64q0 -234 -130 -386t-318 -152q-187 -1 -302 119t-115 323v83h810l1 13v64q0 195 -116 331t-284 136q-226 0 -342 -132l-29 42q130 144 371 144z
M353 1352h-137v118h137v-118zM822 1352h-136v118h136v-118z" />
    <glyph glyph-name="uni04DC" unicode="&#x4dc;" horiz-adv-x="2020" 
d="M1934 54v-54h-322v54h112l3 5l-530 661h-171v-666h163v-54h-380v54h163v666h-173l-530 -661l3 -5h113v-54h-322v54h130l553 689l-417 545q-61 79 -99 102t-80 23q-43 0 -71 -18l-24 46q39 26 93 26q52 1 102 -27t119 -117l422 -550h181v629h-163v54h380v-54h-163v-629
h184l422 550q68 89 118 117t102 27q53 0 94 -26l-24 -46q-29 18 -72 18q-42 0 -80 -23t-98 -102l-420 -548l551 -686h131zM837 1673h-137v118h137v-118zM1306 1673h-136v118h136v-118z" />
    <glyph glyph-name="uni04DD" unicode="&#x4dd;" horiz-adv-x="1801" 
d="M1616 1039q-42 1 -79 -23t-100 -102l-287 -357l467 -503h137v-54h-158l-500 529h-156v-475h163v-54h-380v54h163v475h-154l-499 -529h-158v54h137l469 506l-285 354q-63 78 -100 102t-80 23q-43 0 -70 -18l-24 46q39 26 92 26q52 0 101 -28t121 -116l297 -367h153v446
h-163v54h380v-54h-163v-446h160l297 367q71 88 120 116t101 28t93 -26l-24 -46q-29 18 -71 18zM749 1331h-137v118h137v-118zM1218 1331h-136v118h136v-118z" />
    <glyph glyph-name="uni04DE" unicode="&#x4de;" horiz-adv-x="1211" 
d="M567 771q444 1 444 317q0 152 -110 244t-329 91q-144 1 -256 -53t-178 -144v-214h-55v234q73 107 201 169t288 62q229 0 361 -102t132 -292q1 -119 -75 -209t-216 -129q314 -68 314 -359q0 -190 -144 -298t-358 -109q-215 0 -365 109t-145 310l2 6h46q0 -163 125 -267
t333 -104q208 1 330 93t122 261t-117 249t-350 79h-184v56h184zM437 1694h-137v118h137v-118zM906 1694h-136v118h136v-118z" />
    <glyph glyph-name="uni04DF" unicode="&#x4df;" horiz-adv-x="1030" 
d="M893 290q0 -144 -111 -226t-282 -81q-172 -1 -294 81t-117 231l2 6h46q1 -115 101 -189t260 -74t250 66t90 186q0 121 -87 178t-265 57h-145v55h145q333 0 333 225q-1 109 -81 174t-233 65t-251 -68t-99 -177h-46l-2 6q-5 129 109 211t284 82t272 -76t102 -220
q0 -85 -54 -151t-156 -97q229 -54 229 -264zM343 1350h-137v118h137v-118zM812 1350h-136v118h136v-118z" />
    <glyph glyph-name="uni04E0" unicode="&#x4e0;" horiz-adv-x="1097" 
d="M152 1402v-239h-54v293h869l3 -68l-476 -556l2 -5h32q217 0 325.5 -113.5t108.5 -315.5t-121 -310.5t-309 -108.5t-321 109t-128 310l2 6h48q0 -164 109.5 -267.5t287.5 -103.5t278 92.5t100 256.5q0 206 -96.5 301.5t-287.5 95.5h-101v55l481 563l-2 5h-750z" />
    <glyph glyph-name="uni04E1" unicode="&#x4e1;" horiz-adv-x="1102" 
d="M150 1027v-238h-54v293h869l3 -68l-482 -562h10q220 0 342 -115t122 -315t-121 -308.5t-308 -108.5t-321 109t-129 309l2 6h48q0 -162 109.5 -266t287.5 -104t278 92.5t100 275.5t-110 280t-304 97h-71v56l482 562l-2 5h-751z" />
    <glyph glyph-name="uni04E2" unicode="&#x4e2;" horiz-adv-x="1552" 
d="M457 1456v-54h-163v-1122l6 -2l935 987v137h-163v54h380v-54h-163v-1348h163v-54h-380v54h163v1126l-6 2l-935 -988v-140h163v-54h-380v54h163v1348h-163v54h380zM1062 1733h-627v53h627v-53z" />
    <glyph glyph-name="uni04E3" unicode="&#x4e3;" horiz-adv-x="1352" 
d="M477 1082v-54h-163v-922l6 -2l663 978h218v-54h-163v-974h163v-54h-381v54h163v922l-6 2l-663 -978h-217v54h163v974h-163v54h380zM994 1391h-627v53h627v-53z" />
    <glyph glyph-name="uni04E4" unicode="&#x4e4;" horiz-adv-x="1552" 
d="M457 1456v-54h-163v-1122l6 -2l935 987v137h-163v54h380v-54h-163v-1348h163v-54h-380v54h163v1126l-6 2l-935 -988v-140h163v-54h-380v54h163v1348h-163v54h380zM575 1673h-137v118h137v-118zM1044 1673h-136v118h136v-118z" />
    <glyph glyph-name="uni04E5" unicode="&#x4e5;" horiz-adv-x="1352" 
d="M477 1082v-54h-163v-922l6 -2l663 978h218v-54h-163v-974h163v-54h-381v54h163v922l-6 2l-663 -978h-217v54h163v974h-163v54h380zM507 1331h-137v118h137v-118zM976 1331h-136v118h136v-118z" />
    <glyph glyph-name="uni04E6" unicode="&#x4e6;" horiz-adv-x="1488" 
d="M1294 739q0 309 -152 497t-404 187q-252 1 -402 -187t-151 -497v-20q0 -311 151 -499t404 -187q254 -1 404 187t150 499v20zM1348 719q0 -336 -168 -538t-440 -202q-272 1 -441 203t-169 537v18q0 335 168 537t440 203q272 -1 440 -203q170 -202 170 -537v-18zM576 1694
h-137v118h137v-118zM1045 1694h-136v118h136v-118z" />
    <glyph glyph-name="uni04E7" unicode="&#x4e7;" horiz-adv-x="1155" 
d="M158 520q0 -204 114 -346t306 -141q192 0 305 142q114 142 114 345v42q0 198 -115 342q-116 144 -306 144t-304 -144t-114 -342v-42zM104 562q0 238 132 389t342 151t342 -151t131 -389v-42q1 -239 -131 -390t-342 -151t-342 151t-132 390v42zM421 1351h-137v118h137
v-118zM890 1351h-136v118h136v-118z" />
    <glyph glyph-name="uni04E8" unicode="&#x4e8;" horiz-adv-x="1372" 
d="M730 33q249 -1 398 181t151 482l-3 5h-1094l-2 -5q1 -300 151 -482t399 -181zM728 1423q-248 0 -398 -182t-151 -481l3 -5h1094l2 5q0 298 -150 480t-400 183zM1338 719q0 -336 -168 -538t-440 -202q-272 1 -441 203t-169 537v18q0 335 168 537t440 203q272 -1 440 -203
q170 -202 170 -537v-18z" />
    <glyph glyph-name="uni04E9" unicode="&#x4e9;" horiz-adv-x="1176" 
d="M578 33q190 0 302 139q113 139 112 336l-2 5h-825l-2 -5q-3 -197 111 -336t304 -139zM576 1048q-190 0 -302 -141q-114 -141 -111 -335l2 -5h825l2 5q2 192 -112 334t-304 142zM104 562q0 238 132 389t342 151t342 -151t131 -389v-42q1 -239 -131 -390t-342 -151
t-342 151t-132 390v42z" />
    <glyph glyph-name="uni04EA" unicode="&#x4ea;" horiz-adv-x="1372" 
d="M730 33q249 -1 398 181t151 482l-3 5h-1094l-2 -5q1 -300 151 -482t399 -181zM728 1423q-248 0 -398 -182t-151 -481l3 -5h1094l2 5q0 298 -150 480t-400 183zM1338 719q0 -336 -168 -538t-440 -202q-272 1 -441 203t-169 537v18q0 335 168 537t440 203q272 -1 440 -203
q170 -202 170 -537v-18zM577 1668h-137v118h137v-118zM1046 1668h-136v118h136v-118z" />
    <glyph glyph-name="uni04EB" unicode="&#x4eb;" horiz-adv-x="1176" 
d="M578 33q190 0 302 139q113 139 112 336l-2 5h-825l-2 -5q-3 -197 111 -336t304 -139zM576 1048q-190 0 -302 -141q-114 -141 -111 -335l2 -5h825l2 5q2 192 -112 334t-304 142zM104 562q0 238 132 389t342 151t342 -151t131 -389v-42q1 -239 -131 -390t-342 -151
t-342 151t-132 390v42zM419 1379h-137v118h137v-118zM888 1379h-136v118h136v-118z" />
    <glyph glyph-name="uni04EC" unicode="&#x4ec;" horiz-adv-x="1277" 
d="M584 1477q282 0 450 -204t167 -536v-18q-1 -332 -167 -536t-440 -204q-161 0 -294 62t-205 169v254h55v-234q65 -90 182 -144t262 -53q248 0 400 188t153 498v11h-636v54h628l2 5q-9 286 -160 460t-397 174q-144 1 -256 -53t-178 -144v-234h-55v254q73 107 201 169
t288 62zM448 1695h-137v118h137v-118zM917 1695h-136v118h136v-118z" />
    <glyph glyph-name="uni04ED" unicode="&#x4ed;" horiz-adv-x="1067" 
d="M522 1048q-202 0 -324 -153v-212h-54v232q62 87 166 137t227 50q205 0 323 -149t117 -391v-42q0 -243 -118 -392t-324 -149q-159 1 -279 95t-116 253l2 6h46q0 -150 104 -225t243 -75q190 0 288 134t96 344l-3 5h-571v54h571l3 5q1 205 -97 339t-300 134zM386 1351h-137
v118h137v-118zM855 1351h-136v118h136v-118z" />
    <glyph glyph-name="uni04EE" unicode="&#x4ee;" horiz-adv-x="1431" 
d="M371 33q100 -1 167 61t122 172l64 128l-573 1008h-118v54h317v-54h-132l538 -945l469 945h-136v54h316v-54h-114l-572 -1145q-62 -120 -137 -199t-216 -79q-56 0 -87 13l15 51q26 -10 77 -10zM1065 1733h-627v53h627v-53z" />
    <glyph glyph-name="uni04EF" unicode="&#x4ef;" horiz-adv-x="1185" 
d="M283 -384q91 0 143 54t92 160l65 176l-410 1022h-118v54h319v-54h-142l335 -832l40 -108h6l359 940h-142v54h320v-54h-118l-460 -1208q-44 -114 -102 -186t-187 -71q-46 0 -76 11l9 51q33 -9 67 -9zM935 1391h-627v53h627v-53z" />
    <glyph glyph-name="uni04F0" unicode="&#x4f0;" horiz-adv-x="1431" 
d="M371 33q100 -1 167 61t122 172l64 128l-573 1008h-118v54h317v-54h-132l538 -945l469 945h-136v54h316v-54h-114l-572 -1145q-62 -120 -137 -199t-216 -79q-56 0 -87 13l15 51q26 -10 77 -10zM578 1673h-137v118h137v-118zM1047 1673h-136v118h136v-118z" />
    <glyph glyph-name="uni04F1" unicode="&#x4f1;" horiz-adv-x="1185" 
d="M283 -384q91 0 143 54t92 160l65 176l-410 1022h-118v54h319v-54h-142l335 -832l40 -108h6l359 940h-142v54h320v-54h-118l-460 -1208q-44 -114 -102 -186t-187 -71q-46 0 -76 11l9 51q33 -9 67 -9zM448 1331h-137v118h137v-118zM917 1331h-136v118h136v-118z" />
    <glyph glyph-name="uni04F2" unicode="&#x4f2;" horiz-adv-x="1431" 
d="M371 33q100 -1 167 61t122 172l64 128l-573 1008h-118v54h317v-54h-132l538 -945l469 945h-136v54h316v-54h-114l-572 -1145q-62 -120 -137 -199t-216 -79q-56 0 -87 13l15 51q26 -10 77 -10zM753 1867h68l3 -6l-248 -260h-62l-2 5zM1023 1867h72l2 -6l-292 -260h-65
l-2 6z" />
    </font>
</defs>
</svg>
