<?xml version="1.0" standalone="no"?>
<!DOCTYPE svg PUBLIC "-//W3C//DTD SVG 1.1//EN" "http://www.w3.org/Graphics/SVG/1.1/DTD/svg11.dtd" >
<svg xmlns="http://www.w3.org/2000/svg">
<metadata>
Created by FontPrep 20130207 at Fri Mar 13 21:31:25 2015
 By Jonathan Cousins
Font data copyright Google 2013
</metadata>
<defs>
<font id="60c8d110cc4c187bf935fd36c91cecda" horiz-adv-x='1024' >
  <font-face 
    font-family="RobotoSlab-Regular"
    font-weight="400"
    font-stretch="normal"
    units-per-em="2048"
    panose-1="0 0 0 0 0 0 0 0 0 0"
    ascent="1638"
    descent="-410"
    x-height="1082"
    cap-height="1456"
    bbox="-890 -616 2562 2146"
    underline-thickness="100"
    underline-position="-100"
    unicode-range="U+0002-FFFD"
  />
<missing-glyph horiz-adv-x="509" 
 />
    <glyph glyph-name="fi" unicode="fi" horiz-adv-x="1239" 
d="M627 1411q-113 0 -164.5 -52t-51.5 -160v-117h617v-928l163 -28v-126h-523v126l163 28v782h-420v-782l163 -28v-126h-523v126l163 28v782h-169v146h169v117q0 182 107 282t296 100q103 0 284 -61l-33 -160q-128 51 -241 51z" />
    <glyph glyph-name="uniFB02" unicode="fl" horiz-adv-x="1350" 
d="M660 1411q-249 0 -249 -251v-78h251v-146h-251v-782l163 -28v-126h-523v126l163 28v782h-144v146h144v78q0 201 117.5 311t325.5 110q136 0 365 -62h89v-1365l163 -28v-126h-523v126l163 28v1226q-128 31 -254 31z" />
    <glyph glyph-name=".notdef" horiz-adv-x="509" 
 />
    <glyph glyph-name=".null" horiz-adv-x="0" 
 />
    <glyph glyph-name="nonmarkingreturn" unicode="&#xd;" horiz-adv-x="509" 
 />
    <glyph glyph-name="uni0009" horiz-adv-x="0" 
 />
    <glyph glyph-name="uni0009" horiz-adv-x="0" 
 />
    <glyph glyph-name="uni0002" horiz-adv-x="0" 
 />
    <glyph glyph-name="space" unicode=" " horiz-adv-x="509" 
 />
    <glyph glyph-name="exclam" unicode="!" horiz-adv-x="483" 
d="M340 0h-197v204h197v-204zM340 478h-197v978h197v-978z" />
    <glyph glyph-name="quotedbl" unicode="&#x22;" horiz-adv-x="765" 
d="M474 1040v520h158v-270l-61 -250h-97zM166 1040v520h158v-270l-61 -250h-97z" />
    <glyph glyph-name="numbersign" unicode="#" horiz-adv-x="1246" 
d="M477 550h256l68 348h-256zM63 410v140h263l68 348h-255v142h283l82 416h151l-82 -416h255l82 416h151l-82 -416h200v-142h-227l-68 -348h220v-140h-248l-80 -410h-151l80 410h-256l-80 -410h-151l80 410h-235z" />
    <glyph glyph-name="dollar" unicode="$" horiz-adv-x="1110" 
d="M815 366q0 100 -63.5 163.5t-210.5 113.5q-202 61 -305 163t-103 270t95 271.5t261 124.5v221h158v-222q167 -24 259.5 -143.5t92.5 -320.5h-196q0 136 -62.5 220t-177.5 84t-174 -61.5t-59 -163.5t61 -162t219 -114q204 -66 303 -165t99 -269t-103 -272t-283 -121v-191
h-156v191q-172 18 -282 125.5t-106 315.5l2 5h190q0 -154 77.5 -219.5t198.5 -65.5t193 61t72 161z" />
    <glyph glyph-name="percent" unicode="%" horiz-adv-x="1460" 
d="M442 110l-109 67l711 1138l109 -67zM928 279q0 -75 41 -126.5t115 -51.5t114 51.5t40 126.5v78q0 74 -41 126t-115 52t-114 -52t-40 -126v-78zM782 357q0 126 82 213t218 87t219 -86.5t83 -213.5v-78q0 -128 -82 -214t-219 -86t-219 86t-82 214v78zM223 1099
q0 -74 40.5 -125.5t114.5 -51.5t114.5 51t40.5 126v77q0 74 -41 126.5t-115 52.5t-114 -52.5t-40 -126.5v-77zM77 1176q0 127 82 214t219 87t219 -86.5t82 -214.5v-77q0 -127 -82.5 -213t-218.5 -86t-218.5 86t-82.5 213v77z" />
    <glyph glyph-name="ampersand" unicode="&#x26;" horiz-adv-x="1289" 
d="M398 1142q0 -68 27 -125.5t81 -125.5l138 95q98 65 98 181q0 61 -48 108t-128 47t-124 -56t-44 -124zM271 400q0 -121 71 -194t211 -73t269 95l-361 435l-40 -29q-150 -113 -150 -234zM546 -21q-216 0 -344 115t-128 298q0 122 70.5 213.5t210.5 183.5q-78 99 -116 176.5
t-38 159.5q0 169 97.5 260.5t261.5 91.5t263.5 -91t99.5 -204t-52.5 -184.5t-155.5 -146.5l-109 -80l340 -409q87 138 87 311h176q0 -261 -152 -444l185 -224l-2 -5h-229l-85 102q-164 -123 -380 -123z" />
    <glyph glyph-name="quotesingle" unicode="'" horiz-adv-x="460" 
d="M166 1055v505h158v-223l-61 -282h-97z" />
    <glyph glyph-name="parenleft" unicode="(" horiz-adv-x="662" 
d="M114 591q0 394 159 673t334 372l6 -1l37 -116q-137 -107 -238 -343t-101 -583v-13q0 -348 100.5 -583.5t238.5 -351.5l-37 -108h-6q-175 93 -334 371.5t-159 673.5v9z" />
    <glyph glyph-name="parenright" unicode=")" horiz-adv-x="654" 
d="M547 582q0 -395 -159.5 -673.5t-333.5 -371.5h-6l-37 108q135 105 237 345.5t102 589.5v13q0 343 -105 584t-234 351l37 108h6q174 -93 333.5 -372t159.5 -673v-9z" />
    <glyph glyph-name="asterisk" unicode="*" horiz-adv-x="958" 
d="M362 982l-296 89l49 154l296 -111l-10 342h161l-10 -348l293 110l48 -156l-302 -89l193 -270l-131 -96l-181 287l-176 -279l-132 93z" />
    <glyph glyph-name="plus" unicode="+" horiz-adv-x="1145" 
d="M671 783h400v-178h-400v-459h-197v459h-401v178h401v423h197v-423z" />
    <glyph glyph-name="comma" unicode="," horiz-adv-x="404" 
d="M118 69v152h197v-149q0 -98 -49 -205t-132 -178l-111 74q95 146 95 306z" />
    <glyph glyph-name="hyphen" unicode="-" horiz-adv-x="797" 
d="M643 538h-489v154h489v-154z" />
    <glyph glyph-name="period" unicode="." horiz-adv-x="493" 
d="M342 0h-197v202h197v-202z" />
    <glyph glyph-name="slash" unicode="/" horiz-adv-x="824" 
d="M167 -125h-167l608 1581h166z" />
    <glyph glyph-name="zero" unicode="0" horiz-adv-x="1168" 
d="M585 133q266 0 266 382v427q0 189 -68.5 284.5t-198.5 95.5t-198 -95.5t-68 -284.5v-427q0 -189 69 -285.5t198 -96.5zM1048 555q0 -279 -124 -427.5t-338 -148.5t-339.5 149t-125.5 427v345q0 278 124.5 427.5t338.5 149.5t339 -149.5t125 -427.5v-345z" />
    <glyph glyph-name="one" unicode="1" horiz-adv-x="844" 
d="M767 0h-646v126l225 28v1091l-229 -4v123l426 92v-1302l224 -28v-126z" />
    <glyph glyph-name="two" unicode="2" horiz-adv-x="1131" 
d="M560 1322q-293 0 -293 -295h-189l-2 6q-5 188 124.5 316t343.5 128t330 -114.5t116 -291.5q0 -119 -70.5 -238t-198.5 -257l-383 -417l2 -5h517l16 167h167v-321h-943v135l477 530q128 143 173.5 227t45.5 182t-64 173t-169 75z" />
    <glyph glyph-name="three" unicode="3" horiz-adv-x="1106" 
d="M363 819h172q131 0 185.5 65.5t54.5 186.5t-62 186t-180 65t-187.5 -67.5t-69.5 -179.5h-189l-2 6q-5 165 119 280.5t326 115.5t322 -107.5t120 -306.5q0 -90 -54.5 -179.5t-163.5 -136.5q131 -43 185.5 -135t54.5 -206q0 -199 -130 -313t-332 -114t-332 107.5
t-125 291.5l3 6h188q0 -115 70.5 -183t194.5 -68t195 68t71 202t-63 198t-199 64h-172v154z" />
    <glyph glyph-name="four" unicode="4" horiz-adv-x="1187" 
d="M717 490v685l-6 2l-20 -53l-418 -634h444zM913 490h201v-154h-201v-182l163 -28v-126h-522v126l163 28v182h-654v111l642 1009h208v-966z" />
    <glyph glyph-name="five" unicode="5" horiz-adv-x="1081" 
d="M982 467q0 -222 -117.5 -355t-342.5 -133q-185 0 -307.5 101t-117.5 297l2 6h178q0 -118 68.5 -184t184.5 -66t185.5 88t69.5 235t-69.5 236.5t-189.5 89.5t-172 -35t-76 -107l-164 17l84 799h769v-288h-148l-19 113h-435l-47 -409q103 78 232 81q201 2 316.5 -131
t115.5 -355z" />
    <glyph glyph-name="six" unicode="6" horiz-adv-x="1144" 
d="M610 820q-212 0 -293 -149v-117q0 -203 84.5 -312t208.5 -109t192 102.5t68 250.5t-73 241t-187 93zM642 967q193 0 309 -135.5t116 -351.5t-123.5 -358.5t-333.5 -142.5t-349.5 155t-139.5 439v196q0 346 152 527t391 181q158 0 269 -60l-38 -147q-106 52 -245 52
t-229.5 -115.5t-96.5 -348.5l4 -4q121 113 314 113z" />
    <glyph glyph-name="seven" unicode="7" horiz-adv-x="1128" 
d="M76 1134v322h984v-155q-264 -314 -356.5 -556.5t-133.5 -587.5l-16 -157h-197l16 157q42 344 163 615t331 529h-608l-15 -167h-168z" />
    <glyph glyph-name="eight" unicode="8" horiz-adv-x="1131" 
d="M802 1070q0 110 -67.5 181t-171.5 71t-168.5 -68.5t-64.5 -180.5t65 -179t170 -67t171 66.5t66 176.5zM843 396q0 122 -78.5 199t-200.5 77t-198.5 -77t-76.5 -199t75.5 -192.5t199.5 -70.5t201.5 70.5t77.5 192.5zM999 1076q0 -114 -64 -199.5t-173 -127.5
q126 -44 201.5 -138t75.5 -217q0 -202 -131.5 -308.5t-343.5 -106.5t-342 106.5t-130 308.5q0 123 74 217t200 138q-109 42 -171 127.5t-62 199.5q0 192 118.5 296.5t311.5 104.5t314.5 -104.5t121.5 -296.5z" />
    <glyph glyph-name="nine" unicode="9" horiz-adv-x="1154" 
d="M536 612q116 0 188.5 47t104.5 120v154q0 193 -73.5 291t-214.5 98q-109 0 -184.5 -102t-75.5 -260t69.5 -253t185.5 -95zM505 133q311 0 316 458l-4 5q-40 -67 -112 -103t-162 -36q-213 0 -336 131.5t-123 364.5t131.5 378.5t319.5 145.5q228 0 359.5 -142.5
t131.5 -421.5v-263q0 -341 -140.5 -506t-374.5 -165q-174 0 -298 59l30 149q114 -54 262 -54z" />
    <glyph glyph-name="colon" unicode=":" horiz-adv-x="419" 
d="M342 0h-197v202h197v-202zM342 880h-197v202h197v-202z" />
    <glyph glyph-name="semicolon" unicode=";" horiz-adv-x="424" 
d="M343 880h-197v202h197v-202zM148 69v152h197v-149q0 -98 -49 -205t-132 -178l-111 74q95 146 95 306z" />
    <glyph glyph-name="less" unicode="&#x3c;" horiz-adv-x="1017" 
d="M333 579l-85 -18v-6l85 -19l559 -228v-201l-816 379v149l816 378v-201z" />
    <glyph glyph-name="equal" unicode="=" horiz-adv-x="1127" 
d="M981 407h-834v164h834v-164zM981 823h-834v164h834v-164z" />
    <glyph glyph-name="greater" unicode="&#x3e;" horiz-adv-x="1060" 
d="M125 798v195l855 -378v-149l-855 -379v196l598 238l84 17v6l-84 20z" />
    <glyph glyph-name="question" unicode="?" horiz-adv-x="953" 
d="M563 0h-205v208h205v-208zM693 1100q0 98 -56.5 154.5t-154.5 56.5t-161.5 -49.5t-63.5 -145.5h-188l-3 6q-3 161 113.5 258t304.5 97t297 -100.5t109 -280.5q0 -129 -70.5 -236t-186.5 -219q-53 -54 -64.5 -97t-11.5 -134h-197q1 146 24.5 201.5t125.5 147.5
q99 117 141 180t42 161z" />
    <glyph glyph-name="at" unicode="@" horiz-adv-x="1821" 
d="M820 126q135 0 214 113q-2 23 2 54l47 538q-56 26 -114 26q-125 0 -191 -109t-87 -332q-11 -141 22 -215.5t107 -74.5zM760 -21q-125 0 -194 120.5t-51 316.5q23 259 137.5 415.5t278.5 156.5q105 0 168.5 -26t140.5 -80l-4 -4h6l-51 -585q-16 -193 103 -193
q123 0 196.5 113.5t81.5 288.5q17 382 -143.5 595.5t-482.5 213.5t-509 -230.5t-203 -604.5t151.5 -592.5t481.5 -218.5q88 0 178 21.5t152 56.5l39 -107q-68 -42 -171.5 -65.5t-201.5 -23.5q-380 0 -588 249.5t-189 677.5t248.5 692.5t605.5 264.5t578.5 -250t185.5 -679
q-9 -214 -120 -368.5t-332 -154.5q-73 0 -126.5 41.5t-76.5 116.5q-99 -158 -289 -158z" />
    <glyph glyph-name="A" unicode="A" 
d="M522 578h462l-226 625h-6zM1448 0h-418v126l110 19l-96 268h-583l-99 -268l110 -19v-126h-417v126l108 15l509 1315h169l500 -1315l107 -15v-126z" />
    <glyph glyph-name="B" unicode="B" horiz-adv-x="1345" 
d="M997 1066q0 235 -288 235h-278v-464h329q106 3 171.5 63t65.5 166zM431 683v-529h340q135 0 209.5 66.5t74.5 191.5t-62.5 198t-191.5 73h-370zM709 1456q228 0 356.5 -98.5t128.5 -295.5q0 -97 -61.5 -173.5t-162.5 -113.5q131 -28 207 -129t76 -235q0 -200 -130 -305.5
t-352 -105.5h-700v126l163 28v1147l-163 28v127h638z" />
    <glyph glyph-name="C" unicode="C" horiz-adv-x="1321" 
d="M1200 1009h-139l-37 206q-109 107 -285 107q-227 0 -349 -164.5t-122 -417.5v-23q0 -253 119.5 -418.5t331.5 -165.5q99 0 180 31t125 76l37 206h139v-259q-63 -81 -189 -144.5t-292 -63.5q-284 0 -466 210t-182 528v21q0 320 179 529.5t469 209.5q166 0 292 -64.5
t189 -144.5v-259z" />
    <glyph glyph-name="D" unicode="D" horiz-adv-x="1419" 
d="M431 1301v-1147h250q202 0 318.5 133t116.5 341v201q0 206 -116.5 339t-318.5 133h-250zM681 1456q285 0 458.5 -175.5t173.5 -453.5v-199q0 -279 -173.5 -453.5t-458.5 -174.5h-610v126l163 28v1147l-163 28v127h610z" />
    <glyph glyph-name="E" unicode="E" horiz-adv-x="1306" 
d="M71 0v126l163 28v1147l-163 28v127h1118v-350h-169l-16 195h-573v-471h557v-155h-557v-521h585l16 195h168v-349h-1129z" />
    <glyph glyph-name="F" unicode="F" horiz-adv-x="1273" 
d="M71 1456h1125v-350h-168l-16 195h-581v-502h563v-155h-563v-490l163 -28v-126h-523v126l163 28v1147l-163 28v127z" />
    <glyph glyph-name="G" unicode="G" horiz-adv-x="1387" 
d="M705 133q206 0 328 80v319l-239 10v145h436v-522q-64 -67 -189 -126.5t-325 -59.5q-292 0 -476.5 205t-184.5 532v24q0 329 182.5 533t486.5 204t490 -184v-264h-138l-48 201q-113 92 -285 92q-236 0 -363.5 -161.5t-127.5 -418.5v-26q0 -261 123.5 -422t329.5 -161z" />
    <glyph glyph-name="H" unicode="H" horiz-adv-x="1573" 
d="M71 1456h523v-127l-163 -28v-503h706v503l-163 28v127h523v-127l-163 -28v-1147l163 -28v-126h-523v126l163 28v489h-706v-489l163 -28v-126h-523v126l163 28v1147l-163 28v127z" />
    <glyph glyph-name="I" unicode="I" horiz-adv-x="662" 
d="M70 1456h523v-127l-163 -28v-1147l163 -28v-126h-523v126l163 28v1147l-163 28v127z" />
    <glyph glyph-name="J" unicode="J" horiz-adv-x="1183" 
d="M1124 1456v-127l-163 -28v-898q0 -195 -123.5 -309.5t-327.5 -114.5t-327.5 106.5t-118.5 309.5l2 6h189q0 -135 68.5 -201.5t185.5 -66.5t186 73.5t69 196.5v898l-163 28v127h523z" />
    <glyph glyph-name="K" unicode="K" horiz-adv-x="1452" 
d="M71 1456h523v-127l-163 -28v-489h151l407 503l-109 14v127h462v-127l-137 -25l-445 -552l486 -601l137 -25v-126h-478v126l111 14l-415 517h-170v-503l163 -28v-126h-523v126l163 28v1147l-163 28v127z" />
    <glyph glyph-name="L" unicode="L" horiz-adv-x="1199" 
d="M71 0v126l163 28v1147l-163 28v127h523v-127l-163 -28v-1147h506l15 167h168v-321h-1049z" />
    <glyph glyph-name="M" unicode="M" horiz-adv-x="1905" 
d="M594 0h-523v126l163 28v1147l-163 28v127h415l464 -1183h6l463 1183h416v-127l-163 -28v-1147l163 -28v-126h-523v126l163 28v422l19 590l-5 1l-471 -1167h-131l-471 1166l-5 -1l20 -589v-422l163 -28v-126z" />
    <glyph glyph-name="N" unicode="N" horiz-adv-x="1560" 
d="M1497 1456v-127l-163 -28v-1301h-197l-700 1124l-6 -2v-968l163 -28v-126h-523v126l163 28v1147l-163 28v127h360l700 -1123l6 2v966l-163 28v127h523z" />
    <glyph glyph-name="O" unicode="O" horiz-adv-x="1445" 
d="M1171 740q0 254 -121.5 414.5t-331.5 160.5t-326 -161t-116 -414v-23q0 -256 115.5 -416.5t327.5 -160.5t332 160t120 417v23zM1368 717q0 -318 -182.5 -528t-468.5 -210t-462 210t-176 528v21q0 317 176 528t462 211t468.5 -211t182.5 -528v-21z" />
    <glyph glyph-name="P" unicode="P" horiz-adv-x="1301" 
d="M431 738h309q148 0 221.5 79.5t73.5 200.5t-73.5 202t-221.5 81h-309v-563zM740 1456q233 0 362.5 -120t129.5 -317t-129.5 -316t-362.5 -119h-309v-430l163 -28v-126h-523v126l163 28v1147l-163 28v127h669z" />
    <glyph glyph-name="Q" unicode="Q" horiz-adv-x="1446" 
d="M1171 740q0 254 -121.5 414.5t-331.5 160.5t-326 -161t-116 -414v-23q0 -256 115.5 -416.5t327.5 -160.5t332 160t120 417v23zM713 -21q-282 0 -458 210t-176 528v21q0 317 176 528t462 211t468.5 -211t182.5 -528v-21q0 -194 -72 -354t-201 -258l295 -208l-135 -120
l-331 236q-106 -34 -211 -34z" />
    <glyph glyph-name="R" unicode="R" horiz-adv-x="1386" 
d="M690 805q315 0 315 247q0 115 -72 182t-223 67h-279v-496h259zM1198 389v-117q0 -67 17 -99t56 -38l48 -6v-129h-106q-115 0 -163.5 80t-48.5 194v113q0 119 -69 191t-185 72h-316v-496l163 -28v-126h-523v126l163 28v1147l-163 28v126h639q238 0 365 -105.5t127 -299.5
q0 -106 -59 -188t-169 -129q224 -73 224 -344z" />
    <glyph glyph-name="S" unicode="S" horiz-adv-x="1247" 
d="M1125 1026h-149l-37 208q-104 88 -278 88q-173 0 -257 -66.5t-84 -167.5t86 -164.5t296 -115.5t329.5 -163.5t119.5 -281.5t-143.5 -277t-375.5 -107q-168 0 -298.5 55t-212.5 144v271h148l38 -209q130 -107 325 -107q149 0 235.5 63t86.5 167t-75 171.5t-285 117.5
t-340.5 158t-130.5 274t145 279.5t377 113.5q153 0 278.5 -52.5t201.5 -127.5v-271z" />
    <glyph glyph-name="T" unicode="T" horiz-adv-x="1284" 
d="M1247 1456v-322h-168l-15 167h-323v-1147l163 -28v-126h-523v126l163 28v1147h-324l-14 -167h-169v322h1210z" />
    <glyph glyph-name="U" unicode="U" horiz-adv-x="1541" 
d="M583 1456v-127l-163 -28v-832q0 -165 94 -250.5t252 -85.5t257 85t99 251v832l-163 28v127h523v-127l-163 -28v-832q0 -237 -154.5 -363.5t-398.5 -126.5t-393.5 126.5t-149.5 363.5v832l-163 28v127h523z" />
    <glyph glyph-name="V" unicode="V" horiz-adv-x="1470" 
d="M966 1456h459v-127l-117 -16l-488 -1313h-169l-488 1313l-116 16v127h460v-127l-133 -21l326 -946l33 -115h6l33 115l325 947l-131 20v127z" />
    <glyph glyph-name="W" unicode="W" horiz-adv-x="1910" 
d="M1420 1456h463v-127l-117 -15l-317 -1314h-176l-288 1010l-26 131h-6l-25 -131l-292 -1010h-175l-317 1314l-117 15v127h462v-127l-148 -23l187 -802l27 -182l6 -1l39 183l268 952h174l269 -952l40 -187h6l29 187l183 802l-149 23v127z" />
    <glyph glyph-name="X" unicode="X" horiz-adv-x="1404" 
d="M53 1456h472v-127l-117 -13l291 -437l294 437l-117 13v127h475v-127l-131 -22l-404 -573l413 -586l132 -22v-126h-471v126l115 13l-302 448l-303 -448l117 -13v-126h-474v126l131 22l414 586l-404 573l-131 22v127z" />
    <glyph glyph-name="Y" unicode="Y" horiz-adv-x="1416" 
d="M852 1456h500v-127l-123 -19l-432 -798v-358l163 -28v-126h-522v126l163 28v373l-424 783l-122 19v127h500v-127l-157 -19l305 -594l305 594l-156 19v127z" />
    <glyph glyph-name="Z" unicode="Z" horiz-adv-x="1220" 
d="M1128 321v-321h-1036v146l777 1155h-584l-14 -167h-169v322h993v-141l-782 -1161h631l16 167h168z" />
    <glyph glyph-name="bracketleft" unicode="[" horiz-adv-x="573" 
d="M541 1509h-187v-1666h187v-155h-384v1976h384v-155z" />
    <glyph glyph-name="backslash" unicode="\" horiz-adv-x="841" 
d="M36 1456h186l608 -1581h-186z" />
    <glyph glyph-name="bracketright" unicode="]" horiz-adv-x="552" 
d="M23 1664h385v-1976h-385v155h188v1666h-188v155z" />
    <glyph glyph-name="asciicircum" unicode="^" horiz-adv-x="864" 
d="M253 729h-182l299 727h134l298 -727h-182l-166 419l-16 70h-6l-16 -70z" />
    <glyph glyph-name="underscore" unicode="_" horiz-adv-x="1168" 
d="M1041 -154h-922v154h922v-154z" />
    <glyph glyph-name="grave" unicode="`" horiz-adv-x="582" 
d="M492 1211h-159l-249 260l3 6h230z" />
    <glyph glyph-name="a" unicode="a" horiz-adv-x="1128" 
d="M301 290q0 -146 177 -146q98 0 179 47t116 113v178h-210q-121 0 -191.5 -56t-70.5 -136zM558 1102q184 0 298 -94t114 -269v-521q0 -51 3 -81l80 -11v-126h-258q-17 85 -21 149q-57 -73 -142.5 -121.5t-182.5 -48.5q-169 0 -257 82.5t-88 234.5t124.5 235.5t341.5 83.5
h203v126q0 95 -60.5 150.5t-150.5 55.5q-163 0 -238 -71l-21 -114h-152v210q163 130 407 130z" />
    <glyph glyph-name="b" unicode="b" horiz-adv-x="1186" 
d="M881 500v21q0 187 -68 304t-208 117q-172 0 -253 -162v-478q80 -163 255 -163q139 0 206.5 99t67.5 262zM656 1102q199 0 311 -160t112 -421v-21q0 -234 -112.5 -377.5t-315.5 -143.5t-308 160l-18 -139h-170v1405l-163 28v127h360v-606q105 148 304 148z" />
    <glyph glyph-name="c" unicode="c" horiz-adv-x="1104" 
d="M575 133q98 0 172.5 60.5t74.5 148.5h177l2 -6q5 -140 -124.5 -248.5t-301.5 -108.5q-236 0 -360.5 154t-124.5 387v42q0 231 125 385.5t372 154.5t393 -161l9 -240h-157l-43 170q-78 76 -224 76q-145 0 -211.5 -111.5t-66.5 -273.5v-42q0 -166 66 -276.5t222 -110.5z
" />
    <glyph glyph-name="d" unicode="d" horiz-adv-x="1229" 
d="M287 521v-21q0 -163 67 -262t207 -99q165 0 247 153v502q-83 148 -234 148q-152 0 -219.5 -117t-67.5 -304zM90 500v21q0 261 111.5 421t305.5 160t301 -138v441l-163 28v127h360v-1406l163 -28v-126h-334l-16 129q-107 -150 -306 -150t-310.5 143.5t-111.5 377.5z" />
    <glyph glyph-name="e" unicode="e" horiz-adv-x="1101" 
d="M564 947q-110 0 -180 -83.5t-86 -209.5l2 -5h499v26q0 116 -62.5 194t-172.5 78zM593 -21q-236 0 -369.5 150.5t-133.5 390.5v44q0 231 137.5 384.5t340.5 153.5t315.5 -132t112.5 -352v-123h-702l-3 -5q3 -156 79 -256.5t213 -100.5q188 0 306 107l77 -128
q-137 -133 -373 -133z" />
    <glyph glyph-name="f" unicode="f" horiz-adv-x="728" 
d="M607 1420q-171 0 -171 -201v-137h226v-146h-226v-782l163 -28v-126h-523v126l163 28v782h-169v146h169v137q0 173 90.5 267.5t252.5 94.5q57 0 145 -21l-24 -150q-45 10 -96 10z" />
    <glyph glyph-name="g" unicode="g" horiz-adv-x="1159" 
d="M579 942q-152 0 -222 -118t-70 -303v-21q0 -163 69 -262t210 -99q166 0 248 155v498q-83 150 -235 150zM90 500v21q0 261 114 421t315 160t308 -156l18 136h166v-1068q0 -210 -117 -330.5t-333 -120.5q-78 0 -169 21.5t-160 58.5l51 153q127 -67 276 -67q255 0 255 285
v103q-108 -138 -302 -138t-308 144t-114 377z" />
    <glyph glyph-name="h" unicode="h" horiz-adv-x="1322" 
d="M908 680q0 262 -229 262q-81 0 -147.5 -38.5t-109.5 -104.5v-645l163 -28v-126h-523v126l163 28v1251l-163 28v127h360v-622q118 164 304 164q379 0 379 -424v-524l163 -28v-126h-523v126l163 28v526z" />
    <glyph glyph-name="i" unicode="i" horiz-adv-x="673" 
d="M449 1359h-197v201h197v-201zM89 1082h360v-928l163 -28v-126h-523v126l163 28v773l-163 28v127z" />
    <glyph glyph-name="j" unicode="j" horiz-adv-x="571" 
d="M418 1363h-197v197h197v-197zM92 -276q58 0 96.5 44t38.5 143v1016l-163 28v127h360v-1171q0 -167 -86 -257.5t-239 -90.5q-56 0 -112 18l13 155q34 -12 92 -12z" />
    <glyph glyph-name="k" unicode="k" horiz-adv-x="1245" 
d="M62 1560h360v-904h126l231 286l-99 13v127h453v-127l-132 -26l-285 -340l347 -439l123 -24v-126h-449v126l101 13l-287 360h-129v-345l163 -28v-126h-523v126l163 28v1251l-163 28v127z" />
    <glyph glyph-name="l" unicode="l" horiz-adv-x="645" 
d="M62 1560h360v-1406l163 -28v-126h-523v126l163 28v1251l-163 28v127z" />
    <glyph glyph-name="m" unicode="m" horiz-adv-x="1935" 
d="M647 942q-172 0 -237 -141v-647l163 -28v-126h-523v126l163 28v773l-163 28v127h340l13 -141q109 161 328.5 161t297.5 -200q51 92 135 146t196 54q166 0 262 -113.5t96 -341.5v-493l163 -28v-126h-524v126l163 28v495q0 160 -55 226.5t-161 66.5t-168 -72.5t-72 -182.5
v-533l163 -28v-126h-523v126l163 28v495q0 293 -220 293z" />
    <glyph glyph-name="n" unicode="n" horiz-adv-x="1318" 
d="M1101 683v-529l163 -28v-126h-523v126l163 28v525q0 143 -57 203t-157 60q-186 0 -270 -153v-635l163 -28v-126h-523v126l163 28v773l-163 28v127h339l14 -161q114 181 321 181q175 0 271 -102.5t96 -316.5z" />
    <glyph glyph-name="o" unicode="o" horiz-adv-x="1149" 
d="M287 529q0 -172 72.5 -284t214.5 -112t214.5 112t72.5 284v22q0 170 -73 283t-215 113t-214 -113t-72 -283v-22zM90 551q0 240 130 395.5t354 155.5t354 -155t130 -396v-22q0 -242 -130 -396t-354 -154t-354 154.5t-130 395.5v22z" />
    <glyph glyph-name="p" unicode="p" horiz-adv-x="1240" 
d="M655 133q153 0 225 102t72 265v21q0 185 -72 303t-224 118t-231 -142v-527q77 -140 230 -140zM729 -21q-197 0 -304 133v-373l163 -28v-127h-523v127l163 28v1188l-163 28v127h332l18 -132q111 152 311 152q201 0 312.5 -159.5t111.5 -421.5v-21q0 -234 -112 -377.5
t-309 -143.5z" />
    <glyph glyph-name="q" unicode="q" horiz-adv-x="1155" 
d="M287 521v-21q0 -164 67 -265.5t214 -101.5t229 138v543q-85 133 -230 133t-212.5 -119.5t-67.5 -306.5zM90 500v21q0 261 111.5 421t305.5 160t301 -139l16 119h170v-1343l163 -28v-127h-523v127l163 28v363q-105 -123 -294 -123q-190 0 -301.5 143.5t-111.5 377.5z" />
    <glyph glyph-name="r" unicode="r" horiz-adv-x="847" 
d="M612 0h-523v126l163 28v773l-163 28v127h339l19 -157q98 177 268 177q49 0 85 -11l-26 -183l-112 6q-152 0 -213 -139v-621l163 -28v-126z" />
    <glyph glyph-name="s" unicode="s" horiz-adv-x="1044" 
d="M316 790q0 -64 45 -101t217 -73t271.5 -112t99.5 -212t-116.5 -224.5t-329.5 -88.5t-371 111l-1 247h148l37 -145q65 -59 191 -59t185.5 42.5t59.5 109.5t-49 109t-217 79t-268 111t-100 203t112.5 222t292.5 93q246 0 384 -121l10 -239h-148l-32 130q-79 75 -232 75
q-87 0 -138 -46.5t-51 -110.5z" />
    <glyph glyph-name="t" unicode="t" horiz-adv-x="750" 
d="M236 279v657h-171v146h171v261h197v-261h205v-146h-205v-657q0 -138 115 -138q51 0 113 14l27 -135q-64 -41 -187 -41t-194 72.5t-71 227.5z" />
    <glyph glyph-name="u" unicode="u" horiz-adv-x="1244" 
d="M172 444v483l-124 28v127h321v-640q0 -173 51 -238t159 -65q204 0 277 163v625l-145 28v127h342v-928l124 -28v-126h-301l-13 160q-106 -181 -317 -181q-176 0 -275 113t-99 352z" />
    <glyph glyph-name="v" unicode="v" horiz-adv-x="1143" 
d="M681 1082h418v-127l-89 -15l-363 -940h-149l-367 940l-89 15v127h418v-127l-130 -20l223 -616l18 -78h6l19 78l216 616l-131 20v127z" />
    <glyph glyph-name="w" unicode="w" horiz-adv-x="1693" 
d="M1211 1082h412v-127l-94 -14l-273 -941h-159l-210 659l-45 182l-6 -1l-42 -181l-206 -659h-159l-273 941l-95 14v127h412v-127l-124 -22l141 -539l23 -131h6l28 131l216 688h158l217 -688l31 -146h6l29 146l133 539l-126 22v127z" />
    <glyph glyph-name="x" unicode="x" horiz-adv-x="1192" 
d="M72 1082h424v-127l-98 -12l202 -260l203 261l-97 11v127h427v-127l-116 -23l-309 -385l318 -398l117 -23v-126h-424v126l96 11l-212 272l-212 -272l97 -11v-126h-426v126l116 23l319 398l-309 385l-116 23v127z" />
    <glyph glyph-name="y" unicode="y" horiz-adv-x="1162" 
d="M283 -437q-53 0 -117 16l20 155q-6 1 35.5 -2t52.5 -3q63 0 102 54.5t68 125.5l47 112l-357 918l-99 16v127h437v-127l-122 -20l187 -534l36 -138h6l225 672l-123 20v127h436v-127l-97 -15l-412 -1106q-41 -109 -118 -190t-207 -81z" />
    <glyph glyph-name="z" unicode="z" horiz-adv-x="1084" 
d="M971 321v-321h-859v138l585 788h-396l-15 -166h-168v322h820v-134l-592 -794h442l16 167h167z" />
    <glyph glyph-name="braceleft" unicode="{" horiz-adv-x="701" 
d="M468 306v-205q0 -132 46.5 -221.5t156.5 -125.5l-40 -118q-195 55 -277.5 175t-82.5 290v205q0 237 -208 237v147q208 0 208 236v206q0 171 82.5 290.5t277.5 174.5l40 -117q-203 -65 -203 -348v-206q0 -221 -169 -310q169 -91 169 -310z" />
    <glyph glyph-name="bar" unicode="|" horiz-adv-x="451" 
d="M307 -270h-157v1726h157v-1726z" />
    <glyph glyph-name="braceright" unicode="}" horiz-adv-x="701" 
d="M229 101v205q0 226 184 310q-184 80 -184 310v206q0 283 -202 348l40 117q194 -55 276.5 -174.5t82.5 -290.5v-206q0 -236 209 -236v-147q-209 0 -209 -237v-205q0 -170 -82.5 -290t-276.5 -175l-40 118q202 67 202 347z" />
    <glyph glyph-name="asciitilde" unicode="~" horiz-adv-x="1386" 
d="M952 401q-89 0 -162.5 33t-158.5 107q-120 96 -197 96t-124.5 -53t-47.5 -128l-141 18q0 136 85.5 232.5t217.5 96.5q156 1 310 -129q72 -60 120 -83.5t106 -23.5t106.5 57t48.5 134l142 -18q0 -137 -87.5 -238t-217.5 -101z" />
    <glyph glyph-name="nonbreakingspace" unicode="&#xa0;" horiz-adv-x="509" 
 />
    <glyph glyph-name="exclamdown" unicode="&#xa1;" horiz-adv-x="481" 
d="M339 876h-197v206h197v-206zM339 -374h-197v978h197v-978z" />
    <glyph glyph-name="cent" unicode="&#xa2;" horiz-adv-x="1118" 
d="M589 133q98 0 172.5 60.5t74.5 148.5h178l2 -6q4 -123 -99.5 -225t-252.5 -126v-230h-197v237q-178 38 -270.5 183t-92.5 345v42q0 197 92.5 342t270.5 185v229h197v-220q210 -24 330 -157l9 -240h-157l-43 170q-78 76 -224 76q-145 0 -211.5 -111.5t-66.5 -273.5v-42
q0 -166 66 -276.5t222 -110.5z" />
    <glyph glyph-name="sterling" unicode="&#xa3;" horiz-adv-x="1179" 
d="M1107 321v-167h1l-1 -154h-975v154h10q47 13 71 111t24 201l-6 149h-163v155h157l-10 270q0 204 112 320.5t306 116.5t304 -104.5t106 -276.5l-2 -6h-189q0 118 -64 175t-162 57t-156 -74.5t-58 -207.5l10 -270h419v-155h-414l6 -149q0 -190 -60 -312h551l16 167h167z
" />
    <glyph glyph-name="currency" unicode="&#xa4;" horiz-adv-x="1461" 
d="M311 607q0 -187 120.5 -319.5t291.5 -132.5t291.5 132.5t120.5 319.5t-120.5 319t-291.5 132t-291.5 -132t-120.5 -319zM129 612q0 204 111 364l-146 149l138 139l143 -146q156 116 349 116q192 0 350 -118l146 149l140 -140l-150 -153q109 -164 109 -360
q0 -197 -101 -357l142 -143l-140 -139l-133 135q-159 -128 -363 -128t-362 127l-130 -133l-138 138l138 140q-103 156 -103 360z" />
    <glyph glyph-name="yen" unicode="&#xa5;" horiz-adv-x="1386" 
d="M1175 738v-123h-383v-167h383v-122h-383v-172l163 -28v-126h-523v126l163 28v172h-375v122h375v167h-375v123h311l-333 570l-139 21v127h442v-127l-87 -15l283 -521l283 521l-86 15v127h441v-127l-139 -20l-333 -571h312z" />
    <glyph glyph-name="brokenbar" unicode="&#xa6;" horiz-adv-x="496" 
d="M347 698h-197v758h197v-758zM150 -270v792h197v-792h-197z" />
    <glyph glyph-name="section" unicode="&#xa7;" horiz-adv-x="1233" 
d="M795 240q153 42 153 200q0 80 -73.5 133t-275.5 116q-93 23 -167 52q-145 -38 -145 -204q0 -85 67.5 -136t278.5 -110q52 -16 90 -27.5t72 -23.5zM135 1100q0 176 133.5 276.5t361.5 100.5t359 -111.5t127 -313.5l-3 -6h-188q0 118 -79.5 197t-221.5 79t-217 -59.5
t-75 -154.5t67 -144.5t295 -113.5t339 -154t111 -273t-184 -266q140 -101 140 -279t-133 -275.5t-357 -97.5t-374 102.5t-145 322.5l2 6l188 2q0 -143 96.5 -210.5t232.5 -67.5t214.5 59.5t78.5 150.5t-72 141.5t-276 113.5q-239 63 -352 156t-113 270q0 91 46.5 161.5
t133.5 111.5q-135 100 -135 276z" />
    <glyph glyph-name="dieresis" unicode="&#xa8;" horiz-adv-x="992" 
d="M370 1256h-218v200h218v-200zM840 1256h-218v200h218v-200z" />
    <glyph glyph-name="copyright" unicode="&#xa9;" horiz-adv-x="1595" 
d="M92 728q0 316 207 532t503 216t502.5 -216t206.5 -532t-207.5 -532.5t-502.5 -216.5t-502 216.5t-207 532.5zM212 728q0 -264 172 -446t417 -182t417 182t172 446t-172 445t-417 181t-417 -181t-172 -445zM969 862q0 182 -181 182q-95 0 -146 -70.5t-51 -184.5v-120
q0 -117 51.5 -187t143.5 -70t137 43t45 141h146l2 -6q4 -151 -84 -229.5t-246 -78.5t-252.5 106t-94.5 281v119q0 173 94.5 280t252.5 107t246.5 -79t84.5 -228l-2 -6h-146z" />
    <glyph glyph-name="ordfeminine" unicode="&#xaa;" horiz-adv-x="894" 
d="M278 924q0 -93 119 -93q51 0 105 29.5t72 65.5v110h-137q-75 0 -117 -33t-42 -79zM368 692q-132 0 -197 61t-65 169t84 168t246 60h138v52q0 131 -117 131q-67 0 -103.5 -27t-36.5 -76l-163 13l-1 6q-6 98 79.5 163t221.5 65t214.5 -71t78.5 -205v-314q0 -103 26 -181
h-175q-14 38 -21 95q-77 -109 -209 -109z" />
    <glyph glyph-name="guillemotleft" unicode="&#xab;" horiz-adv-x="935" 
d="M246 515l255 -398h-148l-295 389v19l295 389h148zM580 515l255 -398h-148l-295 389v19l295 389h148z" />
    <glyph glyph-name="logicalnot" unicode="&#xac;" horiz-adv-x="1122" 
d="M955 375h-197v262h-637v165h834v-427z" />
    <glyph glyph-name="uni00AD" unicode="&#xad;" horiz-adv-x="797" 
d="M643 538h-489v154h489v-154z" />
    <glyph glyph-name="registered" unicode="&#xae;" horiz-adv-x="1595" 
d="M657 784h152q65 1 110 32.5t45 95.5t-39 94t-137 30h-131v-252zM960 460v54q0 72 -33.5 106t-110.5 34h-159v-338h-149v850h280q152 0 238 -66t86 -190t-128 -188q125 -49 125 -207v-56q0 -91 17 -127v-16h-153q-13 30 -13 144zM212 728q0 -264 172 -446t417 -182
t417 182t172 446t-172 445t-417 181t-417 -181t-172 -445zM92 728q0 316 207 532t503 216t502.5 -216t206.5 -532t-207.5 -532.5t-502.5 -216.5t-502 216.5t-207 532.5z" />
    <glyph glyph-name="macron" unicode="&#xaf;" horiz-adv-x="1028" 
d="M875 1310h-721v146h721v-146z" />
    <glyph glyph-name="macron" unicode="&#x2c9;" horiz-adv-x="1028" 
d="M875 1310h-721v146h721v-146z" />
    <glyph glyph-name="degree" unicode="&#xb0;" horiz-adv-x="757" 
d="M254 1216q0 -55 37 -91t89 -36t87.5 36t35.5 91t-35.5 92.5t-87.5 37.5t-89 -37.5t-37 -92.5zM124 1215q0 107 76 184.5t180 77.5t178.5 -77.5t74.5 -184.5t-74.5 -181.5t-179.5 -74.5t-180 74.5t-75 181.5z" />
    <glyph glyph-name="plusminus" unicode="&#xb1;" horiz-adv-x="1057" 
d="M959 5h-835v155h835v-155zM633 856h358v-154h-358v-413h-178v413h-380v154h380v411h178v-411z" />
    <glyph glyph-name="twosuperior" unicode="&#xb2;" horiz-adv-x="827" 
d="M714 667h-592v130l302 262q69 59 90.5 97t21.5 84t-28 77t-90 31t-99 -32t-37 -82h-161l-2 6q-6 99 78 169t222 70t214 -64t76 -180q0 -80 -44.5 -136t-160.5 -161l-153 -135l2 -6h361v-130z" />
    <glyph glyph-name="threesuperior" unicode="&#xb3;" horiz-adv-x="845" 
d="M740 890q0 -111 -90 -173t-226 -62t-227.5 58t-85.5 169l1 6h163q0 -46 37.5 -74.5t105.5 -28.5t109.5 29.5t41.5 85.5q0 112 -145 111h-133v126h133q131 0 131 109q0 44 -36.5 72.5t-98.5 28.5t-97 -24t-35 -64h-162l-2 6q-6 94 78.5 153.5t220.5 59.5t220 -59.5
t84 -169.5q0 -55 -35.5 -100.5t-97.5 -71.5q146 -49 146 -187z" />
    <glyph glyph-name="acute" unicode="&#xb4;" horiz-adv-x="599" 
d="M279 1478h230l2 -6l-269 -260h-147z" />
    <glyph glyph-name="mu" unicode="&#xb5;" horiz-adv-x="1315" 
d="M425 -416h-196v1343l-163 28v127h359v-622q0 -189 55 -258t157 -69q189 0 252 144v650l-163 28v127h360v-928l163 -28v-126h-340l-9 109q-89 -130 -243 -130t-232 68v-463z" />
    <glyph glyph-name="paragraph" unicode="&#xb6;" horiz-adv-x="1090" 
d="M570 520q-234 0 -363 129.5t-129 337.5t129.5 338.5t362.5 130.5h443v-127l-163 -28v-1147l163 -28v-126h-523v126l163 28v366h-83z" />
    <glyph glyph-name="periodcentered" unicode="&#xb7;" horiz-adv-x="516" 
d="M357 624h-198v212h198v-212z" />
    <glyph glyph-name="cedilla" unicode="&#xb8;" horiz-adv-x="470" 
d="M415 -233q0 -88 -79 -145t-226 -57l-7 109q72 0 115.5 25t43.5 73t-36 67t-123 26l32 135h141l-12 -52q151 -26 151 -181z" />
    <glyph glyph-name="onesuperior" unicode="&#xb9;" horiz-adv-x="547" 
d="M396 665h-174v655h-127v134l301 23v-812z" />
    <glyph glyph-name="ordmasculine" unicode="&#xba;" horiz-adv-x="941" 
d="M293 1025q0 -88 44 -140.5t129 -52.5t129 53t44 140v117q0 84 -44.5 137.5t-128.5 53.5t-128.5 -53.5t-44.5 -137.5v-117zM121 1142q0 148 93.5 241.5t251.5 93.5t252 -93.5t94 -241.5v-117q0 -149 -93.5 -241.5t-251.5 -92.5t-252 92.5t-94 241.5v117z" />
    <glyph glyph-name="guillemotright" unicode="&#xbb;" horiz-adv-x="938" 
d="M253 949l295 -389v-19l-295 -389h-148l254 398l-254 399h148zM598 949l295 -389v-19l-295 -389h-148l254 398l-254 399h148z" />
    <glyph glyph-name="onequarter" unicode="&#xbc;" horiz-adv-x="1443" 
d="M484 664h-174v655h-127v134l301 23v-812zM430 118l-109 67l711 1138l109 -67zM1210 282v310l-6 1l-13 -22l-224 -289h243zM1380 282h126v-130h-126v-152h-170v152h-417l-8 102l421 547h174v-519z" />
    <glyph glyph-name="onehalf" unicode="&#xbd;" horiz-adv-x="1480" 
d="M443 118l-109 67l711 1138l109 -67zM484 664h-174v655h-127v134l301 23v-812zM1524 0h-592v130l302 262q68 58 90 96t22 84t-28 78q-28 31 -90 31t-100 -32q-36 -32 -36 -82h-161l-2 6q-6 99 78 169t222 70t214 -64t76 -180q-1 -80 -45 -136t-160 -161l-153 -135l2 -6
h361v-130z" />
    <glyph glyph-name="threequarters" unicode="&#xbe;" horiz-adv-x="1690" 
d="M614 118l-109 67l711 1138l109 -67zM1399 282v310l-6 1l-13 -22l-224 -289h243zM1569 282h126v-130h-126v-152h-170v152h-417l-8 102l421 547h174v-519zM756 891q0 -111 -90 -173t-226 -62t-228 58q-91 58 -85 169l1 6h163q-1 -47 37 -75t106 -28t110 30t41 84
q0 112 -145 112h-133v126h133q131 0 131 109q0 45 -36 73q-37 28 -99 28t-97 -24t-35 -64h-162l-2 6q-6 94 78 154t221 59q136 1 220 -59t84 -170q1 -54 -35 -100t-98 -72q146 -49 146 -187z" />
    <glyph glyph-name="questiondown" unicode="&#xbf;" horiz-adv-x="890" 
d="M385 1083h205v-209h-205v209zM255 -18q0 -97 55.5 -153.5t153.5 -56.5t162.5 49.5t64.5 145.5h188l3 -6q2 -161 -115 -258t-305 -97t-296 100.5t-108 280.5q0 127 69.5 233.5t186.5 220.5q53 53 65 96t12 135h197q-2 -146 -26 -202t-125 -147q-101 -120 -141.5 -182
t-40.5 -159z" />
    <glyph glyph-name="Agrave" unicode="&#xc0;" 
d="M522 578h462l-226 625h-6zM1448 0h-418v126l110 19l-96 268h-583l-99 -268l110 -19v-126h-417v126l108 15l509 1315h169l500 -1315l107 -15v-126zM843 1559h-159l-249 260l3 6h230z" />
    <glyph glyph-name="Aacute" unicode="&#xc1;" 
d="M522 578h462l-226 625h-6zM1448 0h-418v126l110 19l-96 268h-583l-99 -268l110 -19v-126h-417v126l108 15l509 1315h169l500 -1315l107 -15v-126zM815 1822h230l2 -6l-269 -260h-147z" />
    <glyph glyph-name="Acircumflex" unicode="&#xc2;" 
d="M522 578h462l-226 625h-6zM1448 0h-418v126l110 19l-96 268h-583l-99 -268l110 -19v-126h-417v126l108 15l509 1315h169l500 -1315l107 -15v-126zM1065 1587h-161l-147 148l-145 -148h-160v26l246 237h119l248 -238v-25z" />
    <glyph glyph-name="Atilde" unicode="&#xc3;" 
d="M522 578h462l-226 625h-6zM1448 0h-418v126l110 19l-96 268h-583l-99 -268l110 -19v-126h-417v126l108 15l509 1315h169l500 -1315l107 -15v-126zM896 1619q-80 1 -158 47t-124 46t-76 -32t-29 -79l-107 26q0 93 58 161t150 69q56 0 140 -47t130 -47q46 1 77 33
q30 32 30 79l108 -32q1 -94 -59 -159t-140 -65z" />
    <glyph glyph-name="Adieresis" unicode="&#xc4;" 
d="M522 578h462l-226 625h-6zM1448 0h-418v126l110 19l-96 268h-583l-99 -268l110 -19v-126h-417v126l108 15l509 1315h169l500 -1315l107 -15v-126zM613 1604h-218v200h218v-200zM1083 1604h-218v200h218v-200z" />
    <glyph glyph-name="Aring" unicode="&#xc5;" 
d="M522 578h462l-226 625h-6zM1448 0h-418v126l110 19l-96 268h-583l-99 -268l110 -19v-126h-417v126l108 15l509 1315h169l500 -1315l107 -15v-126zM658 1736q0 -44 31 -74t73 -31t73 29q30 30 30 75t-30 76t-73 31q-44 0 -74 -31t-30 -75zM555 1734q1 85 61 142t146 57
q86 -1 146 -57t60 -142t-60 -139q-60 -54 -146 -54t-146 54t-61 139z" />
    <glyph glyph-name="AE" unicode="&#xc6;" horiz-adv-x="2096" 
d="M651 529h446l-31 710l-5 2zM1952 1456v-322h-168l-15 167h-508l20 -466h590v-155h-584l22 -526h522l16 167h167v-321h-1058v126l156 27l-8 197h-556l-121 -210l82 -14v-126h-458v126l141 20l793 1310h967z" />
    <glyph glyph-name="Ccedilla" unicode="&#xc7;" horiz-adv-x="1321" 
d="M762 -60q151 -26 151 -181q0 -88 -79 -145t-226 -57l-7 109q71 0 115 24t44 74q0 48 -36 67t-123 26l30 127q-225 28 -378 205q-182 210 -182 528v21q0 320 179 530t469 209q166 -1 292 -65t189 -144v-259h-139l-37 206q-109 107 -285 107q-227 0 -349 -164t-122 -418
v-23q0 -253 120 -419t331 -165q99 0 180 31t125 76l37 206h139v-259q-63 -81 -179 -139t-250 -67z" />
    <glyph glyph-name="Egrave" unicode="&#xc8;" horiz-adv-x="1306" 
d="M71 0v126l163 28v1147l-163 28v127h1118v-350h-169l-16 195h-573v-471h557v-155h-557v-521h585l16 195h168v-349h-1129zM737 1560h-159l-249 260l3 6h230z" />
    <glyph glyph-name="Eacute" unicode="&#xc9;" horiz-adv-x="1306" 
d="M71 0v126l163 28v1147l-163 28v127h1118v-350h-169l-16 195h-573v-471h557v-155h-557v-521h585l16 195h168v-349h-1129zM709 1823h230l2 -6l-269 -260h-147z" />
    <glyph glyph-name="Ecircumflex" unicode="&#xca;" horiz-adv-x="1306" 
d="M71 0v126l163 28v1147l-163 28v127h1118v-350h-169l-16 195h-573v-471h557v-155h-557v-521h585l16 195h168v-349h-1129zM959 1588h-161l-147 148l-145 -148h-160v26l246 237h119l248 -238v-25z" />
    <glyph glyph-name="Edieresis" unicode="&#xcb;" horiz-adv-x="1306" 
d="M71 0v126l163 28v1147l-163 28v127h1118v-350h-169l-16 195h-573v-471h557v-155h-557v-521h585l16 195h168v-349h-1129zM507 1605h-218v200h218v-200zM977 1605h-218v200h218v-200z" />
    <glyph glyph-name="Igrave" unicode="&#xcc;" horiz-adv-x="662" 
d="M70 1456h523v-127l-163 -28v-1147l163 -28v-126h-523v126l163 28v1147l-163 28v127zM424 1558h-159l-249 260l3 6h230z" />
    <glyph glyph-name="Iacute" unicode="&#xcd;" horiz-adv-x="662" 
d="M70 1456h523v-127l-163 -28v-1147l163 -28v-126h-523v126l163 28v1147l-163 28v127zM395 1821h230l2 -6l-269 -260h-147z" />
    <glyph glyph-name="Icircumflex" unicode="&#xce;" horiz-adv-x="662" 
d="M70 1456h523v-127l-163 -28v-1147l163 -28v-126h-523v126l163 28v1147l-163 28v127zM646 1586h-161l-147 148l-145 -148h-160v26l246 237h119l248 -238v-25z" />
    <glyph glyph-name="Idieresis" unicode="&#xcf;" horiz-adv-x="662" 
d="M70 1456h523v-127l-163 -28v-1147l163 -28v-126h-523v126l163 28v1147l-163 28v127zM194 1603h-218v200h218v-200zM664 1603h-218v200h218v-200z" />
    <glyph glyph-name="Eth" unicode="&#xd0;" horiz-adv-x="1449" 
d="M707 663h-246v-509h250q202 0 318.5 133t116.5 341v201q0 206 -116.5 339t-318.5 133h-250v-483h246v-155zM711 1456q285 0 458.5 -175.5t173.5 -453.5v-199q0 -279 -173.5 -453.5t-458.5 -174.5h-610v126l163 28v509h-198v155h198v483l-163 28v127h610z" />
    <glyph glyph-name="Ntilde" unicode="&#xd1;" horiz-adv-x="1560" 
d="M1497 1456v-127l-163 -28v-1301h-197l-700 1124l-6 -2v-968l163 -28v-126h-523v126l163 28v1147l-163 28v127h360l700 -1123l6 2v966l-163 28v127h523zM890 1620q-80 0 -158 46t-124 47q-46 -1 -76 -33t-29 -78l-107 26q0 94 58 162t150 68q56 0 140 -47t130 -47t77 32
q30 32 30 80l108 -32q1 -94 -59 -159t-140 -65z" />
    <glyph glyph-name="Ograve" unicode="&#xd2;" horiz-adv-x="1445" 
d="M1171 740q1 254 -121 414t-332 161q-210 0 -326 -161t-116 -414v-23q0 -257 116 -417t327 -160q212 0 332 160t120 417v23zM1368 717q0 -318 -182 -528t-469 -210q-286 0 -462 210t-176 528v21q0 317 176 528t462 211q287 0 469 -211t182 -528v-21zM805 1559h-159
l-249 260l3 6h230z" />
    <glyph glyph-name="Oacute" unicode="&#xd3;" horiz-adv-x="1445" 
d="M1171 740q1 254 -121 414t-332 161q-210 0 -326 -161t-116 -414v-23q0 -257 116 -417t327 -160q212 0 332 160t120 417v23zM1368 717q0 -318 -182 -528t-469 -210q-286 0 -462 210t-176 528v21q0 317 176 528t462 211q287 0 469 -211t182 -528v-21zM777 1822h230l2 -6
l-269 -260h-147z" />
    <glyph glyph-name="Ocircumflex" unicode="&#xd4;" horiz-adv-x="1445" 
d="M1171 740q1 254 -121 414t-332 161q-210 0 -326 -161t-116 -414v-23q0 -257 116 -417t327 -160q212 0 332 160t120 417v23zM1368 717q0 -318 -182 -528t-469 -210q-286 0 -462 210t-176 528v21q0 317 176 528t462 211q287 0 469 -211t182 -528v-21zM1027 1587h-161
l-147 148l-145 -148h-160v26l246 237h119l248 -238v-25z" />
    <glyph glyph-name="Otilde" unicode="&#xd5;" horiz-adv-x="1445" 
d="M1171 740q1 254 -121 414t-332 161q-210 0 -326 -161t-116 -414v-23q0 -257 116 -417t327 -160q212 0 332 160t120 417v23zM1368 717q0 -318 -182 -528t-469 -210q-286 0 -462 210t-176 528v21q0 317 176 528t462 211q287 0 469 -211t182 -528v-21zM858 1619
q-80 1 -158 47t-124 46t-76 -32t-29 -79l-107 26q0 93 58 161t150 69q56 0 140 -47t130 -47q46 1 77 33q30 32 30 79l108 -32q1 -94 -59 -159t-140 -65z" />
    <glyph glyph-name="Odieresis" unicode="&#xd6;" horiz-adv-x="1445" 
d="M1171 740q1 254 -121 414t-332 161q-210 0 -326 -161t-116 -414v-23q0 -257 116 -417t327 -160q212 0 332 160t120 417v23zM1368 717q0 -318 -182 -528t-469 -210q-286 0 -462 210t-176 528v21q0 317 176 528t462 211q287 0 469 -211t182 -528v-21zM575 1604h-218v200
h218v-200zM1045 1604h-218v200h218v-200z" />
    <glyph glyph-name="multiply" unicode="&#xd7;" horiz-adv-x="1070" 
d="M79 351l327 334l-327 334l126 126l326 -333l327 333l126 -126l-328 -334l328 -334l-126 -126l-327 332l-326 -332z" />
    <glyph glyph-name="Oslash" unicode="&#xd8;" horiz-adv-x="1404" 
d="M276 740v-23q0 -256 108 -401h6l555 935q-103 64 -232 64q-206 0 -321.5 -161t-115.5 -414zM1171 717v23q0 265 -127 417l-6 1l-560 -945q97 -73 235 -73q218 0 338 160t120 417zM713 1477q170 0 317 -83l73 123h149l-118 -199q111 -102 172.5 -252.5t61.5 -327.5v-21
q0 -318 -182.5 -528t-472.5 -210q-179 0 -320 90l-97 -163h-149l144 244q-102 101 -157 247.5t-55 319.5v21q0 317 176 528t458 211z" />
    <glyph glyph-name="Ugrave" unicode="&#xd9;" horiz-adv-x="1541" 
d="M583 1456v-127l-163 -28v-832q0 -165 94 -251t252 -85q158 0 257 85t99 251v832l-163 28v127h523v-127l-163 -28v-832q-1 -237 -155 -363t-398 -127q-244 1 -394 127q-149 126 -149 363v832l-163 28v127h523zM838 1559h-159l-249 260l3 6h230z" />
    <glyph glyph-name="Uacute" unicode="&#xda;" horiz-adv-x="1541" 
d="M583 1456v-127l-163 -28v-832q0 -165 94 -251t252 -85q158 0 257 85t99 251v832l-163 28v127h523v-127l-163 -28v-832q-1 -237 -155 -363t-398 -127q-244 1 -394 127q-149 126 -149 363v832l-163 28v127h523zM810 1822h230l2 -6l-269 -260h-147z" />
    <glyph glyph-name="Ucircumflex" unicode="&#xdb;" horiz-adv-x="1541" 
d="M583 1456v-127l-163 -28v-832q0 -165 94 -251t252 -85q158 0 257 85t99 251v832l-163 28v127h523v-127l-163 -28v-832q-1 -237 -155 -363t-398 -127q-244 1 -394 127q-149 126 -149 363v832l-163 28v127h523zM1060 1587h-161l-147 148l-145 -148h-160v26l246 237h119
l248 -238v-25z" />
    <glyph glyph-name="Udieresis" unicode="&#xdc;" horiz-adv-x="1541" 
d="M583 1456v-127l-163 -28v-832q0 -165 94 -251t252 -85q158 0 257 85t99 251v832l-163 28v127h523v-127l-163 -28v-832q-1 -237 -155 -363t-398 -127q-244 1 -394 127q-149 126 -149 363v832l-163 28v127h523zM608 1604h-218v200h218v-200zM1078 1604h-218v200h218v-200z
" />
    <glyph glyph-name="Yacute" unicode="&#xdd;" horiz-adv-x="1416" 
d="M852 1456h500v-127l-123 -19l-432 -798v-358l163 -28v-126h-522v126l163 28v373l-424 783l-122 19v127h500v-127l-157 -19l305 -594l305 594l-156 19v127zM757 1822h230l2 -6l-269 -260h-147z" />
    <glyph glyph-name="Thorn" unicode="&#xde;" horiz-adv-x="1277" 
d="M430 1009v-542h269q146 0 220 77.5t74 191.5t-74 193.5t-220 79.5h-269zM70 1456h523v-127l-163 -28v-138h269q231 0 361 -117.5t130 -307.5t-130 -307.5t-361 -117.5h-269v-159l163 -28v-126h-523v126l163 28v1147l-163 28v127z" />
    <glyph glyph-name="germandbls" unicode="&#xdf;" horiz-adv-x="1288" 
d="M414 0h-359v126l163 28v928q0 223 117 348t289 125t273 -86t101 -253q0 -118 -64 -228t-64 -167q0 -82 173 -224t173 -281q0 -167 -104 -252t-282 -85q-84 0 -172.5 20.5t-125.5 50.5l43 159q42 -28 108 -52t126 -24q109 0 159.5 46.5t50.5 128.5t-173 225.5t-173 289.5
q0 80 70 190.5t70 195.5t-50.5 138.5t-116.5 53.5q-105 0 -168.5 -83t-63.5 -236v-1082z" />
    <glyph glyph-name="agrave" unicode="&#xe0;" horiz-adv-x="1128" 
d="M301 290q0 -146 177 -146q98 0 179 47t116 113v178h-210q-121 0 -191 -56t-71 -136zM558 1102q184 0 298 -94t114 -269v-521q0 -51 3 -81l80 -11v-126h-258q-17 85 -21 149q-56 -73 -142 -121t-183 -49q-169 1 -257 83t-88 234t124 236t342 83h203v126q0 95 -60 151
q-61 56 -151 55q-163 0 -238 -71l-21 -114h-152v210q163 130 407 130zM641 1235h-159l-249 260l3 6h230z" />
    <glyph glyph-name="aacute" unicode="&#xe1;" horiz-adv-x="1128" 
d="M301 290q0 -146 177 -146q98 0 179 47t116 113v178h-210q-121 0 -191 -56t-71 -136zM558 1102q184 0 298 -94t114 -269v-521q0 -51 3 -81l80 -11v-126h-258q-17 85 -21 149q-56 -73 -142 -121t-183 -49q-169 1 -257 83t-88 234t124 236t342 83h203v126q0 95 -60 151
q-61 56 -151 55q-163 0 -238 -71l-21 -114h-152v210q163 130 407 130zM613 1498h230l2 -6l-269 -260h-147z" />
    <glyph glyph-name="acircumflex" unicode="&#xe2;" horiz-adv-x="1128" 
d="M301 290q0 -146 177 -146q98 0 179 47t116 113v178h-210q-121 0 -191 -56t-71 -136zM558 1102q184 0 298 -94t114 -269v-521q0 -51 3 -81l80 -11v-126h-258q-17 85 -21 149q-56 -73 -142 -121t-183 -49q-169 1 -257 83t-88 234t124 236t342 83h203v126q0 95 -60 151
q-61 56 -151 55q-163 0 -238 -71l-21 -114h-152v210q163 130 407 130zM863 1263h-161l-147 148l-145 -148h-160v26l246 237h119l248 -238v-25z" />
    <glyph glyph-name="atilde" unicode="&#xe3;" horiz-adv-x="1128" 
d="M301 290q0 -146 177 -146q98 0 179 47t116 113v178h-210q-121 0 -191 -56t-71 -136zM558 1102q184 0 298 -94t114 -269v-521q0 -51 3 -81l80 -11v-126h-258q-17 85 -21 149q-56 -73 -142 -121t-183 -49q-169 1 -257 83t-88 234t124 236t342 83h203v126q0 95 -60 151
q-61 56 -151 55q-163 0 -238 -71l-21 -114h-152v210q163 130 407 130zM694 1295q-80 1 -158 47t-124 46t-76 -32t-29 -79l-107 26q0 93 58 161t150 69q56 0 140 -47t130 -47q46 1 77 33q30 32 30 79l108 -32q1 -94 -59 -159t-140 -65z" />
    <glyph glyph-name="adieresis" unicode="&#xe4;" horiz-adv-x="1128" 
d="M301 290q0 -146 177 -146q98 0 179 47t116 113v178h-210q-121 0 -191 -56t-71 -136zM558 1102q184 0 298 -94t114 -269v-521q0 -51 3 -81l80 -11v-126h-258q-17 85 -21 149q-56 -73 -142 -121t-183 -49q-169 1 -257 83t-88 234t124 236t342 83h203v126q0 95 -60 151
q-61 56 -151 55q-163 0 -238 -71l-21 -114h-152v210q163 130 407 130zM411 1280h-218v200h218v-200zM881 1280h-218v200h218v-200z" />
    <glyph glyph-name="aring" unicode="&#xe5;" horiz-adv-x="1128" 
d="M301 290q0 -146 177 -146q98 0 179 47t116 113v178h-210q-121 0 -191 -56t-71 -136zM558 1102q184 0 298 -94t114 -269v-521q0 -51 3 -81l80 -11v-126h-258q-17 85 -21 149q-56 -73 -142 -121t-183 -49q-169 1 -257 83t-88 234t124 236t342 83h203v126q0 95 -60 151
q-61 56 -151 55q-163 0 -238 -71l-21 -114h-152v210q163 130 407 130zM456 1412q0 -44 31 -74t73 -31t73 29q30 30 30 75t-30 76t-73 31q-44 0 -74 -31t-30 -75zM353 1410q1 85 61 142t146 57q86 -1 146 -57t60 -142t-60 -139q-60 -54 -146 -54t-146 54t-61 139z" />
    <glyph glyph-name="ae" unicode="&#xe6;" horiz-adv-x="1795" 
d="M1261 947q-121 0 -190 -84.5t-80 -217.5l2 -5h509v31q0 122 -60 199t-181 77zM480 133q86 0 169 43t126 100v217h-227q-120 0 -187 -55.5t-67 -133.5t50 -124.5t136 -46.5zM446 -21q-164 0 -256.5 87.5t-92.5 241.5t114.5 240.5t334.5 86.5h229v85q0 106 -51.5 166.5
t-151.5 60.5t-161.5 -55t-61.5 -133l-188 18l-2 6q-5 138 110 228.5t305 90.5q236 0 339 -158q135 158 345 158t325.5 -130t115.5 -358v-119h-710l-2 -5q1 -159 79.5 -258t233.5 -99q104 0 170 27.5t144 78.5l68 -138q-149 -122 -382 -122q-271 0 -409 186
q-56 -79 -168.5 -132.5t-276.5 -53.5z" />
    <glyph glyph-name="ccedilla" unicode="&#xe7;" horiz-adv-x="1104" 
d="M571 -61q151 -26 151 -181q0 -88 -79 -145t-226 -57l-7 109q72 1 116 25t43 72q0 48 -36 68q-36 19 -123 26l32 135h10q-148 31 -238 142q-124 154 -124 387v42q0 232 125 386t372 154t393 -161l9 -240h-157l-43 170q-78 76 -224 76q-145 1 -211 -111t-67 -274v-42
q0 -166 66 -276t222 -111q99 1 173 61t74 148h177l2 -6q5 -140 -124 -248t-297 -109z" />
    <glyph glyph-name="egrave" unicode="&#xe8;" horiz-adv-x="1101" 
d="M564 947q-110 1 -180 -83t-86 -210l2 -5h499v26q0 116 -62 194q-63 78 -173 78zM593 -21q-235 1 -369 151t-134 390v44q0 230 138 384t340 154q204 0 316 -132t112 -352v-123h-702l-3 -5q3 -156 79 -256t213 -101q188 0 306 107l77 -128q-137 -133 -373 -133zM641 1235
h-159l-249 260l3 6h230z" />
    <glyph glyph-name="eacute" unicode="&#xe9;" horiz-adv-x="1101" 
d="M564 947q-110 1 -180 -83t-86 -210l2 -5h499v26q0 116 -62 194q-63 78 -173 78zM593 -21q-235 1 -369 151t-134 390v44q0 230 138 384t340 154q204 0 316 -132t112 -352v-123h-702l-3 -5q3 -156 79 -256t213 -101q188 0 306 107l77 -128q-137 -133 -373 -133zM613 1498
h230l2 -6l-269 -260h-147z" />
    <glyph glyph-name="ecircumflex" unicode="&#xea;" horiz-adv-x="1101" 
d="M564 947q-110 1 -180 -83t-86 -210l2 -5h499v26q0 116 -62 194q-63 78 -173 78zM593 -21q-235 1 -369 151t-134 390v44q0 230 138 384t340 154q204 0 316 -132t112 -352v-123h-702l-3 -5q3 -156 79 -256t213 -101q188 0 306 107l77 -128q-137 -133 -373 -133zM863 1263
h-161l-147 148l-145 -148h-160v26l246 237h119l248 -238v-25z" />
    <glyph glyph-name="edieresis" unicode="&#xeb;" horiz-adv-x="1101" 
d="M564 947q-110 1 -180 -83t-86 -210l2 -5h499v26q0 116 -62 194q-63 78 -173 78zM593 -21q-235 1 -369 151t-134 390v44q0 230 138 384t340 154q204 0 316 -132t112 -352v-123h-702l-3 -5q3 -156 79 -256t213 -101q188 0 306 107l77 -128q-137 -133 -373 -133zM411 1280
h-218v200h218v-200zM881 1280h-218v200h218v-200z" />
    <glyph glyph-name="igrave" unicode="&#xec;" horiz-adv-x="672" 
d="M90 1082h360v-928l163 -28v-126h-523v126l163 28v773l-163 28v127zM432 1234h-159l-249 260l3 6h230z" />
    <glyph glyph-name="iacute" unicode="&#xed;" horiz-adv-x="672" 
d="M90 1082h360v-928l163 -28v-126h-523v126l163 28v773l-163 28v127zM403 1497h230l2 -6l-269 -260h-147z" />
    <glyph glyph-name="icircumflex" unicode="&#xee;" horiz-adv-x="672" 
d="M90 1082h360v-928l163 -28v-126h-523v126l163 28v773l-163 28v127zM654 1262h-161l-147 148l-145 -148h-160v26l246 237h119l248 -238v-25z" />
    <glyph glyph-name="idieresis" unicode="&#xef;" horiz-adv-x="672" 
d="M90 1082h360v-928l163 -28v-126h-523v126l163 28v773l-163 28v127zM202 1279h-218v200h218v-200zM672 1279h-218v200h218v-200z" />
    <glyph glyph-name="eth" unicode="&#xf0;" horiz-adv-x="1191" 
d="M560 823q-124 0 -204.5 -104.5t-80.5 -244.5t82.5 -240.5t218.5 -100.5t220.5 114t84.5 288v100l-1 50q-35 58 -115.5 98t-204.5 40zM1078 633v-98q0 -245 -144 -400.5t-360 -155.5t-356 139.5t-140 357.5t138 360t351 142q83 0 157.5 -32t126.5 -84l4 5
q-39 193 -163 323l-272 -155l-77 102l245 140q-66 42 -155 76l60 164q150 -44 271 -139l233 133l77 -102l-215 -123q219 -255 219 -653z" />
    <glyph glyph-name="ntilde" unicode="&#xf1;" horiz-adv-x="1318" 
d="M1101 683v-529l163 -28v-126h-523v126l163 28v525q0 143 -56 203t-158 60q-186 0 -270 -153v-635l163 -28v-126h-523v126l163 28v773l-163 28v127h339l14 -161q114 181 321 181q175 0 271 -102t96 -317zM808 1295q-80 1 -158 47t-124 46t-76 -32t-29 -79l-107 26
q0 93 58 161t150 69q56 0 140 -47t130 -47q46 1 77 33q30 32 30 79l108 -32q1 -94 -59 -159t-140 -65z" />
    <glyph glyph-name="ograve" unicode="&#xf2;" horiz-adv-x="1149" 
d="M287 529q1 -172 73 -284t214 -112t214 112q73 112 73 284v22q0 170 -73 283t-215 113t-214 -113t-72 -283v-22zM90 551q0 239 130 395t354 156t354 -155t130 -396v-22q0 -242 -130 -396t-354 -154q-224 1 -354 155t-130 395v22zM659 1235h-159l-249 260l3 6h230z" />
    <glyph glyph-name="oacute" unicode="&#xf3;" horiz-adv-x="1149" 
d="M287 529q1 -172 73 -284t214 -112t214 112q73 112 73 284v22q0 170 -73 283t-215 113t-214 -113t-72 -283v-22zM90 551q0 239 130 395t354 156t354 -155t130 -396v-22q0 -242 -130 -396t-354 -154q-224 1 -354 155t-130 395v22zM631 1498h230l2 -6l-269 -260h-147z" />
    <glyph glyph-name="ocircumflex" unicode="&#xf4;" horiz-adv-x="1149" 
d="M287 529q1 -172 73 -284t214 -112t214 112q73 112 73 284v22q0 170 -73 283t-215 113t-214 -113t-72 -283v-22zM90 551q0 239 130 395t354 156t354 -155t130 -396v-22q0 -242 -130 -396t-354 -154q-224 1 -354 155t-130 395v22zM881 1263h-161l-147 148l-145 -148h-160
v26l246 237h119l248 -238v-25z" />
    <glyph glyph-name="otilde" unicode="&#xf5;" horiz-adv-x="1149" 
d="M287 529q1 -172 73 -284t214 -112t214 112q73 112 73 284v22q0 170 -73 283t-215 113t-214 -113t-72 -283v-22zM90 551q0 239 130 395t354 156t354 -155t130 -396v-22q0 -242 -130 -396t-354 -154q-224 1 -354 155t-130 395v22zM712 1295q-80 1 -158 47t-124 46t-76 -32
t-29 -79l-107 26q0 93 58 161t150 69q56 0 140 -47t130 -47q46 1 77 33q30 32 30 79l108 -32q1 -94 -59 -159t-140 -65z" />
    <glyph glyph-name="odieresis" unicode="&#xf6;" horiz-adv-x="1149" 
d="M287 529q1 -172 73 -284t214 -112t214 112q73 112 73 284v22q0 170 -73 283t-215 113t-214 -113t-72 -283v-22zM90 551q0 239 130 395t354 156t354 -155t130 -396v-22q0 -242 -130 -396t-354 -154q-224 1 -354 155t-130 395v22zM429 1280h-218v200h218v-200zM899 1280
h-218v200h218v-200z" />
    <glyph glyph-name="divide" unicode="&#xf7;" horiz-adv-x="1148" 
d="M673 180h-198v203h198v-203zM673 999h-198v203h198v-203zM1072 597h-998v188h998v-188z" />
    <glyph glyph-name="oslash" unicode="&#xf8;" horiz-adv-x="1149" 
d="M575 133q140 0 213 112t73 284v22q0 172 -68 271h-6l-328 -664q48 -25 116 -25zM287 551v-22q0 -191 78 -287h6l332 672q-58 33 -130 33q-142 0 -214 -113t-72 -283zM575 -21q-99 0 -188 34l-73 -148h-129l101 206q-95 72 -145.5 191t-50.5 267v22q0 240 130 395.5
t353 155.5q102 0 203 -41l73 148h129l-104 -210q88 -74 136 -190t48 -258v-22q0 -242 -130 -396t-353 -154z" />
    <glyph glyph-name="ugrave" unicode="&#xf9;" horiz-adv-x="1244" 
d="M172 444v483l-124 28v127h321v-640q0 -173 51 -238t159 -65q204 0 277 163v625l-145 28v127h342v-928l124 -28v-126h-301l-13 160q-106 -181 -317 -181q-176 0 -275 113t-99 352zM671 1234h-159l-249 260l3 6h230z" />
    <glyph glyph-name="uacute" unicode="&#xfa;" horiz-adv-x="1244" 
d="M172 444v483l-124 28v127h321v-640q0 -173 51 -238t159 -65q204 0 277 163v625l-145 28v127h342v-928l124 -28v-126h-301l-13 160q-106 -181 -317 -181q-176 0 -275 113t-99 352zM643 1497h230l2 -6l-269 -260h-147z" />
    <glyph glyph-name="ucircumflex" unicode="&#xfb;" horiz-adv-x="1244" 
d="M172 444v483l-124 28v127h321v-640q0 -173 51 -238t159 -65q204 0 277 163v625l-145 28v127h342v-928l124 -28v-126h-301l-13 160q-106 -181 -317 -181q-176 0 -275 113t-99 352zM893 1262h-161l-147 148l-145 -148h-160v26l246 237h119l248 -238v-25z" />
    <glyph glyph-name="udieresis" unicode="&#xfc;" horiz-adv-x="1244" 
d="M172 444v483l-124 28v127h321v-640q0 -173 51 -238t159 -65q204 0 277 163v625l-145 28v127h342v-928l124 -28v-126h-301l-13 160q-106 -181 -317 -181q-176 0 -275 113t-99 352zM441 1279h-218v200h218v-200zM911 1279h-218v200h218v-200z" />
    <glyph glyph-name="yacute" unicode="&#xfd;" horiz-adv-x="1162" 
d="M283 -437q-53 0 -117 16l20 155q-6 1 36 -2t52 -3q63 1 102 55t68 125l47 112l-357 918l-99 16v127h437v-127l-122 -20l187 -534l36 -138h6l225 672l-123 20v127h436v-127l-97 -15l-412 -1106q-41 -109 -118 -190t-207 -81zM635 1497h230l2 -6l-269 -260h-147z" />
    <glyph glyph-name="thorn" unicode="&#xfe;" horiz-adv-x="1273" 
d="M913 500v21q0 185 -72 303t-224 118t-232 -144v-523q78 -142 244 -142q140 0 212 102t72 265zM689 -21q-198 0 -304 134v-374l163 -28v-127h-523v127l163 28v1666l-163 28v127h360v-598q109 140 306 140q196 0 307.5 -159.5t111.5 -421.5v-21q0 -234 -111.5 -377.5
t-309.5 -143.5z" />
    <glyph glyph-name="ydieresis" unicode="&#xff;" horiz-adv-x="1162" 
d="M283 -437q-53 0 -117 16l20 155q-6 1 36 -2t52 -3q63 1 102 55t68 125l47 112l-357 918l-99 16v127h437v-127l-122 -20l187 -534l36 -138h6l225 672l-123 20v127h436v-127l-97 -15l-412 -1106q-41 -109 -118 -190t-207 -81zM433 1279h-218v200h218v-200zM903 1279h-218
v200h218v-200z" />
    <glyph glyph-name="Amacron" unicode="&#x100;" 
d="M522 578h462l-226 625h-6zM1448 0h-418v126l110 19l-96 268h-583l-99 -268l110 -19v-126h-417v126l108 15l509 1315h169l500 -1315l107 -15v-126zM1115 1649h-721v146h721v-146z" />
    <glyph glyph-name="amacron" unicode="&#x101;" horiz-adv-x="1128" 
d="M301 290q0 -146 177 -146q98 0 179 47t116 113v178h-210q-121 0 -191 -56t-71 -136zM558 1102q184 0 298 -94t114 -269v-521q0 -51 3 -81l80 -11v-126h-258q-17 85 -21 149q-56 -73 -142 -121t-183 -49q-169 1 -257 83t-88 234t124 236t342 83h203v126q0 95 -60 151
q-61 56 -151 55q-163 0 -238 -71l-21 -114h-152v210q163 130 407 130zM913 1325h-721v146h721v-146z" />
    <glyph glyph-name="Abreve" unicode="&#x102;" 
d="M522 578h462l-226 625h-6zM1448 0h-418v126l110 19l-96 268h-583l-99 -268l110 -19v-126h-417v126l108 15l509 1315h169l500 -1315l107 -15v-126zM748 1599q-138 0 -218 73q-81 73 -76 189l2 6h150q0 -65 34 -107t108 -41q73 -1 108 41t35 107h151l2 -6q4 -116 -77 -189
t-219 -73z" />
    <glyph glyph-name="abreve" unicode="&#x103;" horiz-adv-x="1128" 
d="M301 290q0 -146 177 -146q98 0 179 47t116 113v178h-210q-121 0 -191 -56t-71 -136zM558 1102q184 0 298 -94t114 -269v-521q0 -51 3 -81l80 -11v-126h-258q-17 85 -21 149q-56 -73 -142 -121t-183 -49q-169 1 -257 83t-88 234t124 236t342 83h203v126q0 95 -60 151
q-61 56 -151 55q-163 0 -238 -71l-21 -114h-152v210q163 130 407 130zM546 1275q-138 0 -218 73q-81 73 -76 189l2 6h150q0 -65 34 -107t108 -41q73 -1 108 41t35 107h151l2 -6q4 -116 -77 -189t-219 -73z" />
    <glyph glyph-name="Aogonek" unicode="&#x104;" 
d="M522 578h462l-226 625h-6zM1129 -223q0 128 142 223h-241v126l110 19l-96 268h-583l-99 -268l110 -19v-126h-417v126l108 15l509 1315h169l500 -1315l107 -15v-126q-70 -52 -110 -100t-39 -101q0 -90 96 -90q38 0 99 26l33 -123q-83 -44 -180 -44t-157 55t-61 154z" />
    <glyph glyph-name="aogonek" unicode="&#x105;" horiz-adv-x="1128" 
d="M301 290q0 -146 177 -146q98 0 179 47t116 113v178h-210q-121 0 -191 -56t-71 -136zM734 -223q0 128 142 223h-81q-17 85 -21 149q-56 -73 -142 -121t-183 -49q-169 1 -257 83t-88 234t124 236t342 83h203v126q0 95 -60 151q-61 56 -151 55q-163 0 -238 -71l-21 -114
h-152v210q163 130 407 130q184 0 298 -94t114 -269v-521q0 -51 3 -81l80 -11v-126q-69 -52 -109 -100t-40 -101q0 -90 96 -90q38 0 99 26l33 -123q-83 -44 -180 -44q-98 0 -158 55t-60 154z" />
    <glyph glyph-name="Cacute" unicode="&#x106;" horiz-adv-x="1321" 
d="M1200 1009h-139l-37 206q-109 107 -285 107q-227 0 -349 -164t-122 -418v-23q0 -253 120 -419t331 -165q99 0 180 31t125 76l37 206h139v-259q-63 -81 -189 -145t-292 -63q-284 0 -466 210t-182 528v21q0 320 179 530t469 209q166 -1 292 -65t189 -144v-259zM772 1844
h230l2 -6l-269 -260h-147z" />
    <glyph glyph-name="cacute" unicode="&#x107;" horiz-adv-x="1104" 
d="M575 133q99 1 173 61t74 148h177l2 -6q5 -140 -125 -248t-301 -109q-237 0 -361 154t-124 387v42q0 232 125 386t372 154t393 -161l9 -240h-157l-43 170q-78 76 -224 76q-145 1 -211 -111t-67 -274v-42q0 -166 66 -276t222 -111zM630 1498h230l2 -6l-269 -260h-147z" />
    <glyph glyph-name="Ccircumflex" unicode="&#x108;" horiz-adv-x="1321" 
d="M1200 1009h-139l-37 206q-109 107 -285 107q-227 0 -349 -164t-122 -418v-23q0 -253 120 -419t331 -165q99 0 180 31t125 76l37 206h139v-259q-63 -81 -189 -145t-292 -63q-284 0 -466 210t-182 528v21q0 320 179 530t469 209q166 -1 292 -65t189 -144v-259zM1022 1609
h-161l-147 148l-145 -148h-160v26l246 237h119l248 -238v-25z" />
    <glyph glyph-name="ccircumflex" unicode="&#x109;" horiz-adv-x="1104" 
d="M575 133q99 1 173 61t74 148h177l2 -6q5 -140 -125 -248t-301 -109q-237 0 -361 154t-124 387v42q0 232 125 386t372 154t393 -161l9 -240h-157l-43 170q-78 76 -224 76q-145 1 -211 -111t-67 -274v-42q0 -166 66 -276t222 -111zM880 1263h-161l-147 148l-145 -148h-160
v26l246 237h119l248 -238v-25z" />
    <glyph glyph-name="uni010A" unicode="&#x10a;" horiz-adv-x="1321" 
d="M1200 1009h-139l-37 206q-109 107 -285 107q-227 0 -349 -164t-122 -418v-23q0 -253 120 -419t331 -165q99 0 180 31t125 76l37 206h139v-259q-63 -81 -189 -145t-292 -63q-284 0 -466 210t-182 528v21q0 320 179 530t469 209q166 -1 292 -65t189 -144v-259zM814 1624
h-217v201h217v-201z" />
    <glyph glyph-name="uni010B" unicode="&#x10b;" horiz-adv-x="1104" 
d="M575 133q99 1 173 61t74 148h177l2 -6q5 -140 -125 -248t-301 -109q-237 0 -361 154t-124 387v42q0 232 125 386t372 154t393 -161l9 -240h-157l-43 170q-78 76 -224 76q-145 1 -211 -111t-67 -274v-42q0 -166 66 -276t222 -111zM672 1278h-217v201h217v-201z" />
    <glyph glyph-name="Ccaron" unicode="&#x10c;" horiz-adv-x="1321" 
d="M1200 1009h-139l-37 206q-109 107 -285 107q-227 0 -349 -164t-122 -418v-23q0 -253 120 -419t331 -165q99 0 180 31t125 76l37 206h139v-259q-63 -81 -189 -145t-292 -63q-284 0 -466 210t-182 528v21q0 320 179 530t469 209q166 -1 292 -65t189 -144v-259zM1029 1866
v-18l-257 -245h-119l-253 243v20h166l146 -148l147 148h170z" />
    <glyph glyph-name="ccaron" unicode="&#x10d;" horiz-adv-x="1104" 
d="M575 133q99 1 173 61t74 148h177l2 -6q5 -140 -125 -248t-301 -109q-237 0 -361 154t-124 387v42q0 232 125 386t372 154t393 -161l9 -240h-157l-43 170q-78 76 -224 76q-145 1 -211 -111t-67 -274v-42q0 -166 66 -276t222 -111zM887 1520v-18l-257 -245h-119l-253 243
v20h166l146 -148l147 148h170z" />
    <glyph glyph-name="Dcaron" unicode="&#x10e;" horiz-adv-x="1419" 
d="M431 1301v-1147h250q203 0 319 133t116 341v201q0 206 -116 339t-319 133h-250zM681 1456q285 0 459 -176t173 -453v-199q1 -280 -173 -454t-459 -174h-610v126l163 28v1147l-163 28v127h610zM957 1845v-18l-257 -245h-119l-253 243v20h166l146 -148l147 148h170z" />
    <glyph glyph-name="dcaron" unicode="&#x10f;" horiz-adv-x="1379" 
d="M287 521v-21q0 -163 67 -262t207 -99q165 0 247 153v502q-83 148 -234 148q-152 0 -220 -117t-67 -304zM90 500v21q0 261 112 421t305 160q194 0 301 -138v441l-163 28v127h360v-1406l163 -28v-126h-334l-16 129q-107 -150 -306 -150q-198 -1 -310 143t-112 378z
M1136 1441v119h188v-116q0 -102 -44 -207t-127 -174l-111 74q94 142 94 304z" />
    <glyph glyph-name="Dcroat" unicode="&#x110;" horiz-adv-x="1449" 
d="M707 663h-246v-509h250q202 0 318.5 133t116.5 341v201q0 206 -116.5 339t-318.5 133h-250v-483h246v-155zM711 1456q285 0 458.5 -175.5t173.5 -453.5v-199q0 -279 -173.5 -453.5t-458.5 -174.5h-610v126l163 28v509h-198v155h198v483l-163 28v127h610z" />
    <glyph glyph-name="dcroat" unicode="&#x111;" horiz-adv-x="1259" 
d="M287 521v-21q0 -163 67 -262t207 -99q165 0 247 153v502q-83 148 -234 148q-152 0 -219.5 -117t-67.5 -304zM90 500v21q0 261 111.5 421t305.5 160t301 -138v199h-251v155h251v87l-163 28v127h360v-242h193v-155h-193v-1009l163 -28v-126h-334l-16 129
q-107 -150 -306 -150t-310.5 143.5t-111.5 377.5z" />
    <glyph glyph-name="Emacron" unicode="&#x112;" horiz-adv-x="1306" 
d="M71 0v126l163 28v1147l-163 28v127h1118v-350h-169l-16 195h-573v-471h557v-155h-557v-521h585l16 195h168v-349h-1129zM1009 1650h-721v146h721v-146z" />
    <glyph glyph-name="emacron" unicode="&#x113;" horiz-adv-x="1101" 
d="M564 947q-110 1 -180 -83t-86 -210l2 -5h499v26q0 116 -62 194q-63 78 -173 78zM593 -21q-235 1 -369 151t-134 390v44q0 230 138 384t340 154q204 0 316 -132t112 -352v-123h-702l-3 -5q3 -156 79 -256t213 -101q188 0 306 107l77 -128q-137 -133 -373 -133zM913 1325
h-721v146h721v-146z" />
    <glyph glyph-name="Ebreve" unicode="&#x114;" horiz-adv-x="1306" 
d="M71 0v126l163 28v1147l-163 28v127h1118v-350h-169l-16 195h-573v-471h557v-155h-557v-521h585l16 195h168v-349h-1129zM642 1600q-138 0 -218 73q-81 73 -76 189l2 6h150q0 -64 34 -106t108 -42q73 0 108 42t35 106h151l2 -6q4 -116 -77 -189t-219 -73z" />
    <glyph glyph-name="ebreve" unicode="&#x115;" horiz-adv-x="1101" 
d="M564 947q-110 1 -180 -83t-86 -210l2 -5h499v26q0 116 -62 194q-63 78 -173 78zM593 -21q-235 1 -369 151t-134 390v44q0 230 138 384t340 154q204 0 316 -132t112 -352v-123h-702l-3 -5q3 -156 79 -256t213 -101q188 0 306 107l77 -128q-137 -133 -373 -133zM546 1275
q-138 0 -218 73q-81 73 -76 189l2 6h150q0 -65 34 -107t108 -41q73 -1 108 41t35 107h151l2 -6q4 -116 -77 -189t-219 -73z" />
    <glyph glyph-name="Edotaccent" unicode="&#x116;" horiz-adv-x="1306" 
d="M71 0v126l163 28v1147l-163 28v127h1118v-350h-169l-16 195h-573v-471h557v-155h-557v-521h585l16 195h168v-349h-1129zM751 1603h-217v201h217v-201z" />
    <glyph glyph-name="edotaccent" unicode="&#x117;" horiz-adv-x="1101" 
d="M564 947q-110 1 -180 -83t-86 -210l2 -5h499v26q0 116 -62 194q-63 78 -173 78zM593 -21q-235 1 -369 151t-134 390v44q0 230 138 384t340 154q204 0 316 -132t112 -352v-123h-702l-3 -5q3 -156 79 -256t213 -101q188 0 306 107l77 -128q-137 -133 -373 -133zM655 1278
h-217v201h217v-201z" />
    <glyph glyph-name="Eogonek" unicode="&#x118;" horiz-adv-x="1306" 
d="M399 -203q0 110 129 203h-457v126l163 28v1147l-163 28v127h1118v-350h-169l-16 195h-573v-471h557v-155h-557v-521h585l16 195h168v-349h-494q-62 -47 -99 -93q-38 -45 -38 -99q0 -90 96 -90q38 0 99 26l33 -123q-83 -44 -180 -44t-157 55t-61 165z" />
    <glyph glyph-name="eogonek" unicode="&#x119;" horiz-adv-x="1101" 
d="M564 947q-110 1 -180 -83t-86 -210l2 -5h499v26q0 116 -62 194q-63 78 -173 78zM752 -374q-98 0 -158 55t-60 142t54 156h-5q-225 1 -359 151t-134 390v44q0 230 138 384t340 154q204 0 316 -132t112 -352v-123h-702l-3 -5q3 -156 79 -256t213 -101q188 0 306 107
l77 -128q-67 -64 -171 -101q-30 -27 -61 -64q-30 -36 -30 -90q0 -90 96 -90q38 0 99 26l33 -123q-83 -44 -180 -44z" />
    <glyph glyph-name="Ecaron" unicode="&#x11a;" horiz-adv-x="1306" 
d="M71 0v126l163 28v1147l-163 28v127h1118v-350h-169l-16 195h-573v-471h557v-155h-557v-521h585l16 195h168v-349h-1129zM966 1845v-18l-257 -245h-119l-253 243v20h166l146 -148l147 148h170z" />
    <glyph glyph-name="ecaron" unicode="&#x11b;" horiz-adv-x="1101" 
d="M564 947q-110 1 -180 -83t-86 -210l2 -5h499v26q0 116 -62 194q-63 78 -173 78zM593 -21q-235 1 -369 151t-134 390v44q0 230 138 384t340 154q204 0 316 -132t112 -352v-123h-702l-3 -5q3 -156 79 -256t213 -101q188 0 306 107l77 -128q-137 -133 -373 -133zM870 1520
v-18l-257 -245h-119l-253 243v20h166l146 -148l147 148h170z" />
    <glyph glyph-name="Gcircumflex" unicode="&#x11c;" horiz-adv-x="1387" 
d="M705 133q206 0 328 80v319l-239 10v145h436v-522q-64 -67 -189 -127t-325 -59q-292 0 -476 205t-185 532v24q1 329 183 533t486 204t490 -184v-264h-138l-48 201q-113 92 -285 92q-235 0 -363 -162t-128 -418v-26q0 -261 124 -422t329 -161zM1026 1587h-161l-147 148
l-145 -148h-160v26l246 237h119l248 -238v-25z" />
    <glyph glyph-name="gcircumflex" unicode="&#x11d;" horiz-adv-x="1159" 
d="M579 942q-152 0 -222 -118t-70 -303v-21q0 -163 69 -262t210 -99q166 0 248 155v498q-83 150 -235 150zM90 500v21q0 261 114 421t315 160t308 -156l18 136h166v-1068q0 -210 -117 -330t-333 -121q-78 -1 -169 21t-160 59l51 153q127 -67 276 -67q255 0 255 285v103
q-108 -138 -302 -138t-308 144t-114 377zM897 1263h-161l-147 148l-145 -148h-160v26l246 237h119l248 -238v-25z" />
    <glyph glyph-name="Gbreve" unicode="&#x11e;" horiz-adv-x="1387" 
d="M705 133q206 0 328 80v319l-239 10v145h436v-522q-64 -67 -189 -127t-325 -59q-292 0 -476 205t-185 532v24q1 329 183 533t486 204t490 -184v-264h-138l-48 201q-113 92 -285 92q-235 0 -363 -162t-128 -418v-26q0 -261 124 -422t329 -161zM710 1599q-138 0 -219 73
t-76 189l2 6h150q1 -65 35 -107t107 -41q73 -1 108 41t35 107h151l2 -6q4 -116 -77 -189q-80 -73 -218 -73z" />
    <glyph glyph-name="gbreve" unicode="&#x11f;" horiz-adv-x="1159" 
d="M579 942q-152 0 -222 -118t-70 -303v-21q0 -163 69 -262t210 -99q166 0 248 155v498q-83 150 -235 150zM90 500v21q0 261 114 421t315 160t308 -156l18 136h166v-1068q0 -210 -117 -330t-333 -121q-78 -1 -169 21t-160 59l51 153q127 -67 276 -67q255 0 255 285v103
q-108 -138 -302 -138t-308 144t-114 377zM580 1275q-138 0 -218 73q-81 73 -76 189l2 6h150q0 -65 34 -107t108 -41q73 -1 108 41t35 107h151l2 -6q4 -116 -77 -189t-219 -73z" />
    <glyph glyph-name="uni0120" unicode="&#x120;" horiz-adv-x="1387" 
d="M705 133q206 0 328 80v319l-239 10v145h436v-522q-64 -67 -189 -127t-325 -59q-292 0 -476 205t-185 532v24q1 329 183 533t486 204t490 -184v-264h-138l-48 201q-113 92 -285 92q-235 0 -363 -162t-128 -418v-26q0 -261 124 -422t329 -161zM818 1602h-217v201h217v-201z
" />
    <glyph glyph-name="uni0121" unicode="&#x121;" horiz-adv-x="1159" 
d="M579 942q-152 0 -222 -118t-70 -303v-21q0 -163 69 -262t210 -99q166 0 248 155v498q-83 150 -235 150zM90 500v21q0 261 114 421t315 160t308 -156l18 136h166v-1068q0 -210 -117 -330t-333 -121q-78 -1 -169 21t-160 59l51 153q127 -67 276 -67q255 0 255 285v103
q-108 -138 -302 -138t-308 144t-114 377zM689 1278h-217v201h217v-201z" />
    <glyph glyph-name="Gcommaaccent" unicode="&#x122;" horiz-adv-x="1387" 
d="M705 133q206 0 328 80v319l-239 10v145h436v-522q-64 -67 -189 -127t-325 -59q-292 0 -476 205t-185 532v24q1 329 183 533t486 204t490 -184v-264h-138l-48 201q-113 92 -285 92q-235 0 -363 -162t-128 -418v-26q0 -261 124 -422t329 -161zM580 -237v119h188v-116
q0 -102 -44 -207t-127 -174l-111 74q94 142 94 304z" />
    <glyph glyph-name="gcommaaccent" unicode="&#x123;" horiz-adv-x="1159" 
d="M579 942q-152 0 -222 -118t-70 -303v-21q0 -163 69 -262t210 -99q166 0 248 155v498q-83 150 -235 150zM90 500v21q0 261 114 421t315 160t308 -156l18 136h166v-1068q0 -210 -117 -330t-333 -121q-78 -1 -169 21t-160 59l51 153q127 -67 276 -67q255 0 255 285v103
q-108 -138 -302 -138t-308 144t-114 377zM681 1250h-197v148l121 247h97l-21 -257v-138z" />
    <glyph glyph-name="Hcircumflex" unicode="&#x124;" horiz-adv-x="1573" 
d="M71 1456h523v-127l-163 -28v-503h706v503l-163 28v127h523v-127l-163 -28v-1147l163 -28v-126h-523v126l163 28v489h-706v-489l163 -28v-126h-523v126l163 28v1147l-163 28v127zM1084 1586h-161l-147 148l-145 -148h-160v26l246 237h119l248 -238v-25z" />
    <glyph glyph-name="hcircumflex" unicode="&#x125;" horiz-adv-x="1322" 
d="M908 680q0 262 -229 262q-81 0 -147 -38t-110 -105v-645l163 -28v-126h-523v126l163 28v1251l-163 28v127h360v-622q118 164 304 164q379 0 379 -424v-524l163 -28v-126h-523v126l163 28v526zM864 1587h-161l-147 148l-145 -148h-160v26l246 237h119l248 -238v-25z" />
    <glyph glyph-name="Hbar" unicode="&#x126;" horiz-adv-x="1527" 
d="M406 798h706v157h-706v-157zM1472 1456v-127l-163 -28v-201h131v-145h-131v-801l163 -28v-126h-523v126l163 28v489h-706v-489l163 -28v-126h-523v126l163 28v801h-161v145h161v201l-163 28v127h523v-127l-163 -28v-201h706v201l-163 28v127h523z" />
    <glyph glyph-name="hbar" unicode="&#x127;" horiz-adv-x="1352" 
d="M938 680q0 262 -229 262q-81 0 -147.5 -38.5t-109.5 -104.5v-645l163 -28v-126h-523v126l163 28v1000h-204v155h204v96l-163 28v127h360v-251h240v-155h-240v-216q118 164 304 164q379 0 379 -424v-524l163 -28v-126h-523v126l163 28v526z" />
    <glyph glyph-name="Itilde" unicode="&#x128;" horiz-adv-x="662" 
d="M70 1456h523v-127l-163 -28v-1147l163 -28v-126h-523v126l163 28v1147l-163 28v127zM476 1618q-80 0 -157 46t-123 47q-46 -1 -76 -33t-30 -78l-107 26q1 94 59 162t149 68q56 0 140 -47q85 -47 131 -47t76 32t30 80l108 -32q0 -94 -60 -159t-140 -65z" />
    <glyph glyph-name="itilde" unicode="&#x129;" horiz-adv-x="672" 
d="M90 1082h360v-928l163 -28v-126h-523v126l163 28v773l-163 28v127zM484 1294q-80 0 -157 46t-123 47q-46 -1 -76 -33t-30 -78l-107 26q1 94 59 162t149 68q56 0 140 -47q85 -47 131 -47t76 32t30 80l108 -32q0 -94 -60 -159t-140 -65z" />
    <glyph glyph-name="Imacron" unicode="&#x12a;" horiz-adv-x="662" 
d="M70 1456h523v-127l-163 -28v-1147l163 -28v-126h-523v126l163 28v1147l-163 28v127zM696 1648h-721v146h721v-146z" />
    <glyph glyph-name="imacron" unicode="&#x12b;" horiz-adv-x="672" 
d="M90 1082h360v-928l163 -28v-126h-523v126l163 28v773l-163 28v127zM704 1324h-721v146h721v-146z" />
    <glyph glyph-name="Ibreve" unicode="&#x12c;" horiz-adv-x="662" 
d="M70 1456h523v-127l-163 -28v-1147l163 -28v-126h-523v126l163 28v1147l-163 28v127zM330 1598q-138 0 -219 73t-76 189l2 6h150q1 -64 35 -106t107 -42t108 42t35 106h151l2 -6q4 -116 -77 -189q-80 -73 -218 -73z" />
    <glyph glyph-name="ibreve" unicode="&#x12d;" horiz-adv-x="672" 
d="M90 1082h360v-928l163 -28v-126h-523v126l163 28v773l-163 28v127zM338 1274q-138 0 -219 73t-76 189l2 6h150q1 -64 35 -106t107 -42t108 42t35 106h151l2 -6q4 -116 -77 -189q-80 -73 -218 -73z" />
    <glyph glyph-name="Iogonek" unicode="&#x12e;" horiz-adv-x="662" 
d="M274 -223q0 128 142 223h-346v126l163 28v1147l-163 28v127h523v-127l-163 -28v-1147l163 -28v-126q-69 -52 -109 -100t-40 -101q0 -90 96 -90q38 0 99 26l33 -123q-83 -44 -180 -44q-98 0 -158 55t-60 154z" />
    <glyph glyph-name="iogonek" unicode="&#x12f;" horiz-adv-x="673" 
d="M449 1359h-197v201h197v-201zM293 -223q0 128 142 223h-346v126l163 28v773l-163 28v127h360v-928l163 -28v-126q-70 -52 -110 -100t-39 -101q0 -90 96 -90q38 0 99 26l33 -123q-83 -44 -180 -44t-157 55t-61 154z" />
    <glyph glyph-name="Idotaccent" unicode="&#x130;" horiz-adv-x="662" 
d="M70 1456h523v-127l-163 -28v-1147l163 -28v-126h-523v126l163 28v1147l-163 28v127zM437 1601h-217v201h217v-201z" />
    <glyph glyph-name="dotlessi" unicode="&#x131;" horiz-adv-x="672" 
d="M90 1082h360v-928l163 -28v-126h-523v126l163 28v773l-163 28v127z" />
    <glyph glyph-name="IJ" unicode="&#x132;" horiz-adv-x="1845" 
d="M70 1456h523v-127l-163 -28v-1147l163 -28v-126h-523v126l163 28v1147l-163 28v127zM1786 1456v-127l-163 -28v-898q1 -195 -123 -309t-328 -115q-204 1 -327 107q-124 106 -119 309l2 6h189q1 -135 69 -201t185 -67t186 73t69 197v898l-163 28v127h523z" />
    <glyph glyph-name="ij" unicode="&#x133;" horiz-adv-x="1244" 
d="M449 1359h-197v201h197v-201zM89 1082h360v-928l163 -28v-126h-523v126l163 28v773l-163 28v127zM1091 1363h-197v197h197v-197zM765 -276q59 0 97 44t38 143v1016l-163 28v127h360v-1171q0 -167 -86 -257t-239 -91q-56 0 -112 18l13 155q34 -12 92 -12z" />
    <glyph glyph-name="Jcircumflex" unicode="&#x134;" horiz-adv-x="1183" 
d="M1124 1456v-127l-163 -28v-898q1 -195 -123 -309t-328 -115q-204 1 -327 107q-124 106 -119 309l2 6h189q1 -135 69 -201t185 -67t186 73t69 197v898l-163 28v127h523zM1164 1576h-161l-147 148l-145 -148h-160v26l246 237h119l248 -238v-25z" />
    <glyph glyph-name="jcircumflex" unicode="&#x135;" horiz-adv-x="579" 
d="M106 -282q62 0 96 52t34 141v1016l-163 28v127h360v-1171q0 -167 -86 -257t-239 -91q-56 0 -112 18l13 150q36 -13 97 -13zM637 1261h-161l-147 148l-145 -148h-160v26l246 237h119l248 -238v-25z" />
    <glyph glyph-name="Kcommaaccent" unicode="&#x136;" horiz-adv-x="1452" 
d="M71 1456h523v-127l-163 -28v-489h151l407 503l-109 14v127h462v-127l-137 -25l-445 -552l486 -601l137 -25v-126h-478v126l111 14l-415 517h-170v-503l163 -28v-126h-523v126l163 28v1147l-163 28v127zM570 -221v119h188v-116q0 -102 -44 -207t-127 -174l-111 74
q94 142 94 304z" />
    <glyph glyph-name="kcommaaccent" unicode="&#x137;" horiz-adv-x="1245" 
d="M62 1560h360v-904h126l231 286l-99 13v127h453v-127l-132 -26l-285 -340l347 -439l123 -24v-126h-449v126l101 13l-287 360h-129v-345l163 -28v-126h-523v126l163 28v1251l-163 28v127zM496 -218v119h188v-116q0 -102 -44 -207t-127 -174l-111 74q94 142 94 304z" />
    <glyph glyph-name="kgreenlandic" unicode="&#x138;" horiz-adv-x="1257" 
d="M71 1081h351v-425h126l252 287l-90 12v127h452v-127l-132 -26l-311 -343l344 -436l123 -24v-126h-237l-398 499h-129v-345l163 -28v-126h-523v126l163 28v773l-154 28v126z" />
    <glyph glyph-name="Lacute" unicode="&#x139;" horiz-adv-x="1199" 
d="M71 0v126l163 28v1147l-163 28v127h523v-127l-163 -28v-1147h506l15 167h168v-321h-1049zM394 1817h230l2 -6l-269 -260h-147z" />
    <glyph glyph-name="lacute" unicode="&#x13a;" horiz-adv-x="645" 
d="M62 1560h360v-1406l163 -28v-126h-523v126l163 28v1251l-163 28v127zM370 1884h230l2 -6l-269 -260h-147z" />
    <glyph glyph-name="Lcommaaccent" unicode="&#x13b;" horiz-adv-x="1199" 
d="M71 0v126l163 28v1147l-163 28v127h523v-127l-163 -28v-1147h506l15 167h168v-321h-1049zM563 -218v119h188v-116q-1 -102 -45 -207t-126 -174l-111 74q94 142 94 304z" />
    <glyph glyph-name="lcommaaccent" unicode="&#x13c;" horiz-adv-x="645" 
d="M62 1560h360v-1406l163 -28v-126h-523v126l163 28v1251l-163 28v127zM229 -228v119h188v-116q-1 -102 -45 -207t-126 -174l-111 74q94 142 94 304z" />
    <glyph glyph-name="Lcaron" unicode="&#x13d;" horiz-adv-x="1199" 
d="M71 0v126l163 28v1147l-163 28v127h523v-127l-163 -28v-1147h506l15 167h168v-321h-1049zM665 1338v119h188v-116q-1 -102 -45 -207t-126 -174l-111 74q94 142 94 304z" />
    <glyph glyph-name="lcaron" unicode="&#x13e;" horiz-adv-x="795" 
d="M62 1560h360v-1406l163 -28v-126h-523v126l163 28v1251l-163 28v127zM547 1441v119h188v-116q-1 -102 -45 -207t-126 -174l-111 74q94 142 94 304z" />
    <glyph glyph-name="Ldot" unicode="&#x13f;" horiz-adv-x="1199" 
d="M71 0v126l163 28v1147l-163 28v127h523v-127l-163 -28v-1147h506l15 167h168v-321h-1049zM845 687h-217v201h217v-201z" />
    <glyph glyph-name="ldot" unicode="&#x140;" horiz-adv-x="865" 
d="M62 1560h360v-1406l163 -28v-126h-523v126l163 28v1251l-163 28v127zM728 670h-217v201h217v-201z" />
    <glyph glyph-name="Lslash" unicode="&#x141;" horiz-adv-x="1199" 
d="M431 154h506l15 167h168v-321h-1049v126l163 28v471l-154 -49v165l154 49v511l-163 28v127h523v-127l-163 -28v-449l238 76v-165l-238 -76v-533z" />
    <glyph glyph-name="lslash" unicode="&#x142;" horiz-adv-x="645" 
d="M585 0h-523v126l163 28v479l-144 -55v165l144 55v607l-163 28v127h360v-687l149 57v-165l-149 -57v-554l163 -28v-126z" />
    <glyph glyph-name="Nacute" unicode="&#x143;" horiz-adv-x="1560" 
d="M1497 1456v-127l-163 -28v-1301h-197l-700 1124l-6 -2v-968l163 -28v-126h-523v126l163 28v1147l-163 28v127h360l700 -1123l6 2v966l-163 28v127h523zM809 1823h230l2 -6l-269 -260h-147z" />
    <glyph glyph-name="nacute" unicode="&#x144;" horiz-adv-x="1318" 
d="M1101 683v-529l163 -28v-126h-523v126l163 28v525q0 143 -56 203t-158 60q-186 0 -270 -153v-635l163 -28v-126h-523v126l163 28v773l-163 28v127h339l14 -161q114 181 321 181q175 0 271 -102t96 -317zM727 1498h230l2 -6l-269 -260h-147z" />
    <glyph glyph-name="Ncommaaccent" unicode="&#x145;" horiz-adv-x="1560" 
d="M1497 1456v-127l-163 -28v-1301h-197l-700 1124l-6 -2v-968l163 -28v-126h-523v126l163 28v1147l-163 28v127h360l700 -1123l6 2v966l-163 28v127h523zM663 -218v119h188v-116q-1 -102 -45 -207t-126 -174l-111 74q94 142 94 304z" />
    <glyph glyph-name="ncommaaccent" unicode="&#x146;" horiz-adv-x="1318" 
d="M1101 683v-529l163 -28v-126h-523v126l163 28v525q0 143 -56 203t-158 60q-186 0 -270 -153v-635l163 -28v-126h-523v126l163 28v773l-163 28v127h339l14 -161q114 181 321 181q175 0 271 -102t96 -317zM557 -223v119h188v-116q-1 -102 -45 -207t-126 -174l-111 74
q94 142 94 304z" />
    <glyph glyph-name="Ncaron" unicode="&#x147;" horiz-adv-x="1560" 
d="M1497 1456v-127l-163 -28v-1301h-197l-700 1124l-6 -2v-968l163 -28v-126h-523v126l163 28v1147l-163 28v127h360l700 -1123l6 2v966l-163 28v127h523zM1066 1845v-18l-257 -245h-119l-253 243v20h166l146 -148l147 148h170z" />
    <glyph glyph-name="ncaron" unicode="&#x148;" horiz-adv-x="1318" 
d="M1101 683v-529l163 -28v-126h-523v126l163 28v525q0 143 -56 203t-158 60q-186 0 -270 -153v-635l163 -28v-126h-523v126l163 28v773l-163 28v127h339l14 -161q114 181 321 181q175 0 271 -102t96 -317zM984 1520v-18l-257 -245h-119l-253 243v20h166l146 -148l147 148
h170z" />
    <glyph glyph-name="napostrophe" unicode="&#x149;" horiz-adv-x="1318" 
d="M1101 683v-529l163 -28v-126h-523v126l163 28v525q0 143 -56 203t-158 60q-186 0 -270 -153v-635l163 -28v-126h-523v126l163 28v773l-163 28v127h339l14 -161q114 181 321 181q175 0 271 -102t96 -317zM11 1441v119h188v-116q-1 -102 -45 -207t-126 -174l-111 74
q94 142 94 304z" />
    <glyph glyph-name="Eng" unicode="&#x14a;" horiz-adv-x="1559" 
d="M1005 -282q63 0 97 51.5t34 141.5v89l-700 1112l-6 -2v-956l163 -28v-126h-523v126l163 28v1147l-163 28v127h360l700 -1112l6 2v955l-163 28v127h523v-127l-163 -28v-1390q0 -167 -86 -257.5t-240 -90.5q-54 0 -112 18l14 150q33 -13 96 -13z" />
    <glyph glyph-name="eng" unicode="&#x14b;" horiz-adv-x="1263" 
d="M695 942q-165 0 -245 -124v-664l163 -28v-126h-523v126l163 28v773l-163 28v127h339l13 -149q114 169 301 169q380 0 380 -419v-772q0 -167 -86.5 -257.5t-239.5 -90.5q-57 0 -113 18l14 160q31 -12 96 -12q64 0 98 47t34 135v768q0 143 -57 203t-174 60z" />
    <glyph glyph-name="Omacron" unicode="&#x14c;" horiz-adv-x="1445" 
d="M1171 740q1 254 -121 414t-332 161q-210 0 -326 -161t-116 -414v-23q0 -257 116 -417t327 -160q212 0 332 160t120 417v23zM1368 717q0 -318 -182 -528t-469 -210q-286 0 -462 210t-176 528v21q0 317 176 528t462 211q287 0 469 -211t182 -528v-21zM1077 1649h-721v146
h721v-146z" />
    <glyph glyph-name="omacron" unicode="&#x14d;" horiz-adv-x="1149" 
d="M287 529q1 -172 73 -284t214 -112t214 112q73 112 73 284v22q0 170 -73 283t-215 113t-214 -113t-72 -283v-22zM90 551q0 239 130 395t354 156t354 -155t130 -396v-22q0 -242 -130 -396t-354 -154q-224 1 -354 155t-130 395v22zM931 1325h-721v146h721v-146z" />
    <glyph glyph-name="Obreve" unicode="&#x14e;" horiz-adv-x="1445" 
d="M1171 740q1 254 -121 414t-332 161q-210 0 -326 -161t-116 -414v-23q0 -257 116 -417t327 -160q212 0 332 160t120 417v23zM1368 717q0 -318 -182 -528t-469 -210q-286 0 -462 210t-176 528v21q0 317 176 528t462 211q287 0 469 -211t182 -528v-21zM710 1599
q-138 0 -218 73q-81 73 -76 189l2 6h150q0 -65 34 -107t108 -41q73 -1 108 41t35 107h151l2 -6q4 -116 -77 -189t-219 -73z" />
    <glyph glyph-name="obreve" unicode="&#x14f;" horiz-adv-x="1149" 
d="M287 529q1 -172 73 -284t214 -112t214 112q73 112 73 284v22q0 170 -73 283t-215 113t-214 -113t-72 -283v-22zM90 551q0 239 130 395t354 156t354 -155t130 -396v-22q0 -242 -130 -396t-354 -154q-224 1 -354 155t-130 395v22zM564 1275q-138 0 -218 73q-81 73 -76 189
l2 6h150q0 -65 34 -107t108 -41q73 -1 108 41t35 107h151l2 -6q4 -116 -77 -189t-219 -73z" />
    <glyph glyph-name="Ohungarumlaut" unicode="&#x150;" horiz-adv-x="1445" 
d="M1171 740q1 254 -121 414t-332 161q-210 0 -326 -161t-116 -414v-23q0 -257 116 -417t327 -160q212 0 332 160t120 417v23zM1368 717q0 -318 -182 -528t-469 -210q-286 0 -462 210t-176 528v21q0 317 176 528t462 211q287 0 469 -211t182 -528v-21zM671 1866h211l2 -5
l-240 -261h-157zM997 1866h228l3 -6l-299 -260h-171l-2 5z" />
    <glyph glyph-name="ohungarumlaut" unicode="&#x151;" horiz-adv-x="1149" 
d="M287 529q1 -172 73 -284t214 -112t214 112q73 112 73 284v22q0 170 -73 283t-215 113t-214 -113t-72 -283v-22zM90 551q0 239 130 395t354 156t354 -155t130 -396v-22q0 -242 -130 -396t-354 -154q-224 1 -354 155t-130 395v22zM525 1542h211l2 -5l-240 -261h-157z
M851 1542h228l3 -6l-299 -260h-171l-2 5z" />
    <glyph glyph-name="OE" unicode="&#x152;" horiz-adv-x="1969" 
d="M674 134q115 0 214 15l30 5v1147l-53 9q-120 12 -193 12q-169 0 -265 -113.5t-96 -326.5v-306q0 -214 97 -328t266 -114zM674 -21q-249 0 -404.5 166t-155.5 431v304q0 265 154.5 431t403.5 166q107 0 291 -21h910v-350h-169l-16 195h-573v-471h557v-155h-557v-521h585
l16 195h168v-349h-921q-191 -21 -289 -21z" />
    <glyph glyph-name="oe" unicode="&#x153;" horiz-adv-x="1898" 
d="M1360 947q-110 0 -180 -83.5t-86 -209.5l2 -5h499v26q0 116 -62.5 194t-172.5 78zM301 529q0 -172 72 -284t214 -112t215 112t73 284v22q0 170 -73.5 283t-215.5 113t-213.5 -113t-71.5 -283v-22zM104 529v22q0 240 129.5 395.5t352.5 155.5q260 0 395 -209
q64 98 161.5 153.5t206.5 55.5q218 0 330.5 -132t112.5 -352v-123h-702l-3 -5q3 -156 78.5 -256.5t213.5 -100.5q188 0 306 107l77 -128q-138 -133 -393 -133q-256 0 -390 203q-134 -203 -391 -203q-224 0 -354 154.5t-130 395.5z" />
    <glyph glyph-name="Racute" unicode="&#x154;" horiz-adv-x="1386" 
d="M690 805q315 0 315 247q0 115 -72 182t-223 67h-279v-496h259zM1198 389v-117q0 -67 17 -99t56 -38l48 -6v-129h-106q-115 0 -163 80t-49 194v113q0 119 -69 191t-185 72h-316v-496l163 -28v-126h-523v126l163 28v1147l-163 28v126h639q238 1 365 -105t127 -300
q0 -106 -59 -188t-169 -129q224 -73 224 -344zM701 1823h230l2 -6l-269 -260h-147z" />
    <glyph glyph-name="racute" unicode="&#x155;" horiz-adv-x="847" 
d="M612 0h-523v126l163 28v773l-163 28v127h339l19 -157q98 177 268 177q49 0 85 -11l-26 -183l-112 6q-152 0 -213 -139v-621l163 -28v-126zM520 1501h230l2 -6l-269 -260h-147z" />
    <glyph glyph-name="Rcommaaccent" unicode="&#x156;" horiz-adv-x="1386" 
d="M690 805q315 0 315 247q0 115 -72 182t-223 67h-279v-496h259zM1198 389v-117q0 -67 17 -99t56 -38l48 -6v-129h-106q-115 0 -163 80t-49 194v113q0 119 -69 191t-185 72h-316v-496l163 -28v-126h-523v126l163 28v1147l-163 28v126h639q238 1 365 -105t127 -300
q0 -106 -59 -188t-169 -129q224 -73 224 -344zM652 -218v119h188v-116q0 -102 -44 -207t-127 -174l-111 74q94 142 94 304z" />
    <glyph glyph-name="rcommaaccent" unicode="&#x157;" horiz-adv-x="847" 
d="M612 0h-523v126l163 28v773l-163 28v127h339l19 -157q98 177 268 177q49 0 85 -11l-26 -183l-112 6q-152 0 -213 -139v-621l163 -28v-126zM218 -218v119h188v-116q0 -102 -44 -207t-127 -174l-111 74q94 142 94 304z" />
    <glyph glyph-name="Rcaron" unicode="&#x158;" horiz-adv-x="1386" 
d="M690 805q315 0 315 247q0 115 -72 182t-223 67h-279v-496h259zM1198 389v-117q0 -67 17 -99t56 -38l48 -6v-129h-106q-115 0 -163 80t-49 194v113q0 119 -69 191t-185 72h-316v-496l163 -28v-126h-523v126l163 28v1147l-163 28v126h639q238 1 365 -105t127 -300
q0 -106 -59 -188t-169 -129q224 -73 224 -344zM958 1845v-18l-257 -245h-119l-253 243v20h166l146 -148l147 148h170z" />
    <glyph glyph-name="rcaron" unicode="&#x159;" horiz-adv-x="847" 
d="M612 0h-523v126l163 28v773l-163 28v127h339l19 -157q98 177 268 177q49 0 85 -11l-26 -183l-112 6q-152 0 -213 -139v-621l163 -28v-126zM777 1523v-18l-257 -245h-119l-253 243v20h166l146 -148l147 148h170z" />
    <glyph glyph-name="Sacute" unicode="&#x15a;" horiz-adv-x="1247" 
d="M1125 1026h-149l-37 208q-104 88 -278 88q-173 0 -257 -66t-84 -168q0 -100 86 -164t296 -116t330 -164q120 -111 119 -281q1 -170 -143 -277t-376 -107q-168 0 -298 55t-213 144v271h148l38 -209q130 -107 325 -107q150 0 236 63t86 167q0 103 -75 171t-285 118
t-341 158q-130 108 -130 274t145 280t377 113q153 -1 279 -53t201 -127v-271zM683 1822h230l2 -6l-269 -260h-147z" />
    <glyph glyph-name="sacute" unicode="&#x15b;" horiz-adv-x="1044" 
d="M316 790q0 -64 45 -101t217 -73t271 -112q100 -76 100 -212q-1 -136 -117 -224q-116 -89 -329 -89t-371 111l-1 247h148l37 -145q65 -59 191 -59q125 1 185 43t60 109t-50 109t-216 79q-168 37 -268 111t-100 203t112 222t293 93q246 0 384 -121l10 -239h-148l-32 130
q-79 75 -232 75q-87 0 -138 -46q-51 -47 -51 -111zM593 1501h230l2 -6l-269 -260h-147z" />
    <glyph glyph-name="Scircumflex" unicode="&#x15c;" horiz-adv-x="1247" 
d="M1125 1026h-149l-37 208q-104 88 -278 88q-173 0 -257 -66t-84 -168q0 -100 86 -164t296 -116t330 -164q120 -111 119 -281q1 -170 -143 -277t-376 -107q-168 0 -298 55t-213 144v271h148l38 -209q130 -107 325 -107q150 0 236 63t86 167q0 103 -75 171t-285 118
t-341 158q-130 108 -130 274t145 280t377 113q153 -1 279 -53t201 -127v-271zM933 1587h-161l-147 148l-145 -148h-160v26l246 237h119l248 -238v-25z" />
    <glyph glyph-name="scircumflex" unicode="&#x15d;" horiz-adv-x="1044" 
d="M316 790q0 -64 45 -101t217 -73t271 -112q100 -76 100 -212q-1 -136 -117 -224q-116 -89 -329 -89t-371 111l-1 247h148l37 -145q65 -59 191 -59q125 1 185 43t60 109t-50 109t-216 79q-168 37 -268 111t-100 203t112 222t293 93q246 0 384 -121l10 -239h-148l-32 130
q-79 75 -232 75q-87 0 -138 -46q-51 -47 -51 -111zM843 1266h-161l-147 148l-145 -148h-160v26l246 237h119l248 -238v-25z" />
    <glyph glyph-name="Scedilla" unicode="&#x15e;" horiz-adv-x="1247" 
d="M656 -61q151 -26 151 -181q0 -88 -79 -145t-226 -57l-7 109q71 1 115 25t44 72t-36 68q-36 19 -123 26l31 129q-104 12 -214 58q-109 46 -191 135v271h148l38 -209q130 -107 325 -107q150 0 236 63t86 167q0 103 -75 171t-285 118t-341 158q-130 108 -130 274t145 280
t377 113q153 -1 279 -53t201 -127v-271h-149l-37 208q-104 88 -278 88q-173 0 -257 -66t-84 -168q0 -100 86 -164t296 -116t330 -164q120 -111 119 -281q0 -170 -138 -273t-348 -110z" />
    <glyph glyph-name="scedilla" unicode="&#x15f;" horiz-adv-x="1044" 
d="M583 -60q151 -26 151 -181q0 -88 -79 -145t-226 -57l-7 109q72 0 116 24t43 74q0 48 -36 67t-123 26l30 125q-187 15 -320 108l-1 247h148l37 -145q65 -59 191 -59q125 1 185 43t60 109t-50 109t-216 79q-168 37 -268 111t-100 203t112 222t293 93q246 0 384 -121
l10 -239h-148l-32 130q-79 75 -232 75q-87 0 -138 -46q-51 -47 -51 -111t45 -101t217 -73t271 -112q100 -76 100 -212q-1 -136 -117 -224q-96 -73 -239 -86z" />
    <glyph glyph-name="Scaron" unicode="&#x160;" horiz-adv-x="1247" 
d="M1125 1026h-149l-37 208q-104 88 -278 88q-173 0 -257 -66t-84 -168q0 -100 86 -164t296 -116t330 -164q120 -111 119 -281q1 -170 -143 -277t-376 -107q-168 0 -298 55t-213 144v271h148l38 -209q130 -107 325 -107q150 0 236 63t86 167q0 103 -75 171t-285 118
t-341 158q-130 108 -130 274t145 280t377 113q153 -1 279 -53t201 -127v-271zM940 1844v-18l-257 -245h-119l-253 243v20h166l146 -148l147 148h170z" />
    <glyph glyph-name="scaron" unicode="&#x161;" horiz-adv-x="1044" 
d="M316 790q0 -64 45 -101t217 -73t271 -112q100 -76 100 -212q-1 -136 -117 -224q-116 -89 -329 -89t-371 111l-1 247h148l37 -145q65 -59 191 -59q125 1 185 43t60 109t-50 109t-216 79q-168 37 -268 111t-100 203t112 222t293 93q246 0 384 -121l10 -239h-148l-32 130
q-79 75 -232 75q-87 0 -138 -46q-51 -47 -51 -111zM850 1523v-18l-257 -245h-119l-253 243v20h166l146 -148l147 148h170z" />
    <glyph glyph-name="uni0162" unicode="&#x162;" horiz-adv-x="1284" 
d="M688 -52q151 -26 151 -181q0 -88 -79 -145t-226 -57l-7 109q71 0 115 24t44 74q0 48 -36 67t-123 26l32 135h-178v126l163 28v1147h-324l-14 -167h-169v322h1210v-322h-168l-15 167h-323v-1147l163 -28v-126h-204z" />
    <glyph glyph-name="uni0163" unicode="&#x163;" horiz-adv-x="750" 
d="M509 -52q151 -26 151 -181q0 -88 -79 -145t-226 -57l-7 109q72 0 116 24t43 74q0 48 -36 67t-123 26l32 135h3q-147 61 -147 279v657h-171v146h171v261h197v-261h205v-146h-205v-657q0 -138 115 -138q51 0 113 14l27 -135q-57 -37 -172 -41z" />
    <glyph glyph-name="Tcaron" unicode="&#x164;" horiz-adv-x="1284" 
d="M1247 1456v-322h-168l-15 167h-323v-1147l163 -28v-126h-523v126l163 28v1147h-324l-14 -167h-169v322h1210zM956 1842v-18l-257 -245h-119l-253 243v20h166l146 -148l147 148h170z" />
    <glyph glyph-name="tcaron" unicode="&#x165;" horiz-adv-x="790" 
d="M236 279v657h-171v146h171v261h197v-261h205v-146h-205v-657q0 -138 115 -138q51 0 113 14l27 -135q-64 -41 -187 -41q-123 1 -194 73t-71 227zM646 1489v119h188v-116q0 -102 -44 -207t-127 -174l-111 74q94 142 94 304z" />
    <glyph glyph-name="Tbar" unicode="&#x166;" horiz-adv-x="1284" 
d="M1247 1456v-322h-168l-15 167h-323v-402h230v-155h-230v-590l163 -28v-126h-523v126l163 28v590h-214v155h214v402h-324l-14 -167h-169v322h1210z" />
    <glyph glyph-name="tbar" unicode="&#x167;" horiz-adv-x="750" 
d="M236 279v321h-238v155h238v181h-171v146h171v261h197v-261h205v-146h-205v-181h206v-155h-206v-321q0 -138 115 -138q51 0 113 14l27 -135q-64 -41 -187 -41t-194 72.5t-71 227.5z" />
    <glyph glyph-name="Utilde" unicode="&#x168;" horiz-adv-x="1541" 
d="M583 1456v-127l-163 -28v-832q0 -165 94 -251t252 -85q158 0 257 85t99 251v832l-163 28v127h523v-127l-163 -28v-832q-1 -237 -155 -363t-398 -127q-244 1 -394 127q-149 126 -149 363v832l-163 28v127h523zM890 1619q-80 1 -157 47t-123 46t-76 -32t-30 -79l-107 26
q1 93 59 161t149 69q56 0 140 -47q85 -47 131 -47q46 1 76 33t30 79l108 -32q0 -94 -60 -159t-140 -65z" />
    <glyph glyph-name="utilde" unicode="&#x169;" horiz-adv-x="1244" 
d="M172 444v483l-124 28v127h321v-640q0 -173 51 -238t159 -65q204 0 277 163v625l-145 28v127h342v-928l124 -28v-126h-301l-13 160q-106 -181 -317 -181q-176 0 -275 113t-99 352zM724 1294q-80 0 -158 46t-124 47q-46 -1 -76 -33t-29 -78l-107 26q0 94 58 162t150 68
q56 0 140 -47t130 -47t77 32q30 32 30 80l108 -32q1 -94 -59 -159t-140 -65z" />
    <glyph glyph-name="Umacron" unicode="&#x16a;" horiz-adv-x="1541" 
d="M583 1456v-127l-163 -28v-832q0 -165 94 -251t252 -85q158 0 257 85t99 251v832l-163 28v127h523v-127l-163 -28v-832q-1 -237 -155 -363t-398 -127q-244 1 -394 127q-149 126 -149 363v832l-163 28v127h523zM1110 1649h-721v146h721v-146z" />
    <glyph glyph-name="umacron" unicode="&#x16b;" horiz-adv-x="1244" 
d="M172 444v483l-124 28v127h321v-640q0 -173 51 -238t159 -65q204 0 277 163v625l-145 28v127h342v-928l124 -28v-126h-301l-13 160q-106 -181 -317 -181q-176 0 -275 113t-99 352zM943 1324h-721v146h721v-146z" />
    <glyph glyph-name="Ubreve" unicode="&#x16c;" horiz-adv-x="1541" 
d="M583 1456v-127l-163 -28v-832q0 -165 94 -251t252 -85q158 0 257 85t99 251v832l-163 28v127h523v-127l-163 -28v-832q-1 -237 -155 -363t-398 -127q-244 1 -394 127q-149 126 -149 363v832l-163 28v127h523zM744 1599q-138 0 -219 73t-76 189l2 6h150q1 -65 35 -107
t107 -41q73 -1 108 41t35 107h151l2 -6q4 -116 -77 -189q-80 -73 -218 -73z" />
    <glyph glyph-name="ubreve" unicode="&#x16d;" horiz-adv-x="1244" 
d="M172 444v483l-124 28v127h321v-640q0 -173 51 -238t159 -65q204 0 277 163v625l-145 28v127h342v-928l124 -28v-126h-301l-13 160q-106 -181 -317 -181q-176 0 -275 113t-99 352zM576 1274q-138 0 -218 73q-81 73 -76 189l2 6h150q0 -64 34 -106t108 -42q73 0 108 42
t35 106h151l2 -6q4 -116 -77 -189t-219 -73z" />
    <glyph glyph-name="Uring" unicode="&#x16e;" horiz-adv-x="1541" 
d="M583 1456v-127l-163 -28v-832q0 -165 94 -251t252 -85q158 0 257 85t99 251v832l-163 28v127h523v-127l-163 -28v-832q-1 -237 -155 -363t-398 -127q-244 1 -394 127q-149 126 -149 363v832l-163 28v127h523zM653 1736q0 -44 31 -74q32 -30 74 -31t72 29t30 75t-30 76
t-73 31t-73 -31t-31 -75zM550 1734q0 85 60 142t147 57q86 -1 146 -57t60 -142t-60 -139q-60 -54 -146 -54q-87 0 -147 54t-60 139z" />
    <glyph glyph-name="uring" unicode="&#x16f;" horiz-adv-x="1244" 
d="M172 444v483l-124 28v127h321v-640q0 -173 51 -238t159 -65q204 0 277 163v625l-145 28v127h342v-928l124 -28v-126h-301l-13 160q-106 -181 -317 -181q-176 0 -275 113t-99 352zM486 1411q0 -45 31 -75t73 -30t73 30q30 30 30 74q0 45 -30 76t-73 31q-44 0 -74 -31
t-30 -75zM383 1409q1 85 61 142t146 57t146 -56t60 -142t-60 -140t-146 -54t-146 54t-61 139z" />
    <glyph glyph-name="Uhungarumlaut" unicode="&#x170;" horiz-adv-x="1541" 
d="M583 1456v-127l-163 -28v-832q0 -165 94 -251t252 -85q158 0 257 85t99 251v832l-163 28v127h523v-127l-163 -28v-832q-1 -237 -155 -363t-398 -127q-244 1 -394 127q-149 126 -149 363v832l-163 28v127h523zM704 1866h211l2 -5l-240 -261h-157zM1030 1866h228l3 -6
l-299 -260h-171l-2 5z" />
    <glyph glyph-name="uhungarumlaut" unicode="&#x171;" horiz-adv-x="1244" 
d="M172 444v483l-124 28v127h321v-640q0 -173 51 -238t159 -65q204 0 277 163v625l-145 28v127h342v-928l124 -28v-126h-301l-13 160q-106 -181 -317 -181q-176 0 -275 113t-99 352zM537 1541h211l2 -5l-240 -261h-157zM863 1541h228l3 -6l-299 -260h-171l-2 5z" />
    <glyph glyph-name="Uogonek" unicode="&#x172;" horiz-adv-x="1541" 
d="M500 -231q0 126 137 219q-157 26 -265 118q-149 126 -149 363v832l-163 28v127h523v-127l-163 -28v-832q0 -165 94 -251t252 -85q158 0 257 85t99 251v832l-163 28v127h523v-127l-163 -28v-832q0 -237 -148 -358t-368 -131q-59 -45 -96 -90t-37 -99q0 -90 96 -90
q38 0 99 26l33 -123q-83 -44 -180 -44q-98 0 -158 55t-60 154z" />
    <glyph glyph-name="uogonek" unicode="&#x173;" horiz-adv-x="1244" 
d="M172 444v483l-124 28v127h321v-640q0 -173 51 -238t159 -65q204 0 277 163v625l-145 28v127h342v-928l124 -28v-126q-69 -52 -109 -100t-40 -101q0 -90 96 -90q38 0 99 26l33 -123q-83 -44 -180 -44q-98 0 -158 55t-60 154q0 128 142 223h-124l-13 160
q-106 -181 -317 -181q-176 0 -275 113t-99 352z" />
    <glyph glyph-name="Wcircumflex" unicode="&#x174;" horiz-adv-x="1910" 
d="M1420 1456h463v-127l-117 -15l-317 -1314h-176l-288 1010l-26 131h-6l-25 -131l-292 -1010h-175l-317 1314l-117 15v127h462v-127l-148 -23l187 -802l27 -182l6 -1l39 183l268 952h174l269 -952l40 -187h6l29 187l183 802l-149 23v127zM1246 1588h-161l-147 148
l-145 -148h-160v26l246 237h119l248 -238v-25z" />
    <glyph glyph-name="wcircumflex" unicode="&#x175;" horiz-adv-x="1693" 
d="M1211 1082h412v-127l-94 -14l-273 -941h-159l-210 659l-45 182l-6 -1l-42 -181l-206 -659h-159l-273 941l-95 14v127h412v-127l-124 -22l141 -539l23 -131h6l28 131l216 688h158l217 -688l31 -146h6l29 146l133 539l-126 22v127zM1139 1262h-161l-147 148l-145 -148h-160
v26l246 237h119l248 -238v-25z" />
    <glyph glyph-name="Ycircumflex" unicode="&#x176;" horiz-adv-x="1416" 
d="M852 1456h500v-127l-123 -19l-432 -798v-358l163 -28v-126h-522v126l163 28v373l-424 783l-122 19v127h500v-127l-157 -19l305 -594l305 594l-156 19v127zM1007 1587h-161l-147 148l-145 -148h-160v26l246 237h119l248 -238v-25z" />
    <glyph glyph-name="ycircumflex" unicode="&#x177;" horiz-adv-x="1162" 
d="M283 -437q-53 0 -117 16l20 155q-6 1 36 -2t52 -3q63 1 102 55t68 125l47 112l-357 918l-99 16v127h437v-127l-122 -20l187 -534l36 -138h6l225 672l-123 20v127h436v-127l-97 -15l-412 -1106q-41 -109 -118 -190t-207 -81zM885 1262h-161l-147 148l-145 -148h-160v26
l246 237h119l248 -238v-25z" />
    <glyph glyph-name="Ydieresis" unicode="&#x178;" horiz-adv-x="1416" 
d="M852 1456h500v-127l-123 -19l-432 -798v-358l163 -28v-126h-522v126l163 28v373l-424 783l-122 19v127h500v-127l-157 -19l305 -594l305 594l-156 19v127zM555 1604h-218v200h218v-200zM1025 1604h-218v200h218v-200z" />
    <glyph glyph-name="Zacute" unicode="&#x179;" horiz-adv-x="1220" 
d="M1128 321v-321h-1036v146l777 1155h-584l-14 -167h-169v322h993v-141l-782 -1161h631l16 167h168zM667 1823h230l2 -6l-269 -260h-147z" />
    <glyph glyph-name="zacute" unicode="&#x17a;" horiz-adv-x="1084" 
d="M971 321v-321h-859v138l585 788h-396l-15 -166h-168v322h820v-134l-592 -794h442l16 167h167zM605 1497h230l2 -6l-269 -260h-147z" />
    <glyph glyph-name="Zdotaccent" unicode="&#x17b;" horiz-adv-x="1220" 
d="M1128 321v-321h-1036v146l777 1155h-584l-14 -167h-169v322h993v-141l-782 -1161h631l16 167h168zM709 1603h-217v201h217v-201z" />
    <glyph glyph-name="zdotaccent" unicode="&#x17c;" horiz-adv-x="1084" 
d="M971 321v-321h-859v138l585 788h-396l-15 -166h-168v322h820v-134l-592 -794h442l16 167h167zM647 1277h-217v201h217v-201z" />
    <glyph glyph-name="Zcaron" unicode="&#x17d;" horiz-adv-x="1220" 
d="M1128 321v-321h-1036v146l777 1155h-584l-14 -167h-169v322h993v-141l-782 -1161h631l16 167h168zM924 1845v-18l-257 -245h-119l-253 243v20h166l146 -148l147 148h170z" />
    <glyph glyph-name="zcaron" unicode="&#x17e;" horiz-adv-x="1084" 
d="M971 321v-321h-859v138l585 788h-396l-15 -166h-168v322h820v-134l-592 -794h442l16 167h167zM862 1519v-18l-257 -245h-119l-253 243v20h166l146 -148l147 148h170z" />
    <glyph glyph-name="longs" unicode="&#x17f;" horiz-adv-x="734" 
d="M595 1426q-87 0 -132.5 -54.5t-45.5 -152.5v-1065l163 -28v-126h-523v126l163 28v1065q0 173 90.5 267.5t252.5 94.5q57 0 145 -21l-25 -145q-42 11 -88 11z" />
    <glyph glyph-name="florin" unicode="&#x192;" horiz-adv-x="767" 
d="M604 1420q-170 0 -170 -201v-137h196v-146h-196v-1025q0 -167 -86 -257.5t-239 -90.5q-56 0 -112 18l13 150q36 -13 97 -13t95.5 51.5t34.5 141.5v1025h-170v146h170v137q0 173 90 267.5t252 94.5q57 0 145 -21l-24 -150q-45 10 -96 10z" />
    <glyph glyph-name="Ohorn" unicode="&#x1a0;" horiz-adv-x="1486" 
d="M1166 740q0 254 -122 414.5t-332 160.5t-325.5 -161t-115.5 -414v-23q0 -256 115.5 -416.5t327.5 -160.5t332 160t120 417v23zM1363 738v-21q0 -318 -182.5 -528t-468.5 -210t-462 210t-176 528v21q0 317 176 528t458 211q236 0 410 -149q155 29 155 265h178
q0 -306 -227 -383q139 -201 139 -472z" />
    <glyph glyph-name="ohorn" unicode="&#x1a1;" horiz-adv-x="1288" 
d="M301 529q0 -172 72.5 -284t214.5 -112t214.5 112t72.5 284v22q0 170 -73 283t-215 113t-214 -113t-72 -283v-22zM1072 551v-22q0 -242 -130 -396t-354 -154t-354 154.5t-130 395.5v22q0 240 130 395.5t343 155.5t345 -134q65 16 87 72.5t22 160.5h158q0 -278 -190 -339
q73 -138 73 -311z" />
    <glyph glyph-name="Uhorn" unicode="&#x1af;" horiz-adv-x="1715" 
d="M1504 1549h171l2 -5q3 -209 -94.5 -321.5t-308.5 -119.5v-634q0 -237 -155 -363.5t-399 -126.5t-393.5 126.5t-149.5 363.5v832l-163 28v127h524v-127l-163 -28v-832q0 -165 94 -250.5t252 -85.5t257 85.5t99 250.5v832l-163 28v127h360v-205l6 -1q124 1 174 76t50 223z
" />
    <glyph glyph-name="uhorn" unicode="&#x1b0;" horiz-adv-x="1439" 
d="M594 139q204 0 277 163v625l-145 28v127h342v-130l6 -2q103 -1 131.5 47.5t28.5 170.5h134l2 -5q3 -164 -63.5 -243.5t-238.5 -84.5v-681l124 -28v-126h-301l-13 160q-106 -181 -317 -181q-176 0 -275 113t-99 352v483l-124 28v127h321v-640q0 -173 51 -238t159 -65z" />
    <glyph glyph-name="uni01F0" unicode="&#x1f0;" horiz-adv-x="579" 
d="M106 -282q62 0 96 52t34 141v1016l-163 28v127h360v-1171q0 -167 -86 -257t-239 -91q-56 0 -112 18l13 150q36 -13 97 -13zM644 1518v-18l-257 -245h-119l-253 243v20h166l146 -148l147 148h170z" />
    <glyph glyph-name="Aringacute" unicode="&#x1fa;" 
d="M522 578h462l-226 625h-6zM587 1546q0 78 51 126q50 48 122 48t122 -48t50 -128q0 -81 -76 -129l485 -1274l107 -15v-126h-418v126l110 19l-96 268h-583l-99 -268l110 -19v-126h-417v126l108 15l495 1278q-71 48 -71 127zM674 1554q0 -36 26 -60t60 -25q36 0 60 24
q24 25 24 61t-24 62t-60 25q-34 1 -60 -25t-26 -62zM861 1952h190l2 -6l-216 -177h-119z" />
    <glyph glyph-name="aringacute" unicode="&#x1fb;" horiz-adv-x="1128" 
d="M301 290q0 -146 177 -146q98 0 179 47t116 113v178h-210q-121 0 -191 -56t-71 -136zM730 1222q0 -80 -73 -128q117 -19 199 -86q114 -94 114 -269v-521q0 -51 3 -81l80 -11v-126h-258q-17 85 -21 149q-56 -73 -142 -121t-183 -49q-169 1 -257 83t-88 234t124 236t342 83
h203v126q0 95 -60 151q-61 56 -151 55q-163 0 -238 -71l-21 -114h-152v210q125 100 305 124q-71 48 -71 127t51 127q50 48 122 47q72 1 122 -47t50 -128zM472 1231q0 -37 26 -61t60 -24q36 0 60 24t24 60t-24 62t-60 26q-34 0 -60 -26t-26 -61zM659 1629h190l2 -6l-216 -177
h-119z" />
    <glyph glyph-name="AEacute" unicode="&#x1fc;" horiz-adv-x="2096" 
d="M651 529h446l-31 710l-5 2zM1952 1456v-322h-168l-15 167h-508l20 -466h590v-155h-584l22 -526h522l16 167h167v-321h-1058v126l156 27l-8 197h-556l-121 -210l82 -14v-126h-458v126l141 20l793 1310h967zM1201 1821h230l2 -6l-269 -260h-147z" />
    <glyph glyph-name="aeacute" unicode="&#x1fd;" horiz-adv-x="1795" 
d="M1261 947q-121 -1 -190 -85t-80 -217l2 -5h509v31q0 122 -60 199t-181 77zM480 133q86 0 170 43q82 43 125 100v217h-227q-120 0 -187 -56q-67 -55 -67 -133t50 -124t136 -47zM446 -21q-164 0 -256 87q-92 88 -93 242q1 154 115 240t334 87h229v85q1 106 -51 166t-152 61
q-100 0 -162 -55q-61 -55 -61 -133l-188 18l-2 6q-5 139 110 229t305 90q236 0 339 -158q135 158 345 158t326 -130t115 -358v-119h-710l-2 -5q1 -159 79 -258t234 -99q104 -1 170 27t144 79l68 -138q-149 -122 -382 -122q-271 0 -409 186q-56 -79 -168 -133
q-113 -54 -277 -53zM928 1498h230l2 -6l-269 -260h-147z" />
    <glyph glyph-name="Oslashacute" unicode="&#x1fe;" horiz-adv-x="1404" 
d="M276 740v-23q0 -256 108 -401h6l555 935q-103 64 -232 64q-205 0 -321 -161t-116 -414zM1171 717v23q0 265 -127 417l-6 1l-560 -945q97 -73 235 -73q218 0 338 160t120 417zM713 1477q170 0 317 -83l73 123h149l-118 -199q110 -102 172 -252t62 -328v-21
q0 -318 -182 -528t-473 -210q-179 0 -320 90l-97 -163h-149l144 244q-102 102 -157 248t-55 319v21q0 317 176 528t458 211zM744 1824h230l2 -6l-269 -260h-147z" />
    <glyph glyph-name="oslashacute" unicode="&#x1ff;" horiz-adv-x="1149" 
d="M575 133q140 0 213 112t73 284v22q0 172 -68 271h-6l-328 -664q48 -25 116 -25zM287 551v-22q0 -191 78 -287h6l332 672q-58 33 -130 33q-142 0 -214 -113t-72 -283zM575 -21q-99 0 -188 34l-73 -148h-129l101 206q-96 72 -146 191t-50 267v22q0 239 130 395t353 156
q102 0 203 -41l73 148h129l-104 -210q88 -74 136 -190t48 -258v-22q0 -242 -130 -396t-353 -154zM616 1498h230l2 -6l-269 -260h-147z" />
    <glyph glyph-name="uni0218" unicode="&#x218;" horiz-adv-x="1247" 
d="M1125 1026h-149l-37 208q-104 88 -278 88q-173 0 -257 -66t-84 -168q0 -100 86 -164t296 -116t330 -164q120 -111 119 -281q1 -170 -143 -277t-376 -107q-168 0 -298 55t-213 144v271h148l38 -209q130 -107 325 -107q150 0 236 63t86 167q0 103 -75 171t-285 118
t-341 158q-130 108 -130 274t145 280t377 113q153 -1 279 -53t201 -127v-271zM520 -238v119h188v-116q0 -102 -44 -207t-127 -174l-111 74q94 142 94 304z" />
    <glyph glyph-name="uni0219" unicode="&#x219;" horiz-adv-x="1044" 
d="M316 790q0 -64 45 -101t217 -73t271 -112q100 -76 100 -212q-1 -136 -117 -224q-116 -89 -329 -89t-371 111l-1 247h148l37 -145q65 -59 191 -59q125 1 185 43t60 109t-50 109t-216 79q-168 37 -268 111t-100 203t112 222t293 93q246 0 384 -121l10 -239h-148l-32 130
q-79 75 -232 75q-87 0 -138 -46q-51 -47 -51 -111zM447 -237v119h188v-116q-1 -102 -45 -207t-126 -174l-111 74q94 142 94 304z" />
    <glyph glyph-name="uni021A" unicode="&#x21a;" horiz-adv-x="1284" 
d="M1247 1456v-322h-168l-15 167h-323v-1147l163 -28v-126h-523v126l163 28v1147h-324l-14 -167h-169v322h1210zM552 -228v119h188v-116q0 -102 -44 -207t-127 -174l-111 74q94 142 94 304z" />
    <glyph glyph-name="uni021B" unicode="&#x21b;" horiz-adv-x="750" 
d="M236 279v657h-171v146h171v261h197v-261h205v-146h-205v-657q0 -138 115 -138q51 0 113 14l27 -135q-64 -41 -187 -41q-123 1 -194 73t-71 227zM373 -228v119h188v-116q-1 -102 -45 -207t-126 -174l-111 74q94 142 94 304z" />
    <glyph glyph-name="uni0237" unicode="&#x237;" horiz-adv-x="579" 
d="M106 -282q61 0 95.5 51.5t34.5 141.5v1016l-163 28v127h360v-1171q0 -167 -86 -257.5t-239 -90.5q-56 0 -112 18l13 150q36 -13 97 -13z" />
    <glyph glyph-name="schwa" unicode="&#x259;" horiz-adv-x="1115" 
d="M534 135q110 0 180 82.5t86 209.5l-2 5h-498v-25q0 -117 62 -194.5t172 -77.5zM506 1103q235 0 369 -151t134 -390v-44q0 -232 -137.5 -385t-341.5 -153t-315.5 131.5t-111.5 352.5v123h701l3 5q-3 155 -78.5 256t-212.5 101q-185 0 -306 -108l-77 129q138 133 373 133z
" />
    <glyph glyph-name="uni02BC" unicode="&#x2bc;" horiz-adv-x="418" 
d="M140 1373v187h197v-184q-1 -100 -49 -207t-131 -176l-112 74q95 144 95 306z" />
    <glyph glyph-name="circumflex" unicode="&#x2c6;" horiz-adv-x="828" 
d="M717 1252h-161l-147 148l-145 -148h-160v26l246 237h119l248 -238v-25z" />
    <glyph glyph-name="caron" unicode="&#x2c7;" horiz-adv-x="809" 
d="M719 1515v-18l-257 -245h-119l-253 243v20h166l146 -148l147 148h170z" />
    <glyph glyph-name="breve" unicode="&#x2d8;" horiz-adv-x="836" 
d="M420 1188q-138 0 -219 73t-76 189l2 6h150q0 -65 34.5 -106.5t107.5 -41.5t108 41.5t35 106.5h151l2 -6q4 -116 -76.5 -189t-218.5 -73z" />
    <glyph glyph-name="dotaccent" unicode="&#x2d9;" horiz-adv-x="528" 
d="M369 1255h-217v201h217v-201z" />
    <glyph glyph-name="ring" unicode="&#x2da;" horiz-adv-x="687" 
d="M241 1309q0 -44 31.5 -74.5t73.5 -30.5t72 29.5t30 74.5t-30 76t-73 31t-73.5 -31t-30.5 -75zM138 1307q0 85 60.5 142t146.5 57t146 -56t60 -142t-60 -140t-146 -54t-146.5 54t-60.5 139z" />
    <glyph glyph-name="ogonek" unicode="&#x2db;" horiz-adv-x="473" 
d="M272 -432q-97 0 -157.5 55t-60.5 145q0 180 248 289l71 -57q-70 -52 -109.5 -99.5t-39.5 -101.5q0 -90 96 -90q38 0 99 26l33 -123q-83 -44 -180 -44z" />
    <glyph glyph-name="tilde" unicode="&#x2dc;" horiz-adv-x="948" 
d="M620 1267q-80 0 -157 46.5t-123 46.5t-76 -32.5t-30 -78.5l-107 26q0 93 58.5 161.5t149.5 68.5q56 0 140.5 -47t130.5 -47t76 32.5t30 79.5l108 -32q0 -94 -60 -159t-140 -65z" />
    <glyph glyph-name="hungarumlaut" unicode="&#x2dd;" horiz-adv-x="924" 
d="M288 1518h211l2 -5l-240 -261h-157zM614 1518h228l3 -6l-299 -260h-171l-2 5z" />
    <glyph glyph-name="uni02F3" unicode="&#x2f3;" horiz-adv-x="446" 
d="M161 -234q0 -28 20 -47t47 -19t46 19t19 47t-19 48t-46 20t-47 -20t-20 -48zM72 -234q0 64 46 106.5t110 42.5t109 -42.5t45 -106.5t-44.5 -105.5t-109.5 -41.5t-110.5 41.5t-45.5 105.5z" />
    <glyph glyph-name="gravecomb" unicode="&#x300;" horiz-adv-x="511" 
d="M394 1210h-131l-176 348h185z" />
    <glyph glyph-name="acutecomb" unicode="&#x301;" horiz-adv-x="505" 
d="M244 1559h182l-188 -349h-120z" />
    <glyph glyph-name="tildecomb" unicode="&#x303;" horiz-adv-x="922" 
d="M-396 1267q-80 1 -158 47t-124 46t-76 -32t-29 -79l-107 26q0 93 58 161t150 69q56 0 140 -47t130 -47q46 1 77 33q30 32 30 79l108 -32q1 -94 -59 -159t-140 -65z" />
    <glyph glyph-name="hook" unicode="&#x309;" horiz-adv-x="573" 
d="M294 1469q0 77 -159 77l7 108q146 0 225 -51.5t79 -129.5t-43.5 -114.5t-107.5 -45.5l-1 -71h-140l-1 154q76 4 108.5 19.5t32.5 53.5z" />
    <glyph glyph-name="uni030F" unicode="&#x30f;" horiz-adv-x="924" 
d="M827 1252h-157l-240 261l2 5h211zM558 1257l-2 -5h-171l-299 260l3 6h228z" />
    <glyph glyph-name="dotbelow" unicode="&#x323;" horiz-adv-x="387" 
d="M299 -337h-218v200h218v-200z" />
    <glyph glyph-name="tonos" unicode="&#x384;" horiz-adv-x="493" 
d="M196 1660h208l-175 -390h-93z" />
    <glyph glyph-name="dieresistonos" unicode="&#x385;" horiz-adv-x="1009" 
d="M472 1673h218l-126 -265h-142zM349 1256h-198v200h198v-200zM858 1256h-198v200h198v-200z" />
    <glyph glyph-name="Alphatonos" unicode="&#x386;" 
d="M522 578h462l-226 625h-6zM1448 0h-418v126l110 19l-96 268h-583l-99 -268l110 -19v-126h-417v126l108 15l509 1315h169l500 -1315l107 -15v-126zM294 1660h208l-175 -390h-93z" />
    <glyph glyph-name="anoteleia" unicode="&#x387;" horiz-adv-x="516" 
d="M357 624h-198v212h198v-212z" />
    <glyph glyph-name="Epsilontonos" unicode="&#x388;" horiz-adv-x="1406" 
d="M171 0v126l163 28v1147l-163 28v127h1118v-350h-169l-16 195h-573v-471h557v-155h-557v-521h585l16 195h168v-349h-1129zM-48 1662h208l-175 -390h-93z" />
    <glyph glyph-name="Etatonos" unicode="&#x389;" horiz-adv-x="1673" 
d="M171 1456h523v-127l-163 -28v-503h706v503l-163 28v127h523v-127l-163 -28v-1147l163 -28v-126h-523v126l163 28v489h-706v-489l163 -28v-126h-523v126l163 28v1147l-163 28v127zM-53 1662h208l-175 -390h-93z" />
    <glyph glyph-name="Iotatonos" unicode="&#x38a;" horiz-adv-x="762" 
d="M170 1456h523v-127l-163 -28v-1147l163 -28v-126h-523v126l163 28v1147l-163 28v127zM-58 1661h208l-175 -390h-93z" />
    <glyph glyph-name="Omicrontonos" unicode="&#x38c;" horiz-adv-x="1465" 
d="M1191 740q1 254 -121 414t-332 161q-210 0 -326 -161t-116 -414v-23q0 -257 116 -417t327 -160q212 0 332 160t120 417v23zM1388 717q0 -318 -182 -528t-469 -210q-286 0 -462 210t-176 528v21q0 317 176 528t462 211q287 0 469 -211t182 -528v-21zM69 1660h208
l-175 -390h-93z" />
    <glyph glyph-name="Upsilontonos" unicode="&#x38e;" horiz-adv-x="1516" 
d="M952 1456h500v-127l-123 -19l-432 -798v-358l163 -28v-126h-522v126l163 28v373l-424 783l-122 19v127h500v-127l-157 -19l305 -594l305 594l-156 19v127zM-80 1654h208l-175 -390h-93z" />
    <glyph glyph-name="Omegatonos" unicode="&#x38f;" horiz-adv-x="1374" 
d="M1076 762v57q0 243 -102 373t-282 130q-178 0 -280 -130t-102 -373v-57q0 -252 86 -396t239 -169v-197h-496v154h275q-138 92 -220 259t-81 349v55q1 292 161 476t418 184t420 -184t161 -476v-55q1 -182 -81 -349t-219 -259h281v-154h-497v197q151 25 235 169t84 396z
M60 1660h208l-175 -390h-93z" />
    <glyph glyph-name="iotadieresistonos" unicode="&#x390;" horiz-adv-x="669" 
d="M194 279v648l-163 28v127h361v-814q0 -74 26 -102t74 -27q48 0 89 26l44 -133q-79 -53 -193 -53q-238 0 -238 300zM274 1634h218l-126 -265h-142zM151 1217h-198v200h198v-200zM660 1217h-198v200h198v-200z" />
    <glyph glyph-name="Alpha" unicode="&#x391;" 
d="M522 578h462l-226 625h-6zM1448 0h-418v126l110 19l-96 268h-583l-99 -268l110 -19v-126h-417v126l108 15l509 1315h169l500 -1315l107 -15v-126z" />
    <glyph glyph-name="Beta" unicode="&#x392;" horiz-adv-x="1345" 
d="M997 1066q0 235 -288 235h-278v-464h329q106 3 172 63t65 166zM431 683v-529h340q135 0 209 66t75 192q-1 125 -63 198t-191 73h-370zM709 1456q229 0 357 -98t128 -296q0 -98 -62 -174t-162 -113q131 -28 207 -129t76 -235q0 -199 -130 -305t-352 -106h-700v126l163 28
v1147l-163 28v127h638z" />
    <glyph glyph-name="Gamma" unicode="&#x393;" horiz-adv-x="1216" 
d="M77 1456h1056v-322h-169l-15 167h-512v-1147l163 -28v-126h-523v126l163 28v1147l-163 28v127z" />
    <glyph glyph-name="Delta" unicode="&#x394;" horiz-adv-x="1432" 
d="M295 154h837l-400 1050h-6zM647 1456h169l576 -1456h-1361z" />
    <glyph glyph-name="Delta" unicode="&#x2206;" horiz-adv-x="1432" 
d="M295 154h837l-400 1050h-6zM647 1456h169l576 -1456h-1361z" />
    <glyph glyph-name="Epsilon" unicode="&#x395;" horiz-adv-x="1306" 
d="M71 0v126l163 28v1147l-163 28v127h1118v-350h-169l-16 195h-573v-471h557v-155h-557v-521h585l16 195h168v-349h-1129z" />
    <glyph glyph-name="Zeta" unicode="&#x396;" horiz-adv-x="1220" 
d="M1128 321v-321h-1036v146l777 1155h-584l-14 -167h-169v322h993v-141l-782 -1161h631l16 167h168z" />
    <glyph glyph-name="Eta" unicode="&#x397;" horiz-adv-x="1573" 
d="M71 1456h523v-127l-163 -28v-503h706v503l-163 28v127h523v-127l-163 -28v-1147l163 -28v-126h-523v126l163 28v489h-706v-489l163 -28v-126h-523v126l163 28v1147l-163 28v127z" />
    <glyph glyph-name="Theta" unicode="&#x398;" horiz-adv-x="1403" 
d="M1171 740q0 254 -121.5 414.5t-331.5 160.5t-326 -161t-116 -414v-23q0 -256 115.5 -416.5t327.5 -160.5t332 160t120 417v23zM1368 717q0 -318 -182.5 -528t-468.5 -210t-462 210t-176 528v21q0 317 176 528t462 211t468.5 -211t182.5 -528v-21zM959 659h-509v154h509
v-154z" />
    <glyph glyph-name="Iota" unicode="&#x399;" horiz-adv-x="662" 
d="M70 1456h523v-127l-163 -28v-1147l163 -28v-126h-523v126l163 28v1147l-163 28v127z" />
    <glyph glyph-name="Kappa" unicode="&#x39a;" horiz-adv-x="1452" 
d="M71 1456h523v-127l-163 -28v-489h151l407 503l-109 14v127h462v-127l-137 -25l-445 -552l486 -601l137 -25v-126h-478v126l111 14l-415 517h-170v-503l163 -28v-126h-523v126l163 28v1147l-163 28v127z" />
    <glyph glyph-name="Lambda" unicode="&#x39b;" horiz-adv-x="1450" 
d="M1397 0h-418v126l111 19l-363 1026h-6l-364 -1026l112 -19v-126h-417v126l105 15l482 1315h170l482 -1315l106 -15v-126z" />
    <glyph glyph-name="Mu" unicode="&#x39c;" horiz-adv-x="1905" 
d="M594 0h-523v126l163 28v1147l-163 28v127h415l464 -1183h6l463 1183h416v-127l-163 -28v-1147l163 -28v-126h-523v126l163 28v422l19 590l-5 1l-471 -1167h-131l-471 1166l-5 -1l20 -589v-422l163 -28v-126z" />
    <glyph glyph-name="Nu" unicode="&#x39d;" horiz-adv-x="1560" 
d="M1497 1456v-127l-163 -28v-1301h-197l-700 1124l-6 -2v-968l163 -28v-126h-523v126l163 28v1147l-163 28v127h360l700 -1123l6 2v966l-163 28v127h523z" />
    <glyph glyph-name="Xi" unicode="&#x39e;" horiz-adv-x="1179" 
d="M278 833h623v-155h-623v155zM1111 1456v-322h-169l-15 167h-677l-15 -167h-169v322h1045zM66 321h168l15 -167h690l16 167h167v-321h-1056v321z" />
    <glyph glyph-name="Omicron" unicode="&#x39f;" horiz-adv-x="1445" 
d="M1171 740q1 254 -121 414t-332 161q-210 0 -326 -161t-116 -414v-23q0 -257 116 -417t327 -160q212 0 332 160t120 417v23zM1368 717q0 -318 -182 -528t-469 -210q-286 0 -462 210t-176 528v21q0 317 176 528t462 211q287 0 469 -211t182 -528v-21z" />
    <glyph glyph-name="Pi" unicode="&#x3a0;" horiz-adv-x="1576" 
d="M77 1456h1428v-127l-163 -28v-1147l163 -28v-126h-523v126l163 28v1147h-708v-1147l163 -28v-126h-523v126l163 28v1147l-163 28v127z" />
    <glyph glyph-name="Rho" unicode="&#x3a1;" horiz-adv-x="1301" 
d="M431 738h309q148 0 222 80t73 200q1 121 -73 202t-222 81h-309v-563zM740 1456q232 0 362 -120t130 -317t-130 -316t-362 -119h-309v-430l163 -28v-126h-523v126l163 28v1147l-163 28v127h669z" />
    <glyph glyph-name="Sigma" unicode="&#x3a3;" horiz-adv-x="1181" 
d="M1104 322v-322h-1025v147l479 581l-479 581v147h976v-322h-169l-15 167h-547l-3 -5l446 -557v-24l-446 -555l3 -5h597l15 167h168z" />
    <glyph glyph-name="Tau" unicode="&#x3a4;" horiz-adv-x="1284" 
d="M1247 1456v-322h-168l-15 167h-323v-1147l163 -28v-126h-523v126l163 28v1147h-324l-14 -167h-169v322h1210z" />
    <glyph glyph-name="Upsilon" unicode="&#x3a5;" horiz-adv-x="1416" 
d="M852 1456h500v-127l-123 -19l-432 -798v-358l163 -28v-126h-522v126l163 28v373l-424 783l-122 19v127h500v-127l-157 -19l305 -594l305 594l-156 19v127z" />
    <glyph glyph-name="Phi" unicode="&#x3a6;" horiz-adv-x="1471" 
d="M834 1078v-710h8q168 0 261 95.5t93 259.5t-93 259.5t-261 95.5h-8zM629 1078q-170 0 -262.5 -96t-92.5 -260t92 -259t263 -95h8v710h-8zM629 213q-236 0 -393 142.5t-157 366.5t157 367t393 143h8v69l-163 28v127h523v-127l-163 -28v-69h6q236 0 394 -142t158 -366
t-158.5 -367.5t-393.5 -143.5h-6v-59l163 -28v-126h-523v126l163 28v59h-8z" />
    <glyph glyph-name="Chi" unicode="&#x3a7;" horiz-adv-x="1404" 
d="M53 1456h472v-127l-117 -13l291 -437l294 437l-117 13v127h475v-127l-131 -22l-404 -573l413 -586l132 -22v-126h-471v126l115 13l-302 448l-303 -448l117 -13v-126h-474v126l131 22l414 586l-404 573l-131 22v127z" />
    <glyph glyph-name="Psi" unicode="&#x3a8;" horiz-adv-x="1665" 
d="M1080 1456v-127l-163 -28v-776l6 -2q144 19 230.5 124t86.5 278v531h360v-127l-163 -28v-376q0 -245 -143 -393.5t-377 -172.5v-205l163 -28v-126h-523v126l163 28v206q-228 24 -365 172t-137 393v376l-163 28v127h359v-531q0 -170 82 -275t218 -125l6 1v775l-163 28v127
h523z" />
    <glyph glyph-name="Omega" unicode="&#x3a9;" horiz-adv-x="1354" 
d="M1056 762v57q0 243 -102.5 373t-281.5 130t-280.5 -130t-101.5 -373v-57q0 -252 86 -396.5t239 -168.5v-197h-496v154h275q-138 92 -219.5 259t-81.5 349v55q0 292 160.5 476t418.5 184t419.5 -184t161.5 -476v-55q0 -182 -81.5 -349t-218.5 -259h281v-154h-497v197
q151 25 235 169.5t84 395.5z" />
    <glyph glyph-name="Omega" unicode="&#x2126;" horiz-adv-x="1354" 
d="M1056 762v57q0 243 -102.5 373t-281.5 130t-280.5 -130t-101.5 -373v-57q0 -252 86 -396.5t239 -168.5v-197h-496v154h275q-138 92 -219.5 259t-81.5 349v55q0 292 160.5 476t418.5 184t419.5 -184t161.5 -476v-55q0 -182 -81.5 -349t-218.5 -259h281v-154h-497v197
q151 25 235 169.5t84 395.5z" />
    <glyph glyph-name="Iotadieresis" unicode="&#x3aa;" horiz-adv-x="662" 
d="M70 1456h523v-127l-163 -28v-1147l163 -28v-126h-523v126l163 28v1147l-163 28v127zM194 1603h-218v200h218v-200zM664 1603h-218v200h218v-200z" />
    <glyph glyph-name="Upsilondieresis" unicode="&#x3ab;" horiz-adv-x="1416" 
d="M852 1456h500v-127l-123 -19l-432 -798v-358l163 -28v-126h-522v126l163 28v373l-424 783l-122 19v127h500v-127l-157 -19l305 -594l305 594l-156 19v127zM555 1604h-218v200h218v-200zM1025 1604h-218v200h218v-200z" />
    <glyph glyph-name="alphatonos" unicode="&#x3ac;" horiz-adv-x="1208" 
d="M585 947q-149 0 -217 -119t-67 -307v-21q0 -165 67 -266t207 -101q163 0 245 176v460q-86 178 -235 178zM525 1102q198 0 308 -153l17 133h167v-786q0 -148 76 -148q19 0 31 6l24 -141q-51 -34 -127 -34q-144 0 -184 157q-107 -157 -308 -157q-201 -1 -313 143t-112 378
v21q0 261 112 421t309 160zM592 1645h208l-175 -390h-93z" />
    <glyph glyph-name="epsilontonos" unicode="&#x3ad;" horiz-adv-x="1097" 
d="M544 477q-241 0 -241 -172q1 -73 69 -123t183 -50t187 56t73 132h186l2 -6q5 -162 -128 -248t-326 -85t-319 87t-125 237q0 186 201 251q-86 35 -134 96t-48 134q0 150 116 232t308 82t318 -88q124 -88 119 -226l-2 -6h-186q1 70 -69 119t-178 49t-168 -48t-61 -118
q0 -70 54 -112t169 -43h210v-150h-210zM547 1647h208l-175 -390h-93z" />
    <glyph glyph-name="etatonos" unicode="&#x3ae;" horiz-adv-x="1208" 
d="M641 947q-166 0 -246 -127v-820h-197v821q0 101 -74 101q-39 0 -84 -21l-44 141q88 60 198 60q169 0 196 -166q113 166 301 166q189 0 283 -98t94 -321v-1098h-197v1094q0 143 -57 205t-173 63zM622 1645h208l-175 -390h-93z" />
    <glyph glyph-name="iotatonos" unicode="&#x3af;" horiz-adv-x="669" 
d="M194 279v648l-163 28v127h361v-814q0 -74 26 -102t74 -27q48 0 89 26l44 -133q-79 -53 -193 -53q-238 0 -238 300zM300 1644h208l-175 -390h-93z" />
    <glyph glyph-name="upsilondieresistonos" unicode="&#x3b0;" horiz-adv-x="1220" 
d="M224 1102q202 0 202 -235v-440q0 -153 52 -223t142 -71q134 0 213 131t79 299q-5 226 -124 519h206q115 -239 115 -503t-123 -432t-356 -168q-192 1 -296 111t-105 339v392q0 101 -75 101q-39 0 -84 -21l-45 141q90 60 199 60zM564 1634h218l-126 -265h-142zM441 1217
h-198v200h198v-200zM950 1217h-198v200h198v-200z" />
    <glyph glyph-name="alpha" unicode="&#x3b1;" horiz-adv-x="1208" 
d="M585 947q-149 0 -216.5 -119t-67.5 -307v-21q0 -165 67 -266t207 -101q163 0 245 176v460q-86 178 -235 178zM525 1102q198 0 308 -153l17 133h167v-786q0 -148 76 -148q19 0 31 6l24 -141q-51 -34 -127 -34q-144 0 -184 157q-107 -157 -308 -157q-202 0 -313.5 143.5
t-111.5 377.5v21q0 261 111.5 421t309.5 160z" />
    <glyph glyph-name="beta" unicode="&#x3b2;" horiz-adv-x="1172" 
d="M891 413q0 120 -65.5 206t-176.5 86h-143v155h82q122 0 180 61t58 161t-62.5 170t-170.5 70t-180.5 -71.5t-72.5 -177.5v-831q94 -109 273 -109q129 0 203.5 80t74.5 200zM644 -21q-191 0 -304 90v-452h-197v1456q0 166 132.5 285t322.5 119t307.5 -110t117.5 -284
q0 -91 -49.5 -167t-136.5 -122q119 -44 185 -142t66 -227q0 -209 -126.5 -327.5t-317.5 -118.5z" />
    <glyph glyph-name="gamma" unicode="&#x3b3;" horiz-adv-x="1086" 
d="M153 1094q74 0 110 -28t64 -113l208 -634l17 -84h6l21 84l201 615l-135 21v127h418v-127l-86 -14l-324 -881v-476h-197v467l-287 813q-14 39 -30.5 50.5t-37.5 11.5h-23l-40 -7l-18 149q59 26 133 26z" />
    <glyph glyph-name="delta" unicode="&#x3b4;" horiz-adv-x="1164" 
d="M295 509q0 -164 73 -270t214 -106t213.5 106t72.5 270v21q0 131 -79.5 241.5t-205.5 135.5q-141 0 -214.5 -107.5t-73.5 -269.5v-21zM617 1405q-102 0 -149.5 -36.5t-47.5 -90.5t48.5 -101t174.5 -90q423 -148 423 -557v-21q0 -232 -130 -380.5t-354 -148.5t-354.5 148.5
t-130.5 380.5v21q0 171 92.5 297t230.5 160l4 11q-96 38 -149.5 109t-53.5 161q0 137 101 216.5t260 79.5t333 -85l-44 -133q-152 59 -254 59z" />
    <glyph glyph-name="epsilon" unicode="&#x3b5;" horiz-adv-x="1097" 
d="M544 477q-241 0 -241 -172q0 -73 68.5 -123t183.5 -50t187.5 56t72.5 132h186l2 -6q5 -162 -128 -247.5t-326 -85.5t-318.5 86.5t-125.5 237.5q0 186 201 251q-86 35 -134 96t-48 134q0 151 116 232.5t308 81.5t317 -87.5t120 -226.5l-2 -6h-186q0 70 -69.5 119
t-177.5 49t-168.5 -48t-60.5 -118t54 -112.5t169 -42.5h210v-150h-210z" />
    <glyph glyph-name="zeta" unicode="&#x3b6;" horiz-adv-x="1070" 
d="M737 -116q0 67 -152 107l-90 23q-171 45 -238.5 126.5t-67.5 221.5q0 297 283 630l268 304l-2 5h-623v155h855v-123l-342 -421q-129 -153 -185.5 -266.5t-56.5 -234.5t32.5 -170.5t110.5 -66.5l133 -38q153 -45 208 -79.5t55 -142.5q-2 -72 -58.5 -158.5t-119.5 -138.5
l-104 86q94 109 94 181z" />
    <glyph glyph-name="eta" unicode="&#x3b7;" horiz-adv-x="1208" 
d="M641 947q-166 0 -246 -127v-820h-197v821q0 101 -74 101q-39 0 -84 -21l-44 141q88 60 198 60q169 0 196 -166q113 166 301 166t282.5 -97.5t94.5 -321.5v-1098h-197v1094q0 143 -57 205.5t-173 62.5z" />
    <glyph glyph-name="theta" unicode="&#x3b8;" horiz-adv-x="1162" 
d="M591 133q266 0 266 382v133h-533v-133q0 -189 69 -285.5t198 -96.5zM324 803h533v139q0 189 -68.5 284.5t-198.5 95.5t-198 -95.5t-68 -284.5v-139zM1054 555q0 -279 -124 -427.5t-338 -148.5t-339.5 149t-125.5 427v345q0 278 124.5 427.5t338.5 149.5t339 -149.5
t125 -427.5v-345z" />
    <glyph glyph-name="iota" unicode="&#x3b9;" horiz-adv-x="669" 
d="M194 279v648l-163 28v127h361v-814q0 -74 26 -101.5t74 -27.5t89 26l44 -133q-79 -53 -193 -53q-238 0 -238 300z" />
    <glyph glyph-name="kappa" unicode="&#x3ba;" horiz-adv-x="1257" 
d="M71 1081h351v-425h126l252 287l-90 12v127h452v-127l-132 -26l-311 -343l344 -436l123 -24v-126h-237l-398 499h-129v-345l163 -28v-126h-523v126l163 28v773l-154 28v126z" />
    <glyph glyph-name="lambda" unicode="&#x3bb;" horiz-adv-x="1135" 
d="M1003 -17q-98 0 -150.5 38.5t-99.5 165.5l-234 600l-6 -1l-30 -116l-230 -670h-218l389 1026l-99 239q-22 54 -47.5 76t-66.5 22l-47 -2l-1 145q51 12 133 12q83 0 131.5 -39t76.5 -124l441 -1119q33 -89 84 -89h20q20 0 27 2l6 -154q-45 -12 -79 -12z" />
    <glyph glyph-name="uni03BC" unicode="&#x3bc;" horiz-adv-x="1315" 
d="M425 -416h-196v1343l-163 28v127h359v-622q0 -189 55 -258t157 -69q189 0 252 144v650l-163 28v127h360v-928l163 -28v-126h-340l-9 109q-89 -130 -243 -130t-232 68v-463z" />
    <glyph glyph-name="nu" unicode="&#x3bd;" horiz-adv-x="1143" 
d="M681 1082h418v-127l-89 -15l-363 -940h-149l-367 940l-89 15v127h418v-127l-130 -20l223 -616l18 -78h6l19 78l216 616l-131 20v127z" />
    <glyph glyph-name="xi" unicode="&#x3be;" horiz-adv-x="1004" 
d="M627 1321q-119 0 -193.5 -53.5t-74.5 -143.5t77 -148t241 -58h143v-155h-143q-382 0 -382 -319q0 -123 77 -198t191 -101l113 -24q144 -34 204 -72t60 -148q-2 -72 -58.5 -157t-120.5 -138l-103 86q55 64 74.5 97t19.5 81t-35 69.5t-119 39.5l-56 13q-222 51 -333 149
t-111 307q0 147 82.5 247t230.5 147q-117 42 -183 118.5t-66 171.5q0 161 132 252t358 91q143 0 255 -38l-29 -152q-132 36 -251 36z" />
    <glyph glyph-name="omicron" unicode="&#x3bf;" horiz-adv-x="1149" 
d="M287 529q1 -172 73 -284t214 -112t214 112q73 112 73 284v22q0 170 -73 283t-215 113t-214 -113t-72 -283v-22zM90 551q0 239 130 395t354 156t354 -155t130 -396v-22q0 -242 -130 -396t-354 -154q-224 1 -354 155t-130 395v22z" />
    <glyph glyph-name="pi" unicode="&#x3c0;" horiz-adv-x="1281" 
d="M752 279v647h-353v-926h-197v926h-127v156h1039v-156h-164v-658q0 -74 26 -101.5t74 -27.5t89 26l44 -133q-79 -53 -193 -53q-238 0 -238 300z" />
    <glyph glyph-name="rho" unicode="&#x3c1;" horiz-adv-x="1156" 
d="M561 133q153 0 223 102t70 265v21q0 189 -66 307.5t-198 118.5t-195.5 -115.5t-63.5 -255.5v-303q77 -140 230 -140zM637 -21q-195 0 -306 118v-513h-197v993q0 247 128 386t320 139q228 0 348.5 -158.5t120.5 -422.5v-21q0 -235 -109.5 -378t-304.5 -143z" />
    <glyph glyph-name="sigma1" unicode="&#x3c2;" horiz-adv-x="1092" 
d="M558 1102q204 0 320 -104.5t112 -282.5l-2 -6h-178q0 104 -61 171t-187 67t-196 -115t-70 -270v-42q0 -273 348 -366q155 -43 218.5 -83t63.5 -150q-2 -71 -59 -157t-120 -138l-103 86q54 64 73.5 98t19.5 82t-34 68.5t-119 39.5q-485 105 -485 520v42q0 227 127.5 383.5
t331.5 156.5z" />
    <glyph glyph-name="sigma" unicode="&#x3c3;" horiz-adv-x="1246" 
d="M302 529q0 -172 72 -284t214 -112t215 112t73 284v22q0 161 -73.5 268t-215.5 107h-1q-141 -1 -212.5 -107.5t-71.5 -267.5v-22zM1073 512v-22q0 -210 -132 -360.5t-354 -150.5t-352 154.5t-130 395.5v22q0 232 129.5 381.5t352.5 149.5h568v-156h-277q195 -149 195 -414
z" />
    <glyph glyph-name="tau" unicode="&#x3c4;" horiz-adv-x="1014" 
d="M639 -21q-239 0 -239 300v650h-338v153h885v-153h-350v-661q0 -129 98 -129q46 0 91 26l45 -132q-77 -54 -192 -54z" />
    <glyph glyph-name="upsilon" unicode="&#x3c5;" horiz-adv-x="1220" 
d="M224 1102q202 0 202 -235v-440q0 -153 52 -223.5t142 -70.5q134 0 213 131t79 299q-5 226 -124 519h206q115 -239 115 -503t-123 -432t-356 -168q-192 0 -296.5 110.5t-104.5 339.5v392q0 101 -75 101q-39 0 -84 -21l-45 141q90 60 199 60z" />
    <glyph glyph-name="phi" unicode="&#x3c6;" 
d="M925 926q-40 0 -60.5 -26.5t-20.5 -68.5v-683l6 -3q177 22 263.5 136.5t84.5 266.5t-74 265t-199 113zM647 824q0 102 79.5 180t198.5 78q194 0 333 -155t139 -382t-135 -382.5t-418 -178.5v-462h-197v462q-274 25 -404 185.5t-130 394.5q0 345 255 518l107 -136
q-156 -139 -165 -382q0 -155 81 -274.5t250 -142.5l6 2v675z" />
    <glyph glyph-name="chi" unicode="&#x3c7;" horiz-adv-x="1192" 
d="M706 1082h427v-127l-116 -23l-308 -380l317 -403l117 -23v-126h-247l-293 409l-212 -272l97 -11v-126h-426v126l116 23l309 388l-299 395l-116 23v127l261 -1l276 -392l194 255l-97 11v127z" />
    <glyph glyph-name="psi" unicode="&#x3c8;" horiz-adv-x="1577" 
d="M197 1102q201 0 201 -234v-274q0 -204 82 -313.5t222 -130.5l6 2v929h197v-933l6 -2q183 20 271 141t88 280q-6 232 -124 515h206q115 -239 115 -498q0 -258 -135.5 -419.5t-426.5 -182.5v-456h-197v460q-243 27 -375 178t-132 432v225q0 101 -74 101q-39 0 -84 -21
l-44 141q86 60 198 60z" />
    <glyph glyph-name="omega" unicode="&#x3c9;" horiz-adv-x="1679" 
d="M936 470q0 -337 220 -337q104 0 155 118.5t51 310.5q-7 234 -144 520h206q135 -238 135 -507q0 -268 -96 -432t-302 -164q-241 0 -324 235q-84 -235 -323 -235q-207 0 -302.5 164t-95.5 435t135 504h206q-140 -289 -142 -500q-4 -449 209 -449q98 0 156 81t58 256v300
h198v-300z" />
    <glyph glyph-name="iotadieresis" unicode="&#x3ca;" horiz-adv-x="669" 
d="M194 279v648l-163 28v127h361v-814q0 -74 26 -102t74 -27q48 0 89 26l44 -133q-79 -53 -193 -53q-238 0 -238 300zM161 1279h-218v200h218v-200zM631 1279h-218v200h218v-200z" />
    <glyph glyph-name="upsilondieresis" unicode="&#x3cb;" horiz-adv-x="1220" 
d="M224 1102q202 0 202 -235v-440q0 -153 52 -223t142 -71q134 0 213 131t79 299q-5 226 -124 519h206q115 -239 115 -503t-123 -432t-356 -168q-192 1 -296 111t-105 339v392q0 101 -75 101q-39 0 -84 -21l-45 141q90 60 199 60zM451 1279h-218v200h218v-200zM921 1279
h-218v200h218v-200z" />
    <glyph glyph-name="omicrontonos" unicode="&#x3cc;" horiz-adv-x="1149" 
d="M287 529q1 -172 73 -284t214 -112t214 112q73 112 73 284v22q0 170 -73 283t-215 113t-214 -113t-72 -283v-22zM90 551q0 239 130 395t354 156t354 -155t130 -396v-22q0 -242 -130 -396t-354 -154q-224 1 -354 155t-130 395v22zM569 1645h208l-175 -390h-93z" />
    <glyph glyph-name="upsilontonos" unicode="&#x3cd;" horiz-adv-x="1220" 
d="M224 1102q202 0 202 -235v-440q0 -153 52 -223t142 -71q134 0 213 131t79 299q-5 226 -124 519h206q115 -239 115 -503t-123 -432t-356 -168q-192 1 -296 111t-105 339v392q0 101 -75 101q-39 0 -84 -21l-45 141q90 60 199 60zM591 1644h208l-175 -390h-93z" />
    <glyph glyph-name="omegatonos" unicode="&#x3ce;" horiz-adv-x="1679" 
d="M936 470q0 -337 220 -337q104 1 155 119t51 310q-7 234 -144 520h206q135 -238 135 -507q0 -268 -96 -432t-302 -164q-241 0 -324 235q-84 -235 -323 -235q-206 0 -302 164t-96 435t135 504h206q-140 -289 -142 -500q-4 -449 209 -449q98 0 156 81t58 256v300h198v-300z
M832 1644h208l-175 -390h-93z" />
    <glyph glyph-name="uni03D1" unicode="&#x3d1;" horiz-adv-x="1342" 
d="M1011 1098q0 217 -143 217q-66 0 -104 -54.5t-38 -162.5v-64q0 -120 75 -199t204 -83l6 2v344zM659 140q160 0 255 118.5t97 326.5q-217 8 -349.5 133.5t-132.5 317.5v62q0 173 94.5 276t248.5 103t244.5 -101t90.5 -278v-506q0 -278 -152 -445.5t-395 -167.5t-391 174
t-148 439v660l197 2v-662q0 -200 90.5 -326t250.5 -126z" />
    <glyph glyph-name="uni03D2" unicode="&#x3d2;" horiz-adv-x="1231" 
d="M168 1467q74 0 135.5 -52t113.5 -176l178 -406l18 -68h6l19 68l179 406q51 124 112.5 176t134.5 52t118 -24l-23 -152q-16 8 -45 8q-68 0 -100 -74l-299 -645v-580h-196v578l-300 647q-34 74 -105 74q-28 0 -39 -8l-23 152q42 24 116 24z" />
    <glyph glyph-name="uni03D6" unicode="&#x3d6;" horiz-adv-x="1672" 
d="M528 133q94 0 151.5 81t57.5 256v250h198v-250q0 -175 57.5 -256t150.5 -81t134.5 119t41.5 310q-6 175 -77 364h-814q-73 -197 -77 -364q0 -190 41.5 -309.5t135.5 -119.5zM154 533q0 225 62 393h-111v156h1483v-156h-134q62 -173 62 -396t-86.5 -387t-271.5 -164
q-242 0 -323 236q-83 -236 -323 -236q-185 0 -271.5 164.5t-86.5 389.5z" />
    <glyph glyph-name="uni0400" unicode="&#x400;" horiz-adv-x="1306" 
d="M71 0v126l163 28v1147l-163 28v127h1118v-350h-169l-16 195h-573v-471h557v-155h-557v-521h585l16 195h168v-349h-1129zM737 1560h-159l-249 260l3 6h230z" />
    <glyph glyph-name="uni0401" unicode="&#x401;" horiz-adv-x="1306" 
d="M71 0v126l163 28v1147l-163 28v127h1118v-350h-169l-16 195h-573v-471h557v-155h-557v-521h585l16 195h168v-349h-1129zM507 1605h-218v200h218v-200zM977 1605h-218v200h218v-200z" />
    <glyph glyph-name="uni0402" unicode="&#x402;" horiz-adv-x="1573" 
d="M996 727q-146 0 -299 -46v-527l144 -28v-126h-504v126l163 28v1147h-243l-15 -167h-168v322h1171v-322h-169l-15 167h-364v-461q191 52 285 52q246 0 383 -121t137 -337t-126.5 -329.5t-364.5 -110.5l-5 2l-2 141q162 0 231.5 75.5t68.5 219.5t-81.5 219.5t-226.5 75.5z
" />
    <glyph glyph-name="uni0403" unicode="&#x403;" horiz-adv-x="1216" 
d="M77 1456h1056v-322h-169l-15 167h-512v-1147l163 -28v-126h-523v126l163 28v1147l-163 28v127zM684 1823h230l2 -6l-269 -260h-147z" />
    <glyph glyph-name="uni0404" unicode="&#x404;" horiz-adv-x="1284" 
d="M1181 1010h-139l-37 206q-109 107 -285 107q-227 0 -349 -164.5t-122 -417.5v-23q0 -253 119.5 -418.5t331.5 -165.5q99 0 180 31t125 76l37 206h139v-259q-63 -81 -189 -144.5t-292 -63.5q-284 0 -466 210t-182 528v21q0 320 179 529.5t469 209.5q166 0 292 -64.5
t189 -144.5v-259zM844 659h-591v154h591v-154z" />
    <glyph glyph-name="uni0405" unicode="&#x405;" horiz-adv-x="1247" 
d="M1125 1026h-149l-37 208q-104 88 -278 88q-173 0 -257 -66.5t-84 -167.5t86 -164.5t296 -115.5t329.5 -163.5t119.5 -281.5t-143.5 -277t-375.5 -107q-168 0 -298.5 55t-212.5 144v271h148l38 -209q130 -107 325 -107q149 0 235.5 63t86.5 167t-75 171.5t-285 117.5
t-340.5 158t-130.5 274t145 279.5t377 113.5q153 0 278.5 -52.5t201.5 -127.5v-271z" />
    <glyph glyph-name="uni0406" unicode="&#x406;" horiz-adv-x="662" 
d="M70 1456h523v-127l-163 -28v-1147l163 -28v-126h-523v126l163 28v1147l-163 28v127z" />
    <glyph glyph-name="uni0407" unicode="&#x407;" horiz-adv-x="662" 
d="M70 1456h523v-127l-163 -28v-1147l163 -28v-126h-523v126l163 28v1147l-163 28v127zM194 1603h-218v200h218v-200zM664 1603h-218v200h218v-200z" />
    <glyph glyph-name="uni0408" unicode="&#x408;" horiz-adv-x="1183" 
d="M1124 1456v-127l-163 -28v-898q1 -195 -123 -309t-328 -115q-204 1 -327 107q-124 106 -119 309l2 6h189q1 -135 69 -201t185 -67t186 73t69 197v898l-163 28v127h523z" />
    <glyph glyph-name="uni0409" unicode="&#x409;" horiz-adv-x="2209" 
d="M1281 735v-581h359q147 0 220.5 84.5t73.5 206.5t-73.5 206t-220.5 84h-359zM1281 889h359q232 0 361 -123.5t129 -321.5t-129 -321t-361 -123h-556v1301h-504l-1 -531q-1 -401 -108.5 -585.5t-358.5 -184.5h-52v154h40q150 0 216 142.5t67 473.5v531l-163 28v127h1224
v-127l-163 -28v-412z" />
    <glyph glyph-name="uni040A" unicode="&#x40a;" horiz-adv-x="2265" 
d="M1342 685v-520h359q148 0 221.5 74.5t73.5 186.5t-73.5 185.5t-221.5 73.5h-359zM77 1456h523v-127l-163 -28v-474h708v474l-163 28v127h523v-127l-163 -28v-461h359q233 0 362 -114t129 -302t-129.5 -306t-361.5 -118h-719v126l163 28v519h-708v-519l163 -28v-126h-523
v126l163 28v1147l-163 28v127z" />
    <glyph glyph-name="uni040B" unicode="&#x40b;" horiz-adv-x="1745" 
d="M1035 752q-156 0 -335 -41v-557l163 -28v-126h-524v126l163 28v1147h-263l-14 -167h-169v322h1171v-322h-169l-15 167h-343v-433q152 40 338 40q240 0 364.5 -106t124.5 -342v-306l163 -28v-126h-523v126l163 28v306q0 164 -69.5 228t-225.5 64z" />
    <glyph glyph-name="uni040C" unicode="&#x40c;" horiz-adv-x="1452" 
d="M71 1456h523v-127l-163 -28v-489h151l407 503l-109 14v127h462v-127l-137 -25l-445 -552l486 -601l137 -25v-126h-478v126l111 14l-415 517h-170v-503l163 -28v-126h-523v126l163 28v1147l-163 28v127zM770 1818h230l2 -6l-269 -260h-147z" />
    <glyph glyph-name="uni040D" unicode="&#x40d;" horiz-adv-x="1574" 
d="M600 1456v-127l-163 -28v-839l6 -2l700 749v92l-163 28v127h523v-127l-163 -28v-1147l163 -28v-126h-523v126l163 28v812l-6 2l-700 -750v-64l163 -28v-126h-523v126l163 28v1147l-163 28v127h523zM877 1560h-159l-249 260l3 6h230z" />
    <glyph glyph-name="uni040E" unicode="&#x40e;" horiz-adv-x="1360" 
d="M384 133q72 -1 102 35t70 117l39 83l-423 943l-118 18v127h457v-127l-122 -19l221 -535l73 -188h6l273 722l-127 20v127h465v-127l-114 -17l-449 -1073q-59 -131 -129 -195t-221 -65q-74 0 -101 9l6 149q20 -4 92 -4zM682 1600q-138 0 -219 73t-76 189l2 6h150
q1 -64 35 -106t107 -42t108 42t35 106h151l2 -6q4 -116 -77 -189q-80 -73 -218 -73z" />
    <glyph glyph-name="uni040F" unicode="&#x40f;" horiz-adv-x="1575" 
d="M1505 0h-609v-359h-197v359h-622v126l163 28v1147l-163 28v127h523v-127l-163 -28v-1147h708v1147l-163 28v127h523v-127l-163 -28v-1147l163 -28v-126z" />
    <glyph glyph-name="uni0410" unicode="&#x410;" 
d="M522 578h462l-226 625h-6zM1448 0h-418v126l110 19l-96 268h-583l-99 -268l110 -19v-126h-417v126l108 15l509 1315h169l500 -1315l107 -15v-126z" />
    <glyph glyph-name="uni0411" unicode="&#x411;" horiz-adv-x="1359" 
d="M430 705v-551h359q148 0 221 80t73 200t-73 195.5t-221 75.5h-359zM1116 1134h-169l-15 167h-502v-441h359q234 0 362.5 -115t128.5 -311t-129 -315t-362 -119h-729v126l163 28v1147l-163 28v127h1056v-322z" />
    <glyph glyph-name="uni0412" unicode="&#x412;" horiz-adv-x="1345" 
d="M997 1066q0 235 -288 235h-278v-464h329q106 3 172 63t65 166zM431 683v-529h340q135 0 209 66t75 192q-1 125 -63 198t-191 73h-370zM709 1456q229 0 357 -98t128 -296q0 -98 -62 -174t-162 -113q131 -28 207 -129t76 -235q0 -199 -130 -305t-352 -106h-700v126l163 28
v1147l-163 28v127h638z" />
    <glyph glyph-name="uni0413" unicode="&#x413;" horiz-adv-x="1216" 
d="M77 1456h1056v-322h-169l-15 167h-512v-1147l163 -28v-126h-523v126l163 28v1147l-163 28v127z" />
    <glyph glyph-name="uni0414" unicode="&#x414;" horiz-adv-x="1570" 
d="M1102 154v1147h-490l-23 -434q-18 -468 -191 -713h704zM1462 1456v-127l-163 -28v-1147h200l-20 -511h-177v357h-1050v-359h-168l-29 513h125q76 88 140 256t70 457l24 435l-154 27v127h1202z" />
    <glyph glyph-name="uni0415" unicode="&#x415;" horiz-adv-x="1306" 
d="M71 0v126l163 28v1147l-163 28v127h1118v-350h-169l-16 195h-573v-471h557v-155h-557v-521h585l16 195h168v-349h-1129z" />
    <glyph glyph-name="uni0416" unicode="&#x416;" horiz-adv-x="2041" 
d="M1881 1295q-40 0 -74 -25.5t-73 -84.5l-279 -433l382 -605l146 -21v-126h-461v126l78 13l-300 495h-175v-480l163 -28v-126h-522v126l163 28v480h-182l-301 -495l79 -13v-126h-462v126l146 21l388 614l-266 424q-39 59 -73 84.5t-74 25.5t-93 -10l-29 138q67 44 153 44
q85 0 148.5 -40t133.5 -153l290 -474h142v501l-163 28v127h522v-127l-163 -28v-501h154l290 474q69 113 132 153t149 40t153 -44l-29 -138q-53 10 -93 10z" />
    <glyph glyph-name="uni0417" unicode="&#x417;" horiz-adv-x="1222" 
d="M921 402q0 262 -324 262h-164v156h164q154 0 228 65.5t74 179.5t-83.5 185.5t-258.5 71.5t-280 -107l-38 -205h-138v258q62 80 188 144.5t292 64.5q239 0 377 -108t138 -307q0 -101 -63 -184t-173 -131q125 -42 191.5 -129t66.5 -212q0 -200 -149 -313.5t-373 -113.5
t-374.5 107t-145.5 312l2 6h188q0 -114 88 -192.5t237 -78.5t239.5 74.5t90.5 194.5z" />
    <glyph glyph-name="uni0418" unicode="&#x418;" horiz-adv-x="1574" 
d="M600 1456v-127l-163 -28v-839l6 -2l700 749v92l-163 28v127h523v-127l-163 -28v-1147l163 -28v-126h-523v126l163 28v812l-6 2l-700 -750v-64l163 -28v-126h-523v126l163 28v1147l-163 28v127h523z" />
    <glyph glyph-name="uni0419" unicode="&#x419;" horiz-adv-x="1574" 
d="M600 1456v-127l-163 -28v-839l6 -2l700 749v92l-163 28v127h523v-127l-163 -28v-1147l163 -28v-126h-523v126l163 28v812l-6 2l-700 -750v-64l163 -28v-126h-523v126l163 28v1147l-163 28v127h523zM782 1600q-138 0 -218 73q-81 73 -76 189l2 6h150q0 -64 34 -106
t108 -42q73 0 108 42t35 106h151l2 -6q4 -116 -77 -189t-219 -73z" />
    <glyph glyph-name="uni041A" unicode="&#x41a;" horiz-adv-x="1452" 
d="M1218 1295q-35 0 -67.5 -25t-75.5 -85l-313 -436l484 -598l137 -25v-126h-478v126l111 14l-397 494h-188v-480l163 -28v-126h-523v126l163 28v1147l-163 28v127h523v-127l-163 -28v-501h159l329 474q81 112 141 152.5t123 40.5t95.5 -11.5t68.5 -33.5l-29 -139
q-65 12 -100 12z" />
    <glyph glyph-name="uni041B" unicode="&#x41b;" horiz-adv-x="1512" 
d="M109 0h-52v154h40q135 0 190.5 137.5t70.5 478.5l24 532l-156 27v127h1215v-127l-163 -28v-1147l163 -28v-126h-523v126l163 28v1147h-503l-24 -531q-19 -410 -114.5 -590t-330.5 -180z" />
    <glyph glyph-name="uni041C" unicode="&#x41c;" horiz-adv-x="1905" 
d="M594 0h-523v126l163 28v1147l-163 28v127h415l464 -1183h6l463 1183h416v-127l-163 -28v-1147l163 -28v-126h-523v126l163 28v422l19 590l-5 1l-471 -1167h-131l-471 1166l-5 -1l20 -589v-422l163 -28v-126z" />
    <glyph glyph-name="uni041D" unicode="&#x41d;" horiz-adv-x="1573" 
d="M71 1456h523v-127l-163 -28v-503h706v503l-163 28v127h523v-127l-163 -28v-1147l163 -28v-126h-523v126l163 28v489h-706v-489l163 -28v-126h-523v126l163 28v1147l-163 28v127z" />
    <glyph glyph-name="uni041E" unicode="&#x41e;" horiz-adv-x="1445" 
d="M1171 740q1 254 -121 414t-332 161q-210 0 -326 -161t-116 -414v-23q0 -257 116 -417t327 -160q212 0 332 160t120 417v23zM1368 717q0 -318 -182 -528t-469 -210q-286 0 -462 210t-176 528v21q0 317 176 528t462 211q287 0 469 -211t182 -528v-21z" />
    <glyph glyph-name="uni041F" unicode="&#x41f;" horiz-adv-x="1576" 
d="M77 1456h1428v-127l-163 -28v-1147l163 -28v-126h-523v126l163 28v1147h-708v-1147l163 -28v-126h-523v126l163 28v1147l-163 28v127z" />
    <glyph glyph-name="uni0420" unicode="&#x420;" horiz-adv-x="1301" 
d="M431 738h309q148 0 222 80t73 200q1 121 -73 202t-222 81h-309v-563zM740 1456q232 0 362 -120t130 -317t-130 -316t-362 -119h-309v-430l163 -28v-126h-523v126l163 28v1147l-163 28v127h669z" />
    <glyph glyph-name="uni0421" unicode="&#x421;" horiz-adv-x="1321" 
d="M1200 1009h-139l-37 206q-109 107 -285 107q-227 0 -349 -164t-122 -418v-23q0 -253 120 -419t331 -165q99 0 180 31t125 76l37 206h139v-259q-63 -81 -189 -145t-292 -63q-284 0 -466 210t-182 528v21q0 320 179 530t469 209q166 -1 292 -65t189 -144v-259z" />
    <glyph glyph-name="uni0422" unicode="&#x422;" horiz-adv-x="1284" 
d="M1247 1456v-322h-168l-15 167h-323v-1147l163 -28v-126h-523v126l163 28v1147h-324l-14 -167h-169v322h1210z" />
    <glyph glyph-name="uni0423" unicode="&#x423;" horiz-adv-x="1360" 
d="M384 133q72 0 102.5 35.5t69.5 116.5l39 83l-423 943l-118 18v127h457v-127l-122 -19l221 -535l73 -188h6l273 722l-127 20v127h465v-127l-114 -17l-449 -1073q-59 -131 -128.5 -195.5t-221.5 -64.5q-74 0 -101 9l6 149q20 -4 92 -4z" />
    <glyph glyph-name="uni0424" unicode="&#x424;" horiz-adv-x="1600" 
d="M899 1118v-790h28q186 0 289.5 107t103.5 289t-103.5 288t-289.5 106h-28zM673 1118q-189 0 -291.5 -107t-102.5 -289t102.5 -288t291.5 -106h29v790h-29zM673 174q-253 0 -421 153.5t-168 394.5t168.5 396t420.5 155h29v107l-163 29v126h523v-126l-163 -29v-107h26
q252 0 421.5 -154t169.5 -395t-169.5 -395.5t-421.5 -154.5h-26v-98l163 -29v-126h-523v126l163 29v98h-29z" />
    <glyph glyph-name="uni0425" unicode="&#x425;" horiz-adv-x="1404" 
d="M53 1456h472v-127l-117 -13l291 -437l294 437l-117 13v127h475v-127l-131 -22l-404 -573l413 -586l132 -22v-126h-471v126l115 13l-302 448l-303 -448l117 -13v-126h-474v126l131 22l414 586l-404 573l-131 22v127z" />
    <glyph glyph-name="uni0426" unicode="&#x426;" horiz-adv-x="1594" 
d="M1342 154h190v-505h-195v351h-1260v126l163 28v1147l-163 28v127h523v-127l-163 -28v-1147h708v1147l-163 28v127h523v-127l-163 -28v-1147z" />
    <glyph glyph-name="uni0427" unicode="&#x427;" horiz-adv-x="1526" 
d="M697 548q-227 0 -351 105t-124 343v305l-163 28v127h523v-127l-163 -28v-305q0 -165 69 -228.5t242 -63.5t375 55v542l-163 28v127h524v-127l-163 -28v-1147l163 -28v-126h-524v126l163 28v449q-181 -55 -408 -55z" />
    <glyph glyph-name="uni0428" unicode="&#x428;" horiz-adv-x="2037" 
d="M77 1456h523v-127l-163 -28v-1147h492v1147l-163 28v127h522v-127l-163 -28v-1147h490v1147l-163 28v127h523v-127l-163 -28v-1147l163 -28v-126h-1898v126l163 28v1147l-163 28v127z" />
    <glyph glyph-name="uni0429" unicode="&#x429;" horiz-adv-x="2044" 
d="M1975 1456v-127l-163 -28v-1146h180l-20 -506h-175v351h-1720v126l163 28v1147l-163 28v127h523v-127l-163 -28v-1147h492v1147l-163 28v127h522v-127l-163 -28v-1147h490v1147l-163 28v127h523z" />
    <glyph glyph-name="uni042A" unicode="&#x42a;" horiz-adv-x="1740" 
d="M791 705v-551h359q148 0 221 80t73 200t-73 195.5t-221 75.5h-359zM62 1135v321h892v-127l-163 -28v-441h359q234 0 362.5 -115t128.5 -311t-129 -315t-362 -119h-719v126l163 28v1147h-349l-14 -166h-169z" />
    <glyph glyph-name="uni042B" unicode="&#x42b;" horiz-adv-x="1913" 
d="M610 1456v-127l-163 -28v-441h359q234 0 362.5 -115t128.5 -311t-129 -315t-362 -119h-719v126l163 28v1147l-163 28v127h523zM447 705v-551h359q148 0 221 80t73 200t-73 195.5t-221 75.5h-359zM1329 1456h523v-127l-163 -28v-1147l163 -28v-126h-523v126l163 28v1147
l-163 28v127z" />
    <glyph glyph-name="uni042C" unicode="&#x42c;" horiz-adv-x="1358" 
d="M593 1456v-127l-163 -28v-441h359q234 0 362.5 -115t128.5 -311t-129 -315t-362 -119h-719v126l163 28v1147l-163 28v127h523zM430 705v-551h359q148 0 221 80t73 200t-73 195.5t-221 75.5h-359z" />
    <glyph glyph-name="uni042D" unicode="&#x42d;" horiz-adv-x="1257" 
d="M563 1477q288 0 458.5 -208t170.5 -530v-21q0 -321 -174 -529.5t-455 -208.5q-167 0 -293 64t-187 144v259h138l37 -206q43 -45 124 -76t181 -31q194 0 303.5 142.5t120.5 368.5l-2 5h-554v154h555l2 5q-10 228 -122.5 371t-306.5 143t-301 -107l-37 -206h-138v259
q61 79 187 143.5t293 64.5z" />
    <glyph glyph-name="uni042E" unicode="&#x42e;" horiz-adv-x="1994" 
d="M1712 736q0 254 -122 414.5t-332 160.5t-325.5 -161t-115.5 -414v-23q0 -256 115.5 -416.5t327.5 -160.5t332 160t120 417v23zM47 1456h523v-127l-163 -28v-515h214q15 298 189 492.5t454 194.5t462.5 -211t182.5 -528v-21q0 -318 -182.5 -528t-458.5 -210t-449 184.5
t-196 472.5h-216v-478l163 -28v-126h-523v126l163 28v1147l-163 28v127z" />
    <glyph glyph-name="uni042F" unicode="&#x42f;" horiz-adv-x="1384" 
d="M161 1018q0 208 137 323t378 115h630v-127l-163 -28v-1147l163 -28v-126h-524v126l163 28v416h-295l-219 -403q-101 -175 -250 -175q-72 0 -125 42l28 139q34 -10 68 -10q65 0 123 93l206 356q-320 105 -320 406zM358 1020q0 -131 82 -212.5t235 -81.5h270v575h-269
q-156 0 -237 -75t-81 -206z" />
    <glyph glyph-name="uni0430" unicode="&#x430;" horiz-adv-x="1128" 
d="M301 290q0 -146 177 -146q98 0 179 47t116 113v178h-210q-121 0 -191 -56t-71 -136zM558 1102q184 0 298 -94t114 -269v-521q0 -51 3 -81l80 -11v-126h-258q-17 85 -21 149q-56 -73 -142 -121t-183 -49q-169 1 -257 83t-88 234t124 236t342 83h203v126q0 95 -60 151
q-61 56 -151 55q-163 0 -238 -71l-21 -114h-152v210q163 130 407 130z" />
    <glyph glyph-name="uni0431" unicode="&#x431;" horiz-adv-x="1166" 
d="M588 866q-142 0 -213.5 -96t-71.5 -240v-22q0 -163 72 -269t214 -106t215 106t73 269v22q0 144 -73.5 240t-215.5 96zM628 1020q206 0 326 -137.5t120 -352.5v-22q0 -233 -130 -381t-354 -148t-354 148t-130 381v140q0 320 134 510t360 235q126 23 182.5 55t56.5 105h152
l2 -6q3 -176 -83 -230.5t-248 -82.5t-258.5 -110.5t-118.5 -241.5l4 -5q59 63 148.5 103t190.5 40z" />
    <glyph glyph-name="uni0432" unicode="&#x432;" horiz-adv-x="1271" 
d="M939 774q0 155 -253 155h-229v-304h230q252 0 252 149zM755 152q222 0 222 161q0 77 -56 119t-166 42h-298v-322h298zM686 1082q214 0 332 -74.5t118 -223.5q0 -76 -46 -135.5t-130 -90.5q101 -25 158 -93.5t57 -156.5q0 -152 -110.5 -230t-309.5 -78h-658v126l163 28
v773l-163 28v127h589z" />
    <glyph glyph-name="uni0433" unicode="&#x433;" horiz-adv-x="1075" 
d="M72 1082h851v-2h32v-277h-128l-14 123h-381v-772l163 -28v-126h-523v126l163 28v773l-163 28v127z" />
    <glyph glyph-name="uni0434" unicode="&#x434;" horiz-adv-x="1304" 
d="M863 154v753h-320l-9 -232q-21 -337 -156 -521h485zM190 1082h1033v-127l-163 -28v-773h144l-20 -472h-177v318h-745v-318h-177l-19 472h85q83 96 127 200.5t59 320.5l10 253l-157 27v127z" />
    <glyph glyph-name="uni0435" unicode="&#x435;" horiz-adv-x="1101" 
d="M564 947q-110 1 -180 -83t-86 -210l2 -5h499v26q0 116 -62 194q-63 78 -173 78zM593 -21q-235 1 -369 151t-134 390v44q0 230 138 384t340 154q204 0 316 -132t112 -352v-123h-702l-3 -5q3 -156 79 -256t213 -101q188 0 306 107l77 -128q-137 -133 -373 -133z" />
    <glyph glyph-name="uni0436" unicode="&#x436;" horiz-adv-x="1728" 
d="M1547 929q-67 0 -124 -91l-187 -280l277 -410l153 -22v-126h-302l-281 459h-132v-305l163 -28v-126h-523v126l163 28v305h-133l-280 -459h-302v126l154 22l281 418l-181 272q-61 91 -135 91q-21 0 -76 -9l-28 134q37 24 67 35.5t91 11.5t123.5 -45t112.5 -128l187 -303
h119v302l-163 28v127h523v-127l-163 -28v-302h129l187 303q102 173 251 173q69 0 143 -47l-27 -134q-56 9 -87 9z" />
    <glyph glyph-name="uni0437" unicode="&#x437;" horiz-adv-x="1048" 
d="M527 632q193 0 193 150q0 72 -51 119t-149 47t-161.5 -49t-63.5 -119h-187l-2 6q-6 139 113 226.5t302 87.5t290 -81.5t107 -232.5q0 -73 -44 -134t-123 -96q187 -66 187 -251q0 -152 -116.5 -238t-300.5 -86t-310.5 85.5t-121.5 247.5l2 6h187q0 -76 66 -132t172 -56
t164.5 50t58.5 130q0 160 -212 160h-188v160h188z" />
    <glyph glyph-name="uni0438" unicode="&#x438;" horiz-adv-x="1396" 
d="M619 1082v-127l-163 -28v-611l6 -2l477 768h360v-127l-163 -28v-773l163 -28v-126h-523v126l163 28v612l-6 2l-477 -768h-359v126l163 28v773l-163 28v127h522z" />
    <glyph glyph-name="uni0439" unicode="&#x439;" horiz-adv-x="1396" 
d="M619 1082v-127l-163 -28v-611l6 -2l477 768h360v-127l-163 -28v-773l163 -28v-126h-523v126l163 28v612l-6 2l-477 -768h-359v126l163 28v773l-163 28v127h522zM708 1274q-138 0 -218 73q-81 73 -76 189l2 6h150q0 -64 34 -106t108 -42q73 0 108 42t35 106h151l2 -6
q4 -116 -77 -189t-219 -73z" />
    <glyph glyph-name="uni043A" unicode="&#x43a;" horiz-adv-x="1264" 
d="M1070 929q-29 0 -64.5 -27t-62.5 -64l-209 -271l341 -416l139 -25v-126h-263l-366 459h-128v-305l163 -28v-126h-523v126l163 28v773l-163 28v127h523v-127l-163 -28v-302h104l226 303q123 173 237 173q60 0 90 -11.5t68 -35.5l-28 -134q-55 9 -84 9z" />
    <glyph glyph-name="uni043B" unicode="&#x43b;" horiz-adv-x="1316" 
d="M499 926v-306q0 -320 -84.5 -470t-289.5 -150h-56l3 168l41 1q106 0 147.5 103t41.5 348v307l-163 28v127h1087v-127l-163 -28v-773l163 -28v-126h-523v126l163 28v772h-367z" />
    <glyph glyph-name="uni043C" unicode="&#x43c;" horiz-adv-x="1724" 
d="M1635 1082v-127l-163 -28v-773l163 -28v-126h-523v126l163 28v597l-6 2l-332 -753h-136l-338 769l-6 -2v-613l163 -28v-126h-523v126l163 28v773l-163 28v127h417l352 -824h6l353 824h410z" />
    <glyph glyph-name="uni043D" unicode="&#x43d;" horiz-adv-x="1395" 
d="M97 1082h523v-127l-163 -28v-313h481v313l-163 28v127h524v-127l-163 -28v-773l163 -28v-126h-524v126l163 28v306h-481v-306l163 -28v-126h-523v126l163 28v773l-163 28v127z" />
    <glyph glyph-name="uni043E" unicode="&#x43e;" horiz-adv-x="1149" 
d="M287 529q1 -172 73 -284t214 -112t214 112q73 112 73 284v22q0 170 -73 283t-215 113t-214 -113t-72 -283v-22zM90 551q0 239 130 395t354 156t354 -155t130 -396v-22q0 -242 -130 -396t-354 -154q-224 1 -354 155t-130 395v22z" />
    <glyph glyph-name="uni043F" unicode="&#x43f;" horiz-adv-x="1396" 
d="M97 1082h1202v-127l-163 -28v-773l163 -28v-126h-523v126l163 28v772h-482v-772l163 -28v-126h-523v126l163 28v773l-163 28v127z" />
    <glyph glyph-name="uni0440" unicode="&#x440;" horiz-adv-x="1240" 
d="M655 133q153 0 225 102t72 265v21q0 185 -72 303t-224 118t-231 -142v-527q77 -140 230 -140zM729 -21q-197 0 -304 133v-373l163 -28v-127h-523v127l163 28v1188l-163 28v127h332l18 -132q111 152 311 152t312 -160t112 -421v-21q0 -234 -112 -378t-309 -143z" />
    <glyph glyph-name="uni0441" unicode="&#x441;" horiz-adv-x="1104" 
d="M575 133q98 0 172.5 60.5t74.5 148.5h177l2 -6q5 -140 -124.5 -248.5t-301.5 -108.5q-236 0 -360.5 154t-124.5 387v42q0 231 125 385.5t372 154.5t393 -161l9 -240h-157l-43 170q-78 76 -224 76q-145 0 -211.5 -111.5t-66.5 -273.5v-42q0 -166 66 -276.5t222 -110.5z
" />
    <glyph glyph-name="uni0442" unicode="&#x442;" horiz-adv-x="1186" 
d="M1102 1082v-322h-169l-15 169h-232v-775l163 -28v-126h-523v126l163 28v775h-228l-15 -169h-168v322h1024z" />
    <glyph glyph-name="uni0443" unicode="&#x443;" horiz-adv-x="1162" 
d="M283 -437q-53 0 -117 16l20 155q-6 1 36 -2t52 -3q63 1 102 55t68 125l47 112l-357 918l-99 16v127h437v-127l-122 -20l187 -534l36 -138h6l225 672l-123 20v127h436v-127l-97 -15l-412 -1106q-41 -109 -118 -190t-207 -81z" />
    <glyph glyph-name="uni0444" unicode="&#x444;" horiz-adv-x="1471" 
d="M288 521v-21q0 -167 57.5 -267t186.5 -100q56 0 96 14v786q-47 14 -94 14q-130 0 -188 -118t-58 -308zM928 133q129 0 191.5 101t62.5 266v21q0 188 -63 307t-193 119q-56 0 -101 -17v-783q40 -14 103 -14zM986 1102q189 0 291.5 -159t102.5 -422v-21
q0 -236 -102.5 -378.5t-289.5 -142.5q-90 0 -163 30v-270l163 -28v-127h-523v127l163 28v266q-69 -26 -146 -26q-187 0 -289 142.5t-102 378.5v21q0 263 101.5 422t291.5 159q75 0 144 -26v329l-163 28v127h360v-490q73 32 161 32z" />
    <glyph glyph-name="uni0445" unicode="&#x445;" horiz-adv-x="1192" 
d="M72 1082h424v-127l-98 -12l202 -260l203 261l-97 11v127h427v-127l-116 -23l-309 -385l318 -398l117 -23v-126h-424v126l96 11l-212 272l-212 -272l97 -11v-126h-426v126l116 23l319 398l-309 385l-116 23v127z" />
    <glyph glyph-name="uni0446" unicode="&#x446;" horiz-adv-x="1362" 
d="M1272 1082v-127l-163 -28v-773h133l-19 -475h-176v321h-977v126l163 28v773l-163 28v127h523v-127l-163 -28v-773h482v773l-163 28v127h523z" />
    <glyph glyph-name="uni0447" unicode="&#x447;" horiz-adv-x="1355" 
d="M646 357q-196 0 -307 103t-111 305v164l-163 28v126h523v-126l-163 -28v-164q0 -252 221 -252q127 0 245 30v384l-163 28v127h523v-127l-163 -28v-773l163 -28v-126h-523v126l163 28v232q-112 -29 -245 -29z" />
    <glyph glyph-name="uni0448" unicode="&#x448;" horiz-adv-x="1872" 
d="M97 1082h523v-127l-163 -28v-773h380v928h197v-928h381v773l-163 28v127h523v-127l-163 -28v-773l163 -28v-126h-1678v126l163 28v773l-163 28v127z" />
    <glyph glyph-name="uni0449" unicode="&#x449;" horiz-adv-x="1873" 
d="M1600 155h174l-20 -476h-175v321h-1494v126l163 28v773l-163 28v127h523v-127l-163 -28v-773h380v928h197v-928h381v773l-163 28v127h523v-127l-163 -28v-772z" />
    <glyph glyph-name="uni044A" unicode="&#x44a;" horiz-adv-x="1420" 
d="M648 556v-402h268q107 0 157.5 56t50.5 140t-51 145t-157 61h-268zM31 761v321h780v-127l-163 -28v-217h268q192 0 299 -98t107 -254t-107.5 -257t-298.5 -101h-628v126l163 28v773h-237l-14 -166h-169z" />
    <glyph glyph-name="uni044B" unicode="&#x44b;" horiz-adv-x="1732" 
d="M620 1082v-127l-163 -28v-217h268q192 0 299 -98t107 -254t-107.5 -257t-298.5 -101h-628v126l163 28v773l-163 28v127h523zM457 556v-402h268q107 0 157.5 56t50.5 140t-51 145t-157 61h-268zM1153 1082h360v-928l163 -28v-126h-523v126l163 28v773l-163 28v127z" />
    <glyph glyph-name="uni044C" unicode="&#x44c;" horiz-adv-x="1212" 
d="M620 1082v-127l-163 -28v-217h268q192 0 299 -98t107 -254t-107.5 -257t-298.5 -101h-628v126l163 28v773l-163 28v127h523zM457 556v-402h268q107 0 157.5 56t50.5 140t-51 145t-157 61h-268z" />
    <glyph glyph-name="uni044D" unicode="&#x44d;" horiz-adv-x="1089" 
d="M524 133q144 0 210.5 96t70.5 240l-2 5h-400v154h399l2 5q-8 134 -75.5 224t-204.5 90t-215 -76l-42 -170h-158l10 240q144 161 391 161q248 0 373.5 -154.5t125.5 -385.5v-42q0 -233 -125 -387t-360 -154q-173 0 -303 108.5t-124 248.5l2 6h178q0 -88 74 -148.5
t173 -60.5z" />
    <glyph glyph-name="uni044E" unicode="&#x44e;" horiz-adv-x="1766" 
d="M888 529q0 -172 72 -284t214 -112t215 112t73 284v22q0 170 -73 283t-215 113t-214 -113t-72 -283v-22zM69 1082h360v-457h265q20 212 148 344.5t342 132.5t344.5 -155t130.5 -396v-22q0 -242 -130 -396t-347 -154t-345 136.5t-144 355.5h-264v-317l163 -28v-126h-523
v126l163 28v773l-163 28v127z" />
    <glyph glyph-name="uni044F" unicode="&#x44f;" horiz-adv-x="1302" 
d="M376 750q0 -72 49.5 -123.5t147.5 -51.5h280v354h-260q-107 0 -162 -53.5t-55 -125.5zM853 420h-267l-256 -420h-265v126l142 21l185 302q-103 37 -158.5 117t-55.5 185q0 146 111 238.5t304 92.5h620v-127l-163 -28v-773l163 -28v-126h-523v126l163 28v266z" />
    <glyph glyph-name="uni0450" unicode="&#x450;" horiz-adv-x="1101" 
d="M564 947q-110 1 -180 -83t-86 -210l2 -5h499v26q0 116 -62 194q-63 78 -173 78zM593 -21q-235 1 -369 151t-134 390v44q0 230 138 384t340 154q204 0 316 -132t112 -352v-123h-702l-3 -5q3 -156 79 -256t213 -101q188 0 306 107l77 -128q-137 -133 -373 -133zM641 1235
h-159l-249 260l3 6h230z" />
    <glyph glyph-name="uni0451" unicode="&#x451;" horiz-adv-x="1101" 
d="M564 947q-110 1 -180 -83t-86 -210l2 -5h499v26q0 116 -62 194q-63 78 -173 78zM593 -21q-235 1 -369 151t-134 390v44q0 230 138 384t340 154q204 0 316 -132t112 -352v-123h-702l-3 -5q3 -156 79 -256t213 -101q188 0 306 107l77 -128q-137 -133 -373 -133zM411 1280
h-218v200h218v-200zM881 1280h-218v200h218v-200z" />
    <glyph glyph-name="uni0452" unicode="&#x452;" horiz-adv-x="1298" 
d="M908 680q0 262 -229 262q-81 0 -147.5 -38.5t-109.5 -104.5v-645l163 -28v-126h-523v126l163 28v1026h-194v113h194v112l-163 28v127h360v-267h214v-113h-214v-242q118 164 304 164q379 0 379 -424v-767q0 -167 -85.5 -257.5t-239.5 -90.5q-57 0 -113 18l15 150
q34 -13 96 -13t96 51.5t34 141.5v769z" />
    <glyph glyph-name="uni0453" unicode="&#x453;" horiz-adv-x="1075" 
d="M72 1082h851v-2h32v-277h-128l-14 123h-381v-772l163 -28v-126h-523v126l163 28v773l-163 28v127zM633 1515h230l2 -6l-269 -260h-147z" />
    <glyph glyph-name="uni0454" unicode="&#x454;" horiz-adv-x="1118" 
d="M599 133q98 0 172.5 60.5t74.5 148.5h177l2 -6q5 -140 -124.5 -248.5t-301.5 -108.5q-236 0 -360.5 154t-124.5 387v42q0 231 125 385.5t372 154.5t393 -161l9 -240h-157l-43 170q-78 76 -217 76q-138 0 -205.5 -93.5t-72.5 -231.5l2 -5h364v-154h-364l-2 -5
q5 -141 72 -233t209 -92z" />
    <glyph glyph-name="uni0455" unicode="&#x455;" horiz-adv-x="1044" 
d="M316 790q0 -64 45 -101t217 -73t271 -112q100 -76 100 -212q-1 -136 -117 -224q-116 -89 -329 -89t-371 111l-1 247h148l37 -145q65 -59 191 -59q125 1 185 43t60 109t-50 109t-216 79q-168 37 -268 111t-100 203t112 222t293 93q246 0 384 -121l10 -239h-148l-32 130
q-79 75 -232 75q-87 0 -138 -46q-51 -47 -51 -111z" />
    <glyph glyph-name="uni0456" unicode="&#x456;" horiz-adv-x="673" 
d="M449 1359h-197v201h197v-201zM89 1082h360v-928l163 -28v-126h-523v126l163 28v773l-163 28v127z" />
    <glyph glyph-name="uni0457" unicode="&#x457;" horiz-adv-x="672" 
d="M90 1082h360v-928l163 -28v-126h-523v126l163 28v773l-163 28v127zM202 1279h-218v200h218v-200zM672 1279h-218v200h218v-200z" />
    <glyph glyph-name="uni0458" unicode="&#x458;" horiz-adv-x="571" 
d="M418 1363h-197v197h197v-197zM92 -276q58 0 96 44t39 143v1016l-163 28v127h360v-1171q0 -167 -86 -257t-239 -91q-56 0 -112 18l13 155q34 -12 92 -12z" />
    <glyph glyph-name="uni0459" unicode="&#x459;" horiz-adv-x="1786" 
d="M1020 517v-365h268q106 0 157 56t51 131t-50.5 126.5t-157.5 51.5h-268zM505 926v-306q0 -318 -89 -469t-295 -151h-56l3 158l41 1q106 0 152.5 109t46.5 352v307l-163 28v127h1038v-127l-163 -28v-256h268q192 0 299 -92.5t107 -240.5t-107.5 -243t-298.5 -95h-628v126
l163 28v772h-318z" />
    <glyph glyph-name="uni045A" unicode="&#x45a;" horiz-adv-x="1894" 
d="M1136 517v-365h268q106 0 157 56t51 131t-50.5 126.5t-157.5 51.5h-268zM97 1082h523v-127l-163 -28v-253h481v253l-163 28v127h524v-127l-163 -28v-257h268q192 0 299 -92t107 -240t-107.5 -243t-298.5 -95h-629v126l163 28v367h-481v-367l163 -28v-126h-523v126l163 28
v773l-163 28v127z" />
    <glyph glyph-name="uni045B" unicode="&#x45b;" horiz-adv-x="1322" 
d="M908 680q0 262 -229 262q-81 0 -147.5 -38.5t-109.5 -104.5v-645l163 -28v-126h-523v126l163 28v1008h-176v155h176v88l-163 28v127h360v-243h268v-155h-268v-224q118 164 304 164q379 0 379 -424v-524l163 -28v-126h-523v126l163 28v526z" />
    <glyph glyph-name="uni045C" unicode="&#x45c;" horiz-adv-x="1264" 
d="M1070 929q-28 0 -64 -27t-63 -64l-209 -271l341 -416l139 -25v-126h-263l-366 459h-128v-305l163 -28v-126h-523v126l163 28v773l-163 28v127h523v-127l-163 -28v-302h104l226 303q123 173 237 173q60 1 90 -11t68 -36l-28 -134q-55 9 -84 9zM755 1497h230l2 -6
l-269 -260h-147z" />
    <glyph glyph-name="uni045D" unicode="&#x45d;" horiz-adv-x="1396" 
d="M619 1082v-127l-163 -28v-611l6 -2l477 768h360v-127l-163 -28v-773l163 -28v-126h-523v126l163 28v612l-6 2l-477 -768h-359v126l163 28v773l-163 28v127h522zM803 1234h-159l-249 260l3 6h230z" />
    <glyph glyph-name="uni045E" unicode="&#x45e;" horiz-adv-x="1162" 
d="M283 -437q-53 0 -117 16l20 155q-6 1 36 -2t52 -3q63 1 102 55t68 125l47 112l-357 918l-99 16v127h437v-127l-122 -20l187 -534l36 -138h6l225 672l-123 20v127h436v-127l-97 -15l-412 -1106q-41 -109 -118 -190t-207 -81zM568 1274q-138 0 -218 73q-81 73 -76 189l2 6
h150q0 -64 34 -106t108 -42q73 0 108 42t35 106h151l2 -6q4 -116 -77 -189t-219 -73z" />
    <glyph glyph-name="uni045F" unicode="&#x45f;" horiz-adv-x="1397" 
d="M800 -356h-197v356h-505v126l163 28v773l-163 28v127h523v-127l-163 -28v-773h482v773l-163 28v127h523v-127l-163 -28v-773l163 -28v-126h-500v-356z" />
    <glyph glyph-name="uni0460" unicode="&#x460;" horiz-adv-x="1763" 
d="M144 391v1065h197v-1065q0 -126 55.5 -192t155.5 -66t166 65.5t66 192.5v1065h204v-1065q0 -126 61 -192t161 -66t160.5 66t60.5 192v1065h197v-1065q0 -201 -115.5 -306.5t-302.5 -105.5q-231 0 -326 173q-103 -173 -341 -173q-180 0 -289.5 105.5t-109.5 306.5z" />
    <glyph glyph-name="uni0461" unicode="&#x461;" horiz-adv-x="1605" 
d="M150 352v730h197v-730q0 -108 44 -163.5t126 -55.5t138 56t56 163v730h198v-730q0 -108 49.5 -163.5t131.5 -55.5t132.5 56t50.5 163v730h197v-730q0 -182 -105 -277.5t-288 -95.5t-269 143q-95 -143 -299 -143q-162 0 -260.5 95.5t-98.5 277.5z" />
    <glyph glyph-name="uni0462" unicode="&#x462;" horiz-adv-x="1358" 
d="M593 1456v-127l-163 -28v-131h231v-155h-231v-155h359q234 0 362.5 -115t128.5 -311t-129 -315t-362 -119h-719v126l163 28v861h-213v155h213v131l-163 28v127h523zM430 705v-551h359q148 0 221 80t73 200t-73 195.5t-221 75.5h-359z" />
    <glyph glyph-name="uni0463" unicode="&#x463;" horiz-adv-x="1204" 
d="M463 594v-440h268q107 0 157.5 62t50.5 154t-51 158t-157 66h-268zM463 1236h321v-154h-321v-334h268q192 0 299 -102.5t107 -267.5t-107.5 -271.5t-298.5 -106.5h-628v126l163 28v928h-191v154h191v169l-163 28v127h360v-324z" />
    <glyph glyph-name="uni0464" unicode="&#x464;" horiz-adv-x="1804" 
d="M1737 1010h-139l-37 206q-109 107 -300 107q-190 0 -309.5 -135t-137.5 -348l3 -6h543v-155h-547l-3 -5q6 -235 124.5 -387.5t321.5 -152.5q99 0 180 31t125 76l37 206h139v-259q-63 -81 -189 -144.5t-292 -63.5q-274 0 -454.5 197.5t-192.5 501.5h-192v-525l163 -28
v-126h-523v126l163 28v1147l-163 28v127h523v-127l-163 -28v-467h195q27 284 202 464t442 180q166 0 292 -64.5t189 -144.5v-259z" />
    <glyph glyph-name="uni0465" unicode="&#x465;" horiz-adv-x="1646" 
d="M448 616h215q14 211 138 348.5t345 137.5q259 0 405 -161l9 -240h-157l-43 170q-78 76 -217 76q-138 0 -205.5 -93.5t-72.5 -232.5l2 -5h360v-154h-360l-2 -5q5 -140 72 -232t209 -92q98 0 172.5 60.5t74.5 148.5h177l2 -6q5 -140 -124.5 -248.5t-301.5 -108.5
q-221 0 -344.5 135.5t-138.5 347.5h-215v-308l163 -28v-126h-523v126l163 28v773l-163 28v127h360v-466z" />
    <glyph glyph-name="uni0466" unicode="&#x466;" horiz-adv-x="1427" 
d="M521 621h380l-185 544h-6zM1367 0h-418v126l113 19l-105 312h-155v-457h-196v457h-142l-108 -312l113 -19v-126h-417v126l104 15l474 1315h168l465 -1315l104 -15v-126z" />
    <glyph glyph-name="uni0467" unicode="&#x467;" horiz-adv-x="1203" 
d="M452 449h292l-126 312l-18 68h-6l-18 -68zM700 294v-294h-196v294h-113l-116 -294h-215v126l70 13l384 943h169l386 -943l72 -13v-126h-216l-119 294h-106z" />
    <glyph glyph-name="uni0468" unicode="&#x468;" horiz-adv-x="1935" 
d="M1070 621h380l-185 544h-6zM563 1456v-127l-163 -28v-679h478l301 834h168l465 -1315l104 -15v-126h-418v126l113 19l-105 312h-155v-457h-196v457h-142l-108 -312l113 -19v-126h-417v126l104 15l114 317h-419v-304l163 -28v-126h-523v126l163 28v1147l-163 28v127h523z
" />
    <glyph glyph-name="uni0469" unicode="&#x469;" horiz-adv-x="1760" 
d="M1002 449h292l-126 312l-18 68h-6l-18 -68zM402 449h404l258 633h169l386 -943l72 -13v-126h-216l-119 294h-106v-294h-196v294h-113l-116 -294h-215v126l70 13l63 154h-341v-139l163 -28v-126h-523v126l163 28v773l-163 28v127h360v-633z" />
    <glyph glyph-name="uni046A" unicode="&#x46a;" horiz-adv-x="1895" 
d="M950 814h10l284 487h-578zM705 659q-153 0 -221.5 -63t-68.5 -225v-217l163 -28v-126h-523v126l163 28v217q0 234 123.5 338.5t363.5 104.5h37l-301 494l-144 21v127h1316v-127l-143 -21l-301 -494h22q239 0 363.5 -104.5t124.5 -338.5v-217l163 -28v-126h-523v126
l163 28v217q0 162 -69 225t-222 63h-116l-25 -42v-463l163 -28v-126h-523v126l163 28v478l-17 27h-131z" />
    <glyph glyph-name="uni046B" unicode="&#x46b;" horiz-adv-x="1600" 
d="M807 607l176 319h-351zM640 450q-133 0 -192 -62.5t-59 -225.5v-162h-321v126l124 28v8q0 226 106.5 330t311.5 111l-197 331l-142 21v127h1072v-127l-141 -21l-197 -331q197 -10 301 -115t104 -326v-8l124 -28v-126h-321v162q0 162 -59.5 225t-191.5 63h-48l-11 -19
v-277l163 -28v-126h-523v126l163 28v287l-5 9h-61z" />
    <glyph glyph-name="uni046C" unicode="&#x46c;" horiz-adv-x="2438" 
d="M1516 814h10l284 487h-578zM784 371q0 183 78 289h-446v-506l163 -28v-126h-523v126l163 28v1147l-163 28v127h523v-127l-163 -28v-486h891l-300 493l-144 21v127h1316v-127l-143 -21l-301 -494h22q239 0 363.5 -104.5t124.5 -338.5v-217l163 -28v-126h-523v126l163 28
v217q0 162 -69 225t-222 63h-116l-25 -42v-463l163 -28v-126h-523v126l163 28v478l-17 27h-131q-153 0 -221.5 -63t-68.5 -225v-217l163 -28v-126h-523v126l163 28v217z" />
    <glyph glyph-name="uni046D" unicode="&#x46d;" horiz-adv-x="2188" 
d="M1340 607l176 319h-351zM725 162q0 182 72 288h-419v-296l163 -28v-126h-523v126l163 28v773l-163 28v127h360v-477h764l-196 329l-142 21v127h1072v-127l-141 -21l-197 -331q197 -10 301 -115t104 -326v-8l124 -28v-126h-321v162q0 162 -59.5 225t-191.5 63h-48l-11 -19
v-277l163 -28v-126h-523v126l163 28v287l-5 9h-61q-133 0 -192 -62.5t-59 -225.5v-162h-321v126l124 28v8z" />
    <glyph glyph-name="uni046E" unicode="&#x46e;" horiz-adv-x="1053" 
d="M843 1906v-18l-257 -245h-119l-253 243v20h166l146 -148l147 148h170zM749 403q0 267 -322 267h-143v155h143q154 0 227 63.5t73 172.5t-72 179.5t-216 70.5t-226 -76l-13 -170h-158l1 241q143 160 404 160q209 0 343 -111t134 -293q0 -103 -65 -185t-179 -126
q129 -41 198 -129t69 -215q0 -200 -132.5 -313.5t-344.5 -113.5h-49q-145 0 -145 -112q0 -70 46.5 -112.5t112.5 -72.5l-79 -127q-111 47 -189 129t-78 202t89.5 184t250.5 64h41q130 0 204.5 74.5t74.5 193.5z" />
    <glyph glyph-name="uni046F" unicode="&#x46f;" horiz-adv-x="947" 
d="M731 1563v-18l-257 -245h-119l-253 243v20h166l146 -148l147 148h170zM415 1091q189 0 308 -88t119 -231q0 -74 -52.5 -136t-144.5 -99q219 -68 219 -242q0 -150 -120.5 -232.5t-314.5 -82.5h-49q-145 0 -145 -112q0 -70 47 -112.5t113 -72.5l-80 -127q-111 47 -189 129
t-78 202t89.5 184t250.5 64h41q112 0 175 41.5t63 114.5q0 163 -282 163h-142v155h142q132 0 196 45.5t64 117.5t-57.5 118t-149.5 46q-157 1 -236 -55l-14 -148h-156l-1 218q134 140 384 140z" />
    <glyph glyph-name="uni0470" unicode="&#x470;" horiz-adv-x="1665" 
d="M1080 1456v-127l-163 -28v-776l6 -2q145 19 231 124t86 278v531h360v-127l-163 -28v-376q0 -245 -143 -393t-377 -173v-205l163 -28v-126h-523v126l163 28v206q-228 24 -365 172t-137 393v376l-163 28v127h359v-531q0 -170 82 -275t218 -125l6 1v775l-163 28v127h523z
" />
    <glyph glyph-name="uni0471" unicode="&#x471;" horiz-adv-x="1577" 
d="M197 1102q201 0 201 -234v-274q0 -204 82 -314t222 -130l6 2v929h197v-933l6 -2q183 20 271 141t88 280q-6 232 -124 515h206q115 -239 115 -498q1 -258 -135 -420t-427 -182v-456h-197v460q-243 27 -375 178t-132 432v225q0 101 -74 101q-39 0 -84 -21l-44 141
q86 60 198 60z" />
    <glyph glyph-name="uni0472" unicode="&#x472;" horiz-adv-x="1403" 
d="M718 140q196 0 313.5 136.5t131.5 359.5l-2 5h-875l-2 -5q13 -222 125.5 -359t308.5 -137zM718 1315q-198 0 -312.5 -143.5t-123.5 -370.5l2 -5h878l2 5q-10 227 -129 370.5t-317 143.5zM1368 717q0 -318 -182.5 -528t-468.5 -210t-462 210t-176 528v21q0 317 176 528
t462 211t468.5 -211t182.5 -528v-21z" />
    <glyph glyph-name="uni0473" unicode="&#x473;" horiz-adv-x="1186" 
d="M586 947q-126 0 -196 -89.5t-81 -228.5l2 -5h553l2 5q-11 139 -82.5 228.5t-197.5 89.5zM588 133q130 0 200.5 92.5t78.5 238.5l-2 5h-555l-2 -5q7 -146 78.5 -238.5t201.5 -92.5zM104 551q0 240 130 395.5t354 155.5t354 -155t130 -396v-22q0 -242 -130 -396t-354 -154
t-354 154.5t-130 395.5v22z" />
    <glyph glyph-name="uni0474" unicode="&#x474;" horiz-adv-x="1387" 
d="M1319 1306q-50 0 -80 -31.5t-58 -111.5l-392 -1163h-169l-461 1314l-102 15v127h430v-127l-116 -20l298 -927l33 -121h6l33 121l253 805q49 156 114.5 222.5t173.5 66.5l50 -1l-1 -169h-12z" />
    <glyph glyph-name="uni0475" unicode="&#x475;" horiz-adv-x="1164" 
d="M1045 933q-29 0 -58.5 -26t-42.5 -68l-296 -839h-149l-331 940l-103 15v127h417v-127l-118 -20l190 -616l18 -77h6l19 77l149 535q80 247 255 247q67 0 109 -25l-22 -151q-14 8 -43 8z" />
    <glyph glyph-name="uni0476" unicode="&#x476;" horiz-adv-x="1387" 
d="M1319 1306q-50 0 -80 -32t-58 -111l-392 -1163h-169l-461 1314l-102 15v127h430v-127l-116 -20l298 -927l33 -121h6l33 121l253 805q48 157 114 223t174 66l50 -1l-1 -169h-12zM966 1544h-157l-240 261l2 5h211zM697 1549l-2 -5h-171l-299 260l3 6h228z" />
    <glyph glyph-name="uni0477" unicode="&#x477;" horiz-adv-x="1164" 
d="M1045 933q-29 0 -59 -26t-42 -68l-296 -839h-149l-331 940l-103 15v127h417v-127l-118 -20l190 -616l18 -77h6l19 77l149 535q80 247 255 247q67 0 109 -25l-22 -151q-14 8 -43 8zM864 1285h-157l-240 261l2 5h211zM595 1290l-2 -5h-171l-299 260l3 6h228z" />
    <glyph glyph-name="uni0478" unicode="&#x478;" horiz-adv-x="2607" 
d="M1171 740q1 254 -121 414t-332 161q-210 0 -326 -161t-116 -414v-23q0 -257 116 -417t327 -160q212 0 332 160t120 417v23zM1368 717q0 -318 -182 -528t-469 -210q-286 0 -462 210t-176 528v21q0 317 176 528t462 211q287 0 469 -211t182 -528v-21zM1728 -437
q-53 0 -117 16l20 155q-7 1 35 -2t53 -3q63 1 102 55t68 125l47 112l-357 918l-99 16v127h437v-127l-122 -20l187 -534l36 -138h6l225 672l-123 20v127h436v-127l-97 -15l-412 -1106q-41 -109 -118 -190t-207 -81z" />
    <glyph glyph-name="uni0479" unicode="&#x479;" horiz-adv-x="2311" 
d="M287 529q1 -172 73 -284t214 -112t214 112q73 112 73 284v22q0 170 -73 283t-215 113t-214 -113t-72 -283v-22zM90 551q0 239 130 395t354 156t354 -155t130 -396v-22q0 -242 -130 -396t-354 -154q-224 1 -354 155t-130 395v22zM1432 -437q-53 0 -117 16l20 155
q-7 1 35 -2t53 -3q63 1 102 55t68 125l47 112l-357 918l-99 16v127h437v-127l-122 -20l187 -534l36 -138h6l225 672l-123 20v127h436v-127l-97 -15l-412 -1106q-41 -109 -118 -190t-207 -81z" />
    <glyph glyph-name="uni047A" unicode="&#x47a;" horiz-adv-x="1445" 
d="M1171 740q1 254 -121 414q-91 121 -236 151v-105h-197v105q-137 -30 -225 -151q-116 -161 -116 -414v-23q0 -257 116 -417q87 -121 225 -150v107h197v-107q146 30 237 150q120 160 120 417v23zM1368 717q0 -318 -182 -528q-150 -172 -372 -203v-127h-197v127
q-217 30 -362 203q-176 210 -176 528v21q0 317 176 528q145 174 362 204v119h197v-119q222 -31 372 -204q182 -211 182 -528v-21z" />
    <glyph glyph-name="uni047B" unicode="&#x47b;" horiz-adv-x="1166" 
d="M301 529q1 -172 73 -284q34 -53 83 -80v86h197v-111q93 21 148 105q73 112 73 284v22q0 170 -73 283q-55 85 -148 106v-104h-197v80q-50 -28 -84 -82q-72 -113 -72 -283v-22zM104 551q0 239 130 395q89 107 223 141v119h197v-108q178 -20 288 -151q130 -155 130 -396v-22
q0 -242 -120 -384t-298 -163v-100h-197v112q-134 34 -223 140q-130 154 -130 395v22z" />
    <glyph glyph-name="uni047C" unicode="&#x47c;" horiz-adv-x="1742" 
d="M996 1639v-123l-165 -198l-80 66l58 115l-1 140h188zM1317 1756v-129h-47q-131 0 -280.5 61.5t-195.5 61.5t-74.5 -27t-28.5 -79v-18h-135v36q0 108 62 163t155 55t239.5 -62t259.5 -62h45zM535 -21q-180 0 -289.5 115.5t-109.5 334.5v576q0 218 109 333t284 111l6 -2
v-146q-91 0 -146.5 -76t-55.5 -220v-576q0 -145 55.5 -220.5t155.5 -75.5t166 65.5t66 192.5v432h198v-432q0 -126 66 -192t166 -66t155.5 75.5t55.5 220.5v576q0 144 -56 220t-147 76v146l6 2q174 4 284 -111t110 -333v-576q0 -219 -110.5 -334.5t-289.5 -115.5
q-239 0 -339 170q-102 -170 -340 -170z" />
    <glyph glyph-name="uni047D" unicode="&#x47d;" horiz-adv-x="1532" 
d="M926 1280v-123l-165 -198l-80 66l58 115l-1 140h188zM1247 1397v-129h-47q-131 0 -280.5 61.5t-195.5 61.5t-75 -27t-29 -79v-18h-134v36q0 108 62 163t155 55t239.5 -62t259.5 -62h45zM114 390v291q0 199 98 304t255 101l6 -3v-146q-74 0 -118 -65.5t-44 -190.5v-291
q0 -127 44 -192t126 -65t138 56t56 163v234h197v-234q0 -108 55 -163.5t137 -55.5t127 65.5t45 191.5v291q0 125 -45 190.5t-118 65.5v146l6 3q157 4 255.5 -101t98.5 -304v-291q0 -201 -99 -306t-261 -105q-210 0 -300 144q-94 -144 -300 -144q-162 0 -260.5 105t-98.5 306
z" />
    <glyph glyph-name="uni047E" unicode="&#x47e;" horiz-adv-x="1763" 
d="M144 391v1065h197v-1065q0 -126 55.5 -192t155.5 -66t166 65.5t66 192.5v1065h204v-1065q0 -126 61 -192t161 -66t160.5 66t60.5 192v1065h197v-1065q0 -201 -115.5 -306.5t-302.5 -105.5q-231 0 -326 173q-103 -173 -341 -173q-180 0 -289.5 105.5t-109.5 306.5z
M466 1688v109h821l2 -109h-332v-126h-178v126h-313z" />
    <glyph glyph-name="uni047F" unicode="&#x47f;" horiz-adv-x="1564" 
d="M150 352v730h197v-730q0 -108 44 -163.5t126 -55.5t138 56t56 163v730h198v-730q0 -108 49.5 -163.5t131.5 -55.5t132.5 56t50.5 163v730h197v-730q0 -182 -105 -277.5t-288 -95.5t-269 143q-95 -143 -299 -143q-162 0 -260.5 95.5t-98.5 277.5zM403 1348v109h821l3 -109
h-333v-128h-178v128h-313z" />
    <glyph glyph-name="uni0480" unicode="&#x480;" horiz-adv-x="1267" 
d="M786 -383h-196v368q-215 29 -345.5 198t-130.5 415v259q0 269 155.5 444.5t402.5 175.5t392.5 -131.5t141.5 -348.5l-2 -6h-189q0 153 -89.5 242t-253.5 89t-262.5 -133t-98.5 -330v-261q0 -199 98 -332t263 -133h114v-516z" />
    <glyph glyph-name="uni0481" unicode="&#x481;" horiz-adv-x="1058" 
d="M685 -383h-197v370q-181 31 -282.5 180.5t-101.5 352.5v42q0 227 127.5 383.5t346.5 156.5q182 0 301 -112t115 -275l-2 -6h-178q0 98 -68.5 168t-167.5 70q-137 0 -207 -115t-70 -270v-42q0 -159 69 -273t208 -114h107v-516z" />
    <glyph glyph-name="uni0482" unicode="&#x482;" horiz-adv-x="1138" 
d="M531 447l289 -172l-72 -125l-291 170l-181 -320h-173l225 398l-289 171l70 124l293 -171l203 364l-290 171l72 126l291 -171l186 330h170l-228 -407l293 -171l-76 -124l-288 170z" />
    <glyph glyph-name="uni0483" unicode="&#x483;" horiz-adv-x="1007" 
d="M331 1314v-126l-175 1v235h545l-1 108l175 -1v-217h-544z" />
    <glyph glyph-name="uni0484" unicode="&#x484;" horiz-adv-x="1042" 
d="M181 1433q113 0 259 62t239 62t155.5 -55t62.5 -163v-36h-134v18q0 52 -29.5 79t-75.5 27t-195.5 -62t-279.5 -62h-46v130h44z" />
    <glyph glyph-name="uni0485" unicode="&#x485;" horiz-adv-x="496" 
d="M126 1623h187l-1 -140l59 -116l-81 -66l-164 199v123z" />
    <glyph glyph-name="uni0486" unicode="&#x486;" horiz-adv-x="491" 
d="M371 1623v-123l-165 -199l-80 66l58 116l-1 140h188z" />
    <glyph glyph-name="uni0488" unicode="&#x488;" horiz-adv-x="2028" 
d="M419 156q96 0 153 -51.5t53 -130.5l-2 -6h-105q0 44 -24 72.5t-74 28.5t-73.5 -29t-23.5 -72h-106l-2 6q-5 78 51.5 130t152.5 52zM253 675q96 0 152.5 -51.5t52.5 -130.5l-2 -6h-104q0 44 -24 72.5t-74 28.5t-74 -29t-24 -72h-105l-2 6q-5 78 51.5 130t152.5 52z
M430 1178q96 0 152.5 -51.5t52.5 -130.5l-2 -6h-104q0 43 -24.5 72t-74.5 29t-73.5 -29t-23.5 -72h-106l-2 6q-5 79 52 130.5t153 51.5zM1006 -128q96 0 153 -51t53 -131l-2 -6h-104q0 44 -24.5 72.5t-74.5 28.5t-73.5 -28.5t-23.5 -72.5h-105l-2 6q-5 80 51 131t152 51z
M1583 156q96 0 152.5 -51.5t52.5 -130.5l-2 -6h-104q0 44 -24 72.5t-74 28.5t-74 -29t-24 -72h-105l-2 6q-5 78 51.5 130t152.5 52zM1780 675q96 0 152.5 -51.5t52.5 -130.5l-2 -6h-104q0 44 -24.5 72.5t-74.5 28.5t-73.5 -29t-23.5 -72h-105l-2 6q-5 78 51.5 130t152.5 52z
M1593 1178q96 0 153 -51.5t53 -130.5l-2 -6h-105q0 44 -24 72.5t-74 28.5t-73.5 -29t-23.5 -72h-106l-2 6q-5 78 51.5 130t152.5 52zM1002 1455q96 0 152.5 -51.5t52.5 -130.5l-2 -6h-104q0 43 -24.5 72t-74.5 29t-73.5 -29t-23.5 -72h-105l-2 6q-5 79 51.5 130.5
t152.5 51.5z" />
    <glyph glyph-name="uni0489" unicode="&#x489;" horiz-adv-x="1964" 
d="M1457 161l17 -2l149 -325l-66 -71l-197 299zM495 860l-17 2l-148 326l65 69l198 -299zM635 21l-2 -17l-320 -153l-69 69l294 200zM1319 1002l2 16l321 153l68 -68q-37 -23 -294 -200zM395 433l-13 -12l-333 124v98l346 -71v-139zM1559 631l13 12l333 -124v-98l-346 71
v139zM881 1126l-12 14l122 338h96l-70 -352h-136zM1076 -60l11 -14l-122 -339h-96l70 353h137z" />
    <glyph glyph-name="uni048A" unicode="&#x48a;" horiz-adv-x="1574" 
d="M600 1456v-127l-163 -28v-839l6 -2l700 749v92l-163 28v127h523v-127l-163 -28v-1147l163 -28v27h197v-149q0 -98 -49 -205t-132 -178l-111 74q95 145 95 305h-523v126l163 28v812l-6 2l-700 -750v-64l163 -28v-126h-523v126l163 28v1147l-163 28v127h523zM782 1600
q-138 0 -218 73q-81 73 -76 189l2 6h150q0 -64 34 -106t108 -42q73 0 108 42t35 106h151l2 -6q4 -116 -77 -189t-219 -73z" />
    <glyph glyph-name="uni048B" unicode="&#x48b;" horiz-adv-x="1396" 
d="M619 1082v-127l-163 -28v-611l6 -2l477 768h360v-127l-163 -28v-773l163 -28v27h197v-149q0 -98 -49 -205t-132 -178l-111 74q95 145 95 305h-523v126l163 28v612l-6 2l-477 -768h-359v126l163 28v773l-163 28v127h522zM708 1274q-138 0 -218 73q-81 73 -76 189l2 6h150
q0 -64 34 -106t108 -42q73 0 108 42t35 106h151l2 -6q4 -116 -77 -189t-219 -73z" />
    <glyph glyph-name="uni048C" unicode="&#x48c;" horiz-adv-x="1358" 
d="M593 1456v-127l-163 -28v-131h231v-155h-231v-155h359q234 0 362.5 -115t128.5 -311t-129 -315t-362 -119h-719v126l163 28v861h-213v155h213v131l-163 28v127h523zM430 705v-551h359q148 0 221 80t73 200t-73 195.5t-221 75.5h-359z" />
    <glyph glyph-name="uni048D" unicode="&#x48d;" horiz-adv-x="1198" 
d="M457 594v-440h269q106 0 156.5 62.5t50.5 153.5t-51 157.5t-156 66.5h-269zM457 1456h292v-155h-292v-553h269q192 0 298.5 -102.5t106.5 -267.5t-107.5 -271.5t-297.5 -106.5h-629v126l163 28v1147h-221v155h221v39l-163 29v126h360v-194z" />
    <glyph glyph-name="uni048E" unicode="&#x48e;" horiz-adv-x="1301" 
d="M431 738h309q80 0 138 23l-124 135l116 104l126 -137q39 66 39 171t-73.5 186t-221.5 81h-309v-563zM740 1456q233 0 362.5 -120t129.5 -309t-108 -303l119 -130l-115 -104l-132 143q-107 -49 -256 -49h-309v-430l163 -28v-126h-523v126l163 28v1147l-163 28v127h669z
" />
    <glyph glyph-name="uni048F" unicode="&#x48f;" horiz-adv-x="1261" 
d="M668 133q76 0 133 30l-127 141l116 105l117 -129q45 91 45 220v21q0 185 -72 303t-224 118t-231 -142v-527q77 -140 243 -140zM588 -416h-523v127l163 28v1188l-163 28v127h332l18 -132q111 152 311 152q201 0 312.5 -159.5t111.5 -421.5v-21q0 -229 -107 -371l84 -94
l-116 -105l-86 95q-84 -46 -196 -46q-197 0 -304 133v-373l163 -28v-127z" />
    <glyph glyph-name="uni0490" unicode="&#x490;" horiz-adv-x="1207" 
d="M1116 1790v-489h-696v-1147l163 -28v-126h-523v126l163 28v1147l-163 28v127h871l27 334h158z" />
    <glyph glyph-name="uni0491" unicode="&#x491;" horiz-adv-x="1073" 
d="M928 1283v-357h-506v-772l163 -28v-126h-523v126l163 28v773l-163 28v127h698l39 201h129z" />
    <glyph glyph-name="uni0492" unicode="&#x492;" horiz-adv-x="1216" 
d="M240 674h-193v155h193v472l-163 28v127h1056v-322h-169l-15 167h-512v-472h251v-155h-251v-520l163 -28v-126h-523v126l163 28v520z" />
    <glyph glyph-name="uni0493" unicode="&#x493;" horiz-adv-x="1075" 
d="M235 478h-153v154h153v295l-163 28v127h883v-279h-128l-13 123h-382v-294h290v-154h-290v-324l163 -28v-126h-523v126l163 28v324z" />
    <glyph glyph-name="uni0494" unicode="&#x494;" horiz-adv-x="1240" 
d="M437 668v-514l163 -28v-126h-523v126l163 28v1147l-163 28v127h1056v-322h-169l-15 167h-512v-468h121q284 0 442 -153.5t158 -420.5t-121.5 -407t-348.5 -136l-6 2l-2 142q151 0 216 102t65 293q-4 413 -403 413h-121z" />
    <glyph glyph-name="uni0495" unicode="&#x495;" horiz-adv-x="1147" 
d="M945 803h-128l-14 123h-381v-280h128q226 0 368.5 -128t142.5 -348q-2 -139 -99 -279t-288 -175l-51 149q129 35 185 112.5t55 208.5t-87 213t-226 82h-128v-327l163 -28v-126h-523v126l163 28v773l-163 28v127h851v-2h32v-277z" />
    <glyph glyph-name="uni0496" unicode="&#x496;" horiz-adv-x="2041" 
d="M1881 1295q-40 1 -74 -25t-73 -85l-279 -433l382 -605l146 -21v-485h-197v359h-264v126l78 13l-300 495h-175v-480l163 -28v-126h-522v126l163 28v480h-182l-301 -495l79 -13v-126h-462v126l146 21l388 614l-266 424q-39 59 -73 85t-74 25q-40 0 -93 -10l-29 138
q67 44 153 44q85 0 149 -40t133 -153l290 -474h142v501l-163 28v127h522v-127l-163 -28v-501h154l290 474q69 113 132 153t149 40t153 -44l-29 -138q-53 10 -93 10z" />
    <glyph glyph-name="uni0497" unicode="&#x497;" horiz-adv-x="1728" 
d="M1547 929q-67 0 -124 -91l-187 -280l277 -410l153 -22v-485h-197v359h-105l-281 459h-132v-305l163 -28v-126h-523v126l163 28v305h-133l-280 -459h-302v126l154 22l281 418l-181 272q-61 91 -135 91q-21 0 -76 -9l-28 134q37 24 67 36t91 11q62 0 124 -45t112 -128
l187 -303h119v302l-163 28v127h523v-127l-163 -28v-302h129l187 303q102 173 251 173q69 0 143 -47l-27 -134q-56 9 -87 9z" />
    <glyph glyph-name="uni0498" unicode="&#x498;" horiz-adv-x="1222" 
d="M921 402q0 262 -324 262h-164v156h164q154 0 228 66t74 179q1 113 -83 185t-259 72t-280 -107l-38 -205h-138v258q62 80 188 144t292 65q239 0 377 -108t138 -307q0 -101 -63 -184t-173 -131q126 -42 192 -129t66 -212q0 -200 -148 -314q-108 -82 -264 -104v-356h-197
v350q-163 16 -287 104q-150 107 -146 312l2 6h188q0 -114 88 -192t237 -79q149 1 239 75t91 194z" />
    <glyph glyph-name="uni0499" unicode="&#x499;" horiz-adv-x="1048" 
d="M527 632q193 0 193 150q0 72 -51 119t-149 47t-162 -49q-63 -49 -63 -119h-187l-2 6q-6 138 113 226t302 88t290 -82t107 -232q0 -73 -44 -134t-123 -96q187 -66 187 -251q0 -152 -116 -238q-82 -60 -201 -78v-357h-197v355q-120 17 -214 79q-126 86 -121 248l2 6h187
q0 -76 66 -132t172 -56t164 50q59 50 59 130q0 160 -212 160h-188v160h188z" />
    <glyph glyph-name="uni049A" unicode="&#x49a;" horiz-adv-x="1452" 
d="M71 1456h523v-127l-163 -28v-489h151l407 503l-109 14v127h462v-127l-137 -25l-445 -552l486 -601l137 -25v-485h-197v359h-281v126l111 14l-415 517h-170v-503l163 -28v-126h-523v126l163 28v1147l-163 28v127z" />
    <glyph glyph-name="uni049B" unicode="&#x49b;" horiz-adv-x="1264" 
d="M1070 929q-28 0 -64 -27t-63 -64l-209 -271l341 -416l139 -25v-485h-197v359h-66l-366 459h-128v-305l163 -28v-126h-523v126l163 28v773l-163 28v127h523v-127l-163 -28v-302h104l226 303q123 173 237 173q60 1 90 -11t68 -36l-28 -134q-55 9 -84 9z" />
    <glyph glyph-name="uni049C" unicode="&#x49c;" horiz-adv-x="1470" 
d="M1289 1295q-41 0 -72.5 -24.5t-64.5 -85.5l-234 -435l346 -604l138 -20v-126h-299l-330 634h-89v-219h-157v219h-97v-480l163 -28v-126h-523v126l163 28v1147l-163 28v127h523v-127l-163 -28v-501h97v267h157v-267h65l238 474q57 117 119 155t149 38t157 -44l-29 -138
q-53 10 -94 10z" />
    <glyph glyph-name="uni049D" unicode="&#x49d;" horiz-adv-x="1368" 
d="M1286 0h-272l-269 459h-44v-191h-157v191h-94v-305l163 -28v-126h-523v126l163 28v773l-163 28v127h523v-127l-163 -28v-302h94v211h157v-211h24l167 303q102 173 241 173q46 0 76 -11.5t68 -35.5l-28 -134q-55 9 -86 9q-57 0 -115 -91l-162 -263l280 -429l120 -20v-126z
" />
    <glyph glyph-name="uni049E" unicode="&#x49e;" horiz-adv-x="1472" 
d="M254 1017h-217v155h217v129l-163 28v127h523v-127l-163 -28v-129h227v-155h-227v-205h151l407 503l-109 14v127h462v-127l-137 -25l-445 -552l486 -601l137 -25v-126h-478v126l111 14l-415 517h-170v-503l163 -28v-126h-523v126l163 28v863z" />
    <glyph glyph-name="uni049F" unicode="&#x49f;" horiz-adv-x="1265" 
d="M39 1158v155h206v92l-163 28v127h360v-247h238v-155h-238v-502h126l231 286l-99 13v127h453v-127l-132 -26l-285 -340l347 -439l123 -24v-126h-449v126l101 13l-287 360h-129v-345l163 -28v-126h-523v126l163 28v1004h-206z" />
    <glyph glyph-name="uni04A0" unicode="&#x4a0;" horiz-adv-x="1787" 
d="M1580 1295q-35 0 -67.5 -25t-75.5 -85l-313 -436l484 -598l137 -25v-126h-478v126l111 14l-397 494h-188v-480l163 -28v-126h-523v126l163 28v1147h-393l-15 -166h-168v321h936v-127l-163 -28v-501h159l329 474q81 112 141 152.5t123 40.5t95.5 -11.5t68.5 -33.5
l-29 -139q-65 12 -100 12z" />
    <glyph glyph-name="uni04A1" unicode="&#x4a1;" horiz-adv-x="1564" 
d="M1537 0h-263l-366 459h-128v-305l163 -28v-126h-523v126l163 28v772h-318l-14 -165h-169v321h861v-127l-163 -28v-302h104l226 303q124 173 238 173q60 0 89.5 -11.5t67.5 -35.5l-28 -134q-55 9 -84 9t-64.5 -27t-62.5 -64l-209 -271l341 -416l139 -25v-126z" />
    <glyph glyph-name="uni04A2" unicode="&#x4a2;" horiz-adv-x="1573" 
d="M71 1456h523v-127l-163 -28v-503h706v503l-163 28v127h523v-127l-163 -28v-1147l163 -28v-485h-197v359h-326v126l163 28v489h-706v-489l163 -28v-126h-523v126l163 28v1147l-163 28v127z" />
    <glyph glyph-name="uni04A3" unicode="&#x4a3;" horiz-adv-x="1395" 
d="M97 1082h523v-127l-163 -28v-313h481v313l-163 28v127h524v-127l-163 -28v-773l163 -28v-485h-197v359h-327v126l163 28v306h-481v-306l163 -28v-126h-523v126l163 28v773l-163 28v127z" />
    <glyph glyph-name="uni04A4" unicode="&#x4a4;" horiz-adv-x="2045" 
d="M571 1456v-127l-163 -28v-503h706v503l-163 28v127h1027v-321h-168l-15 166h-452l-6 4l-26 -4v-1147l163 -28v-126h-523v126l163 28v489h-706v-489l163 -28v-126h-523v126l163 28v1147l-163 28v127h523z" />
    <glyph glyph-name="uni04A5" unicode="&#x4a5;" horiz-adv-x="1586" 
d="M1534 761h-169l-15 165h-226v-772l163 -28v-126h-524v126l163 28v306h-481v-306l163 -28v-126h-523v126l163 28v773l-163 28v127h523v-127l-163 -28v-313h481v313l-163 28v127h771v-321z" />
    <glyph glyph-name="uni04A6" unicode="&#x4a6;" horiz-adv-x="2127" 
d="M1342 668v-514l163 -28v-126h-523v126l163 28v1147h-708v-1147l163 -28v-126h-523v126l163 28v1147l-163 28v127h1428v-127l-163 -28v-468h56q284 0 442 -153.5t158 -420.5t-121.5 -407t-348.5 -136l-6 2l-2 142q151 0 216 102t65 293q-4 413 -403 413h-56z" />
    <glyph glyph-name="uni04A7" unicode="&#x4a7;" horiz-adv-x="1909" 
d="M1204 482h-80v-328l163 -28v-126h-523v126l163 28v772h-482v-772l163 -28v-126h-523v126l163 28v773l-163 28v127h1202v-127l-163 -28v-280h80q235 0 383 -128.5t148 -348.5q-2 -138 -99 -278.5t-288 -175.5l-51 149q241 64 241 305q-2 147 -93 229.5t-241 82.5z" />
    <glyph glyph-name="uni04A8" unicode="&#x4a8;" horiz-adv-x="1541" 
d="M791 698q0 -153 58.5 -271t169.5 -186h6q92 67 143 182t51 256v246q0 174 -57.5 281.5t-155.5 107.5t-156.5 -110.5t-58.5 -278.5v-227zM1428 130v-160q-224 0 -396 74q-142 -65 -312 -65q-273 0 -443.5 199.5t-170.5 500.5v161q0 273 125.5 453.5t322.5 175.5l6 -2
l1 -152q-119 0 -188.5 -133.5t-69.5 -339.5v-163q0 -236 113.5 -387.5t303.5 -151.5q65 0 127 14q-122 97 -187.5 237t-65.5 309v222q0 237 114 394.5t297 157.5t297 -154t114 -398v-243q0 -158 -56.5 -292.5t-159.5 -229.5q98 -27 228 -27z" />
    <glyph glyph-name="uni04A9" unicode="&#x4a9;" horiz-adv-x="1278" 
d="M942 550v108q0 124 -32.5 203.5t-87.5 74.5h-6q-57 5 -88 -66.5t-31 -191.5v-107q0 -212 145 -314h6q94 105 94 293zM1189 148v-160q-183 0 -321 57q-116 -66 -263 -66q-219 0 -356 168t-137 423v57q0 205 97 338.5t250 128.5l6 -2v-151q-72 0 -114 -87.5t-42 -224.5v-59
q0 -188 80 -309t216 -121q49 0 86 11q-191 162 -191 422v103q0 190 86 308.5t232 118.5t233.5 -127t87.5 -321v-105q0 -224 -126 -381q74 -21 176 -21z" />
    <glyph glyph-name="uni04AA" unicode="&#x4aa;" horiz-adv-x="1321" 
d="M1200 1009h-139l-37 206q-109 107 -285 107q-227 0 -349 -164t-122 -418v-23q0 -253 120 -419t331 -165q99 0 180 31t125 76l37 206h139v-259q-63 -81 -170 -135t-213 -67v-353h-197v354q-218 31 -367 203q-182 210 -182 528v21q0 320 179 530t469 209q166 -1 292 -65
t189 -144v-259z" />
    <glyph glyph-name="uni04AB" unicode="&#x4ab;" horiz-adv-x="1104" 
d="M575 133q99 1 173 61t74 148h177l2 -6q5 -140 -115 -240t-260 -115v-350h-197v365q-133 34 -215 137q-124 154 -124 387v42q0 232 125 386t372 154t393 -161l9 -240h-157l-43 170q-78 76 -224 76q-145 1 -211 -111t-67 -274v-42q0 -166 66 -276t222 -111z" />
    <glyph glyph-name="uni04AC" unicode="&#x4ac;" horiz-adv-x="1284" 
d="M1247 1456v-322h-168l-15 167h-323v-1147l163 -28v-485h-197v359h-326v126l163 28v1147h-324l-14 -167h-169v322h1210z" />
    <glyph glyph-name="uni04AD" unicode="&#x4ad;" horiz-adv-x="1186" 
d="M1102 1082v-322h-169l-15 169h-232v-775l163 -28v-485h-197v359h-326v126l163 28v775h-228l-15 -169h-168v322h1024z" />
    <glyph glyph-name="uni04AE" unicode="&#x4ae;" horiz-adv-x="1416" 
d="M852 1456h500v-127l-123 -19l-432 -798v-358l163 -28v-126h-522v126l163 28v373l-424 783l-122 19v127h500v-127l-157 -19l305 -594l305 594l-156 19v127z" />
    <glyph glyph-name="uni04AF" unicode="&#x4af;" horiz-adv-x="1086" 
d="M153 1094q74 0 110 -28t64 -113l208 -634l17 -84h6l21 84l201 615l-135 21v127h418v-127l-86 -14l-324 -881v-476h-197v467l-287 813q-15 38 -31 50t-37 12t-27 -1l-36 -6l-18 149q59 26 133 26z" />
    <glyph glyph-name="uni04B0" unicode="&#x4b0;" horiz-adv-x="1416" 
d="M852 1456h500v-127l-123 -19l-341 -629h138v-155h-222l-7 -14v-358l163 -28v-126h-522v126l163 28v372h-216v155h132l-340 629l-122 19v127h500v-127l-157 -19l305 -594l305 594l-156 19v127z" />
    <glyph glyph-name="uni04B1" unicode="&#x4b1;" horiz-adv-x="1086" 
d="M153 1094q74 0 110 -28t64 -113l208 -634l17 -84h6l21 84l201 615l-135 21v127h418v-127l-86 -14l-294 -799h196v-155h-226v-403h-197v403h-218v155h186l-255 722q-14 39 -30.5 50.5t-37.5 11.5h-23l-40 -7l-18 149q59 26 133 26z" />
    <glyph glyph-name="uni04B2" unicode="&#x4b2;" horiz-adv-x="1404" 
d="M53 1456h472v-127l-117 -13l291 -437l294 437l-117 13v127h475v-127l-131 -22l-404 -573l413 -586l132 -22v-485h-197v359h-274v126l115 13l-302 448l-303 -448l117 -13v-126h-474v126l131 22l414 586l-404 573l-131 22v127z" />
    <glyph glyph-name="uni04B3" unicode="&#x4b3;" horiz-adv-x="1192" 
d="M72 1082h424v-127l-98 -12l202 -260l203 261l-97 11v127h427v-127l-116 -23l-309 -385l318 -398l117 -23v-485h-197v359h-227v126l96 11l-212 272l-212 -272l97 -11v-126h-426v126l116 23l319 398l-309 385l-116 23v127z" />
    <glyph glyph-name="uni04B4" unicode="&#x4b4;" horiz-adv-x="1817" 
d="M1031 1456v-322h-169l-15 167h-158v-1147h708v1147l-163 28v127h523v-127l-163 -28v-1147h190v-505h-195v351h-1260v126l163 28v1147h-232l-14 -167h-169v322h954z" />
    <glyph glyph-name="uni04B5" unicode="&#x4b5;" horiz-adv-x="1574" 
d="M986 1082v-321h-168l-15 167h-167v-774h512v928h360v-127l-163 -28v-773h133l-20 -475h-175v321h-1007v126l163 28v774h-204l-15 -167h-169v321h935z" />
    <glyph glyph-name="uni04B6" unicode="&#x4b6;" horiz-adv-x="1526" 
d="M697 548q-227 0 -351 105t-124 343v305l-163 28v127h523v-127l-163 -28v-305q0 -164 69 -228t242 -64t375 55v542l-163 28v127h524v-127l-163 -28v-1147l163 -28v-485h-197v359h-327v126l163 28v449q-181 -55 -408 -55z" />
    <glyph glyph-name="uni04B7" unicode="&#x4b7;" horiz-adv-x="1355" 
d="M646 357q-196 0 -307 103t-111 305v164l-163 28v126h523v-126l-163 -28v-164q0 -252 221 -252q127 0 245 30v384l-163 28v127h523v-127l-163 -28v-773l163 -28v-485h-197v359h-326v126l163 28v232q-112 -29 -245 -29z" />
    <glyph glyph-name="uni04B8" unicode="&#x4b8;" horiz-adv-x="1527" 
d="M798 316h-158v234q-189 13 -294 103q-124 105 -124 343v305l-163 28v127h523v-127l-163 -28v-305q0 -164 69 -228q52 -48 152 -60v309h158v-310q147 9 307 52v542l-163 28v127h524v-127l-163 -28v-1147l163 -28v-126h-524v126l163 28v449q-151 -46 -307 -53v-234z" />
    <glyph glyph-name="uni04B9" unicode="&#x4b9;" horiz-adv-x="1352" 
d="M764 226h-158v134q-149 15 -241 100q-111 103 -111 305v164l-163 28v126h523v-126l-163 -28v-164q0 -212 155 -246v274h158v-276q77 7 153 26v384l-163 28v127h523v-127l-163 -28v-773l163 -28v-126h-523v126l163 28v232q-74 -19 -153 -25v-135z" />
    <glyph glyph-name="uni04BA" unicode="&#x4ba;" horiz-adv-x="1537" 
d="M794 752q-172 0 -375 -56v-541l163 -28v-127h-524v127l163 28v1147l-163 28v126h524v-126l-163 -28v-449q196 55 415 55t343.5 -105.5t124.5 -342.5v-305l163 -28v-127h-523v127l163 28v305q0 164 -69.5 228t-241.5 64z" />
    <glyph glyph-name="uni04BB" unicode="&#x4bb;" horiz-adv-x="1322" 
d="M908 680q0 262 -229 262q-81 0 -147 -38t-110 -105v-645l163 -28v-126h-523v126l163 28v1251l-163 28v127h360v-622q118 164 304 164q379 0 379 -424v-524l163 -28v-126h-523v126l163 28v526z" />
    <glyph glyph-name="uni04BC" unicode="&#x4bc;" horiz-adv-x="1539" 
d="M578 835h689v32q0 206 -80.5 329.5t-252.5 123.5t-264 -134.5t-92 -335.5v-15zM999 -23q-291 0 -454.5 172.5t-163.5 454.5v102q-158 20 -239 118t-77 252l2 5h150q0 -196 164 -235v4q0 271 156.5 448t385.5 177q264 0 402.5 -177.5t138.5 -488.5v-109h-886v-96
q0 -211 104 -342t317 -131q108 0 185 23t150 61l49 -139q-50 -36 -146 -67.5t-238 -31.5z" />
    <glyph glyph-name="uni04BD" unicode="&#x4bd;" horiz-adv-x="1311" 
d="M696 947q-110 0 -180.5 -83.5t-86.5 -209.5l2 -5h499v26q0 116 -62 194t-172 78zM724 -21q-236 0 -369.5 150.5t-133.5 390.5v17q-211 68 -211 330h157q0 -121 67 -174q37 182 164 295.5t286 113.5q218 0 330.5 -132t112.5 -352v-123h-702l-3 -5q3 -156 79 -256.5
t213 -100.5q188 0 306 107l77 -128q-137 -133 -373 -133z" />
    <glyph glyph-name="uni04BE" unicode="&#x4be;" horiz-adv-x="1539" 
d="M578 835h689v32q0 205 -81 329q-80 124 -252 124t-264 -134t-92 -336v-15zM1079 -364h-197v349q-208 29 -338 165q-164 172 -163 454v102q-158 20 -239 118t-77 252l2 5h150q0 -196 164 -235v4q1 271 157 448t385 177q265 1 403 -177t138 -489v-109h-886v-96
q0 -211 104 -342t317 -131q108 0 185 23t150 61l49 -139q-50 -36 -132 -63t-172 -33v-344z" />
    <glyph glyph-name="uni04BF" unicode="&#x4bf;" horiz-adv-x="1311" 
d="M696 947q-110 1 -181 -83q-70 -84 -86 -210l2 -5h499v26q0 116 -62 194t-172 78zM812 -362h-197v349q-159 27 -261 143q-134 150 -133 390v17q-211 68 -211 330h157q0 -121 67 -174q37 181 164 295t286 114q218 0 330 -132t113 -352v-123h-702l-3 -5q3 -156 79 -256
t213 -101q188 0 306 107l77 -128q-109 -105 -285 -127v-347z" />
    <glyph glyph-name="uni04C0" unicode="&#x4c0;" horiz-adv-x="662" 
d="M70 1456h523v-127l-163 -28v-1147l163 -28v-126h-523v126l163 28v1147l-163 28v127z" />
    <glyph glyph-name="uni04C1" unicode="&#x4c1;" horiz-adv-x="2041" 
d="M1881 1295q-40 1 -74 -25t-73 -85l-279 -433l382 -605l146 -21v-126h-461v126l78 13l-300 495h-175v-480l163 -28v-126h-522v126l163 28v480h-182l-301 -495l79 -13v-126h-462v126l146 21l388 614l-266 424q-39 59 -73 85t-74 25q-40 0 -93 -10l-29 138q67 44 153 44
q85 0 149 -40t133 -153l290 -474h142v501l-163 28v127h522v-127l-163 -28v-501h154l290 474q69 113 132 153t149 40t153 -44l-29 -138q-53 10 -93 10zM1022 1598q-138 0 -218 73q-81 73 -76 189l2 6h150q0 -64 34 -106t108 -42q73 0 108 42t35 106h151l2 -6q4 -116 -77 -189
t-219 -73z" />
    <glyph glyph-name="uni04C2" unicode="&#x4c2;" horiz-adv-x="1728" 
d="M1547 929q-67 0 -124 -91l-187 -280l277 -410l153 -22v-126h-302l-281 459h-132v-305l163 -28v-126h-523v126l163 28v305h-133l-280 -459h-302v126l154 22l281 418l-181 272q-61 91 -135 91q-21 0 -76 -9l-28 134q37 24 67 36t91 11q62 0 124 -45t112 -128l187 -303h119
v302l-163 28v127h523v-127l-163 -28v-302h129l187 303q102 173 251 173q69 0 143 -47l-27 -134q-56 9 -87 9zM846 1274q-138 0 -218 73q-81 73 -76 189l2 6h150q0 -64 34 -106t108 -42q73 0 108 42t35 106h151l2 -6q4 -116 -77 -189t-219 -73z" />
    <glyph glyph-name="uni04C3" unicode="&#x4c3;" horiz-adv-x="1426" 
d="M430 664v-510l163 -28v-126h-523v126l163 28v1147l-163 28v127h523v-127l-163 -28v-471h127l521 626h253v-127l-154 -27l-399 -476q246 -23 381.5 -173.5t135.5 -406.5t-122 -396.5t-349 -136.5l-6 2l-2 142q151 0 216.5 101.5t65.5 293.5q-4 412 -404 412h-264z" />
    <glyph glyph-name="uni04C4" unicode="&#x4c4;" horiz-adv-x="1278" 
d="M617 459h-167v-305l163 -28v-126h-523v126l163 28v773l-163 28v127h523v-127l-163 -28v-302h84l348 457h262v-127l-148 -26l-257 -315q188 -28 298 -139.5t110 -298.5q-2 -133 -98.5 -266.5t-286.5 -167.5l-52 150q241 60 241 284q-2 144 -90.5 213.5t-243.5 69.5z" />
    <glyph glyph-name="uni04C5" unicode="&#x4c5;" horiz-adv-x="1512" 
d="M109 0h-52v154h40q135 0 191 138t70 478l24 532l-156 27v127h1215v-127l-163 -28v-1147l163 -28v27h197v-149q0 -98 -49 -205t-132 -178l-111 74q95 145 95 305h-523v126l163 28v1147h-503l-24 -531q-18 -410 -114 -590t-331 -180z" />
    <glyph glyph-name="uni04C6" unicode="&#x4c6;" horiz-adv-x="1316" 
d="M499 926v-306q-1 -320 -85 -470t-289 -150h-56l3 168l41 1q105 0 147 103t42 348v307l-163 28v127h1087v-127l-163 -28v-773l163 -28v27h197v-149q0 -98 -49 -205t-132 -178l-111 74q95 145 95 305h-523v126l163 28v772h-367z" />
    <glyph glyph-name="uni04C7" unicode="&#x4c7;" horiz-adv-x="1563" 
d="M1012 -282q62 0 96.5 51.5t34.5 141.5v732h-706v-489l163 -28v-126h-523v126l163 28v1147l-163 28v127h523v-127l-163 -28v-503h706v503l-163 28v127h523v-127l-163 -28v-1390q0 -167 -86 -257.5t-240 -90.5q-56 0 -112 18l14 150q34 -13 96 -13z" />
    <glyph glyph-name="uni04C8" unicode="&#x4c8;" horiz-adv-x="1368" 
d="M801 -282q62 0 96 51.5t34 141.5v549h-481v-306l163 -28v-126h-523v126l163 28v773l-163 28v127h523v-127l-163 -28v-313h481v313l-163 28v127h524v-127l-163 -28v-1016q0 -167 -86.5 -257.5t-240.5 -90.5q-56 0 -112 18l15 150q34 -13 96 -13z" />
    <glyph glyph-name="uni04C9" unicode="&#x4c9;" horiz-adv-x="1573" 
d="M71 1456h523v-127l-163 -28v-503h706v503l-163 28v127h523v-127l-163 -28v-1147l163 -28v27h197v-149q0 -98 -49 -205t-132 -178l-111 74q95 145 95 305h-523v126l163 28v489h-706v-489l163 -28v-126h-523v126l163 28v1147l-163 28v127z" />
    <glyph glyph-name="uni04CA" unicode="&#x4ca;" horiz-adv-x="1395" 
d="M97 1082h523v-127l-163 -28v-313h481v313l-163 28v127h524v-127l-163 -28v-773l163 -28v27h197v-149q0 -98 -49 -205t-132 -178l-111 74q95 145 95 305h-524v126l163 28v306h-481v-306l163 -28v-126h-523v126l163 28v773l-163 28v127z" />
    <glyph glyph-name="uni04CB" unicode="&#x4cb;" horiz-adv-x="1526" 
d="M697 548q-227 0 -351 105t-124 343v305l-163 28v127h523v-127l-163 -28v-305q0 -164 69 -228t242 -64t375 55v542l-163 28v127h524v-127l-163 -28v-1147l163 -28v-126h-327v-359h-197v485l163 28v449q-181 -55 -408 -55z" />
    <glyph glyph-name="uni04CC" unicode="&#x4cc;" horiz-adv-x="1355" 
d="M646 357q-196 0 -307 103t-111 305v164l-163 28v126h523v-126l-163 -28v-164q0 -252 221 -252q127 0 245 30v384l-163 28v127h523v-127l-163 -28v-773l163 -28v-126h-291v-359h-197v359h-35v126l163 28v232q-112 -29 -245 -29z" />
    <glyph glyph-name="uni04CD" unicode="&#x4cd;" horiz-adv-x="1905" 
d="M594 0h-523v126l163 28v1147l-163 28v127h415l464 -1183h6l463 1183h416v-127l-163 -28v-1147l163 -28v27h197v-149q0 -98 -49 -205t-132 -178l-111 74q95 145 95 305h-523v126l163 28v422l19 590l-5 1l-471 -1167h-131l-471 1166l-5 -1l20 -589v-422l163 -28v-126z" />
    <glyph glyph-name="uni04CE" unicode="&#x4ce;" horiz-adv-x="1724" 
d="M1635 1082v-127l-163 -28v-773l163 -28v27h197v-149q0 -98 -49 -205t-132 -178l-111 74q95 145 95 305h-523v126l163 28v597l-6 2l-332 -753h-136l-338 769l-6 -2v-613l163 -28v-126h-523v126l163 28v773l-163 28v127h417l352 -824h6l353 824h410z" />
    <glyph glyph-name="uni04CF" unicode="&#x4cf;" horiz-adv-x="662" 
d="M70 1456h523v-127l-163 -28v-1147l163 -28v-126h-523v126l163 28v1147l-163 28v127z" />
    <glyph glyph-name="uni04D0" unicode="&#x4d0;" 
d="M522 578h462l-226 625h-6zM1448 0h-418v126l110 19l-96 268h-583l-99 -268l110 -19v-126h-417v126l108 15l509 1315h169l500 -1315l107 -15v-126zM748 1599q-138 0 -218 73q-81 73 -76 189l2 6h150q0 -65 34 -107t108 -41q73 -1 108 41t35 107h151l2 -6q4 -116 -77 -189
t-219 -73z" />
    <glyph glyph-name="uni04D1" unicode="&#x4d1;" horiz-adv-x="1128" 
d="M301 290q0 -146 177 -146q98 0 179 47t116 113v178h-210q-121 0 -191 -56t-71 -136zM558 1102q184 0 298 -94t114 -269v-521q0 -51 3 -81l80 -11v-126h-258q-17 85 -21 149q-56 -73 -142 -121t-183 -49q-169 1 -257 83t-88 234t124 236t342 83h203v126q0 95 -60 151
q-61 56 -151 55q-163 0 -238 -71l-21 -114h-152v210q163 130 407 130zM546 1275q-138 0 -218 73q-81 73 -76 189l2 6h150q0 -65 34 -107t108 -41q73 -1 108 41t35 107h151l2 -6q4 -116 -77 -189t-219 -73z" />
    <glyph glyph-name="uni04D2" unicode="&#x4d2;" 
d="M522 578h462l-226 625h-6zM1448 0h-418v126l110 19l-96 268h-583l-99 -268l110 -19v-126h-417v126l108 15l509 1315h169l500 -1315l107 -15v-126zM613 1604h-218v200h218v-200zM1083 1604h-218v200h218v-200z" />
    <glyph glyph-name="uni04D3" unicode="&#x4d3;" horiz-adv-x="1128" 
d="M301 290q0 -146 177 -146q98 0 179 47t116 113v178h-210q-121 0 -191 -56t-71 -136zM558 1102q184 0 298 -94t114 -269v-521q0 -51 3 -81l80 -11v-126h-258q-17 85 -21 149q-56 -73 -142 -121t-183 -49q-169 1 -257 83t-88 234t124 236t342 83h203v126q0 95 -60 151
q-61 56 -151 55q-163 0 -238 -71l-21 -114h-152v210q163 130 407 130zM411 1280h-218v200h218v-200zM881 1280h-218v200h218v-200z" />
    <glyph glyph-name="uni04D4" unicode="&#x4d4;" horiz-adv-x="2096" 
d="M651 529h446l-31 710l-5 2zM1952 1456v-322h-168l-15 167h-508l20 -466h590v-155h-584l22 -526h522l16 167h167v-321h-1058v126l156 27l-8 197h-556l-121 -210l82 -14v-126h-458v126l141 20l793 1310h967z" />
    <glyph glyph-name="uni04D5" unicode="&#x4d5;" horiz-adv-x="1795" 
d="M1261 947q-121 -1 -190 -85t-80 -217l2 -5h509v31q0 122 -60 199t-181 77zM480 133q86 0 170 43q82 43 125 100v217h-227q-120 0 -187 -56q-67 -55 -67 -133t50 -124t136 -47zM446 -21q-164 0 -256 87q-92 88 -93 242q1 154 115 240t334 87h229v85q1 106 -51 166t-152 61
q-100 0 -162 -55q-61 -55 -61 -133l-188 18l-2 6q-5 139 110 229t305 90q236 0 339 -158q135 158 345 158t326 -130t115 -358v-119h-710l-2 -5q1 -159 79 -258t234 -99q104 -1 170 27t144 79l68 -138q-149 -122 -382 -122q-271 0 -409 186q-56 -79 -168 -133
q-113 -54 -277 -53z" />
    <glyph glyph-name="uni04D6" unicode="&#x4d6;" horiz-adv-x="1306" 
d="M71 0v126l163 28v1147l-163 28v127h1118v-350h-169l-16 195h-573v-471h557v-155h-557v-521h585l16 195h168v-349h-1129zM642 1600q-138 0 -218 73q-81 73 -76 189l2 6h150q0 -64 34 -106t108 -42q73 0 108 42t35 106h151l2 -6q4 -116 -77 -189t-219 -73z" />
    <glyph glyph-name="uni04D7" unicode="&#x4d7;" horiz-adv-x="1101" 
d="M564 947q-110 1 -180 -83t-86 -210l2 -5h499v26q0 116 -62 194q-63 78 -173 78zM593 -21q-235 1 -369 151t-134 390v44q0 230 138 384t340 154q204 0 316 -132t112 -352v-123h-702l-3 -5q3 -156 79 -256t213 -101q188 0 306 107l77 -128q-137 -133 -373 -133zM546 1275
q-138 0 -218 73q-81 73 -76 189l2 6h150q0 -65 34 -107t108 -41q73 -1 108 41t35 107h151l2 -6q4 -116 -77 -189t-219 -73z" />
    <glyph glyph-name="uni04D8" unicode="&#x4d8;" horiz-adv-x="1402" 
d="M699 133q172 0 274.5 137.5t109.5 348.5h-808v-33q0 -208 99 -330.5t325 -122.5zM622 1477q310 0 484.5 -184.5t174.5 -484.5v-163q0 -290 -169 -478t-413 -188q-304 0 -462.5 176.5t-158.5 488.5v110h1006v54q0 227 -115 370.5t-347 143.5q-114 0 -195 -23.5t-160 -60.5
l-49 139q52 35 153 67.5t251 32.5z" />
    <glyph glyph-name="uni04D9" unicode="&#x4d9;" horiz-adv-x="1115" 
d="M534 135q110 1 180 83t86 209l-2 5h-498v-25q0 -117 62 -195t172 -77zM506 1103q235 0 369 -151t134 -390v-44q1 -232 -137 -385t-342 -153t-315 132q-112 131 -112 352v123h701l3 5q-3 155 -79 256t-212 101q-185 0 -306 -108l-77 129q138 133 373 133z" />
    <glyph glyph-name="uni04DA" unicode="&#x4da;" horiz-adv-x="1402" 
d="M699 133q173 -1 275 137t109 349h-808v-33q0 -208 99 -330t325 -123zM622 1477q310 -1 484 -185t175 -484v-163q0 -290 -169 -478t-413 -188q-305 1 -463 177t-158 488v110h1006v54q0 226 -115 370t-347 144q-114 0 -195 -24t-160 -60l-49 139q52 35 153 67t251 33z
M531 1600h-218v200h218v-200zM1001 1600h-218v200h218v-200z" />
    <glyph glyph-name="uni04DB" unicode="&#x4db;" horiz-adv-x="1115" 
d="M534 135q110 1 180 83t86 209l-2 5h-498v-25q0 -117 62 -195t172 -77zM506 1103q235 0 369 -151t134 -390v-44q1 -232 -137 -385t-342 -153t-315 132q-112 131 -112 352v123h701l3 5q-3 155 -79 256t-212 101q-185 0 -306 -108l-77 129q138 133 373 133zM413 1284h-218
v200h218v-200zM883 1284h-218v200h218v-200z" />
    <glyph glyph-name="uni04DC" unicode="&#x4dc;" horiz-adv-x="2041" 
d="M1881 1295q-40 1 -74 -25t-73 -85l-279 -433l382 -605l146 -21v-126h-461v126l78 13l-300 495h-175v-480l163 -28v-126h-522v126l163 28v480h-182l-301 -495l79 -13v-126h-462v126l146 21l388 614l-266 424q-39 59 -73 85t-74 25q-40 0 -93 -10l-29 138q67 44 153 44
q85 0 149 -40t133 -153l290 -474h142v501l-163 28v127h522v-127l-163 -28v-501h154l290 474q69 113 132 153t149 40t153 -44l-29 -138q-53 10 -93 10zM887 1603h-218v200h218v-200zM1357 1603h-218v200h218v-200z" />
    <glyph glyph-name="uni04DD" unicode="&#x4dd;" horiz-adv-x="1728" 
d="M1547 929q-67 0 -124 -91l-187 -280l277 -410l153 -22v-126h-302l-281 459h-132v-305l163 -28v-126h-523v126l163 28v305h-133l-280 -459h-302v126l154 22l281 418l-181 272q-61 91 -135 91q-21 0 -76 -9l-28 134q37 24 67 36t91 11q62 0 124 -45t112 -128l187 -303h119
v302l-163 28v127h523v-127l-163 -28v-302h129l187 303q102 173 251 173q69 0 143 -47l-27 -134q-56 9 -87 9zM711 1279h-218v200h218v-200zM1181 1279h-218v200h218v-200z" />
    <glyph glyph-name="uni04DE" unicode="&#x4de;" horiz-adv-x="1222" 
d="M921 402q0 262 -324 262h-164v156h164q154 0 228 66t74 179q1 113 -83 185t-259 72t-280 -107l-38 -205h-138v258q62 80 188 144t292 65q239 0 377 -108t138 -307q0 -101 -63 -184t-173 -131q126 -42 192 -129t66 -212q0 -200 -148 -314t-374 -113q-224 0 -374 107
t-146 312l2 6h188q0 -114 88 -192t237 -79q149 1 239 75t91 194zM453 1604h-218v200h218v-200zM923 1604h-218v200h218v-200z" />
    <glyph glyph-name="uni04DF" unicode="&#x4df;" horiz-adv-x="1048" 
d="M527 632q193 0 193 150q0 72 -51 119t-149 47t-162 -49q-63 -49 -63 -119h-187l-2 6q-6 138 113 226t302 88t290 -82t107 -232q0 -73 -44 -134t-123 -96q187 -66 187 -251q0 -152 -116 -238t-301 -86q-185 -1 -311 85t-121 248l2 6h187q0 -76 66 -132t172 -56t164 50
q59 50 59 130q0 160 -212 160h-188v160h188zM374 1282h-218v200h218v-200zM844 1282h-218v200h218v-200z" />
    <glyph glyph-name="uni04E0" unicode="&#x4e0;" horiz-adv-x="1124" 
d="M121 1134v322h869l1 -120l-410 -491q220 -13 340.5 -126t120.5 -313t-137.5 -313.5t-343.5 -113.5t-344.5 107t-133.5 312l2 6h189q0 -114 76 -192.5t206 -78.5t209.5 74.5t79.5 210.5t-81 208t-240 72h-147v154l377 444l-2 5h-448l-14 -167h-169z" />
    <glyph glyph-name="uni04E1" unicode="&#x4e1;" horiz-adv-x="1129" 
d="M1040 30q0 -197 -137.5 -311t-343.5 -114t-344.5 107.5t-133.5 310.5l2 6h189q0 -112 76 -190.5t206 -78.5t209.5 74.5t79.5 210.5t-81 207t-241 71h-148v154l358 444l-3 5h-426l-14 -166h-169v322h869l1 -120l-396 -493q213 -16 330 -129t117 -310z" />
    <glyph glyph-name="uni04E2" unicode="&#x4e2;" horiz-adv-x="1574" 
d="M600 1456v-127l-163 -28v-839l6 -2l700 749v92l-163 28v127h523v-127l-163 -28v-1147l163 -28v-126h-523v126l163 28v812l-6 2l-700 -750v-64l163 -28v-126h-523v126l163 28v1147l-163 28v127h523zM1149 1650h-721v146h721v-146z" />
    <glyph glyph-name="uni04E3" unicode="&#x4e3;" horiz-adv-x="1396" 
d="M619 1082v-127l-163 -28v-611l6 -2l477 768h360v-127l-163 -28v-773l163 -28v-126h-523v126l163 28v612l-6 2l-477 -768h-359v126l163 28v773l-163 28v127h522zM1075 1324h-721v146h721v-146z" />
    <glyph glyph-name="uni04E4" unicode="&#x4e4;" horiz-adv-x="1574" 
d="M600 1456v-127l-163 -28v-839l6 -2l700 749v92l-163 28v127h523v-127l-163 -28v-1147l163 -28v-126h-523v126l163 28v812l-6 2l-700 -750v-64l163 -28v-126h-523v126l163 28v1147l-163 28v127h523zM647 1605h-218v200h218v-200zM1117 1605h-218v200h218v-200z" />
    <glyph glyph-name="uni04E5" unicode="&#x4e5;" horiz-adv-x="1396" 
d="M619 1082v-127l-163 -28v-611l6 -2l477 768h360v-127l-163 -28v-773l163 -28v-126h-523v126l163 28v612l-6 2l-477 -768h-359v126l163 28v773l-163 28v127h522zM573 1279h-218v200h218v-200zM1043 1279h-218v200h218v-200z" />
    </font>
</defs>
</svg>
