<?xml version="1.0" encoding="utf-8"?>
<!-- Generated by IcoMoon.io -->
<!DOCTYPE svg PUBLIC "-//W3C//DTD SVG 1.1//EN" "http://www.w3.org/Graphics/SVG/1.1/DTD/svg11.dtd">
<svg version="1.1" xmlns="http://www.w3.org/2000/svg" xmlns:xlink="http://www.w3.org/1999/xlink" width="32" height="32" viewBox="0 0 32 32">
<path d="M13.696 0.192c2.528-0.384 5.12-0.16 7.52 0.672 3.040 1.056 5.76 3.072 7.68 5.664 1.6 2.208 2.656 4.832 2.944 7.552 0.416 3.328-0.256 6.816-1.952 9.728-1.696 3.040-4.384 5.472-7.584 6.816-3.232 1.408-6.944 1.664-10.368 0.768s-6.496-2.976-8.64-5.792c-1.856-2.4-2.976-5.376-3.2-8.416-0.256-3.52 0.64-7.104 2.592-10.016 2.464-3.744 6.56-6.368 11.008-6.976zM11.072 7.36c-1.248 1.312-2.048 2.976-2.528 4.704-0.512 2.016-0.544 4.128-0.16 6.176 0.448 2.080 1.408 4.128 2.944 5.632 1.056 1.056 2.432 1.856 3.936 2.016 1.664 0.256 3.392-0.32 4.704-1.312 1.92-1.472 3.136-3.712 3.68-6.016 0.672-3.104 0.32-6.496-1.216-9.312-0.704-1.152-1.6-2.272-2.72-3.040s-2.464-1.184-3.808-1.152c-1.856 0.032-3.584 0.96-4.832 2.304zM11.488 10.208c0.96-1.504 2.656-2.432 4.384-2.784-1.248 0.768-2.304 1.824-3.136 3.040-0.928 1.44-1.568 3.008-2.080 4.608l-0.128 0.096c-0.16-1.696 0-3.52 0.96-4.96z"></path>
</svg>
