<?xml version="1.0" encoding="utf-8"?>
<!-- Generated by IcoMoon.io -->
<!DOCTYPE svg PUBLIC "-//W3C//DTD SVG 1.1//EN" "http://www.w3.org/Graphics/SVG/1.1/DTD/svg11.dtd">
<svg version="1.1" xmlns="http://www.w3.org/2000/svg" xmlns:xlink="http://www.w3.org/1999/xlink" width="32" height="32" viewBox="0 0 32 32">
<path d="M11.936 0.512c1.856-0.48 3.776-0.576 5.664-0.416 2.88 0.256 5.696 1.344 8 3.104 2.368 1.728 4.192 4.16 5.28 6.88 0.64 1.504 0.928 3.104 1.12 4.704v2.016c-0.16 3.168-1.28 6.272-3.2 8.8-2.24 2.944-5.504 5.056-9.12 5.888-3.296 0.768-6.848 0.512-9.984-0.864-4.608-1.952-8.192-6.208-9.28-11.104-0.256-1.088-0.384-2.24-0.416-3.36v-0.416c0.064-3.168 1.024-6.272 2.848-8.864 2.144-3.104 5.44-5.408 9.088-6.368zM15.488 4.576c-0.448 0.704-0.96 1.376-1.12 2.176-0.096 0.832-0.032 1.664 0.096 2.464-0.416 0.16-0.832 0.384-1.216 0.608-0.288-0.448-0.64-0.864-1.12-1.024-0.736-0.224-1.536-0.192-2.208 0.16-1.376 0.704-2.528 1.792-3.488 3.008-0.352 0.512-0.8 0.992-0.736 1.632 0.192 0 0.384 0.032 0.544 0 1.856-0.416 3.52-1.376 5.28-2.080-1.024 1.408-1.6 3.136-1.696 4.896-0.192 1.28 0.128 2.56 0.608 3.712-0.864 0.8-1.728 1.664-2.272 2.752-0.224 0.448-0.384 0.992-0.192 1.504 0.192 0.48 0.736 0.704 1.216 0.8 0.448 0.032 0.896-0.192 1.184-0.512 0.608-0.704 0.96-1.6 1.184-2.496 0.768 0.992 1.6 1.984 2.656 2.656 0.672 0.448 1.504 0.768 2.336 0.704 1.184-0.16 2.144-0.96 2.912-1.792 0.48-0.448 0.8-1.024 1.216-1.472 0.32 0.928 0.64 1.984 1.472 2.624 0.64 0.576 1.664 0.256 2.080-0.448 0.256-0.576 0.064-1.28-0.256-1.792-0.576-0.928-1.312-1.696-2.080-2.432-0.16-0.128 0-0.288 0.032-0.448 0.288-0.768 0.48-1.568 0.544-2.4 0-2.016-0.512-4.064-1.664-5.728 1.536 0.736 3.104 1.504 4.768 1.92 0.224 0.064 0.416 0.064 0.64 0.032 0-0.256 0-0.512-0.16-0.736-0.448-0.8-1.088-1.536-1.728-2.176-0.8-0.768-1.664-1.472-2.688-1.888-1.024-0.352-2.336-0.096-2.88 0.896-0.352-0.192-0.736-0.352-1.088-0.512 0.16-0.768 0.16-1.568 0.096-2.368-0.096-0.576-0.448-1.12-0.768-1.632-0.224-0.352-0.448-0.768-0.8-1.056-0.32-0.16-0.544 0.256-0.704 0.448zM15.2 10.304c0.992-0.256 2.112-0.064 2.976 0.512 1.44 0.896 2.336 2.496 2.752 4.096 0.256 1.12 0.416 2.272 0.16 3.392-0.416 1.536-1.216 2.976-2.208 4.192-0.64 0.704-1.312 1.44-2.24 1.728-0.576 0.192-1.184-0.096-1.664-0.384-0.832-0.544-1.536-1.312-2.144-2.080-0.736-1.024-1.376-2.144-1.664-3.392-0.224-0.832-0.16-1.728-0.032-2.56 0.224-1.6 0.896-3.168 2.048-4.32 0.576-0.544 1.248-0.992 2.016-1.184zM15.68 11.84c0.608 0.768 0.896 1.888 0.448 2.816-0.416 0.864-1.44 1.152-2.080 1.824-0.64 0.832-0.704 2.048-0.192 2.944 0.352 0.608 0.992 1.024 1.632 1.248 0.736 0.288 1.536 0.128 2.24-0.16 0.64-0.256 0.928-0.992 0.96-1.632 0.032-0.864-0.256-1.728-0.576-2.496-0.128-0.224-0.16-0.512-0.384-0.64 0.064 0.704 0.224 1.536-0.256 2.144-0.192 0.288-0.608 0.288-0.8 0-0.352-0.384-0.576-1.056-0.192-1.504 0.448-0.48 1.056-0.864 1.248-1.536 0.128-0.576 0.128-1.28-0.288-1.76-0.48-0.576-1.056-1.088-1.76-1.248zM14.432 18.976c-0.32-0.512-0.192-1.152 0-1.696 0.032 0.768 0.256 1.568 0.8 2.144 0.256 0.256 0.576 0.416 0.864 0.608-0.64-0.128-1.344-0.448-1.664-1.056z"></path>
</svg>
