<?xml version="1.0" encoding="utf-8"?>
<!-- Generated by IcoMoon.io -->
<!DOCTYPE svg PUBLIC "-//W3C//DTD SVG 1.1//EN" "http://www.w3.org/Graphics/SVG/1.1/DTD/svg11.dtd">
<svg version="1.1" xmlns="http://www.w3.org/2000/svg" xmlns:xlink="http://www.w3.org/1999/xlink" width="32" height="32" viewBox="0 0 32 32">
<path d="M13.344 11.456c0.768-0.64 1.728-1.12 2.784-1.088 1.024-0.032 1.952 0.512 2.752 1.152-0.288 0.864-0.832 1.632-1.152 2.464-0.064 0.032-0.128 0.096-0.192 0.128-0.96-0.032-1.952 0-2.944 0-0.352-0.8-0.736-1.6-1.12-2.4-0.064-0.096-0.096-0.16-0.128-0.256zM11.008 16.992c0.032-1.76 0.64-3.488 1.696-4.896 0.32 0.832 0.832 1.6 1.12 2.432-0.096 0.384-0.256 0.768-0.384 1.12-0.16 0.448-0.352 0.896-0.512 1.344-0.64 0-1.28 0-1.92 0zM18.56 14.24c0.256-0.576 0.928-1.92 0.96-2.016 0.448 0.608 0.8 1.28 1.056 1.984 0.032 0.096 0.064 0.192 0.128 0.32 0.288 0.8 0.352 1.632 0.448 2.464-0.512 0-1.024 0-1.536 0-0.352-0.8-0.768-1.536-1.12-2.336-0.064-0.128 0-0.288 0.064-0.416zM14.592 14.976c1.024-0.032 2.048-0.064 3.072 0 0.352 0.672 0.672 1.376 1.024 2.048 0.096 0.192 0.256 0.416 0.128 0.608-0.512 0.8-1.056 1.632-1.536 2.464-0.768 0-1.504 0-2.24 0-0.224-0.416-1.184-2.112-1.376-2.496 0.096-0.512 0.352-0.928 0.512-1.408 0.032-0.128 0.416-1.152 0.416-1.216zM11.008 17.856c0.608 0 1.216 0 1.792 0 0.448 0.832 0.992 1.664 1.376 2.528-0.352 0.64-0.704 1.28-1.088 1.888-1.024-1.28-1.856-2.784-2.080-4.416zM18.048 20.48c0.512-0.896 1.12-1.728 1.6-2.624 0.48-0.032 0.992 0 1.472 0-0.064 0.576-0.224 1.12-0.416 1.664-0.384 0.928-0.896 1.824-1.504 2.656-0.352-0.576-0.736-1.152-1.152-1.696zM14.88 20.928c0.8 0.032 1.632 0 2.464 0.032 0.416 0.672 0.928 1.28 1.28 1.952-0.672 0.672-1.408 1.472-2.4 1.568-1.024-0.096-1.824-0.832-2.528-1.504 0.416-0.672 0.768-1.344 1.184-2.048zM14.208 0.128c2.528-0.288 5.152 0.032 7.552 0.96 3.264 1.248 6.080 3.616 7.872 6.592 1.76 2.848 2.56 6.272 2.272 9.6-0.224 2.912-1.28 5.728-3.008 8.096-1.76 2.368-4.16 4.288-6.912 5.376-2.976 1.216-6.368 1.472-9.504 0.768-3.456-0.768-6.624-2.752-8.864-5.504-1.92-2.304-3.136-5.216-3.456-8.192-0.416-3.392 0.288-6.912 2.016-9.856 1.76-3.008 4.48-5.44 7.712-6.752 1.376-0.576 2.816-0.928 4.32-1.088zM16.256 25.696h0.032c0.096 0 0.224-0.032 0.352-0.032 0 0 0.032 0 0.064 0l0.032-0.032c0 0 0.032 0 0.032 0v0h0.032c0.096-0.032 0.224-0.064 0.352-0.096h0.032c0.032 0 0.064-0.032 0.096-0.032 0.064-0.032 0.16-0.064 0.224-0.096 0.096-0.064 0.224-0.128 0.32-0.192h0.064v-0.032c0.032 0 0.064 0 0.064-0.032 0.032 0 0.032-0.032 0.064-0.032 0.032-0.032 0.096-0.064 0.128-0.096h0.032c0.032-0.032 0.096-0.096 0.16-0.128l0.032-0.032h0.032c0.192-0.192 0.416-0.352 0.608-0.544 0.064-0.064 0.128-0.128 0.192-0.224 0.064-0.032 0.096-0.064 0.128-0.096 0.032-0.064 0.096-0.096 0.16-0.16 0-0.032 0.032-0.032 0.032-0.064 0.032-0.032 0.096-0.096 0.128-0.128l0.064-0.064c0.128-0.16 0.224-0.288 0.352-0.416v-0.032h0.032c0-0.032 0.032-0.064 0.032-0.064 0-0.032 0.032-0.064 0.064-0.064v-0.032l0.032-0.032c0 0 0-0.032 0.032-0.032v-0.032c0.064-0.096 0.128-0.192 0.192-0.288 0-0.032 0.064-0.064 0.064-0.096 0.032-0.032 0.064-0.064 0.096-0.096 0.064 0.192 0.128 0.352 0.16 0.544 0.032 0.032 0.032 0.064 0.064 0.096 0.032 0.096 0.064 0.192 0.096 0.288 0 0.032 0.032 0.064 0.032 0.064 0 0.064 0.032 0.096 0.032 0.128 0.032 0.032 0.032 0.032 0.032 0.064 0.032 0.064 0.064 0.096 0.064 0.16l0.032 0.032c0.032 0.064 0.064 0.128 0.096 0.192 0 0.032 0.032 0.064 0.032 0.064 0.032 0.032 0.032 0.064 0.032 0.096 0.032 0.032 0.064 0.064 0.064 0.096l0.032 0.032c0.064 0.096 0.096 0.16 0.16 0.256v0l0.032 0.032c0.032 0.032 0.064 0.096 0.096 0.128s0.032 0.064 0.064 0.096c0.128 0.128 0.256 0.256 0.384 0.352 0.032 0 0.032 0 0.032 0 0.032 0.032 0.032 0.032 0.064 0.064v0 0c0.032 0 0.032 0 0.032 0v0l0.032 0.032c0 0 0 0 0.032 0 0.032 0.032 0.064 0.032 0.096 0.064v0 0c0.032 0 0.032 0 0.064 0v0.032c0.032 0 0.032 0 0.064 0s0.032 0 0.064 0c0 0 0 0 0 0.032 0.032 0 0.032 0 0.064 0 0 0 0 0 0 0 0.032 0 0.064 0 0.096 0s0.064 0 0.096 0h0.032c0.032 0 0.064 0 0.096 0 0 0 0 0 0.032 0s0.064 0 0.096 0c0.064-0.032 0.096-0.032 0.128-0.032l0.032-0.032c0.032 0 0.064 0 0.128-0.032 0.192-0.064 0.352-0.16 0.512-0.288 0.032-0.032 0.064-0.064 0.096-0.096 0-0.032 0.032-0.064 0.064-0.096v0c0.032-0.032 0.032-0.064 0.064-0.064 0-0.032 0-0.032 0-0.064 0.032 0 0.032-0.032 0.032-0.032 0.032-0.064 0.064-0.096 0.064-0.128 0.032-0.128 0.064-0.224 0.064-0.352 0 0 0-0.032 0-0.032s0-0.032 0-0.032v-0.064c0 0 0-0.032 0-0.064s0-0.032 0-0.064c-0.032-0.096-0.032-0.192-0.064-0.256-0.032-0.096-0.064-0.192-0.096-0.288 0-0.032-0.032-0.064-0.032-0.096-0.032-0.032-0.032-0.064-0.032-0.096l-0.032-0.032c-0.192-0.384-0.448-0.768-0.704-1.12-0.064-0.064-0.128-0.16-0.192-0.224-0.032-0.064-0.096-0.096-0.128-0.16-0.032-0.032-0.096-0.096-0.128-0.16h-0.032l-0.032-0.032c-0.128-0.192-0.288-0.384-0.48-0.544-0.032-0.032-0.064-0.064-0.096-0.096v-0.032h-0.032c-0.128-0.128-0.288-0.288-0.448-0.416 0 0-0.032-0.032-0.064-0.032 0.064-0.128 0.128-0.256 0.16-0.352 0.032-0.064 0.032-0.096 0.064-0.128 0-0.064 0.032-0.128 0.064-0.224 0-0.032 0.032-0.064 0.032-0.096 0.096-0.288 0.16-0.608 0.224-0.896 0.032-0.032 0.032-0.064 0.032-0.096 0-0.064 0.032-0.128 0.032-0.16 0-0.096 0.032-0.16 0.032-0.224v0c0.032-0.416 0.064-0.832 0.032-1.248 0-0.032 0-0.096 0-0.128v-0.032c-0.064-1.088-0.352-2.144-0.704-3.168l-0.064-0.096c-0.064-0.16-0.128-0.32-0.192-0.48-0.064-0.128-0.096-0.224-0.16-0.32-0.032-0.032-0.064-0.096-0.064-0.128-0.096-0.16-0.192-0.32-0.32-0.48 0-0.032-0.032-0.032-0.032-0.064 0 0-0.032-0.032-0.032-0.032v0l-0.032-0.032c-0.032-0.064-0.064-0.096-0.096-0.16 0.064 0.064 0.128 0.096 0.192 0.128 0 0.032 0.032 0.032 0.064 0.064 0.192 0.064 0.384 0.16 0.576 0.224 0.032 0.032 0.096 0.064 0.16 0.096 0.096 0.032 0.192 0.096 0.288 0.128 0.16 0.096 0.352 0.16 0.512 0.224 0.416 0.192 0.8 0.384 1.216 0.544 0.032 0 0.064 0.032 0.096 0.032 0.16 0.064 0.352 0.128 0.544 0.192 0 0 0.032 0.032 0.064 0.032h0.032l0.032 0.032c0.064 0 0.128 0.032 0.16 0.032 0.096 0.032 0.192 0.064 0.256 0.096 0.16 0.032 0.288 0.096 0.448 0.128 0.032 0 0.064 0 0.096 0.032 0.064 0 0.096 0 0.16 0.032v0h0.032c0.064 0 0.16 0.032 0.256 0.032 0 0 0 0 0.032 0 0.064 0 0.16 0 0.224 0 0 0 0-0.032 0-0.032 0.032-0.064 0.032-0.128 0-0.192 0-0.096 0-0.16 0-0.224-0.032-0.032-0.032-0.096-0.064-0.16s-0.064-0.16-0.096-0.224c-0.032-0.064-0.064-0.096-0.096-0.16 0 0-0.032-0.032-0.032-0.032v0c-0.032-0.032-0.032-0.064-0.064-0.096-0.032-0.064-0.064-0.096-0.096-0.128l-0.032-0.096v-0.032c-0.096-0.096-0.16-0.192-0.224-0.288-0.096-0.128-0.224-0.224-0.32-0.352-0.064-0.096-0.128-0.16-0.192-0.256-0.032-0.032-0.096-0.064-0.128-0.128-0.032-0.032-0.064-0.064-0.128-0.128s-0.16-0.16-0.224-0.256c-0.064-0.032-0.096-0.096-0.16-0.16-0.032 0-0.032-0.032-0.064-0.064-0.064-0.032-0.096-0.096-0.16-0.128-0.064-0.064-0.096-0.096-0.16-0.16-0.032-0.032-0.064-0.064-0.096-0.096v0l-0.064-0.064c-0.192-0.16-0.384-0.32-0.576-0.448-0.064-0.064-0.16-0.128-0.256-0.192v0l-0.032-0.032c-0.16-0.096-0.32-0.224-0.48-0.32-0.032-0.032-0.096-0.064-0.128-0.096v0c-0.096-0.032-0.192-0.096-0.256-0.128-0.032 0-0.064-0.032-0.096-0.032h-0.032v-0.032h-0.032c-0.032-0.032-0.096-0.032-0.128-0.064-0.064 0-0.096-0.032-0.128-0.032s-0.032 0-0.064 0c0-0.032-0.032-0.032-0.064-0.032-0.128-0.032-0.224-0.064-0.32-0.064v-0.032h-0.032c-0.032 0-0.096 0-0.16 0 0 0-0.032 0-0.032 0-0.032 0-0.064-0.032-0.064-0.032-0.224 0-0.448 0-0.672 0.032-0.032 0.032-0.096 0.032-0.128 0.032l-0.032 0.032c-0.064 0-0.096 0-0.16 0.032v0c-0.128 0.032-0.256 0.096-0.384 0.16v0c0 0-0.032 0.032-0.064 0.032 0 0 0 0.032-0.032 0.032v0h-0.032c0 0 0 0 0 0.032-0.128 0.064-0.256 0.192-0.352 0.32l-0.032 0.032c-0.032 0.032-0.032 0.032-0.064 0.064s-0.064 0.064-0.128 0.128c0 0 0 0 0 0-0.032 0.032-0.064 0.064-0.096 0.064v0.032c0-0.032-0.032-0.032-0.032-0.032-0.096-0.032-0.192-0.096-0.32-0.128-0.032-0.032-0.096-0.064-0.128-0.096-0.064 0-0.128-0.032-0.16-0.064h-0.032c-0.128-0.032-0.224-0.096-0.352-0.128 0 0 0-0.032 0-0.064l0.032-0.064v-0.064c0-0.064 0-0.16 0.032-0.224 0-0.064 0-0.128 0-0.192 0.032-0.16 0.064-0.352 0.064-0.512 0-0.064 0-0.096 0-0.16s0-0.128 0-0.16c0-0.16 0-0.32 0-0.48 0-0.064 0-0.128 0-0.192-0.032-0.064-0.032-0.128-0.032-0.192 0-0.032 0-0.032 0-0.064-0.032-0.096-0.064-0.224-0.096-0.32 0-0.064-0.032-0.096-0.032-0.16 0 0-0.032-0.032-0.032-0.032 0-0.064-0.032-0.096-0.064-0.16 0-0.032 0-0.032-0.032-0.064 0-0.032-0.032-0.064-0.032-0.096-0.032-0.032-0.032-0.064-0.064-0.096v-0.032l-0.032-0.032v-0.032c-0.064-0.096-0.096-0.192-0.16-0.288-0.032-0.064-0.096-0.16-0.128-0.224l-0.032-0.032c-0.032-0.032-0.064-0.096-0.096-0.128-0.032-0.064-0.064-0.096-0.064-0.128-0.064-0.096-0.128-0.192-0.192-0.288l-0.032-0.064c-0.064-0.032-0.096-0.096-0.128-0.16-0.032 0-0.032-0.032-0.064-0.064 0-0.032-0.032-0.032-0.032-0.064-0.032-0.032-0.064-0.064-0.096-0.096 0 0 0 0-0.032-0.032s-0.064-0.064-0.128-0.096v0 0c-0.032-0.032-0.096-0.032-0.128-0.032h-0.032c0 0 0 0-0.032 0s-0.096 0-0.128 0.032v0c-0.032 0-0.032 0-0.032 0.032-0.064 0.032-0.128 0.096-0.16 0.16h-0.032v0.032c-0.032 0-0.032 0.032-0.064 0.032-0.032 0.064-0.064 0.096-0.096 0.16-0.192 0.224-0.352 0.48-0.48 0.736-0.032 0.064-0.064 0.096-0.096 0.16-0.064 0.096-0.096 0.16-0.16 0.256-0.032 0.096-0.096 0.192-0.128 0.288-0.032 0.032-0.032 0.064-0.064 0.096 0 0.032 0 0.064-0.032 0.064 0 0.032 0 0.064-0.032 0.096 0 0.032-0.032 0.096-0.032 0.128-0.032 0.032-0.032 0.032-0.032 0.064s-0.032 0.064-0.032 0.096c-0.032 0.16-0.064 0.32-0.096 0.512 0 0.064 0 0.096 0 0.16-0.032 0.256-0.032 0.544 0 0.8 0.032 0.16 0.032 0.32 0.064 0.48 0 0.096 0.032 0.224 0.032 0.32 0.032 0.096 0.032 0.192 0.064 0.288 0 0.032 0 0.064 0 0.128-0.192 0.064-0.352 0.128-0.544 0.192-0.032 0.032-0.064 0.032-0.096 0.064-0.096 0.032-0.192 0.096-0.288 0.16-0.064 0.032-0.16 0.096-0.224 0.128l-0.064 0.064c-0.064-0.096-0.096-0.192-0.16-0.288-0.032-0.032-0.032-0.032-0.032-0.064-0.032 0-0.032-0.032-0.032-0.032h-0.032v-0.032c-0.032-0.032-0.032-0.032-0.064-0.064v0 0c0-0.032-0.032-0.032-0.064-0.064 0 0-0.032-0.032-0.032-0.032-0.096-0.096-0.224-0.192-0.32-0.256-0.192-0.128-0.384-0.224-0.608-0.288-0.032 0-0.064-0.032-0.096-0.032v0c-0.096 0-0.16-0.032-0.224-0.032-0.032 0-0.032 0-0.064 0s-0.096-0.032-0.128-0.032c-0.032 0-0.064 0-0.096 0 0 0-0.032 0-0.032 0h-0.032c0 0-0.032 0-0.064 0 0 0-0.032 0-0.032 0h-0.032c0 0-0.032 0-0.032 0h-0.032c0 0 0 0-0.032 0s-0.032 0-0.064 0h-0.032v0.032c-0.032 0-0.096 0-0.128 0 0 0 0 0-0.032 0v0c-0.032 0-0.064 0.032-0.128 0.032v0 0c-0.064 0.032-0.16 0.032-0.224 0.064v0h-0.032c-0.096 0.032-0.16 0.064-0.256 0.096-0.032 0.032-0.096 0.064-0.128 0.064s-0.032 0.032-0.064 0.032c-0.064 0.032-0.128 0.064-0.192 0.096s-0.16 0.096-0.224 0.128c-0.064 0.032-0.16 0.096-0.224 0.128l-0.064 0.032c0 0.032-0.032 0.032-0.064 0.064-0.064 0.032-0.16 0.096-0.224 0.16-0.192 0.128-0.352 0.256-0.512 0.384l-0.032 0.064c-0.064 0.032-0.096 0.064-0.16 0.128-0.192 0.16-0.384 0.32-0.544 0.48-0.096 0.096-0.192 0.192-0.288 0.288-0.032 0.032-0.096 0.096-0.128 0.16-0.032 0.032-0.064 0.064-0.096 0.064v0.032l-0.032 0.032c-0.192 0.192-0.352 0.384-0.512 0.576-0.064 0.064-0.128 0.16-0.192 0.256-0.064 0.064-0.096 0.128-0.16 0.224-0.032 0-0.032 0.032-0.064 0.064-0.032 0.064-0.064 0.096-0.096 0.16-0.064 0.096-0.096 0.16-0.128 0.224-0.032 0-0.032 0.032-0.032 0.064-0.032 0-0.032 0.032-0.064 0.064-0.032 0.064-0.064 0.16-0.096 0.256v0 0c-0.032 0.096-0.064 0.192-0.064 0.288 0 0 0 0.032 0 0.032 0 0.032 0 0.064 0 0.096 0 0 0 0.032 0 0.064s0 0.032 0 0.064c0 0 0.032 0 0.032 0s0 0 0.032 0 0.096 0 0.16 0c0.032 0 0.032 0 0.064 0v0c0.096 0 0.224-0.032 0.32-0.064v0c0.16-0.032 0.288-0.064 0.448-0.096 0.032-0.032 0.032-0.032 0.064-0.032 0.128-0.032 0.224-0.064 0.352-0.096l0.032-0.032c0.064 0 0.128-0.032 0.192-0.064h0.064l0.032-0.032c0.064 0 0.16-0.032 0.256-0.064 0.128-0.064 0.256-0.096 0.352-0.16 0.064 0 0.096-0.032 0.16-0.032l0.032-0.032c0.064-0.032 0.096-0.032 0.16-0.064v0 0c0.288-0.128 0.544-0.224 0.8-0.352l0.032-0.032c0.064 0 0.128-0.032 0.192-0.064 0.256-0.128 0.544-0.256 0.8-0.384l0.128-0.032c0.096-0.064 0.16-0.096 0.256-0.128 0.064-0.032 0.128-0.064 0.224-0.096 0.16-0.064 0.32-0.16 0.48-0.224h0.064l0.032-0.032c0.064-0.032 0.096-0.032 0.128-0.064v0.032c-0.032 0.032-0.096 0.064-0.128 0.096 0 0.032-0.032 0.032-0.032 0.064s-0.032 0.032-0.032 0.064-0.064 0.064-0.096 0.096c-0.032 0.064-0.096 0.128-0.128 0.224-0.032 0.032-0.064 0.096-0.096 0.128-0.096 0.16-0.192 0.32-0.256 0.448-0.032 0.064-0.064 0.128-0.096 0.192l-0.032 0.064-0.064 0.096c0 0.032-0.032 0.064-0.032 0.128 0 0-0.032 0.032-0.032 0.032-0.032 0.096-0.064 0.192-0.096 0.256-0.032 0.128-0.096 0.224-0.128 0.352-0.032 0.096-0.064 0.192-0.096 0.256v0.064c0 0-0.032 0.032-0.032 0.064s-0.032 0.064-0.032 0.096c0 0.032 0 0.064-0.032 0.096 0 0.064-0.032 0.16-0.064 0.256v0 0c-0.032 0.128-0.064 0.256-0.064 0.352-0.032 0.096-0.064 0.192-0.064 0.288-0.032 0.032-0.032 0.064-0.032 0.096 0 0.096-0.032 0.192-0.032 0.288v0.032h-0.032c0 0.192-0.032 0.384-0.064 0.576-0.032 0.288-0.032 0.544-0.032 0.832 0 0.064 0 0.16 0 0.256 0 0.032 0 0.096 0 0.16 0 0.032 0 0.064 0 0.128 0 0.128 0.032 0.288 0.032 0.416 0 0.032 0 0.064 0.032 0.096 0 0.16 0.032 0.352 0.096 0.544 0.064 0.384 0.192 0.736 0.352 1.12v0.032c0 0.032 0.032 0.064 0.032 0.064 0.032 0.096 0.064 0.16 0.096 0.256 0 0 0.032 0 0.032 0.032-0.352 0.32-0.704 0.672-1.056 1.024v0.032c-0.032 0.032-0.064 0.064-0.096 0.096-0.128 0.128-0.224 0.256-0.32 0.384 0 0-0.032 0.032-0.032 0.032-0.032 0.032-0.064 0.064-0.064 0.096-0.032 0.032-0.032 0.032-0.064 0.064s-0.064 0.096-0.096 0.128c-0.032 0.032-0.032 0.064-0.064 0.096l-0.032 0.032c0 0.032-0.032 0.032-0.032 0.064-0.16 0.192-0.256 0.384-0.384 0.608v0 0c-0.032 0.032-0.032 0.064-0.032 0.064-0.032 0.032-0.032 0.032-0.032 0.064 0 0 0 0-0.032 0.032v0.032c-0.032 0.032-0.032 0.096-0.064 0.16-0.032 0.032-0.032 0.064-0.032 0.096-0.064 0.128-0.096 0.256-0.128 0.384 0 0.096 0 0.16-0.032 0.224 0 0 0 0.032 0 0.032 0 0.032 0 0.064 0 0.096 0 0.096 0.032 0.224 0.064 0.32 0.032 0.064 0.064 0.128 0.096 0.192 0 0 0 0.032 0.032 0.032 0 0.032 0 0.032 0.032 0.064 0 0 0 0 0.032 0.032s0.064 0.064 0.096 0.128c0.032 0.032 0.064 0.064 0.096 0.064v0.032h0.032c0 0.032 0.032 0.032 0.064 0.064 0 0 0.032 0 0.032 0.032h0.032c0 0 0 0.032 0.032 0.032 0 0 0 0 0.032 0 0.032 0.032 0.064 0.064 0.128 0.064 0.128 0.096 0.288 0.128 0.48 0.16 0 0 0.032 0 0.032 0 0.064 0 0.096 0 0.16 0 0 0 0.032 0 0.064 0 0.064 0 0.128 0 0.192-0.032h0.032c0.032 0 0.032 0 0.064-0.032 0.032 0 0.032 0 0.064 0 0.064-0.032 0.128-0.064 0.192-0.096v0c0.032-0.032 0.032-0.032 0.064-0.032 0.032-0.032 0.064-0.064 0.096-0.096 0.032 0 0.064-0.032 0.064-0.032 0.064-0.064 0.096-0.096 0.16-0.128 0-0.032 0.032-0.064 0.064-0.064v-0.032h0.032c0.032-0.064 0.064-0.096 0.096-0.16 0 0 0.032 0 0.032-0.032 0.032-0.032 0.064-0.096 0.096-0.128 0.064-0.064 0.096-0.128 0.128-0.192s0.096-0.128 0.128-0.224c0.032-0.064 0.096-0.16 0.128-0.256 0.032-0.064 0.064-0.128 0.096-0.224 0.064-0.128 0.096-0.256 0.16-0.384v-0.032l0.032-0.032c0.032-0.16 0.096-0.288 0.128-0.448 0.032-0.096 0.064-0.224 0.096-0.32 0-0.032 0.032-0.032 0.032-0.064v0.032c0.032 0 0.032 0.032 0.032 0.032 0.032 0.032 0.032 0.064 0.064 0.096 0 0.032 0.032 0.064 0.064 0.064 0.032 0.064 0.064 0.096 0.096 0.16v0 0c0.224 0.288 0.448 0.544 0.672 0.832 0 0 0.128 0.128 0.128 0.128 0.384 0.416 0.8 0.768 1.248 1.12 0.032 0.032 0.064 0.032 0.096 0.064s0.064 0.064 0.096 0.064l0.032 0.032c0.032 0.032 0.064 0.064 0.128 0.096 0.096 0.064 0.224 0.128 0.352 0.192 0.032 0.032 0.064 0.032 0.096 0.064l0.032 0.032h0.032c0.064 0.032 0.096 0.064 0.16 0.064 0.032 0.032 0.064 0.032 0.064 0.032 0.032 0.032 0.064 0.032 0.064 0.032 0.064 0.032 0.128 0.064 0.192 0.096 0.064 0 0.128 0.032 0.16 0.032h0.032c0.032 0.032 0.064 0.032 0.096 0.032 0.032 0.032 0.096 0.032 0.128 0.032h0.032c0.064 0.032 0.128 0.032 0.192 0.032h0.032c0.064 0 0.096 0.032 0.16 0.032 0.032 0 0.064 0 0.064 0 0.032 0 0.032 0 0.032 0h0.032c0.032 0 0.064 0 0.064 0h0.032z"></path>
</svg>
