<?xml version="1.0" encoding="utf-8"?>
<!-- Generated by IcoMoon.io -->
<!DOCTYPE svg PUBLIC "-//W3C//DTD SVG 1.1//EN" "http://www.w3.org/Graphics/SVG/1.1/DTD/svg11.dtd">
<svg version="1.1" xmlns="http://www.w3.org/2000/svg" xmlns:xlink="http://www.w3.org/1999/xlink" width="32" height="32" viewBox="0 0 32 32">
<path d="M15.936 0h0.096c2.048 0.032 4.064 0.384 5.952 1.184 3.168 1.28 5.92 3.648 7.68 6.592 1.888 3.136 2.624 6.912 2.112 10.528-0.416 2.944-1.696 5.76-3.616 8.032-2.336 2.784-5.632 4.736-9.184 5.408-0.704 0.128-1.44 0.192-2.176 0.256h-1.696c-1.312-0.096-2.624-0.32-3.872-0.704-2.432-0.768-4.704-2.112-6.496-3.936-2.4-2.368-4.032-5.536-4.512-8.896-0.576-3.584 0.128-7.392 1.984-10.528 1.696-2.912 4.32-5.28 7.456-6.624 1.952-0.864 4.128-1.28 6.272-1.312zM15.328 25.952c0.736 0.096 1.504 0.064 2.24-0.128 0.16-0.032 0.288-0.096 0.448-0.128 0.064-0.032 0.128-0.032 0.192-0.064 0.096-0.032 0.192-0.064 0.256-0.128 0.032 0 0.032 0 0.064 0 0.288-0.128 0.544-0.288 0.832-0.448l0.032-0.032h0.032c0.064-0.064 0.128-0.096 0.192-0.16 0.128-0.064 0.256-0.16 0.384-0.256 0.064-0.032 0.096-0.096 0.16-0.128 0.608-0.48 1.12-1.056 1.6-1.696l0.032-0.032c0.224-0.32 0.448-0.672 0.64-1.024 0.032-0.064 0.096-0.16 0.128-0.256 0.032-0.032 0.064-0.096 0.064-0.128 0.096-0.16 0.16-0.352 0.256-0.544 0.128-0.288 0.224-0.576 0.352-0.864 0.256-0.736 0.448-1.504 0.544-2.272l0.032-0.064c0-0.064 0-0.128 0-0.192 0.032-0.064 0.032-0.128 0.032-0.192s0-0.096 0-0.128c0.032-0.064 0.032-0.096 0.032-0.128v0c0-0.032 0-0.064 0-0.096 0 0 0-0.032 0-0.064 0.032-0.064 0.032-0.16 0.064-0.256 0-0.032 0-0.032 0-0.032 0-0.032 0-0.064 0-0.064v-0.032c-0.032-0.032-0.032-0.064-0.032-0.096v0c0-0.032-0.032-0.032-0.032-0.064-0.032-0.032-0.064-0.096-0.096-0.128-0.032 0-0.032-0.032-0.064-0.032v-0.032l-0.032-0.032c-0.16-0.16-0.32-0.288-0.48-0.448-0.032-0.032-0.064-0.064-0.128-0.128 0 0-0.032-0.032-0.064-0.064 0 0-0.032-0.032-0.064-0.064l-0.192-0.128-0.128 0.128c-0.224 0.256-0.48 0.48-0.704 0.736-0.288 0.288-0.544 0.576-0.832 0.864-0.096 0.096-0.16 0.192-0.256 0.288 0 0 0 0-0.032 0v0.032c-0.032 0.032-0.032 0.064-0.064 0.096s-0.064 0.032-0.096 0.064v0 0c0 0.032-0.032 0.032-0.032 0.032-0.032 0.032-0.032 0.032-0.032 0.032h-0.032c-0.032-0.032-0.032-0.064-0.064-0.096-0.032 0-0.032-0.032-0.064-0.064-0.224-0.288-0.48-0.544-0.704-0.832-0.032-0.032-0.032-0.064-0.064-0.096 0 0-0.032-0.032-0.032-0.032l-0.032-0.032c-0.128-0.128-0.256-0.288-0.384-0.48-0.064-0.064-0.128-0.128-0.16-0.192-0.032-0.032-0.064-0.032-0.064-0.064l-0.064-0.064c-0.032-0.032-0.064-0.096-0.128-0.128v-0.032h-0.032c0 0-0.032-0.032-0.032-0.064h-0.032c0-0.032-0.032-0.032-0.032-0.064-0.032 0-0.064-0.032-0.096-0.064 0 0-0.032-0.032-0.032-0.032l-0.032-0.032-0.064 0.096c-0.128 0.096-0.256 0.224-0.384 0.352-0.032 0.064-0.096 0.096-0.16 0.16-0.16 0.128-0.288 0.288-0.448 0.416-0.16 0.16-0.32 0.32-0.448 0.448l-0.16 0.16c-0.192 0.16-0.384 0.32-0.544 0.512-0.096 0.096-0.192 0.16-0.288 0.256l-0.064 0.064c0.032-0.032 0.064-0.096 0.096-0.16 0.032-0.032 0.032-0.064 0.064-0.064 0.064-0.096 0.096-0.192 0.16-0.288 0.096-0.16 0.192-0.352 0.288-0.512s0.192-0.288 0.288-0.448c0.16-0.256 0.288-0.512 0.416-0.768l0.16-0.256 0.064-0.096c0.128-0.256 0.288-0.512 0.448-0.8 0.128-0.192 0.256-0.384 0.384-0.576 0.16 0.192 0.32 0.384 0.512 0.576 0.192 0.224 0.384 0.416 0.576 0.64l0.416 0.48c0.096 0.096 0.192 0.224 0.288 0.32v0c0.032 0.032 0.064 0.064 0.096 0.096 0.064 0.064 0.128 0.128 0.16 0.192 0.032 0.032 0.064 0.064 0.064 0.064l0.032 0.032c0 0 0.032 0.032 0.032 0.032s0 0 0.032 0.032v0 0c0.032 0.032 0.032 0.032 0.064 0.064 0.032 0 0.032 0 0.032 0.032 0.032 0 0.032 0 0.064 0.032 0 0 0 0 0.032 0l0.064-0.064 0.032-0.064c0.128-0.16 0.288-0.352 0.416-0.544 0.192-0.224 0.352-0.448 0.544-0.672 0.32-0.384 0.64-0.8 0.992-1.184 0-0.032 0.032-0.064 0.064-0.096 0.096 0.16 0.224 0.32 0.352 0.448l0.096 0.096c0.064 0.096 0.16 0.16 0.224 0.256 0 0 0 0.032 0 0.032s0.032 0 0.032 0.032c0 0 0.032 0.032 0.032 0.032 0.032 0.032 0.032 0.064 0.064 0.064 0.032 0.032 0.032 0.032 0.064 0.064 0 0 0 0.032 0.032 0.032v0 0c0 0 0.032 0.032 0.032 0.032 0.032 0 0.032 0.032 0.032 0.032 0.032 0 0.064 0 0.064 0 0.032 0.032 0.032 0.032 0.064 0.032v0c0 0 0.032 0 0.032 0 0-0.128-0.032-0.224-0.032-0.32 0-0.064 0-0.128-0.032-0.192v-0.096c0-0.032 0-0.064 0-0.096-0.032-0.352-0.096-0.672-0.16-1.024 0-0.032-0.032-0.096-0.032-0.128 0-0.064-0.032-0.128-0.032-0.192-0.064-0.32-0.16-0.608-0.256-0.928-0.064-0.32-0.16-0.608-0.288-0.896-0.064-0.192-0.128-0.384-0.224-0.576-0.064-0.128-0.128-0.288-0.192-0.416-0.032-0.064-0.064-0.096-0.096-0.16-0.128-0.288-0.288-0.544-0.448-0.832-0.064-0.064-0.096-0.16-0.16-0.224-0.064-0.096-0.096-0.16-0.16-0.256-0.192-0.256-0.384-0.512-0.608-0.768-0.032-0.032-0.064-0.096-0.128-0.128-0.224-0.256-0.48-0.512-0.768-0.736v-0.032l-0.032-0.032c-0.128-0.096-0.256-0.192-0.384-0.288l-0.064-0.032c-0.16-0.16-0.352-0.256-0.544-0.384-0.064-0.032-0.128-0.064-0.192-0.096-0.096-0.064-0.224-0.128-0.384-0.224 0 0-0.032 0-0.064-0.032h-0.032l-0.032-0.032c-0.032 0-0.096-0.032-0.16-0.064 0 0-0.032 0-0.064-0.032-0.032 0-0.064 0-0.096-0.032-0.224-0.064-0.448-0.128-0.672-0.192l-0.032-0.032h-0.096c-0.032-0.032-0.064-0.032-0.128-0.032v0l-0.032-0.032c-0.032 0-0.064 0-0.096 0h-0.032l-0.032-0.032c-0.064 0-0.128 0-0.224-0.032v0h-0.032c-0.128-0.032-0.224-0.032-0.352-0.032-0.064 0-0.128-0.032-0.192-0.032h-0.032c-0.064 0-0.16 0-0.224 0-0.032 0-0.064 0-0.096 0h-0.032c0 0-0.032 0-0.032 0v0c-0.128 0-0.256 0-0.384 0.032-0.032 0-0.064 0-0.096 0v0 0c-0.096 0-0.192 0.032-0.288 0.032-0.064 0-0.16 0.032-0.224 0.032-0.192 0.032-0.352 0.064-0.512 0.128-0.096 0.032-0.192 0.032-0.288 0.064 0 0-0.032 0.032-0.064 0.032-0.096 0.032-0.16 0.064-0.256 0.096-0.032 0-0.032 0-0.064 0-0.128 0.064-0.224 0.096-0.352 0.128l-0.032 0.032c-0.256 0.128-0.512 0.256-0.736 0.416-0.128 0.096-0.288 0.192-0.416 0.288s-0.256 0.16-0.352 0.288h-0.032l-0.032 0.032c-0.192 0.16-0.352 0.32-0.512 0.48-0.064 0.064-0.16 0.128-0.224 0.192s-0.096 0.128-0.16 0.192c-0.064 0.096-0.128 0.16-0.192 0.224-0.096 0.096-0.192 0.224-0.256 0.32v0c-0.096 0.128-0.192 0.224-0.288 0.352s-0.16 0.256-0.256 0.416c-0.064 0.064-0.096 0.16-0.16 0.224v0.032l-0.032 0.032c0 0 0 0.032-0.032 0.032l-0.032 0.032c-0.064 0.128-0.128 0.256-0.192 0.384s-0.096 0.224-0.16 0.352c-0.064 0.16-0.16 0.352-0.224 0.512-0.032 0.032-0.032 0.096-0.064 0.128 0 0.032 0 0.032-0.032 0.064-0.032 0.16-0.096 0.288-0.16 0.416v0.032c-0.064 0.224-0.16 0.48-0.224 0.704 0 0.064-0.032 0.096-0.032 0.128-0.096 0.32-0.16 0.608-0.224 0.896-0.032 0.224-0.064 0.448-0.096 0.704h-0.032v0.064c0 0.064 0 0.096 0 0.16-0.032 0.096-0.032 0.192-0.064 0.288 0 0.064 0 0.16 0 0.224-0.032 0.064-0.032 0.128-0.032 0.192 0 0.096 0 0.192-0.032 0.288 0 0.032 0 0.064 0 0.096 0 0.096 0 0.16 0 0.224 0 0.096 0 0.192 0 0.288 0 0.064 0 0.096 0 0.16 0 0.352 0 0.704 0.032 1.056 0 0.096 0 0.224 0.032 0.32 0 0.064 0 0.16 0.032 0.224v0.032c0 0.064 0 0.128 0 0.16v0.064l0.032 0.032c0.032 0.352 0.096 0.672 0.16 0.992v0.064l0.032 0.064c0.032 0.128 0.032 0.224 0.064 0.352 0.032 0.096 0.064 0.192 0.096 0.256 0 0.096 0.032 0.16 0.064 0.224 0 0.096 0.032 0.192 0.064 0.288v0.032l0.032 0.032c0.032 0.128 0.096 0.288 0.128 0.416l0.032 0.032v0.032c0.032 0.064 0.064 0.128 0.064 0.192l0.032 0.064c0.064 0.192 0.16 0.384 0.224 0.544 0.032 0.064 0.064 0.128 0.096 0.192 0.064 0.128 0.128 0.256 0.192 0.384 0.032 0.032 0.032 0.064 0.064 0.096v0.032c0.096 0.192 0.224 0.352 0.32 0.544 0.064 0.064 0.096 0.16 0.16 0.224 0.064 0.096 0.128 0.192 0.192 0.288 0.032 0.064 0.064 0.128 0.128 0.16v0.032c0.032 0.032 0.064 0.064 0.096 0.128 0.032 0 0.032 0.032 0.064 0.064v0.032h0.032c0.032 0.064 0.096 0.128 0.128 0.192 0.064 0.064 0.128 0.16 0.192 0.224 0.032 0 0.032 0.032 0.032 0.032l0.032 0.032c0.032 0.032 0.064 0.064 0.096 0.096 0.032 0.064 0.096 0.096 0.128 0.128s0.064 0.064 0.096 0.096c0.064 0.096 0.16 0.16 0.256 0.256 0.064 0.032 0.096 0.096 0.16 0.128 0.032 0.032 0.064 0.064 0.096 0.064v0.032l0.032 0.032c0.032 0.032 0.064 0.032 0.096 0.064 0.064 0.032 0.096 0.064 0.128 0.096s0.064 0.064 0.096 0.096c0.096 0.032 0.192 0.096 0.288 0.16 0 0.032 0.032 0.032 0.064 0.064 0.064 0.032 0.096 0.064 0.128 0.096 0.064 0.032 0.128 0.064 0.16 0.096 0.064 0 0.096 0.032 0.128 0.064 0.096 0.064 0.192 0.096 0.288 0.16l0.032 0.032c0.032 0 0.064 0.032 0.096 0.032 0 0 0.032 0.032 0.032 0.032h0.032c0.032 0 0.032 0.032 0.032 0.032h0.064c0.032 0.032 0.064 0.032 0.096 0.064h0.032c0.128 0.064 0.256 0.096 0.384 0.128l0.032 0.032h0.032c0 0 0.032 0 0.032 0.032 0.064 0 0.128 0.032 0.192 0.032l0.064 0.032c0 0 0 0 0.032 0h0.032c0.096 0.032 0.192 0.064 0.288 0.064 0.16 0.032 0.32 0.064 0.48 0.096 0.064 0 0.096 0 0.16 0z"></path>
</svg>
