<?xml version="1.0" encoding="utf-8"?>
<!-- Generated by IcoMoon.io -->
<!DOCTYPE svg PUBLIC "-//W3C//DTD SVG 1.1//EN" "http://www.w3.org/Graphics/SVG/1.1/DTD/svg11.dtd">
<svg version="1.1" xmlns="http://www.w3.org/2000/svg" xmlns:xlink="http://www.w3.org/1999/xlink" width="30" height="32" viewBox="0 0 30 32">
<path d="M25.152 17.728v8.544q0 0.48-0.352 0.832t-0.8 0.32h-6.848v-6.848h-4.576v6.848h-6.848q-0.48 0-0.8-0.32t-0.352-0.832v-8.544q0-0.032 0-0.064t0-0.064l10.272-8.448 10.272 8.448q0.032 0.032 0.032 0.128zM29.12 16.48l-1.088 1.312q-0.16 0.16-0.384 0.192h-0.064q-0.224 0-0.384-0.096l-12.352-10.304-12.352 10.304q-0.224 0.128-0.416 0.096-0.224-0.032-0.384-0.192l-1.12-1.312q-0.128-0.192-0.096-0.416t0.192-0.384l12.832-10.688q0.576-0.48 1.344-0.48t1.376 0.48l4.352 3.648v-3.488q0-0.256 0.16-0.416t0.416-0.16h3.424q0.256 0 0.416 0.16t0.16 0.416v7.264l3.904 3.264q0.16 0.128 0.192 0.384t-0.128 0.416z"></path>
</svg>
