<?xml version="1.0" encoding="utf-8"?>
<!-- Generated by IcoMoon.io -->
<!DOCTYPE svg PUBLIC "-//W3C//DTD SVG 1.1//EN" "http://www.w3.org/Graphics/SVG/1.1/DTD/svg11.dtd">
<svg version="1.1" xmlns="http://www.w3.org/2000/svg" xmlns:xlink="http://www.w3.org/1999/xlink" width="32" height="32" viewBox="0 0 32 32">
<path d="M14.304 0.096c2.016-0.192 4.096-0.032 6.048 0.512 3.712 1.024 6.976 3.456 9.056 6.656 1.664 2.56 2.56 5.6 2.56 8.64 0.032 2.976-0.8 5.952-2.368 8.448-1.6 2.592-3.936 4.672-6.656 5.984-2.88 1.408-6.208 1.888-9.376 1.376-3.488-0.512-6.784-2.272-9.184-4.832-2.24-2.368-3.712-5.44-4.16-8.672-0.512-3.584 0.224-7.328 2.112-10.432 2.496-4.256 7.072-7.2 11.968-7.68zM16.224 28.064c0.224 0 0.416 0 0.608-0.032 1.568-0.128 2.976-0.928 4.096-1.984 1.024-0.992 1.792-2.208 2.336-3.52 0.8-1.984 1.024-4.16 0.864-6.272-0.032-0.096-0.064-0.16-0.096-0.256-0.64 0.896-1.376 1.696-2.112 2.528l-0.064 0.224c-0.96-0.96-1.888-1.92-2.848-2.816-0.864 0.928-1.76 1.856-2.624 2.784-0.928-0.896-1.984-1.728-2.944-2.624-0.096-0.096-0.288-0.128-0.352-0.032-0.768 0.928-1.568 1.76-2.304 2.688-0.64-0.608-1.376-1.088-2.048-1.664-0.128-0.064-0.288-0.288-0.384-0.128-0.096 2.016 0.224 4.032 1.024 5.888 0.864 1.984 2.368 3.808 4.384 4.704 0.192 0.064 0.352 0.128 0.512 0.192 0.64 0.192 1.28 0.32 1.92 0.32h0.032zM10.784 17.664c0 0.032 0 0.032 0 0.032l0.032-0.032c0.192-0.192 0.352-0.352 0.48-0.544 0.032 0 0.032-0.032 0.032-0.032 0.032-0.032 0.032-0.064 0.064-0.096v0h-0.096c-0.064 0-0.192 0-0.256 0 0-0.224 0.032-0.48 0.064-0.704v-0.064c0-0.032 0-0.032 0.032-0.064 0-0.064 0-0.128 0-0.192 0.032-0.064 0.032-0.16 0.064-0.256 0-0.032 0-0.096 0.032-0.128 0-0.064 0-0.096 0.032-0.16 0.032-0.16 0.064-0.32 0.096-0.48 0.128-0.416 0.256-0.8 0.416-1.184 0.064-0.224 0.16-0.384 0.256-0.576v-0.032l0.064-0.064c0.032-0.128 0.096-0.224 0.16-0.352v0l0.032-0.032c0.064-0.096 0.096-0.16 0.16-0.256 0 0 0-0.032 0.032-0.064s0.064-0.096 0.096-0.128c0-0.032 0.032-0.064 0.032-0.064 0.032-0.032 0.032-0.064 0.064-0.064v0c0-0.032 0.032-0.064 0.064-0.096s0.032-0.096 0.064-0.128c0.064 0.128 0.128 0.256 0.16 0.384 0.032 0.064 0.064 0.128 0.096 0.192 0.064 0.128 0.128 0.288 0.192 0.416 0.064 0.096 0.096 0.16 0.128 0.256 0.032 0.064 0.064 0.128 0.096 0.16v0.032c0.032 0.064 0.064 0.16 0.096 0.224l0.032 0.032c0.032 0.096 0.064 0.16 0.128 0.256 0.032 0.064 0.032 0.096 0.064 0.16 0.064 0.128 0.128 0.256 0.16 0.384 0 0.032 0 0.032 0 0.032 0 0.064 0 0.096 0 0.16-0.032 0-0.032 0.032-0.032 0.032s0 0.032 0 0.032v0 0.032c-0.032 0.032-0.064 0.096-0.064 0.16-0.032 0.096-0.096 0.192-0.128 0.256 0 0.064-0.032 0.128-0.064 0.192v0c0.064 0.032 0.096 0.064 0.128 0.096 0.064 0.064 0.128 0.128 0.192 0.192 0.032 0.032 0.064 0.032 0.064 0.064 0.032 0 0.032 0.032 0.032 0.032 0.032 0 0.064 0.032 0.064 0.032l0.032 0.032c0 0 0 0 0 0h0.032c0 0 0 0.032 0.032 0.032 0 0 0 0 0 0 0.032 0 0.064 0.032 0.064 0.032 0.032 0 0.032 0 0.032 0.032 0.032 0 0.032 0 0.032 0 0.032 0 0.032 0 0.032 0s0.032 0 0.032-0.032c0 0 0-0.032 0-0.032 0-0.032 0-0.064 0.032-0.096 0-0.032 0-0.064 0-0.064 0.032-0.064 0.032-0.096 0.032-0.128 0.032-0.064 0.064-0.16 0.096-0.224 0.064-0.16 0.128-0.352 0.192-0.512h0.096c0.032 0 0.064 0 0.096 0 0.32 0 0.672 0 0.992 0 0.256 0 0.512 0 0.768 0h0.288c0.32 0 0.608 0 0.896 0 0 0.032 0 0.064 0.032 0.064 0 0.032 0.032 0.064 0.032 0.096 0.064 0.192 0.16 0.352 0.224 0.512 0.032 0.032 0.032 0.096 0.032 0.128 0.032 0 0.096 0 0.128-0.032 0.032 0 0.064 0 0.096 0 0.032-0.032 0.064-0.096 0.128-0.16v0-0.032c0.032-0.032 0.064-0.064 0.096-0.064 0-0.032 0-0.032 0.032-0.032 0.064-0.064 0.096-0.128 0.192-0.16v0-0.032c0 0 0.032 0 0.032 0s0 0 0-0.032v0 0c-0.032-0.096-0.096-0.192-0.128-0.288-0.032-0.032-0.032-0.064-0.032-0.096-0.032-0.032-0.032-0.032-0.032-0.032 0-0.032-0.032-0.096-0.032-0.128 0 0 0-0.032 0-0.064-0.032 0-0.032-0.032 0-0.032 0-0.064 0-0.096 0-0.128h0.032c0-0.032 0-0.032 0-0.032 0-0.032 0-0.032 0.032-0.032 0.096-0.192 0.16-0.352 0.256-0.512 0.064-0.128 0.096-0.224 0.16-0.32 0.064-0.16 0.16-0.288 0.224-0.448 0.128-0.288 0.256-0.544 0.416-0.832 0.032 0.064 0.064 0.128 0.096 0.224 0.064 0.064 0.128 0.16 0.16 0.256 0.064 0.064 0.096 0.128 0.128 0.16v0.032c0.064 0.064 0.096 0.128 0.128 0.192 0.032 0.032 0.032 0.064 0.064 0.096 0 0.032 0.032 0.064 0.064 0.128v0c0.032 0.032 0.032 0.064 0.064 0.096 0 0 0 0.032 0 0.032 0.032 0.032 0.032 0.064 0.032 0.064 0 0.032 0.032 0.032 0.032 0.064 0.032 0.096 0.096 0.192 0.128 0.288 0.032 0.064 0.032 0.128 0.064 0.16 0.064 0.16 0.128 0.32 0.16 0.448 0.032 0.032 0.032 0.096 0.032 0.128 0.032 0.032 0.032 0.064 0.064 0.128 0.032 0.128 0.064 0.256 0.096 0.384 0.128 0.512 0.224 1.024 0.288 1.536 0 0.128 0.032 0.224 0.032 0.32 0 0.064 0 0.128 0 0.192-0.064 0-0.224 0-0.32 0 0.032 0.032 0.032 0.064 0.064 0.064v0 0.032c0.032 0 0.032 0.032 0.064 0.032 0 0.032 0.032 0.064 0.064 0.096l0.032 0.032c0.128 0.128 0.256 0.256 0.384 0.416 0 0 0 0 0 0.032 0.032-0.032 0.064-0.064 0.096-0.064 0.032-0.064 0.096-0.096 0.128-0.16h0.032c0-0.032 0.032-0.032 0.032-0.064 0.032 0 0.032-0.032 0.032-0.032 0.032 0 0.032-0.032 0.032-0.032 0.096-0.128 0.192-0.256 0.288-0.352 0.032-0.032 0.064-0.096 0.096-0.128l0.064-0.064c0.032-0.032 0.064-0.064 0.096-0.096 0-0.032 0.032-0.032 0.032-0.032s0-0.032 0-0.032 0-0.032 0-0.064c0-0.096 0-0.224 0-0.32 0-0.032 0-0.064 0-0.096-0.032-0.16-0.032-0.32-0.064-0.48 0-0.096-0.032-0.16-0.032-0.256 0-0.032 0-0.064-0.032-0.096 0-0.032 0-0.064 0-0.096 0-0.064-0.032-0.128-0.032-0.192-0.064-0.32-0.16-0.64-0.256-0.96-0.032-0.064-0.032-0.128-0.064-0.192 0-0.064-0.032-0.096-0.032-0.16-0.064-0.16-0.128-0.32-0.192-0.448-0.032-0.096-0.096-0.192-0.128-0.288-0.096-0.224-0.192-0.416-0.288-0.64-0.032-0.032-0.064-0.064-0.064-0.096-0.032-0.064-0.064-0.096-0.096-0.128-0.032-0.064-0.064-0.16-0.128-0.224-0.064-0.096-0.096-0.192-0.192-0.288 0-0.032-0.032-0.064-0.064-0.096 0.032 0.032 0.064 0.032 0.064 0.032l0.032 0.032c0.096 0.064 0.224 0.128 0.352 0.16l0.032 0.032h0.032c0.16 0.064 0.32 0.128 0.448 0.224 0.032 0 0.064 0 0.096 0.032 0 0 0.576 0.288 0.64 0.32 0.384 0.128 0.768 0.32 1.184 0.48 0.16 0.064 0.352 0.16 0.544 0.224 0.128 0.064 0.256 0.096 0.416 0.16 0.064 0 0.128 0.032 0.224 0.064v0h0.032c0.032 0 0.032 0.032 0.064 0.032 0.064 0 0.128 0.032 0.16 0.032l0.064 0.032c0.16 0.032 0.32 0.096 0.448 0.128 0.096 0.032 0.192 0.032 0.288 0.064 0.064 0 0.128 0 0.192 0l0.032 0.032c0.032 0 0.064 0 0.096 0h0.032c0.032 0 0.064-0.032 0.096-0.032 0.032-0.032 0.032-0.064 0.032-0.096 0-0.064-0.032-0.16-0.032-0.224 0 0 0-0.032 0-0.032s0-0.032 0-0.032c-0.032-0.096-0.064-0.192-0.096-0.256-0.032-0.096-0.064-0.16-0.128-0.256 0-0.032-0.032-0.096-0.064-0.128-0.032-0.064-0.064-0.096-0.096-0.16-0.032-0.032-0.064-0.064-0.064-0.096-0.128-0.16-0.256-0.32-0.352-0.448-0.032-0.032-0.032-0.064-0.064-0.096l-0.032-0.032v-0.032c-0.032-0.032-0.032-0.064-0.064-0.096v0c-0.096-0.096-0.16-0.192-0.256-0.288-0.032-0.032-0.064-0.064-0.096-0.096-0.256-0.256-0.48-0.512-0.736-0.736v0l-0.032-0.032c-0.128-0.128-0.224-0.256-0.352-0.352-0.064-0.064-0.128-0.096-0.16-0.128l-0.032-0.032c-0.032-0.032-0.032-0.032-0.064-0.064l-0.064-0.032c-0.096-0.096-0.224-0.192-0.32-0.256-0.064-0.064-0.096-0.096-0.128-0.128-0.064-0.032-0.128-0.064-0.192-0.096 0-0.032-0.032-0.032-0.032-0.064-0.064-0.032-0.096-0.064-0.16-0.096-0.032 0-0.064-0.032-0.096-0.032v-0.032h-0.032c-0.064-0.032-0.096-0.064-0.16-0.096-0.128-0.096-0.288-0.16-0.448-0.256-0.064-0.032-0.096-0.032-0.128-0.064-0.064-0.032-0.128-0.064-0.192-0.064 0-0.032-0.032-0.032-0.032-0.032-0.064-0.032-0.096-0.032-0.128-0.032l-0.032-0.032c-0.032 0-0.096 0-0.128 0v-0.032c-0.256-0.032-0.48-0.064-0.736-0.064 0 0-0.032 0.032-0.032 0.032h-0.032c-0.064 0-0.16 0-0.224 0h-0.032c-0.096 0.032-0.16 0.032-0.256 0.064-0.064 0-0.128 0.032-0.16 0.032s-0.032 0-0.064 0.032c-0.032 0-0.096 0-0.128 0.032-0.032 0-0.032 0-0.032 0-0.096 0.064-0.16 0.096-0.256 0.16-0.128 0.064-0.256 0.16-0.352 0.256v0l-0.064 0.064c0 0-0.032 0.032-0.064 0.064-0.096 0.096-0.16 0.224-0.192 0.352l-0.032 0.032c-0.064-0.032-0.096-0.064-0.16-0.096-0.192-0.128-0.384-0.192-0.544-0.288h-0.064c-0.032-0.032-0.064-0.032-0.096-0.064h-0.032l-0.032-0.032c-0.064 0-0.128-0.032-0.192-0.064 0.032-0.128 0.032-0.224 0.064-0.352 0-0.064 0-0.128 0.032-0.192 0-0.032 0-0.096 0-0.128 0-0.064 0-0.096 0.032-0.16v-0.032c0 0 0-0.032 0-0.032 0-0.096 0-0.224 0-0.32 0.032-0.192 0.032-0.384 0.032-0.576-0.032-0.032-0.032-0.064-0.032-0.064 0-0.032 0-0.064 0-0.096 0-0.064 0-0.16 0-0.256 0 0 0 0 0 0 0-0.096 0-0.16-0.032-0.224 0-0.032 0-0.064 0-0.096-0.032-0.032-0.032-0.032-0.032-0.064-0.032-0.16-0.096-0.288-0.16-0.448 0 0 0 0 0-0.032-0.128-0.288-0.32-0.576-0.448-0.864 0 0-0.032-0.032-0.032-0.064-0.128-0.128-0.224-0.32-0.32-0.48-0.064-0.064-0.096-0.096-0.128-0.16-0.032-0.032-0.032-0.064-0.064-0.096s-0.064-0.096-0.128-0.128v0c-0.096-0.16-0.224-0.352-0.416-0.384 0 0-0.032 0-0.032 0-0.032 0-0.064 0-0.096 0v0.032c-0.032 0-0.032 0-0.064 0.032 0 0-0.032 0-0.032 0 0 0.032 0 0.032-0.032 0.032-0.032 0.032-0.032 0.032-0.064 0.064s-0.064 0.064-0.096 0.096c0 0-0.032 0.032-0.032 0.032 0 0.032-0.032 0.032-0.032 0.032 0 0.032-0.032 0.032-0.032 0.064v0c-0.224 0.288-0.416 0.576-0.576 0.864-0.032 0.064-0.096 0.128-0.128 0.192-0.032 0.096-0.096 0.192-0.16 0.288-0.032 0.128-0.096 0.224-0.16 0.352 0 0.032-0.032 0.064-0.064 0.096 0 0.032 0 0.064-0.032 0.096v0.032c-0.032 0.096-0.064 0.192-0.096 0.288-0.032 0.064-0.032 0.16-0.032 0.224s-0.032 0.16-0.032 0.224c0 0.032 0 0.064 0 0.128 0 0 0 0.032 0 0.064-0.032 0.32 0 0.64 0 0.96 0.032 0.064 0.032 0.096 0.032 0.16 0 0.032 0 0.064 0 0.064 0 0.032 0 0.064 0 0.096s0.032 0.064 0.032 0.096c0 0.032 0 0.096 0 0.16 0.032 0.16 0.064 0.352 0.096 0.512-0.096 0.032-0.192 0.064-0.288 0.128-0.096 0.032-0.224 0.096-0.352 0.128-0.032 0.032-0.096 0.064-0.16 0.096v0 0c-0.032 0.032-0.096 0.032-0.128 0.064v0c-0.032 0.032-0.032 0.032-0.064 0.032 0 0.032-0.032 0.032-0.032 0.032-0.032 0-0.032 0.032-0.032 0.032h-0.032c-0.032 0.032-0.032 0.032-0.064 0.064 0 0-0.032 0-0.032 0.032h-0.032c-0.032 0.032-0.032 0.032-0.064 0.064v0c-0.032-0.064-0.064-0.128-0.096-0.224 0 0 0 0-0.032-0.032 0-0.032-0.032-0.096-0.064-0.128 0-0.032-0.032-0.032-0.032-0.064-0.032-0.032-0.032-0.032-0.064-0.064 0-0.032-0.032-0.032-0.032-0.064-0.064-0.032-0.096-0.096-0.16-0.128v0-0.032c-0.032 0-0.064-0.032-0.096-0.064v0l-0.032-0.032c0 0-0.032 0-0.032-0.032h-0.032c-0.032-0.032-0.032-0.032-0.064-0.032-0.064-0.064-0.16-0.096-0.224-0.128-0.032-0.032-0.064-0.032-0.096-0.032-0.096-0.064-0.224-0.096-0.352-0.128 0 0-0.032 0-0.064 0v-0.032c-0.064 0-0.128 0-0.192-0.032-0.032 0-0.032 0-0.032 0-0.032 0-0.064 0-0.096 0-0.064 0-0.128-0.032-0.224-0.032 0 0 0 0-0.032 0 0 0-0.032 0-0.032 0-0.032 0-0.032 0-0.064 0h-0.064c-0.128 0-0.288 0.032-0.416 0.032h-0.032c-0.032 0.032-0.032 0.032-0.064 0.032h-0.032c-0.128 0.064-0.288 0.096-0.416 0.16 0 0.032-0.032 0.032-0.064 0.032-0.16 0.064-0.32 0.16-0.448 0.224-0.096 0.064-0.16 0.096-0.256 0.128 0 0.032 0 0.032-0.032 0.032-0.032 0.032-0.064 0.032-0.096 0.064s-0.064 0.032-0.096 0.064c-0.032 0.032-0.064 0.032-0.096 0.064-0.064 0.064-0.16 0.096-0.224 0.16l-0.032 0.032c-0.096 0.064-0.16 0.128-0.256 0.192l-0.032 0.032h-0.032c-0.064 0.064-0.128 0.128-0.192 0.192-0.064 0.032-0.096 0.096-0.16 0.128-0.32 0.288-0.608 0.576-0.928 0.896v0c-0.096 0.128-0.224 0.224-0.32 0.32l-0.032 0.032v0.032c-0.16 0.16-0.288 0.32-0.416 0.512-0.064 0.064-0.096 0.096-0.128 0.16-0.032 0.032-0.032 0.064-0.064 0.064v0.032h-0.032c0 0.032 0 0.064-0.032 0.064 0 0.032-0.032 0.064-0.032 0.064-0.032 0.032-0.064 0.064-0.096 0.128 0 0-0.032 0.032-0.032 0.064-0.032 0.064-0.096 0.128-0.128 0.192l-0.032 0.032v0.032l-0.032 0.032c0 0-0.032 0.032-0.032 0.064v0 0.032c-0.064 0.064-0.096 0.128-0.128 0.224 0 0.032 0 0.064-0.032 0.096 0 0.032 0 0.064 0 0.096s0 0.032 0 0.064c-0.032 0.064 0 0.16 0 0.224v0l0.032 0.032c0 0 0 0 0 0 0 0.032 0 0.032 0 0.064h0.032c0 0.032 0 0.032 0 0.032 0.032 0 0.096 0 0.128 0h0.032c0.224-0.064 0.448-0.096 0.672-0.16 0.032 0 0.064 0 0.064 0 0.128-0.032 0.224-0.064 0.352-0.096 0.064-0.032 0.128-0.064 0.192-0.064 0.16-0.064 0.288-0.096 0.448-0.16 0.384-0.128 0.736-0.288 1.12-0.448l0.064-0.032c0.128-0.064 0.256-0.096 0.352-0.16 0.256-0.128 0.512-0.224 0.768-0.352 0.064-0.032 0.096-0.032 0.16-0.064 0.256-0.128 0.512-0.224 0.768-0.352 0.128-0.064 0.288-0.128 0.448-0.192 0.128-0.064 0.288-0.128 0.448-0.224l-0.032 0.032c-0.032 0.032-0.032 0.032-0.064 0.064-0.064 0.064-0.096 0.128-0.16 0.192-0.064 0.096-0.128 0.192-0.192 0.288h-0.032c-0.032 0.064-0.064 0.128-0.096 0.192s-0.096 0.128-0.128 0.192c-0.032 0.096-0.096 0.224-0.16 0.32-0.032 0.096-0.096 0.192-0.16 0.288 0 0.064-0.032 0.096-0.032 0.128-0.032 0.032-0.032 0.064-0.064 0.096-0.096 0.288-0.192 0.544-0.288 0.832-0.064 0.224-0.128 0.448-0.192 0.672-0.064 0.16-0.096 0.352-0.128 0.512v0.032l-0.032 0.064v0.032c0 0.128-0.032 0.224-0.064 0.352-0.032 0.32-0.064 0.64-0.096 0.96v0.064c0 0.096 0 0.16 0 0.256 0.032 0.032 0.064 0.064 0.096 0.096s0.064 0.032 0.064 0.064c0.064 0.064 0.128 0.096 0.192 0.16 0.128 0.064 0.224 0.16 0.352 0.256v0l0.032 0.032h0.032c0 0.032 0.032 0.032 0.032 0.032 0.032 0.032 0.064 0.064 0.096 0.096 0 0 0.032 0.032 0.032 0.032s0.032 0.032 0.032 0.032h0.032zM13.44 11.168c0.832-0.64 1.824-1.152 2.88-1.12 1.088 0 2.048 0.544 2.848 1.248-0.16 0.352-0.32 0.704-0.512 1.056-0.224 0.512-0.544 0.992-0.736 1.536-1.056 0.032-2.080 0-3.136 0.032-0.448-0.928-0.896-1.824-1.344-2.752z"></path>
</svg>
