<?xml version="1.0" encoding="utf-8"?>
<!-- Generated by IcoMoon.io -->
<!DOCTYPE svg PUBLIC "-//W3C//DTD SVG 1.1//EN" "http://www.w3.org/Graphics/SVG/1.1/DTD/svg11.dtd">
<svg version="1.1" xmlns="http://www.w3.org/2000/svg" xmlns:xlink="http://www.w3.org/1999/xlink" width="25" height="32" viewBox="0 0 25 32">
<path d="M25.152 13.152v3.424q0 0.704-0.512 1.216t-1.216 0.48h-7.424v7.456q0 0.704-0.512 1.184t-1.216 0.512h-3.424q-0.704 0-1.216-0.512t-0.48-1.184v-7.456h-7.424q-0.736 0-1.216-0.48t-0.512-1.216v-3.424q0-0.736 0.512-1.216t1.216-0.512h7.424v-7.424q0-0.704 0.48-1.216t1.216-0.512h3.424q0.736 0 1.216 0.512t0.512 1.216v7.424h7.424q0.704 0 1.216 0.512t0.512 1.216z"></path>
</svg>
