<?xml version="1.0" encoding="utf-8"?>
<!-- Generated by IcoMoon.io -->
<!DOCTYPE svg PUBLIC "-//W3C//DTD SVG 1.1//EN" "http://www.w3.org/Graphics/SVG/1.1/DTD/svg11.dtd">
<svg version="1.1" xmlns="http://www.w3.org/2000/svg" xmlns:xlink="http://www.w3.org/1999/xlink" width="27" height="32" viewBox="0 0 27 32">
<path d="M26.976 18.848q0 0.096 0 0.128-1.152 4.8-4.8 7.776t-8.544 2.976q-2.592 0-5.024-0.992t-4.352-2.816l-2.304 2.304q-0.352 0.352-0.8 0.352t-0.8-0.352-0.352-0.8v-8q0-0.448 0.352-0.8t0.8-0.352h8q0.448 0 0.8 0.352t0.32 0.8-0.32 0.8l-2.464 2.464q1.28 1.184 2.88 1.824t3.36 0.64q2.368 0 4.448-1.184t3.328-3.168q0.192-0.32 0.928-2.112 0.16-0.416 0.544-0.416h3.424q0.256 0 0.416 0.192t0.16 0.384zM27.424 4.576v8q0 0.448-0.32 0.8t-0.832 0.352h-8q-0.448 0-0.8-0.352t-0.32-0.8 0.32-0.8l2.464-2.464q-2.624-2.464-6.208-2.464-2.4 0-4.48 1.184t-3.328 3.168q-0.192 0.32-0.928 2.112-0.16 0.416-0.544 0.416h-3.552q-0.224 0-0.416-0.192t-0.16-0.384v-0.128q1.152-4.8 4.832-7.776t8.576-2.976q2.592 0 5.056 0.992t4.384 2.816l2.304-2.304q0.352-0.352 0.8-0.352t0.832 0.352 0.32 0.8z"></path>
</svg>
