<?xml version="1.0" encoding="utf-8"?>
<!-- Generated by IcoMoon.io -->
<!DOCTYPE svg PUBLIC "-//W3C//DTD SVG 1.1//EN" "http://www.w3.org/Graphics/SVG/1.1/DTD/svg11.dtd">
<svg version="1.1" xmlns="http://www.w3.org/2000/svg" xmlns:xlink="http://www.w3.org/1999/xlink" width="32" height="32" viewBox="0 0 32 32">
<path d="M15.936 0c-3.648 0-7.296 1.248-10.24 3.712v0c5.536-4.48 13.696-4.16 18.816 0.992 4.288 4.288 5.248 10.624 2.848 15.84-0.32 0.928-0.16 1.6 0.384 2.176 0.672 0.64 1.952 0.736 2.688 0 0.096-0.096 0.384-0.48 0.48-0.768 2.272-5.76 1.056-12.576-3.584-17.248-3.168-3.136-7.296-4.704-11.392-4.704zM2.848 8.768c-0.448 0-0.928 0.16-1.248 0.512-0.096 0.096-0.416 0.48-0.48 0.768-2.272 5.76-1.088 12.576 3.584 17.248 5.92 5.92 15.328 6.24 21.632 0.992v0c-5.536 4.48-13.696 4.16-18.848-0.992-4.288-4.288-5.216-10.656-2.848-15.84 0.352-0.928 0.192-1.6-0.384-2.176-0.352-0.352-0.864-0.544-1.408-0.512z"></path>
</svg>
