<?xml version="1.0" encoding="utf-8"?>
<!-- Generated by IcoMoon.io -->
<!DOCTYPE svg PUBLIC "-//W3C//DTD SVG 1.1//EN" "http://www.w3.org/Graphics/SVG/1.1/DTD/svg11.dtd">
<svg version="1.1" xmlns="http://www.w3.org/2000/svg" xmlns:xlink="http://www.w3.org/1999/xlink" width="30" height="32" viewBox="0 0 30 32">
<path d="M4.576 10.272q0 0.48-0.352 0.832t-0.8 0.32q-0.48 0-0.8-0.32t-0.352-0.832q0-0.48 0.352-0.8t0.8-0.32q0.48 0 0.8 0.32t0.352 0.8zM7.424 19.424v-11.424q0-0.48-0.32-0.8t-0.832-0.352h-5.12q-0.48 0-0.8 0.352t-0.352 0.8v11.424q0 0.48 0.352 0.8t0.8 0.352h5.12q0.48 0 0.832-0.352t0.32-0.8zM27.584 16.768q0.992 1.088 0.992 2.656-0.032 1.408-1.024 2.4t-2.4 1.024h-4.96q0.064 0.256 0.16 0.448t0.192 0.384 0.16 0.32q0.32 0.672 0.48 1.024t0.352 1.024 0.192 1.376q0 0.448-0.032 0.704t-0.064 0.8-0.224 0.896-0.448 0.8-0.704 0.736-1.056 0.448-1.472 0.192q-0.48 0-0.832-0.352t-0.576-0.864-0.352-0.928-0.224-1.12q-0.16-0.736-0.256-1.056t-0.32-0.864-0.544-0.864q-0.576-0.608-1.792-2.144-0.896-1.152-1.824-2.176t-1.344-1.056q-0.448-0.032-0.768-0.352t-0.32-0.768v-11.456q0-0.48 0.32-0.8t0.832-0.352q0.608 0 2.816-0.768 1.376-0.48 2.144-0.704t2.176-0.512 2.56-0.288h2.304q2.368 0.032 3.52 1.376 1.024 1.248 0.864 3.232 0.704 0.672 0.992 1.696 0.288 1.088 0 2.080 0.8 1.088 0.768 2.464 0 0.544-0.288 1.344z"></path>
</svg>
