<?xml version="1.0" encoding="utf-8"?>
<!-- Generated by IcoMoon.io -->
<!DOCTYPE svg PUBLIC "-//W3C//DTD SVG 1.1//EN" "http://www.w3.org/Graphics/SVG/1.1/DTD/svg11.dtd">
<svg version="1.1" xmlns="http://www.w3.org/2000/svg" xmlns:xlink="http://www.w3.org/1999/xlink" width="30" height="32" viewBox="0 0 30 32">
<path d="M4.576 24q0-0.48-0.352-0.8t-0.8-0.352q-0.48 0-0.8 0.352t-0.352 0.8q0 0.48 0.352 0.8t0.8 0.352q0.48 0 0.8-0.352t0.352-0.8zM7.424 14.848v11.424q0 0.48-0.32 0.8t-0.832 0.352h-5.12q-0.48 0-0.8-0.352t-0.352-0.8v-11.424q0-0.448 0.352-0.8t0.8-0.32h5.12q0.48 0 0.832 0.32t0.32 0.8zM28.576 14.848q0 1.536-0.992 2.656 0.288 0.8 0.288 1.376 0.032 1.344-0.768 2.432 0.288 1.024 0 2.112-0.288 0.992-0.992 1.664 0.16 2.016-0.864 3.232-1.152 1.376-3.52 1.408h-2.304q-1.184 0-2.56-0.288t-2.176-0.512-2.144-0.704q-2.208-0.768-2.816-0.8-0.48 0-0.832-0.352t-0.32-0.8v-11.424q0-0.448 0.32-0.8t0.768-0.352q0.416-0.032 1.344-1.056t1.824-2.144q1.216-1.568 1.792-2.144 0.32-0.32 0.544-0.864t0.32-0.864 0.256-1.088q0.128-0.704 0.224-1.088t0.352-0.928 0.576-0.896q0.352-0.352 0.832-0.352 0.8 0 1.472 0.192t1.056 0.48 0.704 0.704 0.448 0.832 0.224 0.864 0.064 0.832 0.032 0.672q0 0.672-0.192 1.376t-0.32 1.056-0.512 0.992q-0.032 0.128-0.16 0.32t-0.192 0.416-0.16 0.416h4.96q1.376 0 2.4 1.024t1.024 2.4z"></path>
</svg>
