<?xml version="1.0" encoding="utf-8"?>
<!-- Generated by IcoMoon.io -->
<!DOCTYPE svg PUBLIC "-//W3C//DTD SVG 1.1//EN" "http://www.w3.org/Graphics/SVG/1.1/DTD/svg11.dtd">
<svg version="1.1" xmlns="http://www.w3.org/2000/svg" xmlns:xlink="http://www.w3.org/1999/xlink" width="30" height="32" viewBox="0 0 30 32">
<path d="M29.728 10.272v4.576q0 0.48-0.352 0.8t-0.8 0.352h-1.152q-0.448 0-0.8-0.352t-0.352-0.8v-4.576q0-1.888-1.312-3.232t-3.232-1.312-3.232 1.312-1.344 3.232v3.456h1.696q0.736 0 1.216 0.48t0.512 1.216v10.304q0 0.704-0.512 1.184t-1.216 0.512h-17.12q-0.736 0-1.216-0.512t-0.512-1.184v-10.304q0-0.704 0.512-1.216t1.216-0.48h12v-3.456q0-3.296 2.336-5.632t5.664-2.368 5.632 2.368 2.368 5.632z"></path>
</svg>
